<svg xmlns="http://www.w3.org/2000/svg" xmlns:xlink="http://www.w3.org/1999/xlink" width="48" height="48" viewBox="0 0 48 48" fill="none">
<path d="M9.67915 6.13397C9.90136 5.81171 10.0315 5.42105 10.0315 5C10.0315 3.89543 9.13604 3 8.03147 3C7.32709 3 6.70776 3.36413 6.35145 3.91441C5.62764 4.99934 5.01653 6.14277 4.51814 7.34468C3.50605 9.78543 3 12.3372 3 15C3 17.6628 3.50605 20.2146 4.51814 22.6553C5.01654 23.8572 5.62764 25.0007 6.35145 26.0856C6.70776 26.6359 7.32709 27 8.03147 27C9.13604 27 10.0315 26.1046 10.0315 25C10.0315 24.5789 9.90135 24.1883 9.67915 23.866C9.10017 22.9982 8.61148 22.0839 8.21307 21.1232C7.40436 19.1729 7 17.1318 7 15C7 12.8682 7.40436 10.8271 8.21307 8.87684C8.61148 7.91606 9.10017 7.00177 9.67915 6.13397ZM41.68 3.91442C41.3237 3.36413 40.7044 3 40 3C38.8954 3 38 3.89543 38 5C38 5.42104 38.1301 5.8117 38.3523 6.13396C38.9313 7.00176 39.42 7.91605 39.8184 8.87684C40.6271 10.8271 41.0315 12.8682 41.0315 15C41.0315 17.1318 40.6271 19.1729 39.8184 21.1232C39.42 22.0839 38.9313 22.9982 38.3523 23.866C38.1301 24.1883 38 24.5789 38 25C38 26.1046 38.8954 27 40 27C40.7044 27 41.3237 26.6359 41.68 26.0856C42.4038 25.0007 43.0149 23.8572 43.5133 22.6553C44.5254 20.2146 45.0315 17.6628 45.0315 15C45.0315 12.3372 44.5254 9.78543 43.5133 7.34468C43.0149 6.14277 42.4038 4.99935 41.68 3.91442ZM16 8C16 8.40249 15.8811 8.77721 15.6765 9.09096C15.3165 9.66479 15.0123 10.2696 14.7638 10.9056C14.2546 12.2084 14 13.5732 14 15C14 16.4268 14.2546 17.7916 14.7638 19.0944C15.0123 19.7303 15.3165 20.3352 15.6765 20.909C15.8811 21.2228 16 21.5975 16 22C16 23.1046 15.1046 24 14 24C13.2747 24 12.6396 23.6139 12.2889 23.0361C11.7952 22.2492 11.3783 21.4207 11.0382 20.5505C10.3461 18.7796 10 16.9294 10 15C10 13.0706 10.3461 11.2204 11.0382 9.44952C11.3783 8.57929 11.7952 7.75076 12.2889 6.96393C12.6396 6.38608 13.2747 6 14 6C15.1046 6 16 6.89543 16 8ZM35.7111 6.96393C35.3604 6.38608 34.7253 6 34 6C32.8954 6 32 6.89543 32 8C32 8.40249 32.1189 8.77721 32.3235 9.09096C32.6835 9.66479 32.9878 10.2696 33.2363 10.9056C33.7454 12.2084 34 13.5732 34 15C34 16.4268 33.7454 17.7916 33.2363 19.0944C32.9878 19.7303 32.6835 20.3352 32.3235 20.909C32.1189 21.2228 32 21.5975 32 22C32 23.1046 32.8954 24 34 24C34.7253 24 35.3604 23.6139 35.7111 23.0361C36.2048 22.2492 36.6217 21.4207 36.9618 20.5505C37.6539 18.7796 38 16.9294 38 15C38 13.0706 37.6539 11.2204 36.9618 9.44952C36.6217 8.57929 36.2048 7.75076 35.7111 6.96393ZM32 15C32 18.7277 29.4505 21.8599 26 22.748L26 32L35.6466 32C38.0002 32 39.7485 33.0287 40.8915 35.0861L41.4471 36.0862C43.6689 40.0853 40.777 45 36.2021 45L11.7982 45C7.22332 45 4.33152 40.0853 6.55328 36.0861L8.30333 37.0584L6.55329 36.0861L7.10886 35.0861C8.2519 33.0287 10.0002 32 12.3538 32L22 32L22 22.748C18.5495 21.8599 16 18.7277 16 15C16 10.5817 19.5817 7 24 7C28.4183 7 32 10.5817 32 15Z" fill-rule="evenodd"  fill="#000000" >
</path>
</svg>
