<svg xmlns="http://www.w3.org/2000/svg" xmlns:xlink="http://www.w3.org/1999/xlink" width="48" height="48" viewBox="0 0 48 48" fill="none">
<path d="M16 30.5C11.5817 30.5 8 26.9183 8 22.5L8 11C8 6.58172 11.5817 3 16 3L32 3C36.4183 3 40 6.58172 40 11L40 22.5C40 26.9183 36.4183 30.5 32 30.5L26 30.5L26 38L30 38C31.1046 38 32 38.8954 32 40L41 40C42.1046 40 43 40.8954 43 42C43 43.1046 42.1046 44 41 44L32 44C32 45.1046 31.1046 46 30 46L18 46C16.8954 46 16 45.1046 16 44L7 44C5.89543 44 5 43.1046 5 42C5 40.8954 5.89543 40 7 40L16 40C16 38.8954 16.8954 38 18 38L22 38L22 30.5L16 30.5Z" fill-rule="evenodd"  fill="#000000" >
</path>
</svg>
