<svg xmlns="http://www.w3.org/2000/svg" xmlns:xlink="http://www.w3.org/1999/xlink" width="48" height="48" viewBox="0 0 48 48" fill="none">
<path d="M41 21L31.5 21C27.08 21 23.5 17.42 23.5 13L23.5 3L15 3C10.58 3 7 6.58 7 11L7 37C7 41.42 10.58 45 15 45L33 45C37.42 45 41 41.42 41 37L41 21ZM27.5 13C27.5 15.21 29.29 17 31.5 17L40.97 17C40.84 15.68 40.26 14.43 39.33 13.46L31.13 4.86C30.16 3.84 28.88 3.21 27.5 3.04L27.5 13ZM29.5 29.5C30.88 29.5 32 28.38 32 27C32 25.62 30.88 24.5 29.5 24.5C28.12 24.5 27 25.62 27 27C27 28.38 28.12 29.5 29.5 29.5ZM24 41C25.1 41 26 40.1 26 39C26 38.76 25.96 38.53 25.88 38.32L22.3 27.56C21.1 23.9 15.9 23.9 14.7 27.57L11.12 38.32C11.04 38.53 11 38.76 11 39C11 40.1 11.9 41 13 41C13.9 41 14.66 40.41 14.91 39.59L15.77 37L21.23 37L22.09 39.59C22.34 40.41 23.1 41 24 41ZM18.5 28.81L17.1 33L19.89 33L18.5 28.82L18.5 28.81ZM29.5 31C28.4 31 27.5 31.9 27.5 33L27.5 39C27.5 40.1 28.4 41 29.5 41C30.6 41 31.5 40.1 31.5 39L31.5 33C31.5 31.9 30.6 31 29.5 31Z" fill-rule="evenodd"  fill="#000000" >
</path>
</svg>
