<svg xmlns="http://www.w3.org/2000/svg" xmlns:xlink="http://www.w3.org/1999/xlink" width="48" height="48" viewBox="0 0 48 48" fill="none">
<path d="M3 36C3 40.42 6.58 44 11 44L37 44C41.42 44 45 40.42 45 36L45 21C45 16.58 41.42 13 37 13L29.9 13L24.29 6.68C22.77 4.98 20.59 4 18.31 4L11 4C6.58 4 3 7.58 3 12L3 17L3 36ZM26 27L26 24L22 24L22 27C22 28.1 21.1 29 20 29C18.9 29 18 28.1 18 27L18 24L14 24L14 27C14 28.1 13.1 29 12 29C10.9 29 10 28.1 10 27L10 24L9 24C7.9 24 7 24.9 7 26L7 31C7 32.1 7.9 33 9 33L14 33L14 30C14 28.9 14.9 28 16 28C17.1 28 18 28.9 18 30L18 33L22 33L22 30C22 28.9 22.9 28 24 28C25.1 28 26 28.9 26 30L26 33L30 33L30 30C30 28.9 30.9 28 32 28C33.1 28 34 28.9 34 30L34 33L39 33C40.1 33 41 32.1 41 31L41 26C41 24.9 40.1 24 39 24L38 24L38 27C38 28.1 37.1 29 36 29C34.9 29 34 28.1 34 27L34 24L30 24L30 27C30 28.1 29.1 29 28 29C26.9 29 26 28.1 26 27Z" fill-rule="evenodd"  fill="#000000" >
</path>
</svg>
