<svg xmlns="http://www.w3.org/2000/svg" xmlns:xlink="http://www.w3.org/1999/xlink" width="48" height="48" viewBox="0 0 48 48" fill="none">
<path d="M11 44.5L37 44.5C41.42 44.5 45 40.92 45 36.5L45 19.5C45 15.08 41.42 11.5 37 11.5L29.9 11.5L24.29 5.18C22.77 3.48 20.59 2.5 18.31 2.5L11 2.5C6.58 2.5 3 6.08 3 10.5L3 36.5C3 40.92 6.58 44.5 11 44.5ZM35 39C37.21 39 39 37.21 39 35L39 32C39 29.79 37.21 28 35 28L32 28C29.79 28 28 29.79 28 32L28 35C28 37.21 29.79 39 32 39L35 39ZM18.33 33C19.44 33 20.33 32.1 20.33 31C20.33 29.9 19.44 29 18.33 29L11 29C9.9 29 9 29.9 9 31C9 32.1 9.9 33 11 33L18.33 33ZM32 32L32 35L35 35L35 32L32 32ZM22 39C23.1 39 24 38.1 24 37C24 35.9 23.1 35 22 35L11 35C9.9 35 9 35.9 9 37C9 38.1 9.9 39 11 39L22 39Z" fill-rule="evenodd"  fill="#000000" >
</path>
</svg>
