<svg xmlns="http://www.w3.org/2000/svg" xmlns:xlink="http://www.w3.org/1999/xlink" width="48" height="48" viewBox="0 0 48 48" fill="none">
<path d="M39.33 13.46L31.13 4.86C30.16 3.84 28.88 3.21 27.5 3.04L27.5 13C27.5 15.21 29.29 17 31.5 17L40.97 17C40.84 15.68 40.26 14.43 39.33 13.46ZM15 3C10.58 3 7 6.58 7 11L7 37C7 41.42 10.58 45 15 45L33 45C37.42 45 41 41.42 41 37L41 21L31.5 21C27.08 21 23.5 17.42 23.5 13L23.5 3L15 3ZM33 34C33 31.79 31.21 30 29 30L26 30C23.79 30 22 31.79 22 34L22 37C22 39.21 23.79 41 26 41L29 41C31.21 41 33 39.21 33 37L33 34ZM17 35C18.1 35 19 34.1 19 33C19 31.9 18.1 31 17 31L13 31C11.9 31 11 31.9 11 33C11 34.1 11.9 35 13 35L17 35ZM29 37L29 34L26 34L26 37L29 37ZM19 41C20.1 41 21 40.1 21 39C21 37.9 20.1 37 19 37L13 37C11.9 37 11 37.9 11 39C11 40.1 11.9 41 13 41L19 41Z" fill-rule="evenodd"  fill="#000000" >
</path>
</svg>
