<svg xmlns="http://www.w3.org/2000/svg" xmlns:xlink="http://www.w3.org/1999/xlink" width="48" height="48" viewBox="0 0 48 48" fill="none">
<path d="M41 21L31.5 21C27.08 21 23.5 17.42 23.5 13L23.5 3L15 3C10.58 3 7 6.58 7 11L7 37C7 41.42 10.58 45 15 45L33 45C37.42 45 41 41.42 41 37L41 21ZM27.5 13C27.5 15.21 29.29 17 31.5 17L40.97 17C40.84 15.68 40.26 14.43 39.33 13.46L31.13 4.86C30.16 3.84 28.88 3.21 27.5 3.04L27.5 13ZM11 25C11 26.48 11.8 27.77 13 28.47L13 33.53C11.8 34.23 11 35.52 11 37C11 39.21 12.79 41 15 41C16.48 41 17.77 40.2 18.47 39L23.53 39C24.23 40.2 25.52 41 27 41C29.21 41 31 39.21 31 37C31 34.79 29.21 33 27 33C25.52 33 24.23 33.8 23.53 35L18.47 35C18.11 34.39 17.61 33.89 17 33.53L17 28.47C18.2 27.77 19 26.48 19 25C19 22.79 17.21 21 15 21C12.79 21 11 22.79 11 25Z" fill-rule="evenodd"  fill="#000000" >
</path>
</svg>
