<svg xmlns="http://www.w3.org/2000/svg" xmlns:xlink="http://www.w3.org/1999/xlink" width="48" height="48" viewBox="0 0 48 48" fill="none">
<path d="M29.7241 9.66787L18.5341 2.01787C17.6241 1.39787 16.5141 1.17787 15.4341 1.40787L6.49414 3.30787C3.26414 3.99787 1.18414 7.18787 1.87414 10.4179L6.55414 32.4279C7.24414 35.6679 10.4341 37.7379 13.6741 37.0479L17.0341 36.3379C17.0541 35.4979 17.1941 34.6479 17.4641 33.8079L22.4241 18.3179L20.9941 18.6279C17.7641 19.3179 14.5741 17.2379 13.8841 14.0079L11.3841 2.26787L15.3041 1.43787L17.7941 13.1679C18.0241 14.2479 19.0941 14.9379 20.1641 14.7079L25.2741 13.6279C26.8841 12.2179 28.9641 11.4079 31.1441 11.3879C30.8441 10.6979 30.3641 10.0979 29.7241 9.66787ZM38.3741 30.9379C35.2141 29.9279 33.4741 26.5379 34.4841 23.3879L36.8341 16.0579L32.8741 14.7879C29.7241 13.7779 26.3341 15.5179 25.3241 18.6679L20.4441 33.9079C19.4341 37.0579 21.1741 40.4379 24.3241 41.4479L34.8041 44.8079C37.9541 45.8179 41.3341 44.0779 42.3441 40.9279L44.8841 33.0179L38.3741 30.9379ZM46.1341 29.0979C46.3641 28.4079 46.3241 27.6479 46.0241 26.9679L42.5241 18.9479C42.1941 18.1679 41.5241 17.5579 40.6941 17.2979L40.6441 17.2779L38.2941 24.6079C37.9641 25.6579 38.5441 26.7879 39.5941 27.1279L46.1041 29.2179L46.1341 29.0979Z" fill-rule="evenodd"  fill="#000000" >
</path>
</svg>
