<svg xmlns="http://www.w3.org/2000/svg" xmlns:xlink="http://www.w3.org/1999/xlink" width="48" height="48" viewBox="0 0 48 48" fill="none">
<path d="M45 21C45 19.92 44.79 18.88 44.37 17.89C43.96 16.93 43.39 16.08 42.66 15.34C41.92 14.61 41.07 14.04 40.11 13.63C39.12 13.21 38.08 13 37 13L29.9 13L24.29 6.68C23.52 5.83 22.62 5.17 21.58 4.7C20.54 4.23 19.45 4 18.31 4L11 4C9.92 4 8.88 4.21 7.89 4.63C6.93 5.04 6.08 5.61 5.34 6.34C4.61 7.08 4.04 7.93 3.63 8.89C3.21 9.88 3 10.92 3 12L3 13L3 36C3 37.08 3.21 38.12 3.63 39.11C4.04 40.07 4.61 40.92 5.34 41.66C6.08 42.39 6.93 42.96 7.89 43.37C8.88 43.79 9.92 44 11 44L37 44C38.08 44 39.12 43.79 40.11 43.37C41.07 42.96 41.92 42.39 42.66 41.66C43.39 40.92 43.96 40.07 44.37 39.11C44.79 38.12 45 37.08 45 36L45 21Z"   fill="#000000" >
</path>
</svg>
