<svg xmlns="http://www.w3.org/2000/svg" xmlns:xlink="http://www.w3.org/1999/xlink" width="48" height="48" viewBox="0 0 48 48" fill="none">
<path   fill-rule="evenodd"  fill="#000000"  d="M41 21L31.5 21C27.08 21 23.5 17.42 23.5 13L23.5 3L15 3C10.58 3 7 6.58 7 11L7 37C7 41.42 10.58 45 15 45L22 45L22 35.99L20.32 35.99C19.5 35.99 18.88 35.64 18.44 34.95C18 34.24 17.97 33.52 18.36 32.79L21.75 26C21.75 25.98 21.76 25.97 21.77 25.96C22.71 24.18 25.25 24.18 26.21 25.99L29.62 32.79C30 33.51 29.98 34.22 29.56 34.92C29.17 35.58 28.59 35.94 27.81 36L27.67 36L26 36L26 45L33 45C37.42 45 41 41.42 41 37L41 21ZM27.5 13C27.5 15.21 29.29 17 31.5 17L40.97 17C40.84 15.68 40.26 14.43 39.33 13.46L31.13 4.86C30.16 3.84 28.88 3.21 27.5 3.04L27.5 13ZM21.92 34.62C21.93 34.6 21.94 34.58 21.94 34.56L21.92 34.59C21.92 34.6 21.92 34.61 21.92 34.62ZM21.91 34.64C21.91 34.63 21.91 34.63 21.91 34.63C21.91 34.63 21.92 34.63 21.92 34.62C21.91 34.63 21.91 34.63 21.91 34.64ZM26.04 34.58L26.06 34.61C26.07 34.61 26.07 34.61 26.07 34.61C26.06 34.6 26.05 34.59 26.04 34.58ZM26.08 34.66C26.08 34.65 26.08 34.64 26.07 34.63C26.08 34.64 26.08 34.65 26.08 34.66Z">
</path>
</svg>
