<svg xmlns="http://www.w3.org/2000/svg" xmlns:xlink="http://www.w3.org/1999/xlink" width="48" height="48" viewBox="0 0 48 48" fill="none">
<path d="M7 11L7 37C7 41.4183 10.5817 45 15 45L33 45C37.4183 45 41 41.4183 41 37L41 21L31.5 21C27.0817 21 23.5 17.4183 23.5 13L23.5 3L15 3C10.5817 3 7 6.58172 7 11ZM27.5 3.03728L27.5 13C27.5 15.2091 29.2909 17 31.5 17L40.973 17C40.8498 15.6512 40.3055 14.4712 39.3401 13.4598L31.1285 4.85714C30.1142 3.79447 28.9047 3.18785 27.5 3.03728ZM17.52 30L17.53 24.72C17.53 22.9099 18.43 22 20.24 22L20.5 22C20.9947 22 21.4628 22.1778 21.82 22.49C21.82 22.4796 21.8284 22.4853 21.8444 22.4962C21.8462 22.4974 21.848 22.4987 21.85 22.5C21.9414 22.5616 22.197 22.8738 22.35 23.25C23.0919 25.0835 24.3105 26 26 26C27.1046 26 28 26.8954 28 28C28 29.1046 27.1046 30 26 30C24.2459 30 22.7501 29.5556 21.52 28.67L21.52 35.69C21.52 38.6207 19.1907 41 16.26 41C13.3538 41 11 38.5962 11 35.69C11 32.7593 13.3293 30.39 16.26 30.39C16.6951 30.39 17.1156 30.4388 17.52 30.54L17.52 30ZM16.26 34.39C16.9571 34.39 17.52 34.9929 17.52 35.69C17.52 36.4116 16.9816 37 16.26 37C15.5629 37 15 36.3871 15 35.69C15 34.9684 15.5384 34.39 16.26 34.39Z" fill-rule="evenodd"  fill="#000000" >
</path>
</svg>
