<svg xmlns="http://www.w3.org/2000/svg" xmlns:xlink="http://www.w3.org/1999/xlink" width="48" height="48" viewBox="0 0 48 48" fill="none">
<path d="M36.5 44C40.05 44 43.18 41.66 44.18 38.25L46.67 29.75C47.64 26.47 46.41 23.19 44 21.26L44 21C44 16.58 40.42 13 36 13L28.9 13L23.28 6.68C21.77 4.98 19.59 4 17.31 4L10 4C5.58 4 2 7.58 2 12L2 36C2 40.42 5.58 44 10 44L36.5 44ZM36 17L28 17C27.43 17 26.88 16.76 26.5 16.33L20.3 9.34C19.54 8.49 18.45 8 17.31 8L10 8C7.79 8 6 9.79 6 12L6 22.98C7.46 20.85 9.9 19.5 12.6 19.5L38.99 19.5C39.24 19.5 39.48 19.51 39.72 19.53C39.14 18.05 37.69 17 36 17Z" fill-rule="evenodd"  fill="#000000" >
</path>
</svg>
