<svg xmlns="http://www.w3.org/2000/svg" xmlns:xlink="http://www.w3.org/1999/xlink" width="48" height="48" viewBox="0 0 48 48" fill="none">
<path d="M9.75 30C11.85 30 14.38 31.14 17.34 33.41C19.59 35.14 21.31 36 22.5 36C24.9 36 26.37 35.41 26.9 34.23C27.21 33.51 27.92 33 28.75 33C29.85 33 30.75 33.9 30.75 35C30.75 35.3 30.68 35.59 30.56 35.85C29.33 38.62 26.64 40 22.5 40C20.4 40 17.87 38.86 14.91 36.59C12.66 34.86 10.94 34 9.75 34C6.97 34 4.78 35.2 3.18 37.59C3.15 37.63 3.12 37.67 3.09 37.71C3.68 41.56 6.99 44.5 11 44.5L37 44.5C41.42 44.5 45 40.92 45 36.5L45 19.5C45 15.08 41.42 11.5 37 11.5L29.9 11.5L24.29 5.18C22.77 3.48 20.59 2.5 18.31 2.5L11 2.5C6.58 2.5 3 6.08 3 10.5L3 32.05C4.91 30.68 7.16 30 9.75 30ZM9 22.5C9 25.54 11.46 28 14.5 28C17.54 28 20 25.54 20 22.5C20 19.46 17.54 17 14.5 17C11.46 17 9 19.46 9 22.5ZM16 22.5C16 21.67 15.33 21 14.5 21C13.67 21 13 21.67 13 22.5C13 23.33 13.67 24 14.5 24C15.33 24 16 23.33 16 22.5Z" fill-rule="evenodd"  fill="#000000" >
</path>
</svg>
