<svg xmlns="http://www.w3.org/2000/svg" xmlns:xlink="http://www.w3.org/1999/xlink" width="48" height="48" viewBox="0 0 48 48" fill="none">
<path d="M39.33 13.46L31.13 4.86C30.16 3.84 28.88 3.21 27.5 3.04L27.5 13C27.5 15.21 29.29 17 31.5 17L40.97 17C40.84 15.68 40.26 14.43 39.33 13.46ZM15 3C10.58 3 7 6.58 7 11L7 37C7 41.42 10.58 45 15 45L33 45C37.42 45 41 41.42 41 37L41 21L31.5 21C27.08 21 23.5 17.42 23.5 13L23.5 3L15 3ZM20 41C24.97 41 29 36.97 29 32C29 31.89 29 31.77 28.99 31.66C29 31.61 29 31.55 29 31.5C29 31.35 28.98 31.21 28.95 31.06C28.52 26.84 25.16 23.48 20.94 23.05C20.8 23.02 20.65 23 20.5 23C20.45 23 20.39 23 20.34 23.01C20.23 23 20.11 23 20 23C15.03 23 11 27.03 11 32C11 36.97 15.03 41 20 41ZM20 37C22.24 37 24.13 35.53 24.77 33.5L21 33.5C19.62 33.5 18.5 32.38 18.5 31L18.5 27.23C16.47 27.87 15 29.76 15 32C15 34.76 17.24 37 20 37Z" fill-rule="evenodd"  fill="#000000" >
</path>
</svg>
