<svg xmlns="http://www.w3.org/2000/svg" xmlns:xlink="http://www.w3.org/1999/xlink" width="48" height="48" viewBox="0 0 48 48" fill="none">
<path d="M39.33 13.46L31.13 4.86C30.16 3.84 28.88 3.21 27.5 3.04L27.5 13C27.5 15.21 29.29 17 31.5 17L40.97 17C40.84 15.68 40.26 14.43 39.33 13.46ZM15 3C10.58 3 7 6.58 7 11L7 37C7 41.42 10.58 45 15 45L33 45C37.42 45 41 41.42 41 37L41 21L31.5 21C27.08 21 23.5 17.42 23.5 13L23.5 3L15 3ZM15 39L15 36L17.5 36C20.54 36 23 33.54 23 30.5C23 27.46 20.54 25 17.5 25L14 25C12.34 25 11 26.34 11 28L11 39C11 40.1 11.9 41 13 41C14.1 41 15 40.1 15 39ZM31.5 27L28 27C25.51 27 23.5 29.01 23.5 31.5C23.5 33.99 25.51 36 28 36L28.98 36L29 36L29.02 36L29.5 36C29.78 36 30 36.22 30 36.5C30 36.78 29.78 37 29.5 37L26 37C24.9 37 24 37.9 24 39C24 40.1 24.9 41 26 41L29.5 41C31.99 41 34 38.99 34 36.5C34 34.01 31.99 32 29.5 32L29.02 32L29 32C28.99 32 28.99 32 28.98 32L28 32C27.72 32 27.5 31.78 27.5 31.5C27.5 31.22 27.72 31 28 31L31.5 31C32.6 31 33.5 30.1 33.5 29C33.5 27.9 32.6 27 31.5 27ZM17.5 29L15 29L15 32L17.5 32C18.33 32 19 31.33 19 30.5C19 29.67 18.33 29 17.5 29Z" fill-rule="evenodd"  fill="#000000" >
</path>
</svg>
