<svg xmlns="http://www.w3.org/2000/svg" xmlns:xlink="http://www.w3.org/1999/xlink" width="48" height="48" viewBox="0 0 48 48" fill="none">
<path d="M11 44.5L37 44.5C41.42 44.5 45 40.92 45 36.5L45 19.5C45 15.08 41.42 11.5 37 11.5L29.9 11.5L24.29 5.18C22.77 3.48 20.59 2.5 18.31 2.5L11 2.5C6.58 2.5 3 6.08 3 10.5L3 36.5C3 40.92 6.58 44.5 11 44.5ZM19.64 35.99C19.8 36.88 20.96 37.12 21.46 36.36L26.48 28.68C27.34 27.36 27.03 25.6 25.78 24.65L19 19.48C18.29 18.93 17.27 19.53 17.4 20.42L17.98 24.45C11.7 27.84 9.34 33.91 8.47 37.38C8.23 38.17 9.16 38.81 9.81 38.28C12.2 36.1 16.38 32.55 18.94 32.03L19.64 35.99Z" fill-rule="evenodd"  fill="#000000" >
</path>
</svg>
