<svg xmlns="http://www.w3.org/2000/svg" xmlns:xlink="http://www.w3.org/1999/xlink" width="48" height="48" viewBox="0 0 48 48" fill="none">
<path d="M31.5 21C27.08 21 23.5 17.42 23.5 13L23.5 3L15 3C10.58 3 7 6.58 7 11L7 27L15 27L15 27L19 27L19 27L29 27L29 27L33 27L33 27L41 27L41 21L31.5 21ZM33 31L33 36L41 36L41 31L33 31ZM33 40L33 45C36.36 45 39.23 42.93 40.42 40L33 40ZM29 40L19 40L19 45L29 45L29 40ZM15 40L7.58 40C8.77 42.93 11.64 45 15 45L15 45L15 40ZM15 36L15 31L7 31L7 36L15 36ZM27.5 13C27.5 15.21 29.29 17 31.5 17L40.97 17C40.84 15.68 40.26 14.43 39.33 13.46L31.13 4.86C30.16 3.84 28.88 3.21 27.5 3.04L27.5 13ZM29 31L19 31L19 36L29 36L29 31Z" fill-rule="evenodd"  fill="#000000" >
</path>
</svg>
