<svg xmlns="http://www.w3.org/2000/svg" xmlns:xlink="http://www.w3.org/1999/xlink" width="48" height="48" viewBox="0 0 48 48" fill="none">
<path d="M22.5809 41.5179C22.8909 41.9779 23.3009 42.3279 23.8109 42.5579C24.3109 42.7979 24.8409 42.8879 25.4009 42.8279C25.9909 42.7579 26.5209 42.5379 26.9909 42.1479L42.6809 28.8979C43.2509 28.4179 43.6809 27.8479 43.9909 27.1779C44.2809 26.5479 44.4409 25.8779 44.4509 25.1679C44.4609 24.4679 44.3309 23.7879 44.0609 23.1379C43.7809 22.4679 43.3609 21.8779 42.8209 21.3779L27.0909 7.03793C26.6309 6.61793 26.0909 6.36793 25.4809 6.28793C24.9209 6.20793 24.3809 6.28793 23.8609 6.51793C23.3409 6.74793 22.9109 7.09793 22.5909 7.56793C22.2509 8.06793 22.0709 8.63793 22.0709 9.25793L22.0709 16.3279C19.6009 17.0379 17.2809 18.1479 15.1109 19.6579C12.9009 21.1879 10.8809 23.1279 9.05094 25.4479C7.58094 27.3079 6.27094 29.3779 5.10094 31.6679C4.26094 33.3379 3.53094 35.0379 2.91094 36.7879C2.68094 37.3779 2.65094 37.9779 2.82094 38.5879C2.97094 39.1579 3.27094 39.6279 3.72094 40.0179C4.17094 40.4079 4.69094 40.6279 5.27094 40.7079C5.91094 40.7779 6.51094 40.6579 7.08094 40.3279L7.12094 40.2979L7.17094 40.2679C9.95094 38.4479 12.6209 36.9379 15.1809 35.7179C16.9009 34.9079 18.4809 34.2779 19.9309 33.8379C20.6909 33.6079 21.4109 33.4279 22.0709 33.3079L22.0709 39.8479C22.0809 40.4679 22.2509 41.0279 22.5809 41.5179Z" fill-rule="evenodd"  fill="#000000" >
</path>
</svg>
