<svg xmlns="http://www.w3.org/2000/svg" xmlns:xlink="http://www.w3.org/1999/xlink" width="48" height="48" viewBox="0 0 48 48" fill="none">
<path d="M41 37L41 21L31.5 21C27.08 21 23.5 17.42 23.5 13L23.5 3L15 3C10.58 3 7 6.58 7 11L7 37C7 41.42 10.58 45 15 45L33 45C37.42 45 41 41.42 41 37ZM27.5 13C27.5 15.21 29.29 17 31.5 17L40.97 17C40.84 15.68 40.26 14.43 39.33 13.46L31.13 4.86C30.16 3.84 28.88 3.21 27.5 3.04L27.5 13ZM16.44 25C15.1 25 13.84 25.68 13.1 26.8L11.21 29.68C10.19 31.22 10.37 33.25 11.62 34.61L16.6 39.85C18.18 41.51 20.82 41.51 22.4 39.85L27.36 34.63C28.63 33.26 28.81 31.21 27.79 29.68L25.9 26.8C25.16 25.68 23.91 25 22.56 25L16.44 25ZM14.55 31.88C14.55 31.89 14.55 31.89 14.56 31.89L19.5 37.09L24.45 31.88L22.56 29L16.44 29L14.55 31.88Z" fill-rule="evenodd"  fill="#000000" >
</path>
</svg>
