<svg xmlns="http://www.w3.org/2000/svg" xmlns:xlink="http://www.w3.org/1999/xlink" width="48" height="48" viewBox="0 0 48 48" fill="none">
<path d="M41 21L31.5 21C27.08 21 23.5 17.42 23.5 13L23.5 3L15 3C10.58 3 7 6.58 7 11L7 37C7 41.42 10.58 45 15 45L33 45C37.42 45 41 41.42 41 37L41 21ZM27.5 13C27.5 15.21 29.29 17 31.5 17L40.97 17C40.84 15.68 40.26 14.43 39.33 13.46L31.13 4.86C30.16 3.84 28.88 3.21 27.5 3.04L27.5 13ZM21 24C19.9 24 19 24.9 19 26L19 40C19 41.1 19.9 42 21 42C22.1 42 23 41.1 23 40L23 26C23 24.9 22.1 24 21 24ZM33 26.5C31.9 26.5 31 27.4 31 28.5L31 37.5C31 38.6 31.9 39.5 33 39.5C34.1 39.5 35 38.6 35 37.5L35 28.5C35 27.4 34.1 26.5 33 26.5ZM15 27C13.9 27 13 27.9 13 29L13 37C13 38.1 13.9 39 15 39C16.1 39 17 38.1 17 37L17 29C17 27.9 16.1 27 15 27ZM27 28C25.9 28 25 28.9 25 30L25 36C25 37.1 25.9 38 27 38C28.1 38 29 37.1 29 36L29 30C29 28.9 28.1 28 27 28Z" fill-rule="evenodd"  fill="#000000" >
</path>
</svg>
