<svg xmlns="http://www.w3.org/2000/svg" xmlns:xlink="http://www.w3.org/1999/xlink" width="48" height="48" viewBox="0 0 48 48" fill="none">
<path d="M39.33 13.46L31.13 4.86C30.16 3.84 28.88 3.21 27.5 3.04L27.5 13C27.5 15.21 29.29 17 31.5 17L40.97 17C40.84 15.68 40.26 14.43 39.33 13.46ZM15 3C10.58 3 7 6.58 7 11L7 37C7 41.42 10.58 45 15 45L33 45C37.42 45 41 41.42 41 37L41 21L31.5 21C27.08 21 23.5 17.42 23.5 13L23.5 3L15 3ZM20.24 40.6L27 36.69C30.99 34.38 30.99 28.62 27 26.31L20.25 22.41C16.25 20.11 11.25 22.99 11.25 27.6L11.25 35.4C11.25 40.02 16.24 42.9 20.24 40.6ZM24.99 29.77L18.24 25.87C16.92 25.11 15.25 26.07 15.25 27.6L15.25 35.4C15.25 36.95 16.91 37.9 18.25 37.13L24.99 33.23C26.32 32.46 26.32 30.54 24.99 29.77Z" fill-rule="evenodd"  fill="#000000" >
</path>
</svg>
