<svg xmlns="http://www.w3.org/2000/svg" xmlns:xlink="http://www.w3.org/1999/xlink" width="48" height="48" viewBox="0 0 48 48" fill="none">
<path d="M11 44.5L37 44.5C41.42 44.5 45 40.92 45 36.5L45 19.5C45 15.08 41.42 11.5 37 11.5L29.9 11.5L24.29 5.18C22.77 3.48 20.59 2.5 18.31 2.5L11 2.5C6.58 2.5 3 6.08 3 10.5L3 36.5C3 40.92 6.58 44.5 11 44.5ZM8.25 33.4C8.25 38.02 13.24 40.9 17.24 38.6L24 34.69C27.99 32.38 27.99 26.62 24 24.31L17.25 20.41C13.25 18.11 8.25 20.99 8.25 25.6L8.25 33.4ZM21.99 31.23C23.32 30.46 23.32 28.54 21.99 27.77L15.24 23.87C13.92 23.11 12.25 24.07 12.25 25.6L12.25 33.4C12.25 34.95 13.91 35.9 15.25 35.13L21.99 31.23Z" fill-rule="evenodd"  fill="#000000" >
</path>
</svg>
