<svg xmlns="http://www.w3.org/2000/svg" xmlns:xlink="http://www.w3.org/1999/xlink" width="48" height="48" viewBox="0 0 48 48" fill="none">
<path d="M44 12C44 7.58 40.42 4 36 4L12 4C7.58 4 4 7.58 4 12L4 14L44 14L44 12ZM44 36L44 18L4 18L4 36C4 40.42 7.58 44 12 44L36 44C40.42 44 44 40.42 44 36ZM25.22 29.05C25.22 29.05 24.6 29.36 23.81 29.67C23.81 29.67 23.02 29.99 22.19 30.38C22.19 30.38 21.36 30.76 20.57 31.26C20.57 31.26 19.78 31.75 19.16 32.47C19.16 32.47 18.54 33.18 18.16 34.12C18.16 34.12 17.78 35.07 17.78 36.34L17.78 37.69L30.2 37.69L30.2 34.69L21.81 34.67C21.81 34.67 21.81 34.24 22.17 33.93C22.17 33.93 22.53 33.63 23.13 33.37C23.13 33.37 23.72 33.1 24.48 32.85C24.48 32.85 25.23 32.6 26.01 32.27C26.01 32.27 26.8 31.93 27.55 31.5C27.55 31.5 28.31 31.07 28.9 30.46C28.9 30.46 29.5 29.85 29.86 29.02C29.86 29.02 30.22 28.19 30.22 27.06C30.22 27.06 30.22 25.96 29.82 25.01C29.82 25.01 29.43 24.07 28.64 23.37C28.64 23.37 27.86 22.68 26.69 22.29C26.69 22.29 25.52 21.89 23.97 21.89C23.97 21.89 22.75 21.89 21.63 22.2C21.63 22.2 20.52 22.52 19.67 23.18C19.67 23.18 18.82 23.83 18.33 24.83C18.33 24.83 17.83 25.83 17.83 27.2L21.58 27.16C21.58 27.16 21.58 26.64 21.78 26.29C21.78 26.29 21.97 25.94 22.31 25.72C22.31 25.72 22.64 25.49 23.08 25.39C23.08 25.39 23.52 25.29 23.99 25.29C23.99 25.29 24.78 25.29 25.29 25.46C25.29 25.46 25.79 25.63 26.08 25.93C26.08 25.93 26.37 26.23 26.48 26.62C26.48 26.62 26.6 27.02 26.6 27.49C26.6 27.49 26.6 27.99 26.22 28.36C26.22 28.36 25.84 28.73 25.22 29.05Z" fill-rule="evenodd"  fill="#000000" >
</path>
</svg>
