<svg xmlns="http://www.w3.org/2000/svg" xmlns:xlink="http://www.w3.org/1999/xlink" width="48" height="48" viewBox="0 0 48 48" fill="none">
<path d="M44 12C44 7.58 40.42 4 36 4L12 4C7.58 4 4 7.58 4 12L4 14L44 14L44 12ZM44 36L44 18L4 18L4 36C4 40.42 7.58 44 12 44L36 44C40.42 44 44 40.42 44 36ZM23.96 36.63C23.96 36.63 24.88 37.51 26.11 37.87C26.11 37.87 27.34 38.23 28.75 38.23C28.75 38.23 30.17 38.23 31.35 37.85C31.35 37.85 32.53 37.46 33.37 36.75C33.37 36.75 34.2 36.04 34.66 35.04C34.66 35.04 35.12 34.04 35.12 32.82C35.12 32.82 35.12 31.81 34.82 30.88C34.82 30.88 34.53 29.95 33.83 29.25C33.83 29.25 33.14 28.55 32.02 28.13C32.02 28.13 30.91 27.7 29.27 27.7C29.27 27.7 27.92 27.7 26.93 28.26C26.93 28.26 25.94 28.82 25.6 29.83C25.6 29.83 25.6 28.42 25.81 27.47C25.81 27.47 26.03 26.52 26.44 25.93C26.44 25.93 26.84 25.35 27.44 25.09C27.44 25.09 28.05 24.84 28.82 24.84C28.82 24.84 29.45 24.84 29.91 24.94C29.91 24.94 30.37 25.04 30.69 25.25C30.69 25.25 31.02 25.45 31.23 25.78C31.23 25.78 31.45 26.1 31.61 26.57L34.6 26.57C34.6 26.57 34.47 25.54 34.02 24.72C34.02 24.72 33.57 23.89 32.83 23.3C32.83 23.3 32.1 22.72 31.08 22.39C31.08 22.39 30.06 22.07 28.78 22.07C28.78 22.07 28.05 22.07 27.25 22.25C27.25 22.25 26.46 22.43 25.71 22.84C25.71 22.84 24.95 23.24 24.28 23.9C24.28 23.9 23.62 24.55 23.11 25.5C23.11 25.5 22.59 26.44 22.3 27.71C22.3 27.71 22 28.98 22 30.6C22 30.6 22 32.82 22.52 34.28C22.52 34.28 23.04 35.75 23.96 36.63ZM16.68 22.7C16.68 22.7 16.61 22.9 16.49 23.25C16.49 23.25 16.37 23.6 16.11 23.94C16.11 23.94 15.85 24.28 15.38 24.54C15.38 24.54 14.91 24.79 14.16 24.79L13.06 24.79L13.06 27.52L16.28 27.52L16.28 38.13L19.61 38.13L19.61 22.7L16.68 22.7ZM26.49 34.65C26.91 35.01 27.48 35.21 27.48 35.21C28.05 35.41 28.69 35.41 28.69 35.41C29.43 35.41 30.04 35.21 30.04 35.21C30.64 35.01 31.07 34.65 31.07 34.65C31.5 34.29 31.75 33.8 31.75 33.8C31.99 33.3 31.99 32.71 31.99 32.71C31.99 31.97 31.75 31.44 31.75 31.44C31.5 30.91 31.07 30.57 31.07 30.57C30.64 30.24 30.04 30.08 30.04 30.08C29.43 29.92 28.69 29.92 28.69 29.92C28.05 29.92 27.48 30.08 27.48 30.08C26.91 30.24 26.5 30.57 26.5 30.57C26.08 30.91 25.84 31.44 25.84 31.44C25.6 31.97 25.6 32.71 25.6 32.71C25.6 33.3 25.83 33.8 25.83 33.8C26.07 34.29 26.49 34.65 26.49 34.65Z" fill-rule="evenodd"  fill="#000000" >
</path>
</svg>
