<svg xmlns="http://www.w3.org/2000/svg" xmlns:xlink="http://www.w3.org/1999/xlink" width="48" height="48" viewBox="0 0 48 48" fill="none">
<path d="M44 12C44 7.58 40.42 4 36 4L12 4C7.58 4 4 7.58 4 12L4 14L44 14L44 12ZM44 36L44 18L4 18L4 36C4 40.42 7.58 44 12 44L36 44C40.42 44 44 40.42 44 36ZM20.8 29.44C20.8 29.44 20.18 29.76 19.39 30.08C19.39 30.08 18.6 30.39 17.77 30.78C17.77 30.78 16.94 31.16 16.15 31.66C16.15 31.66 15.36 32.15 14.74 32.87C14.74 32.87 14.12 33.58 13.74 34.52C13.74 34.52 13.36 35.47 13.36 36.74L13.36 38.09L25.78 38.09L25.78 35.09L17.39 35.07C17.39 35.07 17.39 34.64 17.75 34.33C17.75 34.33 18.11 34.03 18.71 33.76C18.71 33.76 19.3 33.5 20.06 33.25C20.06 33.25 20.81 33 21.6 32.67C21.6 32.67 22.38 32.33 23.13 31.9C23.13 31.9 23.89 31.47 24.48 30.86C24.48 30.86 25.08 30.25 25.44 29.42C25.44 29.42 25.8 28.59 25.8 27.46C25.8 27.46 25.8 26.36 25.4 25.41C25.4 25.41 25.01 24.47 24.22 23.77C24.22 23.77 23.44 23.08 22.27 22.69C22.27 22.69 21.1 22.29 19.55 22.29C19.55 22.29 18.33 22.29 17.21 22.6C17.21 22.6 16.1 22.92 15.25 23.58C15.25 23.58 14.4 24.23 13.91 25.23C13.91 25.23 13.41 26.23 13.41 27.6L17.16 27.56C17.16 27.56 17.16 27.04 17.36 26.69C17.36 26.69 17.55 26.34 17.89 26.11C17.89 26.11 18.22 25.89 18.66 25.79C18.66 25.79 19.1 25.69 19.57 25.69C19.57 25.69 20.36 25.69 20.87 25.86C20.87 25.86 21.37 26.03 21.66 26.33C21.66 26.33 21.95 26.63 22.06 27.02C22.06 27.02 22.18 27.42 22.18 27.89C22.18 27.89 22.18 28.39 21.8 28.76C21.8 28.76 21.42 29.13 20.8 29.44ZM31.71 22.7C31.71 22.7 31.64 22.9 31.52 23.25C31.52 23.25 31.41 23.6 31.15 23.95C31.15 23.95 30.88 24.29 30.42 24.54C30.42 24.54 29.95 24.79 29.19 24.79L28.09 24.79L28.09 27.53L31.32 27.53L31.32 38.13L34.65 38.13L34.65 22.7L31.71 22.7Z" fill-rule="evenodd"  fill="#000000" >
</path>
</svg>
