<svg xmlns="http://www.w3.org/2000/svg" xmlns:xlink="http://www.w3.org/1999/xlink" width="48" height="48" viewBox="0 0 48 48" fill="none">
<path d="M44 12C44 7.58 40.42 4 36 4L12 4C7.58 4 4 7.58 4 12L4 14L44 14L44 12ZM44 36L44 18L4 18L4 36C4 40.42 7.58 44 12 44L36 44C40.42 44 44 40.42 44 36ZM33.15 28.59C33.15 28.59 33.5 28.1 33.68 27.53C33.68 27.53 33.86 26.95 33.86 26.41C33.86 26.41 33.86 25.49 33.5 24.71C33.5 24.71 33.14 23.93 32.45 23.34C32.45 23.34 31.77 22.76 30.75 22.43C30.75 22.43 29.74 22.11 28.4 22.11C28.4 22.11 27.07 22.11 26.06 22.43C26.06 22.43 25.04 22.76 24.35 23.34C24.35 23.34 23.65 23.93 23.29 24.71C23.29 24.71 22.93 25.49 22.93 26.41C22.93 26.41 22.93 26.95 23.09 27.53C23.09 27.53 23.26 28.1 23.59 28.59C23.59 28.59 23.92 29.08 24.44 29.44C24.44 29.44 24.97 29.8 25.67 29.92C25.67 29.92 24.79 30.07 24.13 30.43C24.13 30.43 23.47 30.79 23.02 31.29C23.02 31.29 22.57 31.79 22.35 32.4C22.35 32.4 22.12 33 22.12 33.65C22.12 33.65 22.12 34.62 22.55 35.45C22.55 35.45 22.99 36.28 23.8 36.88C23.8 36.88 24.61 37.48 25.78 37.83C25.78 37.83 26.95 38.18 28.42 38.18C28.42 38.18 29.9 38.18 31.07 37.83C31.07 37.83 32.24 37.48 33.05 36.88C33.05 36.88 33.86 36.28 34.28 35.45C34.28 35.45 34.7 34.62 34.7 33.65C34.7 33.65 34.7 33 34.48 32.39C34.48 32.39 34.25 31.78 33.8 31.27C33.8 31.27 33.34 30.77 32.64 30.41C32.64 30.41 31.95 30.05 31 29.92C31 29.92 31.72 29.8 32.26 29.44C32.26 29.44 32.8 29.08 33.15 28.59ZM16.75 22.7C16.75 22.7 16.68 22.9 16.56 23.25C16.56 23.25 16.44 23.6 16.18 23.95C16.18 23.95 15.92 24.29 15.45 24.54C15.45 24.54 14.98 24.79 14.23 24.79L13.13 24.79L13.13 27.53L16.35 27.53L16.35 38.13L19.68 38.13L19.68 22.7L16.75 22.7ZM28.4 28.37C29.43 28.37 30 27.78 30 27.78C30.56 27.19 30.56 26.32 30.56 26.32C30.56 25.49 30 24.9 30 24.9C29.43 24.31 28.4 24.31 28.4 24.31C27.92 24.31 27.53 24.47 27.53 24.47C27.14 24.63 26.87 24.9 26.87 24.9C26.59 25.17 26.43 25.54 26.43 25.54C26.28 25.91 26.28 26.32 26.28 26.32C26.28 27.19 26.84 27.78 26.84 27.78C27.4 28.37 28.4 28.37 28.4 28.37ZM28.42 31.06C26.95 31.06 26.26 31.75 26.26 31.75C25.58 32.44 25.58 33.5 25.58 33.5C25.58 34.55 26.26 35.24 26.26 35.24C26.95 35.93 28.42 35.93 28.42 35.93C29.86 35.93 30.56 35.24 30.56 35.24C31.27 34.55 31.27 33.5 31.27 33.5C31.27 32.44 30.56 31.75 30.56 31.75C29.86 31.06 28.42 31.06 28.42 31.06Z" fill-rule="evenodd"  fill="#000000" >
</path>
</svg>
