<svg xmlns="http://www.w3.org/2000/svg" xmlns:xlink="http://www.w3.org/1999/xlink" width="48" height="48" viewBox="0 0 48 48" fill="none">
<path d="M44 12C44 7.58 40.42 4 36 4L12 4C7.58 4 4 7.58 4 12L4 14L44 14L44 12ZM44 36L44 18L4 18L4 36C4 40.42 7.58 44 12 44L36 44C40.42 44 44 40.42 44 36ZM29.65 29.44C29.65 29.44 29.02 29.76 28.23 30.08C28.23 30.08 27.44 30.39 26.61 30.78C26.61 30.78 25.78 31.16 24.99 31.66C24.99 31.66 24.2 32.15 23.58 32.87C23.58 32.87 22.96 33.58 22.58 34.52C22.58 34.52 22.2 35.47 22.2 36.74L22.2 38.09L34.62 38.09L34.62 35.09L26.23 35.07C26.23 35.07 26.23 34.64 26.59 34.33C26.59 34.33 26.95 34.03 27.55 33.76C27.55 33.76 28.14 33.5 28.9 33.25C28.9 33.25 29.65 33 30.44 32.67C30.44 32.67 31.22 32.33 31.98 31.9C31.98 31.9 32.73 31.47 33.33 30.86C33.33 30.86 33.92 30.25 34.28 29.42C34.28 29.42 34.64 28.59 34.64 27.46C34.64 27.46 34.64 26.36 34.24 25.41C34.24 25.41 33.85 24.47 33.07 23.77C33.07 23.77 32.28 23.08 31.11 22.69C31.11 22.69 29.94 22.29 28.39 22.29C28.39 22.29 27.17 22.29 26.05 22.6C26.05 22.6 24.94 22.92 24.09 23.58C24.09 23.58 23.25 24.23 22.75 25.23C22.75 25.23 22.26 26.23 22.26 27.6L26 27.56C26 27.56 26 27.04 26.2 26.69C26.2 26.69 26.4 26.34 26.73 26.11C26.73 26.11 27.06 25.89 27.5 25.79C27.5 25.79 27.94 25.69 28.41 25.69C28.41 25.69 29.2 25.69 29.71 25.86C29.71 25.86 30.21 26.03 30.5 26.33C30.5 26.33 30.79 26.63 30.91 27.02C30.91 27.02 31.02 27.42 31.02 27.89C31.02 27.89 31.02 28.39 30.64 28.76C30.64 28.76 30.27 29.13 29.65 29.44ZM16.83 22.7C16.83 22.7 16.76 22.9 16.64 23.25C16.64 23.25 16.52 23.6 16.26 23.95C16.26 23.95 16 24.29 15.53 24.54C15.53 24.54 15.06 24.79 14.31 24.79L13.21 24.79L13.21 27.53L16.43 27.53L16.43 38.13L19.76 38.13L19.76 22.7L16.83 22.7Z" fill-rule="evenodd"  fill="#000000" >
</path>
</svg>
