<svg xmlns="http://www.w3.org/2000/svg" xmlns:xlink="http://www.w3.org/1999/xlink" width="48" height="48" viewBox="0 0 48 48" fill="none">
<path d="M44 12C44 7.58 40.42 4 36 4L12 4C7.58 4 4 7.58 4 12L4 14L44 14L44 12ZM44 36L44 18L4 18L4 36C4 40.42 7.58 44 12 44L36 44C40.42 44 44 40.42 44 36ZM21.95 30.93L24.09 30.93C24.09 30.93 24.65 30.93 25.13 31.01C25.13 31.01 25.61 31.09 25.95 31.29C25.95 31.29 26.29 31.48 26.49 31.82C26.49 31.82 26.69 32.15 26.69 32.67C26.69 32.67 26.69 32.94 26.6 33.31C26.6 33.31 26.52 33.68 26.26 34.01C26.26 34.01 26 34.35 25.51 34.59C25.51 34.59 25.01 34.83 24.18 34.83C24.18 34.83 23.54 34.83 23.01 34.72C23.01 34.72 22.47 34.62 22.1 34.35C22.1 34.35 21.72 34.08 21.51 33.64C21.51 33.64 21.3 33.19 21.3 32.55L17.56 32.53C17.56 32.53 17.56 33.99 18.09 34.98C18.09 34.98 18.62 35.98 19.49 36.61C19.49 36.61 20.37 37.23 21.53 37.5C21.53 37.5 22.69 37.78 23.95 37.78C23.95 37.78 25.5 37.78 26.68 37.41C26.68 37.41 27.86 37.05 28.67 36.4C28.67 36.4 29.48 35.75 29.89 34.84C29.89 34.84 30.3 33.93 30.3 32.85C30.3 32.85 30.3 32.1 30.04 31.48C30.04 31.48 29.78 30.87 29.38 30.42C29.38 30.42 28.97 29.97 28.5 29.71C28.5 29.71 28.04 29.45 27.6 29.38C27.6 29.38 28.02 29.38 28.47 29.21C28.47 29.21 28.92 29.04 29.29 28.67C29.29 28.67 29.66 28.3 29.89 27.71C29.89 27.71 30.12 27.13 30.12 26.3C30.12 26.3 30.12 25.33 29.73 24.48C29.73 24.48 29.33 23.64 28.55 23.02C28.55 23.02 27.77 22.41 26.6 22.06C26.6 22.06 25.44 21.71 23.9 21.71C23.9 21.71 22.78 21.71 21.68 21.96C21.68 21.96 20.58 22.21 19.7 22.77C19.7 22.77 18.82 23.33 18.28 24.23C18.28 24.23 17.74 25.13 17.74 26.43L21.48 26.41C21.48 26.41 21.48 25.94 21.68 25.63C21.68 25.63 21.88 25.31 22.21 25.11C22.21 25.11 22.55 24.91 22.99 24.82C22.99 24.82 23.43 24.73 23.9 24.73C23.9 24.73 24.69 24.73 25.19 24.92C25.19 24.92 25.7 25.11 25.98 25.41C25.98 25.41 26.27 25.71 26.39 26.04C26.39 26.04 26.51 26.37 26.51 26.68C26.51 26.68 26.51 27.67 25.86 28.02C25.86 28.02 25.21 28.37 24.09 28.35L21.95 28.35L21.95 30.93Z" fill-rule="evenodd"  fill="#000000" >
</path>
</svg>
