<svg xmlns="http://www.w3.org/2000/svg" xmlns:xlink="http://www.w3.org/1999/xlink" width="48" height="48" viewBox="0 0 48 48" fill="none">
<path d="M44 12C44 7.58 40.42 4 36 4L12 4C7.58 4 4 7.58 4 12L4 14L44 14L44 12ZM44 36L44 18L4 18L4 36C4 40.42 7.58 44 12 44L36 44C40.42 44 44 40.42 44 36ZM34.02 25.92L34.02 22.66L22.66 22.66L22.12 30.65L25.29 31.19C25.29 31.19 26.16 30.62 26.93 30.37C26.93 30.37 27.7 30.13 28.59 30.13C28.59 30.13 29.14 30.13 29.61 30.32C29.61 30.32 30.08 30.51 30.43 30.84C30.43 30.84 30.78 31.17 30.98 31.64C30.98 31.64 31.18 32.11 31.18 32.67C31.18 32.67 31.18 32.94 31.12 33.38C31.12 33.38 31.05 33.82 30.81 34.24C30.81 34.24 30.57 34.67 30.09 34.97C30.09 34.97 29.61 35.28 28.78 35.28C28.78 35.28 28.19 35.28 27.69 35.16C27.69 35.16 27.18 35.04 26.81 34.76C26.81 34.76 26.44 34.49 26.25 34.05C26.25 34.05 26.05 33.6 26.05 32.96L22.05 32.96C22.05 32.96 22.05 34.41 22.59 35.41C22.59 35.41 23.13 36.41 24.03 37.04C24.03 37.04 24.93 37.67 26.1 37.95C26.1 37.95 27.27 38.23 28.53 38.23C28.53 38.23 30.08 38.23 31.25 37.81C31.25 37.81 32.42 37.38 33.21 36.66C33.21 36.66 34 35.93 34.4 34.96C34.4 34.96 34.8 34 34.8 32.92C34.8 32.92 34.8 31.91 34.51 30.94C34.51 30.94 34.22 29.97 33.56 29.21C33.56 29.21 32.91 28.46 31.84 27.99C31.84 27.99 30.78 27.52 29.23 27.52C29.23 27.52 28.84 27.52 28.33 27.57C28.33 27.57 27.81 27.63 27.28 27.82C27.28 27.82 26.75 28.01 26.25 28.38C26.25 28.38 25.74 28.74 25.35 29.37L25.71 25.92L34.02 25.92ZM16.68 22.7C16.68 22.7 16.61 22.89 16.49 23.24C16.49 23.24 16.37 23.6 16.11 23.94C16.11 23.94 15.85 24.28 15.38 24.53C15.38 24.53 14.91 24.78 14.16 24.78L13.06 24.78L13.06 27.52L16.28 27.52L16.28 38.12L19.61 38.12L19.61 22.7L16.68 22.7Z" fill-rule="evenodd"  fill="#000000" >
</path>
</svg>
