<svg xmlns="http://www.w3.org/2000/svg" xmlns:xlink="http://www.w3.org/1999/xlink" width="48" height="48" viewBox="0 0 48 48" fill="none">
<path d="M44 12C44 7.58 40.42 4 36 4L12 4C7.58 4 4 7.58 4 12L4 14L44 14L44 12ZM44 36L44 18L4 18L4 36C4 40.42 7.58 44 12 44L36 44C40.42 44 44 40.42 44 36ZM29.1 25.52L29.1 22.26L17.74 22.26L17.2 30.25L20.37 30.79C20.37 30.79 21.23 30.22 22.01 29.97C22.01 29.97 22.78 29.73 23.66 29.73C23.66 29.73 24.22 29.73 24.69 29.92C24.69 29.92 25.16 30.11 25.51 30.44C25.51 30.44 25.86 30.77 26.06 31.24C26.06 31.24 26.26 31.71 26.26 32.27C26.26 32.27 26.26 32.54 26.19 32.98C26.19 32.98 26.13 33.42 25.89 33.84C25.89 33.84 25.64 34.27 25.17 34.57C25.17 34.57 24.69 34.88 23.86 34.88C23.86 34.88 23.27 34.88 22.76 34.76C22.76 34.76 22.26 34.64 21.89 34.36C21.89 34.36 21.52 34.09 21.32 33.65C21.32 33.65 21.13 33.2 21.13 32.56L17.13 32.56C17.13 32.56 17.13 34.01 17.67 35.01C17.67 35.01 18.21 36.01 19.11 36.64C19.11 36.64 20.01 37.27 21.18 37.55C21.18 37.55 22.35 37.83 23.61 37.83C23.61 37.83 25.16 37.83 26.33 37.41C26.33 37.41 27.5 36.98 28.29 36.26C28.29 36.26 29.08 35.53 29.48 34.56C29.48 34.56 29.87 33.6 29.87 32.52C29.87 32.52 29.87 31.51 29.59 30.54C29.59 30.54 29.3 29.57 28.64 28.81C28.64 28.81 27.98 28.06 26.92 27.59C26.92 27.59 25.86 27.12 24.31 27.12C24.31 27.12 23.92 27.12 23.4 27.17C23.4 27.17 22.89 27.23 22.36 27.42C22.36 27.42 21.83 27.61 21.32 27.98C21.32 27.98 20.82 28.34 20.42 28.97L20.78 25.52L29.1 25.52Z" fill-rule="evenodd"  fill="#000000" >
</path>
</svg>
