<svg xmlns="http://www.w3.org/2000/svg" xmlns:xlink="http://www.w3.org/1999/xlink" width="48" height="48" viewBox="0 0 48 48" fill="none">
<path d="M44 12C44 7.58 40.42 4 36 4L12 4C7.58 4 4 7.58 4 12L4 14L44 14L44 12ZM44 36L44 18L4 18L4 36C4 40.42 7.58 44 12 44L36 44C40.42 44 44 40.42 44 36ZM17.63 29.44C17.63 29.44 17.01 29.76 16.22 30.08C16.22 30.08 15.43 30.39 14.6 30.78C14.6 30.78 13.77 31.16 12.98 31.66C12.98 31.66 12.19 32.15 11.57 32.87C11.57 32.87 10.95 33.58 10.57 34.52C10.57 34.52 10.19 35.47 10.19 36.74L10.19 38.09L22.61 38.09L22.61 35.09L14.22 35.07C14.22 35.07 14.22 34.64 14.58 34.33C14.58 34.33 14.94 34.03 15.54 33.76C15.54 33.76 16.13 33.5 16.89 33.25C16.89 33.25 17.64 33 18.43 32.67C18.43 32.67 19.21 32.33 19.96 31.9C19.96 31.9 20.72 31.47 21.31 30.86C21.31 30.86 21.91 30.25 22.27 29.42C22.27 29.42 22.63 28.59 22.63 27.46C22.63 27.46 22.63 26.36 22.23 25.41C22.23 25.41 21.84 24.47 21.05 23.77C21.05 23.77 20.27 23.08 19.1 22.69C19.1 22.69 17.93 22.29 16.38 22.29C16.38 22.29 15.16 22.29 14.04 22.6C14.04 22.6 12.93 22.92 12.08 23.58C12.08 23.58 11.23 24.23 10.74 25.23C10.74 25.23 10.24 26.23 10.24 27.6L13.99 27.56C13.99 27.56 13.99 27.04 14.19 26.69C14.19 26.69 14.38 26.34 14.72 26.11C14.72 26.11 15.05 25.89 15.49 25.79C15.49 25.79 15.93 25.69 16.4 25.69C16.4 25.69 17.19 25.69 17.7 25.86C17.7 25.86 18.2 26.03 18.49 26.33C18.49 26.33 18.78 26.63 18.89 27.02C18.89 27.02 19.01 27.42 19.01 27.89C19.01 27.89 19.01 28.39 18.63 28.76C18.63 28.76 18.25 29.13 17.63 29.44ZM37.04 25.93L37.04 22.67L25.68 22.67L25.14 30.66L28.31 31.2C28.31 31.2 29.17 30.62 29.95 30.38C29.95 30.38 30.72 30.14 31.6 30.14C31.6 30.14 32.16 30.14 32.63 30.33C32.63 30.33 33.1 30.52 33.45 30.85C33.45 30.85 33.8 31.18 34 31.65C34 31.65 34.19 32.12 34.19 32.68C34.19 32.68 34.19 32.95 34.13 33.39C34.13 33.39 34.07 33.83 33.83 34.25C33.83 34.25 33.58 34.67 33.11 34.98C33.11 34.98 32.63 35.29 31.8 35.29C31.8 35.29 31.21 35.29 30.7 35.17C30.7 35.17 30.2 35.05 29.83 34.77C29.83 34.77 29.46 34.49 29.26 34.05C29.26 34.05 29.06 33.61 29.06 32.96L25.07 32.96C25.07 32.96 25.07 34.42 25.61 35.42C25.61 35.42 26.15 36.42 27.05 37.05C27.05 37.05 27.95 37.68 29.12 37.96C29.12 37.96 30.29 38.24 31.55 38.24C31.55 38.24 33.1 38.24 34.27 37.81C34.27 37.81 35.44 37.39 36.23 36.66C36.23 36.66 37.02 35.93 37.42 34.97C37.42 34.97 37.81 34.01 37.81 32.93C37.81 32.93 37.81 31.92 37.52 30.95C37.52 30.95 37.24 29.98 36.58 29.22C36.58 29.22 35.92 28.46 34.86 28C34.86 28 33.8 27.53 32.25 27.53C32.25 27.53 31.85 27.53 31.34 27.58C31.34 27.58 30.83 27.64 30.3 27.83C30.3 27.83 29.77 28.01 29.26 28.38C29.26 28.38 28.76 28.75 28.36 29.38L28.72 25.93L37.04 25.93Z" fill-rule="evenodd"  fill="#000000" >
</path>
</svg>
