<svg xmlns="http://www.w3.org/2000/svg" xmlns:xlink="http://www.w3.org/1999/xlink" width="48" height="48" viewBox="0 0 48 48" fill="none">
<path d="M44 12C44 7.58 40.42 4 36 4L12 4C7.58 4 4 7.58 4 12L4 14L44 14L44 12ZM44 36L44 18L4 18L4 36C4 40.42 7.58 44 12 44L36 44C40.42 44 44 40.42 44 36ZM17.78 29.45C17.78 29.45 17.16 29.76 16.37 30.07C16.37 30.07 15.58 30.39 14.75 30.78C14.75 30.78 13.92 31.16 13.13 31.66C13.13 31.66 12.34 32.15 11.72 32.87C11.72 32.87 11.1 33.58 10.72 34.52C10.72 34.52 10.34 35.47 10.34 36.74L10.34 38.09L22.76 38.09L22.76 35.09L14.37 35.07C14.37 35.07 14.37 34.64 14.73 34.33C14.73 34.33 15.09 34.03 15.69 33.77C15.69 33.77 16.28 33.5 17.04 33.25C17.04 33.25 17.79 33 18.58 32.67C18.58 32.67 19.36 32.33 20.11 31.9C20.11 31.9 20.87 31.47 21.46 30.86C21.46 30.86 22.06 30.25 22.42 29.42C22.42 29.42 22.78 28.59 22.78 27.46C22.78 27.46 22.78 26.36 22.38 25.41C22.38 25.41 21.99 24.47 21.2 23.77C21.2 23.77 20.42 23.08 19.25 22.69C19.25 22.69 18.08 22.29 16.53 22.29C16.53 22.29 15.31 22.29 14.19 22.6C14.19 22.6 13.08 22.92 12.23 23.58C12.23 23.58 11.38 24.23 10.89 25.23C10.89 25.23 10.39 26.23 10.39 27.6L14.14 27.56C14.14 27.56 14.14 27.04 14.34 26.69C14.34 26.69 14.53 26.34 14.87 26.11C14.87 26.11 15.2 25.89 15.64 25.79C15.64 25.79 16.08 25.69 16.55 25.69C16.55 25.69 17.34 25.69 17.85 25.86C17.85 25.86 18.35 26.03 18.64 26.33C18.64 26.33 18.93 26.63 19.04 27.02C19.04 27.02 19.16 27.42 19.16 27.89C19.16 27.89 19.16 28.39 18.78 28.76C18.78 28.76 18.4 29.13 17.78 29.45ZM32.66 29.45C32.66 29.45 32.04 29.76 31.25 30.07C31.25 30.07 30.46 30.39 29.63 30.78C29.63 30.78 28.8 31.16 28.01 31.66C28.01 31.66 27.22 32.15 26.6 32.87C26.6 32.87 25.97 33.58 25.6 34.52C25.6 34.52 25.22 35.47 25.22 36.74L25.22 38.09L37.64 38.09L37.64 35.09L29.25 35.07C29.25 35.07 29.25 34.64 29.61 34.33C29.61 34.33 29.97 34.03 30.56 33.77C30.56 33.77 31.16 33.5 31.91 33.25C31.91 33.25 32.67 33 33.45 32.67C33.45 32.67 34.24 32.33 34.99 31.9C34.99 31.9 35.75 31.47 36.34 30.86C36.34 30.86 36.94 30.25 37.3 29.42C37.3 29.42 37.66 28.59 37.66 27.46C37.66 27.46 37.66 26.36 37.26 25.41C37.26 25.41 36.86 24.47 36.08 23.77C36.08 23.77 35.3 23.08 34.13 22.69C34.13 22.69 32.96 22.29 31.41 22.29C31.41 22.29 30.19 22.29 29.07 22.6C29.07 22.6 27.95 22.92 27.11 23.58C27.11 23.58 26.26 24.23 25.77 25.23C25.77 25.23 25.27 26.23 25.27 27.6L29.02 27.56C29.02 27.56 29.02 27.04 29.21 26.69C29.21 26.69 29.41 26.34 29.75 26.11C29.75 26.11 30.08 25.89 30.52 25.79C30.52 25.79 30.96 25.69 31.43 25.69C31.43 25.69 32.22 25.69 32.72 25.86C32.72 25.86 33.23 26.03 33.52 26.33C33.52 26.33 33.8 26.63 33.92 27.02C33.92 27.02 34.04 27.42 34.04 27.89C34.04 27.89 34.04 28.39 33.66 28.76C33.66 28.76 33.28 29.13 32.66 29.45Z" fill-rule="evenodd"  fill="#000000" >
</path>
</svg>
