<svg xmlns="http://www.w3.org/2000/svg" xmlns:xlink="http://www.w3.org/1999/xlink" width="48" height="48" viewBox="0 0 48 48" fill="none">
<path d="M44 12C44 7.58 40.42 4 36 4L12 4C7.58 4 4 7.58 4 12L4 14L44 14L44 12ZM44 18L4 18L4 36C4 40.42 7.58 44 12 44L36 44C40.42 44 44 40.42 44 36L44 18ZM28.73 28.19C28.73 28.19 29.08 27.7 29.26 27.13C29.26 27.13 29.44 26.55 29.44 26.01C29.44 26.01 29.44 25.09 29.08 24.31C29.08 24.31 28.72 23.53 28.03 22.94C28.03 22.94 27.35 22.36 26.33 22.03C26.33 22.03 25.31 21.71 23.98 21.71C23.98 21.71 22.65 21.71 21.63 22.03C21.63 22.03 20.62 22.36 19.92 22.94C19.92 22.94 19.23 23.53 18.87 24.31C18.87 24.31 18.51 25.09 18.51 26.01C18.51 26.01 18.51 26.55 18.67 27.13C18.67 27.13 18.83 27.7 19.17 28.19C19.17 28.19 19.5 28.68 20.02 29.04C20.02 29.04 20.54 29.4 21.25 29.52C21.25 29.52 20.36 29.67 19.71 30.03C19.71 30.03 19.05 30.39 18.6 30.89C18.6 30.89 18.15 31.39 17.92 32C17.92 32 17.7 32.6 17.7 33.25C17.7 33.25 17.7 34.22 18.13 35.05C18.13 35.05 18.56 35.88 19.37 36.48C19.37 36.48 20.18 37.08 21.35 37.43C21.35 37.43 22.52 37.78 24 37.78C24 37.78 25.48 37.78 26.65 37.43C26.65 37.43 27.82 37.08 28.63 36.48C28.63 36.48 29.44 35.88 29.86 35.05C29.86 35.05 30.28 34.22 30.28 33.25C30.28 33.25 30.28 32.6 30.06 31.99C30.06 31.99 29.83 31.38 29.37 30.87C29.37 30.87 28.91 30.37 28.22 30.01C28.22 30.01 27.53 29.65 26.57 29.52C26.57 29.52 27.29 29.4 27.83 29.04C27.83 29.04 28.37 28.68 28.73 28.19ZM23.98 27.97C25.01 27.97 25.58 27.38 25.58 27.38C26.14 26.79 26.14 25.92 26.14 25.92C26.14 25.09 25.58 24.5 25.58 24.5C25.01 23.91 23.98 23.91 23.98 23.91C23.5 23.91 23.11 24.07 23.11 24.07C22.72 24.23 22.44 24.5 22.44 24.5C22.16 24.77 22.01 25.14 22.01 25.14C21.86 25.51 21.86 25.92 21.86 25.92C21.86 26.79 22.42 27.38 22.42 27.38C22.97 27.97 23.98 27.97 23.98 27.97ZM24 30.66C22.52 30.66 21.84 31.35 21.84 31.35C21.16 32.04 21.16 33.1 21.16 33.1C21.16 34.15 21.84 34.84 21.84 34.84C22.52 35.53 24 35.53 24 35.53C25.44 35.53 26.14 34.84 26.14 34.84C26.84 34.15 26.84 33.1 26.84 33.1C26.84 32.04 26.14 31.35 26.14 31.35C25.44 30.66 24 30.66 24 30.66Z" fill-rule="evenodd"  fill="#000000" >
</path>
</svg>
