<svg xmlns="http://www.w3.org/2000/svg" xmlns:xlink="http://www.w3.org/1999/xlink" width="48" height="48" viewBox="0 0 48 48" fill="none">
<path d="M44 12C44 7.58 40.42 4 36 4L12 4C7.58 4 4 7.58 4 12L4 14L44 14L44 12ZM44 36L44 18L4 18L4 36C4 40.42 7.58 44 12 44L36 44C40.42 44 44 40.42 44 36ZM33.27 24.58C33.27 24.58 32.44 23.49 31.22 22.86C31.22 22.86 30.01 22.23 28.44 22.23C28.44 22.23 26.86 22.23 25.63 22.86C25.63 22.86 24.41 23.49 23.57 24.58C23.57 24.58 22.73 25.67 22.31 27.14C22.31 27.14 21.89 28.6 21.89 30.26C21.89 30.26 21.89 31.91 22.37 33.38C22.37 33.38 22.86 34.85 23.72 35.94C23.72 35.94 24.59 37.03 25.79 37.66C25.79 37.66 27 38.3 28.44 38.3C28.44 38.3 30.01 38.3 31.22 37.66C31.22 37.66 32.44 37.03 33.27 35.94C33.27 35.94 34.11 34.85 34.54 33.38C34.54 33.38 34.97 31.91 34.97 30.26C34.97 30.26 34.97 28.6 34.54 27.14C34.54 27.14 34.11 25.67 33.27 24.58ZM16.75 22.7C16.75 22.7 16.68 22.9 16.56 23.25C16.56 23.25 16.44 23.6 16.18 23.94C16.18 23.94 15.92 24.28 15.45 24.53C15.45 24.53 14.98 24.79 14.23 24.79L13.13 24.79L13.13 27.52L16.35 27.52L16.35 38.12L19.68 38.12L19.68 22.7L16.75 22.7ZM30.88 26.65C30.49 25.94 29.89 25.52 29.89 25.52C29.29 25.11 28.44 25.11 28.44 25.11C27.58 25.11 26.96 25.52 26.96 25.52C26.35 25.94 25.97 26.65 25.97 26.65C25.58 27.36 25.4 28.29 25.4 28.29C25.22 29.21 25.22 30.24 25.22 30.24C25.22 31.27 25.4 32.2 25.4 32.2C25.58 33.14 25.97 33.84 25.97 33.84C26.35 34.54 26.96 34.97 26.96 34.97C27.58 35.39 28.44 35.39 28.44 35.39C29.29 35.39 29.89 34.97 29.89 34.97C30.49 34.54 30.88 33.84 30.88 33.84C31.27 33.14 31.45 32.2 31.45 32.2C31.63 31.27 31.63 30.24 31.63 30.24C31.63 29.21 31.45 28.29 31.45 28.29C31.27 27.36 30.88 26.65 30.88 26.65Z" fill-rule="evenodd"  fill="#000000" >
</path>
</svg>
