<svg xmlns="http://www.w3.org/2000/svg" xmlns:xlink="http://www.w3.org/1999/xlink" width="48" height="48" viewBox="0 0 48 48" fill="none">
<path d="M44 12C44 7.58 40.42 4 36 4L12 4C7.58 4 4 7.58 4 12L4 14L44 14L44 12ZM44 36L44 18L4 18L4 36C4 40.42 7.58 44 12 44L36 44C40.42 44 44 40.42 44 36ZM36.16 28.59C36.16 28.59 36.51 28.1 36.69 27.53C36.69 27.53 36.87 26.95 36.87 26.41C36.87 26.41 36.87 25.49 36.51 24.71C36.51 24.71 36.15 23.93 35.47 23.34C35.47 23.34 34.79 22.76 33.77 22.43C33.77 22.43 32.75 22.11 31.42 22.11C31.42 22.11 30.09 22.11 29.07 22.43C29.07 22.43 28.05 22.76 27.36 23.34C27.36 23.34 26.67 23.93 26.31 24.71C26.31 24.71 25.95 25.49 25.95 26.41C25.95 26.41 25.95 26.95 26.11 27.53C26.11 27.53 26.27 28.1 26.61 28.59C26.61 28.59 26.94 29.08 27.46 29.44C27.46 29.44 27.98 29.8 28.68 29.92C28.68 29.92 27.8 30.07 27.15 30.43C27.15 30.43 26.49 30.79 26.04 31.29C26.04 31.29 25.59 31.79 25.36 32.4C25.36 32.4 25.14 33 25.14 33.65C25.14 33.65 25.14 34.62 25.57 35.45C25.57 35.45 26 36.28 26.81 36.88C26.81 36.88 27.62 37.48 28.79 37.83C28.79 37.83 29.96 38.18 31.44 38.18C31.44 38.18 32.91 38.18 34.08 37.83C34.08 37.83 35.25 37.48 36.06 36.88C36.06 36.88 36.87 36.28 37.3 35.45C37.3 35.45 37.72 34.62 37.72 33.65C37.72 33.65 37.72 33 37.5 32.39C37.5 32.39 37.27 31.78 36.81 31.27C36.81 31.27 36.35 30.77 35.66 30.41C35.66 30.41 34.97 30.05 34.01 29.92C34.01 29.92 34.73 29.8 35.27 29.44C35.27 29.44 35.81 29.08 36.16 28.59ZM17.7 29.44C17.7 29.44 17.08 29.76 16.29 30.08C16.29 30.08 15.5 30.39 14.67 30.78C14.67 30.78 13.84 31.16 13.05 31.66C13.05 31.66 12.26 32.15 11.64 32.86C11.64 32.86 11.02 33.58 10.64 34.52C10.64 34.52 10.26 35.47 10.26 36.74L10.26 38.09L22.68 38.09L22.68 35.09L14.29 35.07C14.29 35.07 14.29 34.64 14.65 34.33C14.65 34.33 15.01 34.03 15.61 33.76C15.61 33.76 16.2 33.5 16.96 33.25C16.96 33.25 17.71 33 18.5 32.67C18.5 32.67 19.28 32.33 20.03 31.9C20.03 31.9 20.79 31.47 21.38 30.86C21.38 30.86 21.98 30.25 22.34 29.42C22.34 29.42 22.7 28.59 22.7 27.46C22.7 27.46 22.7 26.36 22.3 25.41C22.3 25.41 21.91 24.47 21.12 23.77C21.12 23.77 20.34 23.08 19.17 22.69C19.17 22.69 18 22.29 16.45 22.29C16.45 22.29 15.23 22.29 14.11 22.6C14.11 22.6 13 22.92 12.15 23.58C12.15 23.58 11.3 24.23 10.81 25.23C10.81 25.23 10.31 26.23 10.31 27.6L14.06 27.56C14.06 27.56 14.06 27.04 14.26 26.69C14.26 26.69 14.45 26.34 14.79 26.11C14.79 26.11 15.12 25.89 15.56 25.79C15.56 25.79 16 25.69 16.47 25.69C16.47 25.69 17.26 25.69 17.77 25.86C17.77 25.86 18.27 26.03 18.56 26.33C18.56 26.33 18.85 26.63 18.96 27.02C18.96 27.02 19.08 27.42 19.08 27.89C19.08 27.89 19.08 28.39 18.7 28.76C18.7 28.76 18.32 29.13 17.7 29.44ZM31.42 28.37C32.45 28.37 33.01 27.78 33.01 27.78C33.58 27.19 33.58 26.32 33.58 26.32C33.58 25.49 33.01 24.9 33.01 24.9C32.45 24.31 31.42 24.31 31.42 24.31C30.93 24.31 30.55 24.47 30.55 24.47C30.16 24.63 29.88 24.9 29.88 24.9C29.6 25.17 29.45 25.54 29.45 25.54C29.3 25.91 29.3 26.32 29.3 26.32C29.3 27.19 29.85 27.78 29.85 27.78C30.41 28.37 31.42 28.37 31.42 28.37ZM31.44 31.06C29.96 31.06 29.28 31.75 29.28 31.75C28.59 32.44 28.59 33.5 28.59 33.5C28.59 34.55 29.28 35.24 29.28 35.24C29.96 35.93 31.44 35.93 31.44 35.93C32.88 35.93 33.58 35.24 33.58 35.24C34.28 34.55 34.28 33.5 34.28 33.5C34.28 32.44 33.58 31.75 33.58 31.75C32.88 31.06 31.44 31.06 31.44 31.06Z" fill-rule="evenodd"  fill="#000000" >
</path>
</svg>
