<svg xmlns="http://www.w3.org/2000/svg" xmlns:xlink="http://www.w3.org/1999/xlink" width="48" height="48" viewBox="0 0 48 48" fill="none">
<path d="M44 12C44 10.92 43.79 9.88 43.37 8.89C42.96 7.93 42.39 7.08 41.66 6.34C40.92 5.61 40.07 5.04 39.11 4.63C38.12 4.21 37.08 4 36 4L12 4C10.92 4 9.88 4.21 8.89 4.63C7.93 5.04 7.08 5.61 6.34 6.34C5.61 7.08 5.04 7.93 4.63 8.89C4.21 9.88 4 10.92 4 12L4 14L44 14L44 12ZM41.66 41.66C42.39 40.92 42.96 40.07 43.37 39.11C43.79 38.12 44 37.08 44 36L44 18L4 18L4 36C4 37.08 4.21 38.12 4.63 39.11C5.04 40.07 5.61 40.92 6.34 41.66C7.08 42.39 7.93 42.96 8.89 43.37C9.88 43.79 10.92 44 12 44L36 44C37.08 44 38.12 43.79 39.11 43.37C40.07 42.96 40.92 42.39 41.66 41.66ZM11.5 25C11.5 26.38 12.62 27.5 14 27.5C15.38 27.5 16.5 26.38 16.5 25C16.5 23.62 15.38 22.5 14 22.5C12.62 22.5 11.5 23.62 11.5 25ZM21.5 25C21.5 26.38 22.62 27.5 24 27.5C25.38 27.5 26.5 26.38 26.5 25C26.5 23.62 25.38 22.5 24 22.5C22.62 22.5 21.5 23.62 21.5 25ZM31.5 25C31.5 26.38 32.62 27.5 34 27.5C35.38 27.5 36.5 26.38 36.5 25C36.5 23.62 35.38 22.5 34 22.5C32.62 22.5 31.5 23.62 31.5 25ZM11.5 32C11.5 33.38 12.62 34.5 14 34.5C15.38 34.5 16.5 33.38 16.5 32C16.5 30.62 15.38 29.5 14 29.5C12.62 29.5 11.5 30.62 11.5 32ZM21.5 32C21.5 33.38 22.62 34.5 24 34.5C25.38 34.5 26.5 33.38 26.5 32C26.5 30.62 25.38 29.5 24 29.5C22.62 29.5 21.5 30.62 21.5 32Z" fill-rule="evenodd"  fill="#000000" >
</path>
</svg>
