<svg xmlns="http://www.w3.org/2000/svg" xmlns:xlink="http://www.w3.org/1999/xlink" width="48" height="48" viewBox="0 0 48 48" fill="none">
<path d="M44 12C44 7.58 40.42 4 36 4L12 4C7.58 4 4 7.58 4 12L4 14L44 14L44 12ZM44 36L44 18L4 18L4 36C4 40.42 7.58 44 12 44L36 44C40.42 44 44 40.42 44 36ZM26.98 36.63C26.98 36.63 27.89 37.51 29.13 37.87C29.13 37.87 30.36 38.23 31.76 38.23C31.76 38.23 33.19 38.23 34.37 37.85C34.37 37.85 35.54 37.46 36.38 36.75C36.38 36.75 37.22 36.04 37.68 35.04C37.68 35.04 38.14 34.04 38.14 32.82C38.14 32.82 38.14 31.81 37.84 30.88C37.84 30.88 37.54 29.95 36.85 29.25C36.85 29.25 36.16 28.55 35.04 28.13C35.04 28.13 33.92 27.7 32.29 27.7C32.29 27.7 30.94 27.7 29.95 28.26C29.95 28.26 28.96 28.82 28.61 29.83C28.61 29.83 28.61 28.42 28.83 27.47C28.83 27.47 29.05 26.52 29.45 25.93C29.45 25.93 29.86 25.35 30.46 25.09C30.46 25.09 31.06 24.84 31.84 24.84C31.84 24.84 32.47 24.84 32.93 24.94C32.93 24.94 33.38 25.04 33.71 25.25C33.71 25.25 34.03 25.45 34.25 25.78C34.25 25.78 34.46 26.1 34.63 26.57L37.61 26.57C37.61 26.57 37.49 25.54 37.04 24.72C37.04 24.72 36.59 23.89 35.85 23.3C35.85 23.3 35.11 22.72 34.1 22.39C34.1 22.39 33.08 22.07 31.8 22.07C31.8 22.07 31.06 22.07 30.27 22.25C30.27 22.25 29.48 22.43 28.72 22.84C28.72 22.84 27.97 23.24 27.3 23.9C27.3 23.9 26.63 24.55 26.12 25.5C26.12 25.5 25.61 26.44 25.31 27.71C25.31 27.71 25.01 28.98 25.01 30.6C25.01 30.6 25.01 32.82 25.54 34.28C25.54 34.28 26.06 35.75 26.98 36.63ZM17.63 29.44C17.63 29.44 17.01 29.76 16.22 30.07C16.22 30.07 15.43 30.39 14.6 30.77C14.6 30.77 13.77 31.16 12.98 31.66C12.98 31.66 12.19 32.15 11.57 32.86C11.57 32.86 10.95 33.57 10.57 34.52C10.57 34.52 10.19 35.46 10.19 36.74L10.19 38.09L22.61 38.09L22.61 35.08L14.22 35.07C14.22 35.07 14.22 34.63 14.58 34.33C14.58 34.33 14.94 34.02 15.54 33.76C15.54 33.76 16.13 33.5 16.89 33.25C16.89 33.25 17.64 33 18.43 32.66C18.43 32.66 19.21 32.33 19.96 31.9C19.96 31.9 20.72 31.47 21.31 30.85C21.31 30.85 21.91 30.24 22.27 29.41C22.27 29.41 22.63 28.59 22.63 27.45C22.63 27.45 22.63 26.35 22.23 25.41C22.23 25.41 21.84 24.46 21.05 23.77C21.05 23.77 20.27 23.08 19.1 22.68C19.1 22.68 17.93 22.29 16.38 22.29C16.38 22.29 15.16 22.29 14.04 22.6C14.04 22.6 12.93 22.92 12.08 23.57C12.08 23.57 11.23 24.23 10.74 25.23C10.74 25.23 10.24 26.23 10.24 27.6L13.99 27.56C13.99 27.56 13.99 27.04 14.19 26.69C14.19 26.69 14.38 26.34 14.72 26.11C14.72 26.11 15.05 25.89 15.49 25.79C15.49 25.79 15.93 25.69 16.4 25.69C16.4 25.69 17.19 25.69 17.7 25.86C17.7 25.86 18.2 26.03 18.49 26.33C18.49 26.33 18.78 26.62 18.89 27.02C18.89 27.02 19.01 27.42 19.01 27.88C19.01 27.88 19.01 28.39 18.63 28.76C18.63 28.76 18.25 29.13 17.63 29.44ZM29.51 34.65C29.93 35.01 30.5 35.21 30.5 35.21C31.06 35.41 31.71 35.41 31.71 35.41C32.45 35.41 33.05 35.21 33.05 35.21C33.65 35.01 34.09 34.65 34.09 34.65C34.52 34.29 34.76 33.8 34.76 33.8C35 33.3 35 32.71 35 32.71C35 31.97 34.76 31.44 34.76 31.44C34.52 30.91 34.09 30.57 34.09 30.57C33.65 30.24 33.05 30.08 33.05 30.08C32.45 29.92 31.71 29.92 31.71 29.92C31.06 29.92 30.5 30.08 30.5 30.08C29.93 30.24 29.51 30.57 29.51 30.57C29.1 30.91 28.86 31.44 28.86 31.44C28.61 31.97 28.61 32.71 28.61 32.71C28.61 33.3 28.85 33.8 28.85 33.8C29.08 34.29 29.51 34.65 29.51 34.65Z" fill-rule="evenodd"  fill="#000000" >
</path>
</svg>
