<svg xmlns="http://www.w3.org/2000/svg" xmlns:xlink="http://www.w3.org/1999/xlink" width="48" height="48" viewBox="0 0 48 48" fill="none">
<path d="M44 12C44 7.58 40.42 4 36 4L12 4C7.58 4 4 7.58 4 12L4 14L44 14L44 12ZM44 36L44 18L4 18L4 36C4 40.42 7.58 44 12 44L36 44C40.42 44 44 40.42 44 36ZM17.48 29.45C17.48 29.45 16.86 29.76 16.07 30.07C16.07 30.07 15.28 30.39 14.45 30.78C14.45 30.78 13.62 31.16 12.83 31.66C12.83 31.66 12.04 32.15 11.42 32.87C11.42 32.87 10.8 33.58 10.42 34.52C10.42 34.52 10.04 35.47 10.04 36.74L10.04 38.09L22.46 38.09L22.46 35.09L14.07 35.07C14.07 35.07 14.07 34.64 14.43 34.33C14.43 34.33 14.79 34.03 15.39 33.77C15.39 33.77 15.98 33.5 16.74 33.25C16.74 33.25 17.49 33 18.28 32.67C18.28 32.67 19.06 32.33 19.81 31.9C19.81 31.9 20.57 31.47 21.16 30.86C21.16 30.86 21.76 30.25 22.12 29.42C22.12 29.42 22.48 28.59 22.48 27.46C22.48 27.46 22.48 26.36 22.08 25.41C22.08 25.41 21.69 24.47 20.9 23.77C20.9 23.77 20.12 23.08 18.95 22.69C18.95 22.69 17.78 22.29 16.23 22.29C16.23 22.29 15.01 22.29 13.89 22.6C13.89 22.6 12.78 22.92 11.93 23.58C11.93 23.58 11.08 24.23 10.59 25.23C10.59 25.23 10.09 26.23 10.09 27.6L13.84 27.56C13.84 27.56 13.84 27.04 14.04 26.69C14.04 26.69 14.23 26.34 14.57 26.11C14.57 26.11 14.9 25.89 15.34 25.79C15.34 25.79 15.78 25.69 16.25 25.69C16.25 25.69 17.04 25.69 17.55 25.86C17.55 25.86 18.05 26.03 18.34 26.33C18.34 26.33 18.63 26.63 18.74 27.02C18.74 27.02 18.86 27.42 18.86 27.89C18.86 27.89 18.86 28.39 18.48 28.76C18.48 28.76 18.1 29.13 17.48 29.45ZM31.45 27.95C31.45 27.95 31.94 26.74 32.25 25.36C32.25 25.36 32.57 23.98 32.68 22.51L29.24 22.51C29.24 22.51 29.11 24.67 28.07 27.06C28.07 27.06 27.02 29.45 24.92 31.76L24.92 35.03L32.68 35.03L32.68 38.09L35.66 38.09L35.66 35.03L37.97 35.03L37.97 32.03L35.66 32.03L35.66 25.85L32.68 25.85L32.68 32.01L28.99 32.01C28.99 32.01 29.72 31.22 30.35 30.19C30.35 30.19 30.97 29.17 31.45 27.95Z" fill-rule="evenodd"  fill="#000000" >
</path>
</svg>
