<svg xmlns="http://www.w3.org/2000/svg" xmlns:xlink="http://www.w3.org/1999/xlink" width="48" height="48" viewBox="0 0 48 48" fill="none">
<path d="M44 12C44 7.58 40.42 4 36 4L12 4C7.58 4 4 7.58 4 12L4 14L44 14L44 12ZM44 36L44 18L4 18L4 36C4 40.42 7.58 44 12 44L36 44C40.42 44 44 40.42 44 36ZM14.43 32.33L16.57 32.33C16.57 32.33 17.13 32.33 17.61 32.41C17.61 32.41 18.09 32.49 18.43 32.69C18.43 32.69 18.77 32.88 18.97 33.22C18.97 33.22 19.17 33.55 19.17 34.07C19.17 34.07 19.17 34.34 19.09 34.71C19.09 34.71 19 35.08 18.74 35.41C18.74 35.41 18.48 35.75 17.99 35.99C17.99 35.99 17.49 36.23 16.66 36.23C16.66 36.23 16.02 36.23 15.49 36.12C15.49 36.12 14.95 36.02 14.58 35.75C14.58 35.75 14.2 35.48 13.99 35.04C13.99 35.04 13.78 34.59 13.78 33.95L10.04 33.93C10.04 33.93 10.04 35.39 10.57 36.39C10.57 36.39 11.1 37.38 11.98 38.01C11.98 38.01 12.85 38.63 14.01 38.91C14.01 38.91 15.17 39.18 16.43 39.18C16.43 39.18 17.98 39.18 19.16 38.81C19.16 38.81 20.34 38.45 21.15 37.8C21.15 37.8 21.96 37.15 22.37 36.24C22.37 36.24 22.78 35.33 22.78 34.25C22.78 34.25 22.78 33.5 22.52 32.88C22.52 32.88 22.26 32.27 21.86 31.82C21.86 31.82 21.45 31.37 20.98 31.11C20.98 31.11 20.52 30.85 20.08 30.78C20.08 30.78 20.5 30.78 20.95 30.61C20.95 30.61 21.4 30.44 21.77 30.07C21.77 30.07 22.14 29.7 22.37 29.11C22.37 29.11 22.6 28.53 22.6 27.7C22.6 27.7 22.6 26.73 22.21 25.88C22.21 25.88 21.81 25.04 21.03 24.42C21.03 24.42 20.25 23.81 19.09 23.46C19.09 23.46 17.92 23.11 16.38 23.11C16.38 23.11 15.26 23.11 14.16 23.36C14.16 23.36 13.06 23.61 12.18 24.17C12.18 24.17 11.3 24.73 10.76 25.63C10.76 25.63 10.22 26.53 10.22 27.83L13.96 27.81C13.96 27.81 13.96 27.34 14.16 27.02C14.16 27.02 14.36 26.71 14.69 26.51C14.69 26.51 15.03 26.31 15.47 26.22C15.47 26.22 15.91 26.13 16.38 26.13C16.38 26.13 17.17 26.13 17.67 26.32C17.67 26.32 18.18 26.51 18.46 26.81C18.46 26.81 18.75 27.11 18.87 27.44C18.87 27.44 18.99 27.77 18.99 28.08C18.99 28.08 18.99 29.07 18.34 29.42C18.34 29.42 17.69 29.77 16.57 29.75L14.43 29.75L14.43 32.33ZM36.38 25.58C36.38 25.58 35.54 24.5 34.32 23.87C34.32 23.87 33.11 23.24 31.54 23.24C31.54 23.24 29.96 23.24 28.73 23.87C28.73 23.87 27.51 24.5 26.67 25.58C26.67 25.58 25.84 26.67 25.41 28.14C25.41 28.14 24.99 29.61 24.99 31.26C24.99 31.26 24.99 32.92 25.48 34.39C25.48 34.39 25.96 35.85 26.83 36.94C26.83 36.94 27.69 38.03 28.9 38.67C28.9 38.67 30.1 39.31 31.54 39.31C31.54 39.31 33.11 39.31 34.32 38.67C34.32 38.67 35.54 38.03 36.38 36.94C36.38 36.94 37.21 35.85 37.64 34.39C37.64 34.39 38.08 32.92 38.08 31.26C38.08 31.26 38.08 29.61 37.64 28.14C37.64 28.14 37.21 26.67 36.38 25.58ZM33.98 27.66C33.59 26.94 32.99 26.53 32.99 26.53C32.39 26.12 31.54 26.12 31.54 26.12C30.68 26.12 30.07 26.53 30.07 26.53C29.45 26.94 29.07 27.66 29.07 27.66C28.68 28.37 28.5 29.29 28.5 29.29C28.32 30.22 28.32 31.25 28.32 31.25C28.32 32.27 28.5 33.21 28.5 33.21C28.68 34.14 29.07 34.85 29.07 34.85C29.45 35.55 30.07 35.97 30.07 35.97C30.68 36.39 31.54 36.39 31.54 36.39C32.39 36.39 32.99 35.97 32.99 35.97C33.59 35.55 33.98 34.85 33.98 34.85C34.37 34.14 34.55 33.21 34.55 33.21C34.73 32.27 34.73 31.25 34.73 31.25C34.73 30.22 34.55 29.29 34.55 29.29C34.37 28.37 33.98 27.66 33.98 27.66Z" fill-rule="evenodd"  fill="#000000" >
</path>
</svg>
