<svg xmlns="http://www.w3.org/2000/svg" xmlns:xlink="http://www.w3.org/1999/xlink" width="48" height="48" viewBox="0 0 48 48" fill="none">
<path d="M44 12C44 7.58 40.42 4 36 4L12 4C7.58 4 4 7.58 4 12L4 14L44 14L44 12ZM44 36L44 18L4 18L4 36C4 40.42 7.58 44 12 44L36 44C40.42 44 44 40.42 44 36ZM19.53 36.23C19.53 36.23 20.45 37.11 21.68 37.47C21.68 37.47 22.92 37.83 24.32 37.83C24.32 37.83 25.74 37.83 26.92 37.45C26.92 37.45 28.1 37.06 28.94 36.35C28.94 36.35 29.77 35.64 30.23 34.64C30.23 34.64 30.69 33.64 30.69 32.42C30.69 32.42 30.69 31.41 30.4 30.48C30.4 30.48 30.1 29.55 29.41 28.85C29.41 28.85 28.71 28.15 27.6 27.73C27.6 27.73 26.48 27.3 24.84 27.3C24.84 27.3 23.49 27.3 22.5 27.86C22.5 27.86 21.51 28.42 21.17 29.43C21.17 29.43 21.17 28.02 21.39 27.07C21.39 27.07 21.6 26.12 22.01 25.53C22.01 25.53 22.41 24.95 23.02 24.69C23.02 24.69 23.62 24.44 24.39 24.44C24.39 24.44 25.02 24.44 25.48 24.54C25.48 24.54 25.94 24.64 26.26 24.85C26.26 24.85 26.59 25.05 26.8 25.38C26.8 25.38 27.02 25.7 27.18 26.17L30.17 26.17C30.17 26.17 30.04 25.14 29.59 24.32C29.59 24.32 29.14 23.49 28.41 22.9C28.41 22.9 27.67 22.32 26.65 21.99C26.65 21.99 25.63 21.67 24.36 21.67C24.36 21.67 23.62 21.67 22.83 21.85C22.83 21.85 22.03 22.03 21.28 22.44C21.28 22.44 20.52 22.84 19.86 23.5C19.86 23.5 19.19 24.15 18.68 25.1C18.68 25.1 18.16 26.04 17.87 27.31C17.87 27.31 17.57 28.58 17.57 30.2C17.57 30.2 17.57 32.42 18.09 33.88C18.09 33.88 18.61 35.35 19.53 36.23ZM22.06 34.25C22.48 34.61 23.05 34.81 23.05 34.81C23.62 35.01 24.27 35.01 24.27 35.01C25 35.01 25.61 34.81 25.61 34.81C26.21 34.61 26.64 34.25 26.64 34.25C27.07 33.89 27.32 33.4 27.32 33.4C27.56 32.9 27.56 32.31 27.56 32.31C27.56 31.57 27.32 31.04 27.32 31.04C27.07 30.51 26.64 30.18 26.64 30.18C26.21 29.84 25.61 29.68 25.61 29.68C25 29.52 24.27 29.52 24.27 29.52C23.62 29.52 23.05 29.68 23.05 29.68C22.48 29.84 22.07 30.18 22.07 30.18C21.66 30.51 21.41 31.04 21.41 31.04C21.17 31.57 21.17 32.31 21.17 32.31C21.17 32.9 21.4 33.4 21.4 33.4C21.64 33.89 22.06 34.25 22.06 34.25Z" fill-rule="evenodd"  fill="#000000" >
</path>
</svg>
