<svg xmlns="http://www.w3.org/2000/svg" xmlns:xlink="http://www.w3.org/1999/xlink" width="48" height="48" viewBox="0 0 48 48" fill="none">
<path d="M44 12C44 7.58 40.42 4 36 4L12 4C7.58 4 4 7.58 4 12L4 14L44 14L44 12ZM44 36L44 18L4 18L4 36C4 40.42 7.58 44 12 44L36 44C40.42 44 44 40.42 44 36ZM18.29 29.45C18.29 29.45 17.67 29.76 16.88 30.07C16.88 30.07 16.09 30.39 15.26 30.78C15.26 30.78 14.43 31.16 13.64 31.66C13.64 31.66 12.85 32.15 12.23 32.87C12.23 32.87 11.61 33.58 11.23 34.52C11.23 34.52 10.85 35.47 10.85 36.74L10.85 38.09L23.27 38.09L23.27 35.09L14.88 35.07C14.88 35.07 14.88 34.64 15.24 34.33C15.24 34.33 15.6 34.03 16.2 33.77C16.2 33.77 16.79 33.5 17.55 33.25C17.55 33.25 18.3 33 19.09 32.67C19.09 32.67 19.87 32.33 20.62 31.9C20.62 31.9 21.38 31.47 21.97 30.86C21.97 30.86 22.57 30.25 22.93 29.42C22.93 29.42 23.29 28.59 23.29 27.46C23.29 27.46 23.29 26.36 22.89 25.41C22.89 25.41 22.5 24.47 21.71 23.77C21.71 23.77 20.93 23.08 19.76 22.69C19.76 22.69 18.59 22.29 17.04 22.29C17.04 22.29 15.82 22.29 14.7 22.6C14.7 22.6 13.59 22.92 12.74 23.58C12.74 23.58 11.89 24.23 11.4 25.23C11.4 25.23 10.9 26.23 10.9 27.6L14.65 27.56C14.65 27.56 14.65 27.04 14.85 26.69C14.85 26.69 15.04 26.34 15.38 26.11C15.38 26.11 15.71 25.89 16.15 25.79C16.15 25.79 16.59 25.69 17.06 25.69C17.06 25.69 17.85 25.69 18.36 25.86C18.36 25.86 18.86 26.03 19.15 26.33C19.15 26.33 19.44 26.63 19.55 27.02C19.55 27.02 19.67 27.42 19.67 27.89C19.67 27.89 19.67 28.39 19.29 28.76C19.29 28.76 18.91 29.13 18.29 29.45ZM33.79 31.74C33.79 31.74 34.28 30.39 34.85 29.32C34.85 29.32 35.43 28.25 35.93 27.49C35.93 27.49 36.44 26.74 36.8 26.33C36.8 26.33 37.16 25.93 37.21 25.93L37.21 22.67L25.73 22.67L25.73 25.93L33.92 25.93C33.92 25.93 33.65 25.93 33.16 26.36C33.16 26.36 32.68 26.79 32.09 27.58C32.09 27.58 31.51 28.37 30.89 29.48C30.89 29.48 30.28 30.59 29.79 31.93C29.79 31.93 29.29 33.27 28.99 34.81C28.99 34.81 28.68 36.35 28.7 38.02L32.66 38.02C32.66 38.02 32.66 36.26 32.98 34.67C32.98 34.67 33.31 33.09 33.79 31.74Z" fill-rule="evenodd"  fill="#000000" >
</path>
</svg>
