<svg xmlns="http://www.w3.org/2000/svg" xmlns:xlink="http://www.w3.org/1999/xlink" width="48" height="48" viewBox="0 0 48 48" fill="none">
<path d="M44 12C44 7.58 40.42 4 36 4L12 4C7.58 4 4 7.58 4 12L4 14L44 14L44 12ZM44 36L44 18L4 18L4 36C4 40.42 7.58 44 12 44L36 44C40.42 44 44 40.42 44 36ZM28.44 27.95C28.44 27.95 28.92 26.73 29.24 25.35C29.24 25.35 29.55 23.98 29.66 22.5L26.22 22.5C26.22 22.5 26.1 24.66 25.05 27.05C25.05 27.05 24.01 29.45 21.9 31.75L21.9 35.03L29.66 35.03L29.66 38.09L32.65 38.09L32.65 35.03L34.95 35.03L34.95 32.02L32.65 32.02L32.65 25.85L29.66 25.85L29.66 32L25.97 32C25.97 32 26.71 31.21 27.33 30.19C27.33 30.19 27.95 29.16 28.44 27.95ZM16.53 22.7C16.53 22.7 16.46 22.9 16.34 23.25C16.34 23.25 16.22 23.6 15.96 23.94C15.96 23.94 15.7 24.28 15.23 24.53C15.23 24.53 14.76 24.79 14.01 24.79L12.91 24.79L12.91 27.52L16.13 27.52L16.13 38.12L19.46 38.12L19.46 22.7L16.53 22.7Z" fill-rule="evenodd"  fill="#000000" >
</path>
</svg>
