<svg xmlns="http://www.w3.org/2000/svg" xmlns:xlink="http://www.w3.org/1999/xlink" width="48" height="48" viewBox="0 0 48 48" fill="none">
<path d="M44 12C44 7.58 40.42 4 36 4L12 4C7.58 4 4 7.58 4 12L4 14L44 14L44 12ZM44 36L44 18L4 18L4 36C4 40.42 7.58 44 12 44L36 44C40.42 44 44 40.42 44 36ZM29.39 31.33L31.53 31.33C31.53 31.33 32.09 31.33 32.56 31.41C32.56 31.41 33.04 31.49 33.38 31.69C33.38 31.69 33.72 31.88 33.92 32.22C33.92 32.22 34.12 32.55 34.12 33.07C34.12 33.07 34.12 33.34 34.04 33.71C34.04 33.71 33.96 34.08 33.7 34.41C33.7 34.41 33.44 34.75 32.94 34.99C32.94 34.99 32.45 35.23 31.62 35.23C31.62 35.23 30.97 35.23 30.44 35.12C30.44 35.12 29.91 35.02 29.53 34.75C29.53 34.75 29.15 34.48 28.95 34.04C28.95 34.04 28.74 33.59 28.74 32.95L24.99 32.93C24.99 32.93 24.99 34.39 25.52 35.38C25.52 35.38 26.06 36.38 26.93 37.01C26.93 37.01 27.8 37.63 28.96 37.9C28.96 37.9 30.12 38.18 31.38 38.18C31.38 38.18 32.93 38.18 34.11 37.81C34.11 37.81 35.29 37.45 36.1 36.8C36.1 36.8 36.91 36.15 37.32 35.24C37.32 35.24 37.74 34.33 37.74 33.25C37.74 33.25 37.74 32.5 37.48 31.88C37.48 31.88 37.22 31.27 36.81 30.82C36.81 30.82 36.41 30.37 35.94 30.11C35.94 30.11 35.47 29.85 35.04 29.78C35.04 29.78 35.45 29.78 35.9 29.61C35.9 29.61 36.35 29.44 36.72 29.07C36.72 29.07 37.09 28.7 37.32 28.11C37.32 28.11 37.56 27.53 37.56 26.7C37.56 26.7 37.56 25.73 37.16 24.88C37.16 24.88 36.77 24.04 35.98 23.42C35.98 23.42 35.2 22.81 34.04 22.46C34.04 22.46 32.88 22.11 31.33 22.11C31.33 22.11 30.21 22.11 29.12 22.36C29.12 22.36 28.02 22.61 27.14 23.17C27.14 23.17 26.25 23.73 25.71 24.63C25.71 24.63 25.17 25.53 25.17 26.83L28.92 26.81C28.92 26.81 28.92 26.34 29.12 26.02C29.12 26.02 29.31 25.71 29.65 25.51C29.65 25.51 29.98 25.31 30.42 25.22C30.42 25.22 30.86 25.13 31.33 25.13C31.33 25.13 32.12 25.13 32.63 25.32C32.63 25.32 33.13 25.51 33.42 25.81C33.42 25.81 33.71 26.11 33.82 26.44C33.82 26.44 33.94 26.77 33.94 27.08C33.94 27.08 33.94 28.07 33.29 28.42C33.29 28.42 32.64 28.77 31.53 28.75L29.39 28.75L29.39 31.33ZM17.7 29.44C17.7 29.44 17.08 29.76 16.29 30.08C16.29 30.08 15.5 30.39 14.67 30.78C14.67 30.78 13.84 31.16 13.05 31.66C13.05 31.66 12.26 32.15 11.64 32.86C11.64 32.86 11.02 33.58 10.64 34.52C10.64 34.52 10.26 35.47 10.26 36.74L10.26 38.09L22.68 38.09L22.68 35.09L14.29 35.07C14.29 35.07 14.29 34.64 14.65 34.33C14.65 34.33 15.01 34.03 15.61 33.76C15.61 33.76 16.2 33.5 16.96 33.25C16.96 33.25 17.71 33 18.5 32.67C18.5 32.67 19.28 32.33 20.03 31.9C20.03 31.9 20.79 31.47 21.38 30.86C21.38 30.86 21.98 30.25 22.34 29.42C22.34 29.42 22.7 28.59 22.7 27.46C22.7 27.46 22.7 26.36 22.3 25.41C22.3 25.41 21.91 24.47 21.12 23.77C21.12 23.77 20.34 23.08 19.17 22.69C19.17 22.69 18 22.29 16.45 22.29C16.45 22.29 15.23 22.29 14.11 22.6C14.11 22.6 13 22.92 12.15 23.58C12.15 23.58 11.3 24.23 10.81 25.23C10.81 25.23 10.31 26.23 10.31 27.6L14.06 27.56C14.06 27.56 14.06 27.04 14.26 26.69C14.26 26.69 14.45 26.34 14.79 26.11C14.79 26.11 15.12 25.89 15.56 25.79C15.56 25.79 16 25.69 16.47 25.69C16.47 25.69 17.26 25.69 17.77 25.86C17.77 25.86 18.27 26.03 18.56 26.33C18.56 26.33 18.85 26.63 18.96 27.02C18.96 27.02 19.08 27.42 19.08 27.89C19.08 27.89 19.08 28.39 18.7 28.76C18.7 28.76 18.32 29.13 17.7 29.44Z" fill-rule="evenodd"  fill="#000000" >
</path>
</svg>
