<svg xmlns="http://www.w3.org/2000/svg" xmlns:xlink="http://www.w3.org/1999/xlink" width="48" height="48" viewBox="0 0 48 48" fill="none">
<path d="M44 12C44 7.58 40.42 4 36 4L12 4C7.58 4 4 7.58 4 12L4 14L44 14L44 12ZM44 36L44 18L4 18L4 36C4 40.42 7.58 44 12 44L36 44C40.42 44 44 40.42 44 36ZM26.37 31.33L28.51 31.33C28.51 31.33 29.07 31.33 29.55 31.41C29.55 31.41 30.02 31.49 30.37 31.69C30.37 31.69 30.71 31.88 30.91 32.22C30.91 32.22 31.1 32.55 31.1 33.07C31.1 33.07 31.1 33.34 31.02 33.71C31.02 33.71 30.94 34.08 30.68 34.41C30.68 34.41 30.42 34.75 29.92 34.99C29.92 34.99 29.43 35.23 28.6 35.23C28.6 35.23 27.95 35.23 27.42 35.12C27.42 35.12 26.89 35.02 26.51 34.75C26.51 34.75 26.14 34.48 25.93 34.04C25.93 34.04 25.72 33.59 25.72 32.95L21.98 32.93C21.98 32.93 21.98 34.39 22.51 35.38C22.51 35.38 23.04 36.38 23.91 37.01C23.91 37.01 24.79 37.63 25.95 37.9C25.95 37.9 27.11 38.18 28.37 38.18C28.37 38.18 29.92 38.18 31.1 37.81C31.1 37.81 32.27 37.45 33.08 36.8C33.08 36.8 33.89 36.15 34.31 35.24C34.31 35.24 34.72 34.33 34.72 33.25C34.72 33.25 34.72 32.5 34.46 31.88C34.46 31.88 34.2 31.27 33.8 30.82C33.8 30.82 33.39 30.37 32.92 30.11C32.92 30.11 32.45 29.85 32.02 29.78C32.02 29.78 32.44 29.78 32.89 29.61C32.89 29.61 33.34 29.44 33.71 29.07C33.71 29.07 34.07 28.7 34.31 28.11C34.31 28.11 34.54 27.53 34.54 26.7C34.54 26.7 34.54 25.73 34.15 24.88C34.15 24.88 33.75 24.04 32.97 23.42C32.97 23.42 32.18 22.81 31.02 22.46C31.02 22.46 29.86 22.11 28.31 22.11C28.31 22.11 27.2 22.11 26.1 22.36C26.1 22.36 25 22.61 24.12 23.17C24.12 23.17 23.24 23.73 22.7 24.63C22.7 24.63 22.16 25.53 22.16 26.83L25.9 26.81C25.9 26.81 25.9 26.34 26.1 26.02C26.1 26.02 26.3 25.71 26.63 25.51C26.63 25.51 26.96 25.31 27.41 25.22C27.41 25.22 27.85 25.13 28.31 25.13C28.31 25.13 29.11 25.13 29.61 25.32C29.61 25.32 30.11 25.51 30.4 25.81C30.4 25.81 30.69 26.11 30.81 26.44C30.81 26.44 30.92 26.77 30.92 27.08C30.92 27.08 30.92 28.07 30.28 28.42C30.28 28.42 29.63 28.77 28.51 28.75L26.37 28.75L26.37 31.33ZM16.75 22.7C16.75 22.7 16.68 22.9 16.56 23.25C16.56 23.25 16.44 23.6 16.18 23.95C16.18 23.95 15.92 24.29 15.45 24.54C15.45 24.54 14.98 24.79 14.23 24.79L13.13 24.79L13.13 27.53L16.35 27.53L16.35 38.13L19.68 38.13L19.68 22.7L16.75 22.7Z" fill-rule="evenodd"  fill="#000000" >
</path>
</svg>
