<svg xmlns="http://www.w3.org/2000/svg" xmlns:xlink="http://www.w3.org/1999/xlink" width="48" height="48" viewBox="0 0 48 48" fill="none">
<path d="M44 12C44 7.58 40.42 4 36 4L12 4C7.58 4 4 7.58 4 12L4 14L44 14L44 12ZM44 36L44 18L4 18L4 36C4 40.42 7.58 44 12 44L36 44C40.42 44 44 40.42 44 36ZM33.04 23.81C33.04 23.81 32.16 22.92 30.96 22.54C30.96 22.54 29.75 22.16 28.35 22.16C28.35 22.16 26.92 22.16 25.76 22.55C25.76 22.55 24.6 22.93 23.77 23.64C23.77 23.64 22.93 24.34 22.47 25.33C22.47 25.33 22.01 26.32 22.01 27.54C22.01 27.54 22.01 28.53 22.27 29.5C22.27 29.5 22.53 30.48 23.23 31.25C23.23 31.25 23.94 32.02 25.15 32.49C25.15 32.49 26.37 32.96 28.26 32.96C28.26 32.96 29.05 32.96 29.62 32.83C29.62 32.83 30.2 32.69 30.61 32.44C30.61 32.44 31.03 32.19 31.32 31.83C31.32 31.83 31.6 31.48 31.8 31.03C31.8 31.03 31.78 32.15 31.59 32.98C31.59 32.98 31.39 33.81 30.96 34.35C30.96 34.35 30.52 34.9 29.85 35.18C29.85 35.18 29.17 35.46 28.2 35.46C28.2 35.46 27.57 35.46 27.02 35.36C27.02 35.36 26.47 35.26 26.06 35.06C26.06 35.06 25.65 34.85 25.39 34.53C25.39 34.53 25.14 34.2 25.11 33.73L22.08 33.73C22.08 33.73 22.17 35.97 23.79 37.11C23.79 37.11 25.41 38.25 28.24 38.23C28.24 38.23 29.75 38.23 30.98 37.8C30.98 37.8 32.22 37.37 33.1 36.39C33.1 36.39 33.98 35.41 34.46 33.81C34.46 33.81 34.93 32.2 34.93 29.83C34.93 29.83 34.93 27.63 34.43 26.16C34.43 26.16 33.93 24.7 33.04 23.81ZM16.62 22.7C16.62 22.7 16.55 22.9 16.43 23.25C16.43 23.25 16.31 23.6 16.05 23.94C16.05 23.94 15.79 24.28 15.32 24.54C15.32 24.54 14.85 24.79 14.1 24.79L13 24.79L13 27.52L16.22 27.52L16.22 38.13L19.55 38.13L19.55 22.7L16.62 22.7ZM30.59 25.47C30.16 25.11 29.61 24.91 29.61 24.91C29.05 24.72 28.4 24.72 28.4 24.72C27.68 24.72 27.08 24.91 27.08 24.91C26.47 25.11 26.04 25.47 26.04 25.47C25.61 25.83 25.37 26.32 25.37 26.32C25.12 26.8 25.12 27.4 25.12 27.4C25.12 28.86 26.03 29.5 26.03 29.5C26.94 30.15 28.4 30.15 28.4 30.15C29.05 30.15 29.61 30 29.61 30C30.16 29.85 30.58 29.5 30.58 29.5C30.99 29.16 31.24 28.64 31.24 28.64C31.48 28.12 31.48 27.4 31.48 27.4C31.48 26.8 31.24 26.32 31.24 26.32C31.01 25.83 30.59 25.47 30.59 25.47Z" fill-rule="evenodd"  fill="#000000" >
</path>
</svg>
