<svg xmlns="http://www.w3.org/2000/svg" xmlns:xlink="http://www.w3.org/1999/xlink" width="48" height="48" viewBox="0 0 48 48" fill="none">
<path d="M44 12C44 7.58 40.42 4 36 4L12 4C7.58 4 4 7.58 4 12L4 14L44 14L44 12ZM44 36L44 18L4 18L4 36C4 40.42 7.58 44 12 44L36 44C40.42 44 44 40.42 44 36ZM36.29 24.58C36.29 24.58 35.45 23.49 34.24 22.86C34.24 22.86 33.02 22.23 31.46 22.23C31.46 22.23 29.87 22.23 28.65 22.86C28.65 22.86 27.42 23.49 26.59 24.58C26.59 24.58 25.75 25.67 25.33 27.14C25.33 27.14 24.9 28.6 24.9 30.26C24.9 30.26 24.9 31.91 25.39 33.38C25.39 33.38 25.88 34.85 26.74 35.94C26.74 35.94 27.6 37.03 28.81 37.66C28.81 37.66 30.02 38.3 31.46 38.3C31.46 38.3 33.02 38.3 34.24 37.66C34.24 37.66 35.45 37.03 36.29 35.94C36.29 35.94 37.13 34.85 37.56 33.38C37.56 33.38 37.99 31.91 37.99 30.26C37.99 30.26 37.99 28.6 37.56 27.14C37.56 27.14 37.13 25.67 36.29 24.58ZM17.7 29.44C17.7 29.44 17.08 29.75 16.29 30.07C16.29 30.07 15.5 30.38 14.67 30.77C14.67 30.77 13.84 31.16 13.05 31.65C13.05 31.65 12.26 32.15 11.64 32.86C11.64 32.86 11.02 33.57 10.64 34.52C10.64 34.52 10.26 35.46 10.26 36.74L10.26 38.09L22.68 38.09L22.68 35.08L14.29 35.06C14.29 35.06 14.29 34.63 14.65 34.33C14.65 34.33 15.01 34.02 15.61 33.76C15.61 33.76 16.2 33.5 16.96 33.25C16.96 33.25 17.71 32.99 18.5 32.66C18.5 32.66 19.28 32.33 20.03 31.9C20.03 31.9 20.79 31.46 21.38 30.85C21.38 30.85 21.98 30.24 22.34 29.41C22.34 29.41 22.7 28.58 22.7 27.45C22.7 27.45 22.7 26.35 22.3 25.41C22.3 25.41 21.91 24.46 21.12 23.77C21.12 23.77 20.34 23.08 19.17 22.68C19.17 22.68 18 22.28 16.45 22.28C16.45 22.28 15.23 22.28 14.11 22.6C14.11 22.6 13 22.91 12.15 23.57C12.15 23.57 11.3 24.23 10.81 25.23C10.81 25.23 10.31 26.23 10.31 27.59L14.06 27.56C14.06 27.56 14.06 27.04 14.26 26.69C14.26 26.69 14.45 26.33 14.79 26.11C14.79 26.11 15.12 25.88 15.56 25.79C15.56 25.79 16 25.69 16.47 25.69C16.47 25.69 17.26 25.69 17.77 25.86C17.77 25.86 18.27 26.03 18.56 26.33C18.56 26.33 18.85 26.62 18.96 27.02C18.96 27.02 19.08 27.41 19.08 27.88C19.08 27.88 19.08 28.39 18.7 28.76C18.7 28.76 18.32 29.12 17.7 29.44ZM33.9 26.65C33.51 25.94 32.91 25.52 32.91 25.52C32.3 25.11 31.46 25.11 31.46 25.11C30.59 25.11 29.98 25.52 29.98 25.52C29.37 25.94 28.98 26.65 28.98 26.65C28.59 27.36 28.41 28.29 28.41 28.29C28.23 29.21 28.23 30.24 28.23 30.24C28.23 31.27 28.41 32.2 28.41 32.2C28.59 33.14 28.98 33.84 28.98 33.84C29.37 34.54 29.98 34.97 29.98 34.97C30.59 35.39 31.46 35.39 31.46 35.39C32.3 35.39 32.91 34.97 32.91 34.97C33.51 34.54 33.9 33.84 33.9 33.84C34.28 33.14 34.46 32.2 34.46 32.2C34.64 31.27 34.64 30.24 34.64 30.24C34.64 29.21 34.46 28.29 34.46 28.29C34.28 27.36 33.9 26.65 33.9 26.65Z" fill-rule="evenodd"  fill="#000000" >
</path>
</svg>
