<svg xmlns="http://www.w3.org/2000/svg" xmlns:xlink="http://www.w3.org/1999/xlink" width="48" height="48" viewBox="0 0 48 48" fill="none">
<path d="M44 36L44 18L4 18L4 36C4 40.42 7.58 44 12 44L36 44C40.42 44 44 40.42 44 36ZM44 12C44 7.58 40.42 4 36 4L12 4C7.58 4 4 7.58 4 12L4 14L44 14L44 12ZM19.16 32.33C19.16 32.33 19.72 32.33 20.2 32.41C20.2 32.41 20.68 32.49 21.02 32.69C21.02 32.69 21.36 32.88 21.56 33.22C21.56 33.22 21.76 33.55 21.76 34.07C21.76 34.07 21.76 34.34 21.68 34.71C21.68 34.71 21.59 35.08 21.33 35.41C21.33 35.41 21.07 35.75 20.58 35.99C20.58 35.99 20.08 36.23 19.25 36.23C19.25 36.23 18.61 36.23 18.08 36.12C18.08 36.12 17.54 36.02 17.17 35.75C17.17 35.75 16.79 35.48 16.58 35.04C16.58 35.04 16.37 34.59 16.37 33.95L12.63 33.93C12.63 33.93 12.63 35.39 13.16 36.38C13.16 36.38 13.69 37.38 14.56 38.01C14.56 38.01 15.44 38.63 16.6 38.9C16.6 38.9 17.76 39.18 19.02 39.18C19.02 39.18 20.57 39.18 21.75 38.81C21.75 38.81 22.93 38.45 23.74 37.8C23.74 37.8 24.55 37.15 24.96 36.24C24.96 36.24 25.37 35.33 25.37 34.25C25.37 34.25 25.37 33.5 25.11 32.88C25.11 32.88 24.85 32.27 24.45 31.82C24.45 31.82 24.04 31.37 23.57 31.11C23.57 31.11 23.11 30.85 22.67 30.78C22.67 30.78 23.09 30.78 23.54 30.61C23.54 30.61 23.99 30.44 24.36 30.07C24.36 30.07 24.73 29.7 24.96 29.11C24.96 29.11 25.19 28.53 25.19 27.7C25.19 27.7 25.19 26.73 24.8 25.88C24.8 25.88 24.4 25.04 23.62 24.42C23.62 24.42 22.84 23.81 21.68 23.46C21.68 23.46 20.51 23.11 18.97 23.11C18.97 23.11 17.85 23.11 16.75 23.36C16.75 23.36 15.65 23.61 14.77 24.17C14.77 24.17 13.89 24.73 13.35 25.63C13.35 25.63 12.81 26.53 12.81 27.83L16.55 27.81C16.55 27.81 16.55 27.34 16.75 27.02C16.75 27.02 16.95 26.71 17.28 26.51C17.28 26.51 17.62 26.31 18.06 26.22C18.06 26.22 18.5 26.13 18.97 26.13C18.97 26.13 19.76 26.13 20.26 26.32C20.26 26.32 20.77 26.51 21.05 26.81C21.05 26.81 21.34 27.11 21.46 27.44C21.46 27.44 21.58 27.77 21.58 28.08C21.58 28.08 21.58 29.07 20.93 29.42C20.93 29.42 20.28 29.77 19.16 29.75L17.02 29.75L17.02 32.33L19.16 32.33ZM31.1 24.25C31.1 24.25 30.98 24.6 30.72 24.95C30.72 24.95 30.46 25.29 29.99 25.54C29.99 25.54 29.52 25.79 28.77 25.79L27.67 25.79L27.67 28.53L30.89 28.53L30.89 39.13L34.22 39.13L34.22 23.7L31.29 23.7C31.29 23.7 31.22 23.9 31.1 24.25Z" fill-rule="evenodd"  fill="#000000" >
</path>
</svg>
