<svg xmlns="http://www.w3.org/2000/svg" xmlns:xlink="http://www.w3.org/1999/xlink" width="48" height="48" viewBox="0 0 48 48" fill="none">
<path d="M44 12C44 7.58 40.42 4 36 4L12 4C7.58 4 4 7.58 4 12L4 14L44 14L44 12ZM44 36L44 18L4 18L4 36C4 40.42 7.58 44 12 44L36 44C40.42 44 44 40.42 44 36ZM30.78 31.73C30.78 31.73 31.26 30.38 31.84 29.31C31.84 29.31 32.41 28.24 32.92 27.48C32.92 27.48 33.42 26.73 33.78 26.32C33.78 26.32 34.14 25.92 34.2 25.92L34.2 22.66L22.71 22.66L22.71 25.92L30.9 25.92C30.9 25.92 30.63 25.92 30.15 26.35C30.15 26.35 29.66 26.78 29.07 27.57C29.07 27.57 28.49 28.37 27.88 29.47C27.88 29.47 27.27 30.58 26.77 31.92C26.77 31.92 26.28 33.26 25.97 34.8C25.97 34.8 25.66 36.34 25.68 38.01L29.64 38.01C29.64 38.01 29.64 36.25 29.97 34.67C29.97 34.67 30.29 33.08 30.78 31.73ZM17.34 22.7C17.34 22.7 17.27 22.89 17.15 23.24C17.15 23.24 17.03 23.6 16.77 23.94C16.77 23.94 16.51 24.28 16.04 24.53C16.04 24.53 15.57 24.78 14.82 24.78L13.72 24.78L13.72 27.52L16.94 27.52L16.94 38.12L20.27 38.12L20.27 22.7L17.34 22.7Z" fill-rule="evenodd"  fill="#000000" >
</path>
</svg>
