<svg xmlns="http://www.w3.org/2000/svg" xmlns:xlink="http://www.w3.org/1999/xlink" width="48" height="48" viewBox="0 0 48 48" fill="none">
<path d="M44 12C44 7.58 40.42 4 36 4L12 4C7.58 4 4 7.58 4 12L4 14L44 14L44 12ZM44 36L44 18L4 18L4 36C4 40.42 7.58 44 12 44L36 44C40.42 44 44 40.42 44 36ZM28.61 23.41C28.61 23.41 27.73 22.52 26.53 22.14C26.53 22.14 25.32 21.76 23.92 21.76C23.92 21.76 22.49 21.76 21.33 22.15C21.33 22.15 20.17 22.53 19.34 23.24C19.34 23.24 18.5 23.94 18.04 24.93C18.04 24.93 17.58 25.92 17.58 27.14C17.58 27.14 17.58 28.13 17.84 29.1C17.84 29.1 18.1 30.08 18.8 30.85C18.8 30.85 19.51 31.62 20.72 32.09C20.72 32.09 21.94 32.56 23.83 32.56C23.83 32.56 24.62 32.56 25.19 32.43C25.19 32.43 25.77 32.29 26.18 32.04C26.18 32.04 26.6 31.79 26.89 31.43C26.89 31.43 27.17 31.08 27.37 30.63C27.37 30.63 27.35 31.75 27.16 32.58C27.16 32.58 26.96 33.41 26.53 33.96C26.53 33.96 26.09 34.5 25.42 34.78C25.42 34.78 24.74 35.06 23.77 35.06C23.77 35.06 23.14 35.06 22.59 34.96C22.59 34.96 22.04 34.86 21.63 34.66C21.63 34.66 21.22 34.45 20.96 34.13C20.96 34.13 20.71 33.8 20.68 33.33L17.65 33.33C17.65 33.33 17.74 35.57 19.36 36.71C19.36 36.71 20.98 37.85 23.81 37.83C23.81 37.83 25.32 37.83 26.55 37.4C26.55 37.4 27.79 36.97 28.67 35.99C28.67 35.99 29.55 35.01 30.03 33.41C30.03 33.41 30.5 31.8 30.5 29.43C30.5 29.43 30.5 27.23 30 25.76C30 25.76 29.5 24.3 28.61 23.41ZM26.16 25.07C25.73 24.71 25.18 24.51 25.18 24.51C24.62 24.32 23.97 24.32 23.97 24.32C23.25 24.32 22.65 24.51 22.65 24.51C22.04 24.71 21.61 25.07 21.61 25.07C21.18 25.43 20.94 25.92 20.94 25.92C20.69 26.4 20.69 27 20.69 27C20.69 28.46 21.6 29.1 21.6 29.1C22.51 29.75 23.97 29.75 23.97 29.75C24.62 29.75 25.18 29.6 25.18 29.6C25.73 29.45 26.15 29.1 26.15 29.1C26.56 28.76 26.81 28.24 26.81 28.24C27.05 27.72 27.05 27 27.05 27C27.05 26.4 26.81 25.92 26.81 25.92C26.58 25.43 26.16 25.07 26.16 25.07Z" fill-rule="evenodd"  fill="#000000" >
</path>
</svg>
