<svg xmlns="http://www.w3.org/2000/svg" xmlns:xlink="http://www.w3.org/1999/xlink" width="48" height="48" viewBox="0 0 48 48" fill="none">
<path d="M44 12C44 7.58 40.42 4 36 4L12 4C7.58 4 4 7.58 4 12L4 14L44 14L44 12ZM44 36L44 18L4 18L4 36C4 40.42 7.58 44 12 44L36 44C40.42 44 44 40.42 44 36ZM36.06 23.81C36.06 23.81 35.18 22.92 33.97 22.54C33.97 22.54 32.77 22.16 31.36 22.16C31.36 22.16 29.94 22.16 28.78 22.55C28.78 22.55 27.62 22.93 26.78 23.64C26.78 23.64 25.94 24.34 25.48 25.33C25.48 25.33 25.03 26.32 25.03 27.54C25.03 27.54 25.03 28.53 25.29 29.5C25.29 29.5 25.55 30.48 26.25 31.25C26.25 31.25 26.95 32.02 28.17 32.49C28.17 32.49 29.38 32.96 31.27 32.96C31.27 32.96 32.06 32.96 32.64 32.83C32.64 32.83 33.22 32.69 33.63 32.44C33.63 32.44 34.04 32.19 34.33 31.83C34.33 31.83 34.62 31.48 34.82 31.03C34.82 31.03 34.8 32.15 34.6 32.98C34.6 32.98 34.4 33.81 33.97 34.35C33.97 34.35 33.54 34.9 32.87 35.18C32.87 35.18 32.19 35.46 31.22 35.46C31.22 35.46 30.59 35.46 30.04 35.36C30.04 35.36 29.49 35.26 29.08 35.06C29.08 35.06 28.66 34.85 28.41 34.53C28.41 34.53 28.16 34.2 28.12 33.73L25.1 33.73C25.1 33.73 25.19 35.97 26.81 37.11C26.81 37.11 28.43 38.25 31.25 38.23C31.25 38.23 32.77 38.23 34 37.8C34 37.8 35.23 37.37 36.11 36.39C36.11 36.39 37 35.41 37.47 33.81C37.47 33.81 37.95 32.2 37.95 29.83C37.95 29.83 37.95 27.63 37.45 26.16C37.45 26.16 36.94 24.7 36.06 23.81ZM17.57 29.44C17.57 29.44 16.95 29.76 16.16 30.07C16.16 30.07 15.37 30.39 14.54 30.77C14.54 30.77 13.71 31.16 12.92 31.66C12.92 31.66 12.13 32.15 11.51 32.86C11.51 32.86 10.89 33.57 10.51 34.52C10.51 34.52 10.13 35.46 10.13 36.74L10.13 38.09L22.55 38.09L22.55 35.08L14.16 35.07C14.16 35.07 14.16 34.63 14.52 34.33C14.52 34.33 14.88 34.02 15.48 33.76C15.48 33.76 16.07 33.5 16.83 33.25C16.83 33.25 17.58 33 18.37 32.66C18.37 32.66 19.15 32.33 19.9 31.9C19.9 31.9 20.66 31.47 21.25 30.85C21.25 30.85 21.85 30.24 22.21 29.41C22.21 29.41 22.57 28.59 22.57 27.45C22.57 27.45 22.57 26.35 22.17 25.41C22.17 25.41 21.78 24.46 20.99 23.77C20.99 23.77 20.21 23.08 19.04 22.68C19.04 22.68 17.87 22.29 16.32 22.29C16.32 22.29 15.1 22.29 13.98 22.6C13.98 22.6 12.87 22.92 12.02 23.57C12.02 23.57 11.17 24.23 10.68 25.23C10.68 25.23 10.18 26.23 10.18 27.6L13.93 27.56C13.93 27.56 13.93 27.04 14.13 26.69C14.13 26.69 14.32 26.34 14.66 26.11C14.66 26.11 14.99 25.89 15.43 25.79C15.43 25.79 15.87 25.69 16.34 25.69C16.34 25.69 17.13 25.69 17.64 25.86C17.64 25.86 18.14 26.03 18.43 26.33C18.43 26.33 18.72 26.62 18.83 27.02C18.83 27.02 18.95 27.42 18.95 27.88C18.95 27.88 18.95 28.39 18.57 28.76C18.57 28.76 18.19 29.13 17.57 29.44ZM33.6 25.47C33.18 25.11 32.62 24.91 32.62 24.91C32.06 24.72 31.42 24.72 31.42 24.72C30.7 24.72 30.09 24.91 30.09 24.91C29.49 25.11 29.06 25.47 29.06 25.47C28.63 25.83 28.38 26.32 28.38 26.32C28.14 26.8 28.14 27.4 28.14 27.4C28.14 28.86 29.05 29.5 29.05 29.5C29.96 30.15 31.42 30.15 31.42 30.15C32.06 30.15 32.62 30 32.62 30C33.18 29.85 33.59 29.5 33.59 29.5C34.01 29.16 34.25 28.64 34.25 28.64C34.49 28.12 34.49 27.4 34.49 27.4C34.49 26.8 34.26 26.32 34.26 26.32C34.03 25.83 33.6 25.47 33.6 25.47Z" fill-rule="evenodd"  fill="#000000" >
</path>
</svg>
