<svg xmlns="http://www.w3.org/2000/svg" xmlns:xlink="http://www.w3.org/1999/xlink" width="48" height="48" viewBox="0 0 48 48" fill="none">
<path d="M3.71 10.47C3.28 10.84 3 11.39 3 12C3 13.1 3.9 14 5 14C5.5 14 5.96 13.82 6.31 13.51L13.29 7.53C13.72 7.16 14 6.61 14 6C14 4.9 13.1 4 12 4C11.5 4 11.04 4.18 10.69 4.49L3.71 10.47ZM36 4C34.9 4 34 4.9 34 6C34 6.61 34.28 7.16 34.71 7.53L41.69 13.51C42.04 13.82 42.5 14 43 14C44.1 14 45 13.1 45 12C45 11.39 44.72 10.84 44.29 10.47L37.31 4.49C36.96 4.18 36.5 4 36 4ZM24 45C34.49 45 43 36.49 43 26C43 15.51 34.49 7 24 7C13.51 7 5 15.51 5 26C5 36.49 13.51 45 24 45ZM22 16L22 27.77C22 29.26 22.74 30 24.23 30C24.7 30 25.15 29.9 25.56 29.69L30.83 27.05C31.52 26.73 32 26.04 32 25.23C32 24.13 31.1 23.23 30 23.23C29.68 23.23 29.37 23.31 29.1 23.44L26 25L26 16C26 14.9 25.11 14 24 14C22.9 14 22 14.9 22 16Z" fill-rule="evenodd"  fill="#000000" >
</path>
</svg>
