<svg xmlns="http://www.w3.org/2000/svg" xmlns:xlink="http://www.w3.org/1999/xlink" width="48" height="48" viewBox="0 0 48 48" fill="none">
<path d="M24 45C35.6 45 45 35.6 45 24C45 12.4 35.6 3 24 3C12.4 3 3 12.4 3 24C3 35.6 12.4 45 24 45ZM24 11C22.9 11 22 11.9 22 13L22 25.75C22 26.99 23.01 28 24.25 28L24.26 28C24.73 28 25.18 27.89 25.6 27.68L31.35 24.81C32.03 24.49 32.5 23.8 32.5 23C32.5 21.9 31.6 21 30.5 21C30.16 21 29.85 21.08 29.57 21.23L26 23.01L26 13C26 11.9 25.11 11 24 11Z" fill-rule="evenodd"  fill="#000000" >
</path>
</svg>
