<svg xmlns="http://www.w3.org/2000/svg" xmlns:xlink="http://www.w3.org/1999/xlink" width="48" height="48" viewBox="0 0 48 48" fill="none">
<path d="M17.01 7.5C17.01 7.99 17.19 8.44 17.48 8.79L20.15 12L19 12C16.03 12 13.56 14.16 13.08 17L12.5 17C11.12 17 10 15.88 10 14.5L10 10C10 8.9 9.1 8 8 8C6.9 8 6 8.9 6 10L6 14.5C6 18.09 8.91 21 12.5 21L13 21L13 23L6 23C4.9 23 4 23.9 4 25C4 26.1 4.9 27 6 27L13 27L13 29L12.51 29C8.92 29 6.01 31.91 6.01 35.5L6.01 40C6.01 41.1 6.91 42 8.01 42C9.11 42 10.01 41.1 10.01 40L10.01 35.5C10.01 34.12 11.13 33 12.51 33L13.41 33C14.72 37.62 18.96 41 24 41C29.04 41 33.28 37.62 34.59 33L35.51 33C36.89 33 38.01 34.12 38.01 35.5L38.01 40C38.01 41.1 38.91 42 40.01 42C41.11 42 42.01 41.1 42.01 40L42.01 35.5C42.01 31.91 39.1 29 35.51 29L35 29L35 27L42 27C43.1 27 44 26.1 44 25C44 23.9 43.1 23 42 23L35 23L35 21L35.5 21C39.09 21 42 18.09 42 14.5L42 10C42 8.9 41.1 8 40 8C38.9 8 38 8.9 38 10L38 14.5C38 15.88 36.88 17 35.5 17L34.92 17C34.44 14.16 31.97 12 29 12L27.86 12L30.54 8.79C30.83 8.44 31.01 7.99 31.01 7.5C31.01 6.4 30.11 5.5 29.01 5.5C28.39 5.5 27.83 5.78 27.46 6.23L24.01 10.38L20.56 6.23C20.19 5.78 19.63 5.5 19.01 5.5C17.91 5.5 17.01 6.4 17.01 7.5Z" fill-rule="evenodd"  fill="#000000" >
</path>
</svg>
