<svg xmlns="http://www.w3.org/2000/svg" xmlns:xlink="http://www.w3.org/1999/xlink" width="48" height="48" viewBox="0 0 48 48" fill="none">
<path d="M8 11C8 14.17 10.11 16.85 13 17.71L13 30.29C10.11 31.15 8 33.83 8 37C8 40.87 11.13 44 15 44C18.87 44 22 40.87 22 37C22 33.83 19.89 31.15 17 30.29L17 26L30 26C33.31 26 36 23.31 36 20L36 17.71C38.89 16.85 41 14.17 41 11C41 7.13 37.87 4 34 4C30.13 4 27 7.13 27 11C27 14.17 29.11 16.85 32 17.71L32 20C32 21.1 31.1 22 30 22L17 22L17 17.71C19.89 16.85 22 14.17 22 11C22 7.13 18.87 4 15 4C11.13 4 8 7.13 8 11Z" fill-rule="evenodd"  fill="#000000" >
</path>
</svg>
