<svg xmlns="http://www.w3.org/2000/svg" xmlns:xlink="http://www.w3.org/1999/xlink" width="48" height="48" viewBox="0 0 48 48" fill="none">
<path d="M6 11L6 40C6 41.05 6.31 42.07 6.93 43.06C8.15 45.02 10.18 46 13 46L38 46C40.21 46 42 44.21 42 42L42 7C42 4.79 40.21 3 38 3L14 3C9.58 3 6 6.58 6 11ZM18 20.25L20.42 21.75C22.41 23 25 21.56 25 19.2L25 9C25 7.9 24.1 7 23 7L13 7C11.9 7 11 7.9 11 9L11 19.2C11 21.55 13.59 22.99 15.58 21.75L15.59 21.75L18 20.25ZM13 38C11 38 10 38.67 10 40C10 41.33 11 42 13 42L38 42L38 38L13 38Z" fill-rule="evenodd"  fill="#000000" >
</path>
</svg>
