<svg xmlns="http://www.w3.org/2000/svg" xmlns:xlink="http://www.w3.org/1999/xlink" width="48" height="48" viewBox="0 0 48 48" fill="none">
<path d="M41.96 24.39C41.97 24.33 41.98 24.26 41.99 24.2C42 24.13 42 24.07 42 24C42 23.93 42 23.87 41.99 23.8C41.98 23.74 41.97 23.67 41.96 23.61C41.95 23.55 41.93 23.48 41.91 23.42C41.89 23.36 41.87 23.3 41.85 23.23C41.82 23.17 41.79 23.11 41.76 23.06C41.73 23 41.7 22.94 41.66 22.89C41.63 22.83 41.59 22.78 41.55 22.73C41.5 22.68 41.46 22.63 41.41 22.59C41.37 22.54 41.32 22.5 41.27 22.45C41.22 22.41 41.17 22.37 41.11 22.34C41.06 22.3 41 22.27 40.94 22.24C40.89 22.21 40.83 22.18 40.77 22.15C40.7 22.13 40.64 22.11 40.58 22.09C40.52 22.07 40.45 22.05 40.39 22.04C40.33 22.03 40.26 22.02 40.2 22.01C40.13 22 40.07 22 40 22L26 22L26 8C26 7.93 26 7.87 25.99 7.8C25.98 7.74 25.97 7.67 25.96 7.61C25.95 7.55 25.93 7.48 25.91 7.42C25.89 7.36 25.87 7.3 25.85 7.23C25.82 7.17 25.79 7.11 25.76 7.06C25.73 7 25.7 6.94 25.66 6.89C25.63 6.83 25.59 6.78 25.55 6.73C25.5 6.68 25.46 6.63 25.41 6.59C25.37 6.54 25.32 6.5 25.27 6.45C25.22 6.41 25.17 6.37 25.11 6.34C25.06 6.3 25 6.27 24.94 6.24C24.89 6.21 24.83 6.18 24.77 6.15C24.7 6.13 24.64 6.11 24.58 6.09C24.52 6.07 24.45 6.05 24.39 6.04C24.33 6.03 24.26 6.02 24.2 6.01C24.13 6 24.07 6 24 6C23.93 6 23.87 6 23.8 6.01C23.74 6.02 23.67 6.03 23.61 6.04C23.55 6.05 23.48 6.07 23.42 6.09C23.36 6.11 23.3 6.13 23.23 6.15C23.17 6.18 23.11 6.21 23.06 6.24C23 6.27 22.94 6.3 22.89 6.34C22.83 6.37 22.78 6.41 22.73 6.45C22.68 6.5 22.63 6.54 22.59 6.59C22.54 6.63 22.5 6.68 22.45 6.73C22.41 6.78 22.37 6.83 22.34 6.89C22.3 6.94 22.27 7 22.24 7.06C22.21 7.11 22.18 7.17 22.15 7.23C22.13 7.3 22.11 7.36 22.09 7.42C22.07 7.48 22.05 7.55 22.04 7.61C22.03 7.67 22.02 7.74 22.01 7.8C22 7.87 22 7.93 22 8L22 22L8 22C7.93 22 7.87 22 7.8 22.01C7.74 22.02 7.67 22.03 7.61 22.04C7.55 22.05 7.48 22.07 7.42 22.09C7.36 22.11 7.3 22.13 7.23 22.15C7.17 22.18 7.11 22.21 7.06 22.24C7 22.27 6.94 22.3 6.89 22.34C6.83 22.37 6.78 22.41 6.73 22.45C6.68 22.5 6.63 22.54 6.59 22.59C6.54 22.63 6.5 22.68 6.45 22.73C6.41 22.78 6.37 22.83 6.34 22.89C6.3 22.94 6.27 23 6.24 23.06C6.21 23.11 6.18 23.17 6.15 23.23C6.13 23.3 6.11 23.36 6.09 23.42C6.07 23.48 6.05 23.55 6.04 23.61C6.03 23.67 6.02 23.74 6.01 23.8C6 23.87 6 23.93 6 24C6 24.07 6 24.13 6.01 24.2C6.02 24.26 6.03 24.33 6.04 24.39C6.05 24.45 6.07 24.52 6.09 24.58C6.11 24.64 6.13 24.7 6.15 24.77C6.18 24.83 6.21 24.89 6.24 24.94C6.27 25 6.3 25.06 6.34 25.11C6.37 25.17 6.41 25.22 6.45 25.27C6.5 25.32 6.54 25.37 6.59 25.41C6.63 25.46 6.68 25.5 6.73 25.55C6.78 25.59 6.83 25.63 6.89 25.66C6.94 25.7 7 25.73 7.06 25.76C7.11 25.79 7.17 25.82 7.23 25.85C7.3 25.87 7.36 25.89 7.42 25.91C7.48 25.93 7.55 25.95 7.61 25.96C7.67 25.97 7.74 25.98 7.8 25.99C7.87 26 7.93 26 8 26L22 26L22 40C22 40.07 22 40.13 22.01 40.2C22.02 40.26 22.03 40.33 22.04 40.39C22.05 40.45 22.07 40.52 22.09 40.58C22.11 40.64 22.13 40.7 22.15 40.77C22.18 40.83 22.21 40.89 22.24 40.94C22.27 41 22.3 41.06 22.34 41.11C22.37 41.17 22.41 41.22 22.45 41.27C22.5 41.32 22.54 41.37 22.59 41.41C22.63 41.46 22.68 41.5 22.73 41.55C22.78 41.59 22.83 41.63 22.89 41.66C22.94 41.7 23 41.73 23.06 41.76C23.11 41.79 23.17 41.82 23.23 41.85C23.3 41.87 23.36 41.89 23.42 41.91C23.48 41.93 23.55 41.95 23.61 41.96C23.67 41.97 23.74 41.98 23.8 41.99C23.87 42 23.93 42 24 42C24.07 42 24.13 42 24.2 41.99C24.26 41.98 24.33 41.97 24.39 41.96C24.45 41.95 24.52 41.93 24.58 41.91C24.64 41.89 24.7 41.87 24.77 41.85C24.83 41.82 24.89 41.79 24.94 41.76C25 41.73 25.06 41.7 25.11 41.66C25.17 41.63 25.22 41.59 25.27 41.55C25.32 41.5 25.37 41.46 25.41 41.41C25.46 41.37 25.5 41.32 25.55 41.27C25.59 41.22 25.63 41.17 25.66 41.11C25.7 41.06 25.73 41 25.76 40.94C25.79 40.89 25.82 40.83 25.85 40.77C25.87 40.7 25.89 40.64 25.91 40.58C25.93 40.52 25.95 40.45 25.96 40.39C25.97 40.33 25.98 40.26 25.99 40.2C26 40.13 26 40.07 26 40L26 26L40 26C40.07 26 40.13 26 40.2 25.99C40.26 25.98 40.33 25.97 40.39 25.96C40.45 25.95 40.52 25.93 40.58 25.91C40.64 25.89 40.7 25.87 40.77 25.85C40.83 25.82 40.89 25.79 40.94 25.76C41 25.73 41.06 25.7 41.11 25.66C41.17 25.63 41.22 25.59 41.27 25.55C41.32 25.5 41.37 25.46 41.41 25.41C41.46 25.37 41.5 25.32 41.55 25.27C41.59 25.22 41.63 25.17 41.66 25.11C41.7 25.06 41.73 25 41.76 24.94C41.79 24.89 41.82 24.83 41.85 24.77C41.87 24.7 41.89 24.64 41.91 24.58C41.93 24.52 41.95 24.45 41.96 24.39Z"   fill="#000000" >
</path>
</svg>
