<svg xmlns="http://www.w3.org/2000/svg" xmlns:xlink="http://www.w3.org/1999/xlink" width="48" height="48" viewBox="0 0 48 48" fill="none">
<path d="M24.0005 3.00049C12.4005 3.00049 3.00049 12.4005 3.00049 24.0005C3.00049 35.6005 12.4005 45.0005 24.0005 45.0005C35.6005 45.0005 45.0005 35.6005 45.0005 24.0005C45.0005 12.4005 35.6005 3.00049 24.0005 3.00049ZM10.0105 33.6605C10.1905 30.5105 12.8005 28.0005 16.0005 28.0005L31.0005 28.0005C34.3105 28.0005 37.0005 30.6905 37.0005 34.0005L37.0005 34.9605C39.5005 32.0005 41.0005 28.1705 41.0005 24.0005C41.0005 14.6105 33.3905 7.00049 24.0005 7.00049C14.6105 7.00049 7.00049 14.6105 7.00049 24.0005C7.00049 27.5905 8.11049 30.9205 10.0105 33.6605ZM16.0005 18.0005C16.0005 22.4205 19.5805 26.0005 24.0005 26.0005C28.4205 26.0005 32.0005 22.4205 32.0005 18.0005C32.0005 13.5805 28.4205 10.0005 24.0005 10.0005C19.5805 10.0005 16.0005 13.5805 16.0005 18.0005ZM28.0005 18.0005C28.0005 15.7905 26.2105 14.0005 24.0005 14.0005C21.7905 14.0005 20.0005 15.7905 20.0005 18.0005C20.0005 20.2105 21.7905 22.0005 24.0005 22.0005C26.2105 22.0005 28.0005 20.2105 28.0005 18.0005ZM33.0005 34.0005C33.0005 32.9005 32.1005 32.0005 31.0005 32.0005L16.0005 32.0005C14.9005 32.0005 14.0005 32.9005 14.0005 34.0005L14.0005 37.7505C16.8105 39.7905 20.2605 41.0005 24.0005 41.0005C27.3205 41.0005 30.4205 40.0505 33.0405 38.4005C33.0105 38.2705 33.0005 38.1405 33.0005 38.0005L33.0005 34.0005Z" fill-rule="evenodd"  fill="#000000" >
</path>
</svg>
