<svg xmlns="http://www.w3.org/2000/svg" xmlns:xlink="http://www.w3.org/1999/xlink" width="48" height="48" viewBox="0 0 48 48" fill="none">
<path d="M33.6 21.09C34.7 21.09 35.6 20.2 35.6 19.09L35.6 13.88C35.6 7.92 30.76 3 24.8 3C18.79 3 14 7.87 14 13.88L14 19.09C14 20.2 14.9 21.09 16 21.09C17.1 21.09 18 20.2 18 19.09L18 13.88C18 10.08 21 7 24.8 7C28.56 7 31.6 10.12 31.6 13.88L31.6 19.09C31.6 20.2 32.5 21.09 33.6 21.09ZM30.14 26C30.14 24.9 29.24 24 28.14 24L9 24C7.9 24 7 24.9 7 26C7 27.1 7.9 28 9 28L28.14 28C29.24 28 30.14 27.1 30.14 26ZM40 28C41.11 28 42 27.1 42 26C42 24.9 41.11 24 40 24L34.26 24C33.16 24 32.26 24.9 32.26 26C32.26 27.1 33.16 28 34.26 28L40 28ZM25.35 34C25.35 32.9 24.46 32 23.35 32L9 32C7.9 32 7 32.9 7 34C7 35.1 7.9 36 9 36L23.35 36C24.46 36 25.35 35.1 25.35 34ZM42 34C42 32.9 41.11 32 40 32L29.48 32C28.38 32 27.48 32.9 27.48 34C27.48 35.1 28.38 36 29.48 36L40 36C41.11 36 42 35.1 42 34ZM19.47 42C19.47 40.9 18.57 40 17.47 40L9 40C7.9 40 7 40.9 7 42C7 43.1 7.9 44 9 44L17.47 44C18.57 44 19.47 43.1 19.47 42ZM42 42C42 40.9 41.11 40 40 40L23.67 40C22.57 40 21.67 40.9 21.67 42C21.67 43.1 22.57 44 23.67 44L40 44C41.11 44 42 43.1 42 42Z" fill-rule="evenodd"  fill="#000000" >
</path>
</svg>
