<svg xmlns="http://www.w3.org/2000/svg" xmlns:xlink="http://www.w3.org/1999/xlink" width="48" height="48" viewBox="0 0 48 48" fill="none">
<path d="M24.0005 3.00049C12.4005 3.00049 3.00049 12.4005 3.00049 24.0005C3.00049 35.6005 12.4005 45.0005 24.0005 45.0005C35.6005 45.0005 45.0005 35.6005 45.0005 24.0005C45.0005 12.4005 35.6005 3.00049 24.0005 3.00049ZM24.0005 41.0005C33.3905 41.0005 41.0005 33.3905 41.0005 24.0005C41.0005 14.6105 33.3905 7.00049 24.0005 7.00049C14.6105 7.00049 7.00049 14.6105 7.00049 24.0005C7.00049 33.3905 14.6105 41.0005 24.0005 41.0005ZM21.0005 21.5005C22.1005 21.5005 23.0005 20.6005 23.0005 19.5005L23.0005 18.5005C23.0005 15.4605 20.5405 13.0005 17.5005 13.0005C14.4605 13.0005 12.0005 15.4605 12.0005 18.5005L12.0005 29.5005C12.0005 29.5805 12.0005 29.6705 12.0205 29.7505C12.0005 29.8305 12.0005 29.9105 12.0005 30.0005C12.0005 33.0405 14.4605 35.5005 17.5005 35.5005C20.5405 35.5005 23.0005 33.0405 23.0005 30.0005C23.0005 29.9105 22.9905 29.8305 22.9805 29.7505C22.9905 29.6705 23.0005 29.5805 23.0005 29.5005L23.0005 28.5005C23.0005 27.4005 22.1005 26.5005 21.0005 26.5005C19.9005 26.5005 19.0005 27.4005 19.0005 28.5005L19.0005 29.5005C19.0005 29.5805 19.0005 29.6705 19.0205 29.7505C19.0005 29.8305 19.0005 29.9105 19.0005 30.0005C19.0005 30.8305 18.3305 31.5005 17.5005 31.5005C16.6705 31.5005 16.0005 30.8305 16.0005 30.0005C16.0005 29.9105 15.9905 29.8305 15.9805 29.7505C15.9905 29.6705 16.0005 29.5805 16.0005 29.5005L16.0005 18.5005C16.0005 17.6705 16.6705 17.0005 17.5005 17.0005C18.3305 17.0005 19.0005 17.6705 19.0005 18.5005L19.0005 19.5005C19.0005 20.6005 19.9005 21.5005 21.0005 21.5005ZM32.0005 19.5005C32.0005 20.6005 32.9005 21.5005 34.0005 21.5005C35.1005 21.5005 36.0005 20.6005 36.0005 19.5005L36.0005 18.5005C36.0005 15.4605 33.5405 13.0005 30.5005 13.0005C27.4605 13.0005 25.0005 15.4605 25.0005 18.5005L25.0005 29.5005C25.0005 29.5805 25.0005 29.6705 25.0205 29.7505C25.0005 29.8305 25.0005 29.9105 25.0005 30.0005C25.0005 33.0405 27.4605 35.5005 30.5005 35.5005C33.5405 35.5005 36.0005 33.0405 36.0005 30.0005C36.0005 29.9105 35.9905 29.8305 35.9805 29.7505C35.9905 29.6705 36.0005 29.5805 36.0005 29.5005L36.0005 28.5005C36.0005 27.4005 35.1005 26.5005 34.0005 26.5005C32.9005 26.5005 32.0005 27.4005 32.0005 28.5005L32.0005 29.5005C32.0005 29.5805 32.0005 29.6705 32.0205 29.7505C32.0005 29.8305 32.0005 29.9105 32.0005 30.0005C32.0005 30.8305 31.3305 31.5005 30.5005 31.5005C29.6705 31.5005 29.0005 30.8305 29.0005 30.0005C29.0005 29.9105 28.9905 29.8305 28.9805 29.7505C28.9905 29.6705 29.0005 29.5805 29.0005 29.5005L29.0005 18.5005C29.0005 17.6705 29.6705 17.0005 30.5005 17.0005C31.3305 17.0005 32.0005 17.6705 32.0005 18.5005L32.0005 19.5005Z" fill-rule="evenodd"  fill="#000000" >
</path>
</svg>
