<svg xmlns="http://www.w3.org/2000/svg" xmlns:xlink="http://www.w3.org/1999/xlink" width="48" height="48" viewBox="0 0 48 48" fill="none">
<path d="M44 12C44 7.58 40.42 4 36 4L12 4C7.58 4 4 7.58 4 12L4 36C4 40.42 7.58 44 12 44L36 44C40.42 44 44 40.42 44 36L44 12ZM36 8L12 8C9.79 8 8 9.79 8 12L8 36C8 38.21 9.79 40 12 40L36 40C38.21 40 40 38.21 40 36L40 12C40 9.79 38.21 8 36 8ZM26 29L34 29C36.21 29 38 27.21 38 25L38 19C38 16.79 36.21 15 34 15L26 15L26 12C26 10.9 25.1 10 24 10C22.9 10 22 10.9 22 12L22 15L14 15C11.79 15 10 16.79 10 19L10 25C10 27.21 11.79 29 14 29L22 29L22 36C22 37.1 22.9 38 24 38C25.1 38 26 37.1 26 36L26 29ZM34 25L34 19L26 19L26 25L34 25ZM14 19L14 25L22 25L22 19L14 19Z" fill-rule="evenodd"  fill="#000000" >
</path>
</svg>
