<svg xmlns="http://www.w3.org/2000/svg" xmlns:xlink="http://www.w3.org/1999/xlink" width="48" height="48" viewBox="0 0 48 48" fill="none">
<path d="M36 44C40.42 44 44 40.42 44 36L44 12C44 7.58 40.42 4 36 4L12 4C7.58 4 4 7.58 4 12L4 36C4 40.42 7.58 44 12 44L36 44ZM40 12C40 9.79 38.21 8 36 8L12 8C9.79 8 8 9.79 8 12L8 36C8 38.21 9.79 40 12 40L36 40C38.21 40 40 38.21 40 36L40 12ZM21 20.5C22.1 20.5 23 19.6 23 18.5C23 14.91 20.09 12 16.5 12C12.91 12 10 14.91 10 18.5C10 18.58 10.01 18.67 10.02 18.75C10.01 18.83 10 18.92 10 19L10 29C10 29.08 10.01 29.17 10.02 29.25C10.01 29.33 10 29.42 10 29.5C10 33.09 12.91 36 16.5 36C20.09 36 23 33.09 23 29.5C23 28.4 22.1 27.5 21 27.5C19.9 27.5 19 28.4 19 29.5C19 30.88 17.88 32 16.5 32C15.12 32 14 30.88 14 29.5C14 29.42 13.99 29.33 13.98 29.25C13.99 29.17 14 29.08 14 29L14 19C14 18.92 13.99 18.83 13.98 18.75C13.99 18.67 14 18.58 14 18.5C14 17.12 15.12 16 16.5 16C17.88 16 19 17.12 19 18.5C19 19.6 19.9 20.5 21 20.5ZM29 26.5C29 25.12 30.12 24 31.5 24C32.88 24 34 25.12 34 26.5L34 34C34 35.1 34.9 36 36 36C37.1 36 38 35.1 38 34L38 26C38 25.79 37.97 25.59 37.91 25.4C37.38 22.33 34.71 20 31.5 20C30.61 20 29.77 20.18 29 20.5L29 14C29 12.9 28.1 12 27 12C25.9 12 25 12.9 25 14L25 34C25 35.1 25.9 36 27 36C28.1 36 29 35.1 29 34L29 26.5Z" fill-rule="evenodd"  fill="#000000" >
</path>
</svg>
