<svg xmlns="http://www.w3.org/2000/svg" xmlns:xlink="http://www.w3.org/1999/xlink" width="48" height="48" viewBox="0 0 48 48" fill="none">
<path d="M15.83 4.65C13.31 5.71 11.09 7.21 9.15 9.15C7.21 11.09 5.71 13.31 4.65 15.83C3.55 18.43 3 21.15 3 24C3 26.85 3.55 29.57 4.65 32.17C5.71 34.69 7.21 36.91 9.15 38.85C11.09 40.79 13.31 42.29 15.83 43.35C18.43 44.45 21.15 45 24 45C26.85 45 29.57 44.45 32.17 43.35C34.69 42.29 36.91 40.79 38.85 38.85C40.79 36.91 42.29 34.69 43.35 32.17C44.45 29.57 45 26.85 45 24C45 21.15 44.45 18.43 43.35 15.83C42.29 13.31 40.79 11.09 38.85 9.15C36.91 7.21 34.69 5.71 32.17 4.65C29.57 3.55 26.85 3 24 3C21.15 3 18.43 3.55 15.83 4.65ZM39.66 30.61C40.55 28.51 41 26.31 41 24C41 21.69 40.55 19.49 39.66 17.39C38.8 15.35 37.59 13.55 36.02 11.98C34.45 10.41 32.65 9.2 30.61 8.34C28.51 7.45 26.31 7 24 7C21.69 7 19.49 7.45 17.39 8.34C15.35 9.2 13.55 10.41 11.98 11.98C10.41 13.55 9.2 15.35 8.34 17.39C7.45 19.49 7 21.69 7 24C7 26.31 7.45 28.51 8.34 30.61C9.2 32.65 10.41 34.45 11.98 36.02C13.55 37.59 15.35 38.8 17.39 39.66C19.49 40.55 21.69 41 24 41C26.31 41 28.51 40.55 30.61 39.66C32.65 38.8 34.45 37.59 36.02 36.02C37.59 34.45 38.8 32.65 39.66 30.61ZM15.5 30.5C15.5 30.57 15.5 30.63 15.51 30.7C15.52 30.76 15.53 30.83 15.54 30.89C15.55 30.95 15.57 31.02 15.59 31.08C15.61 31.14 15.63 31.21 15.65 31.27C15.68 31.33 15.71 31.39 15.74 31.44C15.77 31.5 15.8 31.56 15.84 31.61C15.87 31.67 15.91 31.72 15.95 31.77C16 31.82 16.04 31.87 16.09 31.91C16.13 31.96 16.18 32 16.23 32.05C16.28 32.09 16.33 32.13 16.39 32.16C16.44 32.2 16.5 32.23 16.56 32.26C16.62 32.29 16.67 32.32 16.73 32.35C16.8 32.37 16.86 32.39 16.92 32.41C16.98 32.43 17.05 32.45 17.11 32.46C17.17 32.47 17.24 32.48 17.3 32.49C17.37 32.5 17.43 32.5 17.5 32.5C17.57 32.5 17.63 32.5 17.7 32.49C17.76 32.48 17.83 32.47 17.89 32.46C17.95 32.45 18.02 32.43 18.08 32.41C18.14 32.39 18.2 32.37 18.27 32.35C18.33 32.32 18.39 32.29 18.44 32.26C18.5 32.23 18.56 32.2 18.61 32.16C18.67 32.13 18.72 32.09 18.77 32.05C18.82 32 18.87 31.96 18.91 31.91L24 26.82L29.08 31.91L29.09 31.91C29.13 31.96 29.18 32 29.23 32.05C29.28 32.09 29.33 32.13 29.39 32.16C29.44 32.2 29.5 32.23 29.56 32.26C29.62 32.29 29.67 32.32 29.73 32.35C29.8 32.37 29.86 32.39 29.92 32.41C29.98 32.43 30.05 32.45 30.11 32.46C30.17 32.47 30.24 32.48 30.3 32.49C30.37 32.5 30.43 32.5 30.5 32.5C30.57 32.5 30.63 32.5 30.7 32.49C30.76 32.48 30.83 32.47 30.89 32.46C30.95 32.45 31.02 32.43 31.08 32.41L31.26 32.35C31.33 32.32 31.38 32.29 31.44 32.26C31.5 32.23 31.56 32.2 31.61 32.16C31.66 32.13 31.72 32.09 31.77 32.04C31.82 32 31.87 31.96 31.91 31.91C31.96 31.87 32 31.82 32.04 31.77C32.09 31.72 32.13 31.66 32.16 31.61C32.2 31.56 32.23 31.5 32.26 31.44C32.29 31.38 32.32 31.33 32.35 31.26L32.41 31.08C32.43 31.02 32.45 30.95 32.46 30.89C32.47 30.83 32.48 30.76 32.49 30.7C32.5 30.63 32.5 30.57 32.5 30.5C32.5 30.43 32.5 30.37 32.49 30.3C32.48 30.24 32.47 30.17 32.46 30.11C32.45 30.05 32.43 29.98 32.41 29.92C32.39 29.86 32.37 29.8 32.35 29.73C32.32 29.67 32.29 29.62 32.26 29.56C32.23 29.5 32.2 29.44 32.16 29.39C32.13 29.33 32.09 29.28 32.05 29.23C32 29.18 31.96 29.13 31.91 29.09L31.91 29.08L26.82 24L31.91 18.91C31.96 18.87 32 18.82 32.04 18.77C32.09 18.72 32.12 18.66 32.16 18.61C32.2 18.56 32.23 18.5 32.26 18.44L32.35 18.26L32.41 18.08C32.43 18.02 32.45 17.95 32.46 17.89C32.47 17.82 32.48 17.76 32.49 17.69C32.49 17.63 32.5 17.56 32.5 17.5C32.5 17.43 32.49 17.37 32.49 17.3C32.48 17.24 32.47 17.17 32.46 17.11C32.45 17.04 32.43 16.98 32.41 16.92C32.39 16.86 32.37 16.79 32.34 16.73C32.32 16.67 32.29 16.61 32.26 16.56C32.23 16.5 32.2 16.44 32.16 16.39C32.12 16.33 32.08 16.28 32.04 16.23C32 16.18 31.96 16.13 31.91 16.09C31.87 16.04 31.82 16 31.77 15.95C31.72 15.91 31.66 15.87 31.61 15.84C31.55 15.8 31.5 15.77 31.44 15.74L31.26 15.65L31.08 15.59C31.02 15.57 30.95 15.55 30.89 15.54C30.82 15.53 30.76 15.52 30.69 15.51C30.63 15.5 30.56 15.5 30.5 15.5C30.43 15.5 30.37 15.5 30.3 15.51C30.24 15.52 30.17 15.53 30.11 15.54C30.04 15.55 29.98 15.57 29.92 15.59C29.85 15.61 29.79 15.63 29.73 15.65L29.55 15.74C29.5 15.77 29.44 15.8 29.39 15.84C29.33 15.87 29.28 15.91 29.23 15.95C29.18 16 29.13 16.04 29.08 16.09L24 21.18L18.91 16.09C18.87 16.04 18.82 16 18.77 15.95C18.72 15.91 18.67 15.87 18.61 15.84C18.56 15.8 18.5 15.77 18.44 15.74C18.39 15.71 18.33 15.68 18.27 15.65C18.2 15.63 18.14 15.61 18.08 15.59C18.02 15.57 17.95 15.55 17.89 15.54C17.83 15.53 17.76 15.52 17.7 15.51C17.63 15.5 17.57 15.5 17.5 15.5C17.43 15.5 17.37 15.5 17.3 15.51C17.24 15.52 17.17 15.53 17.11 15.54C17.05 15.55 16.98 15.57 16.92 15.59C16.86 15.61 16.8 15.63 16.73 15.65C16.67 15.68 16.61 15.71 16.56 15.74C16.5 15.77 16.44 15.8 16.39 15.84C16.33 15.87 16.28 15.91 16.23 15.95C16.18 16 16.13 16.04 16.09 16.09C16.04 16.13 16 16.18 15.95 16.23C15.91 16.28 15.87 16.33 15.84 16.39C15.8 16.44 15.77 16.5 15.74 16.56C15.71 16.61 15.68 16.67 15.65 16.73C15.63 16.8 15.61 16.86 15.59 16.92C15.57 16.98 15.55 17.05 15.54 17.11C15.53 17.17 15.52 17.24 15.51 17.3C15.5 17.37 15.5 17.43 15.5 17.5C15.5 17.57 15.5 17.63 15.51 17.7C15.52 17.76 15.53 17.83 15.54 17.89C15.55 17.95 15.57 18.02 15.59 18.08C15.61 18.14 15.63 18.2 15.65 18.27C15.68 18.33 15.71 18.39 15.74 18.44C15.77 18.5 15.8 18.56 15.84 18.61C15.87 18.67 15.91 18.72 15.95 18.77C16 18.82 16.04 18.87 16.09 18.91L21.18 24L16.09 29.09C16.04 29.13 16 29.18 15.95 29.23C15.91 29.28 15.87 29.33 15.84 29.39C15.8 29.44 15.77 29.5 15.74 29.56C15.71 29.62 15.68 29.67 15.65 29.73C15.63 29.8 15.61 29.86 15.59 29.92C15.57 29.98 15.55 30.05 15.54 30.11C15.53 30.17 15.52 30.24 15.51 30.3C15.5 30.37 15.5 30.43 15.5 30.5Z" fill-rule="evenodd"  fill="#000000" >
</path>
</svg>
