<svg xmlns="http://www.w3.org/2000/svg" xmlns:xlink="http://www.w3.org/1999/xlink" width="48" height="48" viewBox="0 0 48 48" fill="none">
<path d="M40.9267 38.4254C40.9067 38.3654 40.8867 38.3054 40.8567 38.2454C40.8367 38.1854 40.8067 38.1254 40.7767 38.0654C40.7467 38.0054 40.7067 37.9554 40.6767 37.8954C40.6367 37.8454 40.5967 37.7854 40.5567 37.7354C40.5167 37.6854 40.4667 37.6354 40.4267 37.5954L37.5967 40.4254C37.6367 40.4654 37.6867 40.5154 37.7367 40.5554C37.7867 40.5954 37.8467 40.6354 37.8967 40.6754C37.9567 40.7054 38.0067 40.7454 38.0667 40.7754C38.1267 40.8054 38.1867 40.8354 38.2467 40.8554C38.3067 40.8854 38.3667 40.9054 38.4267 40.9254C38.4867 40.9454 38.5567 40.9554 38.6167 40.9654C38.6867 40.9854 38.7467 40.9954 38.8167 40.9954C38.8767 41.0054 38.9467 41.0054 39.0067 41.0054C39.0767 41.0054 39.1367 41.0054 39.2067 40.9954C39.2667 40.9954 39.3367 40.9854 39.3967 40.9654C39.4667 40.9554 39.5267 40.9454 39.5867 40.9254C39.6567 40.9054 39.7167 40.8854 39.7767 40.8554C39.8367 40.8354 39.8967 40.8054 39.9567 40.7754C40.0067 40.7454 40.0667 40.7054 40.1167 40.6754C40.1767 40.6354 40.2267 40.5954 40.2767 40.5554C40.3267 40.5154 40.3767 40.4654 40.4267 40.4254C40.4667 40.3754 40.5167 40.3254 40.5567 40.2754C40.5967 40.2254 40.6367 40.1754 40.6767 40.1154C40.7067 40.0654 40.7467 40.0054 40.7767 39.9554C40.8067 39.8954 40.8367 39.8354 40.8567 39.7754C40.8867 39.7154 40.9067 39.6554 40.9267 39.5854C40.9467 39.5254 40.9567 39.4654 40.9667 39.3954C40.9867 39.3354 40.9967 39.2654 40.9967 39.2054C41.0067 39.1354 41.0067 39.0754 41.0067 39.0054C41.0067 38.9454 41.0067 38.8754 40.9967 38.8154C40.9967 38.7454 40.9867 38.6854 40.9667 38.6154C40.9567 38.5554 40.9467 38.4854 40.9267 38.4254ZM7.45665 40.2754C7.50665 40.3254 7.54665 40.3754 7.59665 40.4254C7.63665 40.4754 7.68665 40.5154 7.73665 40.5554C7.78665 40.5954 7.83665 40.6354 7.89665 40.6754C7.94665 40.7054 8.00665 40.7454 8.06665 40.7754C8.11665 40.8054 8.17665 40.8354 8.23665 40.8554C8.29665 40.8854 8.36665 40.9054 8.42665 40.9254C8.48665 40.9454 8.54665 40.9554 8.61665 40.9754C8.67665 40.9854 8.74665 40.9954 8.80665 41.0054C8.87665 41.0054 8.93665 41.0154 9.00665 41.0154C9.06665 41.0154 9.13665 41.0054 9.19665 41.0054C9.26665 40.9954 9.32665 40.9854 9.39665 40.9754C9.45665 40.9554 9.52665 40.9454 9.58665 40.9254C9.64665 40.9054 9.70665 40.8854 9.76665 40.8554C9.82665 40.8354 9.88665 40.8054 9.94665 40.7754C10.0067 40.7454 10.0567 40.7154 10.1167 40.6754C10.1667 40.6354 10.2267 40.5954 10.2767 40.5554C10.3267 40.5154 10.3767 40.4754 10.4167 40.4254L24.0067 26.8354L37.5967 40.4154L40.4167 37.5954L26.8267 24.0154L40.4167 10.4154C40.4667 10.3754 40.5067 10.3254 40.5567 10.2754C40.5967 10.2254 40.6367 10.1654 40.6667 10.1154C40.7067 10.0654 40.7367 10.0054 40.7667 9.94537C40.7967 9.88537 40.8267 9.83537 40.8567 9.76537L40.9167 9.58537C40.9367 9.52537 40.9567 9.45537 40.9667 9.39537C40.9767 9.33537 40.9867 9.26537 40.9967 9.20537C41.0067 9.13537 41.0067 9.06537 41.0067 9.00537C41.0067 8.93537 41.0067 8.87537 40.9967 8.80537C40.9867 8.74537 40.9767 8.67537 40.9667 8.61537C40.9567 8.55537 40.9367 8.48537 40.9167 8.42537C40.8967 8.36537 40.8767 8.29537 40.8567 8.23537C40.8267 8.17537 40.7967 8.11537 40.7667 8.06537C40.7367 8.00537 40.7067 7.94537 40.6667 7.89537C40.6367 7.83537 40.5967 7.78537 40.5467 7.73537C40.5067 7.68537 40.4667 7.63537 40.4167 7.59537C40.3767 7.54537 40.3267 7.50537 40.2767 7.45537C40.2267 7.41537 40.1667 7.37537 40.1167 7.34537C40.0667 7.30537 40.0067 7.27537 39.9467 7.24537L39.7667 7.15537L39.5867 7.09537C39.5267 7.07537 39.4567 7.05537 39.3967 7.04537C39.3267 7.03537 39.2667 7.02537 39.1967 7.01537C39.1367 7.00537 39.0667 7.00537 39.0067 7.00537C38.9367 7.00537 38.8767 7.00537 38.8067 7.01537C38.7467 7.02537 38.6767 7.03537 38.6167 7.04537C38.5467 7.05537 38.4867 7.07537 38.4267 7.09537C38.3667 7.11537 38.2967 7.13537 38.2367 7.15537C38.1767 7.18537 38.1167 7.21537 38.0667 7.24537C38.0067 7.27537 37.9467 7.30537 37.8967 7.34537C37.8367 7.37537 37.7867 7.41537 37.7367 7.45537C37.6867 7.50537 37.6367 7.54537 37.5867 7.59537L37.5967 7.59537L24.0067 21.1854L10.4167 7.59537C10.3767 7.54537 10.3267 7.50537 10.2767 7.45537C10.2267 7.41537 10.1767 7.37537 10.1167 7.34537C10.0667 7.30537 10.0067 7.27537 9.94665 7.24537C9.89665 7.21537 9.83665 7.18537 9.77665 7.15537C9.70665 7.13537 9.64665 7.11537 9.58665 7.09537C9.52665 7.07537 9.45665 7.05537 9.39665 7.04537C9.33665 7.03537 9.26665 7.02537 9.20665 7.01537C9.13665 7.00537 9.07665 7.00537 9.00665 7.00537C8.93665 7.00537 8.87665 7.00537 8.80665 7.01537C8.74665 7.02537 8.67665 7.03537 8.61665 7.04537C8.55665 7.05537 8.48665 7.07537 8.42665 7.09537C8.36665 7.11537 8.30665 7.13537 8.23665 7.15537C8.17665 7.18537 8.11665 7.21537 8.06665 7.24537C8.00665 7.27537 7.94665 7.30537 7.89665 7.34537C7.83665 7.37537 7.78665 7.41537 7.73665 7.45537C7.68665 7.50537 7.63665 7.54537 7.59665 7.59537C7.54665 7.63537 7.50665 7.68537 7.45665 7.73537C7.41665 7.78537 7.37665 7.83537 7.34665 7.89537C7.30665 7.94537 7.27665 8.00537 7.24665 8.06537C7.21665 8.11537 7.18665 8.17537 7.15665 8.23537C7.13665 8.30537 7.11665 8.36537 7.09665 8.42537C7.07665 8.48537 7.05665 8.55537 7.04665 8.61537C7.03665 8.67537 7.02665 8.74537 7.01665 8.80537C7.00665 8.87537 7.00665 8.93537 7.00665 9.00537C7.00665 9.07537 7.00665 9.13537 7.01665 9.20537C7.02665 9.26537 7.03665 9.33537 7.04665 9.39537C7.05665 9.45537 7.07665 9.52537 7.09665 9.58537C7.11665 9.64537 7.13665 9.70537 7.15665 9.77537C7.18665 9.83537 7.21665 9.89537 7.24665 9.94537C7.27665 10.0054 7.30665 10.0654 7.34665 10.1154C7.37665 10.1754 7.41665 10.2254 7.45665 10.2754C7.50665 10.3254 7.54665 10.3754 7.59665 10.4154L21.1867 24.0054L7.59665 37.5954C7.54665 37.6454 7.50665 37.6954 7.45665 37.7454C7.41665 37.7954 7.37665 37.8454 7.34665 37.8954C7.30665 37.9554 7.27665 38.0054 7.24665 38.0654L7.15665 38.2454L7.09665 38.4254C7.07665 38.4954 7.05665 38.5554 7.04665 38.6254C7.03665 38.6854 7.02665 38.7454 7.01665 38.8154C7.00665 38.8754 7.00665 38.9454 7.00665 39.0154C7.00665 39.0754 7.00665 39.1454 7.01665 39.2054C7.02665 39.2754 7.03665 39.3354 7.04665 39.4054C7.05665 39.4654 7.07665 39.5254 7.09665 39.5954L7.15665 39.7754L7.24665 39.9554C7.27665 40.0154 7.30665 40.0654 7.34665 40.1254C7.37665 40.1754 7.41665 40.2254 7.45665 40.2754Z" fill-rule="evenodd"  fill="#000000" >
</path>
</svg>
