<svg xmlns="http://www.w3.org/2000/svg" xmlns:xlink="http://www.w3.org/1999/xlink" width="47.999755859375" height="48" viewBox="0 0 47.999755859375 48" fill="none">
<path d="M16.56 42L34 42C40.73 42 46 36.54 46 29.81C46 24.64 43.82 21.03 39.46 18.98C39.52 18.5 39.55 18.01 39.55 17.52C39.55 14.35 38.47 11.65 36.31 9.4C34.12 7.13 31.48 6 28.38 6C25.93 6 23.72 6.75 21.76 8.24C20.32 9.33 19.22 10.65 18.45 12.22C17.82 12.14 17.19 12.1 16.56 12.1C12.53 12.1 9.09 13.57 6.24 16.5C3.41 19.42 2 22.93 2 27.05C2 31.17 3.41 34.68 6.24 37.6C9.09 40.53 12.53 42 16.56 42ZM42 29.81C42 25.93 40.18 23.36 36.53 22.1L34.75 21.48L35.25 19.67C35.45 18.96 35.55 18.25 35.55 17.52C35.55 15.43 34.84 13.65 33.43 12.17C32.03 10.72 30.35 10 28.38 10C24.94 10 22.68 11.7 21.58 15.11L21.01 16.91L19.18 16.44C18.32 16.21 17.44 16.1 16.56 16.1C13.65 16.1 11.17 17.16 9.11 19.29C7.04 21.43 6 24.01 6 27.05C6 30.09 7.04 32.67 9.11 34.81C11.17 36.94 13.65 38 16.56 38L34 38C38.52 38 42 34.33 42 29.81ZM29.59 28.41C29.95 28.78 30.45 29 31 29C32.1 29 33 28.1 33 27C33 26.45 32.78 25.95 32.41 25.59L26.82 20C25.26 18.44 22.74 18.44 21.18 20L15.59 25.59C15.22 25.95 15 26.45 15 27C15 28.1 15.9 29 17 29C17.55 29 18.05 28.78 18.41 28.41L22 24.83L22 34C22 35.1 22.9 36 24 36C25.1 36 26 35.1 26 34L26 24.83L29.59 28.41Z" fill-rule="evenodd"  fill="#000000" >
</path>
</svg>
