<svg xmlns="http://www.w3.org/2000/svg" xmlns:xlink="http://www.w3.org/1999/xlink" width="48" height="48" viewBox="0 0 48 48" fill="none">
<path d="M18.45 12.23C17.83 12.14 17.2 12.1 16.56 12.1C14.58 12.1 12.68 12.49 10.87 13.28C9.13 14.05 7.58 15.12 6.24 16.5C4.9 17.88 3.87 19.46 3.14 21.25C2.38 23.1 2 25.03 2 27.05C2 29.07 2.38 31 3.14 32.85C3.87 34.64 4.9 36.22 6.24 37.6C7.58 38.98 9.13 40.05 10.87 40.82C12.68 41.61 14.58 42 16.56 42L34 42C35.63 42 37.19 41.68 38.68 41.04C40.12 40.42 41.39 39.54 42.5 38.42C43.6 37.29 44.46 36 45.06 34.54C45.69 33.04 46 31.46 46 29.81C46 28.51 45.8 27.24 45.41 26.02C45.02 24.83 44.46 23.72 43.73 22.71C43.01 21.7 42.14 20.82 41.15 20.08C40.61 19.67 40.05 19.32 39.46 19.02C39.52 18.52 39.55 18.02 39.55 17.52C39.55 15.97 39.26 14.48 38.68 13.06C38.12 11.68 37.33 10.46 36.31 9.4C35.28 8.33 34.09 7.5 32.76 6.92C31.36 6.31 29.9 6 28.38 6C27.16 6 25.98 6.2 24.83 6.59C23.72 6.98 22.7 7.52 21.76 8.24C20.83 8.94 20.03 9.78 19.35 10.74C19.01 11.21 18.71 11.71 18.45 12.23ZM22.61 13.04C22.17 13.68 21.82 14.37 21.58 15.11L21.01 16.91L19.18 16.44C18.32 16.21 17.44 16.1 16.56 16.1C15.13 16.1 13.77 16.38 12.47 16.95C11.21 17.5 10.09 18.28 9.11 19.29C8.13 20.3 7.37 21.46 6.84 22.77C6.28 24.13 6 25.56 6 27.05C6 28.54 6.28 29.97 6.84 31.33C7.37 32.64 8.13 33.8 9.11 34.81C10.09 35.82 11.21 36.6 12.47 37.15C13.77 37.72 15.13 38 16.56 38L34 38C35.08 38 36.11 37.79 37.1 37.36C38.06 36.95 38.9 36.37 39.64 35.62C40.38 34.86 40.96 33.99 41.37 33.01C41.79 31.99 42 30.93 42 29.81C42 28.93 41.87 28.08 41.6 27.25C41.34 26.46 40.97 25.72 40.48 25.04C40 24.37 39.42 23.78 38.75 23.28C38.07 22.77 37.33 22.38 36.53 22.1L34.75 21.48L35.25 19.67C35.45 18.96 35.55 18.25 35.55 17.52C35.55 16.49 35.36 15.5 34.98 14.57C34.61 13.67 34.09 12.87 33.43 12.17C32.76 11.49 32 10.95 31.15 10.58C30.27 10.19 29.35 10 28.38 10C27.61 10 26.86 10.12 26.13 10.37C25.43 10.62 24.78 10.97 24.17 11.43C23.57 11.88 23.05 12.42 22.61 13.04Z" fill-rule="evenodd"  fill="#000000" >
</path>
</svg>
