<svg xmlns="http://www.w3.org/2000/svg" xmlns:xlink="http://www.w3.org/1999/xlink" width="48" height="48" viewBox="0 0 48 48" fill="none">
<path d="M44 38L44 12C44 10.92 43.79 9.88 43.37 8.89C42.96 7.93 42.39 7.08 41.66 6.34C40.92 5.61 40.07 5.04 39.11 4.63C38.12 4.21 37.08 4 36 4L20 4C18.92 4 17.88 4.21 16.89 4.63C15.93 5.04 15.08 5.61 14.34 6.34C13.61 7.08 13.04 7.93 12.63 8.89C12.21 9.88 12 10.92 12 12L12 17C10.92 17 9.88 17.21 8.89 17.63C7.93 18.04 7.08 18.61 6.34 19.34C5.61 20.08 5.04 20.93 4.63 21.89C4.21 22.88 4 23.92 4 25L4 38C4 38.81 4.16 39.59 4.47 40.34C4.78 41.05 5.2 41.69 5.76 42.24C6.31 42.8 6.95 43.22 7.66 43.53C8.41 43.84 9.19 44 10 44L38 44C38.81 44 39.59 43.84 40.34 43.53C41.05 43.22 41.69 42.8 42.24 42.24C42.8 41.69 43.22 41.05 43.53 40.34C43.84 39.59 44 38.81 44 38ZM20 40L20 36C20 35.46 20.11 34.94 20.32 34.44C20.52 33.96 20.81 33.54 21.17 33.17C21.54 32.81 21.96 32.52 22.44 32.32C22.94 32.11 23.46 32 24 32L32 32C32.54 32 33.06 32.11 33.56 32.32C34.04 32.52 34.46 32.81 34.83 33.17C35.19 33.54 35.48 33.96 35.68 34.44C35.89 34.94 36 35.46 36 36L36 40L38 40C38.27 40 38.53 39.95 38.78 39.84C39.02 39.74 39.23 39.6 39.41 39.41C39.6 39.23 39.74 39.02 39.84 38.78C39.95 38.53 40 38.27 40 38L40 12C40 11.46 39.9 10.94 39.69 10.45C39.48 9.97 39.2 9.54 38.83 9.17C38.46 8.8 38.03 8.52 37.55 8.31C37.06 8.1 36.54 8 36 8L20 8C19.46 8 18.94 8.1 18.45 8.31C17.97 8.52 17.54 8.8 17.17 9.17C16.8 9.54 16.52 9.97 16.31 10.45C16.1 10.94 16 11.46 16 12L16 40L20 40ZM21.3 12.04C21.24 12.05 21.17 12.06 21.11 12.07C21.05 12.08 20.98 12.1 20.92 12.12C20.86 12.14 20.8 12.16 20.73 12.18C20.67 12.21 20.61 12.24 20.56 12.27C20.5 12.3 20.44 12.33 20.39 12.36C20.33 12.39 20.28 12.43 20.23 12.47C20.18 12.52 20.13 12.56 20.09 12.61C20.04 12.65 20 12.7 19.95 12.75C19.91 12.8 19.87 12.85 19.84 12.91C19.8 12.96 19.77 13.02 19.74 13.07C19.71 13.12 19.68 13.18 19.65 13.24C19.63 13.31 19.61 13.37 19.59 13.43C19.57 13.49 19.55 13.56 19.54 13.62C19.53 13.67 19.52 13.74 19.51 13.8C19.5 13.87 19.5 13.93 19.5 14C19.5 14.07 19.5 14.13 19.51 14.2C19.52 14.26 19.53 14.33 19.54 14.38C19.55 14.44 19.57 14.51 19.59 14.57C19.61 14.63 19.63 14.69 19.65 14.76C19.68 14.82 19.71 14.88 19.74 14.93C19.77 14.99 19.8 15.04 19.84 15.09C19.87 15.15 19.91 15.2 19.95 15.25C20 15.3 20.04 15.35 20.09 15.39C20.13 15.44 20.18 15.48 20.23 15.53C20.28 15.57 20.33 15.61 20.39 15.64C20.44 15.67 20.5 15.7 20.56 15.73C20.61 15.76 20.67 15.79 20.73 15.82C20.8 15.84 20.86 15.86 20.92 15.88C20.98 15.9 21.05 15.92 21.11 15.93C21.17 15.94 21.24 15.95 21.3 15.96C21.37 15.97 21.43 15.97 21.5 15.97L35 15.97C35.07 15.97 35.13 15.97 35.2 15.96C35.26 15.95 35.33 15.94 35.39 15.93C35.45 15.92 35.52 15.9 35.58 15.88C35.64 15.86 35.7 15.84 35.77 15.82C35.83 15.79 35.88 15.76 35.94 15.73C36 15.7 36.06 15.67 36.11 15.64C36.17 15.61 36.22 15.57 36.27 15.53C36.32 15.48 36.37 15.44 36.41 15.39C36.46 15.35 36.5 15.3 36.55 15.25C36.59 15.2 36.63 15.15 36.66 15.09C36.7 15.04 36.73 14.99 36.76 14.93C36.79 14.88 36.82 14.82 36.85 14.76C36.87 14.69 36.89 14.63 36.91 14.57C36.93 14.51 36.95 14.44 36.96 14.38C36.97 14.33 36.98 14.26 36.99 14.2C37 14.13 37 14.07 37 14C37 13.93 37 13.87 36.99 13.8C36.98 13.74 36.97 13.67 36.96 13.62C36.95 13.56 36.93 13.49 36.91 13.43C36.89 13.37 36.87 13.31 36.85 13.24C36.82 13.18 36.79 13.12 36.76 13.07C36.73 13.02 36.7 12.96 36.66 12.91C36.63 12.85 36.59 12.8 36.55 12.75C36.5 12.7 36.46 12.65 36.41 12.61C36.37 12.56 36.32 12.52 36.27 12.47C36.22 12.43 36.17 12.39 36.11 12.36C36.06 12.33 36 12.3 35.94 12.27C35.88 12.24 35.83 12.21 35.77 12.18C35.7 12.16 35.64 12.14 35.58 12.12C35.52 12.1 35.45 12.08 35.39 12.07C35.33 12.06 35.26 12.05 35.2 12.04C35.13 12.03 35.07 12.03 35 12.03L21.5 12.03C21.43 12.03 21.37 12.03 21.3 12.04ZM21.3 19.04C21.24 19.05 21.17 19.06 21.11 19.07C21.05 19.08 20.98 19.1 20.92 19.12C20.86 19.14 20.8 19.16 20.73 19.18C20.67 19.21 20.61 19.24 20.56 19.27C20.5 19.3 20.44 19.33 20.39 19.37C20.33 19.39 20.28 19.43 20.23 19.47C20.18 19.52 20.13 19.56 20.09 19.61C20.04 19.65 20 19.7 19.95 19.75C19.91 19.8 19.87 19.85 19.84 19.91C19.8 19.96 19.77 20.02 19.74 20.07C19.71 20.12 19.68 20.18 19.65 20.24C19.63 20.31 19.61 20.37 19.59 20.43C19.57 20.49 19.55 20.56 19.54 20.62C19.53 20.68 19.52 20.74 19.51 20.8C19.5 20.87 19.5 20.93 19.5 21C19.5 21.07 19.5 21.13 19.51 21.2C19.52 21.26 19.53 21.33 19.54 21.38C19.55 21.44 19.57 21.51 19.59 21.57C19.61 21.63 19.63 21.69 19.65 21.76C19.68 21.82 19.71 21.88 19.74 21.93C19.77 21.99 19.8 22.04 19.84 22.09C19.87 22.15 19.91 22.2 19.95 22.25C20 22.3 20.04 22.35 20.09 22.39C20.13 22.44 20.18 22.48 20.23 22.53C20.28 22.57 20.33 22.61 20.39 22.64C20.44 22.67 20.5 22.7 20.56 22.73C20.61 22.76 20.67 22.79 20.73 22.82C20.8 22.84 20.86 22.86 20.92 22.88C20.98 22.9 21.05 22.92 21.11 22.93C21.17 22.94 21.24 22.95 21.3 22.96C21.37 22.97 21.43 22.97 21.5 22.97L35 22.97C35.07 22.97 35.13 22.97 35.2 22.96C35.26 22.95 35.33 22.94 35.39 22.93C35.45 22.92 35.52 22.9 35.58 22.88C35.64 22.86 35.7 22.84 35.77 22.82C35.83 22.79 35.88 22.76 35.94 22.73C36 22.7 36.06 22.67 36.11 22.64C36.17 22.61 36.22 22.57 36.27 22.53C36.32 22.48 36.37 22.44 36.41 22.39C36.46 22.35 36.5 22.3 36.55 22.25C36.59 22.2 36.63 22.15 36.66 22.09C36.7 22.04 36.73 21.99 36.76 21.93C36.79 21.88 36.82 21.82 36.85 21.76C36.87 21.69 36.89 21.63 36.91 21.57C36.93 21.51 36.95 21.44 36.96 21.38C36.97 21.33 36.98 21.26 36.99 21.2C37 21.13 37 21.07 37 21C37 20.93 37 20.87 36.99 20.8C36.98 20.74 36.97 20.68 36.96 20.62C36.95 20.56 36.93 20.49 36.91 20.43C36.89 20.37 36.87 20.31 36.85 20.24C36.82 20.18 36.79 20.12 36.76 20.07C36.73 20.02 36.7 19.96 36.66 19.91C36.63 19.85 36.59 19.8 36.55 19.75C36.5 19.7 36.46 19.65 36.41 19.61C36.37 19.56 36.32 19.52 36.27 19.47C36.22 19.43 36.17 19.39 36.11 19.37C36.06 19.33 36 19.3 35.94 19.27C35.88 19.24 35.83 19.21 35.77 19.18C35.7 19.16 35.64 19.14 35.58 19.12C35.52 19.1 35.45 19.08 35.39 19.07C35.33 19.06 35.26 19.05 35.2 19.04C35.13 19.03 35.07 19.03 35 19.03L21.5 19.03C21.43 19.03 21.37 19.03 21.3 19.04ZM12 21C11.46 21 10.94 21.1 10.45 21.31C9.97 21.52 9.54 21.8 9.17 22.17C8.8 22.54 8.52 22.97 8.31 23.45C8.1 23.94 8 24.46 8 25L8 38C8 38.27 8.05 38.53 8.16 38.78C8.26 39.02 8.4 39.23 8.59 39.41C8.77 39.6 8.98 39.74 9.22 39.84C9.47 39.95 9.73 40 10 40L12 40L12 21ZM32 36L24 36L24 40L32 40L32 36Z" fill-rule="evenodd"  fill="#000000" >
</path>
</svg>
