<svg xmlns="http://www.w3.org/2000/svg" xmlns:xlink="http://www.w3.org/1999/xlink" width="48" height="48" viewBox="0 0 48 48" fill="none">
<path d="M45.2478 16.4125C45.3278 15.8825 45.2678 15.3625 45.0678 14.8625C44.8778 14.3925 44.5878 14.0025 44.1978 13.6725C43.7978 13.3525 43.3578 13.1325 42.8578 13.0425C42.3278 12.9325 41.7978 12.9725 41.2878 13.1525L32.7778 16.1125L26.4578 7.0425C26.1678 6.6225 25.7978 6.3025 25.3478 6.0725C24.9278 5.8625 24.4778 5.7525 23.9978 5.7525C23.5278 5.7525 23.0678 5.8625 22.6478 6.0725C22.1978 6.3025 21.8278 6.6225 21.5478 7.0325L15.2278 16.1125L6.70785 13.1525C6.19785 12.9725 5.67785 12.9325 5.13785 13.0425C4.64785 13.1325 4.19785 13.3525 3.80785 13.6725C3.41785 14.0025 3.12785 14.3925 2.93785 14.8625C2.73785 15.3625 2.66785 15.8825 2.74785 16.4225L5.40785 34.9925C5.52785 35.8425 5.79785 36.6425 6.20785 37.3825C6.60785 38.1125 7.12785 38.7425 7.74785 39.2925C8.37785 39.8325 9.07785 40.2525 9.85785 40.5425C10.6578 40.8525 11.4778 41.0025 12.3378 41.0025L35.6578 41.0025C36.5178 41.0025 37.3478 40.8525 38.1478 40.5425C38.9178 40.2525 39.6178 39.8325 40.2478 39.2925C40.8778 38.7425 41.3878 38.1125 41.7878 37.3825C42.1978 36.6425 42.4678 35.8425 42.5878 34.9925L45.2478 16.4125ZM31.4778 20.1625C30.8378 19.9625 30.3178 19.5825 29.9378 19.0325L23.9978 10.5025L18.0678 19.0225C17.6778 19.5825 17.1678 19.9625 16.5278 20.1625C15.8878 20.3725 15.2478 20.3625 14.6078 20.1325L6.93785 17.4725L9.36785 34.4225C9.41785 34.7925 9.53785 35.1325 9.70785 35.4525C9.88785 35.7625 10.1078 36.0325 10.3678 36.2625C10.6378 36.5025 10.9478 36.6825 11.2778 36.8025C11.6178 36.9325 11.9678 37.0025 12.3378 37.0025L35.6578 37.0025C36.0278 37.0025 36.3878 36.9325 36.7278 36.8025C37.0578 36.6825 37.3578 36.5025 37.6278 36.2625C37.8978 36.0325 38.1178 35.7625 38.2878 35.4525C38.4678 35.1325 38.5778 34.7925 38.6278 34.4325L38.6278 34.4225L41.0578 17.4725L33.3778 20.1425C32.7478 20.3625 32.1178 20.3725 31.4778 20.1625ZM21.4678 21.0125C20.6878 21.3425 19.9978 21.8025 19.3978 22.4025C18.7978 23.0025 18.3378 23.6925 18.0078 24.4725C17.6678 25.2725 17.4978 26.1225 17.4978 27.0025C17.4978 27.8825 17.6678 28.7325 18.0078 29.5325C18.3378 30.3125 18.7978 31.0025 19.3978 31.6025C19.9978 32.2025 20.6878 32.6625 21.4678 32.9925C22.2678 33.3325 23.1178 33.5025 23.9978 33.5025C24.8778 33.5025 25.7278 33.3325 26.5278 32.9925C27.3078 32.6625 27.9978 32.2025 28.5978 31.6025C29.1978 31.0025 29.6578 30.3125 29.9878 29.5325C30.3278 28.7325 30.4978 27.8825 30.4978 27.0025C30.4978 26.1225 30.3278 25.2725 29.9878 24.4725C29.6578 23.6925 29.1978 23.0025 28.5978 22.4025C27.9978 21.8025 27.3078 21.3425 26.5278 21.0125C25.7278 20.6725 24.8778 20.5025 23.9978 20.5025C23.1178 20.5025 22.2678 20.6725 21.4678 21.0125ZM21.6978 26.0225C21.5678 26.3325 21.4978 26.6625 21.4978 27.0025C21.4978 27.3425 21.5678 27.6725 21.6978 27.9825C21.8178 28.2725 21.9978 28.5425 22.2278 28.7725C22.4578 29.0025 22.7278 29.1825 23.0178 29.3025C23.3278 29.4325 23.6578 29.5025 23.9978 29.5025C24.3378 29.5025 24.6678 29.4325 24.9778 29.3025C25.2678 29.1825 25.5378 29.0025 25.7678 28.7725C25.9978 28.5425 26.1778 28.2725 26.2978 27.9825C26.4278 27.6725 26.4978 27.3425 26.4978 27.0025C26.4978 26.6625 26.4278 26.3325 26.2978 26.0225C26.1778 25.7325 25.9978 25.4625 25.7678 25.2325C25.5378 25.0025 25.2678 24.8225 24.9778 24.7025C24.6678 24.5725 24.3378 24.5025 23.9978 24.5025C23.6578 24.5025 23.3278 24.5725 23.0178 24.7025C22.7278 24.8225 22.4578 25.0025 22.2278 25.2325C21.9978 25.4625 21.8178 25.7325 21.6978 26.0225Z" fill-rule="evenodd"  fill="#000000" >
</path>
</svg>
