<svg xmlns="http://www.w3.org/2000/svg" xmlns:xlink="http://www.w3.org/1999/xlink" width="48" height="48" viewBox="0 0 48 48" fill="none">
<path d="M3 24C3 35.6 12.4 45 24 45C35.6 45 45 35.6 45 24C45 12.4 35.6 3 24 3C12.4 3 3 12.4 3 24ZM41 24C41 14.61 33.39 7 24 7C14.61 7 7 14.61 7 24C7 33.39 14.61 41 24 41C33.39 41 41 33.39 41 24ZM20.37 19.4C18.03 21.74 18.03 25.55 20.37 27.89C22.71 30.23 26.51 30.23 28.85 27.89C30.07 26.67 32.11 22.68 34.94 15.93C35.62 14.28 33.97 12.63 32.32 13.32C25.58 16.14 21.6 18.17 20.37 19.4ZM23.19 25.06C23.97 25.84 25.24 25.84 26.02 25.06C26.64 24.45 27.71 22.42 29.25 19C25.83 20.54 23.81 21.62 23.19 22.23C22.42 23.01 22.42 24.28 23.19 25.06Z" fill-rule="evenodd"  fill="#000000" >
</path>
</svg>
