<svg xmlns="http://www.w3.org/2000/svg" xmlns:xlink="http://www.w3.org/1999/xlink" width="48" height="48" viewBox="0 0 48 48" fill="none">
<path d="M36 44C40.42 44 44 40.42 44 36L44 12C44 7.58 40.42 4 36 4L12 4C7.58 4 4 7.58 4 12L4 36C4 40.42 7.58 44 12 44L36 44ZM40 12C40 9.79 38.21 8 36 8L12 8C9.79 8 8 9.79 8 12L8 36C8 38.21 9.79 40 12 40L36 40C38.21 40 40 38.21 40 36L40 12ZM21 32L14 32L14 26L20 26C21.1 26 22 25.1 22 24C22 22.9 21.1 22 20 22L14 22L14 16L21 16C22.1 16 23 15.1 23 14C23 12.9 22.1 12 21 12L14 12C11.79 12 10 13.79 10 16L10 32C10 34.21 11.79 36 14 36L21 36C22.1 36 23 35.1 23 34C23 32.9 22.1 32 21 32ZM29 26.5C29 25.12 30.12 24 31.5 24C32.88 24 34 25.12 34 26.5L34 34C34 35.1 34.9 36 36 36C37.1 36 38 35.1 38 34L38 26C38 25.79 37.97 25.59 37.91 25.4C37.38 22.33 34.71 20 31.5 20C30.43 20 29.42 20.26 28.53 20.72C28.16 20.28 27.61 20 27 20C25.9 20 25 20.9 25 22L25 34C25 35.1 25.9 36 27 36C28.1 36 29 35.1 29 34L29 26.5Z" fill-rule="evenodd"  fill="#000000" >
</path>
</svg>
