<svg xmlns="http://www.w3.org/2000/svg" xmlns:xlink="http://www.w3.org/1999/xlink" width="48" height="48" viewBox="0 0 48 48" fill="none">
<path d="M36 44C40.42 44 44 40.42 44 36L44 12C44 7.58 40.42 4 36 4L12 4C7.58 4 4 7.58 4 12L4 36C4 40.42 7.58 44 12 44L36 44ZM36 8L12 8C9.79 8 8 9.79 8 12L8 36C8 38.21 9.79 40 12 40L36 40C38.21 40 40 38.21 40 36L40 12C40 9.79 38.21 8 36 8ZM16 11.5L13 11.5C11.9 11.5 11 12.4 11 13.5C11 14.6 11.9 15.5 13 15.5L16 15.5C16 16.6 16.9 17.5 18 17.5C19.1 17.5 20 16.6 20 15.5L28 15.5C28 16.6 28.9 17.5 30 17.5C31.1 17.5 32 16.6 32 15.5L35 15.5C36.1 15.5 37 14.6 37 13.5C37 12.4 36.1 11.5 35 11.5L32 11.5C32 10.4 31.1 9.5 30 9.5C28.9 9.5 28 10.4 28 11.5L20 11.5C20 10.4 19.1 9.5 18 9.5C16.9 9.5 16 10.4 16 11.5ZM22 22.5L17 22.5L17 26.5L22 26.5L22 22.5ZM24 16.5C22.9 16.5 22 17.4 22 18.5L17 18.5C14.79 18.5 13 20.29 13 22.5L13 26.5L12 26.5C10.9 26.5 10 27.4 10 28.5C10 29.6 10.9 30.5 12 30.5L20.93 30.5C20.35 31.12 19.52 31.7 18.46 32.22C16.43 33.22 14.23 33.82 11.86 34C10.82 34.08 10 34.94 10 36C10 37.1 10.9 38 12 38C12.06 38 12.12 38 12.18 37.99C15.06 37.77 17.74 37.04 20.24 35.81C21.82 35.03 23.07 34.13 24 33.11C24.93 34.13 26.18 35.03 27.76 35.81C30.26 37.04 32.94 37.77 35.82 37.99C35.88 38 35.94 38 36 38C37.1 38 38 37.1 38 36C38 34.94 37.18 34.08 36.14 34C33.77 33.82 31.57 33.22 29.54 32.22C28.48 31.7 27.65 31.12 27.07 30.5L36 30.5C37.1 30.5 38 29.6 38 28.5C38 27.4 37.1 26.5 36 26.5L35 26.5L35 22.5C35 20.29 33.21 18.5 31 18.5L26 18.5C26 17.4 25.1 16.5 24 16.5ZM26 26.5L31 26.5L31 22.5L26 22.5L26 26.5Z" fill-rule="evenodd"  fill="#000000" >
</path>
</svg>
