<svg xmlns="http://www.w3.org/2000/svg" xmlns:xlink="http://www.w3.org/1999/xlink" width="48" height="48" viewBox="0 0 48 48" fill="none">
<path d="M24 43C25.93 43 27.5 41.43 27.5 39.5C27.5 37.57 25.93 36 24 36C22.07 36 20.5 37.57 20.5 39.5C20.5 41.43 22.07 43 24 43ZM24.39 5.04C24.33 5.03 24.26 5.02 24.2 5.01C24.13 5 24.07 5 24 5C23.93 5 23.87 5 23.8 5.01C23.74 5.02 23.67 5.03 23.61 5.04C23.55 5.05 23.48 5.07 23.42 5.09C23.36 5.11 23.3 5.13 23.23 5.15C23.17 5.18 23.11 5.21 23.06 5.24C23 5.27 22.94 5.3 22.89 5.34C22.83 5.37 22.78 5.41 22.73 5.45C22.68 5.5 22.63 5.54 22.59 5.59C22.54 5.63 22.5 5.68 22.45 5.73C22.41 5.78 22.37 5.83 22.34 5.89C22.3 5.94 22.27 6 22.24 6.06C22.21 6.11 22.18 6.17 22.15 6.23C22.13 6.3 22.11 6.36 22.09 6.42C22.07 6.48 22.05 6.55 22.04 6.61C22.03 6.67 22.02 6.74 22.01 6.8C22 6.87 22 6.93 22 7L22 30C22 30.07 22 30.13 22.01 30.2C22.02 30.26 22.03 30.33 22.04 30.39C22.05 30.45 22.07 30.52 22.09 30.58C22.11 30.64 22.13 30.7 22.15 30.77C22.18 30.83 22.21 30.89 22.24 30.94C22.27 31 22.3 31.06 22.34 31.11C22.37 31.17 22.41 31.22 22.45 31.27C22.5 31.32 22.54 31.37 22.59 31.41C22.63 31.46 22.68 31.5 22.73 31.55C22.78 31.59 22.83 31.63 22.89 31.66C22.94 31.7 23 31.73 23.06 31.76C23.11 31.79 23.17 31.82 23.23 31.85C23.3 31.87 23.36 31.89 23.42 31.91C23.48 31.93 23.55 31.95 23.61 31.96C23.67 31.97 23.74 31.98 23.8 31.99C23.87 32 23.93 32 24 32C24.07 32 24.13 32 24.2 31.99C24.26 31.98 24.33 31.97 24.39 31.96C24.45 31.95 24.52 31.93 24.58 31.91C24.64 31.89 24.7 31.87 24.77 31.85C24.83 31.82 24.89 31.79 24.94 31.76C25 31.73 25.06 31.7 25.11 31.66C25.17 31.63 25.22 31.59 25.27 31.55C25.32 31.5 25.37 31.46 25.41 31.41C25.46 31.37 25.5 31.32 25.55 31.27C25.59 31.22 25.63 31.17 25.66 31.11C25.7 31.06 25.73 31 25.76 30.94C25.79 30.89 25.82 30.83 25.85 30.77C25.87 30.7 25.89 30.64 25.91 30.58C25.93 30.52 25.95 30.45 25.96 30.39C25.97 30.33 25.98 30.26 25.99 30.2C26 30.13 26 30.07 26 30L26 7C26 6.93 26 6.87 25.99 6.8C25.98 6.74 25.97 6.67 25.96 6.61C25.95 6.55 25.93 6.48 25.91 6.42C25.89 6.36 25.87 6.3 25.85 6.23C25.82 6.17 25.79 6.11 25.76 6.06C25.73 6 25.7 5.94 25.66 5.89C25.63 5.83 25.59 5.78 25.55 5.73C25.5 5.68 25.46 5.63 25.41 5.59C25.37 5.54 25.32 5.5 25.27 5.45C25.22 5.41 25.17 5.37 25.11 5.34C25.06 5.3 25 5.27 24.94 5.24C24.89 5.21 24.83 5.18 24.77 5.15C24.7 5.13 24.64 5.11 24.58 5.09C24.52 5.07 24.45 5.05 24.39 5.04Z" fill-rule="evenodd"  fill="#000000" >
</path>
</svg>
