<svg xmlns="http://www.w3.org/2000/svg" xmlns:xlink="http://www.w3.org/1999/xlink" width="48" height="48" viewBox="0 0 48 48" fill="none">
<path d="M24.2 28.99C24.26 28.98 24.33 28.97 24.39 28.96C24.45 28.95 24.52 28.93 24.58 28.91C24.64 28.89 24.7 28.87 24.77 28.85C24.83 28.82 24.89 28.79 24.94 28.76C25 28.73 25.06 28.7 25.11 28.66C25.17 28.63 25.22 28.59 25.27 28.55C25.32 28.5 25.37 28.46 25.41 28.41C25.46 28.37 25.5 28.32 25.55 28.27C25.59 28.22 25.63 28.17 25.66 28.11C25.7 28.06 25.73 28 25.76 27.94C25.79 27.88 25.82 27.83 25.85 27.77C25.87 27.7 25.89 27.64 25.91 27.58C25.93 27.52 25.95 27.45 25.96 27.39C25.97 27.33 25.98 27.26 25.99 27.2C26 27.13 26 27.07 26 27L26 13C26 12.93 26 12.87 25.99 12.8C25.98 12.74 25.97 12.67 25.96 12.61C25.95 12.55 25.93 12.48 25.91 12.42C25.89 12.36 25.87 12.3 25.85 12.23C25.82 12.17 25.79 12.11 25.76 12.06C25.73 12 25.7 11.94 25.66 11.89C25.63 11.83 25.59 11.78 25.55 11.73C25.5 11.68 25.46 11.63 25.41 11.59C25.37 11.54 25.32 11.5 25.27 11.45C25.22 11.41 25.17 11.37 25.11 11.34C25.06 11.3 25 11.27 24.94 11.24C24.89 11.21 24.83 11.18 24.77 11.15C24.7 11.13 24.64 11.11 24.58 11.09C24.52 11.07 24.45 11.05 24.39 11.04C24.33 11.03 24.26 11.02 24.2 11.01C24.13 11 24.07 11 24 11C23.93 11 23.87 11 23.8 11.01C23.74 11.02 23.67 11.03 23.61 11.04C23.55 11.05 23.48 11.07 23.42 11.09C23.36 11.11 23.3 11.13 23.23 11.15C23.17 11.18 23.11 11.21 23.06 11.24C23 11.27 22.94 11.3 22.89 11.34C22.83 11.37 22.78 11.41 22.73 11.45C22.68 11.5 22.63 11.54 22.59 11.59C22.54 11.63 22.5 11.68 22.45 11.73C22.41 11.78 22.37 11.83 22.34 11.89C22.3 11.94 22.27 12 22.24 12.06C22.21 12.11 22.18 12.17 22.15 12.23C22.13 12.3 22.11 12.36 22.09 12.42C22.07 12.48 22.05 12.55 22.04 12.61C22.03 12.67 22.02 12.74 22.01 12.8C22 12.87 22 12.93 22 13L22 27C22 27.07 22 27.13 22.01 27.2C22.02 27.26 22.03 27.33 22.04 27.39C22.05 27.45 22.07 27.52 22.09 27.58C22.11 27.64 22.13 27.7 22.15 27.77C22.18 27.83 22.21 27.88 22.24 27.94C22.27 28 22.3 28.06 22.34 28.11C22.37 28.17 22.41 28.22 22.45 28.27C22.5 28.32 22.54 28.37 22.59 28.41C22.63 28.46 22.68 28.5 22.73 28.55C22.78 28.59 22.83 28.63 22.89 28.66C22.94 28.7 23 28.73 23.06 28.76C23.11 28.79 23.17 28.82 23.23 28.85C23.3 28.87 23.36 28.89 23.42 28.91C23.48 28.93 23.55 28.95 23.61 28.96C23.67 28.97 23.74 28.98 23.8 28.99C23.87 29 23.93 29 24 29C24.07 29 24.13 29 24.2 28.99ZM36.02 11.98C34.45 10.41 32.65 9.2 30.61 8.34C28.51 7.45 26.31 7 24 7C21.69 7 19.49 7.45 17.39 8.34C15.35 9.2 13.55 10.41 11.98 11.98C10.41 13.55 9.2 15.35 8.34 17.39C7.45 19.49 7 21.69 7 24C7 26.31 7.45 28.51 8.34 30.61C9.2 32.65 10.41 34.45 11.98 36.02C13.55 37.59 15.35 38.8 17.39 39.66C19.49 40.55 21.69 41 24 41C26.31 41 28.51 40.55 30.61 39.66C32.65 38.8 34.45 37.59 36.02 36.02C37.59 34.45 38.8 32.65 39.66 30.61C40.55 28.51 41 26.31 41 24C41 21.69 40.55 19.49 39.66 17.39C38.8 15.35 37.59 13.55 36.02 11.98ZM43.35 32.17C44.45 29.57 45 26.85 45 24C45 21.15 44.45 18.43 43.35 15.83C42.29 13.31 40.79 11.09 38.85 9.15C36.91 7.21 34.69 5.71 32.17 4.65C29.57 3.55 26.85 3 24 3C21.15 3 18.43 3.55 15.83 4.65C13.31 5.71 11.09 7.21 9.15 9.15C7.21 11.09 5.71 13.31 4.65 15.83C3.55 18.43 3 21.15 3 24C3 26.85 3.55 29.57 4.65 32.17C5.71 34.69 7.21 36.91 9.15 38.85C11.09 40.79 13.31 42.29 15.83 43.35C18.43 44.45 21.15 45 24 45C26.85 45 29.57 44.45 32.17 43.35C34.69 42.29 36.91 40.79 38.85 38.85C40.79 36.91 42.29 34.69 43.35 32.17ZM24 31C22.62 31 21.5 32.12 21.5 33.5C21.5 34.88 22.62 36 24 36C25.38 36 26.5 34.88 26.5 33.5C26.5 32.12 25.38 31 24 31Z" fill-rule="evenodd"  fill="#000000" >
</path>
</svg>
