<svg xmlns="http://www.w3.org/2000/svg" xmlns:xlink="http://www.w3.org/1999/xlink" width="48" height="48" viewBox="0 0 48 48" fill="none">
<path d="M29.0005 4C20.7205 4 14.0005 10.72 14.0005 19C14.0005 22.42 15.1505 25.57 17.0705 28.1L12.0005 33.18L7.41049 28.59C7.05049 28.22 6.55049 28 6.00049 28C4.90049 28 4.00049 28.9 4.00049 30C4.00049 30.55 4.22049 31.05 4.59049 31.41L4.59049 31.42L9.17049 36L4.59049 40.59C3.81049 41.36 3.81049 42.64 4.59049 43.41C5.36049 44.19 6.64049 44.19 7.41049 43.41L12.0005 38.83L16.5905 43.41C16.9505 43.78 17.4505 44 18.0005 44C19.1005 44 20.0005 43.1 20.0005 42C20.0005 41.45 19.7805 40.95 19.4105 40.59L14.8205 36L19.9005 30.93C22.4305 32.85 25.5805 34 29.0005 34C37.2805 34 44.0005 27.28 44.0005 19C44.0005 10.72 37.2805 4 29.0005 4ZM29.0005 30C35.0805 30 40.0005 25.08 40.0005 19C40.0005 12.92 35.0805 8 29.0005 8C22.9205 8 18.0005 12.92 18.0005 19C18.0005 25.08 22.9205 30 29.0005 30Z" fill-rule="evenodd"  fill="#000000" >
</path>
</svg>
