<svg xmlns="http://www.w3.org/2000/svg" xmlns:xlink="http://www.w3.org/1999/xlink" width="48" height="48" viewBox="0 0 48 48" fill="none">
<path d="M36.12 16.8935C34.98 16.5035 33.98 16.8735 33.14 18.0135C32.94 18.2835 32.71 18.7035 32.45 19.2435C31.07 13.7935 28.99 8.79352 26.2 4.22352L26.13 4.12352L26.05 4.02352C25.43 3.24352 24.63 2.93352 23.65 3.07352C22.72 3.21352 22.07 3.70352 21.7 4.53352C20.2 7.11352 17.99 10.0635 15.06 13.3735C12.62 16.1235 10.97 18.3235 10.11 19.9735C8.7 22.6735 8 25.8535 8 29.5035C8 38.3335 15.16 45.5035 24 45.5035C32.84 45.5035 40 38.3335 40 29.5035C40 25.9835 39.36 22.5535 38.07 19.1935C37.63 17.9535 36.98 17.1935 36.12 16.8935ZM33.99 25.8335C33.34 26.8535 32.5 27.2635 31.49 27.0635C30.54 26.8835 29.91 26.2035 29.58 25.0535L29.55 24.9435L29.53 24.8335C28.52 18.8135 26.68 13.3435 24 8.41352C22.47 10.7335 20.49 13.2735 18.05 16.0235C15.83 18.5335 14.37 20.4635 13.66 21.8235C12.55 23.9435 12 26.5035 12 29.5035C12 33.0541 13.5447 36.2479 16.0001 38.4464C16.0049 37.1189 16.1902 35.8436 16.5558 34.6204C16.9222 33.3948 17.4452 32.3005 18.1249 31.3377C18.841 30.3233 19.6784 29.5286 20.6373 28.9534C21.697 28.3177 22.8179 27.9999 24 27.9999C25.1821 27.9999 26.303 28.3178 27.3627 28.9534C28.3216 29.5286 29.159 30.3233 29.8751 31.3377C30.5548 32.3005 31.0779 33.3948 31.4442 34.6204C31.8098 35.8436 31.995 37.1189 31.9999 38.4464C34.4553 36.2479 36 33.0541 36 29.5035C36 27.3635 35.72 25.2435 35.16 23.1635C34.66 24.5135 34.27 25.4035 33.99 25.8335ZM27.6987 40.9223C27.8996 40.1501 28 39.3426 28 38.4999C28 37.5433 27.8706 36.632 27.6117 35.766C27.3703 34.9582 27.0355 34.2511 26.6074 33.6446C26.2157 33.0898 25.7816 32.6694 25.3051 32.3836C24.8786 32.1278 24.4436 31.9999 24 31.9999C23.5564 31.9999 23.1214 32.1278 22.6949 32.3836C22.2184 32.6694 21.7844 33.0898 21.3927 33.6446C20.9645 34.2511 20.6297 34.9582 20.3883 35.766C20.1294 36.632 20 37.5433 20 38.4999C20 39.3426 20.1004 40.1501 20.3012 40.9223C21.4662 41.2996 22.7092 41.5035 24 41.5035C25.2908 41.5035 26.5338 41.2996 27.6987 40.9223Z" fill-rule="evenodd"  fill="#000000" >
</path>
</svg>
