<svg xmlns="http://www.w3.org/2000/svg" xmlns:xlink="http://www.w3.org/1999/xlink" width="48" height="48" viewBox="0 0 48 48" fill="none">
<path d="M15.75 12C15.75 10.34 17.09 9 18.75 9C20.41 9 21.75 10.34 21.75 12C21.75 13.66 20.41 15 18.75 15C17.09 15 15.75 13.66 15.75 12ZM26.25 12C26.25 10.34 27.59 9 29.25 9C30.91 9 32.25 10.34 32.25 12C32.25 13.66 30.91 15 29.25 15C27.59 15 26.25 13.66 26.25 12ZM15.75 24C15.75 22.34 17.09 21 18.75 21C20.41 21 21.75 22.34 21.75 24C21.75 25.66 20.41 27 18.75 27C17.09 27 15.75 25.66 15.75 24ZM26.25 24C26.25 22.34 27.59 21 29.25 21C30.91 21 32.25 22.34 32.25 24C32.25 25.66 30.91 27 29.25 27C27.59 27 26.25 25.66 26.25 24ZM18.75 33C17.09 33 15.75 34.34 15.75 36C15.75 37.66 17.09 39 18.75 39C20.41 39 21.75 37.66 21.75 36C21.75 34.34 20.41 33 18.75 33ZM29.25 33C27.59 33 26.25 34.34 26.25 36C26.25 37.66 27.59 39 29.25 39C30.91 39 32.25 37.66 32.25 36C32.25 34.34 30.91 33 29.25 33Z" fill-rule="evenodd"  fill="#000000" >
</path>
</svg>
