<svg xmlns="http://www.w3.org/2000/svg" xmlns:xlink="http://www.w3.org/1999/xlink" width="48" height="48" viewBox="0 0 48 48" fill="none">
<path   fill-rule="evenodd"  fill="#000000"  d="M3.84 42.58C3.86 42.64 3.88 42.71 3.9 42.77C3.93 42.83 3.96 42.89 3.99 42.94C4.02 43 4.05 43.06 4.09 43.11C4.12 43.17 4.16 43.22 4.2 43.27C4.25 43.32 4.29 43.37 4.34 43.42C4.38 43.46 4.43 43.51 4.48 43.55C4.53 43.59 4.58 43.63 4.64 43.66C4.69 43.7 4.75 43.73 4.81 43.76C4.87 43.8 4.92 43.82 4.98 43.85C5.05 43.87 5.11 43.9 5.17 43.91C5.23 43.93 5.3 43.95 5.36 43.96C5.42 43.98 5.49 43.98 5.55 43.99C5.62 44 5.68 44 5.75 44L42.25 44C42.32 44 42.38 44 42.45 43.99C42.51 43.98 42.58 43.97 42.64 43.96C42.7 43.95 42.77 43.93 42.83 43.91C42.89 43.89 42.95 43.87 43.02 43.85C43.08 43.82 43.14 43.79 43.19 43.76C43.25 43.73 43.31 43.7 43.36 43.66C43.42 43.63 43.47 43.59 43.52 43.55C43.57 43.5 43.62 43.46 43.66 43.41C43.71 43.37 43.75 43.32 43.8 43.27C43.84 43.22 43.88 43.17 43.91 43.11C43.95 43.06 43.98 43 44.01 42.94C44.04 42.88 44.07 42.83 44.1 42.77C44.12 42.7 44.14 42.64 44.16 42.58C44.18 42.52 44.2 42.45 44.21 42.39C44.22 42.33 44.23 42.26 44.24 42.2C44.25 42.13 44.25 42.07 44.25 42C44.25 41.87 44.24 41.74 44.21 41.61C44.19 41.48 44.15 41.36 44.1 41.23C44.05 41.11 43.99 41 43.91 40.89C43.84 40.78 43.76 40.68 43.66 40.59C43.57 40.49 43.47 40.41 43.36 40.34C43.25 40.26 43.14 40.2 43.02 40.15C42.89 40.1 42.77 40.06 42.64 40.04C42.51 40.01 42.38 40 42.25 40L40.05 40C40.03 39.49 39.97 38.98 39.88 38.45C39.67 37.15 39.3 35.86 38.77 34.58C38.11 33 37.22 31.48 36.11 30.03C34.89 28.43 33.66 27.05 32.42 25.87C31.95 25.43 31.47 25 30.98 24.59C30.74 24.4 30.45 24.17 30.11 23.9C30.89 23.18 31.58 22.52 32.16 21.91C33.25 20.77 34.36 19.46 35.5 17.98C36.6 16.55 37.5 15.05 38.22 13.5C38.8 12.24 39.24 10.98 39.55 9.7C39.69 9.12 39.79 8.55 39.87 8L42.25 8C42.32 8 42.38 8 42.45 7.99C42.51 7.98 42.58 7.97 42.64 7.96C42.7 7.95 42.77 7.93 42.83 7.91C42.89 7.89 42.95 7.87 43.02 7.85C43.08 7.82 43.14 7.79 43.19 7.76C43.25 7.73 43.31 7.7 43.36 7.66C43.42 7.63 43.47 7.59 43.52 7.55C43.57 7.5 43.62 7.46 43.66 7.41C43.71 7.37 43.75 7.32 43.8 7.27C43.84 7.22 43.88 7.17 43.91 7.11C43.95 7.06 43.98 7 44.01 6.94C44.04 6.88 44.07 6.83 44.1 6.77C44.12 6.7 44.14 6.64 44.16 6.58C44.18 6.52 44.2 6.45 44.21 6.39C44.22 6.33 44.23 6.26 44.24 6.2C44.25 6.13 44.25 6.07 44.25 6C44.25 5.87 44.24 5.74 44.21 5.61C44.19 5.48 44.15 5.36 44.1 5.23C44.05 5.11 43.99 5 43.91 4.89C43.84 4.78 43.76 4.68 43.66 4.59C43.57 4.49 43.47 4.41 43.36 4.34C43.25 4.26 43.14 4.2 43.02 4.15C42.89 4.1 42.77 4.06 42.64 4.04C42.51 4.01 42.38 4 42.25 4L5.75 4C5.68 4 5.62 4 5.55 4.01C5.49 4.02 5.42 4.03 5.36 4.04C5.3 4.05 5.23 4.07 5.17 4.09C5.11 4.11 5.05 4.13 4.98 4.15C4.92 4.18 4.86 4.21 4.81 4.24C4.75 4.27 4.69 4.3 4.64 4.34C4.58 4.37 4.53 4.41 4.48 4.46C4.43 4.5 4.38 4.54 4.34 4.59C4.29 4.63 4.25 4.68 4.2 4.73C4.16 4.78 4.12 4.84 4.09 4.89C4.05 4.94 4.02 5 3.99 5.06L3.9 5.24L3.84 5.42C3.82 5.48 3.8 5.55 3.79 5.61C3.78 5.68 3.77 5.74 3.76 5.81C3.75 5.87 3.75 5.94 3.75 6C3.75 6.07 3.75 6.13 3.76 6.2C3.77 6.26 3.78 6.33 3.79 6.39C3.8 6.46 3.82 6.52 3.84 6.58C3.86 6.64 3.88 6.71 3.9 6.77C3.93 6.83 3.96 6.89 3.99 6.94C4.02 7 4.05 7.06 4.09 7.11C4.12 7.17 4.16 7.22 4.2 7.27C4.25 7.32 4.29 7.37 4.34 7.42C4.38 7.46 4.43 7.51 4.48 7.55C4.53 7.59 4.58 7.63 4.64 7.66C4.69 7.7 4.75 7.73 4.81 7.76C4.87 7.8 4.92 7.82 4.98 7.85C5.05 7.87 5.11 7.9 5.17 7.91C5.23 7.93 5.3 7.95 5.36 7.96C5.42 7.98 5.49 7.98 5.55 7.99C5.62 8 5.68 8 5.75 8L8.26 8C8.37 8.58 8.52 9.18 8.7 9.8C9.08 11.06 9.57 12.31 10.18 13.55C10.94 15.08 11.87 16.56 12.95 17.98C14.01 19.36 15.05 20.61 16.05 21.71C16.62 22.33 17.3 23.03 18.09 23.8C18.14 23.85 18.2 23.91 18.25 23.95C18.22 23.98 18.19 24.01 18.16 24.03C17.32 24.8 16.59 25.51 15.97 26.15C14.9 27.28 13.8 28.57 12.69 30.03C11.6 31.45 10.68 32.94 9.95 34.49C9.36 35.74 8.89 37 8.56 38.27C8.4 38.86 8.27 39.44 8.18 40L5.75 40C5.68 40 5.62 40 5.55 40.01C5.49 40.02 5.42 40.03 5.36 40.04C5.3 40.05 5.23 40.07 5.17 40.09C5.11 40.11 5.05 40.13 4.98 40.15C4.92 40.18 4.86 40.21 4.81 40.24C4.75 40.27 4.69 40.3 4.64 40.34C4.58 40.37 4.53 40.41 4.48 40.46C4.43 40.5 4.38 40.54 4.34 40.59C4.29 40.63 4.25 40.68 4.2 40.73C4.16 40.78 4.12 40.84 4.09 40.89C4.05 40.94 4.02 41 3.99 41.06L3.9 41.24L3.84 41.42C3.82 41.48 3.8 41.55 3.79 41.61C3.78 41.68 3.77 41.74 3.76 41.81C3.75 41.87 3.75 41.94 3.75 42C3.75 42.07 3.75 42.13 3.76 42.2C3.77 42.26 3.78 42.33 3.79 42.39C3.8 42.46 3.82 42.52 3.84 42.58ZM12.42 39.29C12.35 39.53 12.3 39.77 12.25 40L36.05 40C36.03 39.7 35.99 39.4 35.94 39.09C35.77 38.1 35.49 37.11 35.07 36.11C34.55 34.86 33.84 33.64 32.93 32.46C31.84 31.03 30.75 29.8 29.66 28.77C29.26 28.39 28.85 28.02 28.43 27.68C28.18 27.47 27.85 27.21 27.44 26.89C26.92 26.49 26.55 26.19 26.36 25.98C25.77 25.39 25.48 24.73 25.48 24C25.48 23.32 25.73 22.68 26.24 22.08C26.42 21.86 26.78 21.52 27.29 21.05C28.06 20.36 28.72 19.72 29.27 19.14C30.26 18.11 31.28 16.91 32.32 15.55C33.24 14.35 34 13.11 34.59 11.82C35.06 10.81 35.42 9.79 35.66 8.76C35.72 8.5 35.77 8.25 35.82 8L12.36 8C12.41 8.22 12.47 8.43 12.54 8.66C12.85 9.7 13.26 10.74 13.77 11.77C14.41 13.08 15.2 14.33 16.13 15.55C17.12 16.84 18.08 17.99 19 19.01C19.53 19.58 20.15 20.22 20.88 20.94C21.42 21.46 21.78 21.84 21.97 22.08C22.45 22.69 22.69 23.33 22.69 24C22.69 24.69 22.44 25.34 21.92 25.94C21.74 26.16 21.38 26.51 20.85 26.99C20.08 27.7 19.42 28.34 18.87 28.91C17.89 29.94 16.89 31.12 15.87 32.46C14.95 33.66 14.18 34.91 13.56 36.2C13.08 37.23 12.7 38.26 12.42 39.29Z">
</path>
</svg>
