<svg xmlns="http://www.w3.org/2000/svg" xmlns:xlink="http://www.w3.org/1999/xlink" width="48" height="48" viewBox="0 0 48 48" fill="none">
<path d="M22.53 7.66C22.22 6.95 21.8 6.31 21.24 5.76C20.69 5.2 20.05 4.78 19.34 4.47C18.59 4.16 17.81 4 17 4L12 4C10.92 4 9.88 4.21 8.89 4.63C7.93 5.04 7.08 5.61 6.34 6.34C5.61 7.08 5.04 7.93 4.63 8.89C4.21 9.88 4 10.92 4 12L4 14.5C4 15.31 4.16 16.09 4.47 16.84C4.78 17.55 5.2 18.19 5.76 18.74C6.31 19.3 6.95 19.72 7.66 20.03C8.41 20.34 9.19 20.5 10 20.5L17 20.5C17.81 20.5 18.59 20.34 19.34 20.03C20.05 19.72 20.69 19.3 21.24 18.74C21.8 18.19 22.22 17.55 22.53 16.84C22.84 16.09 23 15.31 23 14.5L23 10C23 9.19 22.84 8.41 22.53 7.66ZM43.37 8.89C42.96 7.93 42.39 7.08 41.66 6.34C40.92 5.61 40.07 5.04 39.11 4.63C38.12 4.21 37.08 4 36 4L31.5 4C30.69 4 29.91 4.16 29.16 4.47C28.45 4.78 27.81 5.2 27.26 5.76C26.7 6.31 26.28 6.95 25.97 7.66C25.66 8.41 25.5 9.19 25.5 10L25.5 18.5C25.5 19.31 25.66 20.09 25.97 20.84C26.28 21.55 26.7 22.19 27.26 22.74C27.81 23.3 28.45 23.72 29.16 24.03C29.91 24.34 30.69 24.5 31.5 24.5L38 24.5C38.81 24.5 39.59 24.34 40.34 24.03C41.05 23.72 41.69 23.3 42.24 22.74C42.8 22.19 43.22 21.55 43.53 20.84C43.84 20.09 44 19.31 44 18.5L44 12C44 10.92 43.79 9.88 43.37 8.89ZM17.78 8.16C17.53 8.05 17.27 8 17 8L12 8C11.46 8 10.94 8.1 10.45 8.31C9.97 8.52 9.54 8.8 9.17 9.17C8.8 9.54 8.52 9.97 8.31 10.45C8.1 10.94 8 11.46 8 12L8 14.5C8 14.77 8.05 15.03 8.16 15.28C8.26 15.52 8.4 15.73 8.59 15.91C8.77 16.1 8.98 16.24 9.22 16.34C9.47 16.45 9.73 16.5 10 16.5L17 16.5C17.27 16.5 17.53 16.45 17.78 16.34C18.02 16.24 18.23 16.1 18.41 15.91C18.6 15.73 18.74 15.52 18.84 15.28C18.95 15.03 19 14.77 19 14.5L19 10C19 9.73 18.95 9.47 18.84 9.22C18.74 8.98 18.6 8.77 18.41 8.59C18.23 8.4 18.02 8.26 17.78 8.16ZM37.55 8.31C37.06 8.1 36.54 8 36 8L31.5 8C31.23 8 30.97 8.05 30.72 8.16C30.48 8.26 30.27 8.4 30.09 8.59C29.9 8.77 29.76 8.98 29.66 9.22C29.55 9.47 29.5 9.73 29.5 10L29.5 18.5C29.5 18.77 29.55 19.03 29.66 19.28C29.76 19.52 29.9 19.73 30.09 19.91C30.27 20.1 30.48 20.24 30.72 20.34C30.97 20.45 31.23 20.5 31.5 20.5L38 20.5C38.27 20.5 38.53 20.45 38.78 20.34C39.02 20.24 39.23 20.1 39.41 19.91C39.6 19.73 39.74 19.52 39.84 19.28C39.95 19.03 40 18.77 40 18.5L40 12C40 11.46 39.9 10.94 39.69 10.45C39.48 9.97 39.2 9.54 38.83 9.17C38.46 8.8 38.03 8.52 37.55 8.31ZM22.53 26.16C22.22 25.45 21.8 24.81 21.24 24.26C20.69 23.7 20.05 23.28 19.34 22.97C18.59 22.66 17.81 22.5 17 22.5L10 22.5C9.19 22.5 8.41 22.66 7.66 22.97C6.95 23.28 6.31 23.7 5.76 24.26C5.2 24.81 4.78 25.45 4.47 26.16C4.16 26.91 4 27.69 4 28.5L4 36C4 37.08 4.21 38.12 4.63 39.11C5.04 40.07 5.61 40.92 6.34 41.66C7.08 42.39 7.93 42.96 8.89 43.37C9.88 43.79 10.92 44 12 44L17 44C17.81 44 18.59 43.84 19.34 43.53C20.05 43.22 20.69 42.8 21.24 42.24C21.8 41.69 22.22 41.05 22.53 40.34C22.84 39.59 23 38.81 23 38L23 28.5C23 27.69 22.84 26.91 22.53 26.16ZM17.78 26.66C17.53 26.55 17.27 26.5 17 26.5L10 26.5C9.73 26.5 9.47 26.55 9.22 26.66C8.98 26.76 8.77 26.9 8.59 27.09C8.4 27.27 8.26 27.48 8.16 27.72C8.05 27.97 8 28.23 8 28.5L8 36C8 36.54 8.1 37.06 8.31 37.55C8.52 38.03 8.8 38.46 9.17 38.83C9.54 39.2 9.97 39.48 10.45 39.69C10.94 39.9 11.46 40 12 40L17 40C17.27 40 17.53 39.95 17.78 39.84C18.02 39.74 18.23 39.6 18.41 39.41C18.6 39.23 18.74 39.02 18.84 38.78C18.95 38.53 19 38.27 19 38L19 28.5C19 28.23 18.95 27.97 18.84 27.72C18.74 27.48 18.6 27.27 18.41 27.09C18.23 26.9 18.02 26.76 17.78 26.66ZM43.53 30.16C43.22 29.45 42.8 28.81 42.24 28.26C41.69 27.7 41.05 27.28 40.34 26.97C39.59 26.66 38.81 26.5 38 26.5L31.5 26.5C30.69 26.5 29.91 26.66 29.16 26.97C28.45 27.28 27.81 27.7 27.26 28.26C26.7 28.81 26.28 29.45 25.97 30.16C25.66 30.91 25.5 31.69 25.5 32.5L25.5 38C25.5 38.81 25.66 39.59 25.97 40.34C26.28 41.05 26.7 41.69 27.26 42.24C27.81 42.8 28.45 43.22 29.16 43.53C29.91 43.84 30.69 44 31.5 44L36 44C37.08 44 38.12 43.79 39.11 43.37C40.07 42.96 40.92 42.39 41.66 41.66C42.39 40.92 42.96 40.07 43.37 39.11C43.79 38.12 44 37.08 44 36L44 32.5C44 31.69 43.84 30.91 43.53 30.16ZM38.78 30.66C38.53 30.55 38.27 30.5 38 30.5L31.5 30.5C31.23 30.5 30.97 30.55 30.72 30.66C30.48 30.76 30.27 30.9 30.09 31.09C29.9 31.27 29.76 31.48 29.66 31.72C29.55 31.97 29.5 32.23 29.5 32.5L29.5 38C29.5 38.27 29.55 38.53 29.66 38.78C29.76 39.02 29.9 39.23 30.09 39.41C30.27 39.6 30.48 39.74 30.72 39.84C30.97 39.95 31.23 40 31.5 40L36 40C36.54 40 37.06 39.9 37.55 39.69C38.03 39.48 38.46 39.2 38.83 38.83C39.2 38.46 39.48 38.03 39.69 37.55C39.9 37.06 40 36.54 40 36L40 32.5C40 32.23 39.95 31.97 39.84 31.72C39.74 31.48 39.6 31.27 39.41 31.09C39.23 30.9 39.02 30.76 38.78 30.66Z" fill-rule="evenodd"  fill="#000000" >
</path>
</svg>
