<svg xmlns="http://www.w3.org/2000/svg" xmlns:xlink="http://www.w3.org/1999/xlink" width="48" height="48" viewBox="0 0 48 48" fill="none">
<path d="M28.1 17.07C25.57 15.15 22.42 14 19 14C10.72 14 4 20.72 4 29C4 37.28 10.72 44 19 44C27.28 44 34 37.28 34 29C34 25.58 32.85 22.43 30.93 19.9L40 10.83L40 20C40 21.1 40.9 22 42 22C43.1 22 44 21.1 44 20L44 8C44 5.79 42.21 4 40 4L28 4C26.9 4 26 4.9 26 6C26 7.1 26.9 8 28 8L37.17 8L28.1 17.07ZM19 18C12.92 18 8 22.92 8 29C8 35.08 12.92 40 19 40C25.08 40 30 35.08 30 29C30 22.92 25.08 18 19 18Z" fill-rule="evenodd"  fill="#000000" >
</path>
</svg>
