<svg xmlns="http://www.w3.org/2000/svg" xmlns:xlink="http://www.w3.org/1999/xlink" width="48" height="48" viewBox="0 0 48 48" fill="none">
<path d="M3 24C3 35.6 12.4 45 24 45C35.6 45 45 35.6 45 24C45 12.4 35.6 3 24 3C12.4 3 3 12.4 3 24ZM41 24C41 20.03 39.64 16.37 37.35 13.48L13.48 37.35C16.37 39.64 20.03 41 24 41C33.39 41 41 33.39 41 24ZM13.15 32.03C13.05 31.79 13 31.54 13 31.27C13 30.17 13.9 29.27 15 29.27C15.27 29.27 15.52 29.32 15.75 29.42L19.51 25.66C14.83 24.87 12.5 22.65 12.5 19C12.5 16.81 13.75 15.04 16.24 13.7C17.88 12.82 19.8 12.29 22 12.09C22 12.06 22 12.03 22 12L22 11C22 9.9 22.9 9 24 9C25.1 9 26 9.9 26 11L26 12C26 12.04 26 12.07 26 12.11C27.91 12.31 29.76 12.83 31.53 13.64L34.52 10.65C31.63 8.36 27.97 7 24 7C14.61 7 7 14.61 7 24C7 27.97 8.36 31.63 10.65 34.52L13.15 32.03ZM24 16C21.61 16 19.66 16.41 18.13 17.23C17.04 17.81 16.5 18.4 16.5 19C16.5 20.89 18.73 21.88 23.18 21.99L28.45 16.72C27.02 16.24 25.54 16 24 16ZM20.62 35.7C21.08 35.79 21.54 35.85 22 35.9C22 35.93 22 35.97 22 36L22 37C22 38.1 22.9 39 24 39C25.1 39 26 38.1 26 37L26 36C26 35.97 26 35.95 26 35.92C28.36 35.73 30.36 35.19 31.97 34.28C34.32 32.97 35.5 31.21 35.5 29C35.5 26.65 34.53 24.9 32.6 23.73L29.59 26.74C30.86 27.24 31.5 27.99 31.5 29C31.5 29.64 31.01 30.24 30.03 30.79C28.64 31.56 26.74 31.96 24.33 32L20.62 35.7Z" fill-rule="evenodd"  fill="#000000" >
</path>
</svg>
