<svg xmlns="http://www.w3.org/2000/svg" xmlns:xlink="http://www.w3.org/1999/xlink" width="48" height="48" viewBox="0 0 48 48" fill="none">
<path d="M7.31 9.45C7.1 9.94 7 10.46 7 11L7 37C7 37.54 7.1 38.06 7.31 38.55C7.52 39.03 7.8 39.46 8.17 39.83C8.54 40.2 8.97 40.48 9.45 40.69C9.94 40.9 10.46 41 11 41L27.5 41L27.5 35C27.5 33.92 27.71 32.88 28.13 31.89C28.54 30.93 29.11 30.08 29.84 29.34C30.58 28.61 31.43 28.04 32.39 27.63C33.38 27.21 34.42 27 35.5 27L41 27L41 11C41 10.46 40.9 9.94 40.69 9.45C40.48 8.97 40.2 8.54 39.83 8.17C39.46 7.8 39.03 7.52 38.55 7.31C38.06 7.1 37.54 7 37 7L11 7C10.46 7 9.94 7.1 9.45 7.31C8.97 7.52 8.54 7.8 8.17 8.17C7.8 8.54 7.52 8.97 7.31 9.45ZM3 11L3 37C3 38.08 3.21 39.12 3.63 40.11C4.04 41.07 4.61 41.92 5.34 42.66C6.08 43.39 6.93 43.96 7.89 44.37C8.88 44.79 9.92 45 11 45L31.5 45L31.5 44.96C32.07 44.89 32.62 44.74 33.15 44.51C33.91 44.19 34.57 43.73 35.13 43.14L43.34 34.54C43.87 33.99 44.28 33.35 44.57 32.64C44.78 32.11 44.91 31.56 44.97 31L45 31L45 11C45 9.92 44.79 8.88 44.37 7.89C43.96 6.93 43.39 6.08 42.66 5.34C41.92 4.61 41.07 4.04 40.11 3.63C39.12 3.21 38.08 3 37 3L11 3C9.92 3 8.88 3.21 7.89 3.63C6.93 4.04 6.08 4.61 5.34 5.34C4.61 6.08 4.04 6.93 3.63 7.89C3.21 8.88 3 9.92 3 11ZM40.86 31.14C40.87 31.09 40.89 31.05 40.91 31L35.5 31C34.96 31 34.44 31.1 33.95 31.31C33.47 31.52 33.04 31.8 32.67 32.17C32.3 32.54 32.02 32.97 31.81 33.45C31.6 33.94 31.5 34.46 31.5 35L31.5 40.87C31.52 40.86 31.55 40.85 31.57 40.84C31.83 40.73 32.04 40.58 32.23 40.38L40.44 31.78C40.62 31.59 40.76 31.38 40.86 31.14Z" fill-rule="evenodd"  fill="#000000" >
</path>
</svg>
