<svg xmlns="http://www.w3.org/2000/svg" xmlns:xlink="http://www.w3.org/1999/xlink" width="48" height="48" viewBox="0 0 48 48" fill="none">
<path d="M43.7946 15.8292C46.0146 13.1792 45.6746 9.2392 43.0246 7.0192C40.3846 4.7992 36.4446 5.1492 34.2246 7.7892L33.4346 8.7292C30.6846 6.9992 27.4246 5.9992 23.9246 5.9992C14.1346 5.9992 6.13459 13.9292 6.13459 23.7192C6.13459 25.4692 6.38459 27.1492 6.85459 28.7392L4.05459 32.0792C2.00459 34.5092 2.32459 38.1392 4.76459 40.1792C7.19459 42.2192 10.8146 41.9092 12.8646 39.4692L13.8246 38.3192C16.6946 40.2892 20.1746 41.4392 23.9246 41.4392C33.7146 41.4392 41.7146 33.5092 41.7146 23.7192C41.7146 22.0992 41.4946 20.5392 41.0946 19.0492L43.7946 15.8292ZM23.9246 37.4392C31.5046 37.4392 37.7146 31.2992 37.7146 23.7192C37.7146 20.0692 36.2946 16.7592 33.9746 14.3092L16.4146 35.2392C18.5746 36.6292 21.1546 37.4392 23.9246 37.4392ZM23.9246 9.9992C16.3446 9.9992 10.1346 16.1392 10.1346 23.7192C10.1346 27.1192 11.3646 30.2192 13.3946 32.6092L30.8346 11.8292C28.8046 10.6692 26.4446 9.9992 23.9246 9.9992ZM39.3646 14.8892L40.7346 13.2592C41.5346 12.3092 41.4046 10.8792 40.4546 10.0892C39.5046 9.2892 38.0846 9.4092 37.2846 10.3592L36.5546 11.2292C37.6446 12.3192 38.5846 13.5492 39.3646 14.8892ZM8.64459 32.8292L7.11459 34.6492C6.49459 35.3892 6.58459 36.4892 7.33459 37.1192C8.07459 37.7392 9.17459 37.6392 9.79459 36.8992L10.7946 35.7092C9.98459 34.8192 9.26459 33.8592 8.64459 32.8292Z" fill-rule="evenodd"  fill="#000000" >
</path>
</svg>
