<svg xmlns="http://www.w3.org/2000/svg" xmlns:xlink="http://www.w3.org/1999/xlink" width="48" height="48" viewBox="0 0 48 48" fill="none">
<path d="M28.8 6.07249C28.21 5.29249 27.49 4.69249 26.62 4.27249C25.8 3.87249 24.92 3.67249 24 3.67249C23.08 3.67249 22.2 3.87249 21.38 4.27249C20.51 4.69249 19.79 5.29249 19.2 6.07249L14.32 12.5825C12.4 15.1525 10.92 17.6025 9.88 19.9325C8.63 22.7425 8 25.3825 8 27.8425C8 30.1325 8.42 32.2925 9.25 34.3125C10.05 36.2425 11.19 37.9525 12.68 39.4325C14.14 40.8825 15.84 42.0025 17.76 42.7925C19.73 43.5925 21.81 44.0025 24 44.0025C26.19 44.0025 28.27 43.6025 30.24 42.8025C32.13 42.0325 33.83 40.9225 35.33 39.4625C36.81 37.9925 37.95 36.2925 38.75 34.3525C39.58 32.3225 40 30.1525 40 27.8425C40 25.3825 39.37 22.7425 38.12 19.9425C37.08 17.6025 35.6 15.1525 33.68 12.5825L28.8 6.07249ZM25.6 8.47249C25.4 8.21249 25.16 8.01249 24.88 7.87249C24.6 7.74249 24.31 7.67249 24 7.67249C23.69 7.67249 23.4 7.74249 23.12 7.87249C22.84 8.01249 22.6 8.21249 22.4 8.47249L17.52 14.9825C15.78 17.3025 14.45 19.5025 13.54 21.5625C12.51 23.8525 12 25.9525 12 27.8425C12 29.6025 12.32 31.2525 12.95 32.7925C13.54 34.2225 14.39 35.4925 15.5 36.5925C16.58 37.6625 17.84 38.5025 19.28 39.0925C20.76 39.6925 22.33 40.0025 24 40.0025C25.67 40.0025 27.25 39.7025 28.74 39.0925C30.15 38.5225 31.4 37.7025 32.51 36.6225C33.61 35.5325 34.45 34.2725 35.05 32.8325C35.68 31.2825 36 29.6225 36 27.8425C36 25.9525 35.49 23.8525 34.46 21.5625C33.55 19.5025 32.22 17.3025 30.48 14.9825L25.6 8.47249ZM31.96 28.1125C31.95 28.0525 31.93 27.9825 31.91 27.9225C31.89 27.8625 31.87 27.8025 31.85 27.7325C31.82 27.6725 31.79 27.6125 31.76 27.5625C31.73 27.5025 31.7 27.4425 31.66 27.3925C31.63 27.3325 31.59 27.2825 31.55 27.2325C31.5 27.1825 31.46 27.1325 31.41 27.0925C31.37 27.0425 31.32 27.0025 31.27 26.9525C31.22 26.9125 31.17 26.8725 31.11 26.8425C31.06 26.8025 31 26.7725 30.94 26.7425C30.89 26.7125 30.83 26.6825 30.77 26.6525C30.7 26.6325 30.64 26.6125 30.58 26.5925C30.52 26.5725 30.45 26.5525 30.39 26.5425C30.33 26.5325 30.26 26.5225 30.2 26.5125C30.13 26.5025 30.07 26.5025 30 26.5025C29.93 26.5025 29.87 26.5025 29.8 26.5125C29.74 26.5225 29.67 26.5325 29.61 26.5425C29.55 26.5525 29.48 26.5725 29.42 26.5925C29.36 26.6125 29.3 26.6325 29.23 26.6525C29.17 26.6825 29.11 26.7125 29.06 26.7425C29 26.7725 28.94 26.8025 28.89 26.8425C28.83 26.8725 28.78 26.9125 28.73 26.9525C28.68 27.0025 28.63 27.0425 28.59 27.0925C28.54 27.1325 28.5 27.1825 28.45 27.2325C28.41 27.2825 28.37 27.3325 28.34 27.3925C28.3 27.4425 28.27 27.5025 28.24 27.5625C28.21 27.6125 28.18 27.6725 28.15 27.7325C28.13 27.8025 28.11 27.8625 28.09 27.9225C28.07 27.9825 28.05 28.0525 28.04 28.1125C28.03 28.1725 28.02 28.2425 28.01 28.3025C28 28.3725 28 28.4325 28 28.5025C28 28.9825 27.91 29.4325 27.73 29.8625C27.55 30.2825 27.3 30.6525 26.98 30.9825C26.65 31.3025 26.28 31.5525 25.86 31.7325C25.43 31.9125 24.98 32.0025 24.5 32.0025C24.43 32.0025 24.37 32.0025 24.3 32.0125C24.24 32.0225 24.17 32.0325 24.11 32.0425C24.05 32.0525 23.98 32.0725 23.92 32.0925C23.86 32.1125 23.8 32.1325 23.73 32.1525C23.67 32.1825 23.61 32.2125 23.56 32.2425C23.5 32.2725 23.44 32.3025 23.39 32.3425C23.33 32.3725 23.28 32.4125 23.23 32.4525C23.18 32.5025 23.13 32.5425 23.09 32.5925C23.04 32.6325 23 32.6825 22.95 32.7325C22.91 32.7825 22.87 32.8325 22.84 32.8925C22.8 32.9425 22.77 33.0025 22.74 33.0625C22.71 33.1125 22.68 33.1725 22.65 33.2325C22.63 33.3025 22.61 33.3625 22.59 33.4225C22.57 33.4825 22.55 33.5525 22.54 33.6125C22.53 33.6725 22.52 33.7425 22.51 33.8025C22.5 33.8725 22.5 33.9325 22.5 34.0025C22.5 34.0725 22.5 34.1325 22.51 34.2025C22.52 34.2625 22.53 34.3325 22.54 34.3925C22.55 34.4525 22.57 34.5225 22.59 34.5825C22.61 34.6425 22.63 34.7025 22.65 34.7725C22.68 34.8325 22.71 34.8925 22.74 34.9425C22.77 35.0025 22.8 35.0625 22.84 35.1125C22.87 35.1725 22.91 35.2225 22.95 35.2725C23 35.3225 23.04 35.3725 23.09 35.4125C23.13 35.4625 23.18 35.5025 23.23 35.5525C23.28 35.5925 23.33 35.6325 23.39 35.6625C23.44 35.7025 23.5 35.7325 23.56 35.7625C23.61 35.7925 23.67 35.8225 23.73 35.8525C23.8 35.8725 23.86 35.8925 23.92 35.9125C23.98 35.9325 24.05 35.9525 24.11 35.9625C24.17 35.9725 24.24 35.9825 24.3 35.9925C24.37 36.0025 24.43 36.0025 24.5 36.0025C25.52 36.0025 26.49 35.8025 27.42 35.4125C28.32 35.0325 29.11 34.5025 29.8 33.8025C30.5 33.1125 31.03 32.3225 31.41 31.4225C31.8 30.4925 32 29.5225 32 28.5025C32 28.4325 32 28.3725 31.99 28.3025C31.98 28.2425 31.97 28.1725 31.96 28.1125Z" fill-rule="evenodd"  fill="#000000" >
</path>
</svg>
