<svg xmlns="http://www.w3.org/2000/svg" xmlns:xlink="http://www.w3.org/1999/xlink" width="48" height="48" viewBox="0 0 48 48" fill="none">
<path d="M24.0005 3.00049C12.4005 3.00049 3.00049 12.4005 3.00049 24.0005C3.00049 35.6005 12.4005 45.0005 24.0005 45.0005C35.6005 45.0005 45.0005 35.6005 45.0005 24.0005C45.0005 12.4005 35.6005 3.00049 24.0005 3.00049ZM24.0005 41.0005C33.3905 41.0005 41.0005 33.3905 41.0005 24.0005C41.0005 14.6105 33.3905 7.00049 24.0005 7.00049C14.6105 7.00049 7.00049 14.6105 7.00049 24.0005C7.00049 33.3905 14.6105 41.0005 24.0005 41.0005ZM32.0005 20.0005C33.1005 20.0005 34.0005 19.1005 34.0005 18.0005C34.0005 16.9005 33.1005 16.0005 32.0005 16.0005L16.0005 16.0005C14.9005 16.0005 14.0005 16.9005 14.0005 18.0005C14.0005 19.1005 14.9005 20.0005 16.0005 20.0005L32.0005 20.0005ZM34.0005 30.0005C34.0005 28.9005 33.1005 28.0005 32.0005 28.0005L16.0005 28.0005C14.9005 28.0005 14.0005 28.9005 14.0005 30.0005C14.0005 31.1005 14.9005 32.0005 16.0005 32.0005L32.0005 32.0005C33.1005 32.0005 34.0005 31.1005 34.0005 30.0005Z" fill-rule="evenodd"  fill="#000000" >
</path>
</svg>
