<svg xmlns="http://www.w3.org/2000/svg" xmlns:xlink="http://www.w3.org/1999/xlink" width="48" height="48" viewBox="0 0 48 48" fill="none">
<path d="M22.73 34.55C22.78 34.59 22.83 34.63 22.89 34.66C22.94 34.7 23 34.73 23.06 34.76C23.11 34.79 23.17 34.82 23.23 34.85C23.3 34.87 23.36 34.89 23.42 34.91C23.48 34.93 23.55 34.95 23.61 34.96C23.67 34.97 23.74 34.98 23.8 34.99C23.87 35 23.93 35 24 35C24.07 35 24.13 35 24.2 34.99C24.26 34.98 24.33 34.97 24.39 34.96C24.45 34.95 24.52 34.93 24.58 34.91C24.64 34.89 24.7 34.87 24.77 34.85C24.83 34.82 24.89 34.79 24.94 34.76C25 34.73 25.06 34.7 25.11 34.66C25.17 34.63 25.22 34.59 25.27 34.55C25.32 34.5 25.37 34.46 25.41 34.41C25.46 34.37 25.5 34.32 25.55 34.27C25.59 34.22 25.63 34.17 25.66 34.11C25.7 34.06 25.73 34 25.76 33.94C25.79 33.89 25.82 33.83 25.85 33.77C25.87 33.7 25.89 33.64 25.91 33.58C25.93 33.52 25.95 33.45 25.96 33.39C25.97 33.33 25.98 33.26 25.99 33.2C26 33.13 26 33.07 26 33L26 26.81C26.01 26.75 26.05 26.72 26.11 26.71L26.17 26.7L26.22 26.69C27.46 26.44 28.62 25.98 29.71 25.32C30.77 24.68 31.7 23.88 32.49 22.93C33.29 21.96 33.9 20.89 34.33 19.73C34.78 18.51 35 17.26 35 15.96C35 14.47 34.71 13.05 34.13 11.69C33.58 10.38 32.79 9.22 31.77 8.21C30.76 7.2 29.6 6.41 28.28 5.86C26.92 5.29 25.49 5 24 5C22.51 5 21.08 5.29 19.72 5.86C18.4 6.41 17.24 7.2 16.23 8.21C15.21 9.22 14.42 10.38 13.87 11.69C13.29 13.05 13 14.47 13 15.96C13 16.03 13 16.09 13.01 16.16C13.02 16.22 13.03 16.29 13.04 16.35C13.05 16.41 13.07 16.48 13.09 16.54L13.15 16.72L13.24 16.9C13.27 16.96 13.3 17.01 13.34 17.07C13.38 17.12 13.41 17.18 13.46 17.23C13.5 17.28 13.54 17.32 13.59 17.37C13.63 17.42 13.68 17.46 13.73 17.5C13.78 17.54 13.84 17.58 13.89 17.62C13.94 17.66 14 17.69 14.06 17.72C14.12 17.75 14.18 17.78 14.24 17.8C14.3 17.83 14.36 17.85 14.42 17.87C14.48 17.89 14.55 17.9 14.61 17.92C14.67 17.93 14.74 17.94 14.8 17.95C14.87 17.95 14.93 17.96 15 17.96C15.07 17.96 15.13 17.95 15.2 17.95C15.26 17.94 15.33 17.93 15.39 17.92C15.45 17.9 15.52 17.89 15.58 17.87C15.64 17.85 15.7 17.83 15.76 17.8C15.82 17.78 15.88 17.75 15.94 17.72C16 17.69 16.06 17.66 16.11 17.62C16.16 17.58 16.22 17.54 16.27 17.5C16.32 17.46 16.37 17.42 16.41 17.37C16.46 17.32 16.5 17.28 16.54 17.23C16.59 17.18 16.62 17.12 16.66 17.07C16.7 17.01 16.73 16.96 16.76 16.9L16.85 16.72L16.91 16.54C16.93 16.48 16.95 16.41 16.96 16.35C16.97 16.29 16.98 16.22 16.99 16.16C17 16.09 17 16.03 17 15.96C17 15.01 17.18 14.11 17.55 13.25C17.9 12.42 18.4 11.68 19.05 11.04C19.69 10.4 20.44 9.9 21.27 9.55C22.14 9.18 23.05 9 24 9C24.95 9 25.86 9.18 26.73 9.55C27.56 9.9 28.31 10.4 28.95 11.04C29.6 11.68 30.1 12.42 30.45 13.25C30.82 14.11 31 15.02 31 15.96C31 16.78 30.86 17.58 30.58 18.34C30.31 19.08 29.92 19.76 29.41 20.37C28.9 20.98 28.31 21.49 27.64 21.9C26.96 22.31 26.23 22.6 25.46 22.76C25 22.84 24.57 22.98 24.17 23.2C23.75 23.43 23.38 23.72 23.07 24.07C22.75 24.42 22.5 24.81 22.32 25.24C22.13 25.69 22.03 26.16 22 26.64L22 33C22 33.07 22 33.13 22.01 33.2C22.02 33.26 22.03 33.33 22.04 33.39C22.05 33.45 22.07 33.52 22.09 33.58C22.11 33.64 22.13 33.7 22.15 33.77C22.18 33.83 22.21 33.89 22.24 33.94C22.27 34 22.3 34.06 22.34 34.11C22.37 34.17 22.41 34.22 22.45 34.27C22.5 34.32 22.54 34.37 22.59 34.41C22.63 34.46 22.68 34.5 22.73 34.55ZM21 40C21 41.66 22.34 43 24 43C25.66 43 27 41.66 27 40C27 38.34 25.66 37 24 37C22.34 37 21 38.34 21 40Z" fill-rule="evenodd"  fill="#000000" >
</path>
</svg>
