<svg xmlns="http://www.w3.org/2000/svg" xmlns:xlink="http://www.w3.org/1999/xlink" width="48" height="48" viewBox="0 0 48 48" fill="none">
<path d="M19.41 17.36C19.68 16.8 20.05 16.3 20.53 15.86C21.01 15.43 21.55 15.09 22.16 14.86C22.77 14.62 23.38 14.5 24 14.5C24.62 14.5 25.23 14.62 25.84 14.86C26.45 15.09 26.99 15.43 27.47 15.86C27.95 16.3 28.32 16.8 28.59 17.36C28.86 17.96 29 18.59 29 19.27C29 19.93 28.89 20.54 28.66 21.1C28.45 21.63 28.16 22.09 27.77 22.5C27.38 22.91 26.92 23.23 26.39 23.48C25.85 23.74 25.26 23.9 24.63 23.97C24.28 24 23.95 24.09 23.63 24.24C23.32 24.39 23.03 24.59 22.79 24.85C22.55 25.1 22.36 25.39 22.22 25.72C22.08 26.05 22.01 26.4 22 26.77L22 28.5C22 28.57 22 28.63 22.01 28.7C22.02 28.76 22.03 28.83 22.04 28.89C22.05 28.95 22.07 29.02 22.09 29.08C22.11 29.14 22.13 29.2 22.15 29.27C22.18 29.33 22.21 29.39 22.24 29.44C22.27 29.5 22.3 29.56 22.34 29.61C22.37 29.67 22.41 29.72 22.45 29.77C22.5 29.82 22.54 29.87 22.59 29.91C22.63 29.96 22.68 30 22.73 30.05C22.78 30.09 22.83 30.13 22.89 30.16C22.94 30.2 23 30.23 23.06 30.26C23.11 30.29 23.17 30.32 23.23 30.35C23.3 30.37 23.36 30.39 23.42 30.41C23.48 30.43 23.55 30.45 23.61 30.46C23.67 30.47 23.74 30.48 23.8 30.49C23.87 30.5 23.93 30.5 24 30.5C24.07 30.5 24.13 30.5 24.2 30.49C24.26 30.48 24.33 30.47 24.39 30.46C24.45 30.45 24.52 30.43 24.58 30.41C24.64 30.39 24.7 30.37 24.77 30.35C24.83 30.32 24.89 30.29 24.94 30.26C25 30.23 25.06 30.2 25.11 30.16C25.17 30.13 25.22 30.09 25.27 30.05C25.32 30 25.37 29.96 25.41 29.91C25.46 29.87 25.5 29.82 25.55 29.77C25.59 29.72 25.63 29.67 25.66 29.61C25.7 29.56 25.73 29.5 25.76 29.44C25.79 29.39 25.82 29.33 25.85 29.27C25.87 29.2 25.89 29.14 25.91 29.08C25.93 29.02 25.95 28.95 25.96 28.89C25.97 28.83 25.98 28.76 25.99 28.7C26 28.63 26 28.57 26 28.5L26 27.8C26.73 27.65 27.43 27.42 28.1 27.1C29.08 26.64 29.93 26.03 30.65 25.27C31.4 24.48 31.98 23.59 32.38 22.58C32.79 21.54 33 20.44 33 19.27C33 18 32.74 16.81 32.21 15.68C31.72 14.63 31.04 13.7 30.16 12.9C29.32 12.14 28.37 11.55 27.3 11.13C26.23 10.71 25.13 10.5 24 10.5C22.87 10.5 21.77 10.71 20.7 11.13C19.63 11.55 18.68 12.14 17.84 12.9C16.96 13.7 16.28 14.63 15.79 15.68C15.26 16.81 15 18 15 19.27C15 19.34 15 19.4 15.01 19.47C15.02 19.53 15.03 19.6 15.04 19.66C15.05 19.73 15.07 19.79 15.09 19.85C15.11 19.91 15.13 19.98 15.15 20.04C15.18 20.1 15.21 20.16 15.24 20.21C15.27 20.27 15.3 20.33 15.34 20.38C15.37 20.44 15.41 20.49 15.45 20.54C15.5 20.59 15.54 20.64 15.59 20.69C15.63 20.73 15.68 20.78 15.73 20.82C15.78 20.86 15.83 20.9 15.89 20.93C15.94 20.97 16 21 16.06 21.04C16.11 21.07 16.17 21.09 16.23 21.12C16.3 21.14 16.36 21.17 16.42 21.19C16.48 21.2 16.55 21.22 16.61 21.23C16.67 21.25 16.74 21.26 16.8 21.26C16.87 21.27 16.93 21.27 17 21.27C17.07 21.27 17.13 21.27 17.2 21.26C17.26 21.26 17.33 21.25 17.39 21.23C17.45 21.22 17.52 21.2 17.58 21.19C17.64 21.17 17.7 21.14 17.77 21.12C17.83 21.09 17.89 21.07 17.94 21.04C18 21 18.06 20.97 18.11 20.93C18.17 20.9 18.22 20.86 18.27 20.82C18.32 20.78 18.37 20.73 18.41 20.69C18.46 20.64 18.5 20.59 18.55 20.54C18.59 20.49 18.63 20.44 18.66 20.38C18.7 20.33 18.73 20.27 18.76 20.21C18.79 20.16 18.82 20.1 18.85 20.04C18.87 19.98 18.89 19.91 18.91 19.85C18.93 19.79 18.95 19.73 18.96 19.66C18.97 19.6 18.98 19.53 18.99 19.47C19 19.4 19 19.34 19 19.27C19 18.59 19.14 17.96 19.41 17.36ZM15.83 43.35C18.43 44.45 21.15 45 24 45C26.85 45 29.57 44.45 32.17 43.35C34.69 42.29 36.91 40.79 38.85 38.85C40.79 36.91 42.29 34.69 43.35 32.17C44.45 29.57 45 26.85 45 24C45 21.15 44.45 18.43 43.35 15.83C42.29 13.31 40.79 11.09 38.85 9.15C36.91 7.21 34.69 5.71 32.17 4.65C29.57 3.55 26.85 3 24 3C21.15 3 18.43 3.55 15.83 4.65C13.31 5.71 11.09 7.21 9.15 9.15C7.21 11.09 5.71 13.31 4.65 15.83C3.55 18.43 3 21.15 3 24C3 26.85 3.55 29.57 4.65 32.17C5.71 34.69 7.21 36.91 9.15 38.85C11.09 40.79 13.31 42.29 15.83 43.35ZM11.98 11.98C10.41 13.55 9.2 15.35 8.34 17.39C7.45 19.49 7 21.69 7 24C7 26.31 7.45 28.51 8.34 30.61C9.2 32.65 10.41 34.45 11.98 36.02C13.55 37.59 15.35 38.8 17.39 39.66C19.49 40.55 21.69 41 24 41C26.31 41 28.51 40.55 30.61 39.66C32.65 38.8 34.45 37.59 36.02 36.02C37.59 34.45 38.8 32.65 39.66 30.61C40.55 28.51 41 26.31 41 24C41 21.69 40.55 19.49 39.66 17.39C38.8 15.35 37.59 13.55 36.02 11.98C34.45 10.41 32.65 9.2 30.61 8.34C28.51 7.45 26.31 7 24 7C21.69 7 19.49 7.45 17.39 8.34C15.35 9.2 13.55 10.41 11.98 11.98ZM26.5 34.5C26.5 33.12 25.38 32 24 32C22.62 32 21.5 33.12 21.5 34.5C21.5 35.88 22.62 37 24 37C25.38 37 26.5 35.88 26.5 34.5Z" fill-rule="evenodd"  fill="#000000" >
</path>
</svg>
