<svg xmlns="http://www.w3.org/2000/svg" xmlns:xlink="http://www.w3.org/1999/xlink" width="48" height="48" viewBox="0 0 48 48" fill="none">
<path d="M34.5 8C34.5 6.89543 35.3954 6 36.5 6C37.6046 6 38.5 6.89543 38.5 8L38.5 10.5L41.0049 10.5C42.1095 10.5 43.0049 11.3954 43.0049 12.5C43.0049 13.6046 42.1095 14.5 41.0049 14.5L38.5 14.5L38.5 17.0048C38.5 18.1094 37.6046 19.0048 36.5 19.0048C35.3954 19.0048 34.5 18.1094 34.5 17.0048L34.5 14.5L32 14.5C30.8954 14.5 30 13.6046 30 12.5C30 11.3954 30.8954 10.5 32 10.5L34.5 10.5L34.5 8ZM34.0164 27.721C37.3929 26.3893 37.3929 21.6107 34.0164 20.279L26.633 17.367L23.721 9.98359C22.3893 6.60707 17.6107 6.60707 16.279 9.9836L13.367 17.367L5.98356 20.279C2.60704 21.6107 2.60704 26.3893 5.98357 27.721L13.367 30.633L16.279 38.0164C17.6107 41.3929 22.3893 41.3929 23.721 38.0164L26.633 30.633L34.0164 27.721ZM32.5487 24L25.1654 21.088C24.0881 20.6631 23.3369 19.9119 22.912 18.8346L20 11.4513L17.088 18.8346C16.663 19.9119 15.9119 20.6631 14.8346 21.088L7.45124 24L14.8346 26.912C15.9119 27.3369 16.6631 28.0881 17.088 29.1654L20 36.5487L22.912 29.1654C23.3369 28.0881 24.0881 27.3369 25.1654 26.912L32.5487 24ZM34.5 30C34.5 28.8954 35.3954 28 36.5 28C37.6046 28 38.5 28.8954 38.5 30L38.5 33.5L42 33.5C43.1046 33.5 44 34.3954 44 35.5C44 36.6046 43.1046 37.5 42 37.5L38.5 37.5L38.5 41C38.5 42.1046 37.6046 43 36.5 43C35.3954 43 34.5 42.1046 34.5 41L34.5 37.5L31 37.5C29.8954 37.5 29 36.6046 29 35.5C29 34.3954 29.8954 33.5 31 33.5L34.5 33.5L34.5 30Z" fill-rule="evenodd"  fill="#000000" >
</path>
</svg>
