<svg xmlns="http://www.w3.org/2000/svg" xmlns:xlink="http://www.w3.org/1999/xlink" width="48" height="48" viewBox="0 0 48 48" fill="none">
<path d="M43.55 12.73C43.5 12.68 43.46 12.63 43.41 12.59C43.37 12.54 43.32 12.5 43.27 12.45C43.22 12.41 43.17 12.37 43.11 12.34C43.06 12.3 43 12.27 42.94 12.24C42.88 12.21 42.83 12.18 42.77 12.15C42.7 12.13 42.64 12.11 42.58 12.09C42.52 12.07 42.45 12.05 42.39 12.04C42.33 12.03 42.26 12.02 42.2 12.01C42.13 12 42.07 12 42 12C41.93 12 41.87 12 41.8 12.01C41.74 12.02 41.67 12.03 41.61 12.04C41.55 12.05 41.48 12.07 41.42 12.09C41.36 12.11 41.3 12.13 41.23 12.15C41.17 12.18 41.12 12.21 41.06 12.24C41 12.27 40.94 12.3 40.89 12.34C40.83 12.37 40.78 12.41 40.73 12.45C40.68 12.5 40.63 12.54 40.59 12.59L19.42 33.76C19.23 33.94 19.01 34.09 18.77 34.19C18.52 34.29 18.27 34.34 18 34.34C17.73 34.34 17.48 34.29 17.23 34.19C16.99 34.09 16.77 33.94 16.58 33.76L7.41 24.59C7.37 24.54 7.32 24.5 7.27 24.46C7.09 24.31 6.89 24.2 6.68 24.12C6.46 24.04 6.23 24 6 24C5.87 24 5.74 24.01 5.61 24.04C5.48 24.06 5.36 24.1 5.23 24.15C5.11 24.2 5 24.26 4.89 24.34C4.78 24.41 4.68 24.49 4.59 24.59C4.54 24.63 4.5 24.68 4.45 24.73C4.41 24.78 4.37 24.83 4.34 24.89C4.3 24.94 4.27 25 4.24 25.06C4.21 25.11 4.18 25.17 4.15 25.23C4.13 25.3 4.11 25.36 4.09 25.42C4.07 25.48 4.05 25.55 4.04 25.61C4.03 25.67 4.02 25.74 4.01 25.8C4 25.87 4 25.93 4 26C4 26.07 4 26.13 4.01 26.2C4.02 26.26 4.03 26.33 4.04 26.39C4.05 26.45 4.07 26.52 4.09 26.58C4.11 26.64 4.13 26.7 4.15 26.77C4.18 26.83 4.21 26.88 4.24 26.94C4.27 27 4.3 27.06 4.34 27.11C4.37 27.17 4.41 27.22 4.45 27.27C4.5 27.32 4.54 27.37 4.59 27.41L13.76 36.58C14.32 37.15 14.97 37.58 15.71 37.88C16.44 38.19 17.21 38.34 18 38.34C18.8 38.34 19.56 38.19 20.29 37.88C21.03 37.58 21.68 37.15 22.24 36.58L43.41 15.41C43.46 15.37 43.5 15.32 43.55 15.27C43.59 15.22 43.63 15.17 43.66 15.11C43.7 15.06 43.73 15 43.76 14.94C43.79 14.89 43.82 14.83 43.85 14.77C43.87 14.7 43.89 14.64 43.91 14.58C43.93 14.52 43.95 14.45 43.96 14.39C43.97 14.33 43.98 14.26 43.99 14.2C44 14.13 44 14.07 44 14C44 13.93 44 13.87 43.99 13.8C43.98 13.74 43.97 13.67 43.96 13.61C43.95 13.55 43.93 13.48 43.91 13.42C43.89 13.36 43.87 13.3 43.85 13.23C43.82 13.17 43.79 13.11 43.76 13.06C43.73 13 43.7 12.94 43.66 12.89C43.63 12.83 43.59 12.78 43.55 12.73Z"   fill="#000000" >
</path>
</svg>
