<svg xmlns="http://www.w3.org/2000/svg" xmlns:xlink="http://www.w3.org/1999/xlink" width="48" height="48" viewBox="0 0 48 48" fill="none">
<path d="M43 12C43 12.5621 42.7681 13.0701 42.3947 13.4334L21.0753 34.1766C19.7555 35.4608 18.1748 36.1029 16.3333 36.1029C14.4918 36.1029 12.9112 35.4608 11.5913 34.1766L2.60708 25.4352L2.60529 25.4335C2.23192 25.0701 2 24.5621 2 24C2 22.8954 2.89543 22 4 22C4.54243 22 5.03443 22.2159 5.39471 22.5666L5.39626 22.5681L14.3807 31.3097C15.6824 32.5762 16.9842 32.5762 18.2859 31.3097L39.6053 10.5666C39.9656 10.2159 40.4576 10 41 10C42.1046 10 43 10.8954 43 12ZM44.0004 20C43.4481 20 42.9481 20.2239 42.5862 20.5858L32.4143 30.7573C31.6332 31.5383 30.3669 31.5383 29.5858 30.7572L29.4144 30.5858L26.5859 33.4141L26.7573 33.5856C29.1004 35.9288 32.8995 35.9289 35.2427 33.5858L45.4145 23.4142C45.7765 23.0523 46.0004 22.5523 46.0004 22C46.0004 20.8954 45.1049 20 44.0004 20Z" fill-rule="evenodd"  fill="#000000" >
</path>
</svg>
