<svg xmlns="http://www.w3.org/2000/svg" xmlns:xlink="http://www.w3.org/1999/xlink" width="48" height="48" viewBox="0 0 48 48" fill="none">
<path d="M32.2035 18.3435L40.1352 19.2819C40.9827 19.3822 41.3233 20.4296 40.6968 21.0091L34.8345 26.4318C34.1964 27.0221 33.743 27.7306 33.4745 28.5573C33.2059 29.384 33.1563 30.2237 33.3256 31.0763L34.8815 38.9101C35.0477 39.7471 34.1567 40.3943 33.4121 39.9775L26.4428 36.0755C25.6841 35.6506 24.8699 35.4382 24.0002 35.4382C23.1306 35.4382 22.3164 35.6506 21.5576 36.0755L14.5883 39.9775C13.8437 40.3943 12.9527 39.7471 13.1189 38.9101L14.6748 31.0763C14.8441 30.2237 14.7945 29.384 14.5259 28.5573C14.2574 27.7306 13.804 27.0221 13.1659 26.4318L7.3036 21.0091C6.67714 20.4296 7.01769 19.3822 7.86516 19.2819L15.7969 18.3435C16.6606 18.2413 17.4443 17.9346 18.148 17.4235C18.8517 16.9124 19.3856 16.2619 19.7499 15.4721L23.0921 8.22483C23.4495 7.44988 24.5509 7.44988 24.9083 8.22483L28.2505 15.4721C28.6148 16.2619 29.1487 16.9124 29.8524 17.4235C30.5561 17.9346 31.3398 18.2413 32.2035 18.3435ZM43.413 23.9454C46.5453 21.048 44.8426 15.8109 40.6052 15.3096L32.6735 14.3712C32.5007 14.3508 32.3439 14.2895 32.2032 14.1872C32.0625 14.085 31.9557 13.9549 31.8829 13.7969L28.5406 6.5497C26.7537 2.67492 21.2467 2.67492 19.4598 6.5497L16.1175 13.7969C16.0447 13.9549 15.9379 14.085 15.7972 14.1872C15.6565 14.2895 15.4997 14.3508 15.3269 14.3712L7.39521 15.3096C3.15783 15.8109 1.45508 21.048 4.5874 23.9454L10.4497 29.3682C10.5773 29.4862 10.668 29.6279 10.7217 29.7933C10.7754 29.9586 10.7854 30.1266 10.7515 30.2971L9.19559 38.1309C8.3644 42.3158 12.8195 45.552 16.5424 43.4676L23.5117 39.5657C23.6634 39.4807 23.8263 39.4382 24.0002 39.4382C24.1741 39.4382 24.337 39.4807 24.4887 39.5657L31.458 43.4677C35.1809 45.552 39.636 42.3158 38.8048 38.1309L37.2489 30.2971C37.215 30.1266 37.225 29.9586 37.2787 29.7933C37.3324 29.6279 37.4231 29.4862 37.5507 29.3682L43.413 23.9454Z" fill-rule="evenodd"  fill="#000000" >
</path>
</svg>
