<svg xmlns="http://www.w3.org/2000/svg" xmlns:xlink="http://www.w3.org/1999/xlink" width="48" height="48" viewBox="0 0 48 48" fill="none">
<path d="M7.66 23.7C8.08 25.18 8.7 26.58 9.51 27.9C10.31 29.19 11.26 30.36 12.38 31.4C13.19 32.16 14.06 32.84 15 33.42L15 40C15 40.81 15.16 41.59 15.47 42.34C15.78 43.05 16.2 43.69 16.76 44.24C17.31 44.8 17.95 45.22 18.66 45.53C19.41 45.84 20.19 46 21 46L27 46C27.81 46 28.59 45.84 29.34 45.53C30.05 45.22 30.69 44.8 31.24 44.24C31.8 43.69 32.22 43.05 32.53 42.34C32.84 41.59 33 40.81 33 40L33 33.42C33.94 32.84 34.81 32.16 35.62 31.4C36.74 30.36 37.69 29.19 38.49 27.9C39.3 26.58 39.92 25.18 40.34 23.7C40.78 22.17 41 20.6 41 19C41 16.7 40.55 14.49 39.66 12.38C38.8 10.35 37.59 8.55 36.02 6.98C34.45 5.41 32.65 4.2 30.62 3.34C28.51 2.45 26.3 2 24 2C21.7 2 19.49 2.45 17.38 3.34C15.35 4.2 13.55 5.41 11.98 6.98C10.41 8.55 9.2 10.35 8.34 12.38C7.45 14.49 7 16.7 7 19C7 20.6 7.22 22.17 7.66 23.7ZM19 38L19 40C19 40.27 19.05 40.53 19.16 40.78C19.26 41.02 19.4 41.23 19.59 41.41C19.77 41.6 19.98 41.74 20.22 41.84C20.47 41.95 20.73 42 21 42L27 42C27.27 42 27.53 41.95 27.78 41.84C28.02 41.74 28.23 41.6 28.41 41.41C28.6 41.23 28.74 41.02 28.84 40.78C28.95 40.53 29 40.27 29 40L29 38L19 38ZM15.11 28.48C15.96 29.28 16.91 29.96 17.94 30.5L19 31.06L19 34L29 34L29 31.06L30.06 30.5C31.09 29.96 32.04 29.28 32.89 28.48C33.74 27.69 34.47 26.79 35.08 25.8C35.7 24.79 36.17 23.72 36.5 22.59C36.83 21.43 37 20.23 37 19C37 17.24 36.66 15.55 35.98 13.94C35.32 12.39 34.39 11.01 33.19 9.81C31.99 8.61 30.61 7.68 29.06 7.02C27.45 6.34 25.76 6 24 6C22.24 6 20.55 6.34 18.94 7.02C17.39 7.68 16.01 8.61 14.81 9.81C13.61 11.01 12.68 12.39 12.02 13.94C11.34 15.55 11 17.24 11 19C11 20.23 11.17 21.43 11.5 22.59C11.83 23.72 12.3 24.79 12.92 25.8C13.53 26.79 14.26 27.69 15.11 28.48Z" fill-rule="evenodd"  fill="#000000" >
</path>
</svg>
