<svg xmlns="http://www.w3.org/2000/svg" xmlns:xlink="http://www.w3.org/1999/xlink" width="48" height="48" viewBox="0 0 48 48" fill="none">
<path d="M25 1L23 1C20.2386 1 18 3.23858 18 6L18 9.77893C14.9898 11.7416 13 15.1384 13 19L13 29C13 32.8615 14.9898 36.2584 18 38.2211L18 42C18 44.7614 20.2386 47 23 47L25 47C27.7614 47 30 44.7614 30 42L30 38.2211C33.0102 36.2583 35 32.8615 35 29L35 19C35 15.1385 33.0102 11.7416 30 9.77894L30 6C30 3.23858 27.7614 1 25 1ZM26 8.18138L26 6C26 5.44772 25.5523 5 25 5L23 5C22.4477 5 22 5.44772 22 6L22 8.18138C22.6486 8.06225 23.317 8 24 8C24.683 8 25.3514 8.06225 26 8.18138ZM26 39.8186C25.3514 39.9378 24.683 40 24 40C23.317 40 22.6486 39.9378 22 39.8186L22 42C22 42.5523 22.4477 43 23 43L25 43C25.5523 43 26 42.5523 26 42L26 39.8186ZM17 19C17 15.134 20.134 12 24 12C27.866 12 31 15.134 31 19L31 29C31 32.866 27.866 36 24 36C20.134 36 17 32.866 17 29L17 19Z" fill-rule="evenodd"  fill="#000000" >
</path>
</svg>
