<svg xmlns="http://www.w3.org/2000/svg" xmlns:xlink="http://www.w3.org/1999/xlink" width="48" height="48" viewBox="0 0 48 48" fill="none">
<path d="M19 13C19 11.9 18.1 11 17 11L10 11C5.58 11 2 14.58 2 19L2 29C2 33.42 5.58 37 10 37L11 37C12.1 37 13 36.1 13 35C13 33.9 12.1 33 11 33L10 33C7.79 33 6 31.21 6 29L6 19C6 16.79 7.79 15 10 15L17 15C18.1 15 19 14.1 19 13ZM23.45 11.75L14.46 22.73C13.39 24.04 14.32 26 16 26L21.78 26L15.47 33.72C15.18 34.07 15 34.51 15 35C15 36.1 15.9 37 17 37C17.63 37 18.2 36.71 18.56 36.25L27.55 25.27C28.62 23.96 27.69 22 26 22L20.22 22L26.54 14.28C26.83 13.93 27 13.49 27 13C27 11.9 26.11 11 25 11C24.37 11 23.81 11.29 23.45 11.75ZM32 15C34.21 15 36 16.79 36 19L36 29C36 31.21 34.21 33 32 33L25 33C23.9 33 23 33.9 23 35C23 36.1 23.9 37 25 37L32 37C36.42 37 40 33.42 40 29L40 19C40 14.58 36.42 11 32 11L31 11C29.9 11 29 11.9 29 13C29 14.1 29.9 15 31 15L32 15ZM46 29L46 19C46 17.9 45.1 17 44 17C42.9 17 42 17.9 42 19L42 29C42 30.1 42.9 31 44 31C45.1 31 46 30.1 46 29Z" fill-rule="evenodd"  fill="#000000" >
</path>
</svg>
