<svg xmlns="http://www.w3.org/2000/svg" xmlns:xlink="http://www.w3.org/1999/xlink" width="48" height="48" viewBox="0 0 48 48" fill="none">
<path d="M40 29L40 19C40 14.58 36.42 11 32 11L10 11C5.58 11 2 14.58 2 19L2 29C2 33.42 5.58 37 10 37L32 37C36.42 37 40 33.42 40 29ZM32 15L10 15C7.79 15 6 16.79 6 19L6 29C6 31.21 7.79 33 10 33L32 33C34.21 33 36 31.21 36 29L36 19C36 16.79 34.21 15 32 15ZM46 29L46 19C46 17.9 45.1 17 44 17C42.9 17 42 17.9 42 19L42 29C42 30.1 42.9 31 44 31C45.1 31 46 30.1 46 29ZM23.83 24L27.41 20.42C28.2 19.63 28.19 18.37 27.41 17.59C26.63 16.81 25.37 16.8 24.58 17.59L21 21.17L17.42 17.59C16.63 16.8 15.37 16.81 14.59 17.59C13.81 18.36 13.8 19.63 14.59 20.42L18.17 24L14.59 27.59C13.81 28.36 13.81 29.64 14.59 30.41C15.36 31.19 16.64 31.19 17.41 30.41L21 26.83L24.59 30.41C25.36 31.19 26.64 31.19 27.41 30.41C28.19 29.64 28.19 28.36 27.41 27.59L23.83 24Z" fill-rule="evenodd"  fill="#000000" >
</path>
</svg>
