<svg xmlns="http://www.w3.org/2000/svg" xmlns:xlink="http://www.w3.org/1999/xlink" width="48" height="48" viewBox="0 0 48 48" fill="none">
<path d="M46 17.5C46 16.62 45.83 15.77 45.49 14.97C45.16 14.19 44.7 13.5 44.1 12.9C43.5 12.3 42.81 11.84 42.03 11.51C41.23 11.17 40.38 11 39.5 11L37.32 11C36.96 11 36.63 10.91 36.32 10.73C36.01 10.55 35.77 10.3 35.59 9.99L34.47 8.03C33.75 6.78 32.78 5.8 31.53 5.08C30.29 4.36 28.95 4 27.52 4L20.48 4C19.05 4 17.71 4.36 16.47 5.08C15.22 5.8 14.25 6.78 13.53 8.03L12.41 9.99C12.23 10.3 11.99 10.55 11.68 10.73C11.37 10.91 11.04 11 10.68 11L8.5 11C7.62 11 6.77 11.17 5.97 11.51C5.19 11.84 4.5 12.3 3.9 12.9C3.3 13.5 2.84 14.19 2.51 14.97C2.17 15.77 2 16.62 2 17.5L2 35C2 36.08 2.21 37.12 2.63 38.11C3.04 39.07 3.61 39.92 4.34 40.66C5.08 41.39 5.93 41.96 6.89 42.37C7.88 42.79 8.92 43 10 43L38 43C39.08 43 40.12 42.79 41.11 42.37C42.07 41.96 42.92 41.39 43.66 40.66C44.39 39.92 44.96 39.07 45.37 38.11C45.79 37.12 46 36.08 46 35L46 17.5ZM41.27 15.73C41.04 15.5 40.77 15.32 40.48 15.2C40.17 15.07 39.84 15 39.5 15L37.32 15C36.24 15 35.24 14.73 34.3 14.19C33.37 13.65 32.64 12.91 32.11 11.97L30.99 10.01C30.64 9.39 30.15 8.9 29.53 8.54C28.91 8.18 28.24 8 27.52 8L20.48 8C19.76 8 19.09 8.18 18.47 8.54C17.85 8.9 17.36 9.39 17.01 10.01L15.89 11.97C15.36 12.91 14.63 13.65 13.7 14.19C12.76 14.73 11.76 15 10.68 15L8.5 15C8.16 15 7.83 15.07 7.52 15.2C7.23 15.32 6.96 15.5 6.73 15.73C6.5 15.96 6.32 16.23 6.2 16.52C6.07 16.83 6 17.16 6 17.5L6 35C6 35.54 6.1 36.06 6.31 36.55C6.52 37.03 6.8 37.46 7.17 37.83C7.54 38.2 7.97 38.48 8.45 38.69C8.94 38.9 9.46 39 10 39L38 39C38.54 39 39.06 38.9 39.55 38.69C40.03 38.48 40.46 38.2 40.83 37.83C41.2 37.46 41.48 37.03 41.69 36.55C41.9 36.06 42 35.54 42 35L42 17.5C42 17.16 41.93 16.83 41.8 16.52C41.68 16.23 41.5 15.96 41.27 15.73ZM20.11 15.79C18.91 16.29 17.85 17.01 16.93 17.93C16.01 18.85 15.29 19.91 14.79 21.11C14.26 22.35 14 23.64 14 25C14 26.36 14.26 27.65 14.79 28.89C15.29 30.09 16.01 31.15 16.93 32.07C17.85 32.99 18.91 33.71 20.11 34.21C21.35 34.74 22.64 35 24 35C25.36 35 26.65 34.74 27.89 34.21C29.09 33.71 30.15 32.99 31.07 32.07C31.99 31.15 32.71 30.09 33.21 28.89C33.74 27.65 34 26.36 34 25C34 23.64 33.74 22.35 33.21 21.11C32.71 19.91 31.99 18.85 31.07 17.93C30.15 17.01 29.09 16.29 27.89 15.79C26.65 15.26 25.36 15 24 15C22.64 15 21.35 15.26 20.11 15.79ZM18.47 22.66C18.16 23.41 18 24.18 18 25C18 25.82 18.16 26.59 18.47 27.34C18.77 28.05 19.2 28.69 19.76 29.24C20.31 29.8 20.95 30.23 21.66 30.53C22.41 30.84 23.18 31 24 31C24.82 31 25.59 30.84 26.34 30.53C27.05 30.23 27.69 29.8 28.24 29.24C28.8 28.69 29.23 28.05 29.53 27.34C29.84 26.59 30 25.82 30 25C30 24.18 29.84 23.41 29.53 22.66C29.23 21.95 28.8 21.31 28.24 20.76C27.69 20.2 27.05 19.77 26.34 19.47C25.59 19.16 24.82 19 24 19C23.18 19 22.41 19.16 21.66 19.47C20.95 19.77 20.31 20.2 19.76 20.76C19.2 21.31 18.77 21.95 18.47 22.66Z" fill-rule="evenodd"  fill="#000000" >
</path>
</svg>
