<svg xmlns="http://www.w3.org/2000/svg" xmlns:xlink="http://www.w3.org/1999/xlink" width="48" height="48" viewBox="0 0 48 48" fill="none">
<path d="M9 5C4.58 5 1 8.58 1 13L1 29C1 33.42 4.58 37 9 37L20.16 37C20.05 36.16 20 35.27 20 34.33L20 33L9 33C6.79 33 5 31.21 5 29L5 13C5 10.79 6.79 9 9 9L41.93 9C40.55 6.61 37.96 5 35 5L9 5ZM41 13L31 13C27.69 13 25 15.69 25 19L25 37C25 40.31 27.69 43 31 43L41 43C44.31 43 47 40.31 47 37L47 19C47 15.69 44.31 13 41 13ZM29 19L29 37C29 38.1 29.9 39 31 39L41 39C42.1 39 43 38.1 43 37L43 19C43 17.9 42.1 17 41 17L31 17C29.9 17 29 17.9 29 19ZM41 35C41 33.9 40.1 33 39 33L33 33C31.9 33 31 33.9 31 35C31 36.1 31.9 37 33 37L39 37C40.1 37 41 36.1 41 35ZM20.54 39L18 39C16.9 39 16 39.9 16 41C16 42.1 16.9 43 18 43L22.33 43C21.53 41.88 20.93 40.55 20.54 39Z" fill-rule="evenodd"  fill="#000000" >
</path>
</svg>
