<svg xmlns="http://www.w3.org/2000/svg" xmlns:xlink="http://www.w3.org/1999/xlink" width="48" height="48" viewBox="0 0 48 48" fill="none">
<path d="M35 5L9 5C4.58 5 1 8.58 1 13L1 29C1 33.42 4.58 37 9 37L17.03 37C17.01 36.67 17 36.34 17 36L17 33L9 33C6.79 33 5 31.21 5 29L5 13C5 10.79 6.79 9 9 9L35 9C37.21 9 39 10.79 39 13L39 14L43 14L43 13C43 8.58 39.42 5 35 5ZM47 26C47 21.58 43.42 18 39 18L29 18C24.58 18 21 21.58 21 26L21 35C21 39.42 24.58 43 29 43L39 43C43.42 43 47 39.42 47 35L47 26ZM29 22C26.79 22 25 23.79 25 26L25 35C25 37.21 26.79 39 29 39L39 39C41.21 39 43 37.21 43 35L43 26C43 23.79 41.21 22 39 22L29 22ZM37 37C38.1 37 39 36.1 39 35C39 33.9 38.1 33 37 33L31 33C29.9 33 29 33.9 29 35C29 36.1 29.9 37 31 37L37 37ZM17.28 39L13 39C11.9 39 11 39.9 11 41C11 42.1 11.9 43 13 43L18.93 43C18.14 41.88 17.58 40.54 17.28 39Z" fill-rule="evenodd"  fill="#000000" >
</path>
</svg>
