<svg xmlns="http://www.w3.org/2000/svg" xmlns:xlink="http://www.w3.org/1999/xlink" width="48" height="48" viewBox="0 0 48 48" fill="none">
<path d="M38 44C38.81 44 39.59 43.84 40.34 43.53C41.05 43.22 41.69 42.8 42.24 42.24C42.31 42.17 42.38 42.1 42.44 42.03C42.9 41.53 43.26 40.96 43.53 40.34C43.84 39.59 44 38.81 44 38L44 30.33C44 30.04 43.98 29.73 43.93 29.4C43.93 29.38 43.93 29.36 43.92 29.34L40.53 9.01C40.41 8.3 40.18 7.63 39.82 7.01C39.47 6.4 39.03 5.87 38.49 5.42C37.96 4.97 37.36 4.62 36.71 4.38C36.03 4.13 35.33 4 34.61 4L13.82 4C13.11 4 12.42 4.12 11.76 4.37C11.11 4.6 10.52 4.94 9.99 5.38C9.46 5.82 9.02 6.34 8.67 6.93C8.31 7.54 8.06 8.19 7.93 8.89L4.1 29.26C4.03 29.59 4 29.96 4 30.37L4 38C4 38.81 4.16 39.59 4.47 40.34C4.78 41.05 5.2 41.69 5.76 42.24C6.31 42.8 6.95 43.22 7.66 43.53C8.41 43.84 9.19 44 10 44L38 44ZM8.37 28.22C8.9 28.08 9.44 28 10 28L38 28C38.58 28 39.14 28.08 39.68 28.24L36.59 9.67C36.51 9.19 36.28 8.79 35.91 8.47C35.54 8.16 35.1 8 34.61 8L13.82 8C13.34 8 12.92 8.15 12.55 8.46C12.18 8.77 11.95 9.16 11.85 9.63L8.37 28.22ZM8.16 38.78C8.26 39.02 8.4 39.23 8.59 39.41C8.77 39.6 8.98 39.74 9.22 39.84C9.47 39.95 9.73 40 10 40L38 40C38.27 40 38.53 39.95 38.78 39.84C39.02 39.74 39.23 39.6 39.41 39.41C39.6 39.23 39.74 39.02 39.84 38.78C39.95 38.53 40 38.27 40 38L40 34C40 33.73 39.95 33.47 39.84 33.22C39.74 32.98 39.6 32.77 39.41 32.59C39.23 32.4 39.02 32.26 38.78 32.16C38.53 32.05 38.27 32 38 32L10 32C9.73 32 9.47 32.05 9.22 32.16C8.98 32.26 8.77 32.4 8.59 32.59C8.4 32.77 8.26 32.98 8.16 33.22C8.05 33.47 8 33.73 8 34L8 38C8 38.27 8.05 38.53 8.16 38.78ZM34 38.5C35.38 38.5 36.5 37.38 36.5 36C36.5 34.62 35.38 33.5 34 33.5C32.62 33.5 31.5 34.62 31.5 36C31.5 37.38 32.62 38.5 34 38.5Z" fill-rule="evenodd"  fill="#000000" >
</path>
</svg>
