<svg xmlns="http://www.w3.org/2000/svg" xmlns:xlink="http://www.w3.org/1999/xlink" width="48" height="48" viewBox="0 0 48 48" fill="none">
<path d="M24 3C12.4 3 3 12.4 3 24L3 39C3 42.31 5.69 45 9 45L11 45C15.42 45 19 41.42 19 37L19 32C19 27.58 15.42 24 11 24L7 24C7 14.61 14.61 7 24 7C33.39 7 41 14.61 41 24L37 24C32.58 24 29 27.58 29 32L29 37C29 41.42 32.58 45 37 45L39 45C42.31 45 45 42.31 45 39L45 24C45 12.4 35.6 3 24 3ZM37 28C34.79 28 33 29.79 33 32L33 37C33 39.21 34.79 41 37 41L39 41C40.1 41 41 40.1 41 39L41 28L37 28ZM9 41L11 41C13.21 41 15 39.21 15 37L15 32C15 29.79 13.21 28 11 28L7 28L7 39C7 40.1 7.9 41 9 41Z" fill-rule="evenodd"  fill="#000000" >
</path>
</svg>
