<svg xmlns="http://www.w3.org/2000/svg" xmlns:xlink="http://www.w3.org/1999/xlink" width="48" height="48" viewBox="0 0 48 48" fill="none">
<path d="M10 7L38 7C42.4183 7 46 10.5817 46 15L46 33C46 37.4183 42.4183 41 38 41L10 41C5.58172 41 2 37.4183 2 33L2 15C2 10.5817 5.58172 7 10 7ZM10 11C7.79086 11 6 12.7909 6 15L6 33C6 35.2091 7.79086 37 10 37L38 37C40.2091 37 42 35.2091 42 33L42 15C42 12.7909 40.2091 11 38 11L10 11ZM12 15C10.6193 15 9.5 16.1193 9.5 17.5C9.5 18.8807 10.6193 20 12 20C13.3807 20 14.5 18.8807 14.5 17.5C14.5 16.1193 13.3807 15 12 15ZM20 15C18.6193 15 17.5 16.1193 17.5 17.5C17.5 18.8807 18.6193 20 20 20C21.3807 20 22.5 18.8807 22.5 17.5C22.5 16.1193 21.3807 15 20 15ZM28 15C26.6193 15 25.5 16.1193 25.5 17.5C25.5 18.8807 26.6193 20 28 20C29.3807 20 30.5 18.8807 30.5 17.5C30.5 16.1193 29.3807 15 28 15ZM36 15C34.6193 15 33.5 16.1193 33.5 17.5C33.5 18.8807 34.6193 20 36 20C37.3807 20 38.5 18.8807 38.5 17.5C38.5 16.1193 37.3807 15 36 15ZM12 22C10.6193 22 9.5 23.1193 9.5 24.5C9.5 25.8807 10.6193 27 12 27C13.3807 27 14.5 25.8807 14.5 24.5C14.5 23.1193 13.3807 22 12 22ZM20 22C18.6193 22 17.5 23.1193 17.5 24.5C17.5 25.8807 18.6193 27 20 27C21.3807 27 22.5 25.8807 22.5 24.5C22.5 23.1193 21.3807 22 20 22ZM28 22C26.6193 22 25.5 23.1193 25.5 24.5C25.5 25.8807 26.6193 27 28 27C29.3807 27 30.5 25.8807 30.5 24.5C30.5 23.1193 29.3807 22 28 22ZM36 22C34.6193 22 33.5 23.1193 33.5 24.5C33.5 25.8807 34.6193 27 36 27C37.3807 27 38.5 25.8807 38.5 24.5C38.5 23.1193 37.3807 22 36 22ZM17 32.0002C17.0001 33.1048 17.8956 34.0001 19.0002 34L29.0002 33.999C30.1048 33.9989 31.0001 33.1034 31 31.9988C30.9999 30.8942 30.1044 29.9989 28.9998 29.999L18.9998 30C17.8952 30.0001 16.9999 30.8956 17 32.0002Z" fill-rule="evenodd"  fill="#000000" >
</path>
</svg>
