<svg xmlns="http://www.w3.org/2000/svg" xmlns:xlink="http://www.w3.org/1999/xlink" width="48" height="48" viewBox="0 0 48 48" fill="none">
<path d="M10.3736 30L7.65877 37.0586C7.29888 37.9943 7.98958 39 8.99212 39L39.008 39C40.0105 39 40.7012 37.9943 40.3413 37.0586L37.6265 30L10.3736 30ZM41 27.6285L44.0747 35.6227C45.4423 39.1784 42.8177 43 39.008 43L8.99212 43C5.18246 43 2.5578 39.1784 3.92539 35.6227L6.99997 27.6288L6.99997 11.8095C6.99997 8.60101 9.60098 6 12.8095 6L35.1905 6C38.399 6 41 8.60101 41 11.8095L41 27.6285ZM37 26L37 11.8095C37 10.8102 36.1898 10 35.1905 10L12.8095 10C11.8101 10 11 10.8102 11 11.8095L11 26L37 26Z" fill-rule="evenodd"  fill="#000000" >
</path>
</svg>
