<svg xmlns="http://www.w3.org/2000/svg" xmlns:xlink="http://www.w3.org/1999/xlink" width="48" height="48" viewBox="0 0 48 48" fill="none">
<path d="M31.37 11.89C30.97 10.93 30.39 10.08 29.66 9.34C28.92 8.61 28.07 8.03 27.11 7.63C26.12 7.21 25.09 7 24 7C22.91 7 21.88 7.21 20.89 7.63C19.93 8.03 19.08 8.61 18.34 9.34C17.61 10.08 17.03 10.93 16.63 11.89C16.21 12.88 16 13.91 16 15L16 27C16 27.99 16.17 28.93 16.52 29.83L31.93 13.93C31.84 13.23 31.65 12.55 31.37 11.89ZM35.06 10.33C34.45 8.89 33.59 7.62 32.48 6.52C31.38 5.41 30.11 4.55 28.67 3.94C27.18 3.31 25.63 3 24 3C22.37 3 20.82 3.31 19.33 3.94C17.89 4.55 16.62 5.41 15.52 6.52C14.41 7.62 13.55 8.89 12.94 10.33C12.31 11.82 12 13.37 12 15L12 27C12 28.63 12.31 30.18 12.94 31.67C13.12 32.1 13.32 32.51 13.55 32.9L11.72 34.79C11.17 33.79 10.72 32.71 10.38 31.55C10.25 31.09 10.14 30.64 10.06 30.21C10.02 30.01 10 29.87 9.99 29.78L9.96 29.6C9.95 29.54 9.93 29.48 9.91 29.42C9.9 29.36 9.88 29.31 9.85 29.25C9.83 29.19 9.81 29.14 9.78 29.08L9.69 28.93C9.65 28.87 9.62 28.82 9.58 28.78C9.54 28.73 9.51 28.68 9.46 28.64C9.42 28.59 9.38 28.55 9.33 28.51C9.29 28.47 9.24 28.43 9.19 28.39C9.14 28.36 9.09 28.32 9.04 28.29C8.99 28.26 8.94 28.23 8.88 28.2C8.83 28.18 8.77 28.15 8.71 28.13C8.66 28.11 8.6 28.09 8.54 28.07C8.48 28.06 8.42 28.04 8.36 28.03C8.3 28.02 8.24 28.01 8.18 28.01C8.12 28 8.06 28 8 28C7.93 28 7.87 28 7.8 28.01C7.74 28.02 7.67 28.03 7.61 28.04C7.55 28.05 7.48 28.07 7.42 28.09C7.36 28.11 7.3 28.13 7.23 28.15C7.17 28.18 7.11 28.21 7.06 28.24C7 28.27 6.94 28.3 6.89 28.34C6.83 28.37 6.78 28.41 6.73 28.45C6.68 28.5 6.63 28.54 6.59 28.59C6.54 28.63 6.5 28.68 6.45 28.73C6.41 28.78 6.37 28.83 6.34 28.89C6.3 28.94 6.27 29 6.24 29.06C6.21 29.11 6.18 29.17 6.15 29.23C6.13 29.3 6.11 29.36 6.09 29.42C6.07 29.48 6.05 29.55 6.04 29.61C6.03 29.67 6.02 29.74 6.01 29.8C6 29.87 6 29.93 6 30C6 30.07 6 30.15 6.01 30.22C6.03 30.41 6.07 30.65 6.13 30.95C6.23 31.5 6.37 32.08 6.54 32.67C7.07 34.51 7.85 36.22 8.83 37.77L6.56 40.11C6.47 40.2 6.39 40.3 6.32 40.41C6.25 40.52 6.19 40.63 6.15 40.75C6.1 40.87 6.06 40.99 6.04 41.12C6.01 41.24 6 41.37 6 41.5C6 41.57 6 41.63 6.01 41.7C6.02 41.76 6.03 41.83 6.04 41.89C6.05 41.95 6.07 42.02 6.09 42.08C6.11 42.14 6.13 42.2 6.15 42.27C6.18 42.33 6.21 42.38 6.24 42.44C6.27 42.5 6.3 42.56 6.34 42.61C6.37 42.67 6.41 42.72 6.45 42.77C6.5 42.82 6.54 42.87 6.59 42.91C6.63 42.96 6.68 43 6.73 43.05C6.78 43.09 6.83 43.13 6.89 43.16C6.94 43.2 7 43.23 7.06 43.26C7.11 43.29 7.17 43.32 7.23 43.35C7.3 43.37 7.36 43.39 7.42 43.41C7.48 43.43 7.55 43.45 7.61 43.46C7.67 43.47 7.74 43.48 7.8 43.49C7.87 43.5 7.93 43.5 8 43.5C8.13 43.5 8.27 43.49 8.4 43.46C8.53 43.43 8.66 43.39 8.78 43.34C8.9 43.29 9.02 43.23 9.13 43.15C9.24 43.07 9.34 42.99 9.44 42.89L40.94 10.39C41.03 10.3 41.11 10.2 41.18 10.09C41.25 9.98 41.31 9.87 41.35 9.75C41.4 9.63 41.44 9.51 41.46 9.38C41.49 9.26 41.5 9.13 41.5 9C41.5 8.93 41.5 8.87 41.49 8.8C41.48 8.74 41.47 8.67 41.46 8.61C41.45 8.55 41.43 8.48 41.41 8.42C41.39 8.36 41.37 8.3 41.35 8.23C41.32 8.17 41.29 8.11 41.26 8.06C41.23 8 41.2 7.94 41.16 7.89C41.13 7.83 41.09 7.78 41.05 7.73C41 7.68 40.96 7.63 40.91 7.59C40.87 7.54 40.82 7.5 40.77 7.45C40.72 7.41 40.67 7.37 40.61 7.34C40.56 7.3 40.5 7.27 40.44 7.24C40.38 7.21 40.33 7.18 40.27 7.15C40.2 7.13 40.14 7.11 40.08 7.09C40.02 7.07 39.95 7.05 39.89 7.04C39.83 7.03 39.76 7.02 39.7 7.01C39.63 7 39.57 7 39.5 7C39.37 7 39.23 7.01 39.1 7.04C38.97 7.07 38.84 7.11 38.72 7.16C38.6 7.21 38.48 7.27 38.37 7.35C38.26 7.43 38.16 7.51 38.06 7.61L35.17 10.59C35.13 10.51 35.1 10.42 35.06 10.33ZM32 24.68L32 27C32 28.09 31.79 29.12 31.37 30.11C30.97 31.07 30.39 31.92 29.66 32.66C28.92 33.39 28.07 33.97 27.11 34.37C26.12 34.79 25.09 35 24 35C23.38 35 22.78 34.93 22.19 34.8L19.12 37.97C19.19 38 19.26 38.03 19.33 38.06C20.82 38.69 22.37 39 24 39C25.63 39 27.18 38.69 28.67 38.06C30.11 37.45 31.38 36.59 32.48 35.48C33.59 34.38 34.45 33.11 35.06 31.67C35.69 30.18 36 28.63 36 27L36 20.55L32 24.68ZM14.38 43.12C17.11 44.71 20.32 45.5 24 45.5C27.68 45.5 30.89 44.71 33.62 43.12C35.83 41.83 37.67 40.07 39.12 37.84C40.13 36.27 40.92 34.54 41.46 32.67C41.63 32.08 41.77 31.5 41.87 30.95C41.93 30.65 41.97 30.41 41.99 30.22C42 30.15 42 30.07 42 30C42 29.93 42 29.87 41.99 29.8C41.98 29.74 41.97 29.67 41.96 29.61C41.95 29.55 41.93 29.48 41.91 29.42C41.89 29.36 41.87 29.3 41.85 29.23C41.82 29.17 41.79 29.11 41.76 29.06C41.73 29 41.7 28.94 41.66 28.89C41.63 28.83 41.59 28.78 41.55 28.73C41.5 28.68 41.46 28.63 41.41 28.59C41.37 28.54 41.32 28.5 41.27 28.45C41.22 28.41 41.17 28.37 41.11 28.34C41.06 28.3 41 28.27 40.94 28.24C40.88 28.21 40.83 28.18 40.77 28.15C40.7 28.13 40.64 28.11 40.58 28.09C40.52 28.07 40.45 28.05 40.39 28.04C40.33 28.03 40.26 28.02 40.2 28.01C40.13 28 40.07 28 40 28C39.94 28 39.88 28 39.82 28.01C39.76 28.01 39.7 28.02 39.64 28.03C39.58 28.04 39.52 28.06 39.46 28.07C39.4 28.09 39.34 28.11 39.29 28.13C39.23 28.15 39.17 28.18 39.12 28.2C39.06 28.23 39.01 28.26 38.96 28.29C38.91 28.32 38.86 28.36 38.81 28.39C38.76 28.43 38.71 28.47 38.67 28.51C38.62 28.55 38.58 28.59 38.54 28.64C38.49 28.68 38.46 28.73 38.42 28.78C38.38 28.82 38.35 28.87 38.31 28.93L38.22 29.08C38.19 29.14 38.17 29.19 38.15 29.25C38.12 29.31 38.1 29.36 38.09 29.42C38.07 29.48 38.05 29.54 38.04 29.6L38.01 29.78C38 29.87 37.98 30.01 37.94 30.21C37.86 30.64 37.75 31.09 37.62 31.55C37.18 33.05 36.56 34.42 35.76 35.66C34.66 37.36 33.27 38.7 31.61 39.66C29.5 40.89 26.96 41.5 24 41.5C21.37 41.5 19.07 41.02 17.11 40.05L14.22 43.02C14.27 43.06 14.33 43.09 14.38 43.12Z" fill-rule="evenodd"  fill="#000000" >
</path>
</svg>
