<svg xmlns="http://www.w3.org/2000/svg" xmlns:xlink="http://www.w3.org/1999/xlink" width="48" height="48" viewBox="0 0 48 48" fill="none">
<path d="M18 3L30 3C34.4183 3 38 6.58172 38 11L38 37C38 41.4183 34.4183 45 30 45L18 45C13.5817 45 10 41.4183 10 37L10 11C10 6.58172 13.5817 3 18 3ZM18 7C15.7909 7 14 8.79086 14 11L14 37C14 39.2091 15.7909 41 18 41L30 41C32.2091 41 34 39.2091 34 37L34 11C34 8.79086 32.2091 7 30 7L18 7ZM19.0002 38C17.8956 38.0001 17.0001 37.1048 17 36.0002C16.9999 34.8956 17.8952 34.0001 18.9998 34L28.9998 33.999C30.1044 33.9989 30.9999 34.8942 31 35.9988C31.0001 37.1034 30.1048 37.9989 29.0002 37.999L19.0002 38Z" fill-rule="evenodd"  fill="#000000" >
</path>
</svg>
