<svg xmlns="http://www.w3.org/2000/svg" xmlns:xlink="http://www.w3.org/1999/xlink" width="48" height="48" viewBox="0 0 48 48" fill="none">
<path d="M40.1 35.2C41.13 35.18 42.1 34.92 43 34.4C43.9 33.87 44.62 33.17 45.15 32.29C45.72 31.35 46 30.32 46 29.2L46 18.8C46 17.68 45.72 16.65 45.15 15.71C44.62 14.83 43.9 14.13 43 13.6C42.1 13.08 41.13 12.82 40.1 12.8C39 12.78 37.97 13.05 37 13.61L36.99 13.61C36.95 12.67 36.74 11.76 36.37 10.89C35.96 9.93 35.39 9.08 34.66 8.34C33.92 7.61 33.07 7.04 32.11 6.63C31.12 6.21 30.08 6 29 6L10.5 6C9.42 6 8.38 6.21 7.39 6.63C6.43 7.04 5.58 7.61 4.84 8.34C4.11 9.08 3.54 9.93 3.13 10.89C2.71 11.88 2.5 12.92 2.5 14L2.5 34C2.5 35.08 2.71 36.12 3.13 37.11C3.54 38.07 4.11 38.92 4.84 39.66C5.58 40.39 6.43 40.96 7.39 41.37C8.38 41.79 9.42 42 10.5 42L29 42C30.08 42 31.12 41.79 32.11 41.37C33.07 40.96 33.92 40.39 34.66 39.66C35.39 38.92 35.96 38.07 36.37 37.11C36.74 36.24 36.95 35.33 36.99 34.39L37 34.39C37.97 34.95 39 35.22 40.1 35.2ZM41 30.93C41.31 30.75 41.55 30.52 41.72 30.23C41.91 29.92 42 29.58 42 29.2L42 18.8C42 18.42 41.91 18.08 41.72 17.77C41.55 17.48 41.31 17.25 41 17.07C40.7 16.89 40.37 16.8 40.03 16.8C39.67 16.79 39.33 16.88 39 17.07L33 20.54L33 14C33 13.46 32.9 12.94 32.69 12.45C32.48 11.97 32.2 11.54 31.83 11.17C31.46 10.8 31.03 10.52 30.55 10.31C30.06 10.1 29.54 10 29 10L10.5 10C9.96 10 9.44 10.1 8.95 10.31C8.47 10.52 8.04 10.8 7.67 11.17C7.3 11.54 7.02 11.97 6.81 12.45C6.6 12.94 6.5 13.46 6.5 14L6.5 34C6.5 34.54 6.6 35.06 6.81 35.55C7.02 36.03 7.3 36.46 7.67 36.83C8.04 37.2 8.47 37.48 8.95 37.69C9.44 37.9 9.96 38 10.5 38L29 38C29.54 38 30.06 37.9 30.55 37.69C31.03 37.48 31.46 37.2 31.83 36.83C32.2 36.46 32.48 36.03 32.69 35.55C32.9 35.06 33 34.54 33 34L33 27.46L39 30.93C39.33 31.12 39.67 31.21 40.03 31.2C40.37 31.2 40.7 31.11 41 30.93ZM15.5 21C16.88 21 18 19.88 18 18.5C18 17.12 16.88 16 15.5 16C14.12 16 13 17.12 13 18.5C13 19.88 14.12 21 15.5 21Z" fill-rule="evenodd"  fill="#000000" >
</path>
</svg>
