<svg xmlns="http://www.w3.org/2000/svg" xmlns:xlink="http://www.w3.org/1999/xlink" width="48" height="48" viewBox="0 0 48 48" fill="none">
<path d="M41.46 7.11C41.45 7.05 41.43 6.98 41.41 6.92C41.39 6.86 41.37 6.8 41.35 6.73C41.32 6.67 41.29 6.61 41.26 6.56C41.23 6.5 41.2 6.44 41.16 6.39C41.13 6.33 41.09 6.28 41.05 6.23C41 6.18 40.96 6.13 40.91 6.09C40.87 6.04 40.82 6 40.77 5.95C40.72 5.91 40.67 5.87 40.61 5.84C40.56 5.8 40.5 5.77 40.44 5.74C40.38 5.71 40.33 5.68 40.27 5.65C40.2 5.63 40.14 5.61 40.08 5.59C40.02 5.57 39.95 5.55 39.89 5.54C39.83 5.53 39.76 5.52 39.7 5.51C39.63 5.5 39.57 5.5 39.5 5.5C39.37 5.5 39.24 5.51 39.12 5.54C38.99 5.56 38.87 5.6 38.75 5.65C38.63 5.7 38.51 5.75 38.41 5.83C38.3 5.9 38.2 5.98 38.11 6.07L35.18 8.92C35.02 8.72 34.84 8.53 34.66 8.34C33.92 7.61 33.07 7.04 32.11 6.63C31.12 6.21 30.08 6 29 6L10.5 6C9.42 6 8.38 6.21 7.39 6.63C6.43 7.04 5.58 7.61 4.84 8.34C4.11 9.08 3.54 9.93 3.13 10.89C2.71 11.88 2.5 12.92 2.5 14L2.5 34C2.5 35.08 2.71 36.12 3.13 37.11C3.42 37.79 3.79 38.41 4.24 38.98L2.61 40.57C2.51 40.66 2.42 40.76 2.35 40.87C2.27 40.98 2.21 41.1 2.16 41.22C2.11 41.34 2.07 41.47 2.04 41.6C2.01 41.73 2 41.87 2 42C2 42.07 2 42.13 2.01 42.2C2.02 42.26 2.03 42.33 2.04 42.39C2.05 42.45 2.07 42.52 2.09 42.58C2.11 42.64 2.13 42.7 2.15 42.77C2.18 42.83 2.21 42.88 2.24 42.94C2.27 43 2.3 43.06 2.34 43.11C2.37 43.17 2.41 43.22 2.45 43.27C2.5 43.32 2.54 43.37 2.59 43.41C2.63 43.46 2.68 43.5 2.73 43.55C2.78 43.59 2.83 43.63 2.89 43.66C2.94 43.7 3 43.73 3.06 43.76C3.11 43.79 3.17 43.82 3.23 43.85C3.3 43.87 3.36 43.89 3.42 43.91C3.48 43.93 3.55 43.95 3.61 43.96C3.67 43.97 3.74 43.98 3.8 43.99C3.87 44 3.93 44 4 44C4.13 44 4.26 43.99 4.38 43.96C4.51 43.94 4.63 43.9 4.75 43.85C4.87 43.8 4.99 43.75 5.09 43.67C5.2 43.6 5.3 43.52 5.39 43.43L40.89 8.93C40.99 8.84 41.08 8.74 41.15 8.63C41.23 8.52 41.29 8.4 41.34 8.28C41.39 8.16 41.43 8.03 41.46 7.9C41.49 7.77 41.5 7.63 41.5 7.5C41.5 7.43 41.5 7.37 41.49 7.3C41.48 7.24 41.47 7.17 41.46 7.11ZM32.29 11.73C32.16 11.53 32 11.34 31.83 11.17C31.46 10.8 31.03 10.52 30.55 10.31C30.06 10.1 29.54 10 29 10L10.5 10C9.96 10 9.44 10.1 8.95 10.31C8.47 10.52 8.04 10.8 7.67 11.17C7.3 11.54 7.02 11.97 6.81 12.45C6.6 12.94 6.5 13.46 6.5 14L6.5 34C6.5 34.54 6.6 35.06 6.81 35.55C6.9 35.77 7.01 35.97 7.14 36.17L32.29 11.73ZM43 34.4C43.9 33.87 44.62 33.17 45.15 32.29C45.72 31.35 46 30.32 46 29.2L46 18.8C46 17.68 45.72 16.65 45.15 15.71C44.62 14.83 43.9 14.13 43 13.6C42.71 13.43 42.4 13.29 42.1 13.17L36.74 18.37L39 17.07C39.33 16.88 39.67 16.79 40.03 16.8C40.37 16.8 40.7 16.89 41 17.07C41.31 17.25 41.55 17.48 41.72 17.77C41.91 18.08 42 18.42 42 18.8L42 29.2C42 29.58 41.91 29.92 41.72 30.23C41.55 30.52 41.31 30.75 41 30.93C40.7 31.11 40.37 31.2 40.03 31.2C39.67 31.21 39.33 31.12 39 30.93L33 27.46L33 34C33 34.54 32.9 35.06 32.69 35.55C32.48 36.03 32.2 36.46 31.83 36.83C31.46 37.2 31.03 37.48 30.55 37.69C30.06 37.9 29.54 38 29 38L16.55 38L12.43 42L29 42C30.08 42 31.12 41.79 32.11 41.37C33.07 40.96 33.92 40.39 34.66 39.66C35.39 38.92 35.96 38.07 36.37 37.11C36.74 36.24 36.95 35.33 36.99 34.39L37 34.39C37.97 34.95 39 35.22 40.1 35.2C41.13 35.18 42.1 34.92 43 34.4ZM13 18.5C13 19.88 14.12 21 15.5 21C16.88 21 18 19.88 18 18.5C18 17.12 16.88 16 15.5 16C14.12 16 13 17.12 13 18.5Z" fill-rule="evenodd"  fill="#000000" >
</path>
</svg>
