<svg xmlns="http://www.w3.org/2000/svg" xmlns:xlink="http://www.w3.org/1999/xlink" width="48" height="48" viewBox="0 0 48 48" fill="none">
<path d="M21.27 25.45C21.22 25.41 21.17 25.37 21.11 25.34C21.06 25.3 21 25.27 20.94 25.24C20.89 25.21 20.83 25.18 20.77 25.15C20.7 25.13 20.64 25.11 20.58 25.09C20.52 25.07 20.45 25.05 20.39 25.04C20.33 25.03 20.26 25.02 20.2 25.01C20.13 25 20.07 25 20 25C19.93 25 19.87 25 19.8 25.01C19.74 25.02 19.67 25.03 19.61 25.04C19.55 25.05 19.48 25.07 19.42 25.09C19.36 25.11 19.3 25.13 19.23 25.15C19.17 25.18 19.11 25.21 19.06 25.24C19 25.27 18.94 25.3 18.89 25.34C18.83 25.37 18.78 25.41 18.73 25.45C18.68 25.5 18.63 25.54 18.59 25.59C18.54 25.63 18.5 25.68 18.45 25.73C18.41 25.78 18.37 25.83 18.34 25.89C18.3 25.94 18.27 26 18.24 26.06C18.21 26.11 18.18 26.17 18.15 26.23C18.13 26.3 18.11 26.36 18.09 26.42C18.07 26.48 18.05 26.55 18.04 26.61C18.03 26.67 18.02 26.74 18.01 26.8C18 26.87 18 26.93 18 27L18 36C18 36.07 18 36.13 18.01 36.2C18.02 36.26 18.03 36.33 18.04 36.39C18.05 36.45 18.07 36.52 18.09 36.58C18.11 36.64 18.13 36.7 18.15 36.77C18.18 36.83 18.21 36.89 18.24 36.94C18.27 37 18.3 37.06 18.34 37.11C18.37 37.17 18.41 37.22 18.45 37.27C18.5 37.32 18.54 37.37 18.59 37.41C18.63 37.46 18.68 37.5 18.73 37.55C18.78 37.59 18.83 37.63 18.89 37.66C18.94 37.7 19 37.73 19.06 37.76C19.11 37.79 19.17 37.82 19.23 37.85C19.3 37.87 19.36 37.89 19.42 37.91C19.48 37.93 19.55 37.95 19.61 37.96C19.67 37.97 19.74 37.98 19.8 37.99C19.87 38 19.93 38 20 38C20.07 38 20.13 38 20.2 37.99C20.26 37.98 20.33 37.97 20.39 37.96C20.45 37.95 20.52 37.93 20.58 37.91C20.64 37.89 20.7 37.87 20.77 37.85C20.83 37.82 20.89 37.79 20.94 37.76C21 37.73 21.06 37.7 21.11 37.66C21.17 37.63 21.22 37.59 21.27 37.55C21.32 37.5 21.37 37.46 21.41 37.41C21.46 37.37 21.5 37.32 21.55 37.27C21.59 37.22 21.63 37.17 21.66 37.11C21.7 37.06 21.73 37 21.76 36.94C21.79 36.89 21.82 36.83 21.85 36.77C21.87 36.7 21.89 36.64 21.91 36.58C21.93 36.52 21.95 36.45 21.96 36.39C21.97 36.33 21.98 36.26 21.99 36.2C22 36.13 22 36.07 22 36L22 27C22 26.93 22 26.87 21.99 26.8C21.98 26.74 21.97 26.67 21.96 26.61C21.95 26.55 21.93 26.48 21.91 26.42C21.89 26.36 21.87 26.3 21.85 26.23C21.82 26.17 21.79 26.11 21.76 26.06C21.73 26 21.7 25.94 21.66 25.89C21.63 25.83 21.59 25.78 21.55 25.73C21.5 25.68 21.46 25.63 21.41 25.59C21.37 25.54 21.32 25.5 21.27 25.45ZM32.68 5.44C32.48 4.96 32.19 4.54 31.83 4.17C31.46 3.81 31.04 3.52 30.56 3.32C30.06 3.11 29.54 3 29 3L19 3C18.46 3 17.94 3.11 17.44 3.32C16.96 3.52 16.54 3.81 16.17 4.17C15.81 4.54 15.52 4.96 15.32 5.44C15.11 5.94 15 6.46 15 7L15 17C14.19 17 13.41 17.16 12.66 17.47C11.95 17.78 11.31 18.2 10.76 18.76C10.2 19.31 9.78 19.95 9.47 20.66C9.16 21.41 9 22.19 9 23L9 38C9 39.08 9.21 40.12 9.63 41.11C10.04 42.07 10.61 42.92 11.34 43.66C12.08 44.39 12.93 44.96 13.89 45.37C14.88 45.79 15.92 46 17 46L31 46C32.08 46 33.12 45.79 34.11 45.37C35.07 44.96 35.92 44.39 36.66 43.66C37.39 42.92 37.96 42.07 38.37 41.11C38.79 40.12 39 39.08 39 38L39 23C39 22.19 38.84 21.41 38.53 20.66C38.22 19.95 37.8 19.31 37.24 18.76C36.69 18.2 36.05 17.78 35.34 17.47C34.59 17.16 33.81 17 33 17L33 7C33 6.46 32.89 5.94 32.68 5.44ZM14.17 40.83C14.54 41.2 14.97 41.48 15.45 41.69C15.94 41.9 16.46 42 17 42L31 42C31.54 42 32.06 41.9 32.55 41.69C33.03 41.48 33.46 41.2 33.83 40.83C34.2 40.46 34.48 40.03 34.69 39.55C34.9 39.06 35 38.54 35 38L35 23C35 22.73 34.95 22.47 34.84 22.22C34.74 21.98 34.6 21.77 34.41 21.59C34.23 21.4 34.02 21.26 33.78 21.16C33.53 21.05 33.27 21 33 21L15 21C14.73 21 14.47 21.05 14.22 21.16C13.98 21.26 13.77 21.4 13.59 21.59C13.4 21.77 13.26 21.98 13.16 22.22C13.05 22.47 13 22.73 13 23L13 38C13 38.54 13.1 39.06 13.31 39.55C13.52 40.03 13.8 40.46 14.17 40.83ZM19 7L19 17L29 17L29 7L19 7ZM26.24 36.94C26.27 37 26.3 37.06 26.34 37.11C26.37 37.17 26.41 37.22 26.45 37.27C26.5 37.32 26.54 37.37 26.59 37.41C26.63 37.46 26.68 37.5 26.73 37.55C26.78 37.59 26.83 37.63 26.89 37.66C26.94 37.7 27 37.73 27.06 37.76C27.11 37.79 27.17 37.82 27.23 37.85C27.3 37.87 27.36 37.89 27.42 37.91C27.48 37.93 27.55 37.95 27.61 37.96C27.67 37.97 27.74 37.98 27.8 37.99C27.87 38 27.93 38 28 38C28.07 38 28.13 38 28.2 37.99C28.26 37.98 28.33 37.97 28.39 37.96C28.45 37.95 28.52 37.93 28.58 37.91C28.64 37.89 28.7 37.87 28.77 37.85C28.83 37.82 28.89 37.79 28.94 37.76C29 37.73 29.06 37.7 29.11 37.66C29.17 37.63 29.22 37.59 29.27 37.55C29.32 37.5 29.37 37.46 29.41 37.41C29.46 37.37 29.5 37.32 29.55 37.27C29.59 37.22 29.63 37.17 29.66 37.11C29.7 37.06 29.73 37 29.76 36.94C29.79 36.89 29.82 36.83 29.85 36.77C29.87 36.7 29.89 36.64 29.91 36.58C29.93 36.52 29.95 36.45 29.96 36.39C29.97 36.33 29.98 36.26 29.99 36.2C30 36.13 30 36.07 30 36L30 27C30 26.93 30 26.87 29.99 26.8C29.98 26.74 29.97 26.67 29.96 26.61C29.95 26.55 29.93 26.48 29.91 26.42C29.89 26.36 29.87 26.3 29.85 26.23C29.82 26.17 29.79 26.11 29.76 26.06C29.73 26 29.7 25.94 29.66 25.89C29.63 25.83 29.59 25.78 29.55 25.73C29.5 25.68 29.46 25.63 29.41 25.59C29.37 25.54 29.32 25.5 29.27 25.45C29.22 25.41 29.17 25.37 29.11 25.34C29.06 25.3 29 25.27 28.94 25.24C28.89 25.21 28.83 25.18 28.77 25.15C28.7 25.13 28.64 25.11 28.58 25.09C28.52 25.07 28.45 25.05 28.39 25.04C28.33 25.03 28.26 25.02 28.2 25.01C28.13 25 28.07 25 28 25C27.93 25 27.87 25 27.8 25.01C27.74 25.02 27.67 25.03 27.61 25.04C27.55 25.05 27.48 25.07 27.42 25.09C27.36 25.11 27.3 25.13 27.23 25.15C27.17 25.18 27.11 25.21 27.06 25.24C27 25.27 26.94 25.3 26.89 25.34C26.83 25.37 26.78 25.41 26.73 25.45C26.68 25.5 26.63 25.54 26.59 25.59C26.54 25.63 26.5 25.68 26.45 25.73C26.41 25.78 26.37 25.83 26.34 25.89C26.3 25.94 26.27 26 26.24 26.06C26.21 26.11 26.18 26.17 26.15 26.23C26.13 26.3 26.11 26.36 26.09 26.42C26.07 26.48 26.05 26.55 26.04 26.61C26.03 26.67 26.02 26.74 26.01 26.8C26 26.87 26 26.93 26 27L26 36C26 36.07 26 36.13 26.01 36.2C26.02 36.26 26.03 36.33 26.04 36.39C26.05 36.45 26.07 36.52 26.09 36.58C26.11 36.64 26.13 36.7 26.15 36.77C26.18 36.83 26.21 36.89 26.24 36.94Z" fill-rule="evenodd"  fill="#000000" >
</path>
</svg>
