<svg xmlns="http://www.w3.org/2000/svg" xmlns:xlink="http://www.w3.org/1999/xlink" width="48" height="48" viewBox="0 0 48 48" fill="none">
<path d="M27 1L21 1C17.6863 1 15 3.68629 15 7L15 11.9801C14.4456 12.4056 13.9101 12.8767 13.3934 13.3934C10.4645 16.3223 9 19.8579 9 24C9 28.9075 11.3567 33.2645 15 36.0011L15 41C15 44.3137 17.6863 47 21 47L27 47C30.3137 47 33 44.3137 33 41L33 36.0011C36.6433 33.2645 39 28.9075 39 24C39 19.0925 36.6433 14.7355 33 11.9989L33 7C33 3.68629 30.3137 1 27 1ZM29 9.85353L29 7C29 5.89543 28.1046 5 27 5L21 5C19.8954 5 19 5.89543 19 7L19 9.80995C20.5549 9.26998 22.2215 9 24 9C25.7532 9 27.4361 9.30077 29 9.85353ZM29 38.1465C27.4361 38.6992 25.7532 39 24 39C22.2468 39 20.5639 38.6992 19 38.1465L19 41C19 42.1046 19.8954 43 21 43L27 43C28.1046 43 29 42.1046 29 41L29 38.1465ZM16.2218 16.2218C18.3697 14.0739 20.9625 13 24 13C30.0751 13 35 17.9249 35 24C35 30.0751 30.0751 35 24 35C17.9249 35 13 30.0751 13 24C13 20.9624 14.0739 18.3697 16.2218 16.2218Z" fill-rule="evenodd"  fill="#000000" >
</path>
</svg>
