<svg xmlns="http://www.w3.org/2000/svg" xmlns:xlink="http://www.w3.org/1999/xlink" width="48" height="48" viewBox="0 0 48 48" fill="none">
<path d="M26.0003 3L10.0003 3C5.58202 3 2.0003 6.58172 2.0003 11L2.0003 37C2.0003 41.4183 5.58202 45 10.0003 45L26.0003 45C28.3485 45 30.3817 43.651 31.3671 41.6858C39.6992 40.1094 46.0007 32.7905 46.0007 24C46.0007 15.2094 39.6992 7.8906 31.3671 6.31426C30.3817 4.34898 28.3485 3 26.0003 3ZM6.0003 11C6.0003 8.79086 7.79116 7 10.0003 7L26.0003 7C27.1049 7 28.0003 7.89543 28.0003 9L28.0003 39C28.0003 40.1046 27.1049 41 26.0003 41L10.0003 41C7.79116 41 6.0003 39.2091 6.0003 37L6.0003 11ZM32.0003 31.748L32.0003 37.4204C37.7835 35.6994 42.0007 30.3422 42.0007 24C42.0007 17.6579 37.7835 12.3006 32.0003 10.5796L32.0003 16.252C35.4508 17.1401 38.0003 20.2723 38.0003 24C38.0003 27.7277 35.4508 30.8599 32.0003 31.748ZM32.0003 20.5351L32.0003 27.4649C33.1959 26.7733 34.0003 25.4806 34.0003 24C34.0003 22.5194 33.1959 21.2267 32.0003 20.5351ZM11.0007 32C9.89613 32.0001 9.00061 31.1048 9.0005 30.0002C9.00039 28.8956 9.89573 28.0001 11.0003 28L18.3335 27.9993C19.4381 27.9992 20.3336 28.8945 20.3337 29.9991C20.3339 31.1036 19.4385 31.9992 18.334 31.9993L11.0007 32ZM11.0003 34L11.0001 34C9.89564 34.0001 9.0003 34.8955 9.0003 36C9.0003 37.1045 9.89573 38 11.0003 38L11.0005 38L23.0006 37.999L23.0008 37.999C24.1053 37.9989 25.0006 37.1035 25.0006 35.999C25.0006 34.8944 24.1052 33.999 23.0006 33.999L23.0005 33.999L11.0003 34Z" fill-rule="evenodd"  fill="#000000" >
</path>
</svg>
