<svg xmlns="http://www.w3.org/2000/svg" xmlns:xlink="http://www.w3.org/1999/xlink" width="48" height="48" viewBox="0 0 48 48" fill="none">
<path d="M8.44365 8.44346C8.80558 8.08153 9.30558 7.85767 9.85786 7.85767C10.9624 7.85767 11.8579 8.7531 11.8579 9.85767C11.8579 10.4099 11.634 10.9099 11.2721 11.2719C7.75736 14.7866 6 19.0292 6 23.9998C6 28.9698 7.75697 33.212 11.2709 36.7266L11.2721 36.7278C11.634 37.0897 11.8579 37.5897 11.8579 38.142C11.8579 39.2465 10.9624 40.142 9.85786 40.142C9.30558 40.142 8.80558 39.9181 8.44365 39.5562L8.44236 39.5549C4.14745 35.2593 2 30.0743 2 23.9998C2 17.9247 4.14788 12.7392 8.44365 8.44346ZM36.728 11.2719C36.3661 10.9099 36.1422 10.4099 36.1422 9.85767C36.1422 8.7531 37.0376 7.85767 38.1422 7.85767C38.6945 7.85767 39.1945 8.08153 39.5564 8.44346C43.8522 12.7392 46.0001 17.9247 46.0001 23.9998C46.0001 30.0749 43.8522 35.2604 39.5564 39.5562C39.1945 39.9181 38.6945 40.142 38.1422 40.142C37.0376 40.142 36.1422 39.2465 36.1422 38.142C36.1422 37.5897 36.3661 37.0897 36.728 36.7278L36.7295 36.7263C40.2432 33.2118 42.0001 28.9696 42.0001 23.9998C42.0001 19.0292 40.2427 14.7866 36.728 11.2719ZM16.928 16.93L16.9291 16.9289C17.2911 16.5669 17.5149 16.0669 17.5149 15.5147C17.5149 14.4101 16.6195 13.5147 15.5149 13.5147C14.9626 13.5147 14.4626 13.7385 14.1007 14.1005C11.367 16.8341 10.0002 20.134 10.0002 24C10.0002 27.8653 11.3666 31.1647 14.0994 33.8982L14.1007 33.8995C14.4626 34.2614 14.9626 34.4853 15.5149 34.4853C16.6195 34.4853 17.5149 33.5898 17.5149 32.4853C17.5149 31.933 17.2911 31.433 16.9291 31.071C14.9765 29.1184 14.0002 26.7614 14.0002 24C14.0002 21.2391 14.9761 18.8825 16.928 16.93ZM32.4855 13.5147C33.0378 13.5147 33.5378 13.7385 33.8997 14.1005C36.6334 16.8341 38.0002 20.134 38.0002 24C38.0002 27.8653 36.6338 31.1647 33.9011 33.8981L33.8997 33.8995C33.5378 34.2614 33.0378 34.4853 32.4855 34.4853C31.3809 34.4853 30.4855 33.5898 30.4855 32.4853C30.4855 31.933 30.7094 31.433 31.0713 31.071C33.0239 29.1184 34.0002 26.7614 34.0002 24C34.0002 21.2385 33.0239 18.8815 31.0713 16.9289C30.7094 16.5669 30.4855 16.0669 30.4855 15.5147C30.4855 14.4101 31.3809 13.5147 32.4855 13.5147ZM24.0004 30C27.3141 30 30.0004 27.3137 30.0004 24C30.0004 20.6863 27.3141 18 24.0004 18C20.6867 18 18.0004 20.6863 18.0004 24C18.0004 27.3137 20.6867 30 24.0004 30ZM24.0004 22C25.105 22 26.0004 22.8954 26.0004 24C26.0004 25.1046 25.105 26 24.0004 26C22.8958 26 22.0004 25.1046 22.0004 24C22.0004 22.8954 22.8958 22 24.0004 22Z" fill-rule="evenodd"  fill="#000000" >
</path>
</svg>
