<svg xmlns="http://www.w3.org/2000/svg" xmlns:xlink="http://www.w3.org/1999/xlink" width="48" height="48" viewBox="0 0 48 48" fill="none">
<path d="M2.0003 36C2.0003 40.4183 5.58202 44 10.0003 44L38.0003 44C42.4186 44 46.0003 40.4183 46.0003 36L46.0003 12C46.0003 7.58172 42.4186 4 38.0003 4L10.0003 4C5.58202 4 2.0003 7.58172 2.0003 12L2.0003 36ZM38.0003 40L10.0003 40C7.79116 40 6.0003 38.2091 6.0003 36L6.0003 12C6.0003 9.79086 7.79116 8 10.0003 8L38.0003 8C40.2094 8 42.0003 9.79086 42.0003 12L42.0003 36C42.0003 38.2091 40.2094 40 38.0003 40ZM12.0003 25L14.0003 25C15.1049 25 16.0003 25.8954 16.0003 27C16.0003 28.1046 15.1049 29 14.0003 29L12.0003 29C10.8957 29 10.0003 28.1046 10.0003 27C10.0003 25.8954 10.8957 25 12.0003 25ZM20.0003 29C18.8957 29 18.0003 28.1046 18.0003 27C18.0003 25.8954 18.8957 25 20.0003 25L26.0003 25C27.1049 25 28.0003 25.8954 28.0003 27C28.0003 28.1046 27.1049 29 26.0003 29L20.0003 29ZM36.0003 29L32.0003 29C30.8957 29 30.0003 28.1046 30.0003 27C30.0003 25.8954 30.8957 25 32.0003 25L36.0003 25C37.1049 25 38.0003 25.8954 38.0003 27C38.0003 28.1046 37.1049 29 36.0003 29ZM10.0003 34C10.0003 35.1046 10.8957 36 12.0003 36L16.0003 36C17.1049 36 18.0003 35.1046 18.0003 34C18.0003 32.8954 17.1049 32 16.0003 32L12.0003 32C10.8957 32 10.0003 32.8954 10.0003 34ZM36.0003 32L22.0003 32C20.8957 32 20.0003 32.8954 20.0003 34C20.0003 35.1046 20.8957 36 22.0003 36L36.0003 36C37.1049 36 38.0003 35.1046 38.0003 34C38.0003 32.8954 37.1049 32 36.0003 32Z" fill-rule="evenodd"  fill="#000000" >
</path>
</svg>
