<svg xmlns="http://www.w3.org/2000/svg" xmlns:xlink="http://www.w3.org/1999/xlink" width="48" height="48" viewBox="0 0 48 48" fill="none">
<path d="M24.0003 45C35.5983 45 45.0003 35.598 45.0003 24C45.0003 12.402 35.5983 3 24.0003 3C12.4023 3 3.0003 12.402 3.0003 24C3.0003 35.598 12.4023 45 24.0003 45ZM24.0003 7C33.3891 7 41.0003 14.6112 41.0003 24C41.0003 33.3888 33.3891 41 24.0003 41C14.6115 41 7.0003 33.3888 7.0003 24C7.0003 14.6112 14.6115 7 24.0003 7ZM33.0621 19.5794C32.2942 17.2561 30.7363 15.7003 28.3885 14.912C27.5711 14.6608 26.9769 13.8998 26.9769 13C26.9769 11.8954 27.8723 11 28.9769 11C29.2141 11 29.4417 11.0413 29.6528 11.1171C33.2741 12.3291 35.6775 14.7344 36.863 18.3331C36.9368 18.5417 36.9769 18.7662 36.9769 19C36.9769 20.1046 36.0815 21 34.9769 21C34.0738 21 33.3105 20.4015 33.0621 19.5794ZM24.0003 31C27.8663 31 31.0003 27.866 31.0003 24C31.0003 20.134 27.8663 17 24.0003 17C20.1343 17 17.0003 20.134 17.0003 24C17.0003 27.866 20.1343 31 24.0003 31ZM24.0003 21C25.6572 21 27.0003 22.3431 27.0003 24C27.0003 25.6569 25.6572 27 24.0003 27C22.3434 27 21.0003 25.6569 21.0003 24C21.0003 22.3431 22.3434 21 24.0003 21Z" fill-rule="evenodd"  fill="#000000" >
</path>
</svg>
