<svg xmlns="http://www.w3.org/2000/svg" xmlns:xlink="http://www.w3.org/1999/xlink" width="48" height="48" viewBox="0 0 48 48" fill="none">
<path d="M34.0003 14C34.0003 19.5228 29.5231 24 24.0003 24C18.4775 24 14.0003 19.5228 14.0003 14C14.0003 8.47715 18.4775 4 24.0003 4C29.5231 4 34.0003 8.47715 34.0003 14ZM30.0003 14C30.0003 10.6863 27.314 8 24.0003 8C20.6866 8 18.0003 10.6863 18.0003 14C18.0003 17.3137 20.6866 20 24.0003 20C27.314 20 30.0003 17.3137 30.0003 14ZM34.6995 33.6726L34.6995 25.7428C34.6995 24.4544 35.7439 23.41 37.0322 23.41C37.5589 23.41 38.049 23.6161 38.4125 23.9626C38.4156 23.9506 38.4287 23.9531 38.449 23.9679C38.5453 24.0381 38.8041 24.3855 38.9368 24.7994C39.8342 27.5987 41.522 28.9983 44.0003 28.9983L44.0003 29C45.1003 29 46.0003 29.9 46.0003 31C46.0003 32.1 45.1003 33 44.0003 33C43.9689 33 43.9377 32.9993 43.9066 32.9978C41.9359 32.9791 40.2002 32.3706 38.6995 31.1723L38.6995 39.6081C38.6995 43.1373 35.8791 45.9983 32.3499 45.9983C28.8431 45.9983 26.0003 43.1149 26.0003 39.6081C26.0003 36.0789 28.8207 33.2179 32.3499 33.2179C33.1799 33.2179 33.9727 33.3795 34.6995 33.6726ZM20.0003 44L10.0003 44C6.68659 44 4.0003 41.3137 4.0003 38L4.0003 34C4.0003 29.5817 7.58202 26 12.0003 26L25.0003 26C26.1049 26 27.0003 26.8954 27.0003 28C27.0003 29.1046 26.1049 30 25.0003 30L12.0003 30C9.79116 30 8.0003 31.7909 8.0003 34L8.0003 38C8.0003 39.1046 8.89573 40 10.0003 40L20.0003 40C21.1049 40 22.0003 40.8954 22.0003 42C22.0003 43.1046 21.1049 44 20.0003 44ZM32.3499 37.218C33.6475 37.218 34.6995 38.3105 34.6995 39.6081C34.6995 40.9281 33.6699 41.9983 32.3499 41.9983C31.0522 41.9983 30.0003 40.9058 30.0003 39.6081C30.0003 38.2881 31.0299 37.218 32.3499 37.218Z" fill-rule="evenodd"  fill="#000000" >
</path>
</svg>
