<svg xmlns="http://www.w3.org/2000/svg" xmlns:xlink="http://www.w3.org/1999/xlink" width="48" height="48" viewBox="0 0 48 48" fill="none">
<path d="M8.29 42.71C9.33 43.74 10.52 44.55 11.87 45.12C13.26 45.71 14.72 46 16.24 46C17.77 46 19.22 45.71 20.62 45.12C21.97 44.55 23.16 43.74 24.19 42.71C25.23 41.67 26.04 40.48 26.61 39.14C27.2 37.74 27.49 36.28 27.49 34.76L27.49 10.69C27.62 10.87 27.75 11.05 27.89 11.23C29.4 13.18 31.12 14.72 33.03 15.85C35.46 17.28 38.11 18 41 18C42.1 18 43 17.1 43 16C43 14.9 42.1 14 41 14C38.84 14 36.86 13.47 35.06 12.4C33.59 11.53 32.25 10.32 31.05 8.77C30.17 7.64 29.41 6.39 28.77 5.02C28.57 4.6 28.39 4.19 28.24 3.8C28.17 3.62 28.12 3.48 28.1 3.39L27.65 2L26.19 2C25.82 2 25.47 2.07 25.13 2.22C24.8 2.36 24.51 2.56 24.27 2.81C24.02 3.06 23.83 3.35 23.7 3.67C23.56 4 23.49 4.35 23.49 4.71L23.49 26.16C22.63 25.43 21.67 24.85 20.62 24.4C19.22 23.81 17.76 23.52 16.24 23.52C14.72 23.52 13.26 23.81 11.87 24.4C10.52 24.97 9.33 25.77 8.29 26.81C7.26 27.85 6.45 29.04 5.88 30.38C5.29 31.78 5 33.23 5 34.76C5 36.28 5.29 37.74 5.88 39.13C6.45 40.48 7.26 41.67 8.29 42.71ZM19.06 41.43C19.93 41.06 20.7 40.55 21.37 39.88C22.04 39.21 22.55 38.44 22.92 37.58C23.3 36.68 23.49 35.74 23.49 34.76C23.49 33.78 23.3 32.84 22.92 31.94C22.56 31.07 22.04 30.31 21.37 29.64C20.7 28.97 19.93 28.45 19.06 28.09C18.17 27.71 17.23 27.52 16.24 27.52C15.26 27.52 14.32 27.71 13.42 28.09C12.56 28.45 11.79 28.97 11.12 29.64C10.45 30.31 9.93 31.07 9.57 31.94C9.19 32.84 9 33.78 9 34.76C9 35.74 9.19 36.68 9.57 37.58C9.93 38.44 10.45 39.21 11.12 39.88C11.79 40.55 12.56 41.07 13.42 41.43C14.32 41.81 15.26 42 16.24 42C17.22 42 18.17 41.81 19.06 41.43Z" fill-rule="evenodd"  fill="#000000" >
</path>
</svg>
