<svg xmlns="http://www.w3.org/2000/svg" xmlns:xlink="http://www.w3.org/1999/xlink" width="48" height="48" viewBox="0 0 48 48" fill="none">
<path d="M13.9614 4.45754L13.9614 17.0538C12.7898 16.3743 11.4304 15.9848 9.98072 15.9848C5.55825 15.9848 2 19.57 2 23.9924C2 28.4001 5.57309 32 9.98072 32C14.4032 32 17.9614 28.4149 17.9614 23.9924L17.9614 10.4221C20.1845 12.8074 22.864 14 25.9997 14L26.0004 14C27.1004 14 28.0004 13.1 28.0004 12C28.0004 10.9 27.1004 10 26.0004 10L25.9877 10C23.6924 9.99633 21.7426 8.92873 20.1381 6.79723C19.2748 5.65036 18.6723 4.52178 18.3304 3.4115C18.2013 2.99199 17.9429 2.63912 17.846 2.56756C17.8255 2.55245 17.8122 2.54988 17.8089 2.56187C17.4446 2.20994 16.9506 2 16.419 2C15.0617 2 13.9614 3.10028 13.9614 4.45754ZM19.1186 43.3208L32.1186 7.32078C32.7804 5.48811 35.4052 5.58736 35.9267 7.46478L45.9267 43.4649L45.9265 43.4649C45.9742 43.6354 45.9997 43.8149 45.9997 44C45.9997 45.1 45.0997 46 43.9997 46C43.085 46 42.3085 45.3776 42.0729 44.5354L42.0727 44.5355L39.0073 33.5L26.9178 33.5L22.8914 44.65C22.6201 45.4335 21.8732 46 21.0005 46C19.9005 46 19.0005 45.1 19.0005 44C19.0005 43.762 19.0426 43.5334 19.1198 43.3212L19.1186 43.3208ZM33.751 14.5773L37.8962 29.5L28.3623 29.5L33.751 14.5773ZM13.9614 23.9924C13.9614 21.7939 12.1792 19.9848 9.98072 19.9848C7.76739 19.9848 6 21.7791 6 23.9924C6 26.1909 7.78223 28 9.98072 28C12.194 28 13.9614 26.2057 13.9614 23.9924Z" fill-rule="evenodd"  fill="#000000" >
</path>
</svg>
