<svg xmlns="http://www.w3.org/2000/svg" xmlns:xlink="http://www.w3.org/1999/xlink" width="48" height="48" viewBox="0 0 48 48" fill="none">
<path d="M30.0002 36.1241L42 29.1959C46 26.8865 46 21.1131 42 18.8038L30.0002 11.8756C26.1652 9.66143 21.4111 12.2235 21.0253 16.509L13 11.8755C9.00002 9.56614 4.00002 12.4529 4.00002 17.0717L4.00002 30.9281C4.00002 35.5469 9.00002 38.4337 13 36.1243L21.0253 31.4908C21.4112 35.7763 26.1652 38.3382 30.0002 36.1241ZM25.0002 29.1959L25.0002 30.928C25.0002 32.4676 26.6668 33.4298 28.0002 32.66L40 25.7318C41.3333 24.962 41.3333 23.0376 40 22.2678L28.0002 15.3396C26.6668 14.5698 25.0002 15.5321 25.0002 17.0717L25.0002 18.8039C28.9999 21.1133 28.9999 26.8864 25.0002 29.1959ZM23 22.2679C24.3333 23.0377 24.3333 24.9621 23 25.7319L11 32.6602C9.66662 33.43 8.00002 32.4677 8.00002 30.9281L8.00002 17.0717C8.00002 15.5321 9.66662 14.5698 11 15.3396L23 22.2679Z" fill-rule="evenodd"  fill="#000000" >
</path>
</svg>
