<svg xmlns="http://www.w3.org/2000/svg" xmlns:xlink="http://www.w3.org/1999/xlink" width="48" height="48" viewBox="0 0 48 48" fill="none">
<path d="M39.11 43.37C40.07 42.96 40.92 42.39 41.66 41.66C42.39 40.92 42.96 40.07 43.37 39.11C43.79 38.12 44 37.08 44 36L44 12C44 10.92 43.79 9.88 43.37 8.89C42.96 7.93 42.39 7.08 41.66 6.34C40.92 5.61 40.07 5.04 39.11 4.63C38.12 4.21 37.08 4 36 4L12 4C10.92 4 9.88 4.21 8.89 4.63C7.93 5.04 7.08 5.61 6.34 6.34C5.61 7.08 5.04 7.93 4.63 8.89C4.21 9.88 4 10.92 4 12L4 36C4 37.08 4.21 38.12 4.63 39.11C5.04 40.07 5.61 40.92 6.34 41.66C7.08 42.39 7.93 42.96 8.89 43.37C9.88 43.79 10.92 44 12 44L36 44C37.08 44 38.12 43.79 39.11 43.37ZM39.69 37.55C39.9 37.06 40 36.54 40 36L40 12C40 11.46 39.9 10.94 39.69 10.45C39.48 9.97 39.2 9.54 38.83 9.17C38.46 8.8 38.03 8.52 37.55 8.31C37.06 8.1 36.54 8 36 8L12 8C11.46 8 10.94 8.1 10.45 8.31C9.97 8.52 9.54 8.8 9.17 9.17C8.8 9.54 8.52 9.97 8.31 10.45C8.1 10.94 8 11.46 8 12L8 28.33C8.67 28.01 9.37 27.75 10.09 27.55C11.36 27.18 12.67 27 14 27C15.57 27 17.06 27.4 18.48 28.19C19.01 28.49 19.57 28.87 20.15 29.32C20.48 29.57 20.94 29.96 21.55 30.48C22.11 30.96 22.53 31.31 22.8 31.52C23.23 31.85 23.62 32.12 23.98 32.32C24.79 32.77 25.63 33 26.5 33C27.57 33 28.55 32.87 29.43 32.61C30.11 32.41 30.71 32.15 31.24 31.81C31.61 31.58 31.91 31.34 32.17 31.07C32.24 31 32.29 30.94 32.34 30.88L32.36 30.86C32.45 30.73 32.56 30.61 32.68 30.5C32.8 30.39 32.93 30.3 33.07 30.23C33.22 30.15 33.37 30.1 33.52 30.06C33.68 30.02 33.84 30 34 30C34.07 30 34.13 30 34.2 30.01C34.26 30.02 34.33 30.03 34.39 30.04C34.45 30.05 34.52 30.07 34.58 30.09C34.64 30.11 34.7 30.13 34.77 30.15C34.83 30.18 34.88 30.21 34.94 30.24C35 30.27 35.06 30.3 35.11 30.34C35.17 30.37 35.22 30.41 35.27 30.45C35.32 30.5 35.37 30.54 35.41 30.59C35.46 30.63 35.5 30.68 35.55 30.73C35.59 30.78 35.63 30.83 35.66 30.89C35.7 30.94 35.73 31 35.76 31.06C35.79 31.11 35.82 31.17 35.85 31.23C35.87 31.3 35.89 31.36 35.91 31.42C35.93 31.48 35.95 31.55 35.96 31.61C35.97 31.67 35.98 31.74 35.99 31.8C36 31.87 36 31.93 36 32C36 32.2 35.97 32.39 35.91 32.58C35.86 32.77 35.77 32.95 35.66 33.11C35.51 33.34 35.3 33.59 35.04 33.86C34.56 34.35 34.01 34.79 33.38 35.19C32.53 35.73 31.59 36.15 30.55 36.45C29.3 36.82 27.95 37 26.5 37C24.93 37 23.44 36.6 22.02 35.81C21.49 35.51 20.93 35.13 20.35 34.68C20.02 34.43 19.56 34.04 18.95 33.52C18.39 33.04 17.97 32.69 17.7 32.48C17.27 32.15 16.88 31.88 16.52 31.68C15.71 31.23 14.87 31 14 31C12.26 31 10.62 31.42 9.08 32.26C8.7 32.47 8.33 32.7 8 32.94L8 36C8 36.54 8.1 37.06 8.31 37.55C8.52 38.03 8.8 38.46 9.17 38.83C9.54 39.2 9.97 39.48 10.45 39.69C10.94 39.9 11.46 40 12 40L36 40C36.54 40 37.06 39.9 37.55 39.69C38.03 39.48 38.46 39.2 38.83 38.83C39.2 38.46 39.48 38.03 39.69 37.55ZM16.66 13.47C15.95 13.78 15.31 14.2 14.76 14.76C14.2 15.31 13.78 15.95 13.47 16.66C13.16 17.41 13 18.19 13 19C13 19.81 13.16 20.59 13.47 21.34C13.78 22.05 14.2 22.69 14.76 23.24C15.31 23.8 15.95 24.22 16.66 24.53C17.41 24.84 18.19 25 19 25C19.81 25 20.59 24.84 21.34 24.53C22.05 24.22 22.69 23.8 23.24 23.24C23.8 22.69 24.22 22.05 24.53 21.34C24.84 20.59 25 19.81 25 19C25 18.19 24.84 17.41 24.53 16.66C24.22 15.95 23.8 15.31 23.24 14.76C22.69 14.2 22.05 13.78 21.34 13.47C20.59 13.16 19.81 13 19 13C18.19 13 17.41 13.16 16.66 13.47ZM17.16 18.22C17.05 18.47 17 18.73 17 19C17 19.27 17.05 19.53 17.16 19.78C17.26 20.02 17.4 20.23 17.59 20.41C17.77 20.6 17.98 20.74 18.22 20.84C18.47 20.95 18.73 21 19 21C19.27 21 19.53 20.95 19.78 20.84C20.02 20.74 20.23 20.6 20.41 20.41C20.6 20.23 20.74 20.02 20.84 19.78C20.95 19.53 21 19.27 21 19C21 18.73 20.95 18.47 20.84 18.22C20.74 17.98 20.6 17.77 20.41 17.59C20.23 17.4 20.02 17.26 19.78 17.16C19.53 17.05 19.27 17 19 17C18.73 17 18.47 17.05 18.22 17.16C17.98 17.26 17.77 17.4 17.59 17.59C17.4 17.77 17.26 17.98 17.16 18.22Z" fill-rule="evenodd"  fill="#000000" >
</path>
</svg>
