<svg xmlns="http://www.w3.org/2000/svg" xmlns:xlink="http://www.w3.org/1999/xlink" width="48" height="48" viewBox="0 0 48 48" fill="none">
<path d="M17.9998 36.1241L5.99997 29.1959C2.00001 26.8865 2.00001 21.1131 5.99997 18.8038L17.9998 11.8756C21.8347 9.66145 26.5888 12.2234 26.9747 16.5089L34.9998 11.8755C38.9998 9.56614 43.9998 12.4529 43.9998 17.0717L43.9998 30.9281C43.9998 35.5469 38.9998 38.4337 34.9998 36.1243L26.9747 31.4909C26.5888 35.7763 21.8347 38.3382 17.9998 36.1241ZM22.9998 29.196L22.9998 30.928C22.9998 32.4676 21.3332 33.4298 19.9998 32.66L7.99998 25.7318C6.66667 24.962 6.66667 23.0376 7.99999 22.2678L19.9998 15.3396C21.3332 14.5698 22.9998 15.5321 22.9998 17.0717L22.9998 18.8038L22.9998 18.8038C18.9998 21.1132 18.9998 26.8866 22.9998 29.196L22.9998 29.196ZM24.9998 22.2679C23.6665 23.0377 23.6665 24.9621 24.9998 25.7319L36.9998 32.6602C38.3332 33.43 39.9998 32.4677 39.9998 30.9281L39.9998 17.0717C39.9998 15.5321 38.3332 14.5698 36.9998 15.3396L24.9998 22.2679Z" fill-rule="evenodd"  fill="#000000" >
</path>
</svg>
