<svg xmlns="http://www.w3.org/2000/svg" xmlns:xlink="http://www.w3.org/1999/xlink" width="48" height="48" viewBox="0 0 48 48" fill="none">
<path d="M38.9998 30.9274C40.2398 30.2174 41.2198 29.2474 41.9298 28.0074C42.6498 26.7674 43.0098 25.4374 43.0098 23.9974C43.0098 22.5674 42.6498 21.2274 41.9298 19.9874C41.2198 18.7574 40.2398 17.7774 38.9998 17.0674L17.9998 4.94744C16.7598 4.23744 15.4198 3.87744 13.9998 3.87744C12.5698 3.87744 11.2298 4.23744 9.99977 4.94744C8.75977 5.65744 7.77977 6.63744 7.06977 7.87744C6.35977 9.11744 5.99977 10.4474 5.99977 11.8774L5.99977 36.1174C5.99977 37.5474 6.35977 38.8774 7.06977 40.1174C7.77977 41.3574 8.75977 42.3374 9.99977 43.0574C11.2298 43.7674 12.5698 44.1274 13.9998 44.1274C15.4198 44.1274 16.7598 43.7674 17.9998 43.0574L38.9998 30.9274ZM9.99977 11.8774L9.99977 36.1174C9.99977 36.8374 10.1798 37.5074 10.5398 38.1274C10.8898 38.7474 11.3798 39.2274 11.9998 39.5874C12.6198 39.9474 13.2798 40.1174 13.9998 40.1174C14.7098 40.1174 15.3798 39.9474 15.9998 39.5874L36.9998 27.4674C37.6198 27.1074 38.1098 26.6174 38.4698 25.9974C38.8298 25.3874 39.0098 24.7174 39.0098 23.9974C39.0098 23.2874 38.8298 22.6174 38.4698 21.9974C38.1098 21.3774 37.6198 20.8874 36.9998 20.5374L15.9998 8.40744C15.3798 8.05744 14.7098 7.87744 13.9998 7.87744C13.2798 7.87744 12.6198 8.05744 11.9998 8.40744C11.3798 8.76744 10.8898 9.25744 10.5398 9.87744C10.1798 10.4974 9.99977 11.1674 9.99977 11.8774Z" fill-rule="evenodd"  fill="#000000" >
</path>
</svg>
