<svg xmlns="http://www.w3.org/2000/svg" xmlns:xlink="http://www.w3.org/1999/xlink" width="48" height="48" viewBox="0 0 48 48" fill="none">
<path d="M9.96 42.39C9.97 42.33 9.98 42.26 9.99 42.2C10 42.13 10 42.07 10 42L10 38C10 36.91 10.21 35.88 10.63 34.89C11.03 33.93 11.61 33.08 12.34 32.34C13.08 31.61 13.93 31.03 14.89 30.63C15.88 30.21 16.91 30 18 30L20.89 30C20.95 30.17 21.03 30.34 21.12 30.5L21.71 31.54L18.79 37C18.44 37.65 18.29 38.34 18.33 39.08C18.36 39.81 18.58 40.49 18.99 41.1L19 41.12L20.68 43.62C21.05 44.17 21.53 44.6 22.12 44.91C22.7 45.22 23.33 45.38 24 45.38C24.66 45.38 25.29 45.22 25.88 44.91C26.47 44.6 26.95 44.17 27.32 43.62L29 41.12C29.41 40.49 29.63 39.81 29.67 39.08C29.71 38.34 29.55 37.64 29.2 36.99L26.28 31.54L26.88 30.5C26.98 30.34 27.05 30.17 27.12 30L30 30C31.09 30 32.12 30.21 33.11 30.63C34.07 31.03 34.92 31.61 35.66 32.34C36.39 33.08 36.97 33.93 37.37 34.89C37.79 35.88 38 36.91 38 38L38 42C38 42.07 38 42.13 38.01 42.2C38.02 42.26 38.03 42.33 38.04 42.39C38.05 42.45 38.07 42.52 38.09 42.58C38.11 42.64 38.13 42.7 38.15 42.77C38.18 42.83 38.21 42.88 38.24 42.94C38.27 43 38.3 43.06 38.34 43.11C38.37 43.17 38.41 43.22 38.45 43.27C38.5 43.32 38.54 43.37 38.59 43.41C38.63 43.46 38.68 43.5 38.73 43.55C38.78 43.59 38.83 43.63 38.89 43.66C38.94 43.7 39 43.73 39.06 43.76C39.11 43.79 39.17 43.82 39.23 43.85C39.3 43.87 39.36 43.89 39.42 43.91C39.48 43.93 39.55 43.95 39.61 43.96C39.67 43.97 39.74 43.98 39.8 43.99C39.87 44 39.93 44 40 44C40.07 44 40.13 44 40.2 43.99C40.26 43.98 40.33 43.97 40.39 43.96C40.45 43.95 40.52 43.93 40.58 43.91C40.64 43.89 40.7 43.87 40.77 43.85C40.83 43.82 40.89 43.79 40.94 43.76C41 43.73 41.06 43.7 41.11 43.66C41.17 43.63 41.22 43.59 41.27 43.55C41.32 43.5 41.37 43.46 41.41 43.41C41.46 43.37 41.5 43.32 41.55 43.27C41.59 43.22 41.63 43.17 41.66 43.11C41.7 43.06 41.73 43 41.76 42.94C41.79 42.88 41.82 42.83 41.85 42.77C41.87 42.7 41.89 42.64 41.91 42.58C41.93 42.52 41.95 42.45 41.96 42.39C41.97 42.33 41.98 42.26 41.99 42.2C42 42.13 42 42.07 42 42L42 38C42 36.37 41.69 34.82 41.06 33.33C40.45 31.89 39.59 30.62 38.48 29.52C37.38 28.41 36.11 27.55 34.67 26.94C33.18 26.31 31.63 26 30 26L18 26C16.37 26 14.82 26.31 13.33 26.94C11.89 27.55 10.62 28.41 9.52 29.52C8.41 30.62 7.55 31.89 6.94 33.33C6.31 34.82 6 36.37 6 38L6 42C6 42.07 6 42.13 6.01 42.2C6.02 42.26 6.03 42.33 6.04 42.39C6.05 42.45 6.07 42.52 6.09 42.58C6.11 42.64 6.13 42.7 6.15 42.77C6.18 42.83 6.21 42.88 6.24 42.94C6.27 43 6.3 43.06 6.34 43.11C6.37 43.17 6.41 43.22 6.45 43.27C6.5 43.32 6.54 43.37 6.59 43.41C6.63 43.46 6.68 43.5 6.73 43.55C6.78 43.59 6.83 43.63 6.89 43.66C6.94 43.7 7 43.73 7.06 43.76C7.11 43.79 7.17 43.82 7.23 43.85C7.3 43.87 7.36 43.89 7.42 43.91C7.48 43.93 7.55 43.95 7.61 43.96C7.67 43.97 7.74 43.98 7.8 43.99C7.87 44 7.93 44 8 44C8.07 44 8.13 44 8.2 43.99C8.26 43.98 8.33 43.97 8.39 43.96C8.45 43.95 8.52 43.93 8.58 43.91C8.64 43.89 8.7 43.87 8.77 43.85C8.83 43.82 8.89 43.79 8.94 43.76C9 43.73 9.06 43.7 9.11 43.66C9.17 43.63 9.22 43.59 9.27 43.55C9.32 43.5 9.37 43.46 9.41 43.41C9.46 43.37 9.5 43.32 9.55 43.27C9.59 43.22 9.63 43.17 9.66 43.11C9.7 43.06 9.73 43 9.76 42.94C9.79 42.88 9.82 42.83 9.85 42.77C9.87 42.7 9.89 42.64 9.91 42.58C9.93 42.52 9.95 42.45 9.96 42.39ZM20.11 4.79C18.91 5.29 17.85 6.01 16.93 6.93C16.01 7.85 15.29 8.91 14.79 10.11C14.26 11.35 14 12.64 14 14C14 15.36 14.26 16.65 14.79 17.89C15.29 19.09 16.01 20.15 16.93 21.07C17.85 21.99 18.91 22.71 20.11 23.21C21.35 23.74 22.64 24 24 24C25.36 24 26.65 23.74 27.89 23.21C29.09 22.71 30.15 21.99 31.07 21.07C31.99 20.15 32.71 19.09 33.21 17.89C33.74 16.65 34 15.36 34 14C34 12.64 33.74 11.35 33.21 10.11C32.71 8.91 31.99 7.85 31.07 6.93C30.15 6.01 29.09 5.29 27.89 4.79C26.65 4.26 25.36 4 24 4C22.64 4 21.35 4.26 20.11 4.79ZM24 8C23.18 8 22.41 8.16 21.66 8.47C20.95 8.77 20.31 9.2 19.76 9.76C19.2 10.31 18.77 10.95 18.47 11.66C18.16 12.41 18 13.18 18 14C18 14.82 18.16 15.59 18.47 16.34C18.77 17.05 19.2 17.69 19.76 18.24C20.31 18.8 20.95 19.23 21.66 19.53C22.41 19.84 23.18 20 24 20C24.82 20 25.59 19.84 26.34 19.53C27.05 19.23 27.69 18.8 28.24 18.24C28.8 17.69 29.23 17.05 29.53 16.34C29.84 15.59 30 14.82 30 14C30 13.18 29.84 12.41 29.53 11.66C29.23 10.95 28.8 10.31 28.24 9.76C27.69 9.2 27.05 8.77 26.34 8.47C25.59 8.16 24.82 8 24 8ZM22.32 38.9L24 41.38L25.68 38.89L24 35.74L22.32 38.88L22.32 38.9Z" fill-rule="evenodd"  fill="#000000" >
</path>
</svg>
