<svg xmlns="http://www.w3.org/2000/svg" xmlns:xlink="http://www.w3.org/1999/xlink" width="48" height="48" viewBox="0 0 48 48" fill="none">
<path d="M19.03 20.85C18.75 21.52 18.61 22.22 18.61 22.95C18.61 23.68 18.75 24.38 19.03 25.05C19.31 25.69 19.69 26.26 20.19 26.76C20.69 27.26 21.26 27.64 21.9 27.92C22.57 28.2 23.27 28.34 24 28.34C24.73 28.34 25.43 28.2 26.1 27.92C26.74 27.64 27.31 27.26 27.81 26.76C28.31 26.26 28.69 25.69 28.97 25.05C29.25 24.38 29.39 23.68 29.39 22.95C29.39 22.22 29.25 21.52 28.97 20.85C28.69 20.21 28.31 19.64 27.81 19.14C27.31 18.64 26.74 18.26 26.1 17.98C25.43 17.7 24.73 17.56 24 17.56C23.27 17.56 22.57 17.7 21.9 17.98C21.26 18.26 20.69 18.64 20.19 19.14C19.69 19.64 19.31 20.21 19.03 20.85ZM37.38 40.15C37.42 40.1 37.46 40.05 37.5 39.99C37.53 39.94 37.57 39.89 37.6 39.83C37.63 39.77 37.66 39.71 37.69 39.65C37.71 39.59 37.74 39.53 37.76 39.47C37.78 39.41 37.79 39.34 37.81 39.28C37.82 39.21 37.83 39.15 37.84 39.08C37.84 39.02 37.85 38.95 37.85 38.89C37.85 38.82 37.85 38.76 37.84 38.69C37.84 38.63 37.83 38.56 37.82 38.5C37.81 38.43 37.79 38.37 37.77 38.31C37.75 38.24 37.73 38.18 37.71 38.12C37.68 38.06 37.66 38 37.63 37.94C37.6 37.88 37.56 37.83 37.53 37.77C37.49 37.72 37.45 37.66 37.41 37.61C37.37 37.56 37.33 37.51 37.28 37.47C37.24 37.42 37.19 37.37 37.14 37.33C37.09 37.29 37.04 37.25 36.98 37.21C36.93 37.18 36.88 37.14 36.82 37.11C36.76 37.08 36.7 37.05 36.64 37.02C36.58 37 36.52 36.97 36.46 36.95C36.4 36.93 36.33 36.92 36.27 36.9C36.2 36.89 36.14 36.88 36.07 36.87C36.01 36.87 35.94 36.86 35.88 36.86C35.81 36.86 35.75 36.86 35.68 36.87C35.62 36.87 35.55 36.88 35.49 36.89C35.42 36.9 35.36 36.92 35.3 36.94C35.23 36.96 35.17 36.98 35.11 37C35.05 37.03 34.99 37.05 34.93 37.08C34.87 37.11 34.82 37.15 34.76 37.18C34.71 37.22 34.65 37.26 34.6 37.3C33.12 38.48 31.49 39.38 29.72 40.02C27.88 40.67 25.97 41 24 41C21.69 41 19.49 40.55 17.39 39.66C15.35 38.8 13.55 37.59 11.98 36.02C10.41 34.45 9.2 32.65 8.34 30.61C7.45 28.51 7 26.31 7 24C7 21.69 7.45 19.49 8.34 17.39C9.2 15.35 10.41 13.55 11.98 11.98C13.55 10.41 15.35 9.2 17.39 8.34C19.49 7.45 21.69 7 24 7C26.31 7 28.51 7.45 30.61 8.34C32.65 9.2 34.45 10.41 36.02 11.98C37.59 13.55 38.8 15.35 39.66 17.39C40.55 19.49 41 21.69 41 24C41 24.52 40.9 25.01 40.7 25.48C40.51 25.93 40.24 26.34 39.88 26.69C39.53 27.04 39.13 27.32 38.67 27.51C38.2 27.71 37.71 27.81 37.19 27.81C36.77 27.81 36.35 27.69 35.92 27.45C35.46 27.19 35.04 26.82 34.65 26.33C34.26 25.84 33.95 25.28 33.72 24.67C33.5 24.08 33.39 23.5 33.39 22.95L33.39 22.94L33.39 22.93L33.39 22.93C33.39 21.67 33.14 20.45 32.65 19.29C32.18 18.17 31.51 17.18 30.64 16.31C29.77 15.45 28.78 14.77 27.66 14.3C26.49 13.81 25.27 13.56 24 13.56C22.73 13.56 21.51 13.81 20.34 14.3C19.22 14.77 18.23 15.45 17.36 16.31C16.49 17.18 15.82 18.17 15.35 19.29C14.86 20.46 14.61 21.68 14.61 22.95C14.61 24.22 14.86 25.44 15.35 26.61C15.82 27.73 16.49 28.72 17.36 29.59C18.23 30.46 19.22 31.13 20.34 31.6C21.51 32.09 22.73 32.34 24 32.34C25.27 32.34 26.49 32.09 27.66 31.6C28.78 31.13 29.77 30.46 30.64 29.59C30.92 29.31 31.18 29.01 31.43 28.7C31.46 28.74 31.49 28.78 31.53 28.83C32.23 29.71 33.04 30.41 33.95 30.93C34.98 31.52 36.07 31.81 37.19 31.81C38.25 31.81 39.26 31.6 40.23 31.19C41.17 30.8 41.99 30.24 42.71 29.52C43.43 28.8 43.99 27.97 44.39 27.04C44.8 26.07 45 25.06 45 24C45 21.15 44.45 18.43 43.35 15.83C42.29 13.31 40.79 11.09 38.85 9.15C36.91 7.21 34.69 5.71 32.17 4.65C29.57 3.55 26.85 3 24 3C21.15 3 18.43 3.55 15.83 4.65C13.31 5.71 11.09 7.21 9.15 9.15C7.21 11.09 5.71 13.31 4.65 15.83C3.55 18.43 3 21.15 3 24C3 26.85 3.55 29.57 4.65 32.17C5.71 34.69 7.21 36.91 9.15 38.85C11.09 40.79 13.31 42.29 15.83 43.35C18.43 44.45 21.15 45 24 45C26.43 45 28.78 44.6 31.06 43.79C33.25 43 35.27 41.88 37.1 40.42C37.15 40.38 37.2 40.34 37.24 40.29C37.29 40.25 37.34 40.2 37.38 40.15Z" fill-rule="evenodd"  fill="#000000" >
</path>
</svg>
