<svg xmlns="http://www.w3.org/2000/svg" xmlns:xlink="http://www.w3.org/1999/xlink" width="48" height="48" viewBox="0 0 48 48" fill="none">
<path d="M27.89 4.79C26.65 4.26 25.36 4 24 4C22.64 4 21.35 4.26 20.11 4.79C18.91 5.29 17.85 6.01 16.93 6.93C16.01 7.85 15.29 8.91 14.79 10.11C14.26 11.35 14 12.64 14 14C14 15.36 14.26 16.65 14.79 17.89C15.29 19.09 16.01 20.15 16.93 21.07C17.85 21.99 18.91 22.71 20.11 23.21C21.35 23.74 22.64 24 24 24C25.36 24 26.65 23.74 27.89 23.21C29.09 22.71 30.15 21.99 31.07 21.07C31.99 20.15 32.71 19.09 33.21 17.89C33.74 16.65 34 15.36 34 14C34 12.64 33.74 11.35 33.21 10.11C32.71 8.91 31.99 7.85 31.07 6.93C30.15 6.01 29.09 5.29 27.89 4.79ZM21.27 40.45C21.22 40.41 21.17 40.37 21.11 40.34C21.06 40.3 21 40.27 20.94 40.24C20.88 40.21 20.83 40.18 20.77 40.15C20.7 40.13 20.64 40.11 20.58 40.09C20.52 40.07 20.45 40.05 20.39 40.04C20.33 40.03 20.26 40.02 20.2 40.01C20.13 40 20.07 40 20 40L10 40C9.73 40 9.47 39.95 9.22 39.84C8.98 39.74 8.77 39.6 8.59 39.41C8.4 39.23 8.26 39.02 8.16 38.78C8.05 38.53 8 38.27 8 38L8 34C8 33.46 8.1 32.94 8.31 32.45C8.52 31.97 8.8 31.54 9.17 31.17C9.54 30.8 9.97 30.52 10.45 30.31C10.94 30.1 11.46 30 12 30L20 30C20.07 30 20.13 30 20.2 29.99C20.26 29.98 20.33 29.97 20.39 29.96C20.45 29.95 20.52 29.93 20.58 29.91C20.64 29.89 20.7 29.87 20.77 29.85C20.83 29.82 20.88 29.79 20.94 29.76C21 29.73 21.06 29.7 21.11 29.66C21.17 29.63 21.22 29.59 21.27 29.55C21.32 29.5 21.37 29.46 21.41 29.41C21.46 29.37 21.5 29.32 21.55 29.27C21.59 29.22 21.63 29.17 21.66 29.11C21.7 29.06 21.73 29 21.76 28.94C21.79 28.89 21.82 28.83 21.85 28.77C21.87 28.7 21.89 28.64 21.91 28.58C21.93 28.52 21.95 28.45 21.96 28.39C21.97 28.33 21.98 28.26 21.99 28.2C22 28.13 22 28.07 22 28C22 27.93 22 27.87 21.99 27.8C21.98 27.74 21.97 27.67 21.96 27.61C21.95 27.55 21.93 27.48 21.91 27.42C21.89 27.36 21.87 27.3 21.85 27.23C21.82 27.17 21.79 27.11 21.76 27.06C21.73 27 21.7 26.94 21.66 26.89C21.63 26.83 21.59 26.78 21.55 26.73C21.5 26.68 21.46 26.63 21.41 26.59C21.37 26.54 21.32 26.5 21.27 26.45C21.22 26.41 21.17 26.37 21.11 26.34C21.06 26.3 21 26.27 20.94 26.24C20.88 26.21 20.83 26.18 20.77 26.15C20.7 26.13 20.64 26.11 20.58 26.09C20.52 26.07 20.45 26.05 20.39 26.04C20.33 26.03 20.26 26.02 20.2 26.01C20.13 26 20.07 26 20 26L12 26C10.92 26 9.88 26.21 8.89 26.63C7.93 27.04 7.08 27.61 6.34 28.34C5.61 29.08 5.04 29.93 4.63 30.89C4.21 31.88 4 32.92 4 34L4 38C4 38.81 4.16 39.59 4.47 40.34C4.78 41.05 5.2 41.69 5.76 42.24C6.31 42.8 6.95 43.22 7.66 43.53C8.41 43.84 9.19 44 10 44L20 44C20.07 44 20.13 44 20.2 43.99C20.26 43.98 20.33 43.97 20.39 43.96C20.45 43.95 20.52 43.93 20.58 43.91C20.64 43.89 20.7 43.87 20.77 43.85C20.83 43.82 20.88 43.79 20.94 43.76C21 43.73 21.06 43.7 21.11 43.66C21.17 43.63 21.22 43.59 21.27 43.55C21.32 43.5 21.37 43.46 21.41 43.41C21.46 43.37 21.5 43.32 21.55 43.27C21.59 43.22 21.63 43.17 21.66 43.11C21.7 43.06 21.73 43 21.76 42.94C21.79 42.88 21.82 42.83 21.85 42.77C21.87 42.7 21.89 42.64 21.91 42.58C21.93 42.52 21.95 42.45 21.96 42.39C21.97 42.33 21.98 42.26 21.99 42.2C22 42.13 22 42.07 22 42C22 41.93 22 41.87 21.99 41.8C21.98 41.74 21.97 41.67 21.96 41.61C21.95 41.55 21.93 41.48 21.91 41.42C21.89 41.36 21.87 41.3 21.85 41.23C21.82 41.17 21.79 41.12 21.76 41.06C21.73 41 21.7 40.94 21.66 40.89C21.63 40.83 21.59 40.78 21.55 40.73C21.5 40.68 21.46 40.63 21.41 40.59C21.37 40.54 21.32 40.5 21.27 40.45ZM39.36 41.01C39.29 41.01 39.23 41.02 39.16 41.03C39.1 41.04 39.03 41.05 38.97 41.07L38.79 41.13C38.72 41.16 38.66 41.18 38.61 41.21C38.13 41.45 37.66 41.63 37.18 41.75C36.52 41.92 35.8 42 35 42C34.05 42 33.14 41.82 32.28 41.45C31.44 41.1 30.7 40.6 30.05 39.95C29.4 39.3 28.9 38.56 28.55 37.72C28.18 36.86 28 35.95 28 35C28 34.05 28.18 33.14 28.55 32.28C28.9 31.44 29.4 30.7 30.05 30.05C30.7 29.4 31.44 28.9 32.28 28.55C33.14 28.18 34.05 28 35 28C35.95 28 36.86 28.18 37.72 28.55C38.56 28.9 39.3 29.4 39.95 30.05C40.6 30.7 41.1 31.44 41.45 32.28C41.82 33.14 42 34.05 42 35C42 35.21 41.93 35.38 41.78 35.53C41.63 35.68 41.46 35.75 41.25 35.75C41.04 35.75 40.87 35.68 40.72 35.53C40.57 35.38 40.5 35.21 40.5 35L40.5 34.99C40.5 34.25 40.35 33.54 40.07 32.86C39.79 32.2 39.39 31.62 38.89 31.11C38.38 30.61 37.8 30.21 37.14 29.93C36.46 29.64 35.74 29.5 35 29.5C34.26 29.5 33.54 29.64 32.86 29.93C32.2 30.21 31.62 30.61 31.11 31.11C30.61 31.62 30.21 32.2 29.93 32.86C29.64 33.54 29.5 34.26 29.5 35C29.5 35.74 29.64 36.46 29.93 37.14C30.21 37.8 30.61 38.38 31.11 38.89C31.62 39.39 32.2 39.79 32.86 40.07C33.54 40.36 34.26 40.5 35 40.5C35.74 40.5 36.46 40.36 37.14 40.07C37.73 39.81 38.27 39.47 38.74 39.03C38.95 39.16 39.17 39.28 39.4 39.38C39.99 39.63 40.61 39.75 41.25 39.75C41.89 39.75 42.51 39.63 43.1 39.38C43.67 39.14 44.17 38.8 44.61 38.36C45.05 37.92 45.39 37.42 45.63 36.85C45.88 36.26 46 35.64 46 35C46 33.51 45.71 32.08 45.13 30.72C44.58 29.4 43.79 28.24 42.78 27.22C41.76 26.21 40.6 25.42 39.28 24.87C37.92 24.29 36.49 24 35 24C33.51 24 32.08 24.29 30.72 24.87C29.4 25.42 28.24 26.21 27.22 27.22C26.21 28.24 25.42 29.4 24.87 30.72C24.29 32.08 24 33.51 24 35C24 36.49 24.29 37.92 24.87 39.28C25.42 40.6 26.21 41.76 27.22 42.78C28.24 43.79 29.4 44.58 30.72 45.13C32.08 45.71 33.51 46 35 46C36.13 46 37.19 45.88 38.16 45.63C38.92 45.43 39.67 45.15 40.39 44.79C40.45 44.76 40.51 44.73 40.57 44.69C40.62 44.66 40.67 44.62 40.73 44.58C40.78 44.54 40.83 44.5 40.88 44.45C40.92 44.41 40.97 44.36 41.01 44.31L41.13 44.16C41.17 44.1 41.21 44.05 41.24 43.99C41.27 43.93 41.3 43.87 41.33 43.82C41.35 43.76 41.38 43.69 41.4 43.63C41.42 43.57 41.44 43.51 41.45 43.44C41.46 43.38 41.48 43.31 41.48 43.25C41.49 43.18 41.5 43.12 41.5 43.05C41.5 42.99 41.5 42.92 41.49 42.86C41.49 42.79 41.48 42.73 41.47 42.66C41.46 42.6 41.45 42.53 41.43 42.47C41.41 42.41 41.39 42.35 41.37 42.28C41.34 42.22 41.32 42.16 41.29 42.11C41.26 42.05 41.23 41.99 41.19 41.93C41.16 41.88 41.12 41.83 41.08 41.77C41.04 41.72 41 41.67 40.95 41.62C40.91 41.58 40.86 41.53 40.81 41.49L40.66 41.37C40.6 41.33 40.55 41.29 40.49 41.26C40.43 41.23 40.37 41.2 40.32 41.17C40.26 41.15 40.19 41.12 40.13 41.1C40.07 41.08 40.01 41.06 39.94 41.05C39.88 41.04 39.82 41.02 39.75 41.02C39.69 41.01 39.62 41 39.55 41C39.49 41 39.42 41 39.36 41.01ZM18.47 11.66C18.16 12.41 18 13.18 18 14C18 14.82 18.16 15.59 18.47 16.34C18.77 17.05 19.2 17.69 19.76 18.24C20.31 18.8 20.95 19.23 21.66 19.53C22.41 19.84 23.18 20 24 20C24.82 20 25.59 19.84 26.34 19.53C27.05 19.23 27.69 18.8 28.24 18.24C28.8 17.69 29.23 17.05 29.53 16.34C29.84 15.59 30 14.82 30 14C30 13.18 29.84 12.41 29.53 11.66C29.23 10.95 28.8 10.31 28.24 9.76C27.69 9.2 27.05 8.77 26.34 8.47C25.59 8.16 24.82 8 24 8C23.18 8 22.41 8.16 21.66 8.47C20.95 8.77 20.31 9.2 19.76 9.76C19.2 10.31 18.77 10.95 18.47 11.66ZM35 33.5C34.59 33.5 34.23 33.65 33.94 33.94C33.65 34.23 33.5 34.59 33.5 35C33.5 35.41 33.65 35.77 33.94 36.06C34.23 36.35 34.59 36.5 35 36.5C35.41 36.5 35.77 36.35 36.06 36.06C36.35 35.77 36.5 35.41 36.5 35C36.5 34.59 36.35 34.23 36.06 33.94C35.77 33.65 35.41 33.5 35 33.5Z" fill-rule="evenodd"  fill="#000000" >
</path>
</svg>
