<svg xmlns="http://www.w3.org/2000/svg" xmlns:xlink="http://www.w3.org/1999/xlink" width="48" height="48" viewBox="0 0 48 48" fill="none">
<path d="M34 14C34 19.5228 29.5228 24 24 24C18.4771 24 14 19.5228 14 14C14 8.47715 18.4771 4 24 4C29.5228 4 34 8.47715 34 14ZM30 14C30 10.6863 27.3137 8 24 8C20.6863 8 18 10.6863 18 14C18 17.3137 20.6863 20 24 20C27.3137 20 30 17.3137 30 14ZM23 44L10 44C6.68629 44 4 41.3137 4 38L4 34C4 29.5817 7.58172 26 12 26L23 26C24.1046 26 25 26.8954 25 28C25 29.1046 24.1046 30 23 30L12 30C9.79086 30 8 31.7909 8 34L8 38C8 39.1046 8.89543 40 10 40L23 40C24.1046 40 25 40.8954 25 42C25 43.1046 24.1046 44 23 44ZM37 30L37 29C37 27.3519 38.8815 26.4112 40.2 27.4L44.2 30.4C45.7376 31.5532 44.922 34 43 34L29 34C27.8954 34 27 33.1046 27 32C27 30.8955 27.8954 30 29 30L37 30ZM35 40L35 41C35 42.6481 33.1185 43.5888 31.8 42.6L27.8 39.6C26.2624 38.4468 27.078 36 29 36L43 36C44.1046 36 45 36.8954 45 38C45 39.1045 44.1046 40 43 40L35 40Z" fill-rule="evenodd"  fill="#000000" >
</path>
</svg>
