<svg xmlns="http://www.w3.org/2000/svg" xmlns:xlink="http://www.w3.org/1999/xlink" width="48" height="48" viewBox="0 0 48 48" fill="none">
<path d="M25.86 24.38C27.4 25.46 29.12 26 31 26C35.97 26 40 21.97 40 17C40 12.03 35.97 8 31 8C29.78 8 28.61 8.24 27.5 8.71C27.09 8.88 26.7 9.08 26.33 9.3C24.65 6.15 21.32 4 17.5 4C11.98 4 7.5 8.48 7.5 14C7.5 19.52 11.98 24 17.5 24C19.75 24 21.83 23.26 23.5 22C24.12 22.92 24.9 23.72 25.86 24.38ZM26.36 18.88C26.73 19.79 27.32 20.53 28.14 21.1C29 21.7 29.95 22 31 22C33.76 22 36 19.76 36 17C36 14.24 33.76 12 31 12C30.32 12 29.67 12.13 29.06 12.39C28.47 12.64 27.95 12.98 27.5 13.43C27.49 13.43 27.49 13.44 27.48 13.44C27.49 13.63 27.5 13.81 27.5 14C27.5 15.71 27.07 17.33 26.31 18.74C26.33 18.78 26.34 18.83 26.36 18.88ZM17.5 20C20.81 20 23.5 17.31 23.5 14C23.5 10.69 20.81 8 17.5 8C14.19 8 11.5 10.69 11.5 14C11.5 17.31 14.19 20 17.5 20ZM31 34L31 40L38 40C39.1 40 40 39.1 40 38L40 36C40 33.79 38.21 32 36 32L30.75 32C30.91 32.64 31 33.31 31 34ZM25.84 31.18C25.11 30.45 24.11 30 23 30L12 30C9.79 30 8 31.79 8 34L8 38C8 39.1 8.9 40 10 40L27 40L27 34C27 33.04 26.66 32.16 26.1 31.48C26.01 31.39 25.92 31.29 25.84 31.18ZM23 26L12 26C7.58 26 4 29.58 4 34L4 38C4 41.31 6.69 44 10 44L38 44C41.31 44 44 41.31 44 38L44 36C44 31.58 40.42 28 36 28L28.29 28C26.88 26.76 25.03 26 23 26Z" fill-rule="evenodd"  fill="#000000" >
</path>
</svg>
