<svg xmlns="http://www.w3.org/2000/svg" xmlns:xlink="http://www.w3.org/1999/xlink" width="48" height="48" viewBox="0 0 48 48" fill="none">
<path d="M27.89 4.79C26.65 4.26 25.36 4 24 4C22.64 4 21.35 4.26 20.11 4.79C18.91 5.29 17.85 6.01 16.93 6.93C16.01 7.85 15.29 8.91 14.79 10.11C14.26 11.35 14 12.64 14 14C14 15.36 14.26 16.65 14.79 17.89C15.29 19.09 16.01 20.15 16.93 21.07C17.85 21.99 18.91 22.71 20.11 23.21C21.35 23.74 22.64 24 24 24C25.36 24 26.65 23.74 27.89 23.21C29.09 22.71 30.15 21.99 31.07 21.07C31.99 20.15 32.71 19.09 33.21 17.89C33.74 16.65 34 15.36 34 14C34 12.64 33.74 11.35 33.21 10.11C32.71 8.91 31.99 7.85 31.07 6.93C30.15 6.01 29.09 5.29 27.89 4.79ZM21.66 8.47C20.95 8.77 20.31 9.2 19.76 9.76C19.2 10.31 18.77 10.95 18.47 11.66C18.16 12.41 18 13.18 18 14C18 14.82 18.16 15.59 18.47 16.34C18.77 17.05 19.2 17.69 19.76 18.24C20.31 18.8 20.95 19.23 21.66 19.53C22.41 19.84 23.18 20 24 20C24.82 20 25.59 19.84 26.34 19.53C27.05 19.23 27.69 18.8 28.24 18.24C28.8 17.69 29.23 17.05 29.53 16.34C29.84 15.59 30 14.82 30 14C30 13.18 29.84 12.41 29.53 11.66C29.23 10.95 28.8 10.31 28.24 9.76C27.69 9.2 27.05 8.77 26.34 8.47C25.59 8.16 24.82 8 24 8C23.18 8 22.41 8.16 21.66 8.47ZM43.37 30.89C42.96 29.93 42.39 29.08 41.66 28.34C40.92 27.61 40.07 27.04 39.11 26.63C38.12 26.21 37.08 26 36 26L12 26C10.92 26 9.88 26.21 8.89 26.63C7.93 27.04 7.08 27.61 6.34 28.34C5.61 29.08 5.04 29.93 4.63 30.89C4.21 31.88 4 32.92 4 34L4 38C4 38.81 4.16 39.59 4.47 40.34C4.78 41.05 5.2 41.69 5.76 42.24C6.31 42.8 6.95 43.22 7.66 43.53C8.41 43.84 9.19 44 10 44L38 44C38.81 44 39.59 43.84 40.34 43.53C41.05 43.22 41.69 42.8 42.24 42.24C42.8 41.69 43.22 41.05 43.53 40.34C43.84 39.59 44 38.81 44 38L44 34C44 32.92 43.79 31.88 43.37 30.89ZM37.55 30.31C37.06 30.1 36.54 30 36 30L12 30C11.46 30 10.94 30.1 10.45 30.31C9.97 30.52 9.54 30.8 9.17 31.17C8.8 31.54 8.52 31.97 8.31 32.45C8.1 32.94 8 33.46 8 34L8 38C8 38.27 8.05 38.53 8.16 38.78C8.26 39.02 8.4 39.23 8.59 39.41C8.77 39.6 8.98 39.74 9.22 39.84C9.47 39.95 9.73 40 10 40L38 40C38.27 40 38.53 39.95 38.78 39.84C39.02 39.74 39.23 39.6 39.41 39.41C39.6 39.23 39.74 39.02 39.84 38.78C39.95 38.53 40 38.27 40 38L40 34C40 33.46 39.9 32.94 39.69 32.45C39.48 31.97 39.2 31.54 38.83 31.17C38.46 30.8 38.03 30.52 37.55 30.31Z" fill-rule="evenodd"  fill="#000000" >
</path>
</svg>
