<svg xmlns="http://www.w3.org/2000/svg" xmlns:xlink="http://www.w3.org/1999/xlink" width="48" height="48" viewBox="0 0 48 48" fill="none">
<path d="M20.5 8.71C19.39 8.24 18.22 8 17 8C12.03 8 8 12.03 8 17C8 21.97 12.03 26 17 26C18.89 26 20.6 25.46 22.15 24.38C23.1 23.72 23.88 22.92 24.5 22C26.17 23.26 28.25 24 30.5 24C36.02 24 40.5 19.52 40.5 14C40.5 8.48 36.02 4 30.5 4C26.68 4 23.35 6.15 21.67 9.3C21.3 9.08 20.91 8.88 20.5 8.71ZM20.51 13.44C20.06 12.99 19.53 12.64 18.94 12.39C18.33 12.13 17.68 12 17 12C14.24 12 12 14.24 12 17C12 19.76 14.24 22 17 22C18.05 22 19 21.7 19.86 21.1C20.68 20.53 21.27 19.79 21.64 18.87C21.66 18.82 21.67 18.78 21.69 18.74C20.93 17.33 20.5 15.71 20.5 14C20.5 13.81 20.51 13.63 20.52 13.45C20.51 13.44 20.51 13.44 20.51 13.44ZM30.5 8C27.19 8 24.5 10.69 24.5 14C24.5 17.31 27.19 20 30.5 20C33.81 20 36.5 17.31 36.5 14C36.5 10.69 33.81 8 30.5 8ZM25 26C22.97 26 21.12 26.76 19.71 28L12 28C7.58 28 4 31.58 4 36L4 38C4 41.31 6.69 44 10 44L38 44C41.31 44 44 41.31 44 38L44 34C44 29.58 40.42 26 36 26L25 26ZM21 34L21 40L38 40C39.1 40 40 39.1 40 38L40 34C40 31.79 38.21 30 36 30L25 30C23.89 30 22.89 30.45 22.16 31.18C22.08 31.29 21.99 31.39 21.9 31.48C21.34 32.16 21 33.04 21 34ZM12 32C9.79 32 8 33.79 8 36L8 38C8 39.1 8.9 40 10 40L17 40L17 34C17 33.31 17.09 32.64 17.25 32L12 32Z" fill-rule="evenodd"  fill="#000000" >
</path>
</svg>
