<svg xmlns="http://www.w3.org/2000/svg" xmlns:xlink="http://www.w3.org/1999/xlink" width="48" height="48" viewBox="0 0 48 48" fill="none">
<path d="M24 24C29.52 24 34 19.52 34 14C34 8.48 29.52 4 24 4C18.48 4 14 8.48 14 14C14 19.52 18.48 24 24 24ZM24 8C20.69 8 18 10.69 18 14C18 17.31 20.69 20 24 20C27.31 20 30 17.31 30 14C30 10.69 27.31 8 24 8ZM32.5 32.5L26 32.5C24.9 32.5 24 33.4 24 34.5C24 35.6 24.9 36.5 26 36.5L32.5 36.5L32.5 43C32.5 44.1 33.4 45 34.5 45C35.6 45 36.5 44.1 36.5 43L36.5 36.5L43 36.5C44.1 36.5 45 35.6 45 34.5C45 33.4 44.1 32.5 43 32.5L36.5 32.5L36.5 26C36.5 24.9 35.6 24 34.5 24C33.4 24 32.5 24.9 32.5 26L32.5 32.5ZM20 40L10 40C8.9 40 8 39.1 8 38L8 34C8 31.79 9.79 30 12 30L20 30C21.1 30 22 29.1 22 28C22 26.9 21.1 26 20 26L12 26C7.58 26 4 29.58 4 34L4 38C4 41.31 6.69 44 10 44L20 44C21.1 44 22 43.1 22 42C22 40.9 21.1 40 20 40Z" fill-rule="evenodd"  fill="#000000" >
</path>
</svg>
