<svg xmlns="http://www.w3.org/2000/svg" xmlns:xlink="http://www.w3.org/1999/xlink" width="48" height="48" viewBox="0 0 48 48" fill="none">
<path d="M14 14C14 19.52 18.48 24 24 24C29.52 24 34 19.52 34 14C34 8.48 29.52 4 24 4C18.48 4 14 8.48 14 14ZM40.5 34.99C40.49 31.96 38.03 29.5 35 29.5C31.96 29.5 29.5 31.96 29.5 35C29.5 38.04 31.96 40.5 35 40.5C36.44 40.5 37.76 39.94 38.74 39.03C39.47 39.49 40.33 39.75 41.25 39.75C43.87 39.75 46 37.62 46 35C46 28.92 41.08 24 35 24C28.92 24 24 28.92 24 35C24 41.08 28.92 46 35 46C36.96 46 38.75 45.6 40.35 44.81C41.03 44.49 41.5 43.8 41.5 43C41.5 41.9 40.6 41 39.5 41C39.17 41 38.85 41.08 38.57 41.23C37.53 41.74 36.34 42 35 42C31.13 42 28 38.87 28 35C28 31.13 31.13 28 35 28C38.87 28 42 31.13 42 35C42 35.41 41.66 35.75 41.25 35.75C40.84 35.75 40.5 35.42 40.5 35L40.5 34.99ZM20.5 35C20.5 32.65 20.93 30.61 21.79 28.89C22.45 27.56 21.49 26 20 26L12 26C7.58 26 4 29.58 4 34L4 38C4 41.31 6.69 44 10 44L20 44C21.49 44 22.45 42.44 21.79 41.11C20.93 39.39 20.5 37.35 20.5 35ZM33.5 35C33.5 35.83 34.17 36.5 35 36.5C35.83 36.5 36.5 35.83 36.5 35C36.5 34.17 35.83 33.5 35 33.5C34.17 33.5 33.5 34.17 33.5 35Z" fill-rule="evenodd"  fill="#000000" >
</path>
</svg>
