<svg xmlns="http://www.w3.org/2000/svg" xmlns:xlink="http://www.w3.org/1999/xlink" width="48" height="48" viewBox="0 0 48 48" fill="none">
<path d="M34 14C34 19.5228 29.5228 24 24 24C18.4771 24 14 19.5228 14 14C14 8.47715 18.4771 4 24 4C29.5228 4 34 8.47715 34 14ZM4 34L4 38C4 41.3137 6.68629 44 10 44L22 44C23.4868 44 24.4538 42.4354 23.7889 41.1056C22.9296 39.3871 22.5 37.3519 22.5 35C22.5 32.6481 22.9296 30.6129 23.7889 28.8944C24.1213 28.2295 24.0458 27.5059 23.9249 27.3103C23.9035 27.2757 23.8806 27.2576 23.8584 27.2594C23.5702 26.5421 22.8752 26 22 26L12 26C7.58172 26 4 29.5817 4 34ZM37 29L37 30L29 30C27.8954 30 27 30.8955 27 32C27 33.1046 27.8954 34 29 34L43 34C44.922 34 45.7376 31.5532 44.2 30.4L40.2 27.4C38.8815 26.4112 37 27.3519 37 29ZM35 41L35 40L43 40C44.1046 40 45 39.1045 45 38C45 36.8954 44.1046 36 43 36L29 36C27.078 36 26.2624 38.4468 27.8 39.6L31.8 42.6C33.1185 43.5888 35 42.6481 35 41Z" fill-rule="evenodd"  fill="#000000" >
</path>
</svg>
