<svg xmlns="http://www.w3.org/2000/svg" xmlns:xlink="http://www.w3.org/1999/xlink" width="48" height="48" viewBox="0 0 48 48" fill="none">
<path d="M14 14C14 19.52 18.48 24 24 24C29.52 24 34 19.52 34 14C34 8.48 29.52 4 24 4C18.48 4 14 8.48 14 14ZM32.5 32.5L26 32.5C24.9 32.5 24 33.4 24 34.5C24 35.6 24.9 36.5 26 36.5L32.5 36.5L32.5 43C32.5 44.1 33.4 45 34.5 45C35.6 45 36.5 44.1 36.5 43L36.5 36.5L43 36.5C44.1 36.5 45 35.6 45 34.5C45 33.4 44.1 32.5 43 32.5L36.5 32.5L36.5 26C36.5 24.9 35.6 24 34.5 24C33.4 24 32.5 24.9 32.5 26L32.5 32.5ZM21.17 39.43C20.72 37.95 20.5 36.47 20.5 35C20.5 33.53 20.72 32.05 21.17 30.57C21.38 29.85 21.59 29.29 21.79 28.89C22.45 27.56 21.49 26 20 26L12 26C7.58 26 4 29.58 4 34L4 38C4 41.31 6.69 44 10 44L20 44C21.49 44 22.45 42.44 21.79 41.11C21.59 40.71 21.38 40.15 21.17 39.43Z" fill-rule="evenodd"  fill="#000000" >
</path>
</svg>
