<svg xmlns="http://www.w3.org/2000/svg" xmlns:xlink="http://www.w3.org/1999/xlink" width="48" height="48" viewBox="0 0 48 48" fill="none">
<path d="M20.94 16.93C21.12 17.52 21.35 18.08 21.63 18.61C22.09 19.51 22.69 20.33 23.41 21.05C23.42 21.06 23.42 21.06 23.43 21.07C23.44 21.08 23.44 21.08 23.45 21.09C24.17 21.81 24.99 22.41 25.89 22.87C26.42 23.15 26.98 23.38 27.57 23.56C28.51 23.86 29.49 24 30.5 24C31.51 24 32.49 23.86 33.43 23.56C34.02 23.38 34.58 23.15 35.11 22.87C36.01 22.41 36.83 21.81 37.55 21.09C37.56 21.08 37.56 21.08 37.57 21.07C37.58 21.06 37.58 21.06 37.59 21.05C38.31 20.33 38.91 19.51 39.37 18.61C39.65 18.08 39.88 17.52 40.06 16.93C40.36 15.99 40.5 15.01 40.5 14C40.5 12.99 40.36 12.01 40.06 11.07C39.88 10.48 39.65 9.92 39.37 9.39C38.91 8.48 38.3 7.66 37.58 6.94C37.57 6.93 37.57 6.93 37.57 6.93C37.57 6.93 37.57 6.93 37.56 6.92C36.84 6.2 36.02 5.59 35.11 5.13C34.58 4.85 34.02 4.62 33.43 4.44C32.49 4.14 31.51 4 30.5 4C29.49 4 28.51 4.14 27.57 4.44C26.98 4.62 26.42 4.85 25.89 5.13C24.98 5.59 24.16 6.2 23.44 6.92C23.43 6.93 23.43 6.93 23.43 6.93C23.43 6.93 23.43 6.93 23.42 6.94C22.7 7.66 22.09 8.48 21.63 9.39C21.35 9.92 21.12 10.48 20.94 11.07C20.64 12.01 20.5 12.99 20.5 14C20.5 15.01 20.64 15.99 20.94 16.93ZM8 17C8 18.22 8.24 19.39 8.71 20.5C9.16 21.58 9.8 22.54 10.63 23.37C11.46 24.2 12.42 24.84 13.5 25.29C14.61 25.76 15.78 26 17 26C18.22 26 19.39 25.76 20.5 25.29C21.19 25 21.83 24.64 22.43 24.19C22.04 23.88 21.66 23.55 21.31 23.19C20.11 22 19.18 20.62 18.52 19.06C17.84 17.45 17.5 15.76 17.5 14C17.5 12.24 17.84 10.55 18.52 8.94C18.63 8.69 18.74 8.44 18.86 8.19C18.26 8.07 17.64 8 17 8C15.78 8 14.61 8.24 13.5 8.71C12.42 9.16 11.46 9.8 10.63 10.63C9.8 11.46 9.16 12.42 8.71 13.5C8.24 14.61 8 15.78 8 17ZM44 38L44 34C44 29.58 40.42 26 36 26L25 26C20.58 26 17 29.58 17 34L17 44L38 44C41.31 44 44 41.31 44 38ZM14 34C14 32.51 14.29 31.08 14.87 29.72C15.12 29.11 15.43 28.54 15.78 28L12 28C10.94 28 9.92 28.2 8.94 28.61C7.95 29.02 7.09 29.6 6.34 30.35C5.59 31.09 5.02 31.95 4.61 32.94C4.2 33.92 4 34.94 4 36L4 38C4 38.81 4.16 39.59 4.47 40.34C4.78 41.05 5.2 41.69 5.76 42.24C6.31 42.8 6.95 43.22 7.66 43.53C8.41 43.84 9.19 44 10 44L14 44L14 34Z" fill-rule="evenodd"  fill="#000000" >
</path>
</svg>
