<svg xmlns="http://www.w3.org/2000/svg" xmlns:xlink="http://www.w3.org/1999/xlink" width="48" height="48" viewBox="0 0 48 48" fill="none">
<path d="M27.06 11.07C26.88 10.48 26.65 9.92 26.37 9.39C25.91 8.48 25.3 7.66 24.58 6.94C24.57 6.93 24.57 6.93 24.57 6.93C24.57 6.93 24.57 6.93 24.56 6.92C23.84 6.2 23.02 5.59 22.11 5.13C21.58 4.85 21.02 4.62 20.43 4.44C19.49 4.14 18.51 4 17.5 4C16.49 4 15.51 4.14 14.57 4.44C13.98 4.62 13.42 4.85 12.89 5.13C11.98 5.59 11.16 6.2 10.44 6.92C10.43 6.93 10.43 6.93 10.43 6.93C10.43 6.93 10.43 6.93 10.42 6.94C9.7 7.66 9.09 8.48 8.63 9.39C8.35 9.92 8.12 10.48 7.94 11.07C7.64 12.01 7.5 12.99 7.5 14C7.5 15.01 7.64 15.99 7.94 16.93C8.12 17.52 8.35 18.08 8.63 18.61C9.09 19.51 9.69 20.33 10.41 21.05C10.42 21.06 10.42 21.06 10.43 21.07C10.44 21.08 10.44 21.08 10.45 21.09C11.17 21.81 11.99 22.41 12.89 22.87C13.42 23.15 13.98 23.38 14.57 23.56C15.51 23.86 16.49 24 17.5 24C18.51 24 19.49 23.86 20.43 23.56C21.02 23.38 21.58 23.15 22.11 22.87C23.01 22.41 23.83 21.81 24.55 21.09C24.56 21.08 24.56 21.08 24.57 21.07C24.58 21.06 24.58 21.06 24.59 21.05C25.31 20.33 25.91 19.51 26.37 18.61C26.65 18.08 26.88 17.52 27.06 16.93C27.36 15.99 27.5 15.01 27.5 14C27.5 12.99 27.36 12.01 27.06 11.07ZM29.48 8.94C30.16 10.55 30.5 12.24 30.5 14C30.5 15.76 30.16 17.45 29.48 19.06C28.82 20.62 27.89 22 26.69 23.19C26.34 23.55 25.97 23.88 25.58 24.19C26.17 24.64 26.81 25 27.5 25.29C28.61 25.76 29.78 26 31 26C32.22 26 33.39 25.76 34.5 25.29C35.58 24.84 36.54 24.2 37.37 23.37C38.2 22.54 38.84 21.58 39.29 20.5C39.76 19.39 40 18.22 40 17C40 15.78 39.76 14.61 39.29 13.5C38.84 12.42 38.2 11.46 37.37 10.63C36.54 9.8 35.58 9.16 34.5 8.71C33.39 8.24 32.22 8 31 8C30.37 8 29.75 8.07 29.14 8.19C29.26 8.44 29.38 8.69 29.48 8.94ZM4 34L4 38C4 41.31 6.69 44 10 44L31 44L31 34C31 29.58 27.42 26 23 26L12 26C7.58 26 4 29.58 4 34ZM40.34 43.53C41.05 43.22 41.69 42.8 42.24 42.24C42.8 41.69 43.22 41.05 43.53 40.34C43.84 39.59 44 38.81 44 38L44 36C44 34.94 43.8 33.92 43.39 32.94C42.98 31.95 42.41 31.09 41.66 30.35C40.91 29.6 40.05 29.02 39.06 28.61C38.08 28.2 37.06 28 36 28L32.22 28C32.57 28.54 32.88 29.11 33.13 29.72C33.71 31.08 34 32.51 34 34L34 44L38 44C38.81 44 39.59 43.84 40.34 43.53Z" fill-rule="evenodd"  fill="#000000" >
</path>
</svg>
