<svg xmlns="http://www.w3.org/2000/svg" xmlns:xlink="http://www.w3.org/1999/xlink" width="48" height="48" viewBox="0 0 48 48" fill="none">
<path d="M33.21 17.89C33.74 16.65 34 15.36 34 14C34 12.64 33.74 11.35 33.21 10.11C32.71 8.91 31.99 7.85 31.07 6.93C30.15 6.01 29.09 5.29 27.89 4.79C26.65 4.26 25.36 4 24 4C22.64 4 21.35 4.26 20.11 4.79C18.91 5.29 17.85 6.01 16.93 6.93C16.01 7.85 15.29 8.91 14.79 10.11C14.26 11.35 14 12.64 14 14C14 15.36 14.26 16.65 14.79 17.89C15.29 19.09 16.01 20.15 16.93 21.07C17.85 21.99 18.91 22.71 20.11 23.21C21.35 23.74 22.64 24 24 24C25.36 24 26.65 23.74 27.89 23.21C29.09 22.71 30.15 21.99 31.07 21.07C31.99 20.15 32.71 19.09 33.21 17.89ZM5.76 42.24C6.31 42.8 6.95 43.22 7.66 43.53C8.41 43.84 9.19 44 10 44L38 44C38.81 44 39.59 43.84 40.34 43.53C41.05 43.22 41.69 42.8 42.24 42.24C42.8 41.69 43.22 41.05 43.53 40.34C43.84 39.59 44 38.81 44 38L44 34C44 32.92 43.79 31.88 43.37 30.89C42.96 29.93 42.39 29.08 41.66 28.34C40.92 27.61 40.07 27.04 39.11 26.63C38.12 26.21 37.08 26 36 26L12 26C10.92 26 9.88 26.21 8.89 26.63C7.93 27.04 7.08 27.61 6.34 28.34C5.61 29.08 5.04 29.93 4.63 30.89C4.21 31.88 4 32.92 4 34L4 38C4 38.81 4.16 39.59 4.47 40.34C4.78 41.05 5.2 41.69 5.76 42.24Z" fill-rule="evenodd"  fill="#000000" >
</path>
</svg>
