<svg xmlns="http://www.w3.org/2000/svg" xmlns:xlink="http://www.w3.org/1999/xlink" width="48" height="48" viewBox="0 0 48 48" fill="none">
<path d="M14.5986 19.71C15.3386 20.93 16.2686 21.96 17.3786 22.79L15.5086 29L11.3686 29C9.17857 29 7.15857 30.2 6.10857 32.12L4.23857 35.54C2.16857 39.35 4.92857 44 9.25857 44L38.7386 44C43.0786 44 45.8286 39.36 43.7586 35.54L41.8986 32.12C40.8386 30.2 38.8186 29 36.6286 29L32.4886 29L30.6186 22.79C31.7286 21.96 32.6586 20.93 33.3986 19.71C34.4686 17.96 34.9986 16.06 34.9986 14C34.9986 7.92 30.0786 3 23.9986 3C17.9186 3 12.9986 7.92 12.9986 14C12.9986 16.06 13.5286 17.96 14.5986 19.71ZM26.3586 22.5C26.0886 21.59 26.4886 20.61 27.3186 20.16C28.4386 19.56 29.3286 18.72 29.9786 17.63C30.6586 16.52 30.9986 15.31 30.9986 14C30.9986 10.13 27.8686 7 23.9986 7C20.1286 7 16.9986 10.13 16.9986 14C16.9986 15.31 17.3386 16.52 18.0186 17.63C18.6686 18.72 19.5586 19.56 20.6786 20.16C21.0886 20.39 21.3986 20.74 21.4486 20.87C21.4586 20.89 21.4586 20.91 21.4486 20.91C21.7186 21.37 21.7986 21.95 21.6386 22.5L19.6886 29L28.3086 29L26.3586 22.5ZM11.3686 33C10.6386 33 9.96857 33.4 9.60857 34.04L7.75857 37.46C7.13857 38.6 7.95857 40 9.25857 40L38.7386 40C40.0486 40 40.8686 38.61 40.2386 37.46L38.3786 34.04C38.0286 33.4 37.3586 33 36.6286 33L16.9986 33L11.3686 33Z" fill-rule="evenodd"  fill="#000000" >
</path>
</svg>
