<svg xmlns="http://www.w3.org/2000/svg" xmlns:xlink="http://www.w3.org/1999/xlink" width="48" height="48" viewBox="0 0 48 48" fill="none">
<path d="M22.94 36.76C23 36.73 23.06 36.7 23.11 36.66C23.17 36.63 23.22 36.59 23.27 36.55C23.32 36.5 23.37 36.46 23.41 36.41C23.46 36.37 23.5 36.32 23.55 36.27C23.59 36.22 23.63 36.17 23.66 36.11C23.7 36.06 23.73 36 23.76 35.94C23.79 35.89 23.82 35.83 23.85 35.77C23.87 35.7 23.89 35.64 23.91 35.58C23.93 35.52 23.95 35.45 23.96 35.39C23.97 35.33 23.98 35.26 23.99 35.2C24 35.13 24 35.07 24 35C24 34.93 24 34.87 23.99 34.8C23.98 34.74 23.97 34.67 23.96 34.61C23.95 34.55 23.93 34.48 23.91 34.42C23.89 34.36 23.87 34.3 23.85 34.23C23.82 34.17 23.79 34.11 23.76 34.06C23.73 34 23.7 33.94 23.66 33.89C23.63 33.83 23.59 33.78 23.55 33.73C23.5 33.68 23.46 33.63 23.41 33.59C23.37 33.54 23.32 33.5 23.27 33.45C23.22 33.41 23.17 33.37 23.11 33.34C23.06 33.3 23 33.27 22.94 33.24C22.89 33.21 22.83 33.18 22.77 33.15C22.7 33.13 22.64 33.11 22.58 33.09C22.52 33.07 22.45 33.05 22.39 33.04C22.33 33.03 22.26 33.02 22.2 33.01C22.13 33 22.07 33 22 33L16 33C15.93 33 15.87 33 15.8 33.01C15.74 33.02 15.67 33.03 15.61 33.04C15.55 33.05 15.48 33.07 15.42 33.09C15.36 33.11 15.3 33.13 15.23 33.15C15.17 33.18 15.11 33.21 15.06 33.24C15 33.27 14.94 33.3 14.89 33.34C14.83 33.37 14.78 33.41 14.73 33.45C14.68 33.5 14.63 33.54 14.59 33.59C14.54 33.63 14.5 33.68 14.45 33.73C14.41 33.78 14.37 33.83 14.34 33.89C14.3 33.94 14.27 34 14.24 34.06C14.21 34.11 14.18 34.17 14.15 34.23C14.13 34.3 14.11 34.36 14.09 34.42C14.07 34.48 14.05 34.55 14.04 34.61C14.03 34.67 14.02 34.74 14.01 34.8C14 34.87 14 34.93 14 35C14 35.07 14 35.13 14.01 35.2C14.02 35.26 14.03 35.33 14.04 35.39C14.05 35.45 14.07 35.52 14.09 35.58C14.11 35.64 14.13 35.7 14.15 35.77C14.18 35.83 14.21 35.89 14.24 35.94C14.27 36 14.3 36.06 14.34 36.11C14.37 36.17 14.41 36.22 14.45 36.27C14.5 36.32 14.54 36.37 14.59 36.41C14.63 36.46 14.68 36.5 14.73 36.55C14.78 36.59 14.83 36.63 14.89 36.66C14.94 36.7 15 36.73 15.06 36.76C15.11 36.79 15.17 36.82 15.23 36.85C15.3 36.87 15.36 36.89 15.42 36.91C15.48 36.93 15.55 36.95 15.61 36.96C15.67 36.97 15.74 36.98 15.8 36.99C15.87 37 15.93 37 16 37L22 37C22.07 37 22.13 37 22.2 36.99C22.26 36.98 22.33 36.97 22.39 36.96C22.45 36.95 22.52 36.93 22.58 36.91C22.64 36.89 22.7 36.87 22.77 36.85C22.83 36.82 22.89 36.79 22.94 36.76ZM14.01 26.8C14 26.87 14 26.93 14 27C14 27.07 14 27.13 14.01 27.2C14.02 27.26 14.03 27.33 14.04 27.39C14.05 27.45 14.07 27.52 14.09 27.58C14.11 27.64 14.13 27.7 14.15 27.77C14.18 27.83 14.21 27.89 14.24 27.94C14.27 28 14.3 28.06 14.34 28.11C14.37 28.17 14.41 28.22 14.45 28.27C14.5 28.32 14.54 28.37 14.59 28.41C14.63 28.46 14.68 28.5 14.73 28.55C14.78 28.59 14.83 28.63 14.89 28.66C14.94 28.7 15 28.73 15.06 28.76C15.11 28.79 15.17 28.82 15.23 28.85C15.3 28.87 15.36 28.89 15.42 28.91C15.48 28.93 15.55 28.95 15.61 28.96C15.67 28.97 15.74 28.98 15.8 28.99C15.87 29 15.93 29 16 29L32 29C32.07 29 32.13 29 32.2 28.99C32.26 28.98 32.33 28.97 32.39 28.96C32.45 28.95 32.52 28.93 32.58 28.91C32.64 28.89 32.7 28.87 32.77 28.85C32.83 28.82 32.89 28.79 32.94 28.76C33 28.73 33.06 28.7 33.11 28.66C33.17 28.63 33.22 28.59 33.27 28.55C33.32 28.5 33.37 28.46 33.41 28.41C33.46 28.37 33.5 28.32 33.55 28.27C33.59 28.22 33.63 28.17 33.66 28.11C33.7 28.06 33.73 28 33.76 27.94C33.79 27.89 33.82 27.83 33.85 27.77C33.87 27.7 33.89 27.64 33.91 27.58C33.93 27.52 33.95 27.45 33.96 27.39C33.97 27.33 33.98 27.26 33.99 27.2C34 27.13 34 27.07 34 27C34 26.93 34 26.87 33.99 26.8C33.98 26.74 33.97 26.67 33.96 26.61C33.95 26.55 33.93 26.48 33.91 26.42C33.89 26.36 33.87 26.3 33.85 26.23C33.82 26.17 33.79 26.11 33.76 26.06C33.73 26 33.7 25.94 33.66 25.89C33.63 25.83 33.59 25.78 33.55 25.73C33.5 25.68 33.46 25.63 33.41 25.59C33.37 25.54 33.32 25.5 33.27 25.45C33.22 25.41 33.17 25.37 33.11 25.34C33.06 25.3 33 25.27 32.94 25.24C32.89 25.21 32.83 25.18 32.77 25.15C32.7 25.13 32.64 25.11 32.58 25.09C32.52 25.07 32.45 25.05 32.39 25.04C32.33 25.03 32.26 25.02 32.2 25.01C32.13 25 32.07 25 32 25L16 25C15.93 25 15.87 25 15.8 25.01C15.74 25.02 15.67 25.03 15.61 25.04C15.55 25.05 15.48 25.07 15.42 25.09C15.36 25.11 15.3 25.13 15.23 25.15C15.17 25.18 15.11 25.21 15.06 25.24C15 25.27 14.94 25.3 14.89 25.34C14.83 25.37 14.78 25.41 14.73 25.45C14.68 25.5 14.63 25.54 14.59 25.59C14.54 25.63 14.5 25.68 14.45 25.73C14.41 25.78 14.37 25.83 14.34 25.89C14.3 25.94 14.27 26 14.24 26.06C14.21 26.11 14.18 26.17 14.15 26.23C14.13 26.3 14.11 26.36 14.09 26.42C14.07 26.48 14.05 26.55 14.04 26.61C14.03 26.67 14.02 26.74 14.01 26.8ZM37.69 9.45C37.48 8.97 37.2 8.54 36.83 8.17C36.46 7.8 36.03 7.52 35.55 7.31C35.06 7.1 34.54 7 34 7L28 7L28 16.73C28 17.27 27.86 17.77 27.59 18.24C27.32 18.71 26.95 19.07 26.49 19.33C26.02 19.6 25.51 19.74 24.96 19.73C24.44 19.72 23.94 19.58 23.46 19.31L21 17.83L18.51 19.32C18.06 19.59 17.56 19.72 17.04 19.73C16.49 19.74 15.99 19.61 15.53 19.34C15.05 19.08 14.68 18.71 14.41 18.24C14.14 17.77 14 17.27 14 16.73L14 7C13.46 7 12.94 7.1 12.45 7.31C11.97 7.52 11.54 7.8 11.17 8.17C10.8 8.54 10.52 8.97 10.31 9.45C10.1 9.94 10 10.46 10 11L10 37C10 37.54 10.1 38.06 10.31 38.55C10.52 39.03 10.8 39.46 11.17 39.83C11.54 40.2 11.97 40.48 12.45 40.69C12.94 40.9 13.46 41 14 41L34 41C34.54 41 35.06 40.9 35.55 40.69C36.03 40.48 36.46 40.2 36.83 39.83C37.2 39.46 37.48 39.03 37.69 38.55C37.9 38.06 38 37.54 38 37L38 11C38 10.46 37.9 9.94 37.69 9.45ZM42 11C42 9.92 41.79 8.88 41.37 7.89C40.96 6.93 40.39 6.08 39.66 5.34C38.92 4.61 38.07 4.04 37.11 3.63C36.12 3.21 35.08 3 34 3L14 3C12.92 3 11.88 3.21 10.89 3.63C9.93 4.04 9.08 4.61 8.34 5.34C7.61 6.08 7.04 6.93 6.63 7.89C6.21 8.88 6 9.92 6 11L6 37C6 38.08 6.21 39.12 6.63 40.11C7.04 41.07 7.61 41.92 8.34 42.66C9.08 43.39 9.93 43.96 10.89 44.37C11.88 44.79 12.92 45 14 45L34 45C35.08 45 36.12 44.79 37.11 44.37C38.07 43.96 38.92 43.39 39.66 42.66C40.39 41.92 40.96 41.07 41.37 40.11C41.79 39.12 42 38.08 42 37L42 11ZM21.52 17.53C21.51 17.53 21.5 17.53 21.5 17.54L21.52 17.53ZM18 7L18 14.97L19.46 14.09C19.93 13.81 20.44 13.67 21 13.67C21.56 13.67 22.08 13.81 22.56 14.1L24 14.97L24 7L18 7ZM20.49 17.53C20.48 17.52 20.47 17.52 20.46 17.52L20.49 17.53Z" fill-rule="evenodd"  fill="#000000" >
</path>
</svg>
