<svg xmlns="http://www.w3.org/2000/svg" xmlns:xlink="http://www.w3.org/1999/xlink" width="48" height="48" viewBox="0 0 48 48" fill="none">
<path d="M40 11C40 6.58 36.42 3 32 3L12 3C7.58 3 4 6.58 4 11L4 37C4 41.42 7.58 45 12 45L43 45C45.21 45 47 43.21 47 41L47 37C47 33.69 44.31 31 41 31L27 31C23.69 31 21 33.69 21 37L21 41L12 41C9.79 41 8 39.21 8 37L8 11C8 8.79 9.79 7 12 7L32 7C34.21 7 36 8.79 36 11L36 14.25C35.36 14.09 34.69 14 34 14C29.58 14 26 17.58 26 22C26 26.42 29.58 30 34 30C38.42 30 42 26.42 42 22C42 19.97 41.24 18.12 40 16.71L40 11ZM28 13C28 11.9 27.1 11 26 11L14 11C12.9 11 12 11.9 12 13C12 14.1 12.9 15 14 15L26 15C27.1 15 28 14.1 28 13ZM38 22C38 19.79 36.21 18 34 18C31.79 18 30 19.79 30 22C30 24.21 31.79 26 34 26C36.21 26 38 24.21 38 22ZM22 21C22 19.9 21.1 19 20 19L14 19C12.9 19 12 19.9 12 21C12 22.1 12.9 23 14 23L20 23C21.1 23 22 22.1 22 21ZM41 35L27 35C25.9 35 25 35.9 25 37L25 41L43 41L43 37C43 35.9 42.1 35 41 35Z" fill-rule="evenodd"  fill="#000000" >
</path>
</svg>
