<svg xmlns="http://www.w3.org/2000/svg" xmlns:xlink="http://www.w3.org/1999/xlink" width="48" height="48" viewBox="0 0 48 48" fill="none">
<path d="M17.381 22.79L15.211 30L11.261 30C9.151 30 7.201 31.1 6.111 32.91L4.281 35.97C2.161 39.5 4.711 44 8.831 44L39.171 44C43.291 44 45.831 39.51 43.721 35.97L43.711 35.97L41.891 32.91C40.801 31.1 38.851 30 36.741 30L32.791 30L30.621 22.79C31.731 21.96 32.661 20.93 33.401 19.71C34.471 17.96 35.001 16.06 35.001 14C35.001 7.92 30.081 3 24.001 3C17.921 3 13.001 7.92 13.001 14C13.001 16.06 13.531 17.96 14.601 19.71C15.341 20.93 16.271 21.96 17.381 22.79Z" fill-rule="evenodd"  fill="#000000" >
</path>
</svg>
