<svg xmlns="http://www.w3.org/2000/svg" xmlns:xlink="http://www.w3.org/1999/xlink" width="48" height="48" viewBox="0 0 48 48" fill="none">
<path d="M6 37C6 41.4183 9.58172 45 14 45L34 45C38.4183 45 42 41.4183 42 37L42 11C42 6.58172 38.4183 3 34 3L14 3C9.58172 3 6 6.58172 6 11L6 37ZM14 16.73L14 9C14 7.89543 14.8954 7 16 7C17.1046 7 18 7.89543 18 9L18 14.9677L19.4644 14.093C20.3991 13.5199 21.6009 13.5199 22.5551 14.1048L24 14.9678L24 9C24 7.89543 24.8954 7 26 7C27.1046 7 28 7.89543 28 9L28 16.73C28 19.0602 25.4655 20.5017 23.4644 19.307L21.0001 17.8349L18.5352 19.3072C16.5378 20.4997 14 19.0563 14 16.73ZM20.4649 17.5152C20.4715 17.5193 20.4783 17.5233 20.485 17.5272L20.4649 17.5152ZM21.5156 17.527C21.5095 17.5308 21.5033 17.5344 21.4972 17.538L21.5156 17.527ZM16 29C14.8954 29 14 28.1046 14 27C14 25.8954 14.8954 25 16 25L32 25C33.1046 25 34 25.8954 34 27C34 28.1046 33.1046 29 32 29L16 29ZM14 35C14 36.1046 14.8954 37 16 37L22 37C23.1046 37 24 36.1046 24 35C24 33.8954 23.1046 33 22 33L16 33C14.8954 33 14 33.8954 14 35Z" fill-rule="evenodd"  fill="#000000" >
</path>
</svg>
