<svg xmlns="http://www.w3.org/2000/svg" xmlns:xlink="http://www.w3.org/1999/xlink" width="48" height="48" viewBox="0 0 48 48" fill="none">
<path d="M31 3L11 3C6.58172 3 3 6.58172 3 11L3 37C3 41.4183 6.58172 45 11 45L16 45L16 37C16 32.1892 19.3937 28.1759 23.92 27.22C22.7066 25.4516 22 23.3067 22 21C22 14.9249 26.9249 10 33 10C35.2136 10 37.2744 10.6549 39 11.78L39 11C39 6.58172 35.4183 3 31 3ZM9 11C9 12.1046 9.89543 13 11 13L19 13C20.1045 13 21 12.1046 21 11C21 9.89543 20.1045 9 19 9L11 9C9.89543 9 9 9.89543 9 11ZM40 21C40 24.866 36.866 28 33 28C29.134 28 26 24.866 26 21C26 17.134 29.134 14 33 14C36.866 14 40 17.134 40 21ZM9 19C9 20.1046 9.89543 21 11 21L15 21C16.1046 21 17 20.1046 17 19C17 17.8954 16.1046 17 15 17L11 17C9.89543 17 9 17.8954 9 19ZM20 37L20 45L43 45C44.6569 45 46 43.6569 46 42L46 37C46 33.6863 43.3137 31 40 31L26 31C22.6863 31 20 33.6863 20 37Z" fill-rule="evenodd"  fill="#000000" >
</path>
</svg>
