<svg xmlns="http://www.w3.org/2000/svg" xmlns:xlink="http://www.w3.org/1999/xlink" width="48" height="48" viewBox="0 0 48 48" fill="none">
<path d="M26.4643 11.113L38.4316 11.113C38.6154 11.113 38.7571 11.263 38.7572 11.4444C38.7574 12.6013 38.46 14.0896 37.7824 14.0896L26.4643 14.0896L26.4643 18.013L34.6219 18.0129L34.622 18.013L34.6548 18.013C35.0169 18.013 35.3088 18.3047 35.3065 18.6623C35.2788 23.0378 33.803 27.4279 31.3902 31.2586C35.3175 32.9745 39.6186 34.4109 44.9985 34.5771C45.5749 34.5949 46.0257 35.074 45.9987 35.6427C45.8606 38.5517 45.0733 42.25 42.0736 42.25C41.8673 42.25 41.6645 42.2439 41.4652 42.232C36.92 41.9802 32.3676 38.9622 27.6771 35.8604C27.6698 35.8556 27.6625 35.8508 27.6553 35.846C27.6629 35.8512 27.6698 35.8558 27.676 35.8599C26.6259 36.8827 25.4797 37.8124 24.245 38.6268C24.2425 38.6284 24.2401 38.63 24.2376 38.6315C20.8255 40.8785 16.7324 42.2495 12.1341 42.2495C6.27921 42.2495 2.00021 38.4073 2 33.6107L2 33.6104C2 28.7534 6.18283 24.9289 12.1341 24.9289C17.1805 24.9289 21.2867 26.5484 25.3965 28.4613L25.3965 28.4611C26.4837 26.3016 27.2624 23.8049 27.5874 20.9895L11.6066 20.9895C11.4272 20.9895 11.2813 20.8465 11.281 20.6694C11.2789 19.6121 11.5757 18.013 12.2557 18.013L20.2119 18.013L20.2119 14.0896L8.20542 14.0896C8.02158 14.0896 7.8798 13.9397 7.8798 13.7582C7.87959 12.6644 8.17696 11.113 8.85449 11.113L20.2119 11.113L20.2119 7.97591C20.2119 6.43227 21.2766 5.25011 26.135 5.25011C26.316 5.25011 26.4643 5.39306 26.4643 5.5718L26.4643 11.113ZM25.3971 28.4616L25.3968 28.4615L25.3972 28.4617L25.3971 28.4616ZM4.6561 33.6226L4.65611 33.6108C4.65611 38.8674 15.1423 41.1166 22.5928 32.6282C22.598 32.6313 22.6033 32.6343 22.6085 32.6374C22.6033 32.6343 22.598 32.6312 22.5928 32.6281C18.9894 30.5145 15.2817 28.8922 11.4144 28.8922C7.70936 28.8922 4.65609 30.8684 4.65609 33.6104L4.65609 33.6107L4.6561 33.6226Z" fill-rule="evenodd"  fill="#000000" >
</path>
</svg>
