<svg xmlns="http://www.w3.org/2000/svg" xmlns:xlink="http://www.w3.org/1999/xlink" width="48" height="48" viewBox="0 0 48 48" fill="none">
<path d="M26.0224 5.52322C24.8241 7.1823 24.1747 9.167 24.0898 11.4265C24.4776 11.3844 24.8645 11.3339 25.25 11.2751C25.6835 11.2074 26.0425 11.1322 26.3043 11.0557C27.0973 10.7894 27.9945 10.2003 28.9644 9.31053C30.0014 8.30069 30.7822 7.18176 31.2817 5.9929C31.7584 4.76505 32 3.64877 32 2.67527L32 2.24596C31.9804 2.16416 31.9615 2.08206 31.9434 2C29.2179 2.6712 27.2268 3.85573 26.0224 5.52322ZM27.6445 12.4896C26.201 13.1631 25.1576 13.4998 24.5143 13.4998C23.8662 13.4998 22.8659 13.1541 21.5136 12.4627C19.6061 11.4876 18.0171 11 16.7466 11C14.2492 11 11.9738 11.9802 9.92037 13.9407C7.30679 16.436 6 19.9258 6 24.41C6 30.6787 8.08965 36.1739 12.269 40.8955C12.2896 40.9188 12.3038 40.9348 12.3115 40.9435C12.331 40.9658 12.3646 41.0044 12.4123 41.0595C14.1107 43.0198 15.9221 44 17.8466 44C18.7649 44 20.0574 43.6976 21.724 43.0929C23.0434 42.6142 23.9735 42.3748 24.5143 42.3748C25.0969 42.3748 26.1691 42.6321 27.7308 43.1467C29.4573 43.7156 30.7242 44 31.5316 44C33.3557 44 35.1343 43.1268 36.8672 41.3804C38.9887 39.2423 40.66 36.4811 41.8813 33.0969C42.0792 32.5484 42.0234 31.9618 41.7644 31.4761C41.7778 31.4745 41.7792 31.4589 41.7697 31.4327C41.7237 31.3065 41.4249 30.9345 41.0098 30.6917C41.0079 30.6906 41.0061 30.6895 41.0043 30.6885C38.2663 29.0987 36.8973 27.0059 36.8973 24.41C36.8973 21.6828 37.9189 19.4173 39.9621 17.6136C40.44 17.1917 40.67 16.5896 40.635 15.9954C40.6497 15.9979 40.6585 15.9822 40.6613 15.952C40.6747 15.8027 40.5393 15.299 40.215 14.8836C40.2131 14.8812 40.2112 14.8787 40.2093 14.8763C38.1726 12.2921 35.7513 11 32.9454 11C31.54 11 29.773 11.4965 27.6445 12.4896Z" fill-rule="evenodd"  fill="#000000" >
</path>
</svg>
