<svg xmlns="http://www.w3.org/2000/svg" xmlns:xlink="http://www.w3.org/1999/xlink" width="48" height="48" viewBox="0 0 48 48" fill="none">
<path d="M29.6917 42.9831L43.9117 25.1031C45.6117 22.9731 45.2517 19.8631 43.1217 18.1731L29.4117 7.27306C29.4317 7.55306 29.4217 7.83306 29.4117 8.12306L29.4017 8.18306L25.3817 43.5931C25.3517 43.8431 25.2817 44.0931 25.1917 44.3231C25.1217 44.4831 25.0517 44.6331 24.9617 44.7731C26.6817 45.0731 28.5217 44.4531 29.6917 42.9831ZM4.08172 22.6231C3.60172 23.2331 3.28172 23.9131 3.13172 24.6231C2.73172 26.4031 3.35172 28.3431 4.87172 29.5531L22.4717 43.5431C22.5517 43.5931 22.6517 43.6031 22.7417 43.5631C22.8417 43.5231 22.9117 43.4231 22.9217 43.3131L23.1617 41.1831L23.1917 40.9731L26.9417 7.96306C27.0417 6.47306 26.4817 5.15306 25.5517 4.21306L25.2317 3.95306C23.3517 2.46306 20.7317 2.55306 18.9717 4.04306C18.7317 4.25306 18.5117 4.48306 18.3017 4.74306L12.4017 12.1631L4.08172 22.6231Z" fill-rule="evenodd"  fill="#000000" >
</path>
</svg>
