<svg xmlns="http://www.w3.org/2000/svg" xmlns:xlink="http://www.w3.org/1999/xlink" width="48" height="48" viewBox="0 0 48 48" fill="none">
<path d="M36.82 28.71C35.59 30.02 32.12 33.52 31.98 33.66C31.84 33.8 31.88 33.94 32.09 33.94L35.27 33.94C35.54 33.94 35.59 34.14 35.39 34.28C34.97 34.6 20.12 45.62 19.76 45.89C19.4 46.15 19.17 45.9 19.36 45.58C19.58 45.21 24.23 37.4 24.32 37.26C24.4 37.11 24.3 37.01 24.13 37.01C23.97 37.01 20.78 37.01 20.59 37.01C20.4 37.01 20.34 36.88 20.44 36.73C20.55 36.53 23.24 31.87 23.24 31.87C23.29 31.73 23.25 31.64 23.08 31.65C22.38 31.67 21.6 31.65 20.86 31.53C16.9 30.88 14.42 27.76 13.93 25.73C13.84 25.34 14.05 24.85 14.65 25.09C17.52 26.21 20.84 26.87 23.59 26.86C23.7 26.86 23.72 26.7 23.61 26.68C21.48 26.42 19.19 25.98 17.08 25.19C13.69 23.91 10.65 20.13 11.03 15.32C11.09 14.55 11.6 14.4 12.11 14.79C16.78 18.44 20.22 20.04 25.17 22.25C25.28 22.3 25.37 22.14 25.27 22.09C22.57 20.83 18.17 18.44 15.21 15.85C12.26 13.27 10.44 8.8 12.32 3.76C12.61 2.97 13.2 2.74 13.86 3.33C22.21 10.84 29.83 17.85 36.58 23.14C38.75 24.83 38.1 27.34 36.82 28.71Z"   fill="#000000" >
</path>
</svg>
