<svg xmlns="http://www.w3.org/2000/svg" xmlns:xlink="http://www.w3.org/1999/xlink" width="48" height="48" viewBox="0 0 48 48" fill="none">
<path d="M29.3801 19.61L28.8819 20.1274L25.9901 23.13C25.6141 22.457 25.2254 21.7911 24.8243 21.1328C23.8521 19.537 22.8074 17.9859 21.6963 16.4871C20.1227 14.3645 18.4157 12.3466 16.5922 10.4548C16.4453 10.3024 16.2977 10.1508 16.1492 10C15.8952 9.74195 15.639 9.48633 15.3807 9.23319C15.3676 9.22039 15.3545 9.20758 15.3414 9.19479C14.5157 8.38722 13.6681 7.60501 12.8001 6.85C12.4707 6.56044 12.6598 6 13.0901 6L29.3401 6C29.7546 6 30.1349 6.1959 30.3901 6.53C32.51 9.30867 34.0692 12.4299 35.0201 15.81C32.9268 16.662 30.99 17.9562 29.3801 19.61ZM2 13.6427L2.00248 18.7753L2.01002 34.3028L2.01002 34.3028C2.01002 34.4824 2.04191 34.6558 2.10198 34.8159C2.15705 34.9626 2.2358 35.0982 2.33537 35.2172C2.41684 35.3145 2.51224 35.4007 2.62002 35.4728C4.69235 36.7276 6.68384 37.7653 8.59636 38.6045C16.5164 42.0798 23.082 42.1521 28.4259 40.1538C31.1472 39.1362 33.5517 37.5815 35.6568 35.6658C36.4055 34.9845 37.1163 34.2575 37.79 33.4928L37.7899 33.4928L37.79 33.4928C31.8588 34.576 26.3095 33.1416 21.3695 30.5003C17.1909 28.266 13.4483 25.1682 10.2793 22C10.2618 21.9824 10.2442 21.9649 10.2267 21.9473C8.65525 20.3728 7.22563 18.7819 5.9547 17.2721C4.75767 15.85 3.7014 14.4998 2.8 13.3027C2.49892 13.0076 2 13.2196 2 13.6427ZM29.8701 32.1299C34.5245 33.4496 38.9416 31.4756 41.1201 27.1099L43.7601 21.5999C43.8044 21.4987 43.8529 21.3986 43.9051 21.2993C43.9399 21.2332 43.9763 21.1676 44.0142 21.1023C44.6785 19.9588 45.8044 18.9339 46.5901 17.9399C45.3225 17.4495 43.6244 17.1034 42.1142 16.9848L42.0468 16.9797C41.6944 16.9535 41.3529 16.9399 41.0301 16.9399C37.2312 16.9399 33.6499 18.4756 30.9401 21.2599L26.9101 25.4399C26.5498 25.8119 26.1802 26.1734 25.8018 26.5239C25.7111 26.6079 25.6199 26.6913 25.5282 26.7741C24.485 27.7159 23.378 28.5765 22.2201 29.3499C23.4351 29.8933 24.6743 30.3964 25.9323 30.8555C26.3495 31.0078 26.7687 31.1553 27.1899 31.2978C28.0756 31.5975 28.9697 31.8753 29.8701 32.1299Z" fill-rule="evenodd"  fill="#000000" >
</path>
</svg>
