<svg xmlns="http://www.w3.org/2000/svg" xmlns:xlink="http://www.w3.org/1999/xlink" width="48" height="48" viewBox="0 0 48 48" fill="none">
<path d="M37.69 19.79C37.69 17.66 37.44 15.64 36.94 13.74C36.41 11.69 35.61 9.9 34.55 8.37C33.38 6.68 31.95 5.39 30.26 4.48C28.42 3.49 26.34 3 24 3C21.67 3 19.58 3.49 17.75 4.48C16.05 5.39 14.62 6.69 13.46 8.37C12.4 9.9 11.61 11.69 11.07 13.74C10.57 15.64 10.32 17.66 10.32 19.79C10.32 20.03 10.33 20.45 10.35 21.03L8.85 24.82L8.83 24.82L8.59 25.47C8 27.04 7.54 28.34 7.22 29.39C6.43 31.94 6.03 34.06 6 35.74C5.97 37.58 6.41 38.56 7.33 38.66C7.68 38.71 8.04 38.6 8.42 38.35C8.63 38.21 8.85 38.01 9.1 37.75C9.46 37.37 9.89 36.85 10.36 36.19C10.37 36.18 10.37 36.17 10.38 36.17C10.55 36.78 10.78 37.39 11.06 38C11.6 39.18 12.31 40.25 13.18 41.2L12.97 41.29C12.3 41.59 11.74 41.9 11.31 42.23C10.79 42.62 10.47 43.07 10.36 43.59C10.31 43.83 10.3 44.06 10.34 44.29C10.37 44.49 10.44 44.67 10.53 44.84C10.75 45.21 11.15 45.47 11.74 45.63C12.1 45.72 12.56 45.8 13.14 45.86C14.1 45.95 15.36 46 16.91 46C18.22 46 19.6 45.96 21.03 45.89C22.27 45.83 23.26 45.76 24 45.69C24.74 45.76 25.74 45.83 26.98 45.89C28.42 45.96 29.79 46 31.1 46C32.66 46 33.92 45.95 34.88 45.86C35.45 45.8 35.92 45.72 36.27 45.63C36.87 45.47 37.27 45.21 37.48 44.86C37.58 44.68 37.64 44.49 37.68 44.29C37.72 44.06 37.71 43.83 37.66 43.59C37.55 43.07 37.22 42.61 36.69 42.22C36.26 41.9 35.71 41.59 35.04 41.29L34.83 41.2C35.7 40.25 36.4 39.18 36.95 37.99C37.23 37.39 37.46 36.78 37.64 36.17L37.65 36.18C38.12 36.84 38.54 37.37 38.91 37.75C39.16 38 39.38 38.21 39.6 38.35C39.97 38.6 40.33 38.71 40.69 38.66C41.6 38.55 42.04 37.58 42 35.74C41.98 34.06 41.57 31.94 40.79 29.4C40.51 28.47 40.05 27.16 39.42 25.47L39.34 25.27L39.33 25.25L37.67 21.03C37.68 20.45 37.69 20.03 37.69 19.79Z" fill-rule="evenodd"  fill="#000000" >
</path>
</svg>
