<svg xmlns="http://www.w3.org/2000/svg" xmlns:xlink="http://www.w3.org/1999/xlink" width="48" height="48" viewBox="0 0 48 48" fill="none">
<path d="M18.43 29.507L42.61 14.807C44.13 17.367 45 20.267 45 23.347C45 33.517 35.6 41.767 24 41.767C21.6 41.767 19.29 41.407 17.14 40.757C16.95 40.687 16.74 40.657 16.53 40.657C16.12 40.657 15.76 40.787 15.41 40.997L10.82 43.787C10.69 43.867 10.56 43.927 10.41 43.927C10.02 43.927 9.71 43.597 9.71 43.187C9.71 43.007 9.78 42.827 9.82 42.657C9.85 42.547 10.42 40.327 10.77 38.937C10.81 38.777 10.84 38.627 10.84 38.467C10.84 37.977 10.61 37.537 10.26 37.267C5.83 33.887 3 28.897 3 23.347C3 13.177 12.4 4.92701 24 4.92701C31.09 4.92701 37.35 8.00701 41.15 12.727L19.94 22.667C19.71 22.757 19.47 22.797 19.22 22.797C18.8 22.797 18.4 22.667 18.07 22.437L13.56 19.057C13.44 18.967 13.3 18.917 13.14 18.917C12.75 18.917 12.44 19.247 12.44 19.647C12.44 19.757 12.47 19.867 12.51 19.957L16.33 28.787L16.42 29.007C16.66 29.447 17.12 29.757 17.65 29.757C17.87 29.757 18.08 29.697 18.27 29.597L18.43 29.507Z"   fill="#000000" >
</path>
</svg>
