<svg xmlns="http://www.w3.org/2000/svg" xmlns:xlink="http://www.w3.org/1999/xlink" width="48" height="48" viewBox="0 0 48 48" fill="none">
<path d="M7.49 29.55C7.76 29.74 7.94 30.06 7.94 30.42C7.94 30.54 7.92 30.65 7.88 30.76L7.17 33.47C7.13 33.59 7.08 33.73 7.08 33.86C7.08 34.15 7.32 34.39 7.61 34.39C7.73 34.39 7.82 34.35 7.92 34.29L11.4 32.26C11.66 32.11 11.94 32.01 12.24 32.01C12.41 32.01 12.56 32.04 12.71 32.08C14.68 32.65 16.73 32.9 18.78 32.8C18.42 31.74 18.24 30.63 18.24 29.51C18.24 22.76 24.74 17.28 32.75 17.28C33.04 17.28 33.11 17.29 33.4 17.31C32.2 10.9 25.84 6 17.9 6C9.12 6 2 12 2 19.41C2 23.45 4.14 27.09 7.49 29.55ZM13.93 13.77C13.58 13.42 13.1 13.22 12.6 13.22C11.56 13.22 10.72 14.07 10.72 15.12C10.72 16.17 11.56 17.02 12.6 17.02C13.64 17.02 14.48 16.17 14.48 15.12C14.48 14.61 14.29 14.13 13.93 13.77ZM25.08 15.12C25.09 14.61 24.89 14.13 24.53 13.77C24.18 13.42 23.7 13.22 23.2 13.22C22.71 13.22 22.23 13.42 21.87 13.77C21.52 14.13 21.32 14.61 21.32 15.12C21.32 15.62 21.52 16.11 21.87 16.46C22.23 16.82 22.71 17.02 23.2 17.02C23.7 17.02 24.18 16.82 24.53 16.46C24.89 16.11 25.08 15.62 25.08 15.12ZM32.74 18.34C25.42 18.34 19.49 23.34 19.49 29.51C19.49 35.69 25.42 40.69 32.74 40.69C34.26 40.69 35.72 40.47 37.07 40.08C37.19 40.04 37.32 40.02 37.46 40.02C37.71 40.02 37.94 40.1 38.16 40.22L41.06 41.92C41.14 41.96 41.22 42 41.32 42C41.56 42 41.76 41.8 41.76 41.56C41.76 41.44 41.72 41.33 41.69 41.23L41.09 38.97C41.06 38.88 41.05 38.79 41.05 38.69C41.05 38.39 41.19 38.12 41.42 37.96C44.21 35.91 46 32.88 46 29.51C46 23.34 40.06 18.34 32.74 18.34ZM38 24.45C37.48 24.14 36.84 24.14 36.32 24.45C35.8 24.76 35.49 25.33 35.51 25.94C35.51 26.86 36.25 27.61 37.16 27.61C38.07 27.61 38.82 26.86 38.82 25.94C38.83 25.33 38.52 24.76 38 24.45ZM28.32 24.26C27.41 24.26 26.67 25.01 26.67 25.94C26.67 26.86 27.41 27.61 28.32 27.61C29.24 27.61 29.98 26.86 29.98 25.94C29.98 25.01 29.24 24.26 28.32 24.26Z" fill-rule="evenodd"  fill="#000000" >
</path>
</svg>
