<svg xmlns="http://www.w3.org/2000/svg" xmlns:xlink="http://www.w3.org/1999/xlink" width="48" height="48" viewBox="0 0 48 48" fill="none">
<path d="M22.4722 3.46992L4.71219 10.7999C3.93219 11.1299 3.31219 11.6399 2.86219 12.3499C2.45219 12.9999 2.24219 13.7199 2.24219 14.4999C2.24219 15.2799 2.45219 15.9999 2.86219 16.6499C3.31219 17.3599 3.93219 17.8699 4.72219 18.1999L6.00219 18.7299L6.00219 35.8899C6.00219 36.7099 6.21219 37.4599 6.62219 38.1599C7.04219 38.8599 7.61219 39.4099 8.33219 39.7899C11.2722 41.3399 14.0022 42.4899 16.5222 43.2199C19.1822 43.9899 21.7822 44.3599 24.3222 44.3299C26.8522 44.2999 29.4522 43.8599 32.1322 43.0199C34.6622 42.2299 37.4222 41.0199 40.4022 39.3999C40.8922 39.1299 41.2822 38.7499 41.5722 38.2699C41.8622 37.7899 42.0022 37.2699 42.0022 36.7099L42.0022 18.7299L43.2822 18.1999C44.0722 17.8699 44.6922 17.3599 45.1422 16.6499C45.5522 15.9999 45.7622 15.2799 45.7622 14.4999C45.7622 13.7199 45.5522 12.9999 45.1422 12.3499C44.6922 11.6399 44.0722 11.1299 43.2822 10.7999L25.5222 3.46992C25.0322 3.26992 24.5222 3.16992 24.0022 3.16992C23.4722 3.16992 22.9722 3.26992 22.4822 3.46992L22.4722 3.46992ZM25.5122 25.5299C25.0322 25.7299 24.5222 25.8299 24.0022 25.8299C23.4722 25.8299 22.9722 25.7299 22.4722 25.5299L10.0022 20.3799L10.0022 35.8899C10.0022 36.0599 10.0722 36.1799 10.2122 36.2599C12.9022 37.6799 15.3822 38.7199 17.6422 39.3799C19.9222 40.0399 22.1322 40.3599 24.2722 40.3299C26.4122 40.2999 28.6322 39.9299 30.9322 39.2099C33.0822 38.5299 35.4422 37.5099 38.0022 36.1499L38.0022 20.3799L25.5122 25.5299ZM24.0022 21.8299L41.7522 14.4999L41.7622 14.4999L24.0022 7.16992L23.9922 7.16992L6.24219 14.4999L24.0022 21.8299Z" fill-rule="evenodd"  fill="#000000" >
</path>
</svg>
