<svg xmlns="http://www.w3.org/2000/svg" xmlns:xlink="http://www.w3.org/1999/xlink" width="48" height="48" viewBox="0 0 48 48" fill="none">
<path d="M12.0014 4C11.9314 4 11.8714 4 11.8014 4.01C11.7414 4.02 11.6714 4.03 11.6114 4.04C11.5514 4.05 11.4814 4.07 11.4214 4.09C11.3614 4.11 11.3014 4.13 11.2314 4.15C11.1714 4.18 11.1114 4.21 11.0614 4.24C11.0014 4.27 10.9414 4.3 10.8914 4.34C10.8314 4.37 10.7814 4.41 10.7314 4.45C10.6814 4.5 10.6314 4.54 10.5914 4.59C10.5414 4.63 10.5014 4.68 10.4514 4.73C10.4114 4.78 10.3714 4.83 10.3414 4.89C10.3014 4.94 10.2714 5 10.2414 5.06C10.2114 5.11 10.1814 5.17 10.1514 5.23C10.1314 5.3 10.1114 5.36 10.0914 5.42C10.0714 5.48 10.0514 5.55 10.0414 5.61C10.0314 5.67 10.0214 5.74 10.0114 5.8C10.0014 5.87 10.0014 5.93 10.0014 6C10.0014 6.07 10.0014 6.13 10.0114 6.2C10.0214 6.26 10.0314 6.33 10.0414 6.39C10.0514 6.45 10.0714 6.52 10.0914 6.58C10.1114 6.64 10.1314 6.7 10.1514 6.77C10.1814 6.83 10.2114 6.89 10.2414 6.94C10.2714 7 10.3014 7.06 10.3414 7.11C10.3714 7.17 10.4114 7.22 10.4514 7.27C10.5014 7.32 10.5414 7.37 10.5914 7.41C10.6314 7.46 10.6814 7.5 10.7314 7.55C10.7814 7.59 10.8314 7.63 10.8914 7.66C10.9414 7.7 11.0014 7.73 11.0614 7.76C11.1114 7.79 11.1714 7.82 11.2314 7.85C11.3014 7.87 11.3614 7.89 11.4214 7.91C11.4814 7.93 11.5514 7.95 11.6114 7.96C11.6714 7.97 11.7414 7.98 11.8014 7.99C11.8714 8 11.9314 8 12.0014 8L14.0014 8L14.0014 14.89C14.0014 15.37 13.9114 15.85 13.7314 16.33L9.04144 28.53C9.00145 28.61 8.97145 28.69 8.94145 28.77C8.92145 28.83 8.90145 28.89 8.88144 28.95L7.27145 33.13C6.78145 34.41 6.62145 35.71 6.80145 37.04C6.97145 38.31 7.41145 39.47 8.14145 40.53C8.87145 41.59 9.80145 42.43 10.9214 43.04C12.1014 43.68 13.3714 44 14.7414 44L33.2614 44C34.6214 44 35.8914 43.68 37.0814 43.04C38.2014 42.43 39.1214 41.59 39.8514 40.53C40.5814 39.47 41.0314 38.31 41.1914 37.04C41.3714 35.71 41.2114 34.41 40.7214 33.13L34.2614 16.32C34.0914 15.85 34.0014 15.37 34.0014 14.89L34.0014 8L36.0014 8C36.0714 8 36.1314 8 36.2014 7.99C36.2614 7.98 36.3314 7.97 36.3914 7.96C36.4514 7.95 36.5214 7.93 36.5814 7.91C36.6414 7.89 36.7014 7.87 36.7714 7.85C36.8314 7.82 36.8914 7.79 36.9414 7.76C37.0014 7.73 37.0614 7.7 37.1114 7.66C37.1714 7.63 37.2214 7.59 37.2714 7.55C37.3214 7.5 37.3714 7.46 37.4114 7.41C37.4614 7.37 37.5014 7.32 37.5514 7.27C37.5914 7.22 37.6314 7.17 37.6614 7.11C37.7014 7.06 37.7314 7 37.7614 6.94C37.7914 6.89 37.8214 6.83 37.8514 6.77C37.8714 6.7 37.8914 6.64 37.9114 6.58C37.9314 6.52 37.9514 6.45 37.9614 6.39C37.9714 6.33 37.9814 6.26 37.9914 6.2C38.0014 6.13 38.0014 6.07 38.0014 6C38.0014 5.93 38.0014 5.87 37.9914 5.8C37.9814 5.74 37.9714 5.67 37.9614 5.61C37.9514 5.55 37.9314 5.48 37.9114 5.42C37.8914 5.36 37.8714 5.3 37.8514 5.23C37.8214 5.17 37.7914 5.11 37.7614 5.06C37.7314 5 37.7014 4.94 37.6614 4.89C37.6314 4.83 37.5914 4.78 37.5514 4.73C37.5014 4.68 37.4614 4.63 37.4114 4.59C37.3714 4.54 37.3214 4.5 37.2714 4.45C37.2214 4.41 37.1714 4.37 37.1114 4.34C37.0614 4.3 37.0014 4.27 36.9414 4.24C36.8914 4.21 36.8314 4.18 36.7714 4.15C36.7014 4.13 36.6414 4.11 36.5814 4.09C36.5214 4.07 36.4514 4.05 36.3914 4.04C36.3314 4.03 36.2614 4.02 36.2014 4.01C36.1314 4 36.0714 4 36.0014 4L16.0014 4L12.0014 4ZM18.0014 8L18.0014 14.89C18.0014 15.86 17.8214 16.81 17.4714 17.75L14.9814 24.22C15.7114 24.08 16.4914 24 17.3014 24C18.8214 24 20.3314 24.46 21.8314 25.39C22.3714 25.73 22.9614 26.16 23.5814 26.67C23.9414 26.96 24.4514 27.4 25.1314 28.01C25.7614 28.57 26.2414 28.98 26.5514 29.24C27.0414 29.64 27.4814 29.96 27.8814 30.21C28.7314 30.74 29.5414 31 30.3014 31C31.9314 31 33.2114 30.59 34.1414 29.76C34.4214 29.51 34.6414 29.25 34.8214 28.97C34.8214 28.96 34.8314 28.96 34.8314 28.95L30.5314 17.76C30.1714 16.81 30.0014 15.86 30.0014 14.89L30.0014 8L18.0014 8ZM10.7714 36.52C10.8514 37.15 11.0714 37.73 11.4414 38.27C11.8114 38.8 12.2714 39.22 12.8314 39.52C13.4114 39.84 14.0514 40 14.7414 40L33.2614 40C33.9414 40 34.5814 39.84 35.1614 39.52C35.7214 39.22 36.1914 38.8 36.5514 38.27C36.9214 37.73 37.1414 37.15 37.2314 36.52C37.3214 35.86 37.2414 35.21 36.9914 34.57L36.4114 33.07C35.7614 33.59 35.0214 34 34.2014 34.32C33.0214 34.77 31.7214 35 30.3014 35C28.7814 35 27.2714 34.54 25.7714 33.61C25.2314 33.27 24.6414 32.84 24.0214 32.33C23.6614 32.04 23.1514 31.6 22.4714 30.99C21.8414 30.43 21.3614 30.02 21.0514 29.76C20.5614 29.36 20.1214 29.04 19.7214 28.79C18.8714 28.26 18.0614 28 17.3014 28C15.6714 28 14.3914 28.41 13.4614 29.24C13.1814 29.49 12.9614 29.75 12.7814 30.03C12.7514 30.07 12.7214 30.11 12.7014 30.15L11.0014 34.57C10.7614 35.21 10.6814 35.86 10.7714 36.52Z" fill-rule="evenodd"  fill="#000000" >
</path>
</svg>
