<svg xmlns="http://www.w3.org/2000/svg" xmlns:xlink="http://www.w3.org/1999/xlink" width="48" height="48" viewBox="0 0 48 48" fill="none">
<path d="M22.1455 38.1699L22.1455 38.1699L23.6455 40.9899C24.0555 41.7599 24.5955 42.4299 25.2655 42.9799C25.9155 43.5199 26.6455 43.9099 27.4455 44.1699C28.2555 44.4299 29.0755 44.5299 29.9155 44.4699C30.7855 44.4099 31.6155 44.1799 32.3955 43.7899C33.1755 43.3999 33.8555 42.8699 34.4155 42.1999C34.9555 41.5599 35.3555 40.8399 35.6155 40.0399C35.8655 39.2399 35.9655 38.4199 35.8955 37.5799C35.8255 36.7099 35.5855 35.8899 35.1755 35.1099L33.7055 32.3399L36.6855 30.7699C37.5355 30.3199 38.2355 29.6999 38.7555 28.8999C39.2655 28.1399 39.5655 27.3099 39.6655 26.4099C39.7755 25.4999 39.6655 24.6199 39.3455 23.7699C39.0155 22.8799 38.4855 22.1099 37.7455 21.4799L17.6155 4.07986C16.8155 3.38986 15.9055 2.98986 14.8755 2.88986C13.9355 2.78986 13.0255 2.94986 12.1555 3.37986C11.2955 3.79986 10.6055 4.41986 10.0955 5.21986C9.55547 6.09986 9.30547 7.05986 9.36547 8.10986L10.7255 35.0199C10.7755 36.0099 11.0655 36.9199 11.5755 37.7399C12.0655 38.5199 12.7155 39.1499 13.5155 39.6199C14.3255 40.0799 15.1855 40.3399 16.1055 40.3799C17.0755 40.4299 18.0055 40.2299 18.8955 39.7899L22.1455 38.1599C22.1455 38.1599 22.1455 38.1599 22.1455 38.1599C22.1455 38.1599 22.1455 38.1599 22.1455 38.1599C22.1455 38.1599 22.1455 38.1699 22.1455 38.1699ZM22.1455 38.1599C22.1455 38.1599 22.1455 38.1599 22.1455 38.1599ZM27.1755 39.1099C27.3355 39.4199 27.5455 39.6799 27.8155 39.8999C28.0655 40.1099 28.3455 40.2599 28.6655 40.3599C28.9855 40.4599 29.3055 40.4999 29.6355 40.4799C29.9755 40.4499 30.2955 40.3699 30.6055 40.2099C30.8955 40.0599 31.1455 39.8699 31.3555 39.6199C31.5555 39.3799 31.7055 39.1099 31.8055 38.8099C31.8955 38.5099 31.9355 38.2099 31.9155 37.8999C31.8855 37.5799 31.7955 37.2799 31.6455 36.9899L29.7055 33.3299C29.5155 32.9699 29.3955 32.5799 29.3655 32.1799C29.3355 31.7899 29.3755 31.4099 29.4855 31.0299C29.6055 30.6599 29.7855 30.3199 30.0355 30.0199C30.2855 29.7099 30.5955 29.4499 30.9555 29.2599L34.8155 27.2299C35.0755 27.0999 35.2755 26.9199 35.4255 26.6899C35.5755 26.4699 35.6655 26.2199 35.6955 25.9499C35.7255 25.6799 35.6955 25.4199 35.6055 25.1699C35.5055 24.9099 35.3455 24.6899 35.1255 24.4999L15.0055 7.09986C14.8455 6.96986 14.6655 6.88986 14.4655 6.86986C14.2755 6.84986 14.0955 6.87986 13.9155 6.96986C13.7355 7.05986 13.5955 7.17986 13.4955 7.33986C13.3955 7.49986 13.3455 7.68986 13.3555 7.90986L14.7155 34.8199C14.7355 35.1099 14.8155 35.3699 14.9655 35.6099C15.1055 35.8399 15.2955 36.0199 15.5355 36.1599C15.7755 36.2999 16.0255 36.3799 16.2955 36.3899C16.5755 36.3999 16.8455 36.3399 17.1055 36.2099L20.3555 34.5799C20.8355 34.3399 21.3455 34.2099 21.8755 34.1699C22.3855 34.1399 22.8755 34.1999 23.3655 34.3599C23.8555 34.5099 24.2955 34.7599 24.6855 35.0799C25.0955 35.4199 25.4255 35.8199 25.6755 36.2899L25.6755 36.2899L27.1755 39.1099Z" fill-rule="evenodd"  fill="#000000" >
</path>
</svg>
