<svg xmlns="http://www.w3.org/2000/svg" xmlns:xlink="http://www.w3.org/1999/xlink" width="48" height="48" viewBox="0 0 48 48" fill="none">
<path d="M34.83 13.17C34.46 12.81 34.04 12.52 33.56 12.32C33.06 12.11 32.54 12 32 12L17 12C16.93 12 16.87 12 16.8 12.01C16.74 12.02 16.67 12.03 16.61 12.04C16.55 12.05 16.48 12.07 16.42 12.09C16.36 12.11 16.3 12.13 16.23 12.15C16.17 12.18 16.11 12.21 16.06 12.24C16 12.27 15.94 12.3 15.89 12.34C15.83 12.37 15.78 12.41 15.73 12.45C15.68 12.5 15.63 12.54 15.59 12.59C15.54 12.63 15.5 12.68 15.45 12.73C15.41 12.78 15.37 12.83 15.34 12.89C15.3 12.94 15.27 13 15.24 13.06C15.21 13.11 15.18 13.17 15.15 13.23C15.13 13.3 15.11 13.36 15.09 13.42C15.07 13.48 15.05 13.55 15.04 13.61C15.03 13.67 15.02 13.74 15.01 13.8C15 13.87 15 13.93 15 14C15 14.07 15 14.13 15.01 14.2C15.02 14.26 15.03 14.33 15.04 14.39C15.05 14.45 15.07 14.52 15.09 14.58C15.11 14.64 15.13 14.7 15.15 14.77C15.18 14.83 15.21 14.89 15.24 14.94C15.27 15 15.3 15.06 15.34 15.11C15.37 15.17 15.41 15.22 15.45 15.27C15.5 15.32 15.54 15.37 15.59 15.41C15.63 15.46 15.68 15.5 15.73 15.55C15.78 15.59 15.83 15.63 15.89 15.66C15.94 15.7 16 15.73 16.06 15.76C16.11 15.79 16.17 15.82 16.23 15.85C16.3 15.87 16.36 15.89 16.42 15.91C16.48 15.93 16.55 15.95 16.61 15.96C16.67 15.97 16.74 15.98 16.8 15.99C16.87 16 16.93 16 17 16L29.18 16L6.59 38.59C6.54 38.63 6.5 38.68 6.45 38.73C6.41 38.78 6.37 38.83 6.34 38.89C6.3 38.94 6.27 39 6.24 39.06C6.21 39.12 6.18 39.17 6.15 39.23C6.13 39.3 6.11 39.36 6.09 39.42C6.07 39.48 6.05 39.55 6.04 39.61C6.03 39.67 6.02 39.74 6.01 39.8C6 39.87 6 39.93 6 40C6 40.07 6 40.13 6.01 40.2C6.02 40.26 6.03 40.33 6.04 40.39C6.05 40.45 6.07 40.52 6.09 40.58C6.11 40.64 6.13 40.7 6.15 40.77C6.18 40.83 6.21 40.89 6.24 40.94C6.27 41 6.3 41.06 6.34 41.11C6.37 41.17 6.41 41.22 6.45 41.27C6.5 41.32 6.54 41.37 6.59 41.41C6.63 41.46 6.68 41.5 6.73 41.55C6.78 41.59 6.83 41.63 6.89 41.66C6.94 41.7 7 41.73 7.06 41.76C7.11 41.79 7.17 41.82 7.23 41.85C7.3 41.87 7.36 41.89 7.42 41.91C7.48 41.93 7.55 41.95 7.61 41.96C7.67 41.97 7.74 41.98 7.8 41.99C7.87 42 7.93 42 8 42C8.07 42 8.13 42 8.2 41.99C8.26 41.98 8.33 41.97 8.39 41.96C8.45 41.95 8.52 41.93 8.58 41.91C8.64 41.89 8.7 41.87 8.77 41.85C8.83 41.82 8.89 41.79 8.94 41.76C9 41.73 9.06 41.7 9.11 41.66C9.17 41.63 9.22 41.59 9.27 41.55C9.32 41.5 9.37 41.46 9.41 41.41L32 18.82L32 31C32 31.07 32 31.13 32.01 31.2C32.02 31.26 32.03 31.33 32.04 31.39C32.05 31.45 32.07 31.52 32.09 31.58C32.11 31.64 32.13 31.7 32.15 31.77C32.18 31.83 32.21 31.89 32.24 31.94C32.27 32 32.3 32.06 32.34 32.11C32.37 32.17 32.41 32.22 32.45 32.27C32.5 32.32 32.54 32.37 32.59 32.41C32.63 32.46 32.68 32.5 32.73 32.55C32.78 32.59 32.83 32.63 32.89 32.66C32.94 32.7 33 32.73 33.06 32.76C33.11 32.79 33.17 32.82 33.23 32.85C33.3 32.87 33.36 32.89 33.42 32.91C33.48 32.93 33.55 32.95 33.61 32.96C33.67 32.97 33.74 32.98 33.8 32.99C33.87 33 33.93 33 34 33C34.07 33 34.13 33 34.2 32.99C34.26 32.98 34.33 32.97 34.39 32.96C34.45 32.95 34.52 32.93 34.58 32.91C34.64 32.89 34.7 32.87 34.77 32.85C34.83 32.82 34.89 32.79 34.94 32.76C35 32.73 35.06 32.7 35.11 32.66C35.17 32.63 35.22 32.59 35.27 32.55C35.32 32.5 35.37 32.46 35.41 32.41C35.46 32.37 35.5 32.32 35.55 32.27C35.59 32.22 35.63 32.17 35.66 32.11C35.7 32.06 35.73 32 35.76 31.94C35.79 31.89 35.82 31.83 35.85 31.77C35.87 31.7 35.89 31.64 35.91 31.58C35.93 31.52 35.95 31.45 35.96 31.39C35.97 31.33 35.98 31.26 35.99 31.2C36 31.13 36 31.07 36 31L36 16C36 15.46 35.89 14.94 35.68 14.44C35.48 13.96 35.19 13.54 34.83 13.17ZM19.89 38.34C19.83 38.37 19.78 38.41 19.73 38.45C19.68 38.5 19.63 38.54 19.59 38.59C19.54 38.63 19.5 38.68 19.45 38.73C19.41 38.78 19.37 38.83 19.34 38.89C19.3 38.94 19.27 39 19.24 39.06C19.21 39.12 19.18 39.17 19.15 39.23C19.13 39.3 19.11 39.36 19.09 39.42C19.07 39.48 19.05 39.55 19.04 39.61C19.03 39.67 19.02 39.74 19.01 39.8C19 39.87 19 39.93 19 40C19 40.07 19 40.13 19.01 40.2C19.02 40.26 19.03 40.33 19.04 40.39C19.05 40.45 19.07 40.52 19.09 40.58C19.11 40.64 19.13 40.7 19.15 40.77C19.18 40.83 19.21 40.89 19.24 40.94C19.27 41 19.3 41.06 19.34 41.11C19.37 41.17 19.41 41.22 19.45 41.27C19.5 41.32 19.54 41.37 19.59 41.41C19.63 41.46 19.68 41.5 19.73 41.55C19.78 41.59 19.83 41.63 19.89 41.66C19.94 41.7 20 41.73 20.06 41.76C20.12 41.79 20.17 41.82 20.23 41.85C20.3 41.87 20.36 41.89 20.42 41.91C20.48 41.93 20.55 41.95 20.61 41.96C20.67 41.97 20.74 41.98 20.8 41.99C20.87 42 20.93 42 21 42L36 42C37.08 42 38.12 41.79 39.11 41.37C40.07 40.96 40.92 40.39 41.66 39.66C42.39 38.92 42.96 38.07 43.37 37.11C43.79 36.12 44 35.08 44 34L44 12C44 10.92 43.79 9.88 43.37 8.89C42.96 7.93 42.39 7.08 41.66 6.34C40.92 5.61 40.07 5.04 39.11 4.63C38.12 4.21 37.08 4 36 4L14 4C12.92 4 11.88 4.21 10.89 4.63C9.93 5.04 9.08 5.61 8.34 6.34C7.61 7.08 7.04 7.93 6.63 8.89C6.21 9.88 6 10.92 6 12L6 27C6 27.07 6 27.13 6.01 27.2C6.02 27.26 6.03 27.33 6.04 27.39C6.05 27.45 6.07 27.52 6.09 27.58C6.11 27.64 6.13 27.7 6.15 27.77C6.18 27.83 6.21 27.89 6.24 27.94C6.27 28 6.3 28.06 6.34 28.11C6.37 28.17 6.41 28.22 6.45 28.27C6.5 28.32 6.54 28.37 6.59 28.41C6.63 28.46 6.68 28.5 6.73 28.55C6.78 28.59 6.83 28.63 6.89 28.66C6.94 28.7 7 28.73 7.06 28.76C7.11 28.79 7.17 28.82 7.23 28.85C7.3 28.87 7.36 28.89 7.42 28.91C7.48 28.93 7.55 28.95 7.61 28.96C7.67 28.97 7.74 28.98 7.8 28.99C7.87 29 7.93 29 8 29C8.07 29 8.13 29 8.2 28.99C8.26 28.98 8.33 28.97 8.39 28.96C8.45 28.95 8.52 28.93 8.58 28.91C8.64 28.89 8.7 28.87 8.77 28.85C8.83 28.82 8.89 28.79 8.94 28.76C9 28.73 9.06 28.7 9.11 28.66C9.17 28.63 9.22 28.59 9.27 28.55C9.32 28.5 9.37 28.46 9.41 28.41C9.46 28.37 9.5 28.32 9.55 28.27C9.59 28.22 9.63 28.17 9.66 28.11C9.7 28.06 9.73 28 9.76 27.94C9.79 27.89 9.82 27.83 9.85 27.77C9.87 27.7 9.89 27.64 9.91 27.58C9.93 27.52 9.95 27.45 9.96 27.39C9.97 27.33 9.98 27.26 9.99 27.2C10 27.13 10 27.07 10 27L10 12C10 11.46 10.1 10.94 10.31 10.45C10.52 9.97 10.8 9.54 11.17 9.17C11.54 8.8 11.97 8.52 12.45 8.31C12.94 8.1 13.46 8 14 8L36 8C36.54 8 37.06 8.1 37.55 8.31C38.03 8.52 38.46 8.8 38.83 9.17C39.2 9.54 39.48 9.97 39.69 10.45C39.9 10.94 40 11.46 40 12L40 34C40 34.54 39.9 35.06 39.69 35.55C39.48 36.03 39.2 36.46 38.83 36.83C38.46 37.2 38.03 37.48 37.55 37.69C37.06 37.9 36.54 38 36 38L21 38C20.93 38 20.87 38 20.8 38.01C20.74 38.02 20.67 38.03 20.61 38.04C20.55 38.05 20.48 38.07 20.42 38.09C20.36 38.11 20.3 38.13 20.23 38.15C20.17 38.18 20.12 38.21 20.06 38.24C20 38.27 19.94 38.3 19.89 38.34Z" fill-rule="evenodd"  fill="#000000" >
</path>
</svg>
