<svg xmlns="http://www.w3.org/2000/svg" xmlns:xlink="http://www.w3.org/1999/xlink" width="48" height="48" viewBox="0 0 48 48" fill="none">
<path d="M24 26.5C25.1 26.5 26 25.6 26 24.5L26 4.5C26 3.4 25.1 2.5 24 2.5C22.9 2.5 22 3.4 22 4.5L22 24.5C22 25.6 22.9 26.5 24 26.5ZM10.56 8.56C10.01 8.56 9.51 8.79 9.15 9.15L9.14 9.15C5.05 13.26 3 18.21 3 24C3 35.6 12.4 45 24 45C35.6 45 45 35.6 45 24C45 18.21 42.95 13.26 38.86 9.15L38.85 9.15C38.49 8.79 37.99 8.56 37.44 8.56C36.33 8.56 35.43 9.46 35.43 10.56C35.43 11.15 35.69 11.68 36.1 12.05C39.37 15.36 41 19.35 41 24C41 33.39 33.39 41 24 41C14.61 41 7 33.39 7 24C7 19.35 8.63 15.36 11.9 12.05C12.31 11.68 12.56 11.15 12.56 10.56C12.56 9.46 11.67 8.56 10.56 8.56Z" fill-rule="evenodd"  fill="#000000" >
</path>
</svg>
