<svg xmlns="http://www.w3.org/2000/svg" xmlns:xlink="http://www.w3.org/1999/xlink" width="48" height="48" viewBox="0 0 48 48" fill="none">
<path d="M6.34 25.11C6.37 25.17 6.41 25.22 6.45 25.27C6.5 25.32 6.54 25.37 6.59 25.41C6.63 25.46 6.68 25.5 6.73 25.55C6.78 25.59 6.83 25.63 6.89 25.66C6.94 25.7 7 25.73 7.06 25.76C7.11 25.79 7.17 25.82 7.23 25.85C7.3 25.87 7.36 25.89 7.42 25.91C7.48 25.93 7.55 25.95 7.61 25.96C7.67 25.97 7.74 25.98 7.8 25.99C7.87 26 7.93 26 8 26L40 26C40.07 26 40.13 26 40.2 25.99C40.26 25.98 40.33 25.97 40.39 25.96C40.45 25.95 40.52 25.93 40.58 25.91C40.64 25.89 40.7 25.87 40.77 25.85C40.83 25.82 40.89 25.79 40.94 25.76C41 25.73 41.06 25.7 41.11 25.66C41.17 25.63 41.22 25.59 41.27 25.55C41.32 25.5 41.37 25.46 41.41 25.41C41.46 25.37 41.5 25.32 41.55 25.27C41.59 25.22 41.63 25.17 41.66 25.11C41.7 25.06 41.73 25 41.76 24.94C41.79 24.89 41.82 24.83 41.85 24.77C41.87 24.7 41.89 24.64 41.91 24.58C41.93 24.52 41.95 24.45 41.96 24.39C41.97 24.33 41.98 24.26 41.99 24.2C42 24.13 42 24.07 42 24C42 23.93 42 23.87 41.99 23.8C41.98 23.74 41.97 23.67 41.96 23.61C41.95 23.55 41.93 23.48 41.91 23.42C41.89 23.36 41.87 23.3 41.85 23.23C41.82 23.17 41.79 23.11 41.76 23.06C41.73 23 41.7 22.94 41.66 22.89C41.63 22.83 41.59 22.78 41.55 22.73C41.5 22.68 41.46 22.63 41.41 22.59C41.37 22.54 41.32 22.5 41.27 22.45C41.22 22.41 41.17 22.37 41.11 22.34C41.06 22.3 41 22.27 40.94 22.24C40.89 22.21 40.83 22.18 40.77 22.15C40.7 22.13 40.64 22.11 40.58 22.09C40.52 22.07 40.45 22.05 40.39 22.04C40.33 22.03 40.26 22.02 40.2 22.01C40.13 22 40.07 22 40 22L8 22C7.93 22 7.87 22 7.8 22.01C7.74 22.02 7.67 22.03 7.61 22.04C7.55 22.05 7.48 22.07 7.42 22.09C7.36 22.11 7.3 22.13 7.23 22.15C7.17 22.18 7.11 22.21 7.06 22.24C7 22.27 6.94 22.3 6.89 22.34C6.83 22.37 6.78 22.41 6.73 22.45C6.68 22.5 6.63 22.54 6.59 22.59C6.54 22.63 6.5 22.68 6.45 22.73C6.41 22.78 6.37 22.83 6.34 22.89C6.3 22.94 6.27 23 6.24 23.06C6.21 23.11 6.18 23.17 6.15 23.23C6.13 23.3 6.11 23.36 6.09 23.42C6.07 23.48 6.05 23.55 6.04 23.61C6.03 23.67 6.02 23.74 6.01 23.8C6 23.87 6 23.93 6 24C6 24.07 6 24.13 6.01 24.2C6.02 24.26 6.03 24.33 6.04 24.39C6.05 24.45 6.07 24.52 6.09 24.58C6.11 24.64 6.13 24.7 6.15 24.77C6.18 24.83 6.21 24.89 6.24 24.94C6.27 25 6.3 25.06 6.34 25.11Z"   fill="#000000" >
</path>
</svg>
