<svg xmlns="http://www.w3.org/2000/svg" xmlns:xlink="http://www.w3.org/1999/xlink" width="48" height="48" viewBox="0 0 48 48" fill="none">
<path d="M28 44L36 44C40.42 44 44 40.42 44 36L44 12C44 7.58 40.42 4 36 4L12 4C7.58 4 4 7.58 4 12L4 20C4 21.1 4.9 22 6 22C7.1 22 8 21.1 8 20L8 12C8 9.79 9.79 8 12 8L36 8C38.21 8 40 9.79 40 12L40 36C40 38.21 38.21 40 36 40L28 40C26.9 40 26 40.9 26 42C26 43.1 26.9 44 28 44ZM36.41 14.41C37.19 13.64 37.19 12.36 36.41 11.59C35.64 10.81 34.36 10.81 33.59 11.59L28 17.17L28 12C28 10.9 27.1 10 26 10C24.9 10 24 10.9 24 12L24 20C24 22.21 25.79 24 28 24L36 24C37.1 24 38 23.1 38 22C38 20.9 37.1 20 36 20L30.83 20L36.41 14.41ZM24 38L24 30C24 26.69 21.31 24 18 24L10 24C6.69 24 4 26.69 4 30L4 38C4 41.31 6.69 44 10 44L18 44C21.31 44 24 41.31 24 38ZM18 28L10 28C8.9 28 8 28.9 8 30L8 38C8 39.1 8.9 40 10 40L18 40C19.1 40 20 39.1 20 38L20 30C20 28.9 19.1 28 18 28Z" fill-rule="evenodd"  fill="#000000" >
</path>
</svg>
