<svg xmlns="http://www.w3.org/2000/svg" xmlns:xlink="http://www.w3.org/1999/xlink" width="48" height="48" viewBox="0 0 48 48" fill="none">
<path d="M44.5 11.5C44.5 10.42 44.29 9.38 43.87 8.39C43.46 7.43 42.89 6.58 42.16 5.84C41.42 5.11 40.57 4.54 39.61 4.13C38.62 3.71 37.58 3.5 36.5 3.5L18.5 3.5C17.42 3.5 16.38 3.71 15.39 4.13C14.43 4.54 13.58 5.11 12.84 5.84C12.11 6.58 11.54 7.43 11.13 8.39C10.71 9.38 10.5 10.42 10.5 11.5L10.5 29.5C10.5 30.58 10.71 31.62 11.13 32.61C11.54 33.57 12.11 34.42 12.84 35.16C13.58 35.89 14.43 36.46 15.39 36.87C16.38 37.29 17.42 37.5 18.5 37.5L36.5 37.5C37.58 37.5 38.62 37.29 39.61 36.87C40.57 36.46 41.42 35.89 42.16 35.16C42.89 34.42 43.46 33.57 43.87 32.61C44.29 31.62 44.5 30.58 44.5 29.5L44.5 11.5ZM39.33 8.67C38.96 8.3 38.53 8.02 38.05 7.81C37.56 7.6 37.04 7.5 36.5 7.5L18.5 7.5C17.96 7.5 17.44 7.6 16.95 7.81C16.47 8.02 16.04 8.3 15.67 8.67C15.3 9.04 15.02 9.47 14.81 9.95C14.6 10.44 14.5 10.96 14.5 11.5L14.5 29.5C14.5 30.04 14.6 30.56 14.81 31.05C15.02 31.53 15.3 31.96 15.67 32.33C16.04 32.7 16.47 32.98 16.95 33.19C17.44 33.4 17.96 33.5 18.5 33.5L36.5 33.5C37.04 33.5 37.56 33.4 38.05 33.19C38.53 32.98 38.96 32.7 39.33 32.33C39.7 31.96 39.98 31.53 40.19 31.05C40.4 30.56 40.5 30.04 40.5 29.5L40.5 11.5C40.5 10.96 40.4 10.44 40.19 9.95C39.98 9.47 39.7 9.04 39.33 8.67ZM5.11 11.54C5.05 11.55 4.98 11.57 4.92 11.59C4.86 11.61 4.8 11.63 4.73 11.65C4.67 11.68 4.61 11.71 4.56 11.74C4.5 11.77 4.44 11.8 4.39 11.84C4.33 11.87 4.28 11.91 4.23 11.95C4.18 12 4.13 12.04 4.09 12.09C4.04 12.13 4 12.18 3.95 12.23C3.91 12.28 3.87 12.33 3.84 12.39C3.8 12.44 3.77 12.5 3.74 12.56C3.71 12.61 3.68 12.67 3.65 12.73C3.63 12.8 3.61 12.86 3.59 12.92C3.57 12.98 3.55 13.05 3.54 13.11C3.53 13.17 3.52 13.24 3.51 13.3C3.5 13.37 3.5 13.43 3.5 13.5L3.5 32.5C3.5 34.13 3.81 35.68 4.44 37.17C5.05 38.61 5.91 39.88 7.02 40.98C8.12 42.09 9.39 42.95 10.83 43.56C12.32 44.19 13.87 44.5 15.5 44.5L34.5 44.5C34.57 44.5 34.63 44.5 34.7 44.49C34.76 44.48 34.83 44.47 34.89 44.46C34.95 44.45 35.02 44.43 35.08 44.41C35.14 44.39 35.2 44.37 35.27 44.35C35.33 44.32 35.39 44.29 35.44 44.26C35.5 44.23 35.56 44.2 35.61 44.16C35.67 44.13 35.72 44.09 35.77 44.05C35.82 44 35.87 43.96 35.91 43.91C35.96 43.87 36 43.82 36.05 43.77C36.09 43.72 36.13 43.67 36.16 43.61C36.2 43.56 36.23 43.5 36.26 43.44C36.29 43.38 36.32 43.33 36.35 43.27C36.37 43.2 36.39 43.14 36.41 43.08C36.43 43.02 36.45 42.95 36.46 42.89C36.47 42.83 36.48 42.76 36.49 42.7C36.5 42.63 36.5 42.57 36.5 42.5C36.5 42.43 36.5 42.37 36.49 42.3C36.48 42.24 36.47 42.17 36.46 42.11C36.45 42.05 36.43 41.98 36.41 41.92C36.39 41.86 36.37 41.8 36.35 41.73C36.32 41.67 36.29 41.61 36.26 41.56C36.23 41.5 36.2 41.44 36.16 41.39C36.13 41.33 36.09 41.28 36.05 41.23C36 41.18 35.96 41.13 35.91 41.09C35.87 41.04 35.82 41 35.77 40.95C35.72 40.91 35.67 40.87 35.61 40.84C35.56 40.8 35.5 40.77 35.44 40.74C35.39 40.71 35.33 40.68 35.27 40.65C35.2 40.63 35.14 40.61 35.08 40.59C35.02 40.57 34.95 40.55 34.89 40.54C34.83 40.53 34.76 40.52 34.7 40.51C34.63 40.5 34.57 40.5 34.5 40.5L15.5 40.5C14.41 40.5 13.38 40.29 12.39 39.87C11.43 39.47 10.58 38.89 9.84 38.16C9.11 37.42 8.53 36.57 8.13 35.61C7.71 34.62 7.5 33.59 7.5 32.5L7.5 13.5C7.5 13.43 7.5 13.37 7.49 13.3C7.48 13.24 7.47 13.17 7.46 13.11C7.45 13.05 7.43 12.98 7.41 12.92C7.39 12.86 7.37 12.8 7.35 12.73C7.32 12.67 7.29 12.61 7.26 12.56C7.23 12.5 7.2 12.44 7.16 12.39C7.13 12.33 7.09 12.28 7.05 12.23C7 12.18 6.96 12.13 6.91 12.09C6.87 12.04 6.82 12 6.77 11.95C6.72 11.91 6.67 11.87 6.61 11.84C6.56 11.8 6.5 11.77 6.44 11.74C6.39 11.71 6.33 11.68 6.27 11.65C6.2 11.63 6.14 11.61 6.08 11.59C6.02 11.57 5.95 11.55 5.89 11.54C5.83 11.53 5.76 11.52 5.7 11.51C5.63 11.5 5.57 11.5 5.5 11.5C5.43 11.5 5.37 11.5 5.3 11.51C5.24 11.52 5.17 11.53 5.11 11.54Z" fill-rule="evenodd"  fill="#000000" >
</path>
</svg>
