<svg xmlns="http://www.w3.org/2000/svg" xmlns:xlink="http://www.w3.org/1999/xlink" width="48" height="48" viewBox="0 0 48 48" fill="none">
<path d="M22.15 37.77C22.18 37.83 22.21 37.89 22.24 37.94C22.27 38 22.3 38.06 22.34 38.11C22.37 38.17 22.41 38.22 22.45 38.27C22.5 38.32 22.54 38.37 22.59 38.41C22.63 38.46 22.68 38.5 22.73 38.55C22.78 38.59 22.83 38.63 22.89 38.66C22.94 38.7 23 38.73 23.06 38.76C23.11 38.79 23.17 38.82 23.23 38.85C23.3 38.87 23.36 38.89 23.42 38.91C23.48 38.93 23.55 38.95 23.61 38.96C23.67 38.97 23.74 38.98 23.8 38.99C23.87 39 23.93 39 24 39C24.07 39 24.13 39 24.2 38.99C24.26 38.98 24.33 38.97 24.39 38.96C24.45 38.95 24.52 38.93 24.58 38.91C24.64 38.89 24.7 38.87 24.77 38.85C24.83 38.82 24.89 38.79 24.94 38.76C25 38.73 25.06 38.7 25.11 38.66C25.17 38.63 25.22 38.59 25.27 38.55C25.32 38.5 25.37 38.46 25.41 38.41C25.46 38.37 25.5 38.32 25.55 38.27C25.59 38.22 25.63 38.17 25.66 38.11C25.7 38.06 25.73 38 25.76 37.94C25.79 37.89 25.82 37.83 25.85 37.77C25.87 37.7 25.89 37.64 25.91 37.58C25.93 37.52 25.95 37.45 25.96 37.39C25.97 37.33 25.98 37.26 25.99 37.2C26 37.13 26 37.07 26 37L26 30L32 30C32.07 30 32.13 30 32.2 29.99C32.26 29.98 32.33 29.97 32.39 29.96C32.46 29.95 32.52 29.93 32.58 29.91C32.64 29.89 32.71 29.87 32.77 29.85C32.83 29.82 32.89 29.79 32.94 29.76C33 29.73 33.06 29.7 33.11 29.66C33.17 29.63 33.22 29.59 33.27 29.55C33.32 29.5 33.37 29.46 33.41 29.41C33.46 29.37 33.5 29.32 33.55 29.27C33.59 29.22 33.63 29.17 33.66 29.11C33.7 29.06 33.73 29 33.76 28.94C33.79 28.88 33.82 28.83 33.85 28.77C33.87 28.7 33.89 28.64 33.91 28.58C33.93 28.52 33.95 28.45 33.96 28.39C33.97 28.33 33.98 28.26 33.99 28.2C34 28.13 34 28.07 34 28C34 27.93 34 27.87 33.99 27.8C33.98 27.74 33.97 27.67 33.96 27.61C33.95 27.55 33.93 27.48 33.91 27.42C33.89 27.36 33.87 27.3 33.85 27.23C33.82 27.17 33.79 27.12 33.76 27.06C33.73 27 33.7 26.94 33.66 26.89C33.63 26.83 33.59 26.78 33.55 26.73C33.5 26.68 33.46 26.63 33.41 26.59C33.37 26.54 33.32 26.5 33.27 26.45C33.22 26.41 33.17 26.37 33.11 26.34C33.06 26.3 33 26.27 32.94 26.24C32.89 26.21 32.83 26.18 32.77 26.15C32.71 26.13 32.64 26.11 32.58 26.09C32.52 26.07 32.46 26.05 32.39 26.04C32.33 26.03 32.26 26.02 32.2 26.01C32.13 26 32.07 26 32 26L26 26L26 23L32 23C32.07 23 32.13 23 32.2 22.99C32.26 22.98 32.33 22.97 32.39 22.96C32.46 22.95 32.52 22.93 32.58 22.91C32.64 22.89 32.71 22.87 32.77 22.85C32.83 22.82 32.89 22.79 32.94 22.76C33 22.73 33.06 22.7 33.11 22.66C33.17 22.63 33.22 22.59 33.27 22.55C33.32 22.5 33.37 22.46 33.41 22.41C33.46 22.37 33.5 22.32 33.55 22.27C33.59 22.22 33.63 22.17 33.66 22.11C33.7 22.06 33.73 22 33.76 21.94C33.79 21.88 33.82 21.83 33.85 21.77C33.87 21.7 33.89 21.64 33.91 21.58C33.93 21.52 33.95 21.45 33.96 21.39C33.97 21.33 33.98 21.26 33.99 21.2C34 21.13 34 21.07 34 21C34 20.93 34 20.87 33.99 20.8C33.98 20.74 33.97 20.67 33.96 20.61C33.95 20.55 33.93 20.48 33.91 20.42C33.89 20.36 33.87 20.3 33.85 20.23C33.82 20.17 33.79 20.12 33.76 20.06C33.73 20 33.7 19.94 33.66 19.89C33.63 19.83 33.59 19.78 33.55 19.73C33.5 19.68 33.46 19.63 33.41 19.59C33.37 19.54 33.32 19.5 33.27 19.45C33.22 19.41 33.17 19.37 33.11 19.34C33.06 19.3 33 19.27 32.94 19.24C32.89 19.21 32.83 19.18 32.77 19.15C32.71 19.13 32.64 19.11 32.58 19.09C32.52 19.07 32.46 19.05 32.39 19.04C32.33 19.03 32.26 19.02 32.2 19.01C32.13 19 32.07 19 32 19L27.83 19L32.41 14.41C32.46 14.37 32.5 14.32 32.55 14.27C32.59 14.22 32.63 14.17 32.66 14.11C32.7 14.06 32.73 14 32.76 13.94C32.79 13.88 32.82 13.83 32.85 13.77C32.87 13.7 32.89 13.64 32.91 13.58C32.93 13.52 32.95 13.45 32.96 13.39C32.97 13.33 32.98 13.26 32.99 13.2C33 13.13 33 13.07 33 13C33 12.93 33 12.87 32.99 12.8C32.98 12.74 32.97 12.67 32.96 12.61C32.95 12.55 32.93 12.48 32.91 12.42C32.89 12.36 32.87 12.3 32.85 12.23C32.82 12.17 32.79 12.11 32.76 12.06C32.73 12 32.7 11.94 32.66 11.89C32.63 11.83 32.59 11.78 32.55 11.73C32.5 11.68 32.46 11.63 32.41 11.59C32.32 11.49 32.22 11.41 32.11 11.34C32 11.26 31.89 11.2 31.77 11.15C31.64 11.1 31.52 11.06 31.39 11.04C31.26 11.01 31.13 11 31 11C30.87 11 30.74 11.01 30.61 11.04C30.48 11.06 30.36 11.1 30.23 11.15C30.11 11.2 30 11.26 29.89 11.34C29.78 11.41 29.68 11.49 29.59 11.59L24 17.17L18.41 11.59C18.37 11.54 18.32 11.5 18.27 11.45C18.22 11.41 18.17 11.37 18.11 11.34C18.06 11.3 18 11.27 17.94 11.24C17.88 11.21 17.83 11.18 17.77 11.15C17.7 11.13 17.64 11.11 17.58 11.09C17.52 11.07 17.45 11.05 17.39 11.04C17.33 11.03 17.26 11.02 17.2 11.01C17.13 11 17.07 11 17 11C16.93 11 16.87 11 16.8 11.01C16.74 11.02 16.67 11.03 16.61 11.04C16.55 11.05 16.48 11.07 16.42 11.09C16.36 11.11 16.3 11.13 16.23 11.15C16.17 11.18 16.11 11.21 16.06 11.24C16 11.27 15.94 11.3 15.89 11.34C15.83 11.37 15.78 11.41 15.73 11.45C15.68 11.5 15.63 11.54 15.59 11.59C15.54 11.63 15.5 11.68 15.45 11.73C15.41 11.78 15.37 11.83 15.34 11.89C15.3 11.94 15.27 12 15.24 12.06C15.21 12.12 15.18 12.17 15.15 12.23C15.13 12.3 15.11 12.36 15.09 12.42C15.07 12.48 15.05 12.55 15.04 12.61C15.03 12.67 15.02 12.74 15.01 12.8C15 12.87 15 12.93 15 13C15 13.07 15 13.13 15.01 13.2C15.02 13.26 15.03 13.33 15.04 13.39C15.05 13.45 15.07 13.52 15.09 13.58C15.11 13.64 15.13 13.7 15.15 13.77C15.18 13.83 15.21 13.89 15.24 13.94C15.27 14 15.3 14.06 15.34 14.11C15.37 14.17 15.41 14.22 15.45 14.27C15.5 14.32 15.54 14.37 15.59 14.41L20.17 19L16 19C15.93 19 15.87 19 15.8 19.01C15.74 19.02 15.67 19.03 15.61 19.04C15.55 19.05 15.48 19.07 15.42 19.09C15.36 19.11 15.3 19.13 15.23 19.15C15.17 19.18 15.11 19.21 15.06 19.24C15 19.27 14.94 19.3 14.89 19.34C14.83 19.37 14.78 19.41 14.73 19.45C14.68 19.5 14.63 19.54 14.59 19.59C14.54 19.63 14.5 19.68 14.45 19.73C14.41 19.78 14.37 19.83 14.34 19.89C14.3 19.94 14.27 20 14.24 20.06C14.21 20.11 14.18 20.17 14.15 20.23C14.13 20.3 14.11 20.36 14.09 20.42C14.07 20.48 14.05 20.55 14.04 20.61C14.03 20.67 14.02 20.74 14.01 20.8C14 20.87 14 20.93 14 21C14 21.07 14 21.13 14.01 21.2C14.02 21.26 14.03 21.33 14.04 21.39C14.05 21.45 14.07 21.52 14.09 21.58C14.11 21.64 14.13 21.7 14.15 21.77C14.18 21.83 14.21 21.89 14.24 21.94C14.27 22 14.3 22.06 14.34 22.11C14.37 22.17 14.41 22.22 14.45 22.27C14.5 22.32 14.54 22.37 14.59 22.41C14.63 22.46 14.68 22.5 14.73 22.55C14.78 22.59 14.83 22.63 14.89 22.66C14.94 22.7 15 22.73 15.06 22.76C15.11 22.79 15.17 22.82 15.23 22.85C15.3 22.87 15.36 22.89 15.42 22.91C15.48 22.93 15.55 22.95 15.61 22.96C15.67 22.97 15.74 22.98 15.8 22.99C15.87 23 15.93 23 16 23L22 23L22 26L16 26C15.93 26 15.87 26 15.8 26.01C15.74 26.02 15.67 26.03 15.61 26.04C15.55 26.05 15.48 26.07 15.42 26.09C15.36 26.11 15.3 26.13 15.23 26.15C15.17 26.18 15.11 26.21 15.06 26.24C15 26.27 14.94 26.3 14.89 26.34C14.83 26.37 14.78 26.41 14.73 26.45C14.68 26.5 14.63 26.54 14.59 26.59C14.54 26.63 14.5 26.68 14.45 26.73C14.41 26.78 14.37 26.83 14.34 26.89C14.3 26.94 14.27 27 14.24 27.06C14.21 27.11 14.18 27.17 14.15 27.23C14.13 27.3 14.11 27.36 14.09 27.42C14.07 27.48 14.05 27.55 14.04 27.61C14.03 27.67 14.02 27.74 14.01 27.8C14 27.87 14 27.93 14 28C14 28.07 14 28.13 14.01 28.2C14.02 28.26 14.03 28.33 14.04 28.39C14.05 28.45 14.07 28.52 14.09 28.58C14.11 28.64 14.13 28.7 14.15 28.77C14.18 28.83 14.21 28.89 14.24 28.94C14.27 29 14.3 29.06 14.34 29.11C14.37 29.17 14.41 29.22 14.45 29.27C14.5 29.32 14.54 29.37 14.59 29.41C14.63 29.46 14.68 29.5 14.73 29.55C14.78 29.59 14.83 29.63 14.89 29.66C14.94 29.7 15 29.73 15.06 29.76C15.11 29.79 15.17 29.82 15.23 29.85C15.3 29.87 15.36 29.89 15.42 29.91C15.48 29.93 15.55 29.95 15.61 29.96C15.67 29.97 15.74 29.98 15.8 29.99C15.87 30 15.93 30 16 30L22 30L22 37C22 37.07 22 37.13 22.01 37.2C22.02 37.26 22.03 37.33 22.04 37.39C22.05 37.45 22.07 37.52 22.09 37.58C22.11 37.64 22.13 37.7 22.15 37.77ZM43.35 15.83C42.29 13.31 40.79 11.09 38.85 9.15C36.91 7.21 34.69 5.71 32.17 4.65C29.57 3.55 26.85 3 24 3C21.15 3 18.43 3.55 15.83 4.65C13.31 5.71 11.09 7.21 9.15 9.15C7.21 11.09 5.71 13.31 4.65 15.83C3.55 18.43 3 21.15 3 24C3 26.85 3.55 29.57 4.65 32.17C5.71 34.69 7.21 36.91 9.15 38.85C11.09 40.79 13.31 42.29 15.83 43.35C18.43 44.45 21.15 45 24 45C26.85 45 29.57 44.45 32.17 43.35C34.69 42.29 36.91 40.79 38.85 38.85C40.79 36.91 42.29 34.69 43.35 32.17C44.45 29.57 45 26.85 45 24C45 21.15 44.45 18.43 43.35 15.83ZM30.61 8.34C28.51 7.45 26.31 7 24 7C21.69 7 19.49 7.45 17.39 8.34C15.35 9.2 13.55 10.41 11.98 11.98C10.41 13.55 9.2 15.35 8.34 17.39C7.45 19.49 7 21.69 7 24C7 26.31 7.45 28.51 8.34 30.61C9.2 32.65 10.41 34.45 11.98 36.02C13.55 37.59 15.35 38.8 17.39 39.66C19.49 40.55 21.69 41 24 41C26.31 41 28.51 40.55 30.61 39.66C32.65 38.8 34.45 37.59 36.02 36.02C37.59 34.45 38.8 32.65 39.66 30.61C40.55 28.51 41 26.31 41 24C41 21.69 40.55 19.49 39.66 17.39C38.8 15.35 37.59 13.55 36.02 11.98C34.45 10.41 32.65 9.2 30.61 8.34Z" fill-rule="evenodd"  fill="#000000" >
</path>
</svg>
