<svg xmlns="http://www.w3.org/2000/svg" xmlns:xlink="http://www.w3.org/1999/xlink" width="48" height="48" viewBox="0 0 48 48" fill="none">
<path d="M19.97 21.65C20.58 21.78 21.26 21.87 22 21.93L22 16.12C21.53 16.17 21.07 16.25 20.63 16.35C19.66 16.56 18.83 16.85 18.13 17.23C17.53 17.55 17.08 17.9 16.8 18.28C16.6 18.53 16.5 18.77 16.5 19C16.5 19.36 16.58 19.68 16.73 19.95C16.92 20.27 17.23 20.56 17.66 20.82C18.24 21.17 19.01 21.45 19.97 21.65ZM4.65 15.83C3.55 18.43 3 21.15 3 24C3 26.85 3.55 29.57 4.65 32.17C5.71 34.69 7.21 36.91 9.15 38.85C11.09 40.79 13.31 42.29 15.83 43.35C18.43 44.45 21.15 45 24 45C26.85 45 29.57 44.45 32.17 43.35C34.69 42.29 36.91 40.79 38.85 38.85C40.79 36.91 42.29 34.69 43.35 32.17C44.45 29.57 45 26.85 45 24C45 21.15 44.45 18.43 43.35 15.83C42.29 13.31 40.79 11.09 38.85 9.15C36.91 7.21 34.69 5.71 32.17 4.65C29.57 3.55 26.85 3 24 3C21.15 3 18.43 3.55 15.83 4.65C13.31 5.71 11.09 7.21 9.15 9.15C7.21 11.09 5.71 13.31 4.65 15.83ZM14.25 29.42C14.19 29.44 14.13 29.47 14.07 29.5C14.02 29.53 13.96 29.56 13.9 29.6C13.85 29.64 13.8 29.67 13.75 29.71C13.69 29.76 13.65 29.8 13.6 29.85C13.55 29.89 13.51 29.94 13.47 29.99C13.42 30.04 13.38 30.09 13.35 30.15C13.31 30.2 13.28 30.26 13.25 30.31C13.21 30.37 13.19 30.43 13.16 30.49C13.13 30.55 13.11 30.61 13.09 30.67C13.07 30.74 13.06 30.8 13.04 30.86C13.03 30.93 13.02 30.99 13.01 31.06C13 31.12 13 31.19 13 31.25C13 31.32 13 31.38 13.01 31.45C13.01 31.52 13.02 31.58 13.03 31.64C13.05 31.71 13.06 31.77 13.08 31.84C13.1 31.9 13.12 31.96 13.15 32.02C13.17 32.08 13.2 32.14 13.23 32.2C13.26 32.26 13.29 32.31 13.33 32.37C13.36 32.42 13.4 32.48 13.44 32.53C13.48 32.58 13.53 32.63 13.57 32.67C13.62 32.72 13.67 32.76 13.72 32.81L13.87 32.93L13.87 32.92C14.47 33.33 15.14 33.72 15.89 34.08C16.66 34.45 17.47 34.77 18.32 35.05C19.56 35.46 20.79 35.73 22 35.88L22 37C22 37.07 22 37.13 22.01 37.2C22.02 37.26 22.03 37.33 22.04 37.39C22.05 37.45 22.07 37.52 22.09 37.58C22.11 37.64 22.13 37.7 22.15 37.77C22.18 37.83 22.21 37.89 22.24 37.94C22.27 38 22.3 38.06 22.34 38.11C22.37 38.17 22.41 38.22 22.45 38.27C22.5 38.32 22.54 38.37 22.59 38.41C22.63 38.46 22.68 38.5 22.73 38.55C22.78 38.59 22.83 38.63 22.89 38.66C22.94 38.7 23 38.73 23.06 38.76C23.11 38.79 23.17 38.82 23.23 38.85C23.3 38.87 23.36 38.89 23.42 38.91C23.48 38.93 23.55 38.95 23.61 38.96C23.67 38.97 23.74 38.98 23.8 38.99C23.87 39 23.93 39 24 39C24.07 39 24.13 39 24.2 38.99C24.26 38.98 24.33 38.97 24.39 38.96C24.45 38.95 24.52 38.93 24.58 38.91C24.64 38.89 24.7 38.87 24.77 38.85C24.83 38.82 24.89 38.79 24.94 38.76C25 38.73 25.06 38.7 25.11 38.66C25.17 38.63 25.22 38.59 25.27 38.55C25.32 38.5 25.37 38.46 25.41 38.41C25.46 38.37 25.5 38.32 25.55 38.27C25.59 38.22 25.63 38.17 25.66 38.11C25.7 38.06 25.73 38 25.76 37.94C25.79 37.89 25.82 37.83 25.85 37.77C25.87 37.7 25.89 37.64 25.91 37.58C25.93 37.52 25.95 37.45 25.96 37.39C25.97 37.33 25.98 37.26 25.99 37.2C26 37.13 26 37.07 26 37L26 35.92C26.86 35.85 27.67 35.73 28.44 35.56C29.79 35.27 30.96 34.84 31.97 34.28C33.05 33.68 33.89 32.95 34.49 32.1C35.16 31.15 35.5 30.11 35.5 29C35.5 27.93 35.24 26.95 34.73 26.06C34.21 25.14 33.43 24.37 32.41 23.75C30.84 22.8 28.7 22.24 26 22.06L26 16.13C26.56 16.2 27.09 16.31 27.61 16.44C29.05 16.83 30.49 17.48 31.91 18.41L31.91 18.4L31.91 18.4L32.45 17.58L31.91 18.4C31.97 18.44 32.02 18.47 32.08 18.5C32.14 18.53 32.2 18.56 32.26 18.58C32.32 18.61 32.38 18.63 32.44 18.65C32.51 18.67 32.57 18.68 32.64 18.69C32.7 18.71 32.76 18.71 32.83 18.72C32.9 18.73 32.96 18.73 33.03 18.73C33.09 18.73 33.16 18.72 33.22 18.71C33.29 18.71 33.35 18.7 33.42 18.68C33.48 18.67 33.54 18.65 33.61 18.63C33.67 18.61 33.73 18.59 33.79 18.56C33.85 18.54 33.91 18.51 33.97 18.48C34.02 18.45 34.08 18.41 34.13 18.38C34.19 18.34 34.24 18.3 34.29 18.26C34.34 18.21 34.39 18.17 34.43 18.12C34.48 18.08 34.52 18.03 34.56 17.98C34.6 17.92 34.64 17.87 34.68 17.82C34.75 17.71 34.81 17.59 34.86 17.47C34.91 17.35 34.94 17.22 34.97 17.09C34.99 16.96 35 16.83 35 16.7C35 16.57 34.98 16.44 34.96 16.31C34.93 16.18 34.89 16.06 34.84 15.94C34.79 15.82 34.72 15.7 34.65 15.59C34.57 15.49 34.49 15.39 34.4 15.29C34.3 15.2 34.2 15.12 34.09 15.05C32.31 13.89 30.49 13.07 28.64 12.58C27.79 12.35 26.91 12.19 26 12.1L26 11C26 10.93 26 10.87 25.99 10.8C25.98 10.74 25.97 10.67 25.96 10.61C25.95 10.55 25.93 10.48 25.91 10.42C25.89 10.36 25.87 10.3 25.85 10.23C25.82 10.17 25.79 10.11 25.76 10.06C25.73 10 25.7 9.94 25.66 9.89C25.63 9.83 25.59 9.78 25.55 9.73C25.5 9.68 25.46 9.63 25.41 9.59C25.37 9.54 25.32 9.5 25.27 9.45C25.22 9.41 25.17 9.37 25.11 9.34C25.06 9.3 25 9.27 24.94 9.24C24.89 9.21 24.83 9.18 24.77 9.15C24.7 9.13 24.64 9.11 24.58 9.09C24.52 9.07 24.45 9.05 24.39 9.04C24.33 9.03 24.26 9.02 24.2 9.01C24.13 9 24.07 9 24 9C23.93 9 23.87 9 23.8 9.01C23.74 9.02 23.67 9.03 23.61 9.04C23.55 9.05 23.48 9.07 23.42 9.09C23.36 9.11 23.3 9.13 23.23 9.15C23.17 9.18 23.11 9.21 23.06 9.24C23 9.27 22.94 9.3 22.89 9.34C22.83 9.37 22.78 9.41 22.73 9.45C22.68 9.5 22.63 9.54 22.59 9.59C22.54 9.63 22.5 9.68 22.45 9.73C22.41 9.78 22.37 9.83 22.34 9.89C22.3 9.94 22.27 10 22.24 10.06C22.21 10.11 22.18 10.17 22.15 10.23C22.13 10.3 22.11 10.36 22.09 10.42C22.07 10.48 22.05 10.55 22.04 10.61C22.03 10.67 22.02 10.74 22.01 10.8C22 10.87 22 10.93 22 11L22 12.09C21.23 12.17 20.49 12.28 19.76 12.44C18.44 12.73 17.27 13.15 16.24 13.7C15.14 14.3 14.26 15.01 13.63 15.83C12.88 16.81 12.5 17.86 12.5 19C12.5 20.07 12.76 21.05 13.27 21.94C13.8 22.86 14.57 23.63 15.59 24.25C17.16 25.2 19.3 25.76 22 25.94L22 31.84C21.2 31.72 20.39 31.52 19.56 31.25C18.88 31.03 18.24 30.77 17.63 30.47C17.06 30.2 16.56 29.92 16.13 29.62C16.07 29.58 16.02 29.55 15.96 29.52L15.78 29.43C15.72 29.41 15.66 29.38 15.6 29.36C15.54 29.34 15.47 29.33 15.41 29.31C15.34 29.3 15.28 29.29 15.21 29.28C15.15 29.28 15.08 29.27 15.02 29.27C14.95 29.27 14.89 29.27 14.82 29.28C14.76 29.29 14.69 29.3 14.63 29.31C14.56 29.32 14.5 29.34 14.44 29.35C14.37 29.37 14.31 29.39 14.25 29.42ZM7 24C7 26.31 7.45 28.51 8.34 30.61C9.2 32.65 10.41 34.45 11.98 36.02C13.55 37.59 15.35 38.8 17.39 39.66C19.49 40.55 21.69 41 24 41C26.31 41 28.51 40.55 30.61 39.66C32.65 38.8 34.45 37.59 36.02 36.02C37.59 34.45 38.8 32.65 39.66 30.61C40.55 28.51 41 26.31 41 24C41 21.69 40.55 19.49 39.66 17.39C38.8 15.35 37.59 13.55 36.02 11.98C34.45 10.41 32.65 9.2 30.61 8.34C28.51 7.45 26.31 7 24 7C21.69 7 19.49 7.45 17.39 8.34C15.35 9.2 13.55 10.41 11.98 11.98C10.41 13.55 9.2 15.35 8.34 17.39C7.45 19.49 7 21.69 7 24ZM27.59 31.65C28.55 31.44 29.36 31.16 30.03 30.79C30.57 30.48 30.97 30.15 31.23 29.79C31.41 29.53 31.5 29.27 31.5 29C31.5 28.64 31.42 28.32 31.27 28.05C31.08 27.73 30.77 27.44 30.34 27.18C29.76 26.83 28.99 26.55 28.03 26.35C27.42 26.23 26.74 26.13 26 26.07L26 31.9C26.56 31.84 27.09 31.76 27.59 31.65ZM31.91 18.4L32.45 17.58L31.91 18.4L31.91 18.4Z" fill-rule="evenodd"  fill="#000000" >
</path>
</svg>
