<svg xmlns="http://www.w3.org/2000/svg" xmlns:xlink="http://www.w3.org/1999/xlink" width="48" height="48" viewBox="0 0 48 48" fill="none">
<path d="M33.79 39.7588L41.33 38.0588C41.99 37.9088 42.6 37.5888 43.14 37.1288C43.6 36.7288 44 36.2288 44.35 35.6288C44.92 34.6188 45.32 33.3388 45.56 31.7788C45.76 30.3388 45.83 28.7488 45.72 26.9988C45.61 25.2188 45.34 23.3888 44.92 21.5188C44.5 19.6388 43.96 17.8888 43.29 16.2388C42.63 14.6088 41.89 13.1888 41.08 11.9788C40.21 10.6788 39.29 9.69882 38.34 9.02882C37.77 8.63882 37.19 8.35882 36.6 8.18882C35.91 8.00882 35.23 7.98882 34.57 8.13882L27.6 9.70882C27.13 9.61882 26.64 9.53882 26.14 9.45882C24.18 9.14882 22.14 8.99882 20 8.99882C17.86 8.99882 15.82 9.14882 13.86 9.45882C11.93 9.74882 10.21 10.1788 8.71 10.7288C7.09 11.3188 5.81 12.0288 4.87 12.8488C4.31 13.3288 3.87 13.8588 3.56 14.4188C3.19 15.0788 3 15.7788 3 16.4988C3 16.5988 3 16.6988 3.01 16.7988L3.01 16.7988C3 16.8688 3 16.9288 3 16.9988L3 24.7988C3 24.8288 3 24.8688 3 24.8988C3 24.9288 3 24.9688 3 24.9988L3 32.7988C3 33.5188 3.19 34.2088 3.58 34.8588C3.9 35.3988 4.34 35.9088 4.91 36.3688C5.86 37.1388 7.13 37.8088 8.74 38.3688C10.24 38.8888 11.95 39.2888 13.87 39.5688C15.83 39.8588 17.87 39.9988 20 39.9988C22.13 39.9988 24.17 39.8588 26.13 39.5688C27.5 39.3688 28.76 39.1088 29.91 38.7888C29.94 38.8188 29.98 38.8388 30.02 38.8688C30.58 39.2588 31.16 39.5388 31.75 39.7088C32.44 39.8888 33.12 39.9088 33.79 39.7588ZM41.02 22.3988C40.64 20.7388 40.16 19.1888 39.58 17.7388C39.02 16.3688 38.42 15.1888 37.76 14.2188C37.16 13.3188 36.59 12.6988 36.05 12.3088C35.86 12.1788 35.7 12.0988 35.56 12.0588C35.5 12.0388 35.47 12.0388 35.45 12.0388L35.44 12.0388C35.42 12.0488 35.4 12.0688 35.35 12.0988C35.34 12.1188 35.33 12.1288 35.32 12.1388C35.22 12.2388 35.11 12.3688 35.02 12.5488C34.98 12.6188 34.94 12.6888 34.9 12.7688C34.63 13.3288 34.42 14.0788 34.29 14.9988C34.26 15.1388 34.24 15.2888 34.23 15.4388C34.11 16.4988 34.09 17.6688 34.16 18.9588C34.26 20.5188 34.49 22.1288 34.86 23.7888C35.24 25.4488 35.72 27.0088 36.31 28.4588C36.86 29.8288 37.47 30.9988 38.13 31.9788C38.72 32.8688 39.29 33.4988 39.84 33.8788C40.02 34.0088 40.2 34.0988 40.33 34.1388C40.33 34.1388 40.34 34.1388 40.34 34.1388C40.34 34.1388 40.34 34.1388 40.34 34.1488C40.39 34.1588 40.42 34.1588 40.44 34.1488C40.46 34.1488 40.49 34.1288 40.53 34.0888C40.64 33.9988 40.76 33.8588 40.87 33.6488C41.19 33.0688 41.44 32.2588 41.59 31.1988C41.77 30.0288 41.81 28.7088 41.72 27.2288C41.62 25.6688 41.39 24.0588 41.02 22.3988ZM8.74 30.3688C8.11 30.1488 7.53 29.9088 7 29.6588L7 32.7788C7.01 32.7888 7.01 32.8088 7.03 32.8288C7.1 32.9588 7.24 33.1088 7.45 33.2788C8.02 33.7488 8.89 34.1788 10.05 34.5888C11.32 35.0288 12.78 35.3688 14.45 35.6088C16.22 35.8688 18.06 35.9988 20 35.9988C21.94 35.9988 23.78 35.8688 25.55 35.6088C26.02 35.5388 26.48 35.4688 26.92 35.3788C26.25 34.3088 25.64 33.0788 25.08 31.7088C23.44 31.9088 21.75 31.9988 20 31.9988C17.87 31.9988 15.83 31.8588 13.87 31.5688C11.95 31.2888 10.24 30.8888 8.74 30.3688ZM7 16.4988C7 16.5288 7.02 16.5688 7.05 16.6288C7.14 16.7788 7.28 16.9488 7.49 17.1288C8.06 17.6288 8.93 18.0888 10.08 18.5088C11.34 18.9688 12.81 19.3288 14.47 19.5888C16.23 19.8588 18.07 19.9988 20 19.9988C20.88 19.9988 21.74 19.9688 22.59 19.9088C22.55 18.5488 22.62 17.2788 22.79 16.1088C22.96 14.9888 23.22 14.0088 23.57 13.1688C22.41 13.0588 21.22 12.9988 20 12.9988C18.07 12.9988 16.23 13.1388 14.47 13.4088C12.81 13.6688 11.34 14.0288 10.08 14.4888C8.93 14.9088 8.06 15.3688 7.49 15.8688C7.28 16.0488 7.14 16.2188 7.05 16.3688C7.02 16.4288 7 16.4688 7 16.4988ZM22.95 23.8988C21.99 23.9688 21 23.9988 20 23.9988C17.86 23.9988 15.82 23.8488 13.86 23.5388C11.93 23.2488 10.21 22.8188 8.71 22.2688C8.09 22.0488 7.52 21.7988 7 21.5388L7 24.7788C7.01 24.7888 7.01 24.8088 7.03 24.8288C7.1 24.9588 7.24 25.1088 7.45 25.2788C8.02 25.7488 8.89 26.1788 10.05 26.5888C11.32 27.0288 12.78 27.3688 14.45 27.6088C16.22 27.8688 18.06 27.9988 20 27.9988C21.3 27.9988 22.56 27.9388 23.78 27.8288C23.65 27.3488 23.53 26.8688 23.42 26.3688C23.23 25.5388 23.08 24.7188 22.95 23.8988ZM32.9 35.8588L35.57 35.2588C35.31 34.9288 35.06 34.5888 34.81 34.2188C33.99 33.0088 33.26 31.5788 32.6 29.9588C31.93 28.3088 31.38 26.5388 30.96 24.6688C30.54 22.7988 30.27 20.9788 30.17 19.1988C30.16 19.0888 30.16 18.9788 30.16 18.8788C30.08 17.2488 30.13 15.7688 30.33 14.4088C30.4 13.9588 30.48 13.5388 30.57 13.1388L27.91 13.7388C27.89 13.7488 27.85 13.7688 27.81 13.8088C27.71 13.8988 27.59 14.0488 27.48 14.2488C27.15 14.8288 26.9 15.6388 26.75 16.6988C26.58 17.8688 26.54 19.1888 26.62 20.6688C26.72 22.2288 26.95 23.8288 27.32 25.4888C27.7 27.1488 28.18 28.7088 28.77 30.1588C29.32 31.5288 29.93 32.7088 30.59 33.6788C31.18 34.5788 31.75 35.2088 32.3 35.5788C32.48 35.7188 32.66 35.7988 32.79 35.8388C32.84 35.8588 32.88 35.8588 32.9 35.8588Z" fill-rule="evenodd"  fill="#000000" >
</path>
</svg>
