<svg xmlns="http://www.w3.org/2000/svg" xmlns:xlink="http://www.w3.org/1999/xlink" width="48" height="48" viewBox="0 0 48 48" fill="none">
<path d="M38.66 42.66C39.39 41.92 39.96 41.07 40.37 40.11C40.79 39.12 41 38.08 41 37L41 11C41 9.92 40.79 8.88 40.37 7.89C39.96 6.93 39.39 6.08 38.66 5.34C37.92 4.61 37.07 4.04 36.11 3.63C35.12 3.21 34.08 3 33 3L15 3C13.92 3 12.88 3.21 11.89 3.63C10.93 4.04 10.08 4.61 9.34 5.34C8.61 6.08 8.04 6.93 7.63 7.89C7.21 8.88 7 9.92 7 11L7 37C7 38.08 7.21 39.12 7.63 40.11C8.04 41.07 8.61 41.92 9.34 42.66C10.08 43.39 10.93 43.96 11.89 44.37C12.88 44.79 13.92 45 15 45L33 45C34.08 45 35.12 44.79 36.11 44.37C37.07 43.96 37.92 43.39 38.66 42.66ZM30.45 22.73C30.09 23.56 29.59 24.3 28.95 24.95C28.3 25.59 27.56 26.09 26.73 26.45C25.86 26.82 24.95 27 24 27C23.05 27 22.14 26.82 21.27 26.45C20.44 26.09 19.7 25.59 19.05 24.95C18.41 24.3 17.91 23.56 17.55 22.73C17.32 22.19 17.16 21.64 17.08 21.07C16.2 20.81 15.35 20.5 14.53 20.13C13.25 19.55 12.07 18.86 11 18.04L11 37C11 37.54 11.1 38.06 11.31 38.55C11.52 39.03 11.8 39.46 12.17 39.83C12.54 40.2 12.97 40.48 13.45 40.69C13.94 40.9 14.46 41 15 41L33 41C33.54 41 34.06 40.9 34.55 40.69C35.03 40.48 35.46 40.2 35.83 39.83C36.2 39.46 36.48 39.03 36.69 38.55C36.9 38.06 37 37.54 37 37L37 18.05C35.93 18.87 34.75 19.56 33.47 20.14C32.65 20.5 31.8 20.82 30.92 21.07C30.83 21.64 30.68 22.19 30.45 22.73ZM24 23C24.41 23 24.8 22.92 25.17 22.77C25.52 22.61 25.84 22.4 26.12 22.12C26.4 21.84 26.61 21.52 26.77 21.17C26.92 20.8 27 20.41 27 20C27 19.59 26.92 19.2 26.77 18.83C26.61 18.48 26.4 18.16 26.12 17.88C25.84 17.6 25.52 17.39 25.17 17.23C24.8 17.08 24.41 17 24 17C23.59 17 23.2 17.08 22.83 17.23C22.48 17.39 22.16 17.6 21.88 17.88C21.6 18.16 21.39 18.48 21.23 18.83C21.08 19.2 21 19.59 21 20C21 20.41 21.08 20.8 21.23 21.17C21.39 21.52 21.6 21.84 21.88 22.12C22.16 22.4 22.48 22.61 22.83 22.77C23.2 22.92 23.59 23 24 23ZM16.17 16.48C16.65 16.69 17.14 16.88 17.65 17.05C18 16.31 18.47 15.64 19.05 15.05C19.7 14.41 20.44 13.91 21.27 13.55C22.14 13.18 23.05 13 24 13C24.95 13 25.86 13.18 26.73 13.55C27.56 13.91 28.3 14.41 28.95 15.05C29.54 15.65 30.01 16.32 30.36 17.06C30.87 16.9 31.36 16.7 31.84 16.49C33.97 15.53 35.69 14.17 37 12.38L37 11C37 10.46 36.9 9.94 36.69 9.45C36.48 8.97 36.2 8.54 35.83 8.17C35.46 7.8 35.03 7.52 34.55 7.31C34.06 7.1 33.54 7 33 7L15 7C14.46 7 13.94 7.1 13.45 7.31C12.97 7.52 12.54 7.8 12.17 8.17C11.8 8.54 11.52 8.97 11.31 9.45C11.1 9.94 11 10.46 11 11L11 12.36C12.31 14.15 14.03 15.52 16.17 16.48Z" fill-rule="evenodd"  fill="#000000" >
</path>
</svg>
