<svg xmlns="http://www.w3.org/2000/svg" xmlns:xlink="http://www.w3.org/1999/xlink" width="48" height="48" viewBox="0 0 48 48" fill="none">
<path d="M44.37 10.89C43.96 9.93 43.39 9.08 42.66 8.34C41.92 7.61 41.07 7.04 40.11 6.63C39.12 6.21 38.08 6 37 6L11 6C9.92 6 8.88 6.21 7.89 6.63C6.93 7.04 6.08 7.61 5.34 8.34C4.61 9.08 4.04 9.93 3.63 10.89C3.21 11.88 3 12.92 3 14L3 34C3 35.08 3.21 36.12 3.63 37.11C4.04 38.07 4.61 38.92 5.34 39.66C6.08 40.39 6.93 40.96 7.89 41.37C8.88 41.79 9.92 42 11 42L37 42C38.08 42 39.12 41.79 40.11 41.37C41.07 40.96 41.92 40.39 42.66 39.66C43.39 38.92 43.96 38.07 44.37 37.11C44.79 36.12 45 35.08 45 34L45 14C45 12.92 44.79 11.88 44.37 10.89ZM40.69 12.45C40.48 11.97 40.2 11.54 39.83 11.17C39.46 10.8 39.03 10.52 38.55 10.31C38.06 10.1 37.54 10 37 10L11 10C10.46 10 9.94 10.1 9.45 10.31C8.97 10.52 8.54 10.8 8.17 11.17C7.8 11.54 7.52 11.97 7.31 12.45C7.1 12.94 7 13.46 7 14L7 34C7 34.54 7.1 35.06 7.31 35.55C7.52 36.03 7.8 36.46 8.17 36.83C8.54 37.2 8.97 37.48 9.45 37.69C9.94 37.9 10.46 38 11 38L37 38C37.54 38 38.06 37.9 38.55 37.69C39.03 37.48 39.46 37.2 39.83 36.83C40.2 36.46 40.48 36.03 40.69 35.55C40.9 35.06 41 34.54 41 34L41 32.5L29 32.5C27.92 32.5 26.88 32.29 25.89 31.87C24.93 31.46 24.08 30.89 23.34 30.16C22.61 29.42 22.04 28.57 21.63 27.61C21.21 26.62 21 25.58 21 24.5L21 23.5C21 22.42 21.21 21.38 21.63 20.39C22.04 19.43 22.61 18.58 23.34 17.84C24.08 17.11 24.93 16.54 25.89 16.13C26.88 15.71 27.92 15.5 29 15.5L41 15.5L41 14C41 13.46 40.9 12.94 40.69 12.45ZM27.45 19.81C26.97 20.02 26.54 20.3 26.17 20.67C25.8 21.04 25.52 21.47 25.31 21.95C25.1 22.44 25 22.96 25 23.5L25 24.5C25 25.04 25.1 25.56 25.31 26.05C25.52 26.53 25.8 26.96 26.17 27.33C26.54 27.7 26.97 27.98 27.45 28.19C27.94 28.4 28.46 28.5 29 28.5L41 28.5L41 19.5L29 19.5C28.46 19.5 27.94 19.6 27.45 19.81ZM30.5 26.5C31.88 26.5 33 25.38 33 24C33 22.62 31.88 21.5 30.5 21.5C29.12 21.5 28 22.62 28 24C28 25.38 29.12 26.5 30.5 26.5Z" fill-rule="evenodd"  fill="#000000" >
</path>
</svg>
