<svg xmlns="http://www.w3.org/2000/svg" xmlns:xlink="http://www.w3.org/1999/xlink" width="48" height="48" viewBox="0 0 48 48" fill="none">
<path d="M35.31 7.69C33.84 6.21 32.14 5.07 30.23 4.26C28.24 3.42 26.17 3 24 3C21.83 3 19.76 3.42 17.77 4.26C15.86 5.07 14.16 6.21 12.69 7.69C11.21 9.16 10.07 10.86 9.26 12.77C8.42 14.76 8 16.83 8 19L8 35L5 35C3.9 35 3 35.9 3 37C3 38.1 3.9 39 5 39L7.64 39L6.56 40.11C6.47 40.2 6.39 40.3 6.32 40.41C6.25 40.52 6.19 40.63 6.15 40.75C6.1 40.87 6.06 40.99 6.04 41.12C6.01 41.24 6 41.37 6 41.5C6 41.57 6 41.63 6.01 41.7C6.02 41.76 6.03 41.83 6.04 41.89C6.05 41.95 6.07 42.02 6.09 42.08C6.11 42.14 6.13 42.2 6.15 42.27C6.18 42.33 6.21 42.38 6.24 42.44C6.27 42.5 6.3 42.56 6.34 42.61C6.37 42.67 6.41 42.72 6.45 42.77C6.5 42.82 6.54 42.87 6.59 42.91C6.63 42.96 6.68 43 6.73 43.05C6.78 43.09 6.83 43.13 6.89 43.16C6.94 43.2 7 43.23 7.06 43.26C7.11 43.29 7.17 43.32 7.23 43.35C7.3 43.37 7.36 43.39 7.42 43.41C7.48 43.43 7.55 43.45 7.61 43.46C7.67 43.47 7.74 43.48 7.8 43.49C7.87 43.5 7.93 43.5 8 43.5C8.13 43.5 8.27 43.49 8.4 43.46C8.53 43.43 8.66 43.39 8.78 43.34C8.9 43.29 9.02 43.23 9.13 43.15C9.24 43.07 9.34 42.99 9.44 42.89L40.94 10.39C41.03 10.3 41.11 10.2 41.18 10.09C41.25 9.98 41.31 9.87 41.35 9.75C41.4 9.63 41.44 9.51 41.46 9.38C41.49 9.26 41.5 9.13 41.5 9C41.5 8.93 41.5 8.87 41.49 8.8C41.48 8.74 41.47 8.67 41.46 8.61C41.45 8.55 41.43 8.48 41.41 8.42C41.39 8.36 41.37 8.3 41.35 8.23C41.32 8.17 41.29 8.11 41.26 8.06C41.23 8 41.2 7.94 41.16 7.89C41.13 7.83 41.09 7.78 41.05 7.73C41 7.68 40.96 7.63 40.91 7.59C40.87 7.54 40.82 7.5 40.77 7.45C40.72 7.41 40.67 7.37 40.61 7.34C40.56 7.3 40.5 7.27 40.44 7.24C40.38 7.21 40.33 7.18 40.27 7.15C40.2 7.13 40.14 7.11 40.08 7.09C40.02 7.07 39.95 7.05 39.89 7.04C39.83 7.03 39.76 7.02 39.7 7.01C39.63 7 39.57 7 39.5 7C39.37 7 39.23 7.01 39.1 7.04C38.97 7.07 38.84 7.11 38.72 7.16C38.6 7.21 38.48 7.27 38.37 7.35C38.26 7.43 38.16 7.51 38.06 7.61L36.59 9.13C36.2 8.63 35.77 8.15 35.31 7.69ZM32.48 10.52C31.38 9.41 30.1 8.55 28.67 7.94C27.18 7.31 25.63 7 24 7C22.37 7 20.82 7.31 19.33 7.94C17.9 8.55 16.62 9.41 15.52 10.52C14.41 11.62 13.55 12.9 12.94 14.33C12.31 15.82 12 17.37 12 19L12 34.5L33.77 12.03C33.39 11.5 32.96 10.99 32.48 10.52ZM43 35L40 35L40 19C40 18.19 39.94 17.39 39.82 16.61L36 20.55L36 35L21.99 35L16.76 40.4C17.16 41.24 17.68 42 18.34 42.66C19.08 43.39 19.93 43.96 20.89 44.37C21.88 44.79 22.92 45 24 45C25.08 45 26.12 44.79 27.11 44.37C28.07 43.96 28.92 43.39 29.66 42.66C30.39 41.92 30.96 41.07 31.37 40.11C31.52 39.75 31.65 39.38 31.75 39L43 39C44.1 39 45 38.1 45 37C45 35.9 44.1 35 43 35ZM21.17 39.83C21.54 40.2 21.97 40.48 22.45 40.69C22.94 40.9 23.46 41 24 41C24.54 41 25.06 40.9 25.55 40.69C26.03 40.48 26.46 40.2 26.83 39.83C27.08 39.58 27.29 39.3 27.46 39L20.54 39C20.71 39.3 20.92 39.58 21.17 39.83Z" fill-rule="evenodd"  fill="#000000" >
</path>
</svg>
