<svg xmlns="http://www.w3.org/2000/svg" xmlns:xlink="http://www.w3.org/1999/xlink" width="48" height="48" viewBox="0 0 48 48" fill="none">
<path d="M8.32236 15.11L17.0024 21.51C17.0024 21.51 17.0024 21.51 17.0024 21.51L17.0024 21.51L17.0024 39.97C17.0024 40.69 17.1824 41.36 17.5524 41.99C17.9124 42.6 18.4024 43.09 19.0324 43.45C19.6624 43.8 20.3324 43.98 21.0524 43.96C21.7724 43.95 22.4424 43.77 23.0524 43.4L29.0624 39.8C29.6624 39.43 30.1324 38.95 30.4824 38.34C30.8224 37.73 31.0024 37.07 31.0024 36.37L31.0024 21.51C31.0024 21.51 31.0024 21.51 31.0024 21.5L39.6824 15.11C40.1924 14.74 40.6224 14.3 40.9924 13.79C41.3424 13.29 41.6124 12.75 41.8024 12.17C41.9824 11.58 42.0824 10.99 42.0824 10.37C42.0724 9.75 41.9724 9.13 41.7824 8.54C41.5824 7.95 41.3024 7.4 40.9324 6.9C40.5724 6.41 40.1424 5.98 39.6524 5.62C39.1524 5.26 38.6124 4.99 38.0324 4.79C37.4424 4.6 36.8324 4.5 36.2024 4.5L11.8024 4.5C11.1724 4.5 10.5624 4.6 9.96236 4.79C9.38236 4.99 8.84236 5.26 8.35236 5.62C7.85236 5.98 7.42236 6.41 7.06236 6.9C6.69236 7.4 6.41236 7.95 6.22236 8.55C6.02236 9.14 5.92236 9.75 5.92236 10.37C5.92236 10.99 6.01236 11.58 6.20236 12.17C6.38236 12.75 6.65236 13.29 7.01236 13.79C7.37236 14.3 7.81236 14.74 8.31236 15.11C8.31236 15.11 8.31236 15.11 8.32236 15.11ZM37.3024 8.86C36.9724 8.62 36.6024 8.5 36.2024 8.5L11.8024 8.5C11.3924 8.5 11.0324 8.62 10.7024 8.86C10.3724 9.09 10.1424 9.41 10.0224 9.79C9.89236 10.18 9.89236 10.57 10.0124 10.95C10.1324 11.34 10.3624 11.65 10.6824 11.89L10.6824 11.89L19.3724 18.29C19.8924 18.67 20.2924 19.15 20.5724 19.71C20.8624 20.28 21.0024 20.88 21.0024 21.51L21.0024 39.96L21.0024 39.96C21.0024 39.96 21.0024 39.96 21.0024 39.96L27.0024 36.37L27.0024 21.51C27.0024 20.88 27.1424 20.28 27.4224 19.71C27.7124 19.15 28.1124 18.67 28.6124 18.3L37.3124 11.89C37.6424 11.65 37.8624 11.34 37.9924 10.95C38.1124 10.57 38.1124 10.18 37.9824 9.8C37.8524 9.41 37.6224 9.09 37.3024 8.86Z" fill-rule="evenodd"  fill="#000000" >
</path>
</svg>
