<svg xmlns="http://www.w3.org/2000/svg" xmlns:xlink="http://www.w3.org/1999/xlink" width="48" height="48" viewBox="0 0 48 48" fill="none">
<path   fill-rule="evenodd"  fill="#000000"  d="M8.23004 20.8934C8.03004 21.5534 7.98004 22.2134 8.12004 22.8834C8.23004 23.5334 8.51004 24.1234 8.94004 24.6534C9.37004 25.1834 9.90004 25.5734 10.52 25.8334L19.82 29.6634L16.04 40.0534C15.89 40.4734 15.8 40.9134 15.79 41.3734C15.79 41.8134 15.86 42.2434 15.99 42.6634C16.14 43.0934 16.34 43.4834 16.6 43.8334C16.88 44.1934 17.2 44.5034 17.59 44.7534C17.96 45.0134 18.37 45.1934 18.81 45.2934C19.24 45.4134 19.69 45.4434 20.12 45.4134C20.56 45.3734 20.99 45.2634 21.39 45.0934C21.81 44.9034 22.18 44.6634 22.52 44.3534L38.31 29.6934C38.81 29.2234 39.17 28.6634 39.38 28.0234C39.6 27.3834 39.64 26.7234 39.52 26.0534C39.4 25.3734 39.12 24.7734 38.69 24.2434C38.27 23.7134 37.74 23.3234 37.11 23.0634L27.86 19.2534L31.88 8.18335C32.04 7.74335 32.12 7.29335 32.12 6.84335C32.12 6.39335 32.06 5.96335 31.91 5.54335C31.78 5.12335 31.57 4.73335 31.3 4.38335C31.02 4.02335 30.69 3.71335 30.31 3.47335C29.94 3.21335 29.53 3.03335 29.08 2.92335C28.65 2.82335 28.2 2.79335 27.76 2.83335C27.31 2.87335 26.89 2.98335 26.48 3.16335C26.07 3.35335 25.69 3.60335 25.36 3.91335L9.29004 19.2334C8.79004 19.7034 8.44004 20.2634 8.23004 20.8934ZM25.44 22.5834C25.07 22.4134 24.74 22.2034 24.46 21.9234C24.2 21.6534 23.99 21.3534 23.85 21.0034C23.69 20.6634 23.61 20.3034 23.59 19.9234C23.57 19.5334 23.64 19.1534 23.77 18.7834L28.12 6.81335L12.04 22.1334L12.05 22.1334L22.23 26.3334C22.58 26.4734 22.9 26.6834 23.18 26.9634C23.46 27.2234 23.66 27.5334 23.82 27.8834C23.98 28.2234 24.06 28.5834 24.08 28.9634C24.1 29.3634 24.04 29.7534 23.9 30.1234L19.8 41.4234L35.58 26.7634C35.58 26.7634 35.58 26.7634 35.58 26.7634L25.44 22.5834Z">
</path>
</svg>
