<svg xmlns="http://www.w3.org/2000/svg" xmlns:xlink="http://www.w3.org/1999/xlink" width="48" height="48" viewBox="0 0 48 48" fill="none">
<path d="M24.5919 11.59C24.4919 11.68 24.4119 11.78 24.3419 11.89C24.2719 12 24.2019 12.11 24.1519 12.23C24.1019 12.36 24.0719 12.48 24.0419 12.61C24.0119 12.74 24.0019 12.87 24.0019 13L24.0019 25.73C24.0019 26.04 24.0619 26.33 24.1819 26.61C24.2919 26.88 24.4619 27.13 24.6719 27.33C24.8719 27.54 25.1219 27.71 25.3919 27.82C25.6719 27.94 25.9619 28 26.2719 28L26.3219 28C26.7619 28 27.1719 27.91 27.5719 27.73L31.8219 25.83C31.8819 25.8 31.9419 25.77 31.9919 25.74C32.0519 25.7 32.1119 25.67 32.1619 25.63L32.3119 25.51C32.3619 25.47 32.4119 25.42 32.4519 25.37C32.5019 25.33 32.5419 25.28 32.5819 25.22C32.6219 25.17 32.6619 25.12 32.6919 25.06C32.7319 25.01 32.7619 24.95 32.7919 24.89C32.8219 24.83 32.8519 24.77 32.8719 24.71L32.9319 24.53C32.9519 24.46 32.9619 24.4 32.9719 24.33C32.9819 24.27 32.9919 24.2 33.0019 24.14L33.0019 23.94C33.0019 23.88 32.9919 23.81 32.9819 23.75C32.9819 23.68 32.9619 23.62 32.9519 23.55C32.9319 23.49 32.9219 23.43 32.9019 23.36C32.8819 23.3 32.8519 23.24 32.8319 23.18C32.7719 23.06 32.7119 22.95 32.6319 22.84C32.5519 22.73 32.4719 22.64 32.3719 22.55C32.2819 22.46 32.1719 22.38 32.0619 22.31C31.9519 22.24 31.8319 22.18 31.7119 22.13C31.5919 22.08 31.4619 22.05 31.3319 22.03C31.2019 22.01 31.0719 22 30.9419 22C30.8119 22 30.6819 22.02 30.5519 22.05C30.4319 22.08 30.3019 22.12 30.1819 22.17L28.0019 23.15L28.0019 13C28.0019 12.93 28.0019 12.87 27.9919 12.8C27.9819 12.74 27.9819 12.67 27.9619 12.61C27.9519 12.55 27.9319 12.48 27.9119 12.42C27.9019 12.36 27.8719 12.3 27.8519 12.23C27.8219 12.17 27.8019 12.12 27.7619 12.06C27.7319 12 27.7019 11.94 27.6619 11.89C27.6319 11.83 27.5919 11.78 27.5519 11.73C27.5119 11.68 27.4619 11.63 27.4219 11.59C27.3719 11.54 27.3219 11.5 27.2719 11.45C27.2219 11.41 27.1719 11.37 27.1119 11.34C27.0619 11.3 27.0019 11.27 26.9419 11.24C26.8919 11.21 26.8319 11.18 26.7719 11.15C26.7119 11.13 26.6419 11.11 26.5819 11.09C26.5219 11.07 26.4619 11.05 26.3919 11.04C26.3319 11.03 26.2619 11.02 26.2019 11.01C26.1319 11 26.0719 11 26.0019 11C25.8719 11 25.7419 11.01 25.6119 11.04C25.4819 11.06 25.3619 11.1 25.2419 11.15C25.1119 11.2 25.0019 11.26 24.8919 11.34C24.7819 11.41 24.6819 11.49 24.5919 11.59ZM14.8719 19.87ZM16.7619 22.67L16.8319 22.48C16.8519 22.42 16.8719 22.36 16.8819 22.3C16.9019 22.23 16.9119 22.17 16.9219 22.1C16.9219 22.03 16.9319 21.97 16.9319 21.9L16.9319 21.9C16.9319 21.84 16.9319 21.77 16.9219 21.71C16.9219 21.65 16.9119 21.58 16.9019 21.51C16.8919 21.45 16.8819 21.38 16.8619 21.32C16.8419 21.26 16.8219 21.2 16.8019 21.14C16.7719 21.07 16.7419 21.01 16.7119 20.95C16.6919 20.9 16.6519 20.84 16.6119 20.79C16.5819 20.73 16.5419 20.68 16.5019 20.63C16.4619 20.57 16.4219 20.53 16.3719 20.48C16.3219 20.43 16.2819 20.39 16.2219 20.34C16.1819 20.3 16.1319 20.26 16.0719 20.23C16.0219 20.19 15.9719 20.15 15.9119 20.12C15.8619 20.09 15.8019 20.06 15.7319 20.03C15.6719 20 15.6119 19.98 15.5519 19.96C15.4919 19.94 15.4219 19.92 15.3619 19.91C15.2919 19.89 15.2319 19.88 15.1719 19.88C15.1019 19.87 15.0319 19.87 14.9819 19.86C14.9419 19.86 14.9119 19.87 14.8719 19.87C14.8419 19.87 14.8119 19.87 14.7719 19.87C14.7119 19.87 14.6419 19.88 14.5819 19.9C14.5219 19.9 14.4519 19.92 14.3919 19.94L14.2019 20C14.1519 20.02 14.0919 20.05 14.0219 20.09C13.9719 20.11 13.9119 20.14 13.8519 20.18C13.8019 20.22 13.7419 20.26 13.6919 20.29C13.6419 20.33 13.5919 20.37 13.5419 20.42L11.0019 22.86C11.0219 20.87 11.4119 18.98 12.1819 17.16C12.9419 15.37 14.0119 13.78 15.3919 12.39C16.7819 11.01 18.3719 9.94 20.1619 9.18C22.0219 8.39 23.9619 8 26.0019 8C28.0419 8 29.9819 8.39 31.8419 9.18C33.6319 9.94 35.2219 11.01 36.6119 12.39C37.9919 13.78 39.0619 15.37 39.8219 17.16C40.6119 19.02 41.0019 20.96 41.0019 23C41.0019 25.04 40.6119 26.98 39.8219 28.84C39.0619 30.63 37.9919 32.22 36.6119 33.61C35.2219 34.99 33.6319 36.06 31.8419 36.82C29.9819 37.61 28.0419 38 26.0019 38C24.4319 38 22.9019 37.76 21.4219 37.29C19.9819 36.83 18.6519 36.16 17.4119 35.29L17.4019 35.3C17.4119 35.3 17.4119 35.3 17.4119 35.3L16.4319 36.69L17.4019 35.3C17.2919 35.22 17.1819 35.16 17.0619 35.1C16.9419 35.05 16.8219 35.01 16.6919 34.98C16.5619 34.95 16.4319 34.94 16.3019 34.93C16.1719 34.93 16.0419 34.94 15.9119 34.96C15.7819 34.99 15.6619 35.02 15.5319 35.07C15.4119 35.12 15.2919 35.18 15.1819 35.25C15.0719 35.32 14.9719 35.4 14.8819 35.49C14.7819 35.58 14.7019 35.68 14.6219 35.79C14.5419 35.89 14.4819 36.01 14.4319 36.13C14.3719 36.25 14.3319 36.37 14.3119 36.5C14.2819 36.63 14.2619 36.76 14.2619 36.89C14.2619 37.02 14.2719 37.15 14.2919 37.28C14.3119 37.41 14.3519 37.54 14.3919 37.66C14.4419 37.78 14.5019 37.9 14.5719 38.01C14.6419 38.12 14.7219 38.22 14.8119 38.32C14.9019 38.41 15.0019 38.5 15.1119 38.57C16.6819 39.67 18.3819 40.51 20.2019 41.1C22.0719 41.7 24.0119 42 26.0019 42C28.5819 42 31.0419 41.5 33.4019 40.51C35.6719 39.54 37.6819 38.19 39.4419 36.44C41.1919 34.68 42.5419 32.67 43.5119 30.4C44.5019 28.04 45.0019 25.58 45.0019 23C45.0019 20.42 44.5019 17.96 43.5119 15.6C42.5419 13.33 41.1919 11.32 39.4419 9.56C37.6819 7.81 35.6719 6.46 33.4019 5.49C31.0419 4.5 28.5819 4 26.0019 4C23.4219 4 20.9619 4.5 18.6019 5.49C16.3319 6.46 14.3219 7.81 12.5619 9.56C10.8119 11.32 9.46189 13.33 8.49189 15.6C7.54189 17.87 7.04189 20.23 7.00189 22.7L4.64189 20.24C4.59189 20.19 4.55189 20.14 4.49189 20.1C4.44189 20.06 4.39189 20.02 4.34189 19.98C4.28189 19.94 4.22189 19.91 4.17189 19.88C4.11189 19.84 4.05189 19.81 3.99189 19.78L3.80189 19.72C3.75189 19.7 3.68189 19.68 3.62189 19.67C3.56189 19.65 3.49189 19.64 3.43189 19.63C3.36189 19.63 3.30189 19.62 3.23189 19.62C3.17189 19.62 3.10189 19.62 3.04189 19.62C2.97189 19.63 2.91189 19.63 2.84189 19.65C2.78189 19.66 2.71189 19.67 2.64189 19.69C2.59189 19.71 2.52189 19.73 2.47189 19.75C2.40189 19.78 2.34189 19.81 2.28189 19.83C2.22189 19.86 2.17189 19.9 2.12189 19.94C2.06189 19.96 2.00189 20 1.96189 20.05C1.90189 20.09 1.86189 20.13 1.81189 20.18C1.76189 20.23 1.71189 20.27 1.67189 20.32C1.63189 20.36 1.58189 20.42 1.55189 20.48C1.52189 20.52 1.47189 20.58 1.44189 20.64C1.41189 20.69 1.39189 20.75 1.36189 20.82C1.33189 20.87 1.30189 20.94 1.29189 20.99C1.27189 21.06 1.25189 21.13 1.23189 21.18C1.22189 21.25 1.21189 21.32 1.20189 21.38C1.19189 21.44 1.19189 21.52 1.19189 21.57C1.19189 21.61 1.19189 21.64 1.19189 21.67C1.19189 21.71 1.19189 21.74 1.19189 21.78C1.20189 21.84 1.21189 21.9 1.23189 21.97C1.23189 22.03 1.25189 22.1 1.26189 22.15L1.32189 22.35C1.35189 22.4 1.38189 22.46 1.41189 22.52C1.44189 22.58 1.47189 22.64 1.51189 22.7C1.54189 22.75 1.58189 22.8 1.62189 22.85C1.66189 22.91 1.70189 22.95 1.75189 23L6.11189 27.55C6.48189 27.94 6.92189 28.24 7.42189 28.46C7.90189 28.66 8.40189 28.77 8.91189 28.78C9.43189 28.79 9.93189 28.71 10.4219 28.52C10.9219 28.32 11.3819 28.04 11.7619 27.67L16.3119 23.31C16.3619 23.26 16.4119 23.22 16.4519 23.16C16.4919 23.11 16.5319 23.06 16.5719 23.01C16.6119 22.95 16.6419 22.9 16.6719 22.84C16.7019 22.78 16.7319 22.72 16.7619 22.67ZM16.4319 36.69L17.4119 35.3C17.4119 35.3 17.4119 35.3 17.4019 35.3L16.4319 36.69ZM25.8919 24.09C25.9019 24.09 25.9119 24.09 25.9119 24.08L25.8919 24.09Z" fill-rule="evenodd"  fill="#000000" >
</path>
</svg>
