<svg xmlns="http://www.w3.org/2000/svg" xmlns:xlink="http://www.w3.org/1999/xlink" width="48" height="48" viewBox="0 0 48 48" fill="none">
<path d="M16.45 7.59998C17.69 7.59998 18.7 6.58998 18.7 5.34998C18.7 4.10998 17.69 3.09998 16.45 3.09998C15.21 3.09998 14.2 4.10998 14.2 5.34998C14.2 6.58998 15.21 7.59998 16.45 7.59998ZM5.8 9.20998C5.74 9.21998 5.67 9.22998 5.61 9.23997C5.55 9.24998 5.48 9.26998 5.42 9.28998C5.36 9.30998 5.3 9.32998 5.23 9.34998C5.17 9.37998 5.11 9.40998 5.06 9.43998C5 9.46998 4.94 9.49998 4.89 9.53998C4.83 9.56997 4.78 9.60998 4.73 9.64998C4.68 9.69998 4.63 9.73997 4.59 9.78998C4.54 9.82998 4.5 9.87998 4.45 9.92998C4.41 9.97998 4.37 10.03 4.34 10.09C4.3 10.14 4.27 10.2 4.24 10.26C4.21 10.31 4.18 10.37 4.15 10.43C4.13 10.5 4.11 10.56 4.09 10.62C4.07 10.68 4.05 10.75 4.04 10.81C4.03 10.87 4.02 10.94 4.01 11C4 11.07 4 11.13 4 11.2C4 11.27 4 11.33 4.01 11.4C4.02 11.46 4.03 11.53 4.04 11.59C4.05 11.65 4.07 11.72 4.09 11.78C4.11 11.84 4.13 11.9 4.15 11.97C4.18 12.03 4.21 12.09 4.24 12.14C4.27 12.2 4.3 12.26 4.34 12.31C4.37 12.37 4.41 12.42 4.45 12.47C4.5 12.52 4.54 12.57 4.59 12.61C4.63 12.66 4.68 12.7 4.73 12.75C4.78 12.79 4.83 12.83 4.89 12.86C4.94 12.9 5 12.93 5.06 12.96C5.11 12.99 5.17 13.02 5.23 13.05C5.3 13.07 5.36 13.09 5.42 13.11C5.48 13.13 5.55 13.15 5.61 13.16C5.67 13.17 5.74 13.18 5.8 13.19C5.87 13.2 5.93 13.2 6 13.2L21.57 13.2C21.37 13.77 21.16 14.35 20.92 14.93C20.34 16.36 19.67 17.73 18.91 19.04C18.12 20.4 17.25 21.67 16.31 22.84C15.51 21.75 14.65 20.42 13.75 18.88C13.27 18.06 12.81 17.23 12.36 16.38C12.14 15.96 11.97 15.63 11.84 15.38L11.84 15.37C11.8 15.29 11.76 15.21 11.7 15.13C11.65 15.06 11.59 14.99 11.53 14.92C11.47 14.85 11.4 14.78 11.33 14.72C11.26 14.66 11.18 14.61 11.11 14.56C11.03 14.51 10.95 14.47 10.86 14.43C10.78 14.39 10.69 14.36 10.6 14.34C10.51 14.31 10.42 14.29 10.33 14.28C10.24 14.27 10.14 14.26 10.05 14.26C9.98 14.26 9.92 14.26 9.85 14.27C9.79 14.28 9.72 14.29 9.66 14.3C9.6 14.31 9.53 14.33 9.47 14.35C9.41 14.37 9.35 14.39 9.28 14.41C9.22 14.44 9.16 14.47 9.11 14.5C9.05 14.53 8.99 14.56 8.94 14.6C8.88 14.63 8.83 14.67 8.78 14.71C8.73 14.76 8.68 14.8 8.64 14.85C8.59 14.89 8.55 14.94 8.5 14.99C8.46 15.04 8.42 15.09 8.39 15.15C8.35 15.2 8.32 15.26 8.29 15.32C8.26 15.37 8.23 15.43 8.2 15.49C8.18 15.56 8.16 15.62 8.14 15.68C8.12 15.74 8.1 15.81 8.09 15.87C8.08 15.93 8.07 16 8.06 16.06C8.05 16.13 8.05 16.19 8.05 16.26C8.05 16.57 8.12 16.87 8.26 17.15C8.4 17.43 8.59 17.8 8.83 18.25C9.3 19.15 9.79 20.03 10.3 20.9C11.43 22.84 12.52 24.48 13.54 25.82C13.04 26.29 12.53 26.74 12 27.17C10.93 28.03 9.83 28.79 8.7 29.44C7.91 29.9 7.14 30.29 6.4 30.59C6.06 30.74 5.8 30.83 5.63 30.88C5.53 30.91 5.43 30.95 5.33 31C5.24 31.04 5.15 31.1 5.06 31.16C4.97 31.22 4.89 31.29 4.81 31.36C4.73 31.44 4.66 31.52 4.6 31.6C4.53 31.69 4.48 31.78 4.43 31.87C4.38 31.97 4.34 32.07 4.3 32.17C4.27 32.27 4.24 32.37 4.23 32.48C4.21 32.59 4.2 32.69 4.2 32.8C4.2 32.87 4.2 32.93 4.21 33C4.22 33.06 4.23 33.13 4.24 33.19C4.25 33.25 4.27 33.32 4.29 33.38C4.31 33.44 4.33 33.5 4.35 33.57C4.38 33.63 4.41 33.69 4.44 33.74C4.47 33.8 4.5 33.86 4.54 33.91C4.57 33.97 4.61 34.02 4.65 34.07C4.7 34.12 4.74 34.17 4.79 34.21C4.83 34.26 4.88 34.3 4.93 34.35C4.98 34.39 5.03 34.43 5.09 34.46C5.14 34.5 5.2 34.53 5.26 34.56C5.31 34.59 5.37 34.62 5.43 34.65C5.5 34.67 5.56 34.69 5.62 34.71C5.68 34.73 5.75 34.75 5.81 34.76C5.87 34.77 5.94 34.78 6 34.79C6.07 34.8 6.13 34.8 6.2 34.8C6.39 34.8 6.58 34.77 6.77 34.72C7.07 34.63 7.46 34.48 7.94 34.29C8.84 33.91 9.76 33.45 10.7 32.91C12.01 32.15 13.28 31.27 14.51 30.28C15.09 29.81 15.66 29.32 16.21 28.8C16.56 29.14 16.93 29.46 17.3 29.77C18.14 30.46 19.05 31.1 20.04 31.67C20.99 32.21 22.04 32.72 23.21 33.21C23.79 33.45 24.42 33.69 25.1 33.94L22.32 41.84C22.24 42.07 22.2 42.3 22.2 42.54C22.2 42.6 22.2 42.67 22.21 42.74C22.22 42.8 22.23 42.86 22.24 42.93C22.25 42.99 22.27 43.06 22.29 43.12L22.35 43.3L22.44 43.48C22.47 43.54 22.5 43.6 22.54 43.65C22.57 43.7 22.61 43.76 22.65 43.81C22.7 43.86 22.74 43.91 22.79 43.95C22.83 44 22.88 44.04 22.93 44.09C22.98 44.13 23.03 44.17 23.09 44.2C23.14 44.24 23.2 44.27 23.26 44.3C23.31 44.33 23.37 44.36 23.43 44.39C23.5 44.41 23.56 44.43 23.62 44.45C23.68 44.47 23.75 44.49 23.81 44.5C23.87 44.51 23.94 44.52 24 44.53C24.07 44.54 24.13 44.54 24.2 44.54C24.3 44.54 24.41 44.53 24.51 44.52C24.61 44.5 24.71 44.48 24.81 44.44C24.9 44.41 25 44.37 25.09 44.33C25.18 44.28 25.27 44.23 25.36 44.17C25.44 44.11 25.52 44.05 25.59 43.97C25.67 43.9 25.74 43.83 25.8 43.74C25.86 43.66 25.91 43.57 25.96 43.48C26.01 43.39 26.05 43.3 26.09 43.2L28.93 35.12C30.82 35.56 32.95 35.87 35.33 36.04C36.27 36.11 37.19 36.15 38.11 36.16L40.47 43.08C40.5 43.18 40.54 43.28 40.58 43.38C40.63 43.48 40.68 43.57 40.74 43.66C40.8 43.75 40.87 43.84 40.95 43.92C41.02 44 41.1 44.07 41.19 44.13C41.27 44.2 41.37 44.26 41.46 44.31C41.56 44.36 41.66 44.4 41.76 44.43C41.86 44.47 41.97 44.5 42.07 44.51C42.18 44.53 42.29 44.54 42.4 44.54C42.46 44.54 42.53 44.54 42.59 44.53C42.66 44.52 42.72 44.51 42.79 44.5C42.85 44.49 42.91 44.47 42.98 44.45L43.16 44.39L43.34 44.3C43.4 44.27 43.45 44.24 43.51 44.2C43.56 44.17 43.61 44.13 43.67 44.09L43.81 43.95C43.86 43.91 43.9 43.86 43.94 43.81C43.98 43.76 44.02 43.7 44.06 43.65C44.1 43.6 44.13 43.54 44.16 43.48C44.19 43.42 44.22 43.36 44.24 43.3C44.27 43.24 44.29 43.18 44.31 43.12C44.33 43.06 44.35 42.99 44.36 42.93C44.37 42.86 44.38 42.8 44.39 42.74C44.39 42.67 44.4 42.6 44.4 42.54C44.4 42.32 44.36 42.1 44.29 41.89L41.44 33.56L37.64 22.03C37.47 21.54 37.21 21.1 36.87 20.72C36.57 20.39 36.21 20.11 35.79 19.89C35.08 19.5 34.29 19.31 33.43 19.31C32.55 19.31 31.76 19.51 31.06 19.9C30.64 20.12 30.28 20.41 29.99 20.75C29.65 21.12 29.41 21.55 29.25 22.02L26.42 30.16C25.82 29.94 25.26 29.73 24.75 29.52C23.74 29.1 22.83 28.66 22.04 28.2C21.24 27.74 20.51 27.23 19.83 26.68C19.54 26.44 19.25 26.18 18.96 25.91C20.21 24.42 21.36 22.8 22.37 21.04C23.22 19.57 23.97 18.04 24.62 16.44C25.07 15.34 25.45 14.26 25.76 13.2L27 13.2C27.07 13.2 27.13 13.2 27.2 13.19C27.26 13.18 27.33 13.17 27.39 13.16C27.45 13.15 27.52 13.13 27.58 13.11C27.64 13.09 27.7 13.07 27.77 13.05C27.83 13.02 27.89 12.99 27.94 12.96C28 12.93 28.06 12.9 28.11 12.86C28.17 12.83 28.22 12.79 28.27 12.75C28.32 12.7 28.37 12.66 28.41 12.61C28.46 12.57 28.5 12.52 28.55 12.47C28.59 12.42 28.63 12.37 28.66 12.31C28.7 12.26 28.73 12.2 28.76 12.14C28.79 12.09 28.82 12.03 28.85 11.97C28.87 11.9 28.89 11.84 28.91 11.78C28.93 11.72 28.95 11.65 28.96 11.59C28.97 11.53 28.98 11.46 28.99 11.4C29 11.33 29 11.27 29 11.2C29 11.13 29 11.07 28.99 11C28.98 10.94 28.97 10.87 28.96 10.81C28.95 10.75 28.93 10.68 28.91 10.62C28.89 10.56 28.87 10.5 28.85 10.43C28.82 10.37 28.79 10.31 28.76 10.26C28.73 10.2 28.7 10.14 28.66 10.09C28.63 10.03 28.59 9.97998 28.55 9.92998C28.5 9.87998 28.46 9.82998 28.41 9.78998C28.37 9.73997 28.32 9.69998 28.27 9.64998C28.22 9.60998 28.17 9.56997 28.11 9.53998C28.06 9.49998 28 9.46998 27.94 9.43998C27.89 9.40998 27.83 9.37998 27.77 9.34998C27.7 9.32998 27.64 9.30998 27.58 9.28998C27.52 9.26998 27.45 9.24998 27.39 9.23997C27.33 9.22998 27.26 9.21998 27.2 9.20998C27.13 9.19998 27.07 9.19998 27 9.19998L6 9.19998C5.93 9.19998 5.87 9.19998 5.8 9.20998ZM35.61 32.05C36 32.08 36.38 32.1 36.76 32.12L33.88 23.4C33.76 23.34 33.61 23.31 33.43 23.31C33.26 23.31 33.12 23.33 33.02 23.38L30.25 31.32C31.83 31.66 33.62 31.9 35.61 32.05Z" fill-rule="evenodd"  fill="#000000" >
</path>
</svg>
