<svg xmlns="http://www.w3.org/2000/svg" xmlns:xlink="http://www.w3.org/1999/xlink" width="48" height="48" viewBox="0 0 48 48" fill="none">
<path d="M39.85 13.72C39.07 11.67 37.95 9.85 36.5 8.28C34.97 6.62 33.18 5.34 31.12 4.44C28.93 3.48 26.56 3 24 3C21.44 3 19.08 3.44 16.93 4.32C14.84 5.18 13.04 6.4 11.52 8C10.05 9.55 8.92 11.37 8.15 13.45C7.38 15.49 7 17.68 7 20C7 22.5 7.47 25.06 8.42 27.69C9.22 29.92 10.35 32.16 11.81 34.44C13 36.3 14.4 38.14 15.99 39.98C17.2 41.37 18.49 42.72 19.86 44.02C20.41 44.55 21.05 44.96 21.77 45.23C22.46 45.5 23.18 45.63 23.93 45.62C24.67 45.6 25.39 45.45 26.07 45.16C26.78 44.86 27.41 44.43 27.95 43.87C29.31 42.43 30.6 40.97 31.81 39.49C33.42 37.52 34.83 35.59 36.04 33.71C39.35 28.57 41 23.99 41 20C41 17.83 40.62 15.74 39.85 13.72ZM29.51 8.1C27.84 7.37 26 7 24 7C21.96 7 20.11 7.34 18.44 8.02C16.89 8.66 15.55 9.57 14.42 10.76C13.32 11.91 12.48 13.28 11.89 14.85C11.3 16.44 11 18.16 11 20C11 22.03 11.4 24.14 12.19 26.34C12.88 28.28 13.88 30.26 15.18 32.28C16.27 33.97 17.54 35.66 19.01 37.35C20.14 38.65 21.34 39.91 22.62 41.12C22.97 41.46 23.38 41.62 23.86 41.62C24.34 41.61 24.74 41.43 25.07 41.09C26.35 39.74 27.56 38.36 28.71 36.95C30.23 35.1 31.55 33.3 32.67 31.55C34.02 29.45 35.06 27.47 35.79 25.62C36.6 23.55 37 21.68 37 20C37 18.32 36.7 16.7 36.11 15.14C35.51 13.57 34.66 12.19 33.56 10.99C32.41 9.74 31.06 8.78 29.51 8.1ZM20.89 11.63C19.93 12.04 19.08 12.61 18.34 13.34C17.61 14.08 17.04 14.93 16.63 15.89C16.21 16.88 16 17.92 16 19C16 20.08 16.21 21.12 16.63 22.11C17.04 23.07 17.61 23.92 18.34 24.66C19.08 25.39 19.93 25.96 20.89 26.37C21.88 26.79 22.92 27 24 27C25.08 27 26.12 26.79 27.11 26.37C28.07 25.96 28.92 25.39 29.66 24.66C30.39 23.92 30.96 23.07 31.37 22.11C31.79 21.12 32 20.08 32 19C32 17.92 31.79 16.88 31.37 15.89C30.96 14.93 30.39 14.08 29.66 13.34C28.92 12.61 28.07 12.04 27.11 11.63C26.12 11.21 25.08 11 24 11C22.92 11 21.88 11.21 20.89 11.63ZM20.31 17.45C20.1 17.94 20 18.46 20 19C20 19.54 20.1 20.06 20.31 20.55C20.52 21.03 20.8 21.46 21.17 21.83C21.54 22.2 21.97 22.48 22.45 22.69C22.94 22.9 23.46 23 24 23C24.54 23 25.06 22.9 25.55 22.69C26.03 22.48 26.46 22.2 26.83 21.83C27.2 21.46 27.48 21.03 27.69 20.55C27.9 20.06 28 19.54 28 19C28 18.46 27.9 17.94 27.69 17.45C27.48 16.97 27.2 16.54 26.83 16.17C26.46 15.8 26.03 15.52 25.55 15.31C25.06 15.1 24.54 15 24 15C23.46 15 22.94 15.1 22.45 15.31C21.97 15.52 21.54 15.8 21.17 16.17C20.8 16.54 20.52 16.97 20.31 17.45Z" fill-rule="evenodd"  fill="#000000" >
</path>
</svg>
