<svg xmlns="http://www.w3.org/2000/svg" xmlns:xlink="http://www.w3.org/1999/xlink" width="48" height="48" viewBox="0 0 48 48" fill="none">
<path d="M41 11C42.1 11 43 10.1 43 9C43 7.9 42.1 7 41 7L8 7C6.9 7 6 7.9 6 9C6 10.1 6.9 11 8 11L41 11ZM8 25.85L41 25.85C42.1 25.85 43 24.95 43 23.85C43 22.75 42.1 21.85 41 21.85L8 21.85C6.9 21.85 6 22.75 6 23.85C6 24.95 6.9 25.85 8 25.85ZM8 40.7L41 40.7C42.1 40.7 43 39.8 43 38.7C43 37.6 42.1 36.7 41 36.7L8 36.7C6.9 36.7 6 37.6 6 38.7C6 39.8 6.9 40.7 8 40.7Z" fill-rule="evenodd"  fill="#000000" >
</path>
</svg>
