<svg xmlns="http://www.w3.org/2000/svg" xmlns:xlink="http://www.w3.org/1999/xlink" width="48" height="48" viewBox="0 0 48 48" fill="none">
<path d="M22.46 2.11865C15.88 2.05865 10.73 4.20865 7.03 8.57865C3.68 12.5287 2 17.6787 2 23.9987C2 36.1487 11.85 45.9987 24 45.9987C29.09 45.9987 33.67 44.2687 37.71 40.8087C41.61 37.4887 44.16 33.3287 45.35 28.3487C45.48 27.8487 45.6 27.1687 45.7 26.2987C46.13 23.4887 42.73 21.7287 40.69 23.7487C40.24 24.1987 39.89 24.5287 39.64 24.7187C37.23 26.5387 34.44 27.4487 31.27 27.4487C25.35 27.4487 20.55 22.6487 20.55 16.7287C20.55 13.8187 21.91 10.8087 24.62 7.68865C26.65 5.74865 25.4 2.27865 22.55 2.11865L22.5 2.11865L22.46 2.11865ZM10.08 11.1687C7.36 14.3687 6 18.6487 6 23.9987C6 33.9387 14.06 41.9987 24 41.9987C28.11 41.9987 31.82 40.5887 35.12 37.7687C38.05 35.2687 40.07 32.1887 41.16 28.5387C38.23 30.4787 34.93 31.4487 31.27 31.4487C23.14 31.4487 16.55 24.8587 16.55 16.7287C16.55 13.1887 17.93 9.66865 20.69 6.16865C16.19 6.45865 12.65 8.12865 10.08 11.1687Z" fill-rule="evenodd"  fill="#000000" >
</path>
</svg>
