<svg xmlns="http://www.w3.org/2000/svg" xmlns:xlink="http://www.w3.org/1999/xlink" width="48" height="48" viewBox="0 0 48 48" fill="none">
<path d="M10 3L38 3C42.4183 3 46 6.58172 46 11L46 37C46 41.4183 42.4183 45 38 45L10 45C5.58172 45 2 41.4183 2 37L2 11C2 6.58172 5.58172 3 10 3ZM10 7L23 7L23 41L10 41C7.79086 41 6 39.2091 6 37L6 11C6 8.79086 7.79086 7 10 7ZM38 41L27 41L27 7L38 7C40.2091 7 42 8.79086 42 11L42 37C42 39.2091 40.2091 41 38 41ZM30 12C30 13.1046 30.8954 14 32 14L37 14C38.1046 14 39 13.1046 39 12C39 10.8954 38.1046 10 37 10L32 10C30.8954 10 30 10.8954 30 12ZM32 18C32 19.1046 32.8954 20 34 20L37 20C38.1046 20 39 19.1046 39 18C39 16.8954 38.1046 16 37 16L34 16C32.8954 16 32 16.8954 32 18Z" fill-rule="evenodd"  fill="#000000" >
</path>
</svg>
