<svg xmlns="http://www.w3.org/2000/svg" xmlns:xlink="http://www.w3.org/1999/xlink" width="48" height="48" viewBox="0 0 48 48" fill="none">
<path d="M38 3L10 3C5.58172 3 2 6.58172 2 11L2 37C2 41.4183 5.58172 45 10 45L38 45C42.4183 45 46 41.4183 46 37L46 11C46 6.58172 42.4183 3 38 3ZM6 11C6 8.79086 7.79086 7 10 7L38 7C40.2091 7 42 8.79086 42 11L42 27L6 27L6 11ZM6 31L6 37C6 39.2091 7.79086 41 10 41L38 41C40.2091 41 42 39.2091 42 37L42 31L6 31ZM11 38C9.89543 38 9 37.1046 9 36C9 34.8954 9.89543 34 11 34L20 34C21.1046 34 22 34.8954 22 36C22 37.1046 21.1046 38 20 38L11 38ZM29.5 36C29.5 37.1046 28.6046 38 27.5 38L26 38C24.8954 38 24 37.1046 24 36C24 34.8954 24.8954 34 26 34L27.5 34C28.6046 34 29.5 34.8954 29.5 36ZM33.5 38C32.3954 38 31.5 37.1046 31.5 36C31.5 34.8954 32.3954 34 33.5 34L37 34C38.1046 34 39 34.8954 39 36C39 37.1046 38.1046 38 37 38L33.5 38Z" fill-rule="evenodd"  fill="#000000" >
</path>
</svg>
