<svg xmlns="http://www.w3.org/2000/svg" xmlns:xlink="http://www.w3.org/1999/xlink" width="48" height="48" viewBox="0 0 48 48" fill="none">
<path d="M43.4637 41.8938C43.4937 41.7638 43.5037 41.6338 43.5037 41.5038C43.5037 41.3738 43.4937 41.2438 43.4637 41.1138C43.4437 40.9838 43.4037 40.8638 43.3537 40.7438C43.3037 40.6238 43.2437 40.5038 43.1737 40.3938C43.0937 40.2838 43.0137 40.1838 42.9237 40.0938L40.0937 42.9238C40.1837 43.0138 40.2837 43.0938 40.3937 43.1738C40.5037 43.2438 40.6237 43.3038 40.7437 43.3538C40.8637 43.4038 40.9837 43.4438 41.1137 43.4638C41.2437 43.4938 41.3737 43.5038 41.5037 43.5038C41.6337 43.5038 41.7637 43.4938 41.8937 43.4638C42.0237 43.4438 42.1537 43.4038 42.2737 43.3538C42.3937 43.3038 42.5037 43.2438 42.6137 43.1738C42.7237 43.0938 42.8237 43.0138 42.9237 42.9238C43.0137 42.8238 43.0937 42.7238 43.1737 42.6138C43.2437 42.5038 43.3037 42.3938 43.3537 42.2738C43.4037 42.1538 43.4437 42.0238 43.4637 41.8938ZM33.3137 13.6538C32.5536 11.8638 31.4837 10.2738 30.1037 8.88377C28.7137 7.50377 27.1237 6.43377 25.3337 5.67377C23.4737 4.88377 21.5237 4.49377 19.4937 4.49377C17.4637 4.49377 15.5137 4.88377 13.6537 5.67377C11.8637 6.43377 10.2737 7.50377 8.88365 8.88377C7.50365 10.2738 6.43365 11.8638 5.67365 13.6538C4.88365 15.5138 4.49365 17.4638 4.49365 19.4938C4.49365 21.5238 4.88365 23.4738 5.67365 25.3338C6.43365 27.1238 7.50365 28.7138 8.88365 30.1038C10.2737 31.4838 11.8637 32.5538 13.6537 33.3138C15.5137 34.1038 17.4637 34.4938 19.4937 34.4938C21.5237 34.4938 23.4737 34.1038 25.3337 33.3138C26.5037 32.8138 27.5937 32.1838 28.5937 31.4138L40.0937 42.9138L42.9137 40.0938L31.4137 28.5938C32.1837 27.5938 32.8137 26.5038 33.3137 25.3338C34.1037 23.4738 34.4937 21.5238 34.4937 19.4938C34.4937 17.4638 34.1037 15.5138 33.3137 13.6538ZM29.6337 15.2138C29.0737 13.8938 28.2837 12.7338 27.2737 11.7138C26.2537 10.7038 25.0937 9.91377 23.7737 9.35378C22.4137 8.78377 20.9837 8.49377 19.4937 8.49377C18.0037 8.49377 16.5737 8.78377 15.2137 9.35378C13.8937 9.91377 12.7337 10.7038 11.7137 11.7138C10.7037 12.7338 9.91365 13.8938 9.35365 15.2138C8.78365 16.5738 8.49365 18.0038 8.49365 19.4938C8.49365 20.9838 8.78365 22.4138 9.35365 23.7738C9.91365 25.0938 10.7037 26.2538 11.7137 27.2738C12.7337 28.2838 13.8937 29.0738 15.2137 29.6338C16.5737 30.2038 18.0037 30.4938 19.4937 30.4938C20.9837 30.4938 22.4137 30.2038 23.7737 29.6338C25.0937 29.0738 26.2537 28.2838 27.2737 27.2738C28.2837 26.2538 29.0737 25.0938 29.6337 23.7738C30.2037 22.4138 30.4937 20.9838 30.4937 19.4938C30.4937 18.0038 30.2037 16.5738 29.6337 15.2138Z" fill-rule="evenodd"  fill="#000000" >
</path>
</svg>
