<svg xmlns="http://www.w3.org/2000/svg" xmlns:xlink="http://www.w3.org/1999/xlink" width="48" height="48" viewBox="0 0 48 48" fill="none">
<path   fill-rule="evenodd"  fill="#000000"  d="M34.16 33.8513L43.06 20.6413C44.56 18.4213 44.04 15.4113 41.88 13.8213L29.71 4.82132C27.56 3.24132 24.57 5.04132 24.96 7.67132L25.79 13.3013C18.26 17.6713 13.49 24.5613 11.48 33.9813C11.14 35.3013 11.55 36.3313 12.71 37.0713C13.87 37.8213 14.99 37.7513 16.07 36.8813L16.11 36.8413L16.15 36.8113C21.16 32.2513 25.07 29.3213 27.86 28.0413L28.7 32.7213C29.15 35.3913 32.66 36.1313 34.16 33.8513ZM39.51 17.0413L29.27 9.47132L30.16 15.4913L28.9 16.1513C22.75 19.3713 18.56 24.4213 16.32 31.3213C21.78 26.6713 26.02 24.0413 29.03 23.4513L31.03 23.0513L31.39 25.0613L32.2 29.5913L39.74 18.4013C40.05 17.9513 39.94 17.3613 39.51 17.0413ZM4 14.0013L4 36.0013C4 40.4213 7.58 44.0013 12 44.0013L34 44.0013C35.1 44.0013 36 43.1013 36 42.0013C36 40.9013 35.1 40.0013 34 40.0013L12 40.0013C9.79 40.0013 8 38.2113 8 36.0013L8 14.0013C8 12.9013 7.1 12.0013 6 12.0013C4.9 12.0013 4 12.9013 4 14.0013Z">
</path>
</svg>
