<svg xmlns="http://www.w3.org/2000/svg" xmlns:xlink="http://www.w3.org/1999/xlink" width="48" height="48" viewBox="0 0 48 48" fill="none">
<path d="M18.39 4.04C18.26 4.01 18.13 4 18 4C17.87 4 17.74 4.01 17.61 4.04C17.48 4.06 17.36 4.1 17.23 4.15C17.11 4.2 17 4.26 16.89 4.34C16.78 4.41 16.68 4.49 16.58 4.59C16.49 4.68 16.41 4.78 16.34 4.89C16.26 5 16.2 5.11 16.15 5.23C16.1 5.36 16.06 5.48 16.04 5.61C16.01 5.74 16 5.87 16 6L16 40.01L11.3 35.98L11.15 35.86C11.09 35.82 11.04 35.79 10.98 35.76C10.92 35.72 10.86 35.7 10.8 35.67C10.74 35.64 10.68 35.62 10.62 35.6C10.56 35.58 10.5 35.56 10.43 35.55C10.37 35.53 10.3 35.52 10.24 35.51C10.17 35.51 10.11 35.5 10.04 35.5C9.98 35.5 9.91 35.5 9.85 35.51C9.78 35.51 9.72 35.52 9.65 35.53C9.59 35.54 9.52 35.56 9.46 35.57C9.4 35.59 9.34 35.61 9.27 35.64C9.21 35.66 9.15 35.69 9.1 35.72L8.92 35.81C8.87 35.85 8.82 35.89 8.76 35.93C8.71 35.97 8.66 36.01 8.62 36.06C8.57 36.1 8.52 36.15 8.48 36.2L8.36 36.35C8.32 36.41 8.29 36.46 8.26 36.52C8.22 36.58 8.2 36.64 8.17 36.7C8.14 36.76 8.12 36.82 8.1 36.88C8.08 36.94 8.06 37 8.05 37.07C8.03 37.13 8.02 37.2 8.01 37.26C8.01 37.33 8 37.39 8 37.46C8 37.52 8 37.59 8.01 37.65C8.01 37.72 8.02 37.78 8.03 37.85C8.04 37.91 8.06 37.98 8.07 38.04C8.09 38.1 8.11 38.16 8.14 38.23C8.16 38.29 8.19 38.35 8.22 38.4L8.31 38.58C8.35 38.63 8.39 38.68 8.43 38.74C8.47 38.79 8.51 38.84 8.56 38.88C8.6 38.93 8.65 38.98 8.7 39.02L15.44 44.8C15.7 45.02 16 45.19 16.32 45.31C16.66 45.44 17.01 45.5 17.37 45.5L17.5 45.5C17.84 45.5 18.16 45.44 18.47 45.31C18.77 45.18 19.04 45 19.27 44.77C19.5 44.54 19.68 44.27 19.81 43.97C19.94 43.66 20 43.34 20 43L20 6C20 5.87 19.99 5.74 19.96 5.61C19.94 5.48 19.9 5.36 19.85 5.23C19.8 5.11 19.74 5 19.66 4.89C19.59 4.78 19.51 4.68 19.41 4.59C19.32 4.49 19.22 4.41 19.11 4.34C19 4.26 18.89 4.2 18.76 4.15C18.64 4.1 18.52 4.06 18.39 4.04ZM38.74 14.48C38.81 14.49 38.87 14.5 38.94 14.5L39.13 14.5C39.2 14.49 39.26 14.48 39.33 14.47C39.39 14.46 39.46 14.45 39.52 14.43C39.58 14.41 39.65 14.39 39.71 14.37C39.77 14.35 39.83 14.32 39.89 14.29C39.95 14.26 40 14.23 40.06 14.2C40.11 14.16 40.17 14.13 40.22 14.09C40.27 14.05 40.32 14 40.37 13.96L40.51 13.82C40.55 13.77 40.59 13.72 40.63 13.66C40.67 13.61 40.7 13.55 40.73 13.5C40.77 13.44 40.8 13.38 40.82 13.32C40.85 13.26 40.87 13.2 40.89 13.14C40.92 13.08 40.93 13.02 40.95 12.95C40.96 12.89 40.97 12.82 40.98 12.76C40.99 12.69 41 12.63 41 12.56L41 12.37C40.99 12.3 40.98 12.24 40.97 12.17C40.96 12.11 40.95 12.04 40.93 11.98C40.91 11.92 40.89 11.85 40.87 11.79C40.85 11.73 40.82 11.67 40.79 11.61C40.76 11.55 40.73 11.5 40.7 11.44C40.66 11.39 40.63 11.33 40.59 11.28C40.55 11.23 40.5 11.18 40.46 11.13L40.32 10.99L32.61 4.26C32.34 4.01 32.03 3.83 31.7 3.7C31.35 3.57 31 3.5 30.63 3.5L30.5 3.5C30.16 3.5 29.84 3.56 29.53 3.69C29.23 3.82 28.96 4 28.73 4.23C28.5 4.46 28.32 4.73 28.19 5.03C28.06 5.34 28 5.66 28 6L28 43C28 43.07 28 43.13 28.01 43.2C28.02 43.26 28.03 43.33 28.04 43.39C28.05 43.45 28.07 43.52 28.09 43.58C28.11 43.64 28.13 43.7 28.15 43.77C28.18 43.83 28.21 43.89 28.24 43.94C28.27 44 28.3 44.06 28.34 44.11C28.37 44.17 28.41 44.22 28.45 44.27C28.5 44.32 28.54 44.37 28.59 44.41C28.63 44.46 28.68 44.5 28.73 44.55C28.78 44.59 28.84 44.63 28.89 44.66C28.94 44.7 29 44.73 29.06 44.76L29.24 44.85L29.42 44.91C29.48 44.93 29.55 44.95 29.61 44.96C29.67 44.97 29.74 44.98 29.8 44.99C29.87 45 29.94 45 30 45C30.07 45 30.13 45 30.2 44.99C30.26 44.98 30.33 44.97 30.39 44.96C30.46 44.95 30.52 44.93 30.58 44.91C30.64 44.89 30.71 44.87 30.77 44.85C30.83 44.82 30.89 44.79 30.94 44.76C31 44.73 31.06 44.7 31.11 44.66C31.17 44.63 31.22 44.59 31.27 44.55C31.32 44.5 31.37 44.46 31.42 44.41C31.46 44.37 31.51 44.32 31.55 44.27C31.59 44.22 31.63 44.17 31.66 44.11C31.7 44.06 31.73 44 31.76 43.94C31.8 43.89 31.82 43.83 31.85 43.77C31.87 43.7 31.9 43.64 31.91 43.58C31.93 43.52 31.95 43.45 31.96 43.39C31.98 43.33 31.98 43.26 31.99 43.2C32 43.13 32 43.07 32 43L32 9.04L37.68 14.01C37.73 14.05 37.78 14.09 37.84 14.13C37.89 14.17 37.95 14.2 38 14.23C38.06 14.27 38.12 14.3 38.18 14.32C38.24 14.35 38.3 14.37 38.36 14.39C38.42 14.42 38.48 14.43 38.55 14.45C38.61 14.46 38.68 14.47 38.74 14.48Z" fill-rule="evenodd"  fill="#000000" >
</path>
</svg>
