<svg xmlns="http://www.w3.org/2000/svg" xmlns:xlink="http://www.w3.org/1999/xlink" width="48" height="48" viewBox="0 0 48 48" fill="none">
<path d="M16.961 4.11C16.951 4.05 16.931 3.98 16.911 3.92C16.891 3.86 16.871 3.8 16.851 3.73C16.821 3.67 16.791 3.61 16.761 3.56C16.731 3.5 16.701 3.44 16.661 3.39C16.631 3.33 16.591 3.28 16.551 3.23C16.501 3.18 16.461 3.13 16.411 3.09C16.371 3.04 16.321 3 16.271 2.95C16.221 2.91 16.161 2.87 16.111 2.84C16.061 2.8 16.001 2.77 15.941 2.74C15.881 2.71 15.831 2.68 15.761 2.65L15.581 2.59C15.521 2.57 15.451 2.55 15.391 2.54C15.331 2.53 15.261 2.52 15.201 2.51C15.131 2.5 15.061 2.5 15.001 2.5C14.931 2.5 14.871 2.5 14.801 2.51C14.741 2.52 14.671 2.53 14.611 2.54C14.541 2.55 14.481 2.57 14.421 2.59C14.361 2.61 14.291 2.63 14.231 2.65C14.171 2.68 14.111 2.71 14.061 2.74C14.001 2.77 13.941 2.8 13.891 2.84C13.831 2.87 13.781 2.91 13.731 2.95C13.681 3 13.631 3.04 13.581 3.09C13.541 3.13 13.491 3.18 13.451 3.23C13.411 3.28 13.371 3.33 13.341 3.39C13.301 3.44 13.271 3.5 13.241 3.56C13.201 3.61 13.181 3.67 13.151 3.73C13.131 3.8 13.101 3.86 13.091 3.92C13.071 3.98 13.051 4.05 13.041 4.11C13.021 4.17 13.021 4.24 13.011 4.3C13.001 4.37 13.001 4.43 13.001 4.5L13.001 39.51L8.30098 35.48C8.21098 35.4 8.12098 35.34 8.01098 35.28C7.91098 35.22 7.80098 35.17 7.69098 35.12C7.58098 35.08 7.47098 35.05 7.35098 35.03C7.24098 35.01 7.12098 35 7.00098 35C6.93098 35 6.87098 35 6.80098 35.01C6.74098 35.02 6.67098 35.03 6.61098 35.04C6.55098 35.05 6.48098 35.07 6.42098 35.09C6.36098 35.11 6.30098 35.13 6.23098 35.15C6.17098 35.18 6.11098 35.21 6.06098 35.24C6.00098 35.27 5.94098 35.3 5.89098 35.34C5.83098 35.37 5.78098 35.41 5.73098 35.45C5.68098 35.5 5.63098 35.54 5.59098 35.59C5.54098 35.63 5.50098 35.68 5.45098 35.73C5.41098 35.78 5.37098 35.83 5.34098 35.89C5.30098 35.94 5.27098 36 5.24098 36.06C5.21098 36.11 5.18098 36.17 5.15098 36.23C5.13098 36.3 5.11098 36.36 5.09098 36.42C5.07098 36.48 5.05098 36.55 5.04098 36.61C5.03098 36.67 5.02098 36.74 5.01098 36.8C5.00098 36.87 5.00098 36.93 5.00098 37C5.00098 37.14 5.02098 37.29 5.05098 37.43C5.08098 37.57 5.12098 37.7 5.18098 37.84C5.24098 37.97 5.32098 38.09 5.40098 38.2C5.49098 38.32 5.59098 38.42 5.70098 38.52L12.441 44.3C12.701 44.52 13.001 44.69 13.321 44.81C13.661 44.94 14.011 45 14.371 45L14.501 45C14.841 45 15.161 44.94 15.471 44.81C15.771 44.68 16.041 44.5 16.271 44.27C16.501 44.04 16.681 43.77 16.811 43.47C16.941 43.16 17.001 42.84 17.001 42.5L17.001 4.5C17.001 4.43 17.001 4.37 16.991 4.3C16.981 4.24 16.971 4.17 16.961 4.11ZM23.001 7C23.131 7 23.261 6.99 23.391 6.96L23.391 7L35.391 7L22.641 15.51C22.051 15.9 21.661 16.42 21.451 17.07C21.261 17.67 21.251 18.26 21.431 18.87C21.621 19.47 21.951 19.96 22.441 20.35C22.971 20.78 23.581 20.99 24.281 21L39.611 21L39.611 20.96C39.741 20.99 39.871 21 40.001 21C41.101 21 42.001 20.1 42.001 19C42.001 17.9 41.101 17 40.001 17C39.871 17 39.741 17.01 39.611 17.04L39.611 17L27.611 17L40.361 8.49C40.941 8.1 41.341 7.58 41.551 6.93C41.741 6.33 41.751 5.74 41.561 5.13C41.381 4.53 41.051 4.04 40.561 3.65C40.031 3.22 39.411 3.01 38.701 3L23.391 3L23.391 3.04C23.261 3.01 23.131 3 23.001 3C21.901 3 21.001 3.9 21.001 5C21.001 6.1 21.901 7 23.001 7ZM20.001 43.09C20.001 43.16 20.001 43.22 20.011 43.29C20.021 43.35 20.031 43.42 20.041 43.48C20.051 43.54 20.071 43.61 20.091 43.67C20.111 43.73 20.131 43.79 20.151 43.86C20.181 43.92 20.211 43.98 20.241 44.03C20.271 44.09 20.301 44.15 20.341 44.2C20.371 44.26 20.411 44.31 20.451 44.36C20.501 44.41 20.541 44.46 20.591 44.5C20.631 44.55 20.681 44.59 20.731 44.64C20.781 44.68 20.831 44.72 20.891 44.75C20.941 44.79 21.001 44.82 21.061 44.85C21.111 44.88 21.171 44.91 21.231 44.94C21.301 44.96 21.361 44.98 21.421 45C21.481 45.02 21.551 45.04 21.611 45.05C21.671 45.06 21.741 45.07 21.801 45.08C21.871 45.09 21.931 45.09 22.001 45.09C22.091 45.09 22.191 45.08 22.281 45.07C22.371 45.06 22.461 45.04 22.551 45.01C22.641 44.99 22.721 44.96 22.811 44.92C22.891 44.88 22.981 44.84 23.051 44.79C23.131 44.74 23.211 44.69 23.281 44.63C23.351 44.57 23.421 44.5 23.481 44.43C23.541 44.37 23.601 44.29 23.651 44.22C23.701 44.14 23.751 44.06 23.791 43.98L25.801 39.91L37.191 39.91L39.201 43.97C39.241 44.05 39.291 44.13 39.341 44.21C39.391 44.29 39.451 44.36 39.511 44.43C39.581 44.5 39.641 44.56 39.711 44.62C39.791 44.68 39.861 44.74 39.941 44.79C40.021 44.84 40.101 44.88 40.191 44.92C40.271 44.96 40.361 44.99 40.451 45.01C40.541 45.04 40.631 45.06 40.721 45.07C40.811 45.08 40.911 45.09 41.001 45.09C41.071 45.09 41.131 45.09 41.201 45.08C41.261 45.07 41.331 45.06 41.391 45.05C41.451 45.04 41.521 45.02 41.581 45C41.641 44.98 41.701 44.96 41.771 44.94C41.831 44.91 41.881 44.88 41.941 44.85C42.001 44.82 42.061 44.79 42.111 44.75C42.171 44.72 42.221 44.68 42.271 44.64C42.321 44.59 42.371 44.55 42.411 44.5C42.461 44.46 42.501 44.41 42.551 44.36C42.591 44.31 42.631 44.26 42.661 44.2C42.701 44.15 42.731 44.09 42.761 44.03C42.791 43.98 42.821 43.92 42.851 43.86C42.871 43.79 42.891 43.73 42.911 43.67C42.931 43.61 42.951 43.54 42.961 43.48C42.971 43.42 42.981 43.35 42.991 43.29C43.001 43.22 43.001 43.16 43.001 43.09C43.001 42.78 42.931 42.48 42.791 42.2L35.081 26.64C34.731 25.93 34.221 25.37 33.541 24.97C32.921 24.6 32.231 24.41 31.491 24.41C30.761 24.41 30.071 24.6 29.451 24.97C28.771 25.37 28.261 25.93 27.901 26.65L20.211 42.2C20.071 42.48 20.001 42.78 20.001 43.09ZM31.501 28.42L31.501 28.42L27.791 35.91L35.211 35.91L31.501 28.42Z" fill-rule="evenodd"  fill="#000000" >
</path>
</svg>
