<svg xmlns="http://www.w3.org/2000/svg" xmlns:xlink="http://www.w3.org/1999/xlink" width="48" height="48" viewBox="0 0 48 48" fill="none">
<path d="M29.04 30.42C29.02 30.48 29 30.55 28.99 30.61C28.98 30.67 28.97 30.74 28.96 30.8C28.95 30.87 28.95 30.93 28.95 31L28.95 34.95L25 34.95C24.93 34.95 24.87 34.95 24.8 34.96C24.74 34.97 24.67 34.98 24.61 34.99C24.55 35 24.48 35.02 24.42 35.04C24.36 35.06 24.3 35.08 24.23 35.1C24.17 35.13 24.11 35.16 24.06 35.19C24 35.22 23.94 35.25 23.89 35.29C23.83 35.32 23.78 35.36 23.73 35.4C23.68 35.45 23.63 35.49 23.59 35.54C23.54 35.58 23.5 35.63 23.45 35.68C23.41 35.73 23.37 35.78 23.34 35.84C23.3 35.89 23.27 35.95 23.24 36.01C23.21 36.06 23.18 36.12 23.15 36.18C23.13 36.25 23.11 36.31 23.09 36.37C23.07 36.43 23.05 36.5 23.04 36.56C23.03 36.62 23.02 36.69 23.01 36.75C23 36.82 23 36.88 23 36.95C23 37.02 23 37.08 23.01 37.15C23.02 37.21 23.03 37.28 23.04 37.34C23.05 37.4 23.07 37.47 23.09 37.53C23.11 37.59 23.13 37.65 23.15 37.72C23.18 37.78 23.21 37.84 23.24 37.89C23.27 37.95 23.3 38.01 23.34 38.06C23.37 38.12 23.41 38.17 23.45 38.22C23.5 38.27 23.54 38.32 23.59 38.36C23.63 38.41 23.68 38.45 23.73 38.5C23.78 38.54 23.83 38.58 23.89 38.61C23.94 38.65 24 38.68 24.06 38.71C24.11 38.74 24.17 38.77 24.23 38.8C24.3 38.82 24.36 38.84 24.42 38.86C24.48 38.88 24.55 38.9 24.61 38.91C24.67 38.92 24.74 38.93 24.8 38.94C24.87 38.95 24.93 38.95 25 38.95L28.95 38.95L28.95 43C28.95 43.07 28.95 43.13 28.96 43.2C28.97 43.26 28.98 43.33 28.99 43.39C29 43.45 29.02 43.52 29.04 43.58C29.06 43.64 29.08 43.7 29.1 43.77C29.13 43.83 29.16 43.89 29.19 43.94C29.22 44 29.25 44.06 29.29 44.11C29.32 44.17 29.36 44.22 29.4 44.27C29.45 44.32 29.49 44.37 29.54 44.41C29.58 44.46 29.63 44.5 29.68 44.55C29.73 44.59 29.78 44.63 29.84 44.66C29.89 44.7 29.95 44.73 30.01 44.76C30.06 44.79 30.12 44.82 30.18 44.85C30.25 44.87 30.31 44.89 30.37 44.91C30.43 44.93 30.5 44.95 30.56 44.96C30.62 44.97 30.69 44.98 30.75 44.99C30.82 45 30.88 45 30.95 45C31.02 45 31.08 45 31.15 44.99C31.21 44.98 31.28 44.97 31.34 44.96C31.4 44.95 31.47 44.93 31.53 44.91C31.59 44.89 31.65 44.87 31.72 44.85C31.78 44.82 31.84 44.79 31.89 44.76C31.95 44.73 32.01 44.7 32.06 44.66C32.12 44.63 32.17 44.59 32.22 44.55C32.27 44.5 32.32 44.46 32.36 44.41C32.41 44.37 32.45 44.32 32.5 44.27C32.54 44.22 32.58 44.17 32.61 44.11C32.65 44.06 32.68 44 32.71 43.94C32.74 43.89 32.77 43.83 32.8 43.77C32.82 43.7 32.84 43.64 32.86 43.58C32.88 43.52 32.9 43.45 32.91 43.39C32.92 43.33 32.93 43.26 32.94 43.2C32.95 43.13 32.95 43.07 32.95 43L32.95 38.95L37 38.95C37.07 38.95 37.13 38.95 37.2 38.94C37.26 38.93 37.33 38.92 37.39 38.91C37.45 38.9 37.52 38.88 37.58 38.86C37.64 38.84 37.7 38.82 37.77 38.8C37.83 38.77 37.89 38.74 37.94 38.71C38 38.68 38.06 38.65 38.11 38.61C38.17 38.58 38.22 38.54 38.27 38.5C38.32 38.45 38.37 38.41 38.41 38.36C38.46 38.32 38.5 38.27 38.55 38.22C38.59 38.17 38.63 38.12 38.66 38.06C38.7 38.01 38.73 37.95 38.76 37.89C38.79 37.84 38.82 37.78 38.85 37.72C38.87 37.65 38.89 37.59 38.91 37.53C38.93 37.47 38.95 37.4 38.96 37.34C38.97 37.28 38.98 37.21 38.99 37.15C39 37.08 39 37.02 39 36.95C39 36.88 39 36.82 38.99 36.75C38.98 36.69 38.97 36.62 38.96 36.56C38.95 36.5 38.93 36.43 38.91 36.37C38.89 36.31 38.87 36.25 38.85 36.18C38.82 36.12 38.79 36.06 38.76 36.01C38.73 35.95 38.7 35.89 38.66 35.84C38.63 35.78 38.59 35.73 38.55 35.68C38.5 35.63 38.46 35.58 38.41 35.54C38.37 35.49 38.32 35.45 38.27 35.4C38.22 35.36 38.17 35.32 38.11 35.29C38.06 35.25 38 35.22 37.94 35.19C37.89 35.16 37.83 35.13 37.77 35.1C37.7 35.08 37.64 35.06 37.58 35.04C37.52 35.02 37.45 35 37.39 34.99C37.33 34.98 37.26 34.97 37.2 34.96C37.13 34.95 37.07 34.95 37 34.95L32.95 34.95L32.95 31C32.95 30.93 32.95 30.87 32.94 30.8C32.93 30.74 32.92 30.67 32.91 30.61C32.9 30.55 32.88 30.48 32.86 30.42C32.84 30.36 32.82 30.3 32.8 30.23C32.77 30.17 32.74 30.11 32.71 30.06C32.68 30 32.65 29.94 32.61 29.89C32.58 29.83 32.54 29.78 32.5 29.73C32.45 29.68 32.41 29.63 32.36 29.59C32.32 29.54 32.27 29.5 32.22 29.45C32.17 29.41 32.12 29.37 32.06 29.34C32.01 29.3 31.95 29.27 31.89 29.24C31.84 29.21 31.78 29.18 31.72 29.15C31.65 29.13 31.59 29.11 31.53 29.09C31.47 29.07 31.4 29.05 31.34 29.04C31.28 29.03 31.21 29.02 31.15 29.01C31.08 29 31.02 29 30.95 29C30.88 29 30.82 29 30.75 29.01C30.69 29.02 30.62 29.03 30.56 29.04C30.5 29.05 30.43 29.07 30.37 29.09C30.31 29.11 30.25 29.13 30.18 29.15C30.12 29.18 30.06 29.21 30.01 29.24C29.95 29.27 29.89 29.3 29.84 29.34C29.78 29.37 29.73 29.41 29.68 29.45C29.63 29.5 29.58 29.54 29.54 29.59C29.49 29.63 29.45 29.68 29.4 29.73C29.36 29.78 29.32 29.83 29.29 29.89C29.25 29.94 29.22 30 29.19 30.06C29.16 30.11 29.13 30.17 29.1 30.23C29.08 30.3 29.06 30.36 29.04 30.42ZM13.47 44.81C13.77 44.68 14.04 44.5 14.27 44.27C14.5 44.04 14.68 43.77 14.81 43.47C14.94 43.16 15 42.84 15 42.5L15 4.5C15 4.43 15 4.37 14.99 4.3C14.98 4.24 14.97 4.17 14.96 4.11C14.95 4.05 14.93 3.98 14.91 3.92C14.89 3.86 14.87 3.8 14.85 3.73C14.82 3.67 14.79 3.61 14.76 3.56C14.73 3.5 14.7 3.44 14.66 3.39C14.63 3.33 14.59 3.28 14.55 3.23C14.5 3.18 14.46 3.13 14.41 3.09C14.37 3.04 14.32 3 14.27 2.95C14.22 2.91 14.16 2.87 14.11 2.84C14.06 2.8 14 2.77 13.94 2.74L13.76 2.65L13.58 2.59C13.52 2.57 13.45 2.55 13.39 2.54C13.33 2.53 13.26 2.52 13.2 2.51C13.13 2.5 13.06 2.5 13 2.5C12.93 2.5 12.87 2.5 12.8 2.51C12.74 2.52 12.67 2.53 12.61 2.54C12.54 2.55 12.48 2.57 12.42 2.59C12.36 2.61 12.29 2.63 12.23 2.65C12.17 2.68 12.11 2.71 12.06 2.74C12 2.77 11.94 2.8 11.89 2.84C11.83 2.87 11.78 2.91 11.73 2.95C11.68 3 11.63 3.04 11.58 3.09C11.54 3.13 11.49 3.18 11.45 3.23C11.41 3.28 11.37 3.33 11.34 3.39C11.3 3.44 11.27 3.5 11.24 3.56C11.2 3.62 11.18 3.67 11.15 3.73C11.13 3.8 11.1 3.86 11.09 3.92C11.07 3.98 11.05 4.05 11.04 4.11C11.02 4.17 11.02 4.24 11.01 4.3C11 4.37 11 4.43 11 4.5L11 39.51L6.3 35.48L6.15 35.36C6.09 35.32 6.04 35.29 5.98 35.26C5.92 35.22 5.86 35.2 5.8 35.17C5.74 35.14 5.68 35.12 5.62 35.1C5.56 35.08 5.5 35.06 5.43 35.05C5.37 35.03 5.3 35.02 5.24 35.01C5.17 35.01 5.11 35 5.04 35C4.98 35 4.91 35 4.85 35.01C4.78 35.01 4.72 35.02 4.65 35.03C4.59 35.04 4.52 35.06 4.46 35.07C4.4 35.09 4.34 35.11 4.27 35.14C4.21 35.16 4.15 35.19 4.1 35.22L3.92 35.31C3.87 35.35 3.82 35.39 3.76 35.43C3.71 35.47 3.66 35.51 3.62 35.56C3.57 35.6 3.52 35.65 3.48 35.7L3.36 35.85C3.32 35.91 3.29 35.96 3.26 36.02C3.22 36.08 3.2 36.14 3.17 36.2C3.14 36.26 3.12 36.32 3.1 36.38C3.08 36.44 3.06 36.5 3.05 36.57C3.03 36.63 3.02 36.7 3.01 36.76C3.01 36.83 3 36.89 3 36.96C3 37.02 3 37.09 3.01 37.15C3.01 37.22 3.02 37.28 3.03 37.35C3.04 37.41 3.06 37.48 3.07 37.54C3.09 37.6 3.11 37.66 3.14 37.73C3.16 37.79 3.19 37.85 3.22 37.9L3.31 38.08C3.35 38.13 3.39 38.18 3.43 38.24C3.47 38.29 3.51 38.34 3.56 38.38C3.6 38.43 3.65 38.48 3.7 38.52L10.44 44.3C10.7 44.52 11 44.69 11.32 44.81C11.66 44.94 12.01 45 12.37 45L12.5 45C12.84 45 13.16 44.94 13.47 44.81ZM36.63 15C36.59 14.94 36.55 14.89 36.51 14.84C36.47 14.79 36.42 14.74 36.37 14.7C36.33 14.65 36.28 14.61 36.22 14.57C36.17 14.53 36.12 14.49 36.06 14.46C36.01 14.42 35.95 14.39 35.89 14.36C35.83 14.33 35.77 14.31 35.71 14.28L35.53 14.22C35.46 14.21 35.4 14.19 35.33 14.18C35.27 14.17 35.2 14.16 35.14 14.16C35.07 14.15 35.01 14.15 34.94 14.15C34.88 14.16 34.81 14.16 34.75 14.17C34.68 14.18 34.62 14.19 34.55 14.2L33 14.56L33 10C33 9.93 33 9.87 32.99 9.8C32.98 9.74 32.97 9.67 32.96 9.61C32.95 9.55 32.93 9.48 32.91 9.42C32.9 9.36 32.87 9.3 32.85 9.23C32.82 9.17 32.8 9.12 32.76 9.06C32.73 9 32.7 8.94 32.66 8.89C32.63 8.83 32.59 8.78 32.55 8.73C32.51 8.68 32.46 8.63 32.41 8.59C32.37 8.54 32.32 8.5 32.27 8.45C32.22 8.41 32.17 8.37 32.11 8.34C32.06 8.3 32 8.27 31.94 8.24C31.89 8.21 31.83 8.18 31.77 8.15C31.71 8.13 31.64 8.11 31.58 8.09C31.52 8.07 31.46 8.05 31.39 8.04C31.33 8.03 31.26 8.02 31.2 8.01C31.13 8 31.07 8 31 8C30.94 8 30.87 8 30.8 8.01C30.74 8.02 30.67 8.03 30.61 8.04C30.55 8.05 30.48 8.07 30.42 8.09L30.24 8.15C30.17 8.18 30.12 8.21 30.06 8.24C30 8.27 29.94 8.3 29.89 8.34C29.84 8.37 29.78 8.41 29.73 8.45C29.68 8.5 29.63 8.54 29.59 8.59C29.54 8.63 29.5 8.68 29.45 8.73C29.41 8.78 29.37 8.83 29.34 8.89C29.3 8.94 29.27 9 29.24 9.06C29.21 9.11 29.18 9.17 29.15 9.23C29.13 9.3 29.11 9.36 29.09 9.42C29.07 9.48 29.05 9.55 29.04 9.61C29.03 9.67 29.02 9.74 29.01 9.8C29 9.87 29 9.93 29 10L29 16.85C29 17.15 29.06 17.44 29.18 17.71C29.29 17.96 29.44 18.18 29.63 18.37C29.82 18.56 30.04 18.71 30.29 18.82C30.56 18.94 30.85 19 31.15 19L31.19 19C31.43 19 31.67 18.97 31.91 18.91L35.45 18.1C35.51 18.09 35.57 18.07 35.64 18.05C35.7 18.03 35.76 18.01 35.82 17.98C35.88 17.95 35.94 17.92 35.99 17.89C36.05 17.86 36.11 17.82 36.16 17.78C36.21 17.75 36.26 17.71 36.31 17.66C36.36 17.62 36.41 17.57 36.45 17.53C36.5 17.48 36.54 17.43 36.58 17.38C36.62 17.33 36.66 17.27 36.69 17.22C36.73 17.16 36.76 17.1 36.79 17.05C36.82 16.99 36.85 16.93 36.87 16.87C36.89 16.8 36.91 16.74 36.93 16.68C36.95 16.62 36.96 16.55 36.97 16.49C36.98 16.42 36.99 16.36 37 16.29L37 16.1C37 16.03 36.99 15.97 36.98 15.9C36.98 15.84 36.96 15.77 36.95 15.71C36.93 15.64 36.92 15.58 36.9 15.52C36.88 15.46 36.85 15.4 36.82 15.34C36.8 15.28 36.77 15.22 36.74 15.16C36.7 15.1 36.67 15.05 36.63 15ZM19.02 20.06C19.68 21.62 20.61 23 21.81 24.19C23 25.39 24.38 26.32 25.94 26.98C27.55 27.66 29.24 28 31 28C32.76 28 34.45 27.66 36.06 26.98C37.62 26.32 39 25.39 40.19 24.19C41.39 23 42.32 21.62 42.98 20.06C43.66 18.45 44 16.76 44 15C44 13.24 43.66 11.55 42.98 9.94C42.32 8.38 41.39 7 40.19 5.81C39 4.61 37.62 3.68 36.06 3.02C34.45 2.34 32.76 2 31 2C29.24 2 27.55 2.34 25.94 3.02C24.38 3.68 23 4.61 21.81 5.81C20.61 7 19.68 8.38 19.02 9.94C18.34 11.55 18 13.24 18 15C18 16.76 18.34 18.45 19.02 20.06ZM30.96 15.02L30.97 15.02C30.97 15.02 30.96 15.02 30.96 15.02ZM30.93 15.03C30.94 15.03 30.95 15.03 30.96 15.02L30.93 15.03ZM27.49 6.71C26.42 7.16 25.46 7.8 24.63 8.63C23.8 9.46 23.16 10.42 22.71 11.49C22.24 12.61 22 13.78 22 15C22 16.22 22.24 17.39 22.71 18.51C23.16 19.58 23.8 20.54 24.63 21.37C25.46 22.2 26.42 22.84 27.49 23.29C28.61 23.76 29.78 24 31 24C32.22 24 33.39 23.76 34.51 23.29C35.58 22.84 36.54 22.2 37.37 21.37C38.2 20.54 38.84 19.58 39.29 18.51C39.76 17.39 40 16.22 40 15C40 13.78 39.76 12.61 39.29 11.49C38.84 10.42 38.2 9.46 37.37 8.63C36.54 7.8 35.58 7.16 34.51 6.71C33.39 6.24 32.22 6 31 6C29.78 6 28.61 6.24 27.49 6.71Z" fill-rule="evenodd"  fill="#000000" >
</path>
</svg>
