<svg xmlns="http://www.w3.org/2000/svg" xmlns:xlink="http://www.w3.org/1999/xlink" width="48" height="48" viewBox="0 0 48 48" fill="none">
<path d="M16.961 4.11C16.951 4.05 16.931 3.98 16.911 3.92C16.891 3.86 16.871 3.8 16.851 3.73C16.821 3.67 16.791 3.61 16.761 3.56C16.731 3.5 16.701 3.44 16.661 3.39C16.631 3.33 16.591 3.28 16.551 3.23C16.501 3.18 16.461 3.13 16.411 3.09C16.371 3.04 16.321 3 16.271 2.95C16.221 2.91 16.161 2.87 16.111 2.84C16.061 2.8 16.001 2.77 15.941 2.74C15.881 2.71 15.831 2.68 15.761 2.65L15.581 2.59C15.521 2.57 15.451 2.55 15.391 2.54C15.331 2.53 15.261 2.52 15.201 2.51C15.131 2.5 15.061 2.5 15.001 2.5C14.931 2.5 14.871 2.5 14.801 2.51C14.741 2.52 14.671 2.53 14.611 2.54C14.541 2.55 14.481 2.57 14.421 2.59C14.361 2.61 14.291 2.63 14.231 2.65C14.171 2.68 14.111 2.71 14.061 2.74C14.001 2.77 13.941 2.8 13.891 2.84C13.831 2.87 13.781 2.91 13.731 2.95C13.681 3 13.631 3.04 13.581 3.09C13.541 3.13 13.491 3.18 13.451 3.23C13.411 3.28 13.371 3.33 13.341 3.39C13.301 3.44 13.271 3.5 13.241 3.56C13.201 3.61 13.181 3.67 13.151 3.73C13.131 3.8 13.101 3.86 13.091 3.92C13.071 3.98 13.051 4.05 13.041 4.11C13.021 4.17 13.021 4.24 13.011 4.3C13.001 4.37 13.001 4.43 13.001 4.5L13.001 39.51L8.30098 35.48C8.21098 35.4 8.12098 35.34 8.01098 35.28C7.91098 35.22 7.80098 35.17 7.69098 35.12C7.58098 35.08 7.47098 35.05 7.35098 35.03C7.24098 35.01 7.12098 35 7.00098 35C6.93098 35 6.87098 35 6.80098 35.01C6.74098 35.02 6.67098 35.03 6.61098 35.04C6.55098 35.05 6.48098 35.07 6.42098 35.09C6.36098 35.11 6.30098 35.13 6.23098 35.15C6.17098 35.18 6.11098 35.21 6.06098 35.24C6.00098 35.27 5.94098 35.3 5.89098 35.34C5.83098 35.37 5.78098 35.41 5.73098 35.45C5.68098 35.5 5.63098 35.54 5.59098 35.59C5.54098 35.63 5.50098 35.68 5.45098 35.73C5.41098 35.78 5.37098 35.83 5.34098 35.89C5.30098 35.94 5.27098 36 5.24098 36.06C5.21098 36.11 5.18098 36.17 5.15098 36.23C5.13098 36.3 5.11098 36.36 5.09098 36.42C5.07098 36.48 5.05098 36.55 5.04098 36.61C5.03098 36.67 5.02098 36.74 5.01098 36.8C5.00098 36.87 5.00098 36.93 5.00098 37C5.00098 37.14 5.02098 37.29 5.05098 37.43C5.08098 37.57 5.12098 37.7 5.18098 37.84C5.24098 37.97 5.32098 38.09 5.40098 38.2C5.49098 38.32 5.59098 38.42 5.70098 38.52L12.441 44.3C12.701 44.52 13.001 44.69 13.321 44.81C13.661 44.94 14.011 45 14.371 45L14.501 45C14.841 45 15.161 44.94 15.471 44.81C15.771 44.68 16.041 44.5 16.271 44.27C16.501 44.04 16.681 43.77 16.811 43.47C16.941 43.16 17.001 42.84 17.001 42.5L17.001 4.5C17.001 4.43 17.001 4.37 16.991 4.3C16.981 4.24 16.971 4.17 16.961 4.11ZM20.001 22.17C20.001 22.24 20.001 22.3 20.011 22.37C20.021 22.43 20.031 22.5 20.041 22.56C20.051 22.62 20.071 22.69 20.091 22.75C20.111 22.81 20.131 22.87 20.151 22.94C20.181 23 20.211 23.06 20.241 23.11C20.271 23.17 20.301 23.23 20.341 23.28C20.371 23.34 20.411 23.39 20.451 23.44C20.501 23.49 20.541 23.54 20.591 23.58C20.631 23.63 20.681 23.67 20.731 23.72C20.781 23.76 20.831 23.8 20.891 23.83C20.941 23.87 21.001 23.9 21.061 23.93C21.111 23.96 21.171 23.99 21.231 24.02C21.301 24.04 21.361 24.06 21.421 24.08C21.481 24.1 21.551 24.12 21.611 24.13C21.671 24.14 21.741 24.15 21.801 24.16C21.871 24.17 21.931 24.17 22.001 24.17C22.091 24.17 22.191 24.16 22.281 24.15C22.371 24.14 22.461 24.12 22.551 24.09C22.641 24.07 22.721 24.04 22.811 24C22.891 23.96 22.981 23.92 23.051 23.87C23.131 23.82 23.211 23.77 23.281 23.71C23.351 23.65 23.421 23.58 23.481 23.51C23.541 23.45 23.601 23.37 23.651 23.3C23.701 23.22 23.751 23.14 23.791 23.06L25.801 18.99L37.191 18.99L39.201 23.05C39.241 23.13 39.291 23.21 39.341 23.29C39.391 23.37 39.451 23.44 39.511 23.51C39.581 23.58 39.641 23.64 39.711 23.7C39.791 23.76 39.861 23.82 39.941 23.87C40.021 23.92 40.101 23.96 40.191 24C40.271 24.04 40.361 24.07 40.451 24.09C40.541 24.12 40.631 24.14 40.721 24.15C40.811 24.16 40.911 24.17 41.001 24.17C41.071 24.17 41.131 24.17 41.201 24.16C41.261 24.15 41.331 24.14 41.391 24.13C41.451 24.12 41.521 24.1 41.581 24.08C41.641 24.06 41.701 24.04 41.771 24.02C41.831 23.99 41.881 23.96 41.941 23.93C42.001 23.9 42.061 23.87 42.111 23.83C42.171 23.8 42.221 23.76 42.271 23.72C42.321 23.67 42.371 23.63 42.411 23.58C42.461 23.54 42.501 23.49 42.551 23.44C42.591 23.39 42.631 23.34 42.661 23.28C42.701 23.23 42.731 23.17 42.761 23.11C42.791 23.06 42.821 23 42.851 22.94C42.871 22.87 42.891 22.81 42.911 22.75C42.931 22.69 42.951 22.62 42.961 22.56C42.971 22.5 42.981 22.43 42.991 22.37C43.001 22.3 43.001 22.24 43.001 22.17C43.001 21.86 42.931 21.56 42.791 21.28L35.081 5.72C34.731 5.01 34.221 4.45 33.541 4.05C32.921 3.68 32.231 3.49 31.491 3.49C30.761 3.49 30.071 3.68 29.451 4.05C28.771 4.45 28.261 5.01 27.901 5.73L20.211 21.28C20.071 21.56 20.001 21.86 20.001 22.17ZM31.501 7.5L31.501 7.5L27.791 14.99L35.211 14.99L31.501 7.5ZM23.391 31L35.391 31L22.641 39.51C22.051 39.9 21.661 40.42 21.451 41.07C21.261 41.67 21.251 42.26 21.431 42.87C21.621 43.47 21.951 43.96 22.441 44.35C22.971 44.78 23.581 44.99 24.281 45L39.611 45L39.611 44.96C39.741 44.99 39.871 45 40.001 45C41.101 45 42.001 44.1 42.001 43C42.001 41.9 41.101 41 40.001 41C39.871 41 39.741 41.01 39.611 41.04L39.611 41L27.611 41L40.361 32.49C40.941 32.1 41.341 31.58 41.551 30.93C41.741 30.33 41.751 29.74 41.561 29.13C41.381 28.53 41.051 28.04 40.561 27.65C40.031 27.22 39.411 27.01 38.701 27L23.391 27L23.391 27.1C22.591 27.35 22.001 28.11 22.001 29C22.001 29.89 22.591 30.65 23.391 30.9L23.391 31Z" fill-rule="evenodd"  fill="#000000" >
</path>
</svg>
