<svg xmlns="http://www.w3.org/2000/svg" xmlns:xlink="http://www.w3.org/1999/xlink" width="48" height="48" viewBox="0 0 48 48" fill="none">
<path d="M35.06 28.67C35.69 27.18 36 25.63 36 24C36 22.37 35.69 20.82 35.06 19.33C34.45 17.9 33.59 16.62 32.48 15.52C31.38 14.41 30.1 13.55 28.67 12.94C27.18 12.31 25.63 12 24 12C22.37 12 20.82 12.31 19.33 12.94C17.9 13.55 16.62 14.41 15.52 15.52C14.41 16.62 13.55 17.9 12.94 19.33C12.31 20.82 12 22.37 12 24C12 25.63 12.31 27.18 12.94 28.67C13.55 30.1 14.41 31.38 15.52 32.48C16.62 33.59 17.9 34.45 19.33 35.06C20.82 35.69 22.37 36 24 36C25.63 36 27.18 35.69 28.67 35.06C30.1 34.45 31.38 33.59 32.48 32.48C33.59 31.38 34.45 30.1 35.06 28.67ZM12.69 35.31C14.16 36.79 15.86 37.93 17.77 38.74C19.76 39.58 21.83 40 24 40C26.17 40 28.24 39.58 30.23 38.74C32.14 37.93 33.84 36.79 35.31 35.31C36.79 33.84 37.93 32.14 38.74 30.23C39.58 28.24 40 26.17 40 24C40 21.83 39.58 19.76 38.74 17.77C37.93 15.86 36.79 14.16 35.31 12.69C33.84 11.21 32.14 10.07 30.23 9.26C28.24 8.42 26.17 8 24 8C21.83 8 19.76 8.42 17.77 9.26C15.86 10.07 14.16 11.21 12.69 12.69C11.21 14.16 10.07 15.86 9.26 17.77C8.42 19.76 8 21.83 8 24C8 26.17 8.42 28.24 9.26 30.23C10.07 32.14 11.21 33.84 12.69 35.31ZM26 44C26 42.9 25.1 42 24 42C22.9 42 22 42.9 22 44C22 45.1 22.9 46 24 46C25.1 46 26 45.1 26 44ZM41 9C41 7.9 40.1 7 39 7C37.9 7 37 7.9 37 9C37 10.1 37.9 11 39 11C40.1 11 41 10.1 41 9ZM6 40C6 41.1 6.9 42 8 42C9.1 42 10 41.1 10 40C10 38.9 9.1 38 8 38C6.9 38 6 38.9 6 40ZM4 22C2.9 22 2 22.9 2 24C2 25.1 2.9 26 4 26C5.1 26 6 25.1 6 24C6 22.9 5.1 22 4 22ZM44 22C42.9 22 42 22.9 42 24C42 25.1 42.9 26 44 26C45.1 26 46 25.1 46 24C46 22.9 45.1 22 44 22ZM24 6C25.1 6 26 5.1 26 4C26 2.9 25.1 2 24 2C22.9 2 22 2.9 22 4C22 5.1 22.9 6 24 6ZM40 42C41.1 42 42 41.1 42 40C42 38.9 41.1 38 40 38C38.9 38 38 38.9 38 40C38 41.1 38.9 42 40 42ZM10 8C10 6.9 9.1 6 8 6C6.9 6 6 6.9 6 8C6 9.1 6.9 10 8 10C9.1 10 10 9.1 10 8Z" fill-rule="evenodd"  fill="#000000" >
</path>
</svg>
