<svg xmlns="http://www.w3.org/2000/svg" xmlns:xlink="http://www.w3.org/1999/xlink" width="48" height="48" viewBox="0 0 48 48" fill="none">
<path d="M42.1483 27.7087C42.1983 27.6587 42.2383 27.6187 42.2883 27.5587C42.3183 27.5087 42.3683 27.4487 42.3983 27.4087C42.4283 27.3487 42.4783 27.2887 42.4983 27.2387C42.5283 27.1787 42.5583 27.1287 42.5783 27.0587C42.6083 26.9987 42.6383 26.9387 42.6483 26.8687C42.6683 26.8087 42.6883 26.7487 42.6983 26.6787C42.7083 26.6187 42.7283 26.5587 42.7283 26.4887L38.7483 26.0787C38.7383 26.1487 38.7383 26.1987 38.7383 26.2687C38.7383 26.3387 38.7483 26.4087 38.7483 26.4687L38.7483 26.4687C38.7583 26.5387 38.7683 26.5987 38.7783 26.6687C38.7883 26.7287 38.8083 26.7887 38.8283 26.8587C38.8383 26.9187 38.8683 26.9787 38.8883 27.0487L38.9783 27.2187C38.9983 27.2787 39.0383 27.3287 39.0683 27.3887C39.1083 27.4487 39.1483 27.4987 39.1983 27.5487C39.2283 27.5987 39.2783 27.6487 39.3183 27.6887C39.3683 27.7387 39.4083 27.7787 39.4683 27.8287C39.5183 27.8587 39.5683 27.9087 39.6183 27.9387C39.6783 27.9887 39.7283 28.0187 39.7883 28.0387C39.8483 28.0687 39.9083 28.1087 39.9683 28.1287C40.0283 28.1587 40.0883 28.1787 40.1583 28.1887C40.2183 28.2087 40.2783 28.2387 40.3483 28.2387C40.3983 28.2587 40.4683 28.2687 40.5383 28.2787C40.6083 28.2787 40.6583 28.2787 40.7283 28.2887C40.7983 28.2887 40.8683 28.2787 40.9283 28.2687C40.9983 28.2687 41.0583 28.2587 41.1283 28.2487C41.1883 28.2387 41.2483 28.2187 41.3083 28.1987L41.4983 28.1387C41.5583 28.1087 41.6183 28.0787 41.6783 28.0487C41.7383 28.0287 41.7883 27.9787 41.8483 27.9587C41.8983 27.9187 41.9583 27.8787 41.9983 27.8387C42.0583 27.7987 42.0983 27.7587 42.1483 27.7087ZM31.2283 34.0887C31.2883 34.1087 31.3583 34.1387 31.4183 34.1487C31.4783 34.1587 31.5483 34.1687 31.6083 34.1887C31.6783 34.1887 31.7383 34.1987 31.8083 34.1987L35.3283 34.3287C33.8883 35.6987 32.2583 36.7387 30.4183 37.4487C28.5983 38.1487 26.7183 38.4887 24.7583 38.4687C22.7983 38.4287 20.9283 38.0287 19.1283 37.2787C17.2683 36.4887 15.6383 35.3687 14.2183 33.8987C12.7083 32.3487 11.5883 30.5487 10.8583 28.5287C10.1583 26.5687 9.87828 24.5387 10.0283 22.4687L10.0183 22.4587C10.0283 22.3987 10.0183 22.3287 10.0283 22.2687C10.0283 22.2087 10.0183 22.1387 10.0083 22.0687C9.99828 22.0087 9.98828 21.9387 9.96828 21.8787C9.94828 21.8187 9.94828 21.7487 9.91828 21.6987C9.89828 21.6287 9.87828 21.5687 9.84828 21.5087C9.82828 21.4487 9.78828 21.3887 9.75828 21.3287C9.72828 21.2787 9.69828 21.2187 9.64828 21.1687C9.60828 21.1187 9.57828 21.0687 9.52828 21.0187C9.48828 20.9687 9.44828 20.9187 9.38828 20.8687C9.34828 20.8287 9.29828 20.7787 9.24828 20.7387C9.18828 20.6987 9.13828 20.6687 9.08828 20.6387C9.02828 20.5987 8.96828 20.5687 8.90828 20.5387C8.85828 20.5087 8.78828 20.4887 8.73828 20.4587C8.66828 20.4387 8.60828 20.4187 8.53828 20.3987C8.47828 20.3887 8.40828 20.3687 8.35828 20.3587C8.28828 20.3487 8.21828 20.3487 8.15828 20.3387C8.09828 20.3287 8.02828 20.3287 7.95828 20.3387C7.89828 20.3387 7.82828 20.3387 7.76828 20.3487C7.70828 20.3587 7.63828 20.3687 7.57828 20.3887C7.50828 20.3987 7.43828 20.4187 7.37828 20.4387C7.32828 20.4587 7.26828 20.4787 7.19828 20.5087L7.02828 20.5987C6.96828 20.6287 6.91828 20.6687 6.85828 20.7087C6.80828 20.7387 6.75828 20.7887 6.70828 20.8287L6.56828 20.9587C6.52828 21.0087 6.47828 21.0587 6.43828 21.1087C6.39828 21.1687 6.35828 21.2187 6.32828 21.2787C6.29828 21.3287 6.25828 21.3787 6.23828 21.4487C6.19828 21.5087 6.16828 21.5687 6.14828 21.6287C6.13828 21.6887 6.11828 21.7487 6.08828 21.8087C6.08828 21.8787 6.05828 21.9387 6.05828 21.9987C6.04828 22.0187 6.04828 22.0287 6.04828 22.0487C6.03828 22.0987 6.02828 22.1487 6.03828 22.1987C5.85828 24.8387 6.20828 27.3887 7.09828 29.8787C8.00828 32.4387 9.43828 34.7087 11.3483 36.6887C13.1483 38.5387 15.2183 39.9587 17.5683 40.9687C19.8483 41.9187 22.2083 42.4187 24.6983 42.4687C27.1783 42.4987 29.5583 42.0687 31.8683 41.1887C34.1583 40.2887 36.1983 39.0087 37.9983 37.3187L37.8683 40.7287C37.8683 40.7587 37.8683 40.7987 37.8683 40.8287C37.8683 40.8587 37.8783 40.8887 37.8683 40.9287C37.8783 40.9887 37.8883 41.0587 37.8983 41.1187C37.9083 41.1787 37.9183 41.2487 37.9383 41.3087C37.9583 41.3687 37.9783 41.4287 37.9883 41.4987C38.0183 41.5587 38.0483 41.6287 38.0783 41.6787C38.1083 41.7387 38.1283 41.7987 38.1683 41.8487C38.2083 41.9087 38.2383 41.9587 38.2883 42.0087C38.3183 42.0687 38.3583 42.1187 38.4083 42.1587C38.4483 42.2087 38.4983 42.2487 38.5483 42.2987C38.5883 42.3487 38.6483 42.3887 38.6983 42.4187C38.7583 42.4587 38.8083 42.4887 38.8683 42.5287L39.0383 42.6187L39.2183 42.6887C39.2783 42.7087 39.3483 42.7287 39.4083 42.7487C39.4783 42.7587 39.5383 42.7687 39.6083 42.7787C39.6683 42.7987 39.7383 42.7987 39.7983 42.7987L39.7983 42.7987C39.8683 42.7987 39.9283 42.7987 39.9983 42.7987C40.0583 42.7887 40.1283 42.7787 40.1883 42.7687C40.2583 42.7687 40.3183 42.7487 40.3783 42.7287C40.4483 42.7087 40.5083 42.6987 40.5683 42.6787L40.7583 42.5887C40.8083 42.5687 40.8683 42.5387 40.9183 42.4987C40.9783 42.4687 41.0283 42.4287 41.0783 42.3987C41.1383 42.3487 41.1883 42.3087 41.2383 42.2587C41.2783 42.2187 41.3283 42.1787 41.3683 42.1287C41.4183 42.0787 41.4583 42.0287 41.4983 41.9687C41.5283 41.9187 41.5683 41.8587 41.6083 41.8087C41.6383 41.7587 41.6683 41.6987 41.6883 41.6387C41.7183 41.5687 41.7483 41.5087 41.7683 41.4487C41.7883 41.3887 41.7983 41.3187 41.8183 41.2587C41.8383 41.1987 41.8483 41.1287 41.8483 41.0687C41.8583 40.9987 41.8683 40.9387 41.8683 40.8687L42.0983 34.5787C42.1183 34.0487 42.0383 33.5387 41.8383 33.0387C41.6583 32.5387 41.3883 32.0987 41.0183 31.7187C40.6683 31.3187 40.2483 31.0187 39.7683 30.7987C39.2783 30.5687 38.7783 30.4487 38.2483 30.4387L31.9483 30.2087C31.8783 30.1987 31.8183 30.1987 31.7483 30.2087C31.6883 30.2087 31.6183 30.2087 31.5583 30.2287C31.4983 30.2387 31.4283 30.2487 31.3683 30.2587C31.3083 30.2787 31.2483 30.2987 31.1783 30.3287C31.1183 30.3487 31.0483 30.3687 30.9983 30.3987C30.9383 30.4287 30.8783 30.4687 30.8283 30.4987C30.7683 30.5287 30.7183 30.5687 30.6683 30.6087C30.6083 30.6487 30.5583 30.6987 30.5183 30.7287C30.4683 30.7787 30.4283 30.8287 30.3783 30.8787C30.3283 30.9287 30.2883 30.9787 30.2583 31.0287C30.2183 31.0787 30.1883 31.1387 30.1483 31.1887L30.0583 31.3687C30.0383 31.4287 30.0083 31.4887 29.9883 31.5587C29.9683 31.6087 29.9483 31.6687 29.9283 31.7387C29.9183 31.7987 29.9083 31.8687 29.8983 31.9287C29.8783 31.9987 29.8783 32.0587 29.8783 32.1287C29.8783 32.1887 29.8783 32.2587 29.8783 32.3187C29.8883 32.3887 29.8983 32.4487 29.9083 32.5187C29.9083 32.5787 29.9283 32.6487 29.9483 32.7087L29.9983 32.8987L30.0883 33.0787C30.1083 33.1387 30.1383 33.1887 30.1783 33.2487C30.2083 33.2987 30.2483 33.3687 30.2783 33.4187C30.3283 33.4687 30.3683 33.5187 30.4183 33.5587C30.4583 33.6087 30.4983 33.6587 30.5483 33.6987C30.5983 33.7487 30.6483 33.7787 30.7083 33.8187C30.7583 33.8587 30.8183 33.8987 30.8783 33.9287C30.9183 33.9587 30.9783 33.9887 31.0383 34.0287C31.1083 34.0487 31.1683 34.0687 31.2283 34.0887ZM9.21828 5.20872C9.14828 5.19872 9.08828 5.19872 9.01828 5.18872C8.94828 5.18872 8.88828 5.18872 8.81828 5.19872C8.75828 5.18872 8.68828 5.19872 8.62828 5.21872C8.56828 5.22872 8.49828 5.22872 8.43828 5.24872C8.37828 5.26872 8.31828 5.28872 8.24828 5.31872C8.18828 5.32872 8.12828 5.35872 8.07828 5.38872C8.01828 5.41872 7.94828 5.45872 7.89828 5.47872C7.83828 5.51872 7.78828 5.55872 7.73828 5.59872C7.68828 5.63872 7.63828 5.67872 7.58828 5.71872C7.53828 5.76872 7.49828 5.81872 7.44828 5.86872C7.40828 5.91872 7.35828 5.95872 7.32828 6.01872C7.28828 6.06872 7.25828 6.12872 7.22828 6.17872C7.18828 6.23872 7.15828 6.29872 7.12828 6.35872C7.10828 6.40872 7.08828 6.46872 7.05828 6.53872C7.03828 6.59872 7.01828 6.65872 7.00828 6.72872C6.98828 6.78872 6.97828 6.85872 6.96828 6.91872C6.95828 6.98872 6.95828 7.04872 6.94828 7.11872L6.71828 13.4187C6.69828 13.9587 6.78828 14.4787 6.98828 14.9887C7.16828 15.4687 7.43828 15.8987 7.78828 16.2887C8.14828 16.6587 8.54828 16.9587 9.02828 17.1787C9.51828 17.4087 10.0283 17.5387 10.5683 17.5587L16.8683 17.7887C16.9383 17.7887 16.9983 17.7887 17.0683 17.7887C17.1283 17.7787 17.1983 17.7687 17.2583 17.7587C17.3283 17.7487 17.3883 17.7387 17.4483 17.7187C17.5183 17.6987 17.5783 17.6787 17.6483 17.6687L17.8283 17.5787C17.8783 17.5487 17.9383 17.5287 17.9883 17.4887C18.0483 17.4587 18.0983 17.4187 18.1583 17.3787C18.2083 17.3387 18.2583 17.2987 18.3083 17.2487C18.3483 17.2087 18.3983 17.1587 18.4483 17.1187C18.4883 17.0687 18.5283 17.0187 18.5683 16.9587C18.5983 16.9087 18.6483 16.8487 18.6783 16.7887C18.7083 16.7387 18.7383 16.6887 18.7583 16.6287C18.7983 16.5587 18.8183 16.4987 18.8383 16.4387C18.8583 16.3787 18.8783 16.3087 18.8883 16.2487C18.9083 16.1887 18.9183 16.1187 18.9183 16.0587C18.9383 15.9887 18.9383 15.9287 18.9383 15.8587C18.9383 15.7887 18.9483 15.7287 18.9383 15.6587C18.9383 15.5987 18.9283 15.5287 18.9183 15.4687C18.9083 15.4087 18.8983 15.3387 18.8783 15.2787C18.8683 15.2187 18.8483 15.1587 18.8183 15.0887C18.7983 15.0287 18.7683 14.9687 18.7483 14.9087C18.7183 14.8487 18.6783 14.7887 18.6483 14.7387C18.6083 14.6787 18.5783 14.6287 18.5383 14.5787C18.4983 14.5287 18.4483 14.4687 18.4083 14.4287C18.3683 14.3787 18.3183 14.3387 18.2683 14.2887C18.2183 14.2387 18.1683 14.1987 18.1083 14.1687C18.0583 14.1287 18.0083 14.0987 17.9583 14.0687L17.7783 13.9687C17.7183 13.9487 17.6583 13.9187 17.5883 13.8987C17.5283 13.8787 17.4683 13.8587 17.3983 13.8387C17.3383 13.8287 17.2783 13.8187 17.2183 13.8087C17.1483 13.7987 17.0883 13.7887 17.0183 13.7887L13.4883 13.6587C14.9283 12.2887 16.5683 11.2487 18.4083 10.5387C20.2183 9.83872 22.1083 9.49872 24.0683 9.52872C26.0283 9.55872 27.8983 9.95872 29.6883 10.7187C31.5483 11.4987 33.1783 12.6187 34.5983 14.0887C36.1783 15.7187 37.3383 17.5987 38.0483 19.7287C38.7383 21.7887 38.9783 23.8987 38.7483 26.0787L42.7383 26.4787C42.8783 25.1387 42.8683 23.7787 42.7183 22.4287C42.5683 21.0687 42.2683 19.7487 41.8383 18.4487C40.9283 15.7387 39.4683 13.3687 37.4783 11.2987C35.6783 9.44872 33.6083 8.02872 31.2583 7.02872C28.9783 6.06872 26.6083 5.56872 24.1283 5.51872C21.6483 5.48872 19.2683 5.91872 16.9583 6.80872C14.6683 7.69872 12.6283 8.98872 10.8283 10.6787L10.9483 7.26872C10.9483 7.19872 10.9483 7.13872 10.9483 7.06872C10.9383 6.99872 10.9283 6.92872 10.9183 6.86872C10.9183 6.79872 10.8983 6.73872 10.8783 6.67872C10.8583 6.60872 10.8483 6.54872 10.8283 6.48872L10.7383 6.30872C10.7183 6.25872 10.6883 6.19872 10.6483 6.13872C10.6183 6.07872 10.5783 6.02872 10.5483 5.97872C10.4983 5.92872 10.4583 5.87872 10.4083 5.81872C10.3683 5.77872 10.3283 5.72872 10.2783 5.68872C10.2283 5.64872 10.1783 5.60872 10.1183 5.55872C10.0683 5.52872 10.0083 5.48872 9.95828 5.45872C9.90828 5.42872 9.84828 5.38872 9.78828 5.36872C9.71828 5.33872 9.65828 5.31872 9.59828 5.28872C9.53828 5.26872 9.46828 5.25872 9.40828 5.24872C9.34828 5.22872 9.27828 5.20872 9.21828 5.20872Z" fill-rule="evenodd"  fill="#000000" >
</path>
</svg>
