<svg xmlns="http://www.w3.org/2000/svg" xmlns:xlink="http://www.w3.org/1999/xlink" width="48" height="48" viewBox="0 0 48 48" fill="none">
<path d="M31.195 41.99C31.265 41.98 31.325 41.97 31.395 41.96C31.455 41.95 31.515 41.93 31.585 41.91C31.645 41.89 31.705 41.87 31.765 41.85C31.825 41.82 31.885 41.79 31.945 41.76C32.005 41.73 32.055 41.7 32.115 41.66C32.165 41.63 32.215 41.59 32.265 41.55C32.315 41.5 32.365 41.46 32.415 41.41C32.465 41.37 32.505 41.32 32.545 41.27C32.585 41.22 32.625 41.17 32.665 41.11C32.695 41.06 32.735 41 32.765 40.94C32.795 40.89 32.825 40.83 32.845 40.77C32.875 40.7 32.895 40.64 32.915 40.58C32.935 40.52 32.945 40.45 32.965 40.39C32.975 40.33 32.985 40.26 32.995 40.2C32.995 40.13 33.005 40.07 33.005 40C33.005 39.93 32.995 39.87 32.995 39.8C32.985 39.74 32.975 39.67 32.965 39.61C32.945 39.55 32.935 39.48 32.915 39.42C32.895 39.36 32.875 39.3 32.845 39.23C32.825 39.17 32.795 39.11 32.765 39.06C32.735 39 32.695 38.94 32.665 38.89C32.625 38.83 32.585 38.78 32.545 38.73C32.505 38.68 32.465 38.63 32.415 38.59L17.825 24L32.415 9.41C32.465 9.37 32.505 9.32 32.545 9.27C32.585 9.22 32.625 9.17 32.665 9.11C32.695 9.06 32.735 9 32.765 8.94C32.795 8.89 32.825 8.83 32.845 8.77C32.875 8.7 32.895 8.64 32.915 8.58C32.935 8.52 32.945 8.45 32.965 8.39C32.975 8.33 32.985 8.26 32.995 8.2C32.995 8.13 33.005 8.07 33.005 8C33.005 7.93 32.995 7.87 32.995 7.8C32.985 7.74 32.975 7.67 32.965 7.61C32.945 7.55 32.935 7.48 32.915 7.42C32.895 7.36 32.875 7.3 32.845 7.23C32.825 7.17 32.795 7.11 32.765 7.06C32.735 7 32.695 6.94 32.665 6.89C32.625 6.83 32.585 6.78 32.545 6.73C32.505 6.68 32.465 6.63 32.415 6.59C32.365 6.54 32.315 6.5 32.265 6.45C32.215 6.41 32.165 6.37 32.115 6.34C32.055 6.3 32.005 6.27 31.945 6.24C31.885 6.21 31.825 6.18 31.765 6.15C31.705 6.13 31.645 6.11 31.585 6.09C31.515 6.07 31.455 6.05 31.395 6.04C31.325 6.03 31.265 6.02 31.195 6.01C31.135 6 31.065 6 31.005 6C30.935 6 30.865 6 30.805 6.01C30.735 6.02 30.675 6.03 30.605 6.04C30.545 6.05 30.485 6.07 30.415 6.09C30.355 6.11 30.295 6.13 30.235 6.15C30.175 6.18 30.115 6.21 30.055 6.24C29.995 6.27 29.945 6.3 29.885 6.34C29.835 6.37 29.785 6.41 29.735 6.45C29.685 6.5 29.635 6.54 29.585 6.59L14.995 21.18C14.615 21.56 14.325 22 14.115 22.5C13.925 22.98 13.825 23.48 13.825 24C13.825 24.52 13.925 25.02 14.115 25.5C14.325 26 14.615 26.44 14.995 26.82L29.585 41.41C29.635 41.46 29.685 41.5 29.735 41.55C29.785 41.59 29.835 41.63 29.885 41.66C29.945 41.7 29.995 41.73 30.055 41.76C30.115 41.79 30.175 41.82 30.235 41.85C30.295 41.87 30.355 41.89 30.415 41.91C30.485 41.93 30.545 41.95 30.605 41.96C30.675 41.97 30.735 41.98 30.805 41.99C30.865 42 30.935 42 31.005 42C31.065 42 31.135 42 31.195 41.99Z"   fill="#000000" >
</path>
</svg>
