<svg xmlns="http://www.w3.org/2000/svg" xmlns:xlink="http://www.w3.org/1999/xlink" width="48" height="48" viewBox="0 0 48 48" fill="none">
<path d="M15.24 7.06C15.21 7.11 15.18 7.17 15.15 7.23C15.13 7.3 15.11 7.36 15.09 7.42C15.07 7.48 15.05 7.55 15.04 7.61C15.03 7.67 15.02 7.74 15.01 7.8C15 7.87 15 7.93 15 8C15 8.07 15 8.13 15.01 8.2C15.02 8.26 15.03 8.33 15.04 8.39C15.05 8.45 15.07 8.52 15.09 8.58C15.11 8.64 15.13 8.7 15.15 8.77C15.18 8.83 15.21 8.89 15.24 8.94C15.27 9 15.3 9.06 15.34 9.11C15.37 9.17 15.41 9.22 15.45 9.27C15.5 9.32 15.54 9.37 15.59 9.41L30.17 24L15.59 38.59C15.54 38.63 15.5 38.68 15.45 38.73C15.41 38.78 15.37 38.83 15.34 38.89C15.3 38.94 15.27 39 15.24 39.06C15.21 39.11 15.18 39.17 15.15 39.23C15.13 39.3 15.11 39.36 15.09 39.42C15.07 39.48 15.05 39.55 15.04 39.61C15.03 39.67 15.02 39.74 15.01 39.8C15 39.87 15 39.93 15 40C15 40.07 15 40.13 15.01 40.2C15.02 40.26 15.03 40.33 15.04 40.39C15.05 40.45 15.07 40.52 15.09 40.58C15.11 40.64 15.13 40.7 15.15 40.77C15.18 40.83 15.21 40.89 15.24 40.94C15.27 41 15.3 41.06 15.34 41.11C15.37 41.17 15.41 41.22 15.45 41.27C15.5 41.32 15.54 41.37 15.59 41.41C15.68 41.51 15.78 41.59 15.89 41.66C16 41.74 16.11 41.8 16.23 41.85C16.36 41.9 16.48 41.94 16.61 41.96C16.74 41.99 16.87 42 17 42C17.13 42 17.26 41.99 17.39 41.96C17.52 41.94 17.64 41.9 17.77 41.85C17.89 41.8 18 41.74 18.11 41.66C18.22 41.59 18.32 41.51 18.41 41.41L33 26.82C33.39 26.44 33.68 26 33.88 25.5C34.08 25.02 34.18 24.52 34.18 24C34.18 23.48 34.08 22.98 33.88 22.5C33.68 22 33.39 21.56 33 21.18L18.41 6.59C18.37 6.54 18.32 6.5 18.27 6.45C18.22 6.41 18.17 6.37 18.11 6.34C18.06 6.3 18 6.27 17.94 6.24C17.89 6.21 17.83 6.18 17.77 6.15C17.7 6.13 17.64 6.11 17.58 6.09C17.52 6.07 17.45 6.05 17.39 6.04C17.33 6.03 17.26 6.02 17.2 6.01C17.13 6 17.07 6 17 6C16.93 6 16.87 6 16.8 6.01C16.74 6.02 16.67 6.03 16.61 6.04C16.55 6.05 16.48 6.07 16.42 6.09C16.36 6.11 16.3 6.13 16.23 6.15C16.17 6.18 16.11 6.21 16.06 6.24C16 6.27 15.94 6.3 15.89 6.34C15.83 6.37 15.78 6.41 15.73 6.45C15.68 6.5 15.63 6.54 15.59 6.59C15.54 6.63 15.5 6.68 15.45 6.73C15.41 6.78 15.37 6.83 15.34 6.89C15.3 6.94 15.27 7 15.24 7.06Z"   fill="#000000" >
</path>
</svg>
