<svg xmlns="http://www.w3.org/2000/svg" xmlns:xlink="http://www.w3.org/1999/xlink" width="48" height="48" viewBox="0 0 48 48" fill="none">
<path d="M28.41 6.59C28.37 6.54 28.32 6.5 28.27 6.45C28.22 6.41 28.17 6.37 28.11 6.34C28.06 6.3 28 6.27 27.94 6.24C27.89 6.21 27.83 6.18 27.77 6.15C27.7 6.13 27.64 6.11 27.58 6.09C27.52 6.07 27.45 6.05 27.39 6.04C27.33 6.03 27.26 6.02 27.2 6.01C27.13 6 27.07 6 27 6C26.93 6 26.87 6 26.8 6.01C26.74 6.02 26.67 6.03 26.61 6.04C26.55 6.05 26.48 6.07 26.42 6.09C26.36 6.11 26.3 6.13 26.23 6.15C26.17 6.18 26.11 6.21 26.06 6.24C26 6.27 25.94 6.3 25.89 6.34C25.83 6.37 25.78 6.41 25.73 6.45C25.68 6.5 25.63 6.54 25.59 6.59C25.54 6.63 25.5 6.68 25.45 6.73C25.41 6.78 25.37 6.83 25.34 6.89C25.3 6.94 25.27 7 25.24 7.06C25.21 7.11 25.18 7.17 25.15 7.23C25.13 7.3 25.11 7.36 25.09 7.42C25.07 7.48 25.05 7.55 25.04 7.61C25.03 7.67 25.02 7.74 25.01 7.8C25 7.87 25 7.93 25 8C25 8.07 25 8.13 25.01 8.2C25.02 8.26 25.03 8.33 25.04 8.39C25.05 8.45 25.07 8.52 25.09 8.58C25.11 8.64 25.13 8.7 25.15 8.77C25.18 8.83 25.21 8.89 25.24 8.94C25.27 9 25.3 9.06 25.34 9.11C25.37 9.17 25.41 9.22 25.45 9.27C25.5 9.32 25.54 9.37 25.59 9.41L38.17 22L6 22C5.93 22 5.87 22 5.8 22.01C5.74 22.02 5.67 22.03 5.61 22.04C5.55 22.05 5.48 22.07 5.42 22.09C5.36 22.11 5.3 22.13 5.23 22.15C5.17 22.18 5.11 22.21 5.06 22.24C5 22.27 4.94 22.3 4.89 22.34C4.83 22.37 4.78 22.41 4.73 22.45C4.68 22.5 4.63 22.54 4.59 22.59C4.54 22.63 4.5 22.68 4.45 22.73C4.41 22.78 4.37 22.83 4.34 22.89C4.3 22.94 4.27 23 4.24 23.06C4.21 23.11 4.18 23.17 4.15 23.23C4.13 23.3 4.11 23.36 4.09 23.42C4.07 23.48 4.05 23.55 4.04 23.61C4.03 23.67 4.02 23.74 4.01 23.8C4 23.87 4 23.93 4 24C4 24.07 4 24.13 4.01 24.2C4.02 24.26 4.03 24.33 4.04 24.39C4.05 24.45 4.07 24.52 4.09 24.58C4.11 24.64 4.13 24.7 4.15 24.77C4.18 24.83 4.21 24.89 4.24 24.94C4.27 25 4.3 25.06 4.34 25.11C4.37 25.17 4.41 25.22 4.45 25.27C4.5 25.32 4.54 25.37 4.59 25.41C4.63 25.46 4.68 25.5 4.73 25.55C4.78 25.59 4.83 25.63 4.89 25.66C4.94 25.7 5 25.73 5.06 25.76C5.11 25.79 5.17 25.82 5.23 25.85C5.3 25.87 5.36 25.89 5.42 25.91C5.48 25.93 5.55 25.95 5.61 25.96C5.67 25.97 5.74 25.98 5.8 25.99C5.87 26 5.93 26 6 26L38.17 26L25.59 38.59C25.54 38.63 25.5 38.68 25.45 38.73C25.41 38.78 25.37 38.83 25.34 38.89C25.3 38.94 25.27 39 25.24 39.06C25.21 39.11 25.18 39.17 25.15 39.23C25.13 39.3 25.11 39.36 25.09 39.42C25.07 39.48 25.05 39.55 25.04 39.61C25.03 39.67 25.02 39.74 25.01 39.8C25 39.87 25 39.93 25 40C25 40.07 25 40.13 25.01 40.2C25.02 40.26 25.03 40.33 25.04 40.39C25.05 40.45 25.07 40.52 25.09 40.58C25.11 40.64 25.13 40.7 25.15 40.77C25.18 40.83 25.21 40.89 25.24 40.94C25.27 41 25.3 41.06 25.34 41.11C25.37 41.17 25.41 41.22 25.45 41.27C25.5 41.32 25.54 41.37 25.59 41.41C25.68 41.51 25.78 41.59 25.89 41.66C26 41.74 26.11 41.8 26.23 41.85C26.36 41.9 26.48 41.94 26.61 41.96C26.74 41.99 26.87 42 27 42C27.13 42 27.26 41.99 27.39 41.96C27.52 41.94 27.64 41.9 27.77 41.85C27.89 41.8 28 41.74 28.11 41.66C28.22 41.59 28.32 41.51 28.41 41.41L43 26.82C43.39 26.44 43.68 26 43.88 25.5C44.08 25.02 44.18 24.52 44.18 24C44.18 23.48 44.08 22.98 43.88 22.5C43.68 22 43.39 21.56 43 21.18L28.41 6.59Z"   fill="#000000" >
</path>
</svg>
