<svg xmlns="http://www.w3.org/2000/svg" xmlns:xlink="http://www.w3.org/1999/xlink" width="48" height="48" viewBox="0 0 48 48" fill="none">
<path d="M41.55 15.73C41.5 15.68 41.46 15.63 41.41 15.59C41.37 15.54 41.32 15.5 41.27 15.45C41.22 15.41 41.17 15.37 41.11 15.34C41.06 15.3 41 15.27 40.94 15.24C40.89 15.21 40.83 15.18 40.77 15.15C40.7 15.13 40.64 15.11 40.58 15.09C40.52 15.07 40.45 15.05 40.39 15.04C40.33 15.03 40.26 15.02 40.2 15.01C40.13 15 40.07 15 40 15C39.93 15 39.87 15 39.8 15.01C39.74 15.02 39.67 15.03 39.61 15.04C39.55 15.05 39.48 15.07 39.42 15.09C39.36 15.11 39.3 15.13 39.23 15.15C39.17 15.18 39.11 15.21 39.06 15.24C39 15.27 38.94 15.3 38.89 15.34C38.83 15.37 38.78 15.41 38.73 15.45C38.68 15.5 38.63 15.54 38.59 15.59L24 30.17L9.41 15.59C9.37 15.54 9.32 15.5 9.27 15.45C9.22 15.41 9.17 15.37 9.11 15.34C9.06 15.3 9 15.27 8.94 15.24C8.89 15.21 8.83 15.18 8.77 15.15C8.7 15.13 8.64 15.11 8.58 15.09C8.52 15.07 8.45 15.05 8.39 15.04C8.33 15.03 8.26 15.02 8.2 15.01C8.13 15 8.07 15 8 15C7.93 15 7.87 15 7.8 15.01C7.74 15.02 7.67 15.03 7.61 15.04C7.55 15.05 7.48 15.07 7.42 15.09C7.36 15.11 7.3 15.13 7.23 15.15C7.17 15.18 7.11 15.21 7.06 15.24C7 15.27 6.94 15.3 6.89 15.34C6.83 15.37 6.78 15.41 6.73 15.45C6.68 15.5 6.63 15.54 6.59 15.59C6.49 15.68 6.41 15.78 6.34 15.89C6.26 16 6.2 16.11 6.15 16.23C6.1 16.36 6.06 16.48 6.04 16.61C6.01 16.74 6 16.87 6 17C6 17.13 6.01 17.26 6.04 17.39C6.06 17.52 6.1 17.64 6.15 17.77C6.2 17.89 6.26 18 6.34 18.11C6.41 18.22 6.49 18.32 6.59 18.41L21.18 33C21.56 33.39 22 33.68 22.5 33.88C22.98 34.08 23.48 34.18 24 34.18C24.52 34.18 25.02 34.08 25.5 33.88C26 33.68 26.44 33.39 26.82 33L41.41 18.41C41.46 18.37 41.5 18.32 41.55 18.27C41.59 18.22 41.63 18.17 41.66 18.11C41.7 18.06 41.73 18 41.76 17.94C41.79 17.89 41.82 17.83 41.85 17.77C41.87 17.7 41.89 17.64 41.91 17.58C41.93 17.52 41.95 17.45 41.96 17.39C41.97 17.33 41.98 17.26 41.99 17.2C42 17.13 42 17.07 42 17C42 16.93 42 16.87 41.99 16.8C41.98 16.74 41.97 16.67 41.96 16.61C41.95 16.55 41.93 16.48 41.91 16.42C41.89 16.36 41.87 16.3 41.85 16.23C41.82 16.17 41.79 16.11 41.76 16.06C41.73 16 41.7 15.94 41.66 15.89C41.63 15.83 41.59 15.78 41.55 15.73Z"   fill="#000000" >
</path>
</svg>
