<svg xmlns="http://www.w3.org/2000/svg" xmlns:xlink="http://www.w3.org/1999/xlink" width="48" height="48" viewBox="0 0 48 48" fill="none">
<path d="M41.56 43.68C42.04 43.48 42.46 43.19 42.83 42.83C43.19 42.46 43.48 42.04 43.68 41.56C43.89 41.06 44 40.54 44 40L44 19C44 18.93 44 18.87 43.99 18.8C43.98 18.74 43.97 18.67 43.96 18.61C43.95 18.55 43.93 18.48 43.91 18.42C43.89 18.36 43.87 18.3 43.85 18.23C43.82 18.17 43.79 18.11 43.76 18.06C43.73 18 43.7 17.94 43.66 17.89C43.63 17.83 43.59 17.78 43.55 17.73C43.5 17.68 43.46 17.63 43.41 17.59C43.37 17.54 43.32 17.5 43.27 17.45C43.22 17.41 43.17 17.37 43.11 17.34C43.06 17.3 43 17.27 42.94 17.24C42.89 17.21 42.83 17.18 42.77 17.15C42.7 17.13 42.64 17.11 42.58 17.09C42.52 17.07 42.45 17.05 42.39 17.04C42.33 17.03 42.26 17.02 42.2 17.01C42.13 17 42.07 17 42 17C41.93 17 41.87 17 41.8 17.01C41.74 17.02 41.67 17.03 41.61 17.04C41.55 17.05 41.48 17.07 41.42 17.09C41.36 17.11 41.3 17.13 41.23 17.15C41.17 17.18 41.12 17.21 41.06 17.24C41 17.27 40.94 17.3 40.89 17.34C40.83 17.37 40.78 17.41 40.73 17.45C40.68 17.5 40.63 17.54 40.59 17.59C40.54 17.63 40.5 17.68 40.45 17.73C40.41 17.78 40.37 17.83 40.34 17.89C40.3 17.94 40.27 18 40.24 18.06C40.21 18.11 40.18 18.17 40.15 18.23C40.13 18.3 40.11 18.36 40.09 18.42C40.07 18.48 40.05 18.55 40.04 18.61C40.03 18.67 40.02 18.74 40.01 18.8C40 18.87 40 18.93 40 19L40 37.18L7.41 4.59C7.37 4.54 7.32 4.5 7.27 4.45C7.22 4.41 7.17 4.37 7.11 4.34C7.06 4.3 7 4.27 6.94 4.24C6.89 4.21 6.83 4.18 6.77 4.15C6.7 4.13 6.64 4.11 6.58 4.09C6.52 4.07 6.45 4.05 6.39 4.04C6.33 4.03 6.26 4.02 6.2 4.01C6.13 4 6.07 4 6 4C5.93 4 5.87 4 5.8 4.01C5.74 4.02 5.67 4.03 5.61 4.04C5.55 4.05 5.48 4.07 5.42 4.09C5.36 4.11 5.3 4.13 5.23 4.15C5.17 4.18 5.11 4.21 5.06 4.24C5 4.27 4.94 4.3 4.89 4.34C4.83 4.37 4.78 4.41 4.73 4.45C4.68 4.5 4.63 4.54 4.59 4.59C4.54 4.63 4.5 4.68 4.45 4.73C4.41 4.78 4.37 4.83 4.34 4.89C4.3 4.94 4.27 5 4.24 5.06C4.21 5.11 4.18 5.17 4.15 5.23C4.13 5.3 4.11 5.36 4.09 5.42C4.07 5.48 4.05 5.55 4.04 5.61C4.03 5.67 4.02 5.74 4.01 5.8C4 5.87 4 5.93 4 6C4 6.07 4 6.13 4.01 6.2C4.02 6.26 4.03 6.33 4.04 6.39C4.05 6.45 4.07 6.52 4.09 6.58C4.11 6.64 4.13 6.7 4.15 6.77C4.18 6.83 4.21 6.89 4.24 6.94C4.27 7 4.3 7.06 4.34 7.11C4.37 7.17 4.41 7.22 4.45 7.27C4.5 7.32 4.54 7.37 4.59 7.41L37.18 40L19 40C18.93 40 18.87 40 18.8 40.01C18.74 40.02 18.67 40.03 18.61 40.04C18.55 40.05 18.48 40.07 18.42 40.09C18.36 40.11 18.3 40.13 18.23 40.15C18.17 40.18 18.11 40.21 18.06 40.24C18 40.27 17.94 40.3 17.89 40.34C17.83 40.37 17.78 40.41 17.73 40.45C17.68 40.5 17.63 40.54 17.59 40.59C17.54 40.63 17.5 40.68 17.45 40.73C17.41 40.78 17.37 40.83 17.34 40.89C17.3 40.94 17.27 41 17.24 41.06C17.21 41.12 17.18 41.17 17.15 41.23C17.13 41.3 17.11 41.36 17.09 41.42C17.07 41.48 17.05 41.55 17.04 41.61C17.03 41.67 17.02 41.74 17.01 41.8C17 41.87 17 41.93 17 42C17 42.07 17 42.13 17.01 42.2C17.02 42.26 17.03 42.33 17.04 42.39C17.05 42.45 17.07 42.52 17.09 42.58C17.11 42.64 17.13 42.7 17.15 42.77C17.18 42.83 17.21 42.89 17.24 42.94C17.27 43 17.3 43.06 17.34 43.11C17.37 43.17 17.41 43.22 17.45 43.27C17.5 43.32 17.54 43.37 17.59 43.41C17.63 43.46 17.68 43.5 17.73 43.55C17.78 43.59 17.83 43.63 17.89 43.66C17.94 43.7 18 43.73 18.06 43.76C18.11 43.79 18.17 43.82 18.23 43.85C18.3 43.87 18.36 43.89 18.42 43.91C18.48 43.93 18.55 43.95 18.61 43.96C18.67 43.97 18.74 43.98 18.8 43.99C18.87 44 18.93 44 19 44L40 44C40.54 44 41.06 43.89 41.56 43.68Z"   fill="#000000" >
</path>
</svg>
