<svg xmlns="http://www.w3.org/2000/svg" xmlns:xlink="http://www.w3.org/1999/xlink" width="48" height="48" viewBox="0 0 48 48" fill="none">
<path d="M41.99 21.455C42 21.375 42 21.315 42 21.245C42 21.175 42 21.125 41.99 21.045C41.98 20.995 41.97 20.915 41.96 20.855C41.95 20.795 41.93 20.725 41.91 20.665C41.89 20.615 41.87 20.555 41.85 20.485C41.82 20.425 41.79 20.365 41.76 20.315C41.73 20.255 41.7 20.185 41.66 20.135C41.63 20.085 41.59 20.025 41.55 19.975C41.5 19.925 41.46 19.875 41.41 19.845L26.82 5.24501C26.44 4.86501 26 4.56501 25.5 4.37501C25.02 4.16501 24.52 4.06501 24 4.06501C23.48 4.06501 22.98 4.16501 22.5 4.37501C22 4.56501 21.56 4.86501 21.18 5.24501L6.59 19.845C6.54 19.875 6.5 19.925 6.45 19.975C6.41 20.025 6.37 20.085 6.34 20.135C6.3 20.185 6.27 20.255 6.24 20.315C6.21 20.365 6.18 20.425 6.15 20.485C6.13 20.555 6.11 20.615 6.09 20.665C6.07 20.725 6.05 20.795 6.04 20.855C6.03 20.915 6.02 20.995 6.01 21.045C6 21.125 6 21.175 6 21.245C6 21.315 6 21.375 6.01 21.455C6.02 21.505 6.03 21.585 6.04 21.645C6.05 21.695 6.07 21.765 6.09 21.825C6.11 21.885 6.13 21.945 6.15 22.015C6.18 22.075 6.21 22.145 6.24 22.185C6.27 22.245 6.3 22.305 6.34 22.365C6.37 22.415 6.41 22.475 6.45 22.515C6.5 22.575 6.54 22.615 6.59 22.655C6.63 22.705 6.68 22.755 6.73 22.805C6.78 22.845 6.83 22.875 6.89 22.905C6.94 22.945 7 22.975 7.06 23.005C7.11 23.035 7.17 23.075 7.23 23.095C7.3 23.115 7.36 23.145 7.42 23.155C7.48 23.175 7.55 23.195 7.61 23.205C7.67 23.215 7.74 23.225 7.8 23.235C7.87 23.245 7.93 23.245 8 23.245C8.07 23.245 8.13 23.245 8.2 23.235C8.26 23.225 8.33 23.215 8.39 23.205C8.45 23.195 8.52 23.175 8.58 23.155C8.64 23.145 8.7 23.115 8.77 23.095C8.83 23.075 8.89 23.035 8.94 23.005C9 22.975 9.06 22.945 9.11 22.905C9.17 22.875 9.22 22.845 9.27 22.805C9.32 22.755 9.37 22.705 9.41 22.655L22 10.075L22 41.995C22 42.065 22 42.125 22.01 42.205C22.02 42.265 22.03 42.325 22.04 42.385C22.05 42.455 22.07 42.515 22.09 42.585C22.11 42.645 22.13 42.705 22.15 42.765C22.18 42.835 22.21 42.885 22.24 42.935C22.27 42.995 22.3 43.055 22.34 43.105C22.37 43.175 22.41 43.215 22.46 43.265C22.5 43.315 22.54 43.375 22.59 43.415C22.63 43.465 22.68 43.495 22.73 43.545C22.78 43.585 22.84 43.635 22.89 43.665C22.94 43.705 23 43.725 23.06 43.755L23.24 43.855L23.42 43.915C23.48 43.925 23.55 43.955 23.61 43.955C23.68 43.965 23.74 43.975 23.81 43.985C23.87 43.995 23.94 43.995 24 43.995C24.13 43.995 24.26 43.985 24.39 43.955C24.52 43.935 24.65 43.905 24.77 43.855C24.89 43.795 25 43.745 25.11 43.665C25.22 43.595 25.32 43.515 25.42 43.415C25.51 43.315 25.59 43.215 25.66 43.105C25.74 42.995 25.8 42.885 25.85 42.765C25.9 42.635 25.94 42.515 25.96 42.385C25.99 42.255 26 42.125 26 41.995L26 10.075L38.59 22.655C38.63 22.705 38.68 22.755 38.73 22.805C38.78 22.845 38.83 22.875 38.89 22.905C38.94 22.945 39 22.975 39.06 23.005C39.11 23.035 39.17 23.075 39.23 23.095C39.3 23.115 39.36 23.145 39.42 23.155C39.48 23.175 39.55 23.195 39.61 23.205C39.67 23.215 39.74 23.225 39.8 23.235C39.87 23.245 39.93 23.245 40 23.245C40.07 23.245 40.13 23.245 40.2 23.235C40.26 23.225 40.33 23.215 40.39 23.205C40.45 23.195 40.52 23.175 40.58 23.155C40.64 23.145 40.7 23.115 40.77 23.095C40.83 23.075 40.89 23.035 40.94 23.005C41 22.975 41.06 22.945 41.11 22.905C41.17 22.875 41.22 22.845 41.27 22.805C41.32 22.755 41.37 22.705 41.41 22.655C41.46 22.615 41.5 22.575 41.55 22.515C41.59 22.475 41.63 22.415 41.66 22.365C41.7 22.305 41.73 22.245 41.76 22.185C41.79 22.145 41.82 22.075 41.85 22.015C41.87 21.945 41.89 21.885 41.91 21.825C41.93 21.765 41.95 21.695 41.96 21.645C41.97 21.585 41.98 21.505 41.99 21.455Z"   fill="#000000" >
</path>
</svg>
