<svg xmlns="http://www.w3.org/2000/svg" xmlns:xlink="http://www.w3.org/1999/xlink" width="48" height="48" viewBox="0 0 48 48" fill="none">
<path d="M42 44C42.07 44 42.13 44 42.2 43.99C42.26 43.98 42.33 43.97 42.39 43.96C42.45 43.95 42.52 43.93 42.58 43.91C42.64 43.89 42.7 43.87 42.77 43.85C42.83 43.82 42.89 43.79 42.94 43.76C43 43.73 43.06 43.7 43.11 43.66C43.17 43.63 43.22 43.59 43.27 43.55C43.32 43.5 43.37 43.46 43.41 43.41C43.46 43.37 43.5 43.32 43.55 43.27C43.59 43.22 43.63 43.17 43.66 43.11C43.7 43.06 43.73 43 43.76 42.94C43.79 42.89 43.82 42.83 43.85 42.77C43.87 42.7 43.89 42.64 43.91 42.58C43.93 42.52 43.95 42.45 43.96 42.39C43.97 42.33 43.98 42.26 43.99 42.2C44 42.13 44 42.07 44 42C44 41.93 44 41.87 43.99 41.8C43.98 41.74 43.97 41.67 43.96 41.61C43.95 41.55 43.93 41.48 43.91 41.42C43.89 41.36 43.87 41.3 43.85 41.23C43.82 41.17 43.79 41.12 43.76 41.06C43.73 41 43.7 40.94 43.66 40.89C43.63 40.83 43.59 40.78 43.55 40.73C43.5 40.68 43.46 40.63 43.41 40.59L10.82 8L29 8C29.07 8 29.13 8 29.2 7.99C29.26 7.98 29.33 7.97 29.39 7.96C29.45 7.95 29.52 7.93 29.58 7.91C29.64 7.89 29.7 7.87 29.77 7.85C29.83 7.82 29.89 7.79 29.94 7.76C30 7.73 30.06 7.7 30.11 7.66C30.17 7.63 30.22 7.59 30.27 7.55C30.32 7.5 30.37 7.46 30.41 7.41C30.46 7.37 30.5 7.32 30.55 7.27C30.59 7.22 30.63 7.17 30.66 7.11C30.7 7.06 30.73 7 30.76 6.94C30.79 6.89 30.82 6.83 30.85 6.77C30.87 6.7 30.89 6.64 30.91 6.58C30.93 6.52 30.95 6.45 30.96 6.39C30.97 6.33 30.98 6.26 30.99 6.2C31 6.13 31 6.07 31 6C31 5.93 31 5.87 30.99 5.8C30.98 5.74 30.97 5.67 30.96 5.61C30.95 5.55 30.93 5.48 30.91 5.42C30.89 5.36 30.87 5.3 30.85 5.23C30.82 5.17 30.79 5.11 30.76 5.06C30.73 5 30.7 4.94 30.66 4.89C30.63 4.83 30.59 4.78 30.55 4.73C30.5 4.68 30.46 4.63 30.41 4.59C30.37 4.54 30.32 4.5 30.27 4.45C30.22 4.41 30.17 4.37 30.11 4.34C30.06 4.3 30 4.27 29.94 4.24C29.89 4.21 29.83 4.18 29.77 4.15C29.7 4.13 29.64 4.11 29.58 4.09C29.52 4.07 29.45 4.05 29.39 4.04C29.33 4.03 29.26 4.02 29.2 4.01C29.13 4 29.07 4 29 4L8 4C7.46 4 6.94 4.11 6.44 4.32C5.96 4.52 5.54 4.81 5.17 5.17C4.81 5.54 4.52 5.96 4.32 6.44C4.11 6.94 4 7.46 4 8L4 29C4 29.07 4 29.13 4.01 29.2C4.02 29.26 4.03 29.33 4.04 29.39C4.05 29.45 4.07 29.52 4.09 29.58C4.11 29.64 4.13 29.7 4.15 29.77C4.18 29.83 4.21 29.89 4.24 29.94C4.27 30 4.3 30.06 4.34 30.11C4.37 30.17 4.41 30.22 4.45 30.27C4.5 30.32 4.54 30.37 4.59 30.41C4.63 30.46 4.68 30.5 4.73 30.55C4.78 30.59 4.83 30.63 4.89 30.66C4.94 30.7 5 30.73 5.06 30.76C5.11 30.79 5.17 30.82 5.23 30.85C5.3 30.87 5.36 30.89 5.42 30.91C5.48 30.93 5.55 30.95 5.61 30.96C5.67 30.97 5.74 30.98 5.8 30.99C5.87 31 5.93 31 6 31C6.07 31 6.13 31 6.2 30.99C6.26 30.98 6.33 30.97 6.39 30.96C6.45 30.95 6.52 30.93 6.58 30.91C6.64 30.89 6.7 30.87 6.77 30.85C6.83 30.82 6.89 30.79 6.94 30.76C7 30.73 7.06 30.7 7.11 30.66C7.17 30.63 7.22 30.59 7.27 30.55C7.32 30.5 7.37 30.46 7.41 30.41C7.46 30.37 7.5 30.32 7.55 30.27C7.59 30.22 7.63 30.17 7.66 30.11C7.7 30.06 7.73 30 7.76 29.94C7.79 29.89 7.82 29.83 7.85 29.77C7.87 29.7 7.89 29.64 7.91 29.58C7.93 29.52 7.95 29.45 7.96 29.39C7.97 29.33 7.98 29.26 7.99 29.2C8 29.13 8 29.07 8 29L8 10.82L40.59 43.41C40.63 43.46 40.68 43.5 40.73 43.55C40.78 43.59 40.83 43.63 40.89 43.66C40.94 43.7 41 43.73 41.06 43.76C41.12 43.79 41.17 43.82 41.23 43.85C41.3 43.87 41.36 43.89 41.42 43.91C41.48 43.93 41.55 43.95 41.61 43.96C41.67 43.97 41.74 43.98 41.8 43.99C41.87 44 41.93 44 42 44Z"   fill="#000000" >
</path>
</svg>
