<svg xmlns="http://www.w3.org/2000/svg" xmlns:xlink="http://www.w3.org/1999/xlink" width="48" height="48" viewBox="0 0 48 48" fill="none">
<path d="M6.34 28.11C6.41 28.22 6.49 28.32 6.59 28.41L21.18 43C21.56 43.39 22 43.68 22.5 43.88C22.98 44.08 23.48 44.18 24 44.18C24.52 44.18 25.02 44.08 25.5 43.88C26 43.68 26.44 43.39 26.82 43L41.41 28.41C41.46 28.37 41.5 28.32 41.55 28.27C41.59 28.22 41.63 28.17 41.66 28.11C41.7 28.06 41.73 28 41.76 27.94C41.79 27.89 41.82 27.83 41.85 27.77C41.87 27.7 41.89 27.64 41.91 27.58C41.93 27.52 41.95 27.45 41.96 27.39C41.97 27.33 41.98 27.26 41.99 27.2C42 27.13 42 27.07 42 27C42 26.93 42 26.87 41.99 26.8C41.98 26.74 41.97 26.67 41.96 26.61C41.95 26.55 41.93 26.48 41.91 26.42C41.89 26.36 41.87 26.3 41.85 26.23C41.82 26.17 41.79 26.11 41.76 26.06C41.73 26 41.7 25.94 41.66 25.89C41.63 25.83 41.59 25.78 41.55 25.73C41.5 25.68 41.46 25.63 41.41 25.59C41.37 25.54 41.32 25.5 41.27 25.45C41.22 25.41 41.17 25.37 41.11 25.34C41.06 25.3 41 25.27 40.94 25.24C40.89 25.21 40.83 25.18 40.77 25.15C40.7 25.13 40.64 25.11 40.58 25.09C40.52 25.07 40.45 25.05 40.39 25.04C40.33 25.03 40.26 25.02 40.2 25.01C40.13 25 40.07 25 40 25C39.93 25 39.87 25 39.8 25.01C39.74 25.02 39.67 25.03 39.61 25.04C39.55 25.05 39.48 25.07 39.42 25.09C39.36 25.11 39.3 25.13 39.23 25.15C39.17 25.18 39.11 25.21 39.06 25.24C39 25.27 38.94 25.3 38.89 25.34C38.83 25.37 38.78 25.41 38.73 25.45C38.68 25.5 38.63 25.54 38.59 25.59L26 38.17L26 6.25C26 6.18 26 6.12 25.99 6.05C25.98 5.99 25.98 5.92 25.96 5.86C25.95 5.8 25.93 5.73 25.91 5.67C25.9 5.61 25.87 5.55 25.85 5.48C25.82 5.42 25.8 5.37 25.76 5.31C25.73 5.25 25.7 5.19 25.66 5.14C25.63 5.08 25.59 5.03 25.55 4.98C25.51 4.93 25.46 4.88 25.42 4.84C25.37 4.79 25.32 4.75 25.27 4.7C25.22 4.66 25.17 4.62 25.11 4.59C25.06 4.55 25 4.52 24.94 4.49C24.89 4.46 24.83 4.43 24.77 4.4C24.71 4.38 24.64 4.36 24.58 4.34C24.52 4.32 24.46 4.3 24.39 4.29C24.33 4.28 24.26 4.27 24.2 4.26C24.13 4.25 24.07 4.25 24 4.25C23.94 4.25 23.87 4.25 23.81 4.26C23.74 4.27 23.68 4.28 23.61 4.29C23.55 4.3 23.48 4.32 23.42 4.34L23.24 4.4L23.06 4.49C23 4.52 22.94 4.55 22.89 4.59C22.84 4.62 22.78 4.66 22.73 4.7C22.68 4.75 22.63 4.79 22.59 4.84C22.54 4.88 22.5 4.93 22.46 4.98C22.41 5.03 22.37 5.08 22.34 5.14C22.3 5.19 22.27 5.25 22.24 5.31C22.21 5.36 22.18 5.42 22.15 5.48C22.13 5.55 22.11 5.61 22.09 5.67C22.07 5.73 22.05 5.8 22.04 5.86C22.03 5.92 22.02 5.99 22.01 6.05C22 6.12 22 6.18 22 6.25L22 38.17L9.41 25.59C9.37 25.54 9.32 25.5 9.27 25.45C9.22 25.41 9.17 25.37 9.11 25.34C9.06 25.3 9 25.27 8.94 25.24C8.89 25.21 8.83 25.18 8.77 25.15C8.7 25.13 8.64 25.11 8.58 25.09C8.52 25.07 8.45 25.05 8.39 25.04C8.33 25.03 8.26 25.02 8.2 25.01C8.13 25 8.07 25 8 25C7.93 25 7.87 25 7.8 25.01C7.74 25.02 7.67 25.03 7.61 25.04C7.55 25.05 7.48 25.07 7.42 25.09C7.36 25.11 7.3 25.13 7.23 25.15C7.17 25.18 7.11 25.21 7.06 25.24C7 25.27 6.94 25.3 6.89 25.34C6.83 25.37 6.78 25.41 6.73 25.45C6.68 25.5 6.63 25.54 6.59 25.59C6.49 25.68 6.41 25.78 6.34 25.89C6.26 26 6.2 26.11 6.15 26.23C6.1 26.36 6.06 26.48 6.04 26.61C6.01 26.74 6 26.87 6 27C6 27.13 6.01 27.26 6.04 27.39C6.06 27.52 6.1 27.64 6.15 27.77C6.2 27.89 6.26 28 6.34 28.11Z"   fill="#000000" >
</path>
</svg>
