<svg xmlns="http://www.w3.org/2000/svg" xmlns:xlink="http://www.w3.org/1999/xlink" width="48" height="48" viewBox="0 0 48 48" fill="none">
<path d="M17.15 5.23C17.13 5.3 17.11 5.36 17.09 5.42C17.07 5.48 17.05 5.55 17.04 5.61C17.03 5.67 17.02 5.74 17.01 5.8C17 5.87 17 5.93 17 6C17 6.07 17 6.13 17.01 6.2C17.02 6.26 17.03 6.33 17.04 6.39C17.05 6.45 17.07 6.52 17.09 6.58C17.11 6.64 17.13 6.7 17.15 6.77C17.18 6.83 17.21 6.89 17.24 6.94C17.27 7 17.3 7.06 17.34 7.11C17.37 7.17 17.41 7.22 17.45 7.27C17.5 7.32 17.54 7.37 17.59 7.41C17.63 7.46 17.68 7.5 17.73 7.55C17.78 7.59 17.83 7.63 17.89 7.66C17.94 7.7 18 7.73 18.06 7.76C18.11 7.79 18.17 7.82 18.23 7.85C18.3 7.87 18.36 7.89 18.42 7.91C18.48 7.93 18.55 7.95 18.61 7.96C18.67 7.97 18.74 7.98 18.8 7.99C18.87 8 18.93 8 19 8L37.18 8L4.59 40.59C4.54 40.63 4.5 40.68 4.45 40.73C4.41 40.78 4.37 40.83 4.34 40.89C4.3 40.94 4.27 41 4.24 41.06C4.21 41.12 4.18 41.17 4.15 41.23C4.13 41.3 4.11 41.36 4.09 41.42C4.07 41.48 4.05 41.55 4.04 41.61C4.03 41.67 4.02 41.74 4.01 41.8C4 41.87 4 41.93 4 42C4 42.07 4 42.13 4.01 42.2C4.02 42.26 4.03 42.33 4.04 42.39C4.05 42.45 4.07 42.52 4.09 42.58C4.11 42.64 4.13 42.7 4.15 42.77C4.18 42.83 4.21 42.89 4.24 42.94C4.27 43 4.3 43.06 4.34 43.11C4.37 43.17 4.41 43.22 4.45 43.27C4.5 43.32 4.54 43.37 4.59 43.41C4.63 43.46 4.68 43.5 4.73 43.55C4.78 43.59 4.83 43.63 4.89 43.66C4.94 43.7 5 43.73 5.06 43.76C5.11 43.79 5.17 43.82 5.23 43.85C5.3 43.87 5.36 43.89 5.42 43.91C5.48 43.93 5.55 43.95 5.61 43.96C5.67 43.97 5.74 43.98 5.8 43.99C5.87 44 5.93 44 6 44C6.07 44 6.13 44 6.2 43.99C6.26 43.98 6.33 43.97 6.39 43.96C6.45 43.95 6.52 43.93 6.58 43.91C6.64 43.89 6.7 43.87 6.77 43.85C6.83 43.82 6.89 43.79 6.94 43.76C7 43.73 7.06 43.7 7.11 43.66C7.17 43.63 7.22 43.59 7.27 43.55C7.32 43.5 7.37 43.46 7.41 43.41L40 10.82L40 29C40 29.07 40 29.13 40.01 29.2C40.02 29.26 40.03 29.33 40.04 29.39C40.05 29.45 40.07 29.52 40.09 29.58C40.11 29.64 40.13 29.7 40.15 29.77C40.18 29.83 40.21 29.89 40.24 29.94C40.27 30 40.3 30.06 40.34 30.11C40.37 30.17 40.41 30.22 40.45 30.27C40.5 30.32 40.54 30.37 40.59 30.41C40.63 30.46 40.68 30.5 40.73 30.55C40.78 30.59 40.83 30.63 40.89 30.66C40.94 30.7 41 30.73 41.06 30.76C41.12 30.79 41.17 30.82 41.23 30.85C41.3 30.87 41.36 30.89 41.42 30.91C41.48 30.93 41.55 30.95 41.61 30.96C41.67 30.97 41.74 30.98 41.8 30.99C41.87 31 41.93 31 42 31C42.07 31 42.13 31 42.2 30.99C42.26 30.98 42.33 30.97 42.39 30.96C42.45 30.95 42.52 30.93 42.58 30.91C42.64 30.89 42.7 30.87 42.77 30.85C42.83 30.82 42.89 30.79 42.94 30.76C43 30.73 43.06 30.7 43.11 30.66C43.17 30.63 43.22 30.59 43.27 30.55C43.32 30.5 43.37 30.46 43.41 30.41C43.46 30.37 43.5 30.32 43.55 30.27C43.59 30.22 43.63 30.17 43.66 30.11C43.7 30.06 43.73 30 43.76 29.94C43.79 29.89 43.82 29.83 43.85 29.77C43.87 29.7 43.89 29.64 43.91 29.58C43.93 29.52 43.95 29.45 43.96 29.39C43.97 29.33 43.98 29.26 43.99 29.2C44 29.13 44 29.07 44 29L44 8C44 7.46 43.89 6.94 43.68 6.44C43.48 5.96 43.19 5.54 42.83 5.17C42.46 4.81 42.04 4.52 41.56 4.32C41.06 4.11 40.54 4 40 4L19 4C18.93 4 18.87 4 18.8 4.01C18.74 4.02 18.67 4.03 18.61 4.04C18.55 4.05 18.48 4.07 18.42 4.09C18.36 4.11 18.3 4.13 18.23 4.15C18.17 4.18 18.11 4.21 18.06 4.24C18 4.27 17.94 4.3 17.89 4.34C17.83 4.37 17.78 4.41 17.73 4.45C17.68 4.5 17.63 4.54 17.59 4.59C17.54 4.63 17.5 4.68 17.45 4.73C17.41 4.78 17.37 4.83 17.34 4.89C17.3 4.94 17.27 5 17.24 5.06C17.21 5.11 17.18 5.17 17.15 5.23Z"   fill="#000000" >
</path>
</svg>
