<svg xmlns="http://www.w3.org/2000/svg" xmlns:xlink="http://www.w3.org/1999/xlink" width="48" height="48" viewBox="0 0 48 48" fill="none">
<path d="M43.96 5.61C43.95 5.55 43.93 5.48 43.91 5.42C43.89 5.36 43.87 5.3 43.85 5.23C43.82 5.17 43.79 5.11 43.76 5.06C43.73 5 43.7 4.94 43.66 4.89C43.63 4.83 43.59 4.78 43.55 4.73C43.5 4.68 43.46 4.63 43.41 4.59C43.37 4.54 43.32 4.5 43.27 4.45C43.22 4.41 43.17 4.37 43.11 4.34C43.06 4.3 43 4.27 42.94 4.24C42.89 4.21 42.83 4.18 42.77 4.15C42.7 4.13 42.64 4.11 42.58 4.09C42.52 4.07 42.45 4.05 42.39 4.04C42.33 4.03 42.26 4.02 42.2 4.01C42.13 4 42.07 4 42 4C41.93 4 41.87 4 41.8 4.01C41.74 4.02 41.67 4.03 41.61 4.04C41.55 4.05 41.48 4.07 41.42 4.09C41.36 4.11 41.3 4.13 41.23 4.15C41.17 4.18 41.12 4.21 41.06 4.24C41 4.27 40.94 4.3 40.89 4.34C40.83 4.37 40.78 4.41 40.73 4.45C40.68 4.5 40.63 4.54 40.59 4.59L8 37.18L8 19C8 18.93 8 18.87 7.99 18.8C7.98 18.74 7.97 18.67 7.96 18.61C7.95 18.55 7.93 18.48 7.91 18.42C7.89 18.36 7.87 18.3 7.85 18.23C7.82 18.17 7.79 18.11 7.76 18.06C7.73 18 7.7 17.94 7.66 17.89C7.63 17.83 7.59 17.78 7.55 17.73C7.5 17.68 7.46 17.63 7.41 17.59C7.37 17.54 7.32 17.5 7.27 17.45C7.22 17.41 7.17 17.37 7.11 17.34C7.06 17.3 7 17.27 6.94 17.24C6.89 17.21 6.83 17.18 6.77 17.15C6.7 17.13 6.64 17.11 6.58 17.09C6.52 17.07 6.45 17.05 6.39 17.04C6.33 17.03 6.26 17.02 6.2 17.01C6.13 17 6.07 17 6 17C5.93 17 5.87 17 5.8 17.01C5.74 17.02 5.67 17.03 5.61 17.04C5.55 17.05 5.48 17.07 5.42 17.09C5.36 17.11 5.3 17.13 5.23 17.15C5.17 17.18 5.11 17.21 5.06 17.24C5 17.27 4.94 17.3 4.89 17.34C4.83 17.37 4.78 17.41 4.73 17.45C4.68 17.5 4.63 17.54 4.59 17.59C4.54 17.63 4.5 17.68 4.45 17.73C4.41 17.78 4.37 17.83 4.34 17.89C4.3 17.94 4.27 18 4.24 18.06C4.21 18.11 4.18 18.17 4.15 18.23C4.13 18.3 4.11 18.36 4.09 18.42C4.07 18.48 4.05 18.55 4.04 18.61C4.03 18.67 4.02 18.74 4.01 18.8C4 18.87 4 18.93 4 19L4 40C4 40.54 4.11 41.06 4.32 41.56C4.52 42.04 4.81 42.46 5.17 42.83C5.54 43.19 5.96 43.48 6.44 43.68C6.94 43.89 7.46 44 8 44L29 44C29.07 44 29.13 44 29.2 43.99C29.26 43.98 29.33 43.97 29.39 43.96C29.45 43.95 29.52 43.93 29.58 43.91C29.64 43.89 29.7 43.87 29.77 43.85C29.83 43.82 29.89 43.79 29.94 43.76C30 43.73 30.06 43.7 30.11 43.66C30.17 43.63 30.22 43.59 30.27 43.55C30.32 43.5 30.37 43.46 30.41 43.41C30.46 43.37 30.5 43.32 30.55 43.27C30.59 43.22 30.63 43.17 30.66 43.11C30.7 43.06 30.73 43 30.76 42.94C30.79 42.89 30.82 42.83 30.85 42.77C30.87 42.7 30.89 42.64 30.91 42.58C30.93 42.52 30.95 42.45 30.96 42.39C30.97 42.33 30.98 42.26 30.99 42.2C31 42.13 31 42.07 31 42C31 41.93 31 41.87 30.99 41.8C30.98 41.74 30.97 41.67 30.96 41.61C30.95 41.55 30.93 41.48 30.91 41.42C30.89 41.36 30.87 41.3 30.85 41.23C30.82 41.17 30.79 41.12 30.76 41.06C30.73 41 30.7 40.94 30.66 40.89C30.63 40.83 30.59 40.78 30.55 40.73C30.5 40.68 30.46 40.63 30.41 40.59C30.37 40.54 30.32 40.5 30.27 40.45C30.22 40.41 30.17 40.37 30.11 40.34C30.06 40.3 30 40.27 29.94 40.24C29.89 40.21 29.83 40.18 29.77 40.15C29.7 40.13 29.64 40.11 29.58 40.09C29.52 40.07 29.45 40.05 29.39 40.04C29.33 40.03 29.26 40.02 29.2 40.01C29.13 40 29.07 40 29 40L10.82 40L43.41 7.41C43.46 7.37 43.5 7.32 43.55 7.27C43.59 7.22 43.63 7.17 43.66 7.11C43.7 7.06 43.73 7 43.76 6.94C43.79 6.89 43.82 6.83 43.85 6.77C43.87 6.7 43.89 6.64 43.91 6.58C43.93 6.52 43.95 6.45 43.96 6.39C43.97 6.33 43.98 6.26 43.99 6.2C44 6.13 44 6.07 44 6C44 5.93 44 5.87 43.99 5.8C43.98 5.74 43.97 5.67 43.96 5.61Z"   fill="#000000" >
</path>
</svg>
