<svg xmlns="http://www.w3.org/2000/svg" xmlns:xlink="http://www.w3.org/1999/xlink" width="48" height="48" viewBox="0 0 48 48" fill="none">
<path d="M22.995 39.8C22.985 39.74 22.975 39.67 22.965 39.61C22.945 39.55 22.935 39.48 22.915 39.42C22.895 39.36 22.875 39.3 22.845 39.23C22.825 39.17 22.795 39.11 22.765 39.06C22.735 39 22.695 38.94 22.665 38.89C22.625 38.83 22.585 38.78 22.545 38.73C22.505 38.68 22.465 38.63 22.415 38.59L9.825 26L41.995 26C42.065 26 42.135 26 42.205 25.99C42.265 25.98 42.335 25.97 42.395 25.96C42.445 25.95 42.525 25.93 42.585 25.91C42.645 25.89 42.695 25.87 42.775 25.85C42.835 25.82 42.885 25.79 42.945 25.76C42.995 25.73 43.065 25.7 43.105 25.66C43.175 25.63 43.215 25.59 43.275 25.55C43.315 25.5 43.375 25.46 43.415 25.41C43.465 25.37 43.495 25.32 43.555 25.27C43.595 25.22 43.625 25.17 43.665 25.11C43.695 25.06 43.735 25 43.765 24.94C43.795 24.89 43.815 24.83 43.855 24.77C43.875 24.7 43.885 24.64 43.915 24.58C43.925 24.52 43.955 24.45 43.965 24.39C43.975 24.33 43.985 24.26 43.995 24.2C43.995 24.13 43.995 24.07 43.995 24C43.995 23.93 43.995 23.87 43.995 23.8C43.985 23.74 43.975 23.67 43.965 23.61C43.955 23.55 43.925 23.48 43.915 23.42C43.885 23.36 43.875 23.3 43.855 23.23C43.815 23.17 43.795 23.11 43.765 23.06C43.735 23 43.695 22.94 43.665 22.89C43.625 22.83 43.595 22.78 43.555 22.73C43.495 22.68 43.465 22.63 43.415 22.59C43.375 22.54 43.315 22.5 43.275 22.45C43.215 22.41 43.175 22.37 43.105 22.34C43.065 22.3 42.995 22.27 42.945 22.24C42.885 22.21 42.835 22.18 42.775 22.15C42.695 22.13 42.645 22.11 42.585 22.09C42.525 22.07 42.445 22.05 42.395 22.04C42.335 22.03 42.265 22.02 42.205 22.01C42.135 22 42.065 22 41.995 22L9.825 22L22.415 9.41L19.585 6.59L4.995 21.18C4.615 21.56 4.325 22 4.115 22.5C3.925 22.98 3.825 23.48 3.825 24C3.825 24.52 3.925 25.02 4.115 25.5C4.325 26 4.615 26.44 4.995 26.82L19.585 41.41C19.635 41.46 19.685 41.5 19.735 41.55C19.785 41.59 19.835 41.63 19.885 41.66C19.945 41.7 19.995 41.73 20.055 41.76L20.235 41.85L20.415 41.91C20.485 41.93 20.545 41.95 20.605 41.96C20.675 41.97 20.735 41.98 20.805 41.99C20.865 42 20.935 42 21.005 42C21.065 42 21.135 42 21.195 41.99C21.265 41.98 21.325 41.97 21.395 41.96C21.455 41.95 21.515 41.93 21.585 41.91L21.765 41.85L21.945 41.76C22.005 41.73 22.055 41.7 22.115 41.66C22.165 41.63 22.215 41.59 22.265 41.55C22.315 41.5 22.365 41.46 22.415 41.41C22.465 41.37 22.505 41.32 22.545 41.27C22.585 41.22 22.625 41.17 22.665 41.11C22.695 41.06 22.735 41 22.765 40.94C22.795 40.89 22.825 40.83 22.845 40.77C22.875 40.7 22.895 40.64 22.915 40.58C22.935 40.52 22.945 40.45 22.965 40.39C22.975 40.33 22.985 40.26 22.995 40.2C22.995 40.13 23.005 40.07 23.005 40C23.005 39.93 22.995 39.87 22.995 39.8ZM22.415 9.41C22.465 9.37 22.505 9.32 22.545 9.27C22.585 9.22 22.625 9.17 22.665 9.11C22.695 9.06 22.735 9 22.765 8.94C22.795 8.89 22.825 8.83 22.845 8.77C22.875 8.7 22.895 8.64 22.915 8.58C22.935 8.52 22.945 8.45 22.965 8.39C22.975 8.33 22.985 8.26 22.995 8.2C22.995 8.13 23.005 8.07 23.005 8C23.005 7.93 22.995 7.87 22.995 7.8C22.985 7.74 22.975 7.67 22.965 7.61C22.945 7.55 22.935 7.48 22.915 7.42C22.895 7.36 22.875 7.3 22.845 7.23C22.825 7.17 22.795 7.11 22.765 7.06C22.735 7 22.695 6.94 22.665 6.89C22.625 6.83 22.585 6.78 22.545 6.73C22.505 6.68 22.465 6.63 22.415 6.59C22.365 6.54 22.315 6.5 22.265 6.45C22.215 6.41 22.165 6.37 22.115 6.34C22.055 6.3 22.005 6.27 21.945 6.24L21.765 6.15L21.585 6.09C21.515 6.07 21.455 6.05 21.395 6.04C21.325 6.03 21.265 6.02 21.195 6.01C21.135 6 21.065 6 21.005 6C20.935 6 20.865 6 20.805 6.01C20.735 6.02 20.675 6.03 20.605 6.04C20.545 6.05 20.485 6.07 20.415 6.09L20.235 6.15L20.055 6.24C19.995 6.27 19.945 6.3 19.885 6.34C19.835 6.37 19.785 6.41 19.735 6.45C19.685 6.5 19.635 6.54 19.585 6.59L22.415 9.41Z" fill-rule="evenodd"  fill="#000000" >
</path>
</svg>
