<svg xmlns="http://www.w3.org/2000/svg" xmlns:xlink="http://www.w3.org/1999/xlink" width="48" height="48" viewBox="0 0 48 48" fill="none">
<path d="M20.2 42.64C22.2 44.97 25.8 44.97 27.8 42.64L30.92 39L38 39C42.42 39 46 35.42 46 31L46 13C46 8.58 42.42 5 38 5L10 5C5.58 5 2 8.58 2 13L2 31C2 35.42 5.58 39 10 39L17.08 39L17.09 39.01L20.2 42.64ZM36 23C36 21.9 35.1 21 34 21L14 21C12.9 21 12 21.9 12 23C12 24.1 12.9 25 14 25L34 25C35.1 25 36 24.1 36 23Z" fill-rule="evenodd"  fill="#000000" >
</path>
</svg>
