<svg xmlns="http://www.w3.org/2000/svg" xmlns:xlink="http://www.w3.org/1999/xlink" width="48" height="48" viewBox="0 0 48 48" fill="none">
<path d="M27.0499 3C18.9199 3 11.9799 8.06 9.23992 15.21C11.5499 14.11 14.1199 13.5 16.8299 13.5C26.5899 13.5 34.4999 21.24 34.4999 31C34.4999 34.71 33.3299 38.14 31.3299 40.97L42.6599 40.97C45.2899 40.97 46.6399 37.81 44.8299 35.9L42.3499 33.31C44.8499 30.03 46.0999 26.26 46.0999 21.99C46.0999 11.5 37.5399 3 27.0499 3ZM4.78992 39.29L3.69992 40.42C1.87992 42.34 3.22992 45.5 5.85992 45.5L16.8299 45.5C24.8399 45.5 31.4999 39.01 31.4999 31C31.4999 22.9 24.9299 16.5 16.8299 16.5C8.81992 16.5 2.16992 22.99 2.16992 31C2.16992 34.1 3.03992 36.87 4.78992 39.29Z" fill-rule="evenodd"  fill="#000000" >
</path>
</svg>
