<svg xmlns="http://www.w3.org/2000/svg" xmlns:xlink="http://www.w3.org/1999/xlink" width="48" height="48" viewBox="0 0 48 48" fill="none">
<path d="M18 20C18 19 18.2353 18.0588 18.7059 17.1765L24.8235 5.70588C26.1412 3.23529 28.2 2 31 2L31.1239 2C35.1431 2 38.0257 5.87442 36.8708 9.72409L34.6881 17L40 17C43.3137 17 46 19.6863 46 23L46 31C46 38.732 39.732 45 32 45L24 45C20.6863 45 18 42.3137 18 39L18 20ZM10 17L8 17C4.68629 17 2 19.6863 2 23L2 37C2 41.4183 5.58172 45 10 45C13.3137 45 16 42.3137 16 39L16 23C16 19.6863 13.3137 17 10 17Z" fill-rule="evenodd"  fill="#000000" >
</path>
</svg>
