<svg xmlns="http://www.w3.org/2000/svg" xmlns:xlink="http://www.w3.org/1999/xlink" width="48" height="48" viewBox="0 0 48 48" fill="none">
<path d="M23.6999 2.79004C11.9499 2.79004 2.41992 12.25 2.41992 24C2.41992 35.71 11.9899 45.2 23.6999 45.2L39.3299 45.2C42.8399 45.18 44.6299 40.98 42.2099 38.44L40.6599 36.82C43.5499 33.1 44.9899 28.83 44.9899 24C44.9899 12.29 35.4099 2.79004 23.6999 2.79004ZM17.4699 34.43C19.3699 35.79 21.4199 36.63 23.6099 36.96C23.8699 37 24.1299 37 24.3899 36.96C26.5799 36.63 28.6299 35.79 30.5299 34.43C34.1799 31.82 35.9999 28 35.9999 22.99L35.9999 19.37C35.9999 16.95 34.5499 14.76 32.3199 13.83L26.3299 11.3C24.8399 10.67 23.1599 10.67 21.6699 11.3L15.6699 13.83C13.4499 14.76 11.9999 16.94 11.9999 19.37L11.9999 22.99C11.9999 28 13.8199 31.82 17.4699 34.43ZM28.1999 31.17C30.7299 29.36 31.9999 26.63 31.9999 22.99L31.9999 19.37C31.9999 18.56 31.5199 17.83 30.7799 17.52L24.7699 14.99C24.2799 14.78 23.7199 14.78 23.2299 14.99L17.2299 17.52C16.4699 17.83 15.9999 18.56 15.9999 19.37L15.9999 22.99C15.9999 26.63 17.2699 29.36 19.7999 31.17C21.1199 32.12 22.5199 32.72 23.9999 32.97C25.4799 32.72 26.8799 32.12 28.1999 31.17Z" fill-rule="evenodd"  fill="#000000" >
</path>
</svg>
