<svg xmlns="http://www.w3.org/2000/svg" xmlns:xlink="http://www.w3.org/1999/xlink" width="48" height="48" viewBox="0 0 48 48" fill="none">
<path d="M23.6999 2.79004C11.9499 2.79004 2.41992 12.25 2.41992 24C2.41992 35.71 11.9899 45.2 23.6999 45.2L39.3299 45.2C42.8399 45.18 44.6299 40.98 42.2099 38.44L40.6599 36.82C43.5499 33.1 44.9899 28.83 44.9899 24C44.9899 12.29 35.4099 2.79004 23.6999 2.79004ZM31.0599 28.98C31.0599 30.04 30.6699 30.95 29.8999 31.7C29.0899 32.5 28.0599 32.93 26.8099 32.99C26.6699 33 26.4299 33 26.1099 33L20.9999 33C19.8999 33 18.9999 33.9 18.9999 35C18.9999 36.1 19.8999 37 20.9999 37L26.1099 37C26.4799 37 26.7699 37 26.9699 36.99C28.0899 36.93 29.1399 36.69 30.1299 36.27C31.0999 35.85 31.9599 35.28 32.6999 34.56C33.4399 33.83 34.0199 33 34.4299 32.05C34.5799 31.7 34.6999 31.35 34.7999 30.99L35.9799 30.99C37.6299 31.02 38.9999 29.67 38.9999 27.99L38.9999 20.99C38.9999 19.35 37.6899 18.02 36.0499 17.99L36.0299 17.99L34.8599 17.98C34.6999 17.19 34.4399 16.42 34.0799 15.67C33.4699 14.42 32.6199 13.32 31.5399 12.37C30.4999 11.46 29.3299 10.76 28.0299 10.26C26.7099 9.75004 25.3699 9.50004 23.9999 9.50004C22.6299 9.50004 21.2899 9.75004 19.9699 10.26C18.6599 10.75 17.4799 11.46 16.4399 12.36C15.3499 13.32 14.4999 14.42 13.8799 15.67C13.5199 16.41 13.2599 17.17 13.0899 17.96L11.9999 17.96C10.3399 17.96 8.99992 19.3 8.99992 20.96L8.99992 28C8.99992 29.66 10.3399 31 11.9999 31L13.8899 31C15.5499 31 16.8899 29.66 16.8899 28L16.8899 19.96C16.8899 19.07 17.0899 18.22 17.4799 17.43C17.8499 16.66 18.3799 15.98 19.0699 15.38C19.7499 14.78 20.5299 14.32 21.3899 13.99C22.2499 13.66 23.1199 13.5 23.9999 13.5C24.8699 13.5 25.7399 13.66 26.5999 13.99C27.4599 14.32 28.2199 14.78 28.8999 15.37C29.5799 15.97 30.1099 16.65 30.4799 17.42C30.8699 18.22 31.0599 19.07 31.0599 19.96L31.0599 28.98Z" fill-rule="evenodd"  fill="#000000" >
</path>
</svg>
