<svg xmlns="http://www.w3.org/2000/svg" xmlns:xlink="http://www.w3.org/1999/xlink" width="48" height="48" viewBox="0 0 48 48" fill="none">
<path d="M23.6999 2.79004C11.9499 2.79004 2.41992 12.25 2.41992 24C2.41992 35.71 11.9899 45.2 23.6999 45.2L36.9799 45.2C41.3399 45.2 43.5899 40.02 40.6699 36.82C43.5499 33.1 44.9899 28.83 44.9899 24C44.9899 12.29 35.4099 2.79004 23.6999 2.79004ZM18.5299 13.14L17.6599 17.5L14.4999 17.5C13.3999 17.5 12.4999 18.4 12.4999 19.5C12.4999 20.6 13.3999 21.5 14.4999 21.5L16.8599 21.5L16.0599 25.5L13.4999 25.5C12.3999 25.5 11.4999 26.4 11.4999 27.5C11.4999 28.6 12.3999 29.5 13.4999 29.5L15.2599 29.5L14.5499 33.07C14.5199 33.21 14.4999 33.35 14.4999 33.5C14.4999 34.6 15.3999 35.5 16.4999 35.5C17.4799 35.5 18.2999 34.79 18.4699 33.86L19.3399 29.5L26.2599 29.5L25.5499 33.07C25.5199 33.21 25.4999 33.35 25.4999 33.5C25.4999 34.6 26.3999 35.5 27.4999 35.5C28.4799 35.5 29.2999 34.79 29.4699 33.86L30.3399 29.5L32.9999 29.5C34.0999 29.5 34.9999 28.6 34.9999 27.5C34.9999 26.4 34.0999 25.5 32.9999 25.5L31.1399 25.5L31.9399 21.5L34.4999 21.5C35.5999 21.5 36.4999 20.6 36.4999 19.5C36.4999 18.4 35.5999 17.5 34.4999 17.5L32.7399 17.5L33.4499 13.93C33.4799 13.79 33.4999 13.65 33.4999 13.5C33.4999 12.4 32.5999 11.5 31.4999 11.5C30.5199 11.5 29.6999 12.21 29.5299 13.14L28.6599 17.5L21.7399 17.5L22.4499 13.93C22.4799 13.79 22.4999 13.65 22.4999 13.5C22.4999 12.4 21.5999 11.5 20.4999 11.5C19.5199 11.5 18.6999 12.21 18.5299 13.14ZM20.1399 25.5L27.0599 25.5L27.8599 21.5L20.9399 21.5L20.1399 25.5Z" fill-rule="evenodd"  fill="#000000" >
</path>
</svg>
