<svg xmlns="http://www.w3.org/2000/svg" xmlns:xlink="http://www.w3.org/1999/xlink" width="48" height="48" viewBox="0 0 48 48" fill="none">
<path d="M43.99 6.20098C44 6.13098 44 6.07098 44 6.00098C44 5.93098 44 5.87098 43.99 5.80098C43.98 5.74098 43.97 5.67098 43.96 5.61098C43.95 5.55098 43.93 5.48098 43.91 5.42098C43.89 5.36098 43.87 5.30098 43.85 5.23098C43.82 5.17098 43.79 5.11098 43.76 5.06098C43.73 5.00098 43.7 4.94098 43.66 4.89098C43.63 4.83098 43.59 4.78098 43.55 4.73098C43.5 4.68098 43.46 4.63098 43.41 4.59098C43.37 4.54098 43.32 4.50098 43.27 4.45098C43.22 4.41098 43.17 4.37098 43.11 4.34098C43.06 4.30098 43 4.27098 42.94 4.24098C42.89 4.21098 42.83 4.18098 42.77 4.15098C42.7 4.13098 42.64 4.11098 42.58 4.09098C42.52 4.07098 42.45 4.05098 42.39 4.04098C42.33 4.03098 42.26 4.02098 42.2 4.01098C42.13 4.00098 42.07 4.00098 42 4.00098L6 4.00098C5.93 4.00098 5.87 4.00098 5.8 4.01098C5.74 4.02098 5.67 4.03098 5.61 4.04098C5.55 4.05098 5.48 4.07098 5.42 4.09098C5.36 4.11098 5.3 4.13098 5.23 4.15098C5.17 4.18098 5.12 4.21098 5.06 4.24098C5 4.27098 4.94 4.30098 4.89 4.34098C4.83 4.37098 4.78 4.41098 4.73 4.45098C4.68 4.50098 4.63 4.54098 4.59 4.59098C4.54 4.63098 4.5 4.68098 4.45 4.73098C4.41 4.78098 4.37 4.83098 4.34 4.89098C4.3 4.94098 4.27 5.00098 4.24 5.06098C4.21 5.11098 4.18 5.17098 4.15 5.23098C4.13 5.30098 4.11 5.36098 4.09 5.42098C4.07 5.48098 4.05 5.55098 4.04 5.61098C4.03 5.67098 4.02 5.74098 4.01 5.80098C4 5.87098 4 5.93098 4 6.00098C4 6.07098 4 6.13098 4.01 6.20098C4.02 6.26098 4.03 6.33098 4.04 6.39098C4.05 6.45098 4.07 6.52098 4.09 6.58098C4.11 6.64098 4.13 6.70098 4.15 6.77098C4.18 6.83098 4.21 6.89098 4.24 6.94098C4.27 7.00098 4.3 7.06098 4.34 7.11098C4.37 7.17098 4.41 7.22098 4.45 7.27098C4.5 7.32098 4.54 7.37098 4.59 7.41098C4.63 7.46098 4.68 7.50098 4.73 7.55098C4.78 7.59098 4.83 7.63098 4.89 7.66098C4.94 7.70098 5 7.73098 5.06 7.76098C5.12 7.79098 5.17 7.82098 5.23 7.85098C5.3 7.87098 5.36 7.89098 5.42 7.91098C5.48 7.93098 5.55 7.95098 5.61 7.96098C5.67 7.97098 5.74 7.98098 5.8 7.99098C5.87 8.00098 5.93 8.00098 6 8.00098L42 8.00098C42.07 8.00098 42.13 8.00098 42.2 7.99098C42.26 7.98098 42.33 7.97098 42.39 7.96098C42.45 7.95098 42.52 7.93098 42.58 7.91098C42.64 7.89098 42.7 7.87098 42.77 7.85098C42.83 7.82098 42.89 7.79098 42.94 7.76098C43 7.73098 43.06 7.70098 43.11 7.66098C43.17 7.63098 43.22 7.59098 43.27 7.55098C43.32 7.50098 43.37 7.46098 43.41 7.41098C43.46 7.37098 43.5 7.32098 43.55 7.27098C43.59 7.22098 43.63 7.17098 43.66 7.11098C43.7 7.06098 43.73 7.00098 43.76 6.94098C43.79 6.89098 43.82 6.83098 43.85 6.77098C43.87 6.70098 43.89 6.64098 43.91 6.58098C43.93 6.52098 43.95 6.45098 43.96 6.39098C43.97 6.33098 43.98 6.26098 43.99 6.20098ZM8.47 40.341C8.78 41.051 9.2 41.691 9.76 42.241C10.31 42.801 10.95 43.221 11.66 43.531C12.41 43.841 13.19 44.001 14 44.001L16 44.001C16.81 44.001 17.59 43.841 18.34 43.531C19.05 43.221 19.69 42.801 20.24 42.241C20.8 41.691 21.22 41.051 21.53 40.341C21.84 39.591 22 38.811 22 38.001L22 18.001C22 17.191 21.84 16.411 21.53 15.661C21.22 14.951 20.8 14.311 20.24 13.761C19.69 13.201 19.05 12.781 18.34 12.471C17.59 12.161 16.81 12.001 16 12.001L14 12.001C13.19 12.001 12.41 12.161 11.66 12.471C10.95 12.781 10.31 13.201 9.76 13.761C9.2 14.311 8.78 14.951 8.47 15.661C8.16 16.411 8 17.191 8 18.001L8 38.001C8 38.811 8.16 39.591 8.47 40.341ZM26 32.001C26 32.811 26.16 33.591 26.47 34.341C26.78 35.051 27.2 35.691 27.76 36.241C28.31 36.801 28.95 37.221 29.66 37.531C30.41 37.841 31.19 38.001 32 38.001L34 38.001C34.81 38.001 35.59 37.841 36.34 37.531C37.05 37.221 37.69 36.801 38.24 36.241C38.8 35.691 39.22 35.051 39.53 34.341C39.84 33.591 40 32.811 40 32.001L40 18.001C40 17.191 39.84 16.411 39.53 15.661C39.22 14.951 38.8 14.311 38.24 13.761C37.69 13.201 37.05 12.781 36.34 12.471C35.59 12.161 34.81 12.001 34 12.001L32 12.001C31.19 12.001 30.41 12.161 29.66 12.471C28.95 12.781 28.31 13.201 27.76 13.761C27.2 14.311 26.78 14.951 26.47 15.661C26.16 16.411 26 17.191 26 18.001L26 32.001ZM12 18.001L12 38.001C12 38.271 12.05 38.531 12.16 38.781C12.26 39.021 12.4 39.231 12.59 39.411C12.77 39.601 12.98 39.741 13.22 39.841C13.47 39.951 13.73 40.001 14 40.001L16 40.001C16.27 40.001 16.53 39.951 16.78 39.841C17.02 39.741 17.23 39.601 17.41 39.411C17.6 39.231 17.74 39.021 17.84 38.781C17.95 38.531 18 38.271 18 38.001L18 18.001C18 17.731 17.95 17.471 17.84 17.221C17.74 16.981 17.6 16.771 17.41 16.591C17.23 16.401 17.02 16.261 16.78 16.161C16.53 16.051 16.27 16.001 16 16.001L14 16.001C13.73 16.001 13.47 16.051 13.22 16.161C12.98 16.261 12.77 16.401 12.59 16.591C12.4 16.771 12.26 16.981 12.16 17.221C12.05 17.471 12 17.731 12 18.001ZM30.16 17.221C30.05 17.471 30 17.731 30 18.001L30 32.001C30 32.271 30.05 32.531 30.16 32.781C30.26 33.021 30.4 33.231 30.59 33.411C30.77 33.601 30.98 33.741 31.22 33.841C31.47 33.951 31.73 34.001 32 34.001L34 34.001C34.27 34.001 34.53 33.951 34.78 33.841C35.02 33.741 35.23 33.601 35.41 33.411C35.6 33.231 35.74 33.021 35.84 32.781C35.95 32.531 36 32.271 36 32.001L36 18.001C36 17.731 35.95 17.471 35.84 17.221C35.74 16.981 35.6 16.771 35.41 16.591C35.23 16.401 35.02 16.261 34.78 16.161C34.53 16.051 34.27 16.001 34 16.001L32 16.001C31.73 16.001 31.47 16.051 31.22 16.161C30.98 16.261 30.77 16.401 30.59 16.591C30.4 16.771 30.26 16.981 30.16 17.221Z" fill-rule="evenodd"  fill="#000000" >
</path>
</svg>
