<svg xmlns="http://www.w3.org/2000/svg" xmlns:xlink="http://www.w3.org/1999/xlink" width="48" height="48" viewBox="0 0 48 48" fill="none">
<path d="M5.42 4.09C5.36 4.11 5.3 4.13 5.23 4.15C5.17 4.18 5.11 4.21 5.06 4.24C5 4.27 4.94 4.3 4.89 4.34C4.83 4.37 4.78 4.41 4.73 4.45C4.68 4.5 4.63 4.54 4.59 4.59C4.54 4.63 4.5 4.68 4.45 4.73C4.41 4.78 4.37 4.83 4.34 4.89C4.3 4.94 4.27 5 4.24 5.06C4.21 5.11 4.18 5.17 4.15 5.23C4.13 5.3 4.11 5.36 4.09 5.42C4.07 5.48 4.05 5.55 4.04 5.61C4.03 5.67 4.02 5.74 4.01 5.8C4 5.87 4 5.93 4 6L4 42C4 42.07 4 42.13 4.01 42.2C4.02 42.26 4.03 42.33 4.04 42.39C4.05 42.45 4.07 42.52 4.09 42.58C4.11 42.64 4.13 42.7 4.15 42.77C4.18 42.83 4.21 42.88 4.24 42.94C4.27 43 4.3 43.06 4.34 43.11C4.37 43.17 4.41 43.22 4.45 43.27C4.5 43.32 4.54 43.37 4.59 43.41C4.63 43.46 4.68 43.5 4.73 43.55C4.78 43.59 4.83 43.63 4.89 43.66C4.94 43.7 5 43.73 5.06 43.76C5.11 43.79 5.17 43.82 5.23 43.85C5.3 43.87 5.36 43.89 5.42 43.91C5.48 43.93 5.55 43.95 5.61 43.96C5.67 43.97 5.74 43.98 5.8 43.99C5.87 44 5.93 44 6 44C6.07 44 6.13 44 6.2 43.99C6.26 43.98 6.33 43.97 6.39 43.96C6.45 43.95 6.52 43.93 6.58 43.91C6.64 43.89 6.7 43.87 6.77 43.85C6.83 43.82 6.89 43.79 6.94 43.76C7 43.73 7.06 43.7 7.11 43.66C7.17 43.63 7.22 43.59 7.27 43.55C7.32 43.5 7.37 43.46 7.41 43.41C7.46 43.37 7.5 43.32 7.55 43.27C7.59 43.22 7.63 43.17 7.66 43.11C7.7 43.06 7.73 43 7.76 42.94C7.79 42.88 7.82 42.83 7.85 42.77C7.87 42.7 7.89 42.64 7.91 42.58C7.93 42.52 7.95 42.45 7.96 42.39C7.97 42.33 7.98 42.26 7.99 42.2C8 42.13 8 42.07 8 42L8 6C8 5.93 8 5.87 7.99 5.8C7.98 5.74 7.97 5.67 7.96 5.61C7.95 5.55 7.93 5.48 7.91 5.42C7.89 5.36 7.87 5.3 7.85 5.23C7.82 5.17 7.79 5.11 7.76 5.06C7.73 5 7.7 4.94 7.66 4.89C7.63 4.83 7.59 4.78 7.55 4.73C7.5 4.68 7.46 4.63 7.41 4.59C7.37 4.54 7.32 4.5 7.27 4.45C7.22 4.41 7.17 4.37 7.11 4.34C7.06 4.3 7 4.27 6.94 4.24C6.89 4.21 6.83 4.18 6.77 4.15C6.7 4.13 6.64 4.11 6.58 4.09C6.52 4.07 6.45 4.05 6.39 4.04C6.33 4.03 6.26 4.02 6.2 4.01C6.13 4 6.07 4 6 4C5.93 4 5.87 4 5.8 4.01C5.74 4.02 5.67 4.03 5.61 4.04C5.55 4.05 5.48 4.07 5.42 4.09ZM34.34 21.53C35.05 21.22 35.69 20.8 36.24 20.24C36.8 19.69 37.22 19.05 37.53 18.34C37.84 17.59 38 16.81 38 16L38 14C38 13.19 37.84 12.41 37.53 11.66C37.22 10.95 36.8 10.31 36.24 9.76C35.69 9.2 35.05 8.78 34.34 8.47C33.59 8.16 32.81 8 32 8L18 8C17.19 8 16.41 8.16 15.66 8.47C14.95 8.78 14.31 9.2 13.76 9.76C13.2 10.31 12.78 10.95 12.47 11.66C12.16 12.41 12 13.19 12 14L12 16C12 16.81 12.16 17.59 12.47 18.34C12.78 19.05 13.2 19.69 13.76 20.24C14.31 20.8 14.95 21.22 15.66 21.53C16.41 21.84 17.19 22 18 22L32 22C32.81 22 33.59 21.84 34.34 21.53ZM33.84 16.78C33.95 16.53 34 16.27 34 16L34 14C34 13.73 33.95 13.47 33.84 13.22C33.74 12.98 33.6 12.77 33.41 12.59C33.23 12.4 33.02 12.26 32.78 12.16C32.53 12.05 32.27 12 32 12L18 12C17.73 12 17.47 12.05 17.22 12.16C16.98 12.26 16.77 12.4 16.59 12.59C16.4 12.77 16.26 12.98 16.16 13.22C16.05 13.47 16 13.73 16 14L16 16C16 16.27 16.05 16.53 16.16 16.78C16.26 17.02 16.4 17.23 16.59 17.41C16.77 17.6 16.98 17.74 17.22 17.84C17.47 17.95 17.73 18 18 18L32 18C32.27 18 32.53 17.95 32.78 17.84C33.02 17.74 33.23 17.6 33.41 17.41C33.6 17.23 33.74 17.02 33.84 16.78ZM38 40C38.81 40 39.59 39.84 40.34 39.53C41.05 39.22 41.69 38.8 42.24 38.24C42.8 37.69 43.22 37.05 43.53 36.34C43.84 35.59 44 34.81 44 34L44 32C44 31.19 43.84 30.41 43.53 29.66C43.22 28.95 42.8 28.31 42.24 27.76C41.69 27.2 41.05 26.78 40.34 26.47C39.59 26.16 38.81 26 38 26L18 26C17.19 26 16.41 26.16 15.66 26.47C14.95 26.78 14.31 27.2 13.76 27.76C13.2 28.31 12.78 28.95 12.47 29.66C12.16 30.41 12 31.19 12 32L12 34C12 34.81 12.16 35.59 12.47 36.34C12.78 37.05 13.2 37.69 13.76 38.24C14.31 38.8 14.95 39.22 15.66 39.53C16.41 39.84 17.19 40 18 40L38 40ZM39.41 35.41C39.6 35.23 39.74 35.02 39.84 34.78C39.95 34.53 40 34.27 40 34L40 32C40 31.73 39.95 31.47 39.84 31.22C39.74 30.98 39.6 30.77 39.41 30.59C39.23 30.4 39.02 30.26 38.78 30.16C38.53 30.05 38.27 30 38 30L18 30C17.73 30 17.47 30.05 17.22 30.16C16.98 30.26 16.77 30.4 16.59 30.59C16.4 30.77 16.26 30.98 16.16 31.22C16.05 31.47 16 31.73 16 32L16 34C16 34.27 16.05 34.53 16.16 34.78C16.26 35.02 16.4 35.23 16.59 35.41C16.77 35.6 16.98 35.74 17.22 35.84C17.47 35.95 17.73 36 18 36L38 36C38.27 36 38.53 35.95 38.78 35.84C39.02 35.74 39.23 35.6 39.41 35.41Z" fill-rule="evenodd"  fill="#000000" >
</path>
</svg>
