<svg xmlns="http://www.w3.org/2000/svg" xmlns:xlink="http://www.w3.org/1999/xlink" width="48" height="48" viewBox="0 0 48 48" fill="none">
<path d="M9 19.78L9 28.22C4.99 29.13 2 32.72 2 37C2 41.97 6.03 46 11 46C15.28 46 18.87 43.01 19.78 39L28.22 39C29.13 43.01 32.72 46 37 46C41.97 46 46 41.97 46 37C46 32.72 43.01 29.13 39 28.22L39 19.78C43.01 18.87 46 15.28 46 11C46 6.03 41.97 2 37 2C32.72 2 29.13 4.99 28.22 9L19.78 9C18.87 4.99 15.28 2 11 2C6.03 2 2 6.03 2 11C2 15.28 4.99 18.87 9 19.78ZM13 28.22C14.01 28.45 14.95 28.85 15.8 29.38L21.18 24L15.8 18.62C14.95 19.15 14.01 19.55 13 19.78L13 28.22ZM35 19.78C33.99 19.55 33.05 19.15 32.2 18.62L26.82 24L32.2 29.38C33.05 28.85 33.99 28.45 35 28.22L35 19.78ZM6 11C6 13.76 8.24 16 11 16C13.76 16 16 13.76 16 11C16 8.24 13.76 6 11 6C8.24 6 6 8.24 6 11ZM42 11C42 8.24 39.76 6 37 6C34.24 6 32 8.24 32 11C32 13.76 34.24 16 37 16C39.76 16 42 13.76 42 11ZM19.78 13C19.55 14.01 19.15 14.95 18.62 15.8L24 21.18L29.38 15.8C28.85 14.95 28.45 14.01 28.22 13L19.78 13ZM18.62 32.2C19.15 33.05 19.55 33.99 19.78 35L28.22 35C28.45 33.99 28.85 33.05 29.38 32.2L24 26.82L18.62 32.2ZM6 37C6 39.76 8.24 42 11 42C13.76 42 16 39.76 16 37C16 34.24 13.76 32 11 32C8.24 32 6 34.24 6 37ZM42 37C42 34.24 39.76 32 37 32C34.24 32 32 34.24 32 37C32 39.76 34.24 42 37 42C39.76 42 42 39.76 42 37Z" fill-rule="evenodd"  fill="#000000" >
</path>
</svg>
