<svg xmlns="http://www.w3.org/2000/svg" xmlns:xlink="http://www.w3.org/1999/xlink" width="48" height="48" viewBox="0 0 48 48" fill="none">
<path d="M13 5L13 42C13 43.1046 13.8954 44 15 44C16.1046 44 17 43.1046 17 42L17 31L40 31C43.3137 31 46 28.3137 46 25L46 20C46 16.6863 43.3137 14 40 14L17 14L17 5C17 3.89543 16.1046 3 15 3C13.8954 3 13 3.89543 13 5ZM9 18L8 18C6.89543 18 6 18.8954 6 20L6 25C6 26.1046 6.89543 27 8 27L9 27L9 31L8 31C4.68629 31 2 28.3137 2 25L2 20C2 16.6863 4.68629 14 8 14L9 14L9 18ZM17 27L40 27C41.1046 27 42 26.1046 42 25L42 20C42 18.8954 41.1046 18 40 18L17 18L17 27ZM8 39L8 35C8 33.8954 7.10457 33 6 33C4.89543 33 4 33.8954 4 35L4 39C4 40.1046 4.89543 41 6 41C7.10457 41 8 40.1046 8 39ZM26 35L26 39C26 40.1046 25.1046 41 24 41C22.8954 41 22 40.1046 22 39L22 35C22 33.8954 22.8954 33 24 33C25.1046 33 26 33.8954 26 35ZM35 35L35 39C35 40.1046 34.1046 41 33 41C31.8954 41 31 40.1046 31 39L31 35C31 33.8954 31.8954 33 33 33C34.1046 33 35 33.8954 35 35ZM44 39L44 35C44 33.8954 43.1046 33 42 33C40.8954 33 40 33.8954 40 35L40 39C40 40.1046 40.8954 41 42 41C43.1046 41 44 40.1046 44 39Z" fill-rule="evenodd"  fill="#000000" >
</path>
</svg>
