<svg xmlns="http://www.w3.org/2000/svg" xmlns:xlink="http://www.w3.org/1999/xlink" width="48" height="48" viewBox="0 0 48 48" fill="none">
<path d="M15.8666 41.5374C15.9116 41.5946 15.9528 41.6426 16.0033 41.6867C16.0445 41.7347 16.095 41.7789 16.1417 41.8138C16.1922 41.858 16.2519 41.8984 16.2986 41.9333C16.3583 41.9737 16.4143 42.0048 16.4702 42.0359C16.5262 42.0671 16.5914 42.0944 16.6528 42.1125C16.7088 42.1436 16.7702 42.1617 16.8316 42.1798C16.8931 42.1979 16.9637 42.2122 17.0252 42.2303C17.092 42.2354 17.1535 42.2535 17.2204 42.2585C17.2873 42.2636 17.3541 42.2686 17.4172 42.2644C17.4841 42.2695 17.5472 42.2652 17.6104 42.261C17.6789 42.2438 17.742 42.2396 17.8013 42.2261C17.8699 42.2089 17.9292 42.1954 17.9978 42.1782C18.0534 42.1555 18.1219 42.1382 18.1775 42.1155C18.2978 42.0663 18.4105 41.9985 18.5233 41.9308C18.6322 41.8538 18.7374 41.7676 18.8296 41.6759C18.9217 41.5842 19.0008 41.487 19.0723 41.3713C19.1476 41.2649 19.2061 41.1437 19.2553 41.0263C19.3138 40.9052 19.35 40.7823 19.3731 40.654C19.3963 40.5257 19.4064 40.3919 19.4072 40.2619C19.4081 40.1319 19.3959 39.9964 19.3652 39.8685C19.3437 39.7369 19.3037 39.6128 19.2545 39.4924L19.2545 39.4924L11.6268 21.2417C11.0988 19.9775 10.8397 18.6573 10.8364 17.2757C10.8368 15.9034 11.0939 14.5773 11.6245 13.3123C12.1512 12.038 12.9039 10.9198 13.8787 9.94842C14.8535 8.97704 15.9768 8.23663 17.254 7.71415C18.5683 7.17652 19.9386 6.90773 21.35 6.92459C22.7223 6.92505 24.0429 7.19517 25.3134 7.71267C26.584 8.23016 27.7169 8.966 28.6992 9.91471C29.7152 10.8929 30.5078 12.038 31.0769 13.3502L38.8111 31.2009C39.1552 31.9893 39.3269 32.805 39.3336 33.6666C39.3403 34.5282 39.1796 35.3503 38.859 36.1513C38.5346 36.943 38.0684 37.6523 37.4622 38.2569C36.8559 38.8614 36.1521 39.333 35.3653 39.6548C34.5323 39.9956 33.672 40.1638 32.7805 40.1503C31.9151 40.1478 31.0893 39.9778 30.2845 39.6479C29.4797 39.3181 28.7704 38.8519 28.1604 38.2587C27.5168 37.6361 27.0246 36.9082 26.6746 36.079L19.2593 18.6382C19.1364 18.3643 19.0784 18.0639 19.0742 17.7631C19.07 17.4623 19.1234 17.1703 19.2437 16.8834C19.3586 16.6096 19.5164 16.3613 19.7339 16.1535C19.9476 15.9364 20.2025 15.7673 20.4802 15.6537C20.7856 15.5288 21.0953 15.467 21.4184 15.4644C21.7322 15.4657 22.028 15.5284 22.3241 15.645C22.6111 15.7653 22.8723 15.9285 23.1024 16.1477C23.3326 16.3669 23.5147 16.6273 23.6489 16.929L30.628 32.7223L30.628 32.7223C30.6865 32.8389 30.7449 32.9554 30.8181 33.0551C30.8951 33.1641 30.9814 33.2693 31.0823 33.3576C31.174 33.4497 31.2712 33.5288 31.3869 33.6004C31.4988 33.6626 31.6107 33.7249 31.7374 33.7703C31.8547 33.8196 31.9868 33.852 32.1151 33.8751C32.2435 33.8982 32.368 33.9121 32.5072 33.9092C32.6334 33.9008 32.7689 33.8886 32.8968 33.8579C33.0247 33.8272 33.1488 33.7872 33.2691 33.738C33.3857 33.6795 33.5022 33.621 33.6112 33.544C33.7109 33.4708 33.8161 33.3846 33.9044 33.2836C33.9965 33.1919 34.0718 33.0855 34.1472 32.9791C34.2187 32.8634 34.2717 32.7552 34.3171 32.6286C34.3664 32.5112 34.3988 32.3791 34.4219 32.2508C34.445 32.1225 34.4551 31.9887 34.456 31.8587C34.4568 31.7287 34.4354 31.5971 34.4047 31.4692C34.374 31.3413 34.334 31.2172 34.2848 31.0968L34.2848 31.0968L27.3057 15.3035C26.9523 14.5188 26.4791 13.8373 25.8598 13.2479C25.2611 12.6824 24.5855 12.2457 23.8106 11.9361C23.0487 11.6319 22.2489 11.4728 21.4282 11.4737C20.5813 11.4635 19.7525 11.6297 18.9658 11.9515C18.1883 12.2695 17.4992 12.7243 16.9114 13.3213C16.3107 13.9128 15.8554 14.596 15.5365 15.3747C15.2176 16.1534 15.0624 16.9624 15.0707 17.8017C15.0791 18.641 15.2432 19.4383 15.5797 20.2082L22.995 37.649C23.555 38.965 24.3421 40.1232 25.3656 41.1199C26.3517 42.0778 27.4884 42.8229 28.7627 43.3497C30.037 43.8764 31.3669 44.1428 32.743 44.1525C34.173 44.1618 35.547 43.9022 36.8798 43.357C38.1663 42.8308 39.3043 42.0735 40.2939 41.0853C41.2834 40.0971 42.0377 38.9566 42.5662 37.66C43.0853 36.3672 43.3479 35.0281 43.337 33.628C43.3261 32.2279 43.0371 30.8875 42.4831 29.6124L34.7489 11.7617C33.9698 9.9628 32.873 8.39103 31.4772 7.03885C30.1225 5.73464 28.5714 4.71608 26.8222 4.00547C25.0729 3.29486 23.2614 2.93385 21.3745 2.91697C19.4338 2.90052 17.5537 3.26985 15.7396 4.01192C13.9718 4.73507 12.4181 5.77038 11.0562 7.11618C9.70365 8.45819 8.66658 10.0169 7.9282 11.7775C7.20287 13.5436 6.83092 15.3812 6.83087 17.2828C6.83461 19.1936 7.20731 21.0292 7.93971 22.7932L15.5674 41.0439L15.5674 41.0439C15.5902 41.0994 15.6167 41.1642 15.6486 41.216C15.6844 41.277 15.7164 41.3287 15.7483 41.3805C15.7841 41.4415 15.8253 41.4894 15.8666 41.5374Z"   fill="#000000" >
</path>
</svg>
