<svg xmlns="http://www.w3.org/2000/svg" xmlns:xlink="http://www.w3.org/1999/xlink" width="48" height="48" viewBox="0 0 48 48" fill="none">
<path d="M5.61 3.04C5.55 3.05 5.48 3.07 5.42 3.09C5.36 3.11 5.3 3.13 5.23 3.15C5.17 3.18 5.11 3.21 5.06 3.24C5 3.27 4.94 3.3 4.89 3.34C4.83 3.37 4.78 3.41 4.73 3.45C4.68 3.5 4.63 3.54 4.59 3.59C4.54 3.63 4.5 3.68 4.45 3.73C4.41 3.78 4.37 3.83 4.34 3.89C4.3 3.94 4.27 4 4.24 4.06C4.21 4.11 4.18 4.17 4.15 4.23C4.13 4.3 4.11 4.36 4.09 4.42C4.07 4.48 4.05 4.55 4.04 4.61C4.03 4.67 4.02 4.74 4.01 4.8C4 4.87 4 4.93 4 5C4 5.07 4 5.13 4.01 5.2C4.02 5.26 4.03 5.33 4.04 5.39C4.05 5.45 4.07 5.52 4.09 5.58C4.11 5.64 4.13 5.7 4.15 5.77C4.18 5.83 4.21 5.89 4.24 5.94C4.27 6 4.3 6.06 4.34 6.11C4.37 6.17 4.41 6.22 4.45 6.27C4.5 6.32 4.54 6.37 4.59 6.41C4.63 6.46 4.68 6.5 4.73 6.55C4.78 6.59 4.83 6.63 4.89 6.66C4.94 6.7 5 6.73 5.06 6.76C5.11 6.79 5.17 6.82 5.23 6.85C5.3 6.87 5.36 6.89 5.42 6.91C5.48 6.93 5.55 6.95 5.61 6.96C5.67 6.97 5.74 6.98 5.8 6.99C5.87 7 5.93 7 6 7L42 7C42.07 7 42.13 7 42.2 6.99C42.26 6.98 42.33 6.97 42.39 6.96C42.45 6.95 42.52 6.93 42.58 6.91C42.64 6.89 42.7 6.87 42.77 6.85C42.83 6.82 42.88 6.79 42.94 6.76C43 6.73 43.06 6.7 43.11 6.66C43.17 6.63 43.22 6.59 43.27 6.55C43.32 6.5 43.37 6.46 43.41 6.41C43.46 6.37 43.5 6.32 43.55 6.27C43.59 6.22 43.63 6.17 43.66 6.11C43.7 6.06 43.73 6 43.76 5.94C43.79 5.89 43.82 5.83 43.85 5.77C43.87 5.7 43.89 5.64 43.91 5.58C43.93 5.52 43.95 5.45 43.96 5.39C43.97 5.33 43.98 5.26 43.99 5.2C44 5.13 44 5.07 44 5C44 4.93 44 4.87 43.99 4.8C43.98 4.74 43.97 4.67 43.96 4.61C43.95 4.55 43.93 4.48 43.91 4.42C43.89 4.36 43.87 4.3 43.85 4.23C43.82 4.17 43.79 4.11 43.76 4.06C43.73 4 43.7 3.94 43.66 3.89C43.63 3.83 43.59 3.78 43.55 3.73C43.5 3.68 43.46 3.63 43.41 3.59C43.37 3.54 43.32 3.5 43.27 3.45C43.22 3.41 43.17 3.37 43.11 3.34C43.06 3.3 43 3.27 42.94 3.24C42.88 3.21 42.83 3.18 42.77 3.15C42.7 3.13 42.64 3.11 42.58 3.09C42.52 3.07 42.45 3.05 42.39 3.04C42.33 3.03 42.26 3.02 42.2 3.01C42.13 3 42.07 3 42 3L6 3C5.93 3 5.87 3 5.8 3.01C5.74 3.02 5.67 3.03 5.61 3.04ZM10.01 37.2C10.02 37.26 10.03 37.33 10.04 37.39C10.05 37.45 10.07 37.52 10.09 37.58C10.11 37.64 10.13 37.7 10.15 37.77C10.18 37.83 10.21 37.89 10.24 37.94C10.27 38 10.3 38.06 10.34 38.11C10.37 38.17 10.41 38.22 10.45 38.27C10.5 38.32 10.54 38.37 10.59 38.41C10.63 38.46 10.68 38.5 10.73 38.55C10.78 38.59 10.83 38.63 10.89 38.66C10.94 38.7 11 38.73 11.06 38.76C11.11 38.79 11.17 38.82 11.23 38.85C11.3 38.87 11.36 38.89 11.42 38.91C11.48 38.93 11.55 38.95 11.61 38.96C11.67 38.97 11.74 38.98 11.8 38.99C11.87 39 11.93 39 12 39C12.1 39 12.2 38.99 12.29 38.98C12.39 38.96 12.49 38.94 12.58 38.91C12.67 38.89 12.77 38.85 12.86 38.81C12.94 38.77 13.03 38.72 13.11 38.66C13.19 38.61 13.27 38.55 13.34 38.48C13.42 38.42 13.48 38.34 13.55 38.27C13.61 38.19 13.67 38.11 13.72 38.03C13.77 37.94 13.81 37.86 13.85 37.76L16.42 31.54L31.58 31.54L34.15 37.76C34.19 37.86 34.23 37.94 34.28 38.03C34.33 38.11 34.39 38.19 34.45 38.27C34.52 38.34 34.58 38.42 34.66 38.48C34.73 38.55 34.81 38.61 34.89 38.66C34.97 38.72 35.06 38.77 35.14 38.81C35.23 38.85 35.33 38.89 35.42 38.91C35.51 38.94 35.61 38.96 35.71 38.98C35.8 38.99 35.9 39 36 39C36.07 39 36.13 39 36.2 38.99C36.26 38.98 36.33 38.97 36.39 38.96C36.45 38.95 36.52 38.93 36.58 38.91C36.64 38.89 36.7 38.87 36.77 38.85C36.83 38.82 36.89 38.79 36.94 38.76C37 38.73 37.06 38.7 37.11 38.66C37.17 38.63 37.22 38.59 37.27 38.55C37.32 38.5 37.37 38.46 37.41 38.41C37.46 38.37 37.5 38.32 37.55 38.27C37.59 38.22 37.63 38.17 37.66 38.11C37.7 38.06 37.73 38 37.76 37.94C37.79 37.89 37.82 37.83 37.85 37.77C37.87 37.7 37.89 37.64 37.91 37.58C37.93 37.52 37.95 37.45 37.96 37.39C37.97 37.33 37.98 37.26 37.99 37.2C38 37.13 38 37.07 38 37C38 36.74 37.95 36.48 37.85 36.24L34.99 29.32C34.98 29.27 34.97 29.2 34.96 29.15C34.95 29.09 34.93 29.02 34.91 28.96C34.89 28.9 34.87 28.84 34.85 28.77C34.82 28.71 34.79 28.65 34.76 28.6C34.73 28.54 34.7 28.48 34.66 28.43C34.63 28.37 34.59 28.32 34.55 28.27L27.7 11.71C27.37 10.92 26.86 10.3 26.15 9.85C25.5 9.44 24.78 9.23 24 9.23C23.22 9.23 22.5 9.44 21.85 9.85C21.14 10.3 20.63 10.92 20.3 11.71L13.45 28.27C13.41 28.32 13.37 28.37 13.34 28.43C13.3 28.48 13.27 28.54 13.24 28.6C13.21 28.65 13.18 28.71 13.15 28.77C13.13 28.84 13.11 28.9 13.09 28.96C13.07 29.02 13.05 29.09 13.04 29.15C13.03 29.2 13.02 29.27 13.01 29.32L10.15 36.24C10.05 36.48 10 36.74 10 37C10 37.07 10 37.13 10.01 37.2ZM18.08 27.54L29.92 27.54L24 13.23L18.08 27.54ZM5.61 41.04C5.55 41.05 5.48 41.07 5.42 41.09C5.36 41.11 5.3 41.13 5.23 41.15C5.17 41.18 5.11 41.21 5.06 41.24C5 41.27 4.94 41.3 4.89 41.34C4.83 41.37 4.78 41.41 4.73 41.45C4.68 41.5 4.63 41.54 4.59 41.59C4.54 41.63 4.5 41.68 4.45 41.73C4.41 41.78 4.37 41.83 4.34 41.89C4.3 41.94 4.27 42 4.24 42.06C4.21 42.11 4.18 42.17 4.15 42.23C4.13 42.3 4.11 42.36 4.09 42.42C4.07 42.48 4.05 42.55 4.04 42.61C4.03 42.67 4.02 42.74 4.01 42.8C4 42.87 4 42.93 4 43C4 43.07 4 43.13 4.01 43.2C4.02 43.26 4.03 43.33 4.04 43.39C4.05 43.45 4.07 43.52 4.09 43.58C4.11 43.64 4.13 43.7 4.15 43.77C4.18 43.83 4.21 43.89 4.24 43.94C4.27 44 4.3 44.06 4.34 44.11C4.37 44.17 4.41 44.22 4.45 44.27C4.5 44.32 4.54 44.37 4.59 44.41C4.63 44.46 4.68 44.5 4.73 44.55C4.78 44.59 4.83 44.63 4.89 44.66C4.94 44.7 5 44.73 5.06 44.76C5.11 44.79 5.17 44.82 5.23 44.85C5.3 44.87 5.36 44.89 5.42 44.91C5.48 44.93 5.55 44.95 5.61 44.96C5.67 44.97 5.74 44.98 5.8 44.99C5.87 45 5.93 45 6 45L42 45C42.07 45 42.13 45 42.2 44.99C42.26 44.98 42.33 44.97 42.39 44.96C42.45 44.95 42.52 44.93 42.58 44.91C42.64 44.89 42.7 44.87 42.77 44.85C42.83 44.82 42.88 44.79 42.94 44.76C43 44.73 43.06 44.7 43.11 44.66C43.17 44.63 43.22 44.59 43.27 44.55C43.32 44.5 43.37 44.46 43.41 44.41C43.46 44.37 43.5 44.32 43.55 44.27C43.59 44.22 43.63 44.17 43.66 44.11C43.7 44.06 43.73 44 43.76 43.94C43.79 43.89 43.82 43.83 43.85 43.77C43.87 43.7 43.89 43.64 43.91 43.58C43.93 43.52 43.95 43.45 43.96 43.39C43.97 43.33 43.98 43.26 43.99 43.2C44 43.13 44 43.07 44 43C44 42.93 44 42.87 43.99 42.8C43.98 42.74 43.97 42.67 43.96 42.61C43.95 42.55 43.93 42.48 43.91 42.42C43.89 42.36 43.87 42.3 43.85 42.23C43.82 42.17 43.79 42.11 43.76 42.06C43.73 42 43.7 41.94 43.66 41.89C43.63 41.83 43.59 41.78 43.55 41.73C43.5 41.68 43.46 41.63 43.41 41.59C43.37 41.54 43.32 41.5 43.27 41.45C43.22 41.41 43.17 41.37 43.11 41.34C43.06 41.3 43 41.27 42.94 41.24C42.88 41.21 42.83 41.18 42.77 41.15C42.7 41.13 42.64 41.11 42.58 41.09C42.52 41.07 42.45 41.05 42.39 41.04C42.33 41.03 42.26 41.02 42.2 41.01C42.13 41 42.07 41 42 41L6 41C5.93 41 5.87 41 5.8 41.01C5.74 41.02 5.67 41.03 5.61 41.04Z" fill-rule="evenodd"  fill="#000000" >
</path>
</svg>
