<svg xmlns="http://www.w3.org/2000/svg" xmlns:xlink="http://www.w3.org/1999/xlink" width="48" height="48" viewBox="0 0 48 48" fill="none">
<path d="M6.96 5.61C6.95 5.55 6.93 5.48 6.91 5.42C6.89 5.36 6.87 5.3 6.85 5.23C6.82 5.17 6.79 5.11 6.76 5.06C6.73 5 6.7 4.94 6.66 4.89C6.63 4.83 6.59 4.78 6.55 4.73C6.5 4.68 6.46 4.63 6.41 4.59C6.37 4.54 6.32 4.5 6.27 4.45C6.22 4.41 6.17 4.37 6.11 4.34C6.06 4.3 6 4.27 5.94 4.24C5.89 4.21 5.83 4.18 5.77 4.15C5.7 4.13 5.64 4.11 5.58 4.09C5.52 4.07 5.45 4.05 5.39 4.04C5.33 4.03 5.26 4.02 5.2 4.01C5.13 4 5.07 4 5 4C4.93 4 4.87 4 4.8 4.01C4.74 4.02 4.67 4.03 4.61 4.04C4.55 4.05 4.48 4.07 4.42 4.09C4.36 4.11 4.3 4.13 4.23 4.15C4.17 4.18 4.11 4.21 4.06 4.24C4 4.27 3.94 4.3 3.89 4.34C3.83 4.37 3.78 4.41 3.73 4.45C3.68 4.5 3.63 4.54 3.59 4.59C3.54 4.63 3.5 4.68 3.45 4.73C3.41 4.78 3.37 4.83 3.34 4.89C3.3 4.94 3.27 5 3.24 5.06C3.21 5.11 3.18 5.17 3.15 5.23C3.13 5.3 3.11 5.36 3.09 5.42C3.07 5.48 3.05 5.55 3.04 5.61C3.03 5.67 3.02 5.74 3.01 5.8C3 5.87 3 5.93 3 6L3 42C3 42.07 3 42.13 3.01 42.2C3.02 42.26 3.03 42.33 3.04 42.39C3.05 42.45 3.07 42.52 3.09 42.58C3.11 42.64 3.13 42.7 3.15 42.77C3.18 42.83 3.21 42.88 3.24 42.94C3.27 43 3.3 43.06 3.34 43.11C3.37 43.17 3.41 43.22 3.45 43.27C3.5 43.32 3.54 43.37 3.59 43.41C3.63 43.46 3.68 43.5 3.73 43.55C3.78 43.59 3.83 43.63 3.89 43.66C3.94 43.7 4 43.73 4.06 43.76C4.11 43.79 4.17 43.82 4.23 43.85C4.3 43.87 4.36 43.89 4.42 43.91C4.48 43.93 4.55 43.95 4.61 43.96C4.67 43.97 4.74 43.98 4.8 43.99C4.87 44 4.93 44 5 44C5.07 44 5.13 44 5.2 43.99C5.26 43.98 5.33 43.97 5.39 43.96C5.45 43.95 5.52 43.93 5.58 43.91C5.64 43.89 5.7 43.87 5.77 43.85C5.83 43.82 5.89 43.79 5.94 43.76C6 43.73 6.06 43.7 6.11 43.66C6.17 43.63 6.22 43.59 6.27 43.55C6.32 43.5 6.37 43.46 6.41 43.41C6.46 43.37 6.5 43.32 6.55 43.27C6.59 43.22 6.63 43.17 6.66 43.11C6.7 43.06 6.73 43 6.76 42.94C6.79 42.88 6.82 42.83 6.85 42.77C6.87 42.7 6.89 42.64 6.91 42.58C6.93 42.52 6.95 42.45 6.96 42.39C6.97 42.33 6.98 42.26 6.99 42.2C7 42.13 7 42.07 7 42L7 6C7 5.93 7 5.87 6.99 5.8C6.98 5.74 6.97 5.67 6.96 5.61ZM44.96 5.61C44.95 5.55 44.93 5.48 44.91 5.42C44.89 5.36 44.87 5.3 44.85 5.23C44.82 5.17 44.79 5.11 44.76 5.06C44.73 5 44.7 4.94 44.66 4.89C44.63 4.83 44.59 4.78 44.55 4.73C44.5 4.68 44.46 4.63 44.41 4.59C44.37 4.54 44.32 4.5 44.27 4.45C44.22 4.41 44.17 4.37 44.11 4.34C44.06 4.3 44 4.27 43.94 4.24C43.89 4.21 43.83 4.18 43.77 4.15C43.7 4.13 43.64 4.11 43.58 4.09C43.52 4.07 43.45 4.05 43.39 4.04C43.33 4.03 43.26 4.02 43.2 4.01C43.13 4 43.07 4 43 4C42.93 4 42.87 4 42.8 4.01C42.74 4.02 42.67 4.03 42.61 4.04C42.55 4.05 42.48 4.07 42.42 4.09C42.36 4.11 42.3 4.13 42.23 4.15C42.17 4.18 42.11 4.21 42.06 4.24C42 4.27 41.94 4.3 41.89 4.34C41.83 4.37 41.78 4.41 41.73 4.45C41.68 4.5 41.63 4.54 41.59 4.59C41.54 4.63 41.5 4.68 41.45 4.73C41.41 4.78 41.37 4.83 41.34 4.89C41.3 4.94 41.27 5 41.24 5.06C41.21 5.11 41.18 5.17 41.15 5.23C41.13 5.3 41.11 5.36 41.09 5.42C41.07 5.48 41.05 5.55 41.04 5.61C41.03 5.67 41.02 5.74 41.01 5.8C41 5.87 41 5.93 41 6L41 42C41 42.07 41 42.13 41.01 42.2C41.02 42.26 41.03 42.33 41.04 42.39C41.05 42.45 41.07 42.52 41.09 42.58C41.11 42.64 41.13 42.7 41.15 42.77C41.18 42.83 41.21 42.88 41.24 42.94C41.27 43 41.3 43.06 41.34 43.11C41.37 43.17 41.41 43.22 41.45 43.27C41.5 43.32 41.54 43.37 41.59 43.41C41.63 43.46 41.68 43.5 41.73 43.55C41.78 43.59 41.83 43.63 41.89 43.66C41.94 43.7 42 43.73 42.06 43.76C42.11 43.79 42.17 43.82 42.23 43.85C42.3 43.87 42.36 43.89 42.42 43.91C42.48 43.93 42.55 43.95 42.61 43.96C42.67 43.97 42.74 43.98 42.8 43.99C42.87 44 42.93 44 43 44C43.07 44 43.13 44 43.2 43.99C43.26 43.98 43.33 43.97 43.39 43.96C43.45 43.95 43.52 43.93 43.58 43.91C43.64 43.89 43.7 43.87 43.77 43.85C43.83 43.82 43.89 43.79 43.94 43.76C44 43.73 44.06 43.7 44.11 43.66C44.17 43.63 44.22 43.59 44.27 43.55C44.32 43.5 44.37 43.46 44.41 43.41C44.46 43.37 44.5 43.32 44.55 43.27C44.59 43.22 44.63 43.17 44.66 43.11C44.7 43.06 44.73 43 44.76 42.94C44.79 42.88 44.82 42.83 44.85 42.77C44.87 42.7 44.89 42.64 44.91 42.58C44.93 42.52 44.95 42.45 44.96 42.39C44.97 42.33 44.98 42.26 44.99 42.2C45 42.13 45 42.07 45 42L45 6C45 5.93 45 5.87 44.99 5.8C44.98 5.74 44.97 5.67 44.96 5.61ZM10.01 36.2C10.02 36.26 10.03 36.33 10.04 36.39C10.05 36.45 10.07 36.52 10.09 36.58C10.11 36.64 10.13 36.7 10.15 36.77C10.18 36.83 10.21 36.89 10.24 36.94C10.27 37 10.3 37.06 10.34 37.11C10.37 37.17 10.41 37.22 10.45 37.27C10.5 37.32 10.54 37.37 10.59 37.41C10.63 37.46 10.68 37.5 10.73 37.55C10.78 37.59 10.83 37.63 10.89 37.66C10.94 37.7 11 37.73 11.06 37.76C11.11 37.79 11.17 37.82 11.23 37.85C11.3 37.87 11.36 37.89 11.42 37.91C11.48 37.93 11.55 37.95 11.61 37.96C11.67 37.97 11.74 37.98 11.8 37.99C11.87 38 11.93 38 12 38C12.1 38 12.19 37.99 12.29 37.98C12.39 37.96 12.48 37.94 12.57 37.92C12.67 37.89 12.76 37.85 12.85 37.81C12.94 37.77 13.02 37.72 13.1 37.67C13.18 37.62 13.26 37.56 13.33 37.49C13.4 37.43 13.47 37.36 13.53 37.28C13.6 37.21 13.65 37.13 13.7 37.05C13.76 36.96 13.8 36.88 13.84 36.79L16.09 31.54L31.91 31.54L34.16 36.79C34.2 36.88 34.24 36.96 34.3 37.05C34.35 37.13 34.4 37.21 34.47 37.28C34.53 37.36 34.6 37.43 34.67 37.49C34.74 37.56 34.82 37.62 34.9 37.67C34.98 37.72 35.06 37.77 35.15 37.81C35.24 37.85 35.33 37.89 35.43 37.92C35.52 37.94 35.61 37.96 35.71 37.98C35.81 37.99 35.9 38 36 38C36.07 38 36.13 38 36.2 37.99C36.26 37.98 36.33 37.97 36.39 37.96C36.45 37.95 36.52 37.93 36.58 37.91C36.64 37.89 36.7 37.87 36.77 37.85C36.83 37.82 36.89 37.79 36.94 37.76C37 37.73 37.06 37.7 37.11 37.66C37.17 37.63 37.22 37.59 37.27 37.55C37.32 37.5 37.37 37.46 37.41 37.41C37.46 37.37 37.5 37.32 37.55 37.27C37.59 37.22 37.63 37.17 37.66 37.11C37.7 37.06 37.73 37 37.76 36.94C37.79 36.89 37.82 36.83 37.85 36.77C37.87 36.7 37.89 36.64 37.91 36.58C37.93 36.52 37.95 36.45 37.96 36.39C37.97 36.33 37.98 36.26 37.99 36.2C38 36.13 38 36.07 38 36C38 35.73 37.95 35.46 37.84 35.21L27.68 11.5C27.35 10.73 26.83 10.12 26.13 9.68C25.48 9.28 24.77 9.07 24 9.07C23.23 9.07 22.52 9.28 21.87 9.68C21.17 10.12 20.65 10.73 20.32 11.51L10.16 35.21C10.05 35.46 10 35.73 10 36C10 36.07 10 36.13 10.01 36.2ZM24 13.07L17.8 27.54L30.2 27.54L24 13.08L24 13.07Z" fill-rule="evenodd"  fill="#000000" >
</path>
</svg>
