<svg xmlns="http://www.w3.org/2000/svg" xmlns:xlink="http://www.w3.org/1999/xlink" width="48" height="48" viewBox="0 0 48 48" fill="none">
<path d="M12.24 12.24C12.8 11.69 13.22 11.05 13.53 10.34C13.53 10.33 13.54 10.32 13.54 10.31C16.23 10.63 18.72 11.19 21.01 11.99C24.69 13.29 27.79 15.19 30.3 17.7C32.81 20.21 34.71 23.31 36.01 26.99C36.81 29.28 37.37 31.77 37.69 34.46C37.68 34.46 37.67 34.47 37.66 34.47C36.95 34.78 36.31 35.2 35.76 35.76C35.2 36.31 34.78 36.95 34.47 37.66C34.16 38.41 34 39.19 34 40C34 40.81 34.16 41.59 34.47 42.34C34.78 43.05 35.2 43.69 35.76 44.24C36.31 44.8 36.95 45.22 37.66 45.53C38.41 45.84 39.19 46 40 46C40.81 46 41.59 45.84 42.34 45.53C43.05 45.22 43.69 44.8 44.24 44.24C44.8 43.69 45.22 43.05 45.53 42.34C45.84 41.59 46 40.81 46 40C46 39.19 45.84 38.41 45.53 37.66C45.22 36.95 44.8 36.31 44.24 35.76C43.69 35.2 43.05 34.78 42.34 34.47C42.13 34.38 41.91 34.31 41.69 34.24C41.34 31.16 40.71 28.3 39.78 25.66C38.29 21.41 36.07 17.81 33.13 14.87C30.19 11.93 26.59 9.71 22.34 8.22C19.7 7.29 16.84 6.66 13.76 6.31C13.69 6.09 13.62 5.87 13.53 5.66C13.22 4.95 12.8 4.31 12.24 3.76C11.69 3.2 11.05 2.78 10.34 2.47C9.59 2.16 8.81 2 8 2C7.19 2 6.41 2.16 5.66 2.47C4.95 2.78 4.31 3.2 3.76 3.76C3.2 4.31 2.78 4.95 2.47 5.66C2.16 6.41 2 7.19 2 8C2 8.81 2.16 9.59 2.47 10.34C2.78 11.05 3.2 11.69 3.76 12.24C4.31 12.8 4.95 13.22 5.66 13.53C6.41 13.84 7.19 14 8 14C8.81 14 9.59 13.84 10.34 13.53C11.05 13.22 11.69 12.8 12.24 12.24ZM10 8C10 7.73 9.95 7.47 9.84 7.22C9.74 6.98 9.6 6.77 9.41 6.59C9.23 6.4 9.02 6.26 8.78 6.16C8.53 6.05 8.27 6 8 6C7.73 6 7.47 6.05 7.22 6.16C6.98 6.26 6.77 6.4 6.59 6.59C6.4 6.77 6.26 6.98 6.16 7.22C6.05 7.47 6 7.73 6 8C6 8.27 6.05 8.53 6.16 8.78C6.26 9.02 6.4 9.23 6.59 9.41C6.77 9.6 6.98 9.74 7.22 9.84C7.47 9.95 7.73 10 8 10C8.27 10 8.53 9.95 8.78 9.84C9.02 9.74 9.23 9.6 9.41 9.41C9.6 9.23 9.74 9.02 9.84 8.78C9.95 8.53 10 8.27 10 8ZM41.84 40.78C41.95 40.53 42 40.27 42 40C42 39.73 41.95 39.47 41.84 39.22C41.74 38.98 41.6 38.77 41.41 38.59C41.23 38.4 41.02 38.26 40.78 38.16C40.53 38.05 40.27 38 40 38C39.73 38 39.47 38.05 39.22 38.16C38.98 38.26 38.77 38.4 38.59 38.59C38.4 38.77 38.26 38.98 38.16 39.22C38.05 39.47 38 39.73 38 40C38 40.27 38.05 40.53 38.16 40.78C38.26 41.02 38.4 41.23 38.59 41.41C38.77 41.6 38.98 41.74 39.22 41.84C39.47 41.95 39.73 42 40 42C40.27 42 40.53 41.95 40.78 41.84C41.02 41.74 41.23 41.6 41.41 41.41C41.6 41.23 41.74 41.02 41.84 40.78Z" fill-rule="evenodd"  fill="#000000" >
</path>
</svg>
