<svg xmlns="http://www.w3.org/2000/svg" xmlns:xlink="http://www.w3.org/1999/xlink" width="48" height="48" viewBox="0 0 48 48" fill="none">
<path d="M41.16 28.79C40.6 27.44 39.8 26.25 38.77 25.22C37.75 24.19 36.56 23.4 35.21 22.84C35.09 22.79 34.97 22.74 34.85 22.7C35.84 21.69 36.61 20.53 37.16 19.21C37.72 17.87 38 16.46 38 15C38 13.54 37.72 12.13 37.16 10.79C36.6 9.44 35.8 8.25 34.77 7.22C33.75 6.19 32.56 5.4 31.21 4.84C29.87 4.28 28.46 4 27 4L16 4C14.92 4 13.88 4.21 12.89 4.63C11.93 5.04 11.08 5.61 10.34 6.34C9.61 7.08 9.04 7.93 8.63 8.89C8.21 9.88 8 10.92 8 12L8 36C8 37.08 8.21 38.12 8.63 39.11C9.04 40.07 9.61 40.92 10.34 41.66C11.08 42.39 11.93 42.96 12.89 43.37C13.88 43.79 14.92 44 16 44L31 44C32.46 44 33.87 43.72 35.21 43.16C36.56 42.6 37.75 41.8 38.78 40.77C39.81 39.75 40.6 38.56 41.16 37.21C41.72 35.87 42 34.46 42 33C42 31.54 41.72 30.13 41.16 28.79ZM12 36C12 36.54 12.1 37.06 12.31 37.55C12.52 38.03 12.8 38.46 13.17 38.83C13.54 39.2 13.97 39.48 14.45 39.69C14.94 39.9 15.46 40 16 40L31 40C31.93 40 32.82 39.82 33.68 39.47C34.54 39.11 35.29 38.61 35.94 37.95C36.6 37.29 37.11 36.54 37.47 35.68C37.82 34.82 38 33.93 38 33C38 32.07 37.82 31.18 37.47 30.32C37.11 29.46 36.61 28.71 35.95 28.06C35.29 27.4 34.54 26.89 33.68 26.53C32.82 26.18 31.93 26 31 26L12 26L12 36ZM27 8L16 8C15.46 8 14.94 8.1 14.45 8.31C13.97 8.52 13.54 8.8 13.17 9.17C12.8 9.54 12.52 9.97 12.31 10.45C12.1 10.94 12 11.46 12 12L12 22L27 22C27.93 22 28.82 21.82 29.68 21.47C30.54 21.11 31.29 20.61 31.94 19.95C32.6 19.29 33.11 18.54 33.47 17.68C33.82 16.82 34 15.93 34 15C34 14.07 33.82 13.18 33.47 12.32C33.11 11.46 32.61 10.71 31.95 10.06C31.29 9.4 30.54 8.89 29.68 8.53C28.82 8.18 27.93 8 27 8Z" fill-rule="evenodd"  fill="#000000" >
</path>
</svg>
