<svg xmlns="http://www.w3.org/2000/svg" xmlns:xlink="http://www.w3.org/1999/xlink" width="48" height="48" viewBox="0 0 48 48" fill="none">
<path d="M36 33C37.08 33 38.12 32.79 39.11 32.37C40.07 31.96 40.92 31.39 41.66 30.66C42.39 29.92 42.96 29.07 43.37 28.11C43.79 27.12 44 26.08 44 25L44 10C44 8.92 43.79 7.88 43.37 6.89C42.96 5.93 42.39 5.08 41.66 4.34C40.92 3.61 40.07 3.04 39.11 2.63C38.12 2.21 37.08 2 36 2L12 2C10.92 2 9.88 2.21 8.89 2.63C7.93 3.04 7.08 3.61 6.34 4.34C5.61 5.08 5.04 5.93 4.63 6.89C4.21 7.88 4 8.92 4 10L4 25C4 26.08 4.21 27.12 4.63 28.11C5.04 29.07 5.61 29.92 6.34 30.66C7.08 31.39 7.93 31.96 8.89 32.37C9.88 32.79 10.92 33 12 33L36 33ZM8.54 17.58C9.66 17.19 10.89 17 12.25 17C13.69 17 15.13 17.4 16.56 18.19C17.09 18.48 17.65 18.84 18.25 19.28C18.6 19.53 19.09 19.92 19.74 20.43C20.35 20.92 20.81 21.27 21.11 21.49C21.57 21.83 22 22.1 22.38 22.31C23.2 22.77 24 23 24.75 23C26.39 23 27.75 22.62 28.83 21.86C29.14 21.64 29.41 21.4 29.64 21.15C29.7 21.08 29.75 21.02 29.79 20.96C29.8 20.95 29.8 20.94 29.81 20.94C29.85 20.87 29.9 20.8 29.95 20.73C30.01 20.67 30.06 20.61 30.12 20.55C30.19 20.49 30.25 20.44 30.32 20.39C30.39 20.34 30.46 20.29 30.53 20.25C30.61 20.21 30.68 20.17 30.76 20.14C30.84 20.11 30.92 20.08 31 20.06C31.08 20.04 31.16 20.03 31.25 20.02C31.33 20.01 31.42 20 31.5 20C31.57 20 31.63 20 31.7 20.01C31.76 20.02 31.83 20.03 31.89 20.04C31.95 20.05 32.02 20.07 32.08 20.09C32.14 20.11 32.2 20.13 32.27 20.15C32.33 20.18 32.39 20.21 32.44 20.24C32.5 20.27 32.56 20.3 32.61 20.34C32.67 20.37 32.72 20.41 32.77 20.45C32.82 20.5 32.87 20.54 32.91 20.59C32.96 20.63 33 20.68 33.05 20.73C33.09 20.78 33.13 20.83 33.16 20.89C33.2 20.94 33.23 21 33.26 21.06C33.29 21.11 33.32 21.17 33.35 21.23C33.37 21.3 33.39 21.36 33.41 21.42C33.43 21.48 33.45 21.55 33.46 21.61C33.47 21.67 33.48 21.74 33.49 21.8C33.5 21.87 33.5 21.93 33.5 22C33.5 22.18 33.48 22.36 33.43 22.54C33.38 22.71 33.31 22.88 33.21 23.03C33.08 23.26 32.89 23.51 32.64 23.79C32.21 24.28 31.7 24.73 31.13 25.14C30.34 25.69 29.47 26.12 28.51 26.43C27.35 26.81 26.09 27 24.75 27C23.31 27 21.87 26.6 20.44 25.81C19.91 25.52 19.35 25.16 18.75 24.72C18.4 24.47 17.91 24.08 17.26 23.57C16.65 23.08 16.19 22.73 15.89 22.51C15.43 22.17 15 21.9 14.62 21.69C13.8 21.23 13 21 12.25 21C11.34 21 10.54 21.12 9.84 21.36C9.33 21.54 8.89 21.77 8.52 22.07C8.31 22.23 8.14 22.4 8 22.57L8 25C8 25.54 8.1 26.06 8.31 26.55C8.52 27.03 8.8 27.46 9.17 27.83C9.54 28.2 9.97 28.48 10.45 28.69C10.94 28.9 11.46 29 12 29L36 29C36.54 29 37.06 28.9 37.55 28.69C38.03 28.48 38.46 28.2 38.83 27.83C39.2 27.46 39.48 27.03 39.69 26.55C39.9 26.06 40 25.54 40 25L40 10C40 9.46 39.9 8.94 39.69 8.45C39.48 7.97 39.2 7.54 38.83 7.17C38.46 6.8 38.03 6.52 37.55 6.31C37.06 6.1 36.54 6 36 6L12 6C11.46 6 10.94 6.1 10.45 6.31C9.97 6.52 9.54 6.8 9.17 7.17C8.8 7.54 8.52 7.97 8.31 8.45C8.1 8.94 8 9.46 8 10L8 17.78C8.18 17.71 8.36 17.64 8.54 17.58ZM19.61 9.61C19.11 10.12 18.71 10.7 18.43 11.36C18.14 12.04 18 12.76 18 13.5C18 14.24 18.14 14.96 18.43 15.64C18.71 16.3 19.11 16.88 19.61 17.39C20.12 17.89 20.7 18.29 21.36 18.57C22.04 18.86 22.76 19 23.5 19C24.24 19 24.96 18.86 25.64 18.57C26.3 18.29 26.88 17.89 27.39 17.39C27.89 16.88 28.29 16.3 28.57 15.64C28.86 14.96 29 14.24 29 13.5C29 12.76 28.86 12.04 28.57 11.36C28.29 10.7 27.89 10.12 27.39 9.61C26.88 9.11 26.3 8.71 25.64 8.43C24.96 8.14 24.24 8 23.5 8C22.76 8 22.04 8.14 21.36 8.43C20.7 8.71 20.12 9.11 19.61 9.61ZM23.5 15C23.91 15 24.27 14.85 24.56 14.56C24.85 14.27 25 13.91 25 13.5C25 13.09 24.85 12.73 24.56 12.44C24.27 12.15 23.91 12 23.5 12C23.09 12 22.73 12.15 22.44 12.44C22.15 12.73 22 13.09 22 13.5C22 13.91 22.15 14.27 22.44 14.56C22.73 14.85 23.09 15 23.5 15ZM5.96 38.77C5.53 38.99 5.2 39.31 4.96 39.72C4.73 40.11 4.62 40.53 4.62 40.98C4.62 41.43 4.73 41.85 4.96 42.24C5.2 42.65 5.53 42.97 5.96 43.19L12.8 46.63C13.13 46.8 13.49 46.88 13.87 46.87C14.24 46.86 14.59 46.76 14.92 46.57C15.23 46.38 15.48 46.13 15.67 45.82C15.86 45.51 15.97 45.17 16 44.81L16 44.74L16 43L32 43L32 44.74L32 44.81C32.03 45.17 32.14 45.51 32.33 45.82C32.52 46.13 32.77 46.38 33.08 46.57C33.41 46.76 33.76 46.86 34.13 46.87C34.51 46.88 34.87 46.8 35.2 46.63L42.04 43.19C42.47 42.97 42.8 42.65 43.04 42.24C43.27 41.85 43.38 41.43 43.38 40.98C43.38 40.53 43.27 40.11 43.04 39.72C42.8 39.31 42.47 38.99 42.04 38.77L42.02 38.76L35.21 35.35C34.86 35.17 34.48 35.09 34.09 35.12C33.71 35.14 33.37 35.25 33.05 35.45C32.74 35.64 32.49 35.89 32.31 36.21C32.11 36.55 32.01 36.92 32.01 37.31L32.01 39L15.99 39L15.99 37.31C15.99 36.92 15.89 36.55 15.69 36.21C15.51 35.89 15.26 35.64 14.95 35.45C14.63 35.25 14.29 35.14 13.91 35.12C13.52 35.09 13.14 35.17 12.79 35.35L5.98 38.76L5.96 38.77Z" fill-rule="evenodd"  fill="#000000" >
</path>
</svg>
