<svg xmlns="http://www.w3.org/2000/svg" xmlns:xlink="http://www.w3.org/1999/xlink" width="48" height="48" viewBox="0 0 48 48" fill="none">
<path d="M2 11C2 15.97 6.03 20 11 20C15.28 20 18.87 17.01 19.78 13L28.22 13C28.45 14.01 28.85 14.95 29.38 15.8L15.8 29.38C14.41 28.51 12.76 28 11 28C6.03 28 2 32.03 2 37C2 41.97 6.03 46 11 46C15.28 46 18.87 43.01 19.78 39L28.22 39C29.13 43.01 32.72 46 37 46C41.97 46 46 41.97 46 37C46 32.03 41.97 28 37 28C32.72 28 29.13 30.99 28.22 35L19.78 35C19.55 33.99 19.15 33.05 18.62 32.2L32.2 18.62C33.59 19.49 35.24 20 37 20C41.97 20 46 15.97 46 11C46 6.03 41.97 2 37 2C32.72 2 29.13 4.99 28.22 9L19.78 9C18.87 4.99 15.28 2 11 2C6.03 2 2 6.03 2 11ZM37 16C39.76 16 42 13.76 42 11C42 8.24 39.76 6 37 6C34.24 6 32 8.24 32 11C32 13.76 34.24 16 37 16ZM11 32C8.24 32 6 34.24 6 37C6 39.76 8.24 42 11 42C13.76 42 16 39.76 16 37C16 34.24 13.76 32 11 32ZM37 42C39.76 42 42 39.76 42 37C42 34.24 39.76 32 37 32C34.24 32 32 34.24 32 37C32 39.76 34.24 42 37 42ZM11 6C8.24 6 6 8.24 6 11C6 13.76 8.24 16 11 16C13.76 16 16 13.76 16 11C16 8.24 13.76 6 11 6Z" fill-rule="evenodd"  fill="#000000" >
</path>
</svg>
