<svg xmlns="http://www.w3.org/2000/svg" xmlns:xlink="http://www.w3.org/1999/xlink" width="48" height="48" viewBox="0 0 48 48" fill="none">
<path d="M6.08 28.6905C6.03 28.8705 6 29.0605 6 29.2505C6 29.3205 6 29.3805 6.01 29.4505C6.02 29.5105 6.03 29.5805 6.04 29.6405C6.05 29.7005 6.07 29.7705 6.09 29.8305C6.11 29.8905 6.13 29.9505 6.15 30.0205C6.18 30.0805 6.21 30.1405 6.24 30.1905C6.27 30.2505 6.3 30.3105 6.34 30.3605C6.37 30.4205 6.41 30.4705 6.45 30.5205C6.5 30.5705 6.54 30.6205 6.59 30.6605C6.63 30.7105 6.68 30.7505 6.73 30.8005C6.78 30.8405 6.83 30.8805 6.89 30.9105C6.94 30.9505 7 30.9805 7.06 31.0105C7.11 31.0405 7.17 31.0705 7.23 31.1005C7.3 31.1205 7.36 31.1405 7.42 31.1605C7.48 31.1805 7.55 31.2005 7.61 31.2105C7.67 31.2205 7.74 31.2305 7.8 31.2405C7.87 31.2505 7.93 31.2505 8 31.2505C8.08 31.2505 8.17 31.2405 8.25 31.2305C8.33 31.2205 8.41 31.2105 8.5 31.1905C8.58 31.1705 8.66 31.1405 8.73 31.1105C8.81 31.0805 8.89 31.0405 8.96 31.0005C9.03 30.9605 9.1 30.9205 9.17 30.8705C9.24 30.8205 9.3 30.7705 9.36 30.7105C9.43 30.6505 9.48 30.5905 9.54 30.5305C9.59 30.4705 9.64 30.4005 9.68 30.3305L13.09 25.0005L34.91 25.0005L38.32 30.3305C38.36 30.4005 38.41 30.4705 38.46 30.5305C38.52 30.5905 38.57 30.6505 38.64 30.7105C38.7 30.7705 38.76 30.8205 38.83 30.8705C38.9 30.9205 38.97 30.9605 39.04 31.0005C39.11 31.0405 39.19 31.0805 39.27 31.1105C39.34 31.1405 39.42 31.1705 39.5 31.1905C39.59 31.2105 39.67 31.2205 39.75 31.2305C39.83 31.2405 39.92 31.2505 40 31.2505C40.07 31.2505 40.13 31.2505 40.2 31.2405C40.26 31.2305 40.33 31.2205 40.39 31.2105C40.45 31.2005 40.52 31.1805 40.58 31.1605C40.64 31.1405 40.7 31.1205 40.77 31.1005C40.83 31.0705 40.88 31.0405 40.94 31.0105C41 30.9805 41.06 30.9505 41.11 30.9105C41.17 30.8805 41.22 30.8405 41.27 30.8005C41.32 30.7505 41.37 30.7105 41.41 30.6605C41.46 30.6205 41.5 30.5705 41.55 30.5205C41.59 30.4705 41.63 30.4205 41.66 30.3605C41.7 30.3105 41.73 30.2505 41.76 30.1905C41.79 30.1405 41.82 30.0805 41.85 30.0205C41.87 29.9505 41.89 29.8905 41.91 29.8305C41.93 29.7705 41.95 29.7005 41.96 29.6405C41.97 29.5805 41.98 29.5105 41.99 29.4505C42 29.3805 42 29.3205 42 29.2505C42 29.0605 41.97 28.8705 41.92 28.6905C41.87 28.5005 41.79 28.3305 41.68 28.1705L37.73 21.9905C37.71 21.9605 37.69 21.9205 37.66 21.8905C37.64 21.8505 37.61 21.8105 37.59 21.7805L27.36 5.80046C26.98 5.21046 26.48 4.75046 25.86 4.42046C25.28 4.12046 24.66 3.97046 24 3.97046C23.34 3.97046 22.72 4.12046 22.14 4.42046C21.52 4.75046 21.02 5.20046 20.64 5.79046L10.4 21.7905C10.38 21.8205 10.36 21.8505 10.35 21.8805L10.33 21.9005C10.31 21.9205 10.3 21.9505 10.28 21.9805L6.32 28.1705C6.21 28.3305 6.13 28.5005 6.08 28.6905ZM32.34 21.0005L24 7.97046L15.66 21.0005L32.34 21.0005ZM33.21 32.3605C32.86 32.1805 32.48 32.1005 32.09 32.1205C31.71 32.1405 31.37 32.2505 31.05 32.4505C30.74 32.6505 30.49 32.9005 30.31 33.2205C30.11 33.5605 30.01 33.9305 30.01 34.3205L30.01 36.0005L17.99 36.0005L17.99 34.3105C17.99 33.9205 17.89 33.5505 17.69 33.2105C17.51 32.8905 17.26 32.6405 16.95 32.4505C16.63 32.2505 16.29 32.1405 15.91 32.1205C15.52 32.0905 15.14 32.1705 14.79 32.3505L7.98 35.7605L7.96 35.7705C7.53 35.9905 7.2 36.3105 6.96 36.7205C6.73 37.1105 6.62 37.5305 6.62 37.9805C6.62 38.4305 6.73 38.8505 6.96 39.2405C7.2 39.6505 7.53 39.9705 7.96 40.1905L14.8 43.6305C15.13 43.8005 15.49 43.8805 15.87 43.8705C16.24 43.8605 16.59 43.7605 16.92 43.5705C17.23 43.3805 17.48 43.1305 17.67 42.8205C17.86 42.5105 17.97 42.1705 18 41.8105L18 41.7405L18 40.0005L30 40.0005L30 41.7505L30 41.8205C30.03 42.1805 30.14 42.5205 30.33 42.8305C30.52 43.1405 30.77 43.3905 31.08 43.5705C31.41 43.7605 31.76 43.8705 32.13 43.8805C32.51 43.8905 32.87 43.8105 33.2 43.6305L40.01 40.2205C40.46 39.9805 40.8 39.6605 41.04 39.2405C41.27 38.8605 41.38 38.4405 41.38 37.9905C41.38 37.5405 41.27 37.1205 41.04 36.7305C40.8 36.3205 40.47 36.0005 40.04 35.7705L40.02 35.7605L40 35.7505L33.21 32.3605Z" fill-rule="evenodd"  fill="#000000" >
</path>
</svg>
