<svg xmlns="http://www.w3.org/2000/svg" xmlns:xlink="http://www.w3.org/1999/xlink" width="48" height="48" viewBox="0 0 48 48" fill="none">
<path d="M24.961 21L26.551 17.55L36.441 17.55L38.021 21L40.181 20.01L41.661 19.33L35.131 5.12C34.811 4.41 34.321 3.84 33.651 3.42C32.991 2.99 32.271 2.78 31.491 2.78C30.711 2.78 29.991 2.99 29.331 3.42C28.661 3.84 28.171 4.41 27.851 5.13L21.321 19.33L21.321 19.34C21.301 19.39 21.271 19.46 21.251 19.52C21.231 19.58 21.211 19.64 21.191 19.71C21.181 19.77 21.171 19.83 21.161 19.9C21.151 19.96 21.141 20.03 21.141 20.09L21.141 20.29C21.151 20.36 21.151 20.42 21.171 20.49C21.181 20.55 21.191 20.61 21.211 20.68C21.221 20.74 21.241 20.8 21.261 20.86C21.291 20.93 21.311 20.99 21.341 21.05C21.371 21.1 21.401 21.16 21.441 21.22C21.471 21.27 21.511 21.33 21.551 21.38L21.671 21.53L21.811 21.67C21.861 21.71 21.911 21.75 21.971 21.79C22.021 21.83 22.071 21.86 22.131 21.9C22.191 21.93 22.251 21.96 22.301 21.99C22.361 22.01 22.431 22.04 22.491 22.06C22.551 22.08 22.611 22.1 22.681 22.12C22.741 22.13 22.801 22.14 22.871 22.15C22.931 22.16 23.001 22.17 23.061 22.17L23.261 22.17C23.331 22.16 23.391 22.16 23.461 22.14C23.521 22.13 23.581 22.12 23.651 22.1C23.711 22.09 23.771 22.07 23.831 22.05C23.901 22.02 23.961 22 24.011 21.97C24.071 21.94 24.131 21.91 24.191 21.87C24.241 21.84 24.301 21.8 24.351 21.76L24.501 21.64L24.641 21.5C24.681 21.45 24.721 21.4 24.761 21.34C24.801 21.29 24.831 21.24 24.871 21.18C24.901 21.12 24.931 21.06 24.961 21.01L23.141 20.17L24.961 21ZM7.62098 35.1C7.56098 35.08 7.50098 35.06 7.43098 35.05C7.37098 35.03 7.30098 35.02 7.24098 35.01C7.17098 35.01 7.11098 35 7.04098 35C6.98098 35 6.91098 35 6.85098 35.01C6.78098 35.01 6.72098 35.02 6.65098 35.03C6.59098 35.04 6.52098 35.06 6.46098 35.07C6.40098 35.09 6.34098 35.11 6.27098 35.14C6.21098 35.16 6.15098 35.19 6.10098 35.22L5.92098 35.31C5.87098 35.35 5.82098 35.39 5.76098 35.43C5.71098 35.47 5.66098 35.51 5.62098 35.56C5.57098 35.6 5.52098 35.65 5.48098 35.7L5.36098 35.85C5.32098 35.91 5.29098 35.96 5.26098 36.02C5.22098 36.08 5.20098 36.14 5.17098 36.2C5.14098 36.26 5.12098 36.32 5.10098 36.38C5.08098 36.44 5.06098 36.5 5.05098 36.57C5.03098 36.63 5.02098 36.7 5.01098 36.76C5.01098 36.83 5.00098 36.89 5.00098 36.96C5.00098 37.02 5.00098 37.09 5.01098 37.15C5.01098 37.22 5.02098 37.28 5.03098 37.35C5.04098 37.41 5.06098 37.48 5.07098 37.54C5.09098 37.6 5.11098 37.66 5.14098 37.73C5.16098 37.79 5.19098 37.85 5.22098 37.9L5.31098 38.08C5.35098 38.13 5.39098 38.18 5.43098 38.24C5.47098 38.29 5.51098 38.34 5.56098 38.38C5.60098 38.43 5.65098 38.48 5.70098 38.52L12.441 44.3C12.701 44.52 13.001 44.69 13.321 44.81C13.661 44.94 14.011 45 14.371 45L14.501 45C14.841 45 15.161 44.94 15.471 44.81C15.771 44.68 16.041 44.5 16.271 44.27C16.501 44.04 16.681 43.77 16.811 43.47C16.941 43.16 17.001 42.84 17.001 42.5L17.001 4.5C17.001 4.43 17.001 4.37 16.991 4.3C16.981 4.24 16.971 4.17 16.961 4.11C16.951 4.05 16.931 3.98 16.911 3.92C16.891 3.86 16.871 3.8 16.851 3.73C16.821 3.67 16.791 3.61 16.761 3.56C16.731 3.5 16.701 3.44 16.661 3.39C16.631 3.33 16.591 3.28 16.551 3.23C16.501 3.18 16.461 3.13 16.411 3.09C16.371 3.04 16.321 3 16.271 2.95C16.221 2.91 16.161 2.87 16.111 2.84C16.061 2.8 16.001 2.77 15.941 2.74L15.761 2.65L15.581 2.59C15.521 2.57 15.451 2.55 15.391 2.54C15.331 2.53 15.261 2.52 15.201 2.51C15.131 2.5 15.061 2.5 15.001 2.5C14.931 2.5 14.871 2.5 14.801 2.51C14.741 2.52 14.671 2.53 14.611 2.54C14.541 2.55 14.481 2.57 14.421 2.59C14.361 2.61 14.291 2.63 14.231 2.65C14.171 2.68 14.111 2.71 14.061 2.74C14.001 2.77 13.941 2.8 13.891 2.84C13.831 2.87 13.781 2.91 13.731 2.95C13.681 3 13.631 3.04 13.581 3.09C13.541 3.13 13.491 3.18 13.451 3.23C13.411 3.28 13.371 3.33 13.341 3.39C13.301 3.44 13.271 3.5 13.241 3.56C13.201 3.62 13.181 3.67 13.151 3.73C13.131 3.8 13.101 3.86 13.091 3.92C13.071 3.98 13.051 4.05 13.041 4.11C13.021 4.17 13.021 4.24 13.011 4.3C13.001 4.37 13.001 4.43 13.001 4.5L13.001 39.51L8.30098 35.48L8.15098 35.36C8.09098 35.32 8.04098 35.29 7.98098 35.26C7.92098 35.22 7.86098 35.2 7.80098 35.17C7.74098 35.14 7.68098 35.12 7.62098 35.1ZM35.851 31.26C36.091 31.03 36.261 30.76 36.391 30.46C36.521 30.15 36.581 29.83 36.581 29.5C36.581 29.17 36.521 28.85 36.391 28.54C36.261 28.24 36.081 27.97 35.841 27.73C35.611 27.49 35.341 27.32 35.041 27.19C34.731 27.06 34.411 27 34.081 27L29.081 27C29.021 27 28.961 27 28.911 27.01L28.761 27.02L28.621 27.01C28.581 27 28.531 27 28.481 27C28.231 27 27.981 27.05 27.751 27.15C27.521 27.24 27.311 27.38 27.131 27.55C26.961 27.73 26.821 27.94 26.731 28.17C26.631 28.4 26.581 28.65 26.581 28.9L26.581 32.02L34.081 32.02L34.081 32C34.411 32 34.731 31.94 35.041 31.81C35.341 31.68 35.611 31.5 35.851 31.26ZM38.221 21.34C38.261 21.4 38.301 21.45 38.351 21.5C38.391 21.55 38.441 21.59 38.481 21.64L38.631 21.76C38.691 21.8 38.741 21.84 38.801 21.87C38.851 21.91 38.911 21.94 38.971 21.97C39.031 22 39.091 22.02 39.151 22.05C39.211 22.07 39.271 22.09 39.341 22.1C39.401 22.12 39.461 22.13 39.531 22.14C39.591 22.16 39.661 22.16 39.721 22.17L39.921 22.17C39.981 22.17 40.051 22.16 40.111 22.15C40.181 22.14 40.241 22.13 40.311 22.12C40.371 22.1 40.431 22.08 40.501 22.06C40.561 22.04 40.621 22.01 40.681 21.99C40.741 21.96 40.801 21.93 40.851 21.9C40.911 21.86 40.961 21.83 41.021 21.79L41.171 21.67C41.221 21.62 41.271 21.58 41.311 21.53C41.351 21.48 41.401 21.43 41.441 21.38C41.481 21.33 41.511 21.27 41.551 21.22L41.641 21.04C41.671 20.99 41.701 20.93 41.721 20.86L41.781 20.68C41.791 20.61 41.811 20.55 41.821 20.49C41.831 20.42 41.841 20.36 41.841 20.29L41.841 20.09C41.841 20.03 41.831 19.96 41.821 19.9C41.821 19.83 41.801 19.77 41.791 19.71C41.771 19.64 41.751 19.58 41.731 19.52C41.711 19.46 41.691 19.39 41.661 19.33L41.661 19.33L41.661 19.34L40.181 20.01L38.031 21.01C38.051 21.06 38.081 21.12 38.121 21.18C38.151 21.24 38.191 21.29 38.221 21.34ZM22.581 39.1C22.581 39.88 22.731 40.63 23.031 41.35C23.331 42.08 23.751 42.72 24.311 43.27C24.861 43.83 25.501 44.25 26.231 44.55C26.951 44.85 27.701 45 28.481 45C28.581 45 28.681 45 28.771 44.99C28.881 45 28.981 45 29.081 45L36.781 45C37.641 45 38.471 44.84 39.271 44.51C40.071 44.17 40.771 43.71 41.371 43.1C41.981 42.49 42.451 41.79 42.791 40.99C43.121 40.19 43.281 39.36 43.281 38.5C43.281 37.64 43.121 36.81 42.791 36.01C42.451 35.21 41.991 34.51 41.381 33.91C40.901 33.42 40.351 33.02 39.731 32.71C39.871 32.48 39.981 32.24 40.091 31.99C40.421 31.19 40.581 30.36 40.581 29.5C40.581 28.64 40.421 27.81 40.091 27.01C39.751 26.21 39.291 25.51 38.681 24.91C38.071 24.3 37.371 23.83 36.571 23.49C35.771 23.16 34.941 23 34.081 23L29.081 23C28.981 23 28.881 23 28.771 23.01C28.681 23 28.581 23 28.481 23C27.701 23 26.951 23.15 26.231 23.45C25.501 23.75 24.861 24.17 24.311 24.73C23.751 25.28 23.331 25.92 23.031 26.65C22.731 27.37 22.581 28.12 22.581 28.9L22.581 39.1ZM38.551 40.26C38.791 40.03 38.961 39.76 39.091 39.46C39.221 39.15 39.281 38.83 39.281 38.5C39.281 38.17 39.221 37.85 39.091 37.54C38.961 37.24 38.781 36.97 38.541 36.73C38.311 36.49 38.041 36.32 37.741 36.19C37.431 36.06 37.111 36 36.781 36L34.381 36C34.291 36.01 34.191 36.02 34.101 36.02L26.581 36.02L26.581 39.1C26.581 39.35 26.631 39.6 26.731 39.83C26.821 40.06 26.961 40.27 27.131 40.45C27.311 40.62 27.521 40.76 27.751 40.85C27.981 40.95 28.231 41 28.481 41C28.531 41 28.581 41 28.621 40.99L28.761 40.98L28.911 40.99C28.961 41 29.021 41 29.081 41L36.781 41C37.111 41 37.431 40.94 37.741 40.81C38.041 40.68 38.311 40.5 38.551 40.26ZM41.661 19.33L40.181 20.01L41.661 19.34L41.661 19.33ZM31.491 6.78L28.391 13.55L34.601 13.55L31.491 6.78Z" fill-rule="evenodd"  fill="#000000" >
</path>
</svg>
