<svg xmlns="http://www.w3.org/2000/svg" xmlns:xlink="http://www.w3.org/1999/xlink" width="48" height="48" viewBox="0 0 48 48" fill="none">
<path d="M15.0001 45C16.1047 45 17.0001 44.1046 17.0001 43L17.001 5.2306C17.0011 3.7225 15.7785 2.5 14.2704 2.5C13.5969 2.5 13.0045 2.71917 12.4932 3.1575L5.70894 8.9733L5.69928 8.9815C5.2718 9.3483 5.00098 9.8925 5.00098 10.5C5.00098 11.6046 5.89641 12.5 7.00098 12.5C7.49809 12.5 7.95285 12.3186 8.30266 12.0184L8.31115 12.0112L13.0009 7.9908L13.0001 43C13.0001 44.1046 13.8955 45 15.0001 45ZM32.5 10.0758L26.4629 3.63617C26.0978 3.24475 25.5775 3 25 3C23.8954 3 23 3.89543 23 5C23 5.53079 23.2068 6.01329 23.5442 6.37134L30.5 13.7909L30.5 21C30.5 22.1046 31.3954 23 32.5 23C33.6046 23 34.5 22.1046 34.5 21L34.5 13.7909L41.456 6.3712L41.4591 6.36789C41.7945 6.0102 42 5.52909 42 5C42 3.89543 41.1046 3 40 3C39.4245 3 38.9058 3.24305 38.5409 3.63211L38.5372 3.63614L32.5 10.0758ZM39.4214 25L25.0542 25L25.0542 25.0007C25.0362 25.0002 25.0181 25 25 25C23.8954 25 23 25.8954 23 27C23 28.1046 23.8954 29 25 29C25.0181 29 25.0362 28.9998 25.0542 28.9993L25.0542 29L36.5203 29L23.6844 39.8091C21.586 41.5762 22.8356 45 25.5789 45L40.4597 45L40.4597 44.9469C41.3427 44.7393 42 43.9464 42 43C42 42.0536 41.3427 41.2607 40.4597 41.0531L40.4597 41L28.4801 41L41.3159 30.1909C43.4143 28.4238 42.1647 25 39.4214 25Z" fill-rule="evenodd"  fill="#000000" >
</path>
</svg>
