<svg xmlns="http://www.w3.org/2000/svg" xmlns:xlink="http://www.w3.org/1999/xlink" width="48" height="48" viewBox="0 0 48 48" fill="none">
<path d="M23.9997 4C21.2898 4 18.6898 4.52 16.2098 5.57001C13.8199 6.58001 11.6999 8.01002 9.85992 9.86003C8.00994 11.7 6.57996 13.8201 5.56998 16.2101C4.51999 18.6901 4 21.2901 4 24.0001C4 26.7101 4.51999 29.3101 5.56998 31.7901C6.57996 34.1802 8.00994 36.3002 9.85992 38.1402C11.6999 39.9902 13.8199 41.4202 16.2098 42.4302C18.6898 43.4802 21.2898 44.0002 23.9997 44.0002C26.7097 44.0002 29.3096 43.4802 31.7896 42.4302C34.1796 41.4202 36.2995 39.9902 38.1395 38.1402C39.9895 36.3002 41.4195 34.1802 42.4295 31.7901C43.4794 29.3101 43.9994 26.7101 43.9994 24.0001C43.9994 21.2901 43.4794 18.6901 42.4295 16.2101C41.4195 13.8201 39.9895 11.7 38.1395 9.86003C36.2995 8.01002 34.1796 6.58001 31.7896 5.57001C29.3096 4.52 26.7097 4 23.9997 4ZM12.6899 12.69C11.2099 14.1601 10.0699 15.8601 9.25992 17.7701C8.41994 19.7501 7.99994 21.8301 7.99994 24.0001C7.99994 26.1701 8.41994 28.2501 9.25992 30.2301C10.0699 32.1401 11.2099 33.8402 12.6899 35.3102C14.1599 36.7902 15.8598 37.9302 17.7698 38.7402C19.7498 39.5802 21.8297 40.0002 23.9997 40.0002C26.1697 40.0002 28.2497 39.5802 30.2296 38.7402C32.1396 37.9302 33.8396 36.7902 35.3096 35.3102C36.7895 33.8402 37.9295 32.1401 38.7395 30.2301C39.5795 28.2501 39.9995 26.1701 39.9995 24.0001C39.9995 21.8301 39.5795 19.7501 38.7395 17.7701C37.9295 15.8601 36.7895 14.1601 35.3096 12.69C33.8396 11.21 32.1396 10.07 30.2296 9.26003C28.2497 8.42002 26.1697 8.00002 23.9997 8.00002C21.8297 8.00002 19.7498 8.42002 17.7698 9.26003C15.8598 10.07 14.1599 11.21 12.6899 12.69Z" fill-rule="evenodd"  fill="#000000" >
</path>
</svg>
