<svg xmlns="http://www.w3.org/2000/svg" xmlns:xlink="http://www.w3.org/1999/xlink" width="48" height="48" viewBox="0 0 48 48" fill="none">
<path d="M9.59164 37.8693C5.58735 36.0021 3.85486 31.2424 5.72204 27.2381L14.7953 7.77981C16.1957 4.7766 19.7655 3.47724 22.7687 4.87761L33.6443 9.94881C36.6475 11.3492 37.9469 14.919 36.5465 17.9222L27.4733 37.3805C27.374 37.5935 27.2664 37.8 27.1513 38L41 38C42.1046 38 43 38.8954 43 40C43 41.1046 42.1046 42 41 42L20.5 42C20.4757 42 20.4514 41.9996 20.4273 41.9987C19.228 42.0303 18.0033 41.7915 16.8421 41.2501L9.59164 37.8693ZM11.282 34.2441L18.5325 37.6249C20.5346 38.5584 22.9145 37.6922 23.8481 35.6901L24.0255 35.3095L9.6633 28.2506L9.34724 28.9285C8.41367 30.9306 9.27989 33.3105 11.282 34.2441ZM11.3541 24.6247L18.4205 9.47021C18.8873 8.46914 20.0772 8.03602 21.0783 8.50281L31.9539 13.574C32.955 14.0408 33.3881 15.2307 32.9213 16.2318L25.7163 31.6835L11.3541 24.6247Z" fill-rule="evenodd"  fill="#000000" >
</path>
</svg>
