<svg xmlns="http://www.w3.org/2000/svg" xmlns:xlink="http://www.w3.org/1999/xlink" width="48" height="48" viewBox="0 0 48 48" fill="none">
<path d="M21.11 33.66C21.17 33.63 21.21 33.59 21.26 33.55C21.32 33.5 21.36 33.46 21.41 33.41C21.47 33.37 21.5 33.32 21.55 33.27C21.59 33.22 21.62 33.17 21.66 33.11C21.7 33.06 21.73 33 21.76 32.94C21.8 32.89 21.83 32.83 21.85 32.77C21.88 32.7 21.89 32.64 21.91 32.58C21.93 32.52 21.95 32.45 21.97 32.39C21.98 32.33 21.98 32.26 21.99 32.2C21.99 32.13 22.01 32.07 22.01 32C22.01 31.93 21.99 31.87 21.99 31.8C21.98 31.74 21.98 31.67 21.97 31.61C21.95 31.55 21.93 31.48 21.91 31.42C21.89 31.36 21.88 31.3 21.85 31.23C21.83 31.17 21.8 31.12 21.76 31.06C21.73 31 21.7 30.94 21.66 30.89C21.62 30.83 21.59 30.78 21.55 30.73C21.5 30.68 21.47 30.63 21.41 30.59L14.82 24L21.41 17.41C21.45 17.37 21.5 17.32 21.55 17.27C21.7 17.09 21.81 16.89 21.88 16.68C21.96 16.46 22.01 16.23 22.01 16C22.01 15.87 21.99 15.74 21.97 15.61C21.93 15.48 21.9 15.36 21.85 15.23C21.8 15.11 21.73 15 21.66 14.89C21.59 14.78 21.5 14.68 21.41 14.59C21.36 14.54 21.32 14.5 21.26 14.45C21.21 14.41 21.17 14.37 21.11 14.34C21.06 14.3 21 14.27 20.95 14.24L20.77 14.15L20.58 14.09C20.52 14.07 20.45 14.05 20.4 14.04C20.33 14.03 20.26 14.02 20.19 14.01C20.14 14 20.06 14 20 14C19.93 14 19.86 14 19.8 14.01C19.74 14.02 19.67 14.03 19.61 14.04C19.55 14.05 19.49 14.07 19.41 14.09L19.24 14.15L19.06 14.24C19 14.27 18.94 14.3 18.88 14.34C18.83 14.37 18.79 14.41 18.74 14.45C18.68 14.5 18.64 14.54 18.59 14.59L11.99 21.18C11.62 21.56 11.32 22 11.12 22.5C10.92 22.98 10.82 23.48 10.82 24C10.82 24.52 10.92 25.02 11.12 25.5C11.32 26 11.62 26.44 11.99 26.82L18.59 33.41C18.64 33.46 18.68 33.5 18.74 33.55C18.79 33.59 18.83 33.63 18.88 33.66C18.94 33.7 19 33.73 19.06 33.76L19.24 33.85L19.41 33.91C19.49 33.93 19.55 33.95 19.61 33.96C19.67 33.97 19.74 33.98 19.8 33.99C19.86 34 19.93 34 20 34C20.06 34 20.14 34 20.19 33.99C20.26 33.98 20.33 33.97 20.4 33.96C20.45 33.95 20.52 33.93 20.58 33.91L20.77 33.85L20.95 33.76C21 33.73 21.06 33.7 21.11 33.66ZM27.06 14.24C27 14.27 26.94 14.3 26.89 14.34C26.83 14.37 26.78 14.41 26.73 14.45C26.68 14.5 26.63 14.54 26.59 14.59C26.54 14.63 26.5 14.68 26.45 14.73C26.41 14.78 26.37 14.83 26.34 14.89C26.3 14.94 26.27 15 26.24 15.06C26.21 15.11 26.18 15.17 26.15 15.23C26.13 15.3 26.11 15.36 26.09 15.42C26.07 15.48 26.05 15.55 26.04 15.61C26.03 15.67 26.02 15.74 26.01 15.8C26 15.87 26 15.93 26 16C26 16.07 26 16.13 26.01 16.2C26.02 16.26 26.03 16.33 26.04 16.39C26.05 16.45 26.07 16.52 26.09 16.58C26.11 16.64 26.13 16.7 26.15 16.77C26.18 16.83 26.21 16.89 26.24 16.94C26.27 17 26.3 17.06 26.34 17.11C26.37 17.17 26.41 17.22 26.45 17.27C26.5 17.32 26.54 17.37 26.59 17.41L33.17 24L26.59 30.59C26.54 30.63 26.5 30.68 26.45 30.73C26.41 30.78 26.37 30.83 26.34 30.89C26.3 30.94 26.27 31 26.24 31.06C26.21 31.12 26.18 31.17 26.15 31.23C26.13 31.3 26.11 31.36 26.09 31.42C26.07 31.48 26.05 31.55 26.04 31.61C26.03 31.67 26.02 31.74 26.01 31.8C26 31.87 26 31.93 26 32C26 32.07 26 32.13 26.01 32.2C26.02 32.26 26.03 32.33 26.04 32.39C26.05 32.45 26.07 32.52 26.09 32.58C26.11 32.64 26.13 32.7 26.15 32.77C26.18 32.83 26.21 32.89 26.24 32.94C26.27 33 26.3 33.06 26.34 33.11C26.37 33.17 26.41 33.22 26.45 33.27C26.5 33.32 26.54 33.37 26.59 33.41C26.63 33.46 26.68 33.5 26.73 33.55C26.78 33.59 26.83 33.63 26.89 33.66C26.94 33.7 27 33.73 27.06 33.76C27.11 33.79 27.17 33.82 27.23 33.85C27.3 33.87 27.36 33.89 27.42 33.91C27.48 33.93 27.55 33.95 27.61 33.96C27.67 33.97 27.74 33.98 27.8 33.99C27.87 34 27.93 34 28 34C28.07 34 28.13 34 28.2 33.99C28.26 33.98 28.33 33.97 28.39 33.96C28.45 33.95 28.52 33.93 28.58 33.91C28.64 33.89 28.7 33.87 28.77 33.85C28.83 33.82 28.89 33.79 28.94 33.76C29 33.73 29.06 33.7 29.11 33.66C29.17 33.63 29.22 33.59 29.27 33.55C29.32 33.5 29.37 33.46 29.41 33.41L36 26.82C36.39 26.44 36.68 26 36.88 25.5C37.08 25.02 37.18 24.52 37.18 24C37.18 23.48 37.08 22.98 36.88 22.5C36.68 22 36.39 21.56 36 21.18L29.41 14.59C29.37 14.54 29.32 14.5 29.27 14.45C29.22 14.41 29.17 14.37 29.11 14.34C29.06 14.3 29 14.27 28.94 14.24C28.89 14.21 28.83 14.18 28.77 14.15C28.7 14.13 28.64 14.11 28.58 14.09C28.52 14.07 28.45 14.05 28.39 14.04C28.33 14.03 28.26 14.02 28.2 14.01C28.13 14 28.07 14 28 14C27.93 14 27.87 14 27.8 14.01C27.74 14.02 27.67 14.03 27.61 14.04C27.55 14.05 27.48 14.07 27.42 14.09C27.36 14.11 27.3 14.13 27.23 14.15C27.17 14.18 27.11 14.21 27.06 14.24ZM6.31 10.45C6.1 10.94 6 11.46 6 12L6 36C6 36.54 6.1 37.06 6.31 37.55C6.52 38.03 6.8 38.46 7.17 38.83C7.54 39.2 7.97 39.48 8.45 39.69C8.94 39.9 9.46 40 10 40L38 40C38.54 40 39.06 39.9 39.55 39.69C40.03 39.48 40.46 39.2 40.83 38.83C41.2 38.46 41.48 38.03 41.69 37.55C41.9 37.06 42 36.54 42 36L42 12C42 11.46 41.9 10.94 41.69 10.45C41.48 9.97 41.2 9.54 40.83 9.17C40.46 8.8 40.03 8.52 39.55 8.31C39.06 8.1 38.54 8 38 8L10 8C9.46 8 8.94 8.1 8.45 8.31C7.97 8.52 7.54 8.8 7.17 9.17C6.8 9.54 6.52 9.97 6.31 10.45ZM46 12C46 10.92 45.79 9.88 45.37 8.89C44.96 7.93 44.39 7.08 43.66 6.34C42.92 5.61 42.07 5.04 41.11 4.63C40.12 4.21 39.08 4 38 4L10 4C8.92 4 7.88 4.21 6.89 4.63C5.93 5.04 5.08 5.61 4.34 6.34C3.61 7.08 3.04 7.93 2.63 8.89C2.21 9.88 2 10.92 2 12L2 36C2 37.08 2.21 38.12 2.63 39.11C3.04 40.07 3.61 40.92 4.34 41.66C5.08 42.39 5.93 42.96 6.89 43.37C7.88 43.79 8.92 44 10 44L38 44C39.08 44 40.12 43.79 41.11 43.37C42.07 42.96 42.92 42.39 43.66 41.66C44.39 40.92 44.96 40.07 45.37 39.11C45.79 38.12 46 37.08 46 36L46 12Z" fill-rule="evenodd"  fill="#000000" >
</path>
</svg>
