<svg xmlns="http://www.w3.org/2000/svg" xmlns:xlink="http://www.w3.org/1999/xlink" width="48" height="48" viewBox="0 0 48 48" fill="none">
<path d="M18.3454 43.1749C19.1154 43.9449 19.9954 44.5249 20.9954 44.9249C21.9554 45.3149 22.9554 45.5149 24.0054 45.5149C25.0454 45.5149 26.0454 45.3149 27.0054 44.9249C28.0054 44.5249 28.8854 43.9449 29.6554 43.1749L43.1754 29.6549C43.9454 28.8849 44.5254 28.0049 44.9254 27.0049C45.3154 26.0449 45.5154 25.0449 45.5154 24.0049C45.5154 22.9549 45.3154 21.9549 44.9254 20.9949C44.5254 19.9949 43.9454 19.1149 43.1754 18.3449L29.6554 4.82486C28.8854 4.05486 28.0054 3.47486 27.0054 3.07486C26.0454 2.68486 25.0454 2.48486 24.0054 2.48486C22.9554 2.48486 21.9554 2.68486 20.9954 3.07486C19.9954 3.47486 19.1154 4.05486 18.3454 4.82486L4.82535 18.3449C4.05535 19.1149 3.47535 19.9949 3.07535 20.9949C2.68535 21.9549 2.48535 22.9549 2.48535 24.0049C2.48535 25.0449 2.68535 26.0449 3.07535 27.0049C3.47535 28.0049 4.05535 28.8849 4.82535 29.6549L18.3454 43.1749ZM24.0054 41.5149C24.5254 41.5149 25.0254 41.4149 25.5054 41.2249C26.0054 41.0249 26.4454 40.7249 26.8254 40.3449L40.3454 26.8249C40.7254 26.4449 41.0254 26.0049 41.2254 25.5049C41.4154 25.0249 41.5154 24.5249 41.5154 24.0049C41.5154 23.4749 41.4154 22.9749 41.2254 22.4949C41.0254 21.9949 40.7254 21.5549 40.3454 21.1749L26.8254 7.65486C26.4454 7.27486 26.0054 6.97486 25.5054 6.77486C25.0254 6.58486 24.5254 6.48486 24.0054 6.48486C23.4754 6.48486 22.9754 6.58486 22.4954 6.77486C21.9954 6.97486 21.5554 7.27486 21.1754 7.65486L7.65535 21.1749C7.27535 21.5549 6.97535 21.9949 6.77535 22.4949C6.58535 22.9749 6.48535 23.4749 6.48535 24.0049C6.48535 24.5249 6.58535 25.0249 6.77535 25.5049C6.97535 26.0049 7.27535 26.4449 7.65535 26.8249L21.1754 40.3449C21.5554 40.7249 21.9954 41.0249 22.4954 41.2249C22.9754 41.4149 23.4754 41.5149 24.0054 41.5149ZM20.4954 15.7149C19.4154 16.1649 18.4554 16.8049 17.6254 17.6349C16.7954 18.4649 16.1554 19.4249 15.7054 20.5049C15.2354 21.6149 14.9954 22.7849 14.9954 24.0049C14.9954 25.2249 15.2354 26.3949 15.7054 27.5049C16.1554 28.5849 16.7954 29.5449 17.6254 30.3749C18.4554 31.2049 19.4154 31.8449 20.4954 32.2949C21.6054 32.7649 22.7754 33.0049 23.9954 33.0049C25.2154 33.0049 26.3854 32.7649 27.4954 32.2949C28.5754 31.8449 29.5354 31.2049 30.3654 30.3749C31.1954 29.5449 31.8354 28.5849 32.2854 27.5049C32.7554 26.3949 32.9954 25.2249 32.9954 24.0049C32.9954 22.7849 32.7554 21.6149 32.2854 20.5049C31.8354 19.4249 31.1954 18.4649 30.3654 17.6349C29.5354 16.8049 28.5754 16.1649 27.4954 15.7149C26.3854 15.2449 25.2154 15.0049 23.9954 15.0049C22.7754 15.0049 21.6054 15.2449 20.4954 15.7149ZM19.3854 22.0549C19.1254 22.6749 18.9954 23.3249 18.9954 24.0049C18.9954 24.6849 19.1254 25.3349 19.3854 25.9549C19.6354 26.5549 19.9954 27.0849 20.4554 27.5449C20.9154 28.0049 21.4454 28.3549 22.0454 28.6149C22.6654 28.8749 23.3154 29.0049 23.9954 29.0049C24.6754 29.0049 25.3254 28.8749 25.9454 28.6149C26.5454 28.3549 27.0754 28.0049 27.5354 27.5449C27.9954 27.0849 28.3554 26.5549 28.6054 25.9549C28.8654 25.3349 28.9954 24.6849 28.9954 24.0049C28.9954 23.3249 28.8654 22.6749 28.6054 22.0549C28.3554 21.4549 27.9954 20.9149 27.5354 20.4649C27.0754 20.0049 26.5454 19.6449 25.9454 19.3949C25.3254 19.1349 24.6754 19.0049 23.9954 19.0049C23.3154 19.0049 22.6654 19.1349 22.0454 19.3949C21.4454 19.6449 20.9154 20.0049 20.4554 20.4649C19.9954 20.9149 19.6354 21.4549 19.3854 22.0549Z" fill-rule="evenodd"  fill="#000000" >
</path>
</svg>
