<svg xmlns="http://www.w3.org/2000/svg" xmlns:xlink="http://www.w3.org/1999/xlink" width="48" height="48" viewBox="0 0 48 48" fill="none">
<path d="M37 20C41.97 20 46 15.97 46 11C46 6.03 41.97 2 37 2C32.72 2 29.13 4.99 28.22 9L28 9C24.69 9 22 11.69 22 15L22 33C22 34.1 21.1 35 20 35L19.78 35C18.87 30.99 15.28 28 11 28C6.03 28 2 32.03 2 37C2 41.97 6.03 46 11 46C15.28 46 18.87 43.01 19.78 39L20 39C23.31 39 26 36.31 26 33L26 15C26 13.9 26.9 13 28 13L28.22 13C29.13 17.01 32.72 20 37 20ZM37 16C39.76 16 42 13.76 42 11C42 8.24 39.76 6 37 6C34.24 6 32 8.24 32 11C32 13.76 34.24 16 37 16ZM6 37C6 39.76 8.24 42 11 42C13.76 42 16 39.76 16 37C16 34.24 13.76 32 11 32C8.24 32 6 34.24 6 37Z" fill-rule="evenodd"  fill="#000000" >
</path>
</svg>
