<svg xmlns="http://www.w3.org/2000/svg" xmlns:xlink="http://www.w3.org/1999/xlink" width="48" height="48" viewBox="0 0 48 48" fill="none">
<path d="M13 31C13 35.4183 16.5817 39 21 39L33 39C37.4183 39 41 35.4183 41 31L41 11C41 6.58172 37.4183 3 33 3L21 3C16.5817 3 13 6.58172 13 11L13 31ZM33 35L21 35C18.7909 35 17 33.2091 17 31L17 11C17 8.79086 18.7909 7 21 7L33 7C35.2091 7 37 8.79086 37 11L37 31C37 33.2091 35.2091 35 33 35ZM7 15L7 33C7 39.6274 12.3726 45 19 45L31 45C32.1046 45 33 44.1046 33 43C33 41.8954 32.1046 41 31 41L19 41C14.5817 41 11 37.4183 11 33L11 15C11 13.8954 10.1046 13 9 13C7.89543 13 7 13.8954 7 15Z" fill-rule="evenodd"  fill="#000000" >
</path>
</svg>
