<svg xmlns="http://www.w3.org/2000/svg" xmlns:xlink="http://www.w3.org/1999/xlink" width="48" height="48" viewBox="0 0 48 48" fill="none">
<path d="M42 11C42.07 11 42.13 11 42.2 10.99C42.26 10.98 42.33 10.97 42.39 10.96C42.45 10.95 42.52 10.93 42.58 10.91C42.64 10.89 42.7 10.87 42.77 10.85C42.83 10.82 42.89 10.79 42.94 10.76C43 10.73 43.06 10.7 43.11 10.66C43.17 10.63 43.22 10.59 43.27 10.55C43.32 10.5 43.37 10.46 43.41 10.41C43.46 10.37 43.5 10.32 43.55 10.27C43.59 10.22 43.63 10.17 43.66 10.11C43.7 10.06 43.73 10 43.76 9.94C43.79 9.89 43.82 9.83 43.85 9.77C43.87 9.7 43.89 9.64 43.91 9.58C43.93 9.52 43.95 9.45 43.96 9.39C43.97 9.33 43.98 9.26 43.99 9.2C44 9.13 44 9.07 44 9C44 8.93 44 8.87 43.99 8.8C43.98 8.74 43.97 8.67 43.96 8.61C43.95 8.55 43.93 8.48 43.91 8.42C43.89 8.36 43.87 8.3 43.85 8.23C43.82 8.17 43.79 8.11 43.76 8.06C43.73 8 43.7 7.94 43.66 7.89C43.63 7.83 43.59 7.78 43.55 7.73C43.5 7.68 43.46 7.63 43.41 7.59C43.37 7.54 43.32 7.5 43.27 7.45C43.22 7.41 43.17 7.37 43.11 7.34C43.06 7.3 43 7.27 42.94 7.24C42.89 7.21 42.83 7.18 42.77 7.15C42.7 7.13 42.64 7.11 42.58 7.09C42.52 7.07 42.45 7.05 42.39 7.04C42.33 7.03 42.26 7.02 42.2 7.01C42.13 7 42.07 7 42 7L21 7C19.1 7 17.28 7.37 15.55 8.1C13.87 8.81 12.39 9.81 11.1 11.1C9.81 12.39 8.81 13.87 8.1 15.55C7.37 17.28 7 19.1 7 21L7 42C7 42.07 7 42.13 7.01 42.2C7.02 42.26 7.03 42.33 7.04 42.39C7.05 42.45 7.07 42.52 7.09 42.58C7.11 42.64 7.13 42.7 7.15 42.77C7.18 42.83 7.21 42.89 7.24 42.94C7.27 43 7.3 43.06 7.34 43.11C7.37 43.17 7.41 43.22 7.45 43.27C7.5 43.32 7.54 43.37 7.59 43.41C7.63 43.46 7.68 43.5 7.73 43.55C7.78 43.59 7.83 43.63 7.89 43.66C7.94 43.7 8 43.73 8.06 43.76C8.11 43.79 8.17 43.82 8.23 43.85C8.3 43.87 8.36 43.89 8.42 43.91C8.48 43.93 8.55 43.95 8.61 43.96C8.67 43.97 8.74 43.98 8.8 43.99C8.87 44 8.93 44 9 44C9.07 44 9.13 44 9.2 43.99C9.26 43.98 9.33 43.97 9.39 43.96C9.45 43.95 9.52 43.93 9.58 43.91C9.64 43.89 9.7 43.87 9.77 43.85C9.83 43.82 9.89 43.79 9.94 43.76C10 43.73 10.06 43.7 10.11 43.66C10.17 43.63 10.22 43.59 10.27 43.55C10.32 43.5 10.37 43.46 10.41 43.41C10.46 43.37 10.5 43.32 10.55 43.27C10.59 43.22 10.63 43.17 10.66 43.11C10.7 43.06 10.73 43 10.76 42.94C10.79 42.89 10.82 42.83 10.85 42.77C10.87 42.7 10.89 42.64 10.91 42.58C10.93 42.52 10.95 42.45 10.96 42.39C10.97 42.33 10.98 42.26 10.99 42.2C11 42.13 11 42.07 11 42L11 21C11 19.64 11.26 18.34 11.78 17.11C12.29 15.91 13 14.85 13.93 13.93C14.85 13 15.91 12.29 17.11 11.78C18.34 11.26 19.64 11 21 11L42 11Z"   fill="#000000" >
</path>
</svg>
