<svg xmlns="http://www.w3.org/2000/svg" xmlns:xlink="http://www.w3.org/1999/xlink" width="48" height="48" viewBox="0 0 48 48" fill="none">
<path d="M44.5 5C43.52 5 42.71 5.7 42.53 6.63C42 9.18 40.82 11.75 38.99 14.35C35.39 19.45 30.39 22 24 22C16.23 22 10.14 25.12 5.74 31.35C3.59 34.39 2.19 37.46 1.55 40.55C1.52 40.7 1.5 40.85 1.5 41C1.5 42.1 2.4 43 3.5 43C4.48 43 5.29 42.3 5.47 41.37C6 38.82 7.18 36.25 9.01 33.65C12.61 28.55 17.61 26 24 26C31.77 26 37.86 22.88 42.26 16.65C44.41 13.61 45.81 10.54 46.45 7.45C46.48 7.3 46.5 7.15 46.5 7C46.5 5.9 45.6 5 44.5 5Z"   fill="#000000" >
</path>
</svg>
