<svg xmlns="http://www.w3.org/2000/svg" xmlns:xlink="http://www.w3.org/1999/xlink" width="48" height="48" viewBox="0 0 48 48" fill="none">
<path d="M33.96 3.61C33.95 3.55 33.93 3.48 33.91 3.42C33.89 3.36 33.87 3.3 33.85 3.23C33.82 3.17 33.79 3.11 33.76 3.06C33.73 3 33.7 2.94 33.66 2.89C33.63 2.83 33.59 2.78 33.55 2.73C33.5 2.68 33.46 2.63 33.41 2.59C33.37 2.54 33.32 2.5 33.27 2.45C33.22 2.41 33.17 2.37 33.11 2.34C33.06 2.3 33 2.27 32.94 2.24C32.89 2.21 32.83 2.18 32.77 2.15C32.7 2.13 32.64 2.11 32.58 2.09C32.52 2.07 32.45 2.05 32.39 2.04C32.33 2.03 32.26 2.02 32.2 2.01C32.13 2 32.07 2 32 2C31.93 2 31.87 2 31.8 2.01C31.74 2.02 31.67 2.03 31.61 2.04C31.55 2.05 31.48 2.07 31.42 2.09C31.36 2.11 31.3 2.13 31.23 2.15C31.17 2.18 31.11 2.21 31.06 2.24C31 2.27 30.94 2.3 30.89 2.34C30.83 2.37 30.78 2.41 30.73 2.45C30.68 2.5 30.63 2.54 30.59 2.59C30.54 2.63 30.5 2.68 30.45 2.73C30.41 2.78 30.37 2.83 30.34 2.89C30.3 2.94 30.27 3 30.24 3.06C30.21 3.11 30.18 3.17 30.15 3.23C30.13 3.3 30.11 3.36 30.09 3.42C30.07 3.48 30.05 3.55 30.04 3.61C30.03 3.67 30.02 3.74 30.01 3.8C30 3.87 30 3.93 30 4L30 12C30 12.07 30 12.13 30.01 12.2C30.02 12.26 30.03 12.33 30.04 12.39C30.05 12.45 30.07 12.52 30.09 12.58C30.11 12.64 30.13 12.7 30.15 12.77C30.18 12.83 30.21 12.89 30.24 12.94C30.27 13 30.3 13.06 30.34 13.11C30.37 13.17 30.41 13.22 30.45 13.27C30.5 13.32 30.54 13.37 30.59 13.41C30.63 13.46 30.68 13.5 30.73 13.55C30.78 13.59 30.83 13.63 30.89 13.66C30.94 13.7 31 13.73 31.06 13.76C31.11 13.79 31.17 13.82 31.23 13.85C31.3 13.87 31.36 13.89 31.42 13.91C31.48 13.93 31.55 13.95 31.61 13.96C31.67 13.97 31.74 13.98 31.8 13.99C31.87 14 31.93 14 32 14C32.07 14 32.13 14 32.2 13.99C32.26 13.98 32.33 13.97 32.39 13.96C32.45 13.95 32.52 13.93 32.58 13.91C32.64 13.89 32.7 13.87 32.77 13.85C32.83 13.82 32.89 13.79 32.94 13.76C33 13.73 33.06 13.7 33.11 13.66C33.17 13.63 33.22 13.59 33.27 13.55C33.32 13.5 33.37 13.46 33.41 13.41C33.46 13.37 33.5 13.32 33.55 13.27C33.59 13.22 33.63 13.17 33.66 13.11C33.7 13.06 33.73 13 33.76 12.94C33.79 12.89 33.82 12.83 33.85 12.77C33.87 12.7 33.89 12.64 33.91 12.58C33.93 12.52 33.95 12.45 33.96 12.39C33.97 12.33 33.98 12.26 33.99 12.2C34 12.13 34 12.07 34 12L34 4C34 3.93 34 3.87 33.99 3.8C33.98 3.74 33.97 3.67 33.96 3.61ZM12.57 27.5C12.62 27.55 12.67 27.58 12.73 27.62C12.78 27.65 12.84 27.69 12.9 27.72C12.95 27.75 13.01 27.78 13.07 27.8C13.13 27.83 13.19 27.85 13.26 27.87C13.32 27.89 13.39 27.91 13.45 27.92C13.51 27.93 13.58 27.94 13.65 27.95C13.71 27.96 13.77 27.96 13.84 27.96C13.91 27.96 13.97 27.96 14.04 27.94C14.11 27.94 14.16 27.93 14.23 27.92C14.3 27.91 14.35 27.89 14.42 27.87L14.61 27.81L14.78 27.72C14.84 27.69 14.9 27.66 14.95 27.62C15.01 27.58 15.05 27.55 15.11 27.5C15.16 27.47 15.21 27.42 15.25 27.38C15.3 27.33 15.35 27.28 15.39 27.23C15.43 27.17 15.46 27.12 15.5 27.07C15.54 27.02 15.57 26.96 15.6 26.9C15.63 26.84 15.66 26.78 15.69 26.73L15.75 26.53C15.77 26.48 15.79 26.41 15.8 26.34C15.81 26.28 15.83 26.22 15.83 26.15C15.83 26.09 15.84 26.03 15.84 25.95C15.84 25.9 15.84 25.83 15.83 25.76C15.83 25.7 15.81 25.63 15.8 25.57C15.79 25.51 15.78 25.44 15.75 25.38C15.73 25.31 15.71 25.25 15.68 25.19C15.66 25.13 15.63 25.07 15.61 25.01C15.58 24.96 15.54 24.9 15.51 24.84C15.46 24.79 15.43 24.74 15.38 24.69C15.34 24.64 15.3 24.59 15.25 24.55L15.16 24.46L9.41 18.66C8.78 18.04 8.3 17.31 7.98 16.49C7.66 15.71 7.5 14.89 7.5 14.03C7.5 13.18 7.66 12.36 7.98 11.57C8.31 10.76 8.78 10.05 9.41 9.42C10.04 8.79 10.76 8.31 11.57 7.98C12.35 7.66 13.17 7.51 14.03 7.5C14.88 7.51 15.71 7.66 16.49 7.98C17.3 8.31 18.02 8.79 18.65 9.42L24.61 15.38C24.66 15.43 24.71 15.48 24.76 15.52C24.81 15.56 24.86 15.6 24.92 15.63C24.97 15.67 25.03 15.7 25.09 15.73C25.14 15.77 25.2 15.79 25.26 15.82C25.33 15.84 25.38 15.86 25.45 15.88C25.51 15.9 25.58 15.92 25.64 15.93C25.7 15.94 25.77 15.96 25.83 15.96C25.89 15.97 25.97 15.97 26.02 15.97C26.06 15.97 26.09 15.97 26.12 15.97C26.16 15.97 26.19 15.96 26.23 15.96C26.29 15.96 26.35 15.95 26.42 15.93C26.48 15.92 26.55 15.9 26.61 15.88C26.67 15.86 26.73 15.84 26.79 15.82C26.85 15.79 26.91 15.76 26.97 15.73C27.03 15.7 27.08 15.67 27.14 15.63C27.19 15.6 27.24 15.55 27.29 15.52C27.35 15.48 27.39 15.43 27.44 15.38C27.49 15.34 27.53 15.29 27.57 15.24C27.61 15.19 27.65 15.14 27.69 15.08C27.73 15.03 27.76 14.97 27.79 14.91L27.87 14.74L27.94 14.55C27.96 14.49 27.98 14.42 27.99 14.36C28 14.3 28.02 14.23 28.02 14.17C28.02 14.14 28.02 14.12 28.02 14.1C28.03 14.05 28.03 14.01 28.02 13.97C28.03 13.91 28.02 13.84 28.02 13.78C28.02 13.71 28.01 13.64 27.99 13.58C27.98 13.52 27.96 13.45 27.94 13.39C27.92 13.33 27.9 13.27 27.88 13.21C27.85 13.14 27.82 13.09 27.79 13.03C27.76 12.97 27.73 12.91 27.69 12.86C27.66 12.81 27.61 12.75 27.58 12.7C27.53 12.65 27.49 12.6 27.44 12.56L21.48 6.59C20.46 5.58 19.3 4.81 17.99 4.28C16.72 3.76 15.41 3.5 14.03 3.5C12.65 3.5 11.34 3.76 10.07 4.28C8.75 4.81 7.59 5.58 6.58 6.59C5.57 7.6 4.81 8.76 4.27 10.07C3.76 11.34 3.5 12.65 3.49 14.03C3.49 15.4 3.76 16.73 4.27 17.99C4.79 19.31 5.57 20.47 6.57 21.48L12.42 27.37L12.42 27.38C12.47 27.42 12.52 27.46 12.57 27.5ZM44.39 17.96C44.45 17.95 44.52 17.93 44.58 17.91C44.64 17.89 44.7 17.87 44.77 17.85C44.83 17.82 44.89 17.79 44.94 17.76C45 17.73 45.06 17.7 45.11 17.66C45.17 17.63 45.22 17.59 45.27 17.55C45.32 17.5 45.37 17.46 45.41 17.41C45.46 17.37 45.5 17.32 45.55 17.27C45.59 17.22 45.63 17.17 45.66 17.11C45.7 17.06 45.73 17 45.76 16.94C45.79 16.89 45.82 16.83 45.85 16.77C45.87 16.7 45.89 16.64 45.91 16.58C45.93 16.52 45.95 16.45 45.96 16.39C45.97 16.33 45.98 16.26 45.99 16.2C46 16.13 46 16.07 46 16C46 15.93 46 15.87 45.99 15.8C45.98 15.74 45.97 15.67 45.96 15.61C45.95 15.55 45.93 15.48 45.91 15.42C45.89 15.36 45.87 15.3 45.85 15.23C45.82 15.17 45.79 15.11 45.76 15.06C45.73 15 45.7 14.94 45.66 14.89C45.63 14.83 45.59 14.78 45.55 14.73C45.5 14.68 45.46 14.63 45.41 14.59C45.37 14.54 45.32 14.5 45.27 14.45C45.22 14.41 45.17 14.37 45.11 14.34C45.06 14.3 45 14.27 44.94 14.24C44.89 14.21 44.83 14.18 44.77 14.15C44.7 14.13 44.64 14.11 44.58 14.09C44.52 14.07 44.45 14.05 44.39 14.04C44.33 14.03 44.26 14.02 44.2 14.01C44.13 14 44.07 14 44 14L36 14C35.93 14 35.87 14 35.8 14.01C35.74 14.02 35.67 14.03 35.61 14.04C35.55 14.05 35.48 14.07 35.42 14.09C35.36 14.11 35.3 14.13 35.23 14.15C35.17 14.18 35.11 14.21 35.06 14.24C35 14.27 34.94 14.3 34.89 14.34C34.83 14.37 34.78 14.41 34.73 14.45C34.68 14.5 34.63 14.54 34.59 14.59C34.54 14.63 34.5 14.68 34.45 14.73C34.41 14.78 34.37 14.83 34.34 14.89C34.3 14.94 34.27 15 34.24 15.06C34.21 15.11 34.18 15.17 34.15 15.23C34.13 15.3 34.11 15.36 34.09 15.42C34.07 15.48 34.05 15.55 34.04 15.61C34.03 15.67 34.02 15.74 34.01 15.8C34 15.87 34 15.93 34 16C34 16.07 34 16.13 34.01 16.2C34.02 16.26 34.03 16.33 34.04 16.39C34.05 16.45 34.07 16.52 34.09 16.58C34.11 16.64 34.13 16.7 34.15 16.77C34.18 16.83 34.21 16.89 34.24 16.94C34.27 17 34.3 17.06 34.34 17.11C34.37 17.17 34.41 17.22 34.45 17.27C34.5 17.32 34.54 17.37 34.59 17.41C34.63 17.46 34.68 17.5 34.73 17.55C34.78 17.59 34.83 17.63 34.89 17.66C34.94 17.7 35 17.73 35.06 17.76C35.11 17.79 35.17 17.82 35.23 17.85C35.3 17.87 35.36 17.89 35.42 17.91C35.48 17.93 35.55 17.95 35.61 17.96C35.67 17.97 35.74 17.98 35.8 17.99C35.87 18 35.93 18 36 18L44 18C44.07 18 44.13 18 44.2 17.99C44.26 17.98 44.33 17.97 44.39 17.96ZM23.07 32.64C23.02 32.61 22.96 32.57 22.91 32.53C22.87 32.5 22.8 32.46 22.75 32.43C22.69 32.4 22.63 32.38 22.56 32.35C22.5 32.32 22.44 32.3 22.38 32.28C22.32 32.26 22.26 32.24 22.19 32.23C22.12 32.22 22.06 32.21 22 32.21C21.93 32.2 21.87 32.19 21.8 32.2C21.73 32.2 21.68 32.2 21.6 32.21C21.54 32.21 21.47 32.22 21.42 32.23C21.35 32.25 21.29 32.26 21.22 32.28L21.03 32.35L20.86 32.43C20.8 32.47 20.74 32.5 20.69 32.53C20.64 32.57 20.59 32.61 20.53 32.65C20.48 32.69 20.43 32.74 20.39 32.78C20.34 32.83 20.3 32.87 20.26 32.93C20.21 32.98 20.18 33.03 20.14 33.08C20.1 33.14 20.07 33.2 20.04 33.25C20.01 33.32 19.98 33.37 19.95 33.43L19.89 33.62C19.87 33.68 19.85 33.74 19.85 33.8C19.82 33.87 19.82 33.93 19.81 33.99C19.81 34.07 19.8 34.13 19.8 34.2C19.8 34.26 19.8 34.33 19.81 34.39C19.82 34.45 19.82 34.52 19.84 34.59C19.85 34.64 19.87 34.72 19.89 34.78C19.9 34.84 19.92 34.9 19.95 34.96C19.98 35.03 20.01 35.08 20.04 35.14C20.07 35.2 20.11 35.25 20.14 35.31C20.17 35.36 20.21 35.42 20.26 35.46C20.3 35.51 20.34 35.56 20.39 35.61L26.47 41.69C27.5 42.72 28.69 43.51 30.04 44.05C31.33 44.58 32.68 44.84 34.08 44.84C35.49 44.85 36.84 44.59 38.13 44.06C39.48 43.52 40.66 42.73 41.7 41.69C42.73 40.66 43.52 39.47 44.06 38.13C44.59 36.84 44.85 35.49 44.84 34.08C44.85 32.67 44.59 31.32 44.06 30.03C43.52 28.68 42.73 27.5 41.7 26.46L35.61 20.38C35.56 20.33 35.52 20.29 35.47 20.25C35.42 20.21 35.36 20.17 35.31 20.14C35.26 20.1 35.2 20.06 35.14 20.04C35.08 20.01 35.03 19.98 34.96 19.94C34.9 19.92 34.84 19.91 34.78 19.89C34.72 19.87 34.65 19.85 34.59 19.84C34.53 19.82 34.46 19.81 34.4 19.8C34.37 19.8 34.35 19.8 34.33 19.8C34.28 19.8 34.24 19.8 34.2 19.8C34.16 19.8 34.12 19.8 34.07 19.8C34.05 19.8 34.03 19.8 34 19.8C33.94 19.81 33.87 19.82 33.81 19.84C33.75 19.85 33.68 19.87 33.62 19.89C33.56 19.91 33.5 19.92 33.43 19.95L33.26 20.04C33.2 20.06 33.14 20.1 33.09 20.14C33.04 20.17 32.98 20.21 32.93 20.25C32.88 20.29 32.83 20.34 32.79 20.38C32.74 20.43 32.69 20.47 32.65 20.53C32.62 20.58 32.57 20.64 32.54 20.69C32.5 20.74 32.47 20.8 32.44 20.86C32.41 20.91 32.38 20.98 32.35 21.03C32.33 21.1 32.31 21.16 32.29 21.22C32.27 21.28 32.25 21.34 32.24 21.41C32.22 21.47 32.21 21.54 32.21 21.6C32.21 21.62 32.21 21.65 32.2 21.67C32.2 21.71 32.2 21.76 32.21 21.8C32.2 21.84 32.2 21.88 32.2 21.92C32.21 21.95 32.21 21.97 32.21 21.99C32.21 22.06 32.22 22.12 32.24 22.19C32.25 22.25 32.27 22.31 32.29 22.38C32.31 22.45 32.33 22.5 32.35 22.57C32.38 22.62 32.4 22.69 32.44 22.74C32.47 22.79 32.5 22.86 32.54 22.91C32.57 22.96 32.62 23.01 32.65 23.06C32.69 23.12 32.74 23.17 32.79 23.21L38.87 29.29C39.52 29.94 40.01 30.69 40.35 31.53C40.68 32.34 40.85 33.2 40.85 34.08C40.85 34.96 40.68 35.82 40.35 36.63C40.01 37.47 39.52 38.22 38.87 38.87C38.22 39.52 37.47 40 36.63 40.35C35.82 40.68 34.96 40.85 34.09 40.85C33.2 40.84 32.35 40.68 31.53 40.34C30.7 40 29.95 39.51 29.3 38.86L23.22 32.78C23.17 32.73 23.12 32.69 23.07 32.64ZM3.42 30.09C3.36 30.11 3.3 30.13 3.23 30.15C3.17 30.18 3.11 30.21 3.06 30.24C3 30.27 2.94 30.3 2.89 30.34C2.83 30.37 2.78 30.41 2.73 30.45C2.68 30.5 2.63 30.54 2.59 30.59C2.54 30.63 2.5 30.68 2.45 30.73C2.41 30.78 2.37 30.83 2.34 30.89C2.3 30.94 2.27 31 2.24 31.06C2.21 31.11 2.18 31.17 2.15 31.23C2.13 31.3 2.11 31.36 2.09 31.42C2.07 31.48 2.05 31.55 2.04 31.61C2.03 31.67 2.02 31.74 2.01 31.8C2 31.87 2 31.93 2 32C2 32.07 2 32.13 2.01 32.2C2.02 32.26 2.03 32.33 2.04 32.39C2.05 32.45 2.07 32.52 2.09 32.58C2.11 32.64 2.13 32.7 2.15 32.77C2.18 32.83 2.21 32.89 2.24 32.94C2.27 33 2.3 33.06 2.34 33.11C2.37 33.17 2.41 33.22 2.45 33.27C2.5 33.32 2.54 33.37 2.59 33.41C2.63 33.46 2.68 33.5 2.73 33.55C2.78 33.59 2.83 33.63 2.89 33.66C2.94 33.7 3 33.73 3.06 33.76C3.11 33.79 3.17 33.82 3.23 33.85C3.3 33.87 3.36 33.89 3.42 33.91C3.48 33.93 3.55 33.95 3.61 33.96C3.67 33.97 3.74 33.98 3.8 33.99C3.87 34 3.93 34 4 34L12 34C12.07 34 12.13 34 12.2 33.99C12.26 33.98 12.33 33.97 12.39 33.96C12.45 33.95 12.52 33.93 12.58 33.91C12.64 33.89 12.7 33.87 12.77 33.85C12.83 33.82 12.89 33.79 12.94 33.76C13 33.73 13.06 33.7 13.11 33.66C13.17 33.63 13.22 33.59 13.27 33.55C13.32 33.5 13.37 33.46 13.41 33.41C13.46 33.37 13.5 33.32 13.55 33.27C13.59 33.22 13.63 33.17 13.66 33.11C13.7 33.06 13.73 33 13.76 32.94C13.79 32.89 13.82 32.83 13.85 32.77C13.87 32.7 13.89 32.64 13.91 32.58C13.93 32.52 13.95 32.45 13.96 32.39C13.97 32.33 13.98 32.26 13.99 32.2C14 32.13 14 32.07 14 32C14 31.93 14 31.87 13.99 31.8C13.98 31.74 13.97 31.67 13.96 31.61C13.95 31.55 13.93 31.48 13.91 31.42C13.89 31.36 13.87 31.3 13.85 31.23C13.82 31.17 13.79 31.11 13.76 31.06C13.73 31 13.7 30.94 13.66 30.89C13.63 30.83 13.59 30.78 13.55 30.73C13.5 30.68 13.46 30.63 13.41 30.59C13.37 30.54 13.32 30.5 13.27 30.45C13.22 30.41 13.17 30.37 13.11 30.34C13.06 30.3 13 30.27 12.94 30.24C12.89 30.21 12.83 30.18 12.77 30.15C12.7 30.13 12.64 30.11 12.58 30.09C12.52 30.07 12.45 30.05 12.39 30.04C12.33 30.03 12.26 30.02 12.2 30.01C12.13 30 12.07 30 12 30L4 30C3.93 30 3.87 30 3.8 30.01C3.74 30.02 3.67 30.03 3.61 30.04C3.55 30.05 3.48 30.07 3.42 30.09ZM14.04 44.39C14.05 44.45 14.07 44.52 14.09 44.58C14.11 44.64 14.13 44.7 14.15 44.77C14.18 44.83 14.21 44.89 14.24 44.94C14.27 45 14.3 45.06 14.34 45.11C14.37 45.17 14.41 45.22 14.45 45.27C14.5 45.32 14.54 45.37 14.59 45.41C14.63 45.46 14.68 45.5 14.73 45.55C14.78 45.59 14.83 45.63 14.89 45.66C14.94 45.7 15 45.73 15.06 45.76C15.11 45.79 15.17 45.82 15.23 45.85C15.3 45.87 15.36 45.89 15.42 45.91C15.48 45.93 15.55 45.95 15.61 45.96C15.67 45.97 15.74 45.98 15.8 45.99C15.87 46 15.93 46 16 46C16.07 46 16.13 46 16.2 45.99C16.26 45.98 16.33 45.97 16.39 45.96C16.45 45.95 16.52 45.93 16.58 45.91C16.64 45.89 16.7 45.87 16.77 45.85C16.83 45.82 16.89 45.79 16.94 45.76C17 45.73 17.06 45.7 17.11 45.66C17.17 45.63 17.22 45.59 17.27 45.55C17.32 45.5 17.37 45.46 17.41 45.41C17.46 45.37 17.5 45.32 17.55 45.27C17.59 45.22 17.63 45.17 17.66 45.11C17.7 45.06 17.73 45 17.76 44.94C17.79 44.89 17.82 44.83 17.85 44.77C17.87 44.7 17.89 44.64 17.91 44.58C17.93 44.52 17.95 44.45 17.96 44.39C17.97 44.33 17.98 44.26 17.99 44.2C18 44.13 18 44.07 18 44L18 36C18 35.93 18 35.87 17.99 35.8C17.98 35.74 17.97 35.67 17.96 35.61C17.95 35.55 17.93 35.48 17.91 35.42C17.89 35.36 17.87 35.3 17.85 35.23C17.82 35.17 17.79 35.11 17.76 35.06C17.73 35 17.7 34.94 17.66 34.89C17.63 34.83 17.59 34.78 17.55 34.73C17.5 34.68 17.46 34.63 17.41 34.59C17.37 34.54 17.32 34.5 17.27 34.45C17.22 34.41 17.17 34.37 17.11 34.34C17.06 34.3 17 34.27 16.94 34.24C16.89 34.21 16.83 34.18 16.77 34.15C16.7 34.13 16.64 34.11 16.58 34.09C16.52 34.07 16.45 34.05 16.39 34.04C16.33 34.03 16.26 34.02 16.2 34.01C16.13 34 16.07 34 16 34C15.93 34 15.87 34 15.8 34.01C15.74 34.02 15.67 34.03 15.61 34.04C15.55 34.05 15.48 34.07 15.42 34.09C15.36 34.11 15.3 34.13 15.23 34.15C15.17 34.18 15.11 34.21 15.06 34.24C15 34.27 14.94 34.3 14.89 34.34C14.83 34.37 14.78 34.41 14.73 34.45C14.68 34.5 14.63 34.54 14.59 34.59C14.54 34.63 14.5 34.68 14.45 34.73C14.41 34.78 14.37 34.83 14.34 34.89C14.3 34.94 14.27 35 14.24 35.06C14.21 35.11 14.18 35.17 14.15 35.23C14.13 35.3 14.11 35.36 14.09 35.42C14.07 35.48 14.05 35.55 14.04 35.61C14.03 35.67 14.02 35.74 14.01 35.8C14 35.87 14 35.93 14 36L14 44C14 44.07 14 44.13 14.01 44.2C14.02 44.26 14.03 44.33 14.04 44.39Z" fill-rule="evenodd"  fill="#000000" >
</path>
</svg>
