<svg xmlns="http://www.w3.org/2000/svg" xmlns:xlink="http://www.w3.org/1999/xlink" width="48" height="48" viewBox="0 0 48 48" fill="none">
<path d="M5.61 4.04C5.55 4.05 5.48 4.07 5.42 4.09C5.36 4.11 5.3 4.13 5.23 4.15C5.17 4.18 5.11 4.21 5.06 4.24C5 4.27 4.94 4.3 4.89 4.34C4.83 4.37 4.78 4.41 4.73 4.45C4.68 4.5 4.63 4.54 4.59 4.59C4.54 4.63 4.5 4.68 4.45 4.73C4.41 4.78 4.37 4.83 4.34 4.89C4.3 4.94 4.27 5 4.24 5.06C4.21 5.11 4.18 5.17 4.15 5.23C4.13 5.3 4.11 5.36 4.09 5.42C4.07 5.48 4.05 5.55 4.04 5.61C4.03 5.67 4.02 5.74 4.01 5.8C4 5.87 4 5.93 4 6C4 6.07 4 6.13 4.01 6.2C4.02 6.26 4.03 6.33 4.04 6.39C4.05 6.45 4.07 6.52 4.09 6.58C4.11 6.64 4.13 6.7 4.15 6.77C4.18 6.83 4.21 6.89 4.24 6.94C4.27 7 4.3 7.06 4.34 7.11C4.37 7.17 4.41 7.22 4.45 7.27C4.5 7.32 4.54 7.37 4.59 7.41C4.63 7.46 4.68 7.5 4.73 7.55C4.78 7.59 4.83 7.63 4.89 7.66C4.94 7.7 5 7.73 5.06 7.76C5.11 7.79 5.17 7.82 5.23 7.85C5.3 7.87 5.36 7.89 5.42 7.91C5.48 7.93 5.55 7.95 5.61 7.96C5.67 7.97 5.74 7.98 5.8 7.99C5.87 8 5.93 8 6 8L42 8C42.07 8 42.13 8 42.2 7.99C42.26 7.98 42.33 7.97 42.39 7.96C42.45 7.95 42.52 7.93 42.58 7.91C42.64 7.89 42.7 7.87 42.77 7.85C42.83 7.82 42.88 7.79 42.94 7.76C43 7.73 43.06 7.7 43.11 7.66C43.17 7.63 43.22 7.59 43.27 7.55C43.32 7.5 43.37 7.46 43.41 7.41C43.46 7.37 43.5 7.32 43.55 7.27C43.59 7.22 43.63 7.17 43.66 7.11C43.7 7.06 43.73 7 43.76 6.94C43.79 6.89 43.82 6.83 43.85 6.77C43.87 6.7 43.89 6.64 43.91 6.58C43.93 6.52 43.95 6.45 43.96 6.39C43.97 6.33 43.98 6.26 43.99 6.2C44 6.13 44 6.07 44 6C44 5.93 44 5.87 43.99 5.8C43.98 5.74 43.97 5.67 43.96 5.61C43.95 5.55 43.93 5.48 43.91 5.42C43.89 5.36 43.87 5.3 43.85 5.23C43.82 5.17 43.79 5.11 43.76 5.06C43.73 5 43.7 4.94 43.66 4.89C43.63 4.83 43.59 4.78 43.55 4.73C43.5 4.68 43.46 4.63 43.41 4.59C43.37 4.54 43.32 4.5 43.27 4.45C43.22 4.41 43.17 4.37 43.11 4.34C43.06 4.3 43 4.27 42.94 4.24C42.88 4.21 42.83 4.18 42.77 4.15C42.7 4.13 42.64 4.11 42.58 4.09C42.52 4.07 42.45 4.05 42.39 4.04C42.33 4.03 42.26 4.02 42.2 4.01C42.13 4 42.07 4 42 4L6 4C5.93 4 5.87 4 5.8 4.01C5.74 4.02 5.67 4.03 5.61 4.04ZM33.56 27.68C34.04 27.48 34.46 27.19 34.83 26.83C35.19 26.46 35.48 26.04 35.68 25.56C35.89 25.06 36 24.54 36 24C36 23.46 35.89 22.94 35.68 22.44C35.48 21.96 35.19 21.54 34.83 21.17C34.46 20.81 34.04 20.52 33.56 20.32C33.06 20.11 32.54 20 32 20L16 20C15.46 20 14.94 20.11 14.44 20.32C13.96 20.52 13.54 20.81 13.17 21.17C12.81 21.54 12.52 21.96 12.32 22.44C12.11 22.94 12 23.46 12 24C12 24.54 12.11 25.06 12.32 25.56C12.52 26.04 12.81 26.46 13.17 26.83C13.54 27.19 13.96 27.48 14.44 27.68C14.94 27.89 15.46 28 16 28L32 28C32.54 28 33.06 27.89 33.56 27.68ZM5.61 40.04C5.55 40.05 5.48 40.07 5.42 40.09C5.36 40.11 5.3 40.13 5.23 40.15C5.17 40.18 5.11 40.21 5.06 40.24C5 40.27 4.94 40.3 4.89 40.34C4.83 40.37 4.78 40.41 4.73 40.45C4.68 40.5 4.63 40.54 4.59 40.59C4.54 40.63 4.5 40.68 4.45 40.73C4.41 40.78 4.37 40.83 4.34 40.89C4.3 40.94 4.27 41 4.24 41.06C4.21 41.11 4.18 41.17 4.15 41.23C4.13 41.3 4.11 41.36 4.09 41.42C4.07 41.48 4.05 41.55 4.04 41.61C4.03 41.67 4.02 41.74 4.01 41.8C4 41.87 4 41.93 4 42C4 42.07 4 42.13 4.01 42.2C4.02 42.26 4.03 42.33 4.04 42.39C4.05 42.45 4.07 42.52 4.09 42.58C4.11 42.64 4.13 42.7 4.15 42.77C4.18 42.83 4.21 42.89 4.24 42.94C4.27 43 4.3 43.06 4.34 43.11C4.37 43.17 4.41 43.22 4.45 43.27C4.5 43.32 4.54 43.37 4.59 43.41C4.63 43.46 4.68 43.5 4.73 43.55C4.78 43.59 4.83 43.63 4.89 43.66C4.94 43.7 5 43.73 5.06 43.76C5.11 43.79 5.17 43.82 5.23 43.85C5.3 43.87 5.36 43.89 5.42 43.91C5.48 43.93 5.55 43.95 5.61 43.96C5.67 43.97 5.74 43.98 5.8 43.99C5.87 44 5.93 44 6 44L42 44C42.07 44 42.13 44 42.2 43.99C42.26 43.98 42.33 43.97 42.39 43.96C42.45 43.95 42.52 43.93 42.58 43.91C42.64 43.89 42.7 43.87 42.77 43.85C42.83 43.82 42.88 43.79 42.94 43.76C43 43.73 43.06 43.7 43.11 43.66C43.17 43.63 43.22 43.59 43.27 43.55C43.32 43.5 43.37 43.46 43.41 43.41C43.46 43.37 43.5 43.32 43.55 43.27C43.59 43.22 43.63 43.17 43.66 43.11C43.7 43.06 43.73 43 43.76 42.94C43.79 42.89 43.82 42.83 43.85 42.77C43.87 42.7 43.89 42.64 43.91 42.58C43.93 42.52 43.95 42.45 43.96 42.39C43.97 42.33 43.98 42.26 43.99 42.2C44 42.13 44 42.07 44 42C44 41.93 44 41.87 43.99 41.8C43.98 41.74 43.97 41.67 43.96 41.61C43.95 41.55 43.93 41.48 43.91 41.42C43.89 41.36 43.87 41.3 43.85 41.23C43.82 41.17 43.79 41.11 43.76 41.06C43.73 41 43.7 40.94 43.66 40.89C43.63 40.83 43.59 40.78 43.55 40.73C43.5 40.68 43.46 40.63 43.41 40.59C43.37 40.54 43.32 40.5 43.27 40.45C43.22 40.41 43.17 40.37 43.11 40.34C43.06 40.3 43 40.27 42.94 40.24C42.88 40.21 42.83 40.18 42.77 40.15C42.7 40.13 42.64 40.11 42.58 40.09C42.52 40.07 42.45 40.05 42.39 40.04C42.33 40.03 42.26 40.02 42.2 40.01C42.13 40 42.07 40 42 40L6 40C5.93 40 5.87 40 5.8 40.01C5.74 40.02 5.67 40.03 5.61 40.04Z" fill-rule="evenodd"  fill="#000000" >
</path>
</svg>
