<svg xmlns="http://www.w3.org/2000/svg" xmlns:xlink="http://www.w3.org/1999/xlink" width="48" height="48" viewBox="0 0 48 48" fill="none">
<path d="M7.96 5.61049C7.95 5.55049 7.93 5.48049 7.91 5.42049C7.89 5.36049 7.87 5.30049 7.85 5.23049C7.82 5.17049 7.79 5.11049 7.76 5.06049C7.73 5.00049 7.7 4.94049 7.66 4.89049C7.63 4.83049 7.59 4.78049 7.55 4.73049C7.5 4.68049 7.46 4.63049 7.41 4.59049C7.37 4.54049 7.32 4.50049 7.27 4.45049C7.22 4.41049 7.17 4.37049 7.11 4.34049C7.06 4.30049 7 4.27049 6.94 4.24049C6.89 4.21049 6.83 4.18049 6.77 4.15049C6.7 4.13049 6.64 4.11049 6.58 4.09049C6.52 4.07049 6.45 4.05049 6.39 4.04049C6.33 4.03049 6.26 4.02049 6.2 4.01049C6.13 4.00049 6.07 4.00049 6 4.00049C5.93 4.00049 5.87 4.00049 5.8 4.01049C5.74 4.02049 5.67 4.03049 5.61 4.04049C5.55 4.05049 5.48 4.07049 5.42 4.09049C5.36 4.11049 5.3 4.13049 5.23 4.15049C5.17 4.18049 5.11 4.21049 5.06 4.24049C5 4.27049 4.94 4.30049 4.89 4.34049C4.83 4.37049 4.78 4.41049 4.73 4.45049C4.68 4.50049 4.63 4.54049 4.59 4.59049C4.54 4.63049 4.5 4.68049 4.45 4.73049C4.41 4.78049 4.37 4.83049 4.34 4.89049C4.3 4.94049 4.27 5.00049 4.24 5.06049C4.21 5.11049 4.18 5.17049 4.15 5.23049C4.13 5.30049 4.11 5.36049 4.09 5.42049C4.07 5.48049 4.05 5.55049 4.04 5.61049C4.03 5.67049 4.02 5.74049 4.01 5.80049C4 5.87049 4 5.93049 4 6.00049L4 42.0005C4 42.0705 4 42.1305 4.01 42.2005C4.02 42.2605 4.03 42.3305 4.04 42.3905C4.05 42.4505 4.07 42.5205 4.09 42.5805C4.11 42.6405 4.13 42.7005 4.15 42.7705C4.18 42.8305 4.21 42.8805 4.24 42.9405C4.27 43.0005 4.3 43.0605 4.34 43.1105C4.37 43.1705 4.41 43.2205 4.45 43.2705C4.5 43.3205 4.54 43.3705 4.59 43.4105C4.63 43.4605 4.68 43.5005 4.73 43.5505C4.78 43.5905 4.83 43.6305 4.89 43.6605C4.94 43.7005 5 43.7305 5.06 43.7605C5.11 43.7905 5.17 43.8205 5.23 43.8505C5.3 43.8705 5.36 43.8905 5.42 43.9105C5.48 43.9305 5.55 43.9505 5.61 43.9605C5.67 43.9705 5.74 43.9805 5.8 43.9905C5.87 44.0005 5.93 44.0005 6 44.0005C6.07 44.0005 6.13 44.0005 6.2 43.9905C6.26 43.9805 6.33 43.9705 6.39 43.9605C6.45 43.9505 6.52 43.9305 6.58 43.9105C6.64 43.8905 6.7 43.8705 6.77 43.8505C6.83 43.8205 6.89 43.7905 6.94 43.7605C7 43.7305 7.06 43.7005 7.11 43.6605C7.17 43.6305 7.22 43.5905 7.27 43.5505C7.32 43.5005 7.37 43.4605 7.41 43.4105C7.46 43.3705 7.5 43.3205 7.55 43.2705C7.59 43.2205 7.63 43.1705 7.66 43.1105C7.7 43.0605 7.73 43.0005 7.76 42.9405C7.79 42.8805 7.82 42.8305 7.85 42.7705C7.87 42.7005 7.89 42.6405 7.91 42.5805C7.93 42.5205 7.95 42.4505 7.96 42.3905C7.97 42.3305 7.98 42.2605 7.99 42.2005C8 42.1305 8 42.0705 8 42.0005L8 6.00049C8 5.93049 8 5.87049 7.99 5.80049C7.98 5.74049 7.97 5.67049 7.96 5.61049ZM43.96 5.61049C43.95 5.55049 43.93 5.48049 43.91 5.42049C43.89 5.36049 43.87 5.30049 43.85 5.23049C43.82 5.17049 43.79 5.11049 43.76 5.06049C43.73 5.00049 43.7 4.94049 43.66 4.89049C43.63 4.83049 43.59 4.78049 43.55 4.73049C43.5 4.68049 43.46 4.63049 43.41 4.59049C43.37 4.54049 43.32 4.50049 43.27 4.45049C43.22 4.41049 43.17 4.37049 43.11 4.34049C43.06 4.30049 43 4.27049 42.94 4.24049C42.89 4.21049 42.83 4.18049 42.77 4.15049C42.7 4.13049 42.64 4.11049 42.58 4.09049C42.52 4.07049 42.45 4.05049 42.39 4.04049C42.33 4.03049 42.26 4.02049 42.2 4.01049C42.13 4.00049 42.07 4.00049 42 4.00049C41.93 4.00049 41.87 4.00049 41.8 4.01049C41.74 4.02049 41.67 4.03049 41.61 4.04049C41.55 4.05049 41.48 4.07049 41.42 4.09049C41.36 4.11049 41.3 4.13049 41.23 4.15049C41.17 4.18049 41.11 4.21049 41.06 4.24049C41 4.27049 40.94 4.30049 40.89 4.34049C40.83 4.37049 40.78 4.41049 40.73 4.45049C40.68 4.50049 40.63 4.54049 40.59 4.59049C40.54 4.63049 40.5 4.68049 40.45 4.73049C40.41 4.78049 40.37 4.83049 40.34 4.89049C40.3 4.94049 40.27 5.00049 40.24 5.06049C40.21 5.11049 40.18 5.17049 40.15 5.23049C40.13 5.30049 40.11 5.36049 40.09 5.42049C40.07 5.48049 40.05 5.55049 40.04 5.61049C40.03 5.67049 40.02 5.74049 40.01 5.80049C40 5.87049 40 5.93049 40 6.00049L40 42.0005C40 42.0705 40 42.1305 40.01 42.2005C40.02 42.2605 40.03 42.3305 40.04 42.3905C40.05 42.4505 40.07 42.5205 40.09 42.5805C40.11 42.6405 40.13 42.7005 40.15 42.7705C40.18 42.8305 40.21 42.8805 40.24 42.9405C40.27 43.0005 40.3 43.0605 40.34 43.1105C40.37 43.1705 40.41 43.2205 40.45 43.2705C40.5 43.3205 40.54 43.3705 40.59 43.4105C40.63 43.4605 40.68 43.5005 40.73 43.5505C40.78 43.5905 40.83 43.6305 40.89 43.6605C40.94 43.7005 41 43.7305 41.06 43.7605C41.11 43.7905 41.17 43.8205 41.23 43.8505C41.3 43.8705 41.36 43.8905 41.42 43.9105C41.48 43.9305 41.55 43.9505 41.61 43.9605C41.67 43.9705 41.74 43.9805 41.8 43.9905C41.87 44.0005 41.93 44.0005 42 44.0005C42.07 44.0005 42.13 44.0005 42.2 43.9905C42.26 43.9805 42.33 43.9705 42.39 43.9605C42.45 43.9505 42.52 43.9305 42.58 43.9105C42.64 43.8905 42.7 43.8705 42.77 43.8505C42.83 43.8205 42.89 43.7905 42.94 43.7605C43 43.7305 43.06 43.7005 43.11 43.6605C43.17 43.6305 43.22 43.5905 43.27 43.5505C43.32 43.5005 43.37 43.4605 43.41 43.4105C43.46 43.3705 43.5 43.3205 43.55 43.2705C43.59 43.2205 43.63 43.1705 43.66 43.1105C43.7 43.0605 43.73 43.0005 43.76 42.9405C43.79 42.8805 43.82 42.8305 43.85 42.7705C43.87 42.7005 43.89 42.6405 43.91 42.5805C43.93 42.5205 43.95 42.4505 43.96 42.3905C43.97 42.3305 43.98 42.2605 43.99 42.2005C44 42.1305 44 42.0705 44 42.0005L44 6.00049C44 5.93049 44 5.87049 43.99 5.80049C43.98 5.74049 43.97 5.67049 43.96 5.61049ZM20.32 33.5605C20.52 34.0405 20.81 34.4605 21.17 34.8305C21.54 35.1905 21.96 35.4805 22.44 35.6805C22.94 35.8905 23.46 36.0005 24 36.0005C24.54 36.0005 25.06 35.8905 25.56 35.6805C26.04 35.4805 26.46 35.1905 26.83 34.8305C27.19 34.4605 27.48 34.0405 27.68 33.5605C27.89 33.0605 28 32.5405 28 32.0005L28 16.0005C28 15.4605 27.89 14.9405 27.68 14.4405C27.48 13.9605 27.19 13.5405 26.83 13.1705C26.46 12.8105 26.04 12.5205 25.56 12.3205C25.06 12.1105 24.54 12.0005 24 12.0005C23.46 12.0005 22.94 12.1105 22.44 12.3205C21.96 12.5205 21.54 12.8105 21.17 13.1705C20.81 13.5405 20.52 13.9605 20.32 14.4405C20.11 14.9405 20 15.4605 20 16.0005L20 32.0005C20 32.5405 20.11 33.0605 20.32 33.5605Z" fill-rule="evenodd"  fill="#000000" >
</path>
</svg>
