<svg xmlns="http://www.w3.org/2000/svg" xmlns:xlink="http://www.w3.org/1999/xlink" width="48" height="48" viewBox="0 0 48 48" fill="none">
<path d="M23.6964 43.0443L39.8964 42.9943C39.9264 42.9943 39.9664 43.0043 39.9964 43.0043C41.0964 43.0043 41.9964 42.1043 41.9964 41.0043C41.9964 39.9043 41.0964 39.0043 39.9964 39.0043L39.9864 39.0043L39.9864 38.9943L27.6364 39.0343L41.8564 24.5743C42.4164 23.9943 42.8464 23.3343 43.1464 22.5843C43.4364 21.8643 43.5764 21.1243 43.5764 20.3443C43.5764 19.5543 43.4264 18.8143 43.1364 18.1043C42.8264 17.3543 42.3864 16.6943 41.8164 16.1243L31.8964 6.20434C31.3264 5.62434 30.6564 5.18434 29.9064 4.87434C29.1864 4.59434 28.4364 4.43434 27.6564 4.44434C26.8664 4.43434 26.1164 4.59434 25.3964 4.87434C24.6464 5.18434 23.9864 5.62434 23.4164 6.20434L6.31641 23.2943C5.76641 23.8443 5.32641 24.4943 5.02641 25.2343C4.71641 25.9743 4.55641 26.7343 4.56641 27.5343L4.56641 40.0043C4.55641 40.4043 4.63641 40.7943 4.79641 41.1743C4.94641 41.5343 5.15641 41.8443 5.44641 42.1243C5.71641 42.4043 6.02641 42.6143 6.39641 42.7643C6.76641 42.9243 7.15641 43.0043 7.54641 43.0043L7.55641 42.9943L22.8564 43.0443L23.6964 43.0443ZM8.56641 39.0043L19.8764 39.0343L8.55641 29.0843L8.56641 39.0043ZM23.8264 37.1943L38.9964 21.7743C39.1964 21.5743 39.3264 21.3543 39.4364 21.1043C39.5364 20.8643 39.5764 20.6143 39.5764 20.3543C39.5664 20.0943 39.5264 19.8443 39.4364 19.6043C39.3264 19.3543 39.1764 19.1443 38.9864 18.9443L29.0664 9.02434C28.8764 8.83434 28.6564 8.68434 28.4064 8.59434C28.1664 8.49434 27.9164 8.44434 27.6564 8.44434C27.3964 8.44434 27.1464 8.49434 26.9064 8.59434C26.6464 8.68434 26.4264 8.83434 26.2364 9.02434L10.1264 25.1443L23.8264 37.1943Z" fill-rule="evenodd"  fill="#000000" >
</path>
</svg>
