<svg xmlns="http://www.w3.org/2000/svg" xmlns:xlink="http://www.w3.org/1999/xlink" width="48" height="48" viewBox="0 0 48 48" fill="none">
<path d="M4.04 14.39C4.05 14.45 4.07 14.52 4.09 14.58C4.11 14.64 4.13 14.7 4.15 14.77C4.18 14.83 4.21 14.89 4.24 14.94C4.27 15 4.3 15.06 4.34 15.11C4.37 15.17 4.41 15.22 4.45 15.27C4.5 15.32 4.54 15.37 4.59 15.41C4.63 15.46 4.68 15.5 4.73 15.55C4.78 15.59 4.83 15.63 4.89 15.66C4.94 15.7 5 15.73 5.06 15.76C5.11 15.79 5.17 15.82 5.23 15.85C5.3 15.87 5.36 15.89 5.42 15.91C5.48 15.93 5.55 15.95 5.61 15.96C5.67 15.97 5.74 15.98 5.8 15.99C5.87 16 5.93 16 6 16L8 16L8 32L6 32C5.93 32 5.87 32 5.8 32.01C5.74 32.02 5.67 32.03 5.61 32.04C5.55 32.05 5.48 32.07 5.42 32.09C5.36 32.11 5.3 32.13 5.23 32.15C5.17 32.18 5.11 32.21 5.06 32.24C5 32.27 4.94 32.3 4.89 32.34C4.83 32.37 4.78 32.41 4.73 32.45C4.68 32.5 4.63 32.54 4.59 32.59C4.54 32.63 4.5 32.68 4.45 32.73C4.41 32.78 4.37 32.83 4.34 32.89C4.3 32.94 4.27 33 4.24 33.06C4.21 33.11 4.18 33.17 4.15 33.23C4.13 33.3 4.11 33.36 4.09 33.42C4.07 33.48 4.05 33.55 4.04 33.61C4.03 33.67 4.02 33.74 4.01 33.8C4 33.87 4 33.93 4 34L4 42C4 42.07 4 42.13 4.01 42.2C4.02 42.26 4.03 42.33 4.04 42.39C4.05 42.45 4.07 42.52 4.09 42.58C4.11 42.64 4.13 42.7 4.15 42.77C4.18 42.83 4.21 42.89 4.24 42.94C4.27 43 4.3 43.06 4.34 43.11C4.37 43.17 4.41 43.22 4.45 43.27C4.5 43.32 4.54 43.37 4.59 43.41C4.63 43.46 4.68 43.5 4.73 43.55C4.78 43.59 4.83 43.63 4.89 43.66C4.94 43.7 5 43.73 5.06 43.76C5.11 43.79 5.17 43.82 5.23 43.85C5.3 43.87 5.36 43.89 5.42 43.91C5.48 43.93 5.55 43.95 5.61 43.96C5.67 43.97 5.74 43.98 5.8 43.99C5.87 44 5.93 44 6 44L14 44C14.07 44 14.13 44 14.2 43.99C14.26 43.98 14.33 43.97 14.39 43.96C14.45 43.95 14.52 43.93 14.58 43.91C14.64 43.89 14.7 43.87 14.77 43.85C14.83 43.82 14.89 43.79 14.94 43.76C15 43.73 15.06 43.7 15.11 43.66C15.17 43.63 15.22 43.59 15.27 43.55C15.32 43.5 15.37 43.46 15.41 43.41C15.46 43.37 15.5 43.32 15.55 43.27C15.59 43.22 15.63 43.17 15.66 43.11C15.7 43.06 15.73 43 15.76 42.94C15.79 42.89 15.82 42.83 15.85 42.77C15.87 42.7 15.89 42.64 15.91 42.58C15.93 42.52 15.95 42.45 15.96 42.39C15.97 42.33 15.98 42.26 15.99 42.2C16 42.13 16 42.07 16 42L16 40L32 40L32 42C32 42.07 32 42.13 32.01 42.2C32.02 42.26 32.03 42.33 32.04 42.39C32.05 42.45 32.07 42.52 32.09 42.58C32.11 42.64 32.13 42.7 32.15 42.77C32.18 42.83 32.21 42.89 32.24 42.94C32.27 43 32.3 43.06 32.34 43.11C32.37 43.17 32.41 43.22 32.45 43.27C32.5 43.32 32.54 43.37 32.59 43.41C32.63 43.46 32.68 43.5 32.73 43.55C32.78 43.59 32.83 43.63 32.89 43.66C32.94 43.7 33 43.73 33.06 43.76C33.11 43.79 33.17 43.82 33.23 43.85C33.3 43.87 33.36 43.89 33.42 43.91C33.48 43.93 33.55 43.95 33.61 43.96C33.67 43.97 33.74 43.98 33.8 43.99C33.87 44 33.93 44 34 44L42 44C42.07 44 42.13 44 42.2 43.99C42.26 43.98 42.33 43.97 42.39 43.96C42.45 43.95 42.52 43.93 42.58 43.91C42.64 43.89 42.7 43.87 42.77 43.85C42.83 43.82 42.89 43.79 42.94 43.76C43 43.73 43.06 43.7 43.11 43.66C43.17 43.63 43.22 43.59 43.27 43.55C43.32 43.5 43.37 43.46 43.41 43.41C43.46 43.37 43.5 43.32 43.55 43.27C43.59 43.22 43.63 43.17 43.66 43.11C43.7 43.06 43.73 43 43.76 42.94C43.79 42.89 43.82 42.83 43.85 42.77C43.87 42.7 43.89 42.64 43.91 42.58C43.93 42.52 43.95 42.45 43.96 42.39C43.97 42.33 43.98 42.26 43.99 42.2C44 42.13 44 42.07 44 42L44 34C44 33.93 44 33.87 43.99 33.8C43.98 33.74 43.97 33.67 43.96 33.61C43.95 33.55 43.93 33.48 43.91 33.42C43.89 33.36 43.87 33.3 43.85 33.23C43.82 33.17 43.79 33.11 43.76 33.06C43.73 33 43.7 32.94 43.66 32.89C43.63 32.83 43.59 32.78 43.55 32.73C43.5 32.68 43.46 32.63 43.41 32.59C43.37 32.54 43.32 32.5 43.27 32.45C43.22 32.41 43.17 32.37 43.11 32.34C43.06 32.3 43 32.27 42.94 32.24C42.89 32.21 42.83 32.18 42.77 32.15C42.7 32.13 42.64 32.11 42.58 32.09C42.52 32.07 42.45 32.05 42.39 32.04C42.33 32.03 42.26 32.02 42.2 32.01C42.13 32 42.07 32 42 32L40 32L40 16L42 16C42.07 16 42.13 16 42.2 15.99C42.26 15.98 42.33 15.97 42.39 15.96C42.45 15.95 42.52 15.93 42.58 15.91C42.64 15.89 42.7 15.87 42.77 15.85C42.83 15.82 42.89 15.79 42.94 15.76C43 15.73 43.06 15.7 43.11 15.66C43.17 15.63 43.22 15.59 43.27 15.55C43.32 15.5 43.37 15.46 43.41 15.41C43.46 15.37 43.5 15.32 43.55 15.27C43.59 15.22 43.63 15.17 43.66 15.11C43.7 15.06 43.73 15 43.76 14.94C43.79 14.89 43.82 14.83 43.85 14.77C43.87 14.7 43.89 14.64 43.91 14.58C43.93 14.52 43.95 14.45 43.96 14.39C43.97 14.33 43.98 14.26 43.99 14.2C44 14.13 44 14.07 44 14L44 6C44 5.93 44 5.87 43.99 5.8C43.98 5.74 43.97 5.67 43.96 5.61C43.95 5.55 43.93 5.48 43.91 5.42C43.89 5.36 43.87 5.3 43.85 5.23C43.82 5.17 43.79 5.11 43.76 5.06C43.73 5 43.7 4.94 43.66 4.89C43.63 4.83 43.59 4.78 43.55 4.73C43.5 4.68 43.46 4.63 43.41 4.59C43.37 4.54 43.32 4.5 43.27 4.45C43.22 4.41 43.17 4.37 43.11 4.34C43.06 4.3 43 4.27 42.94 4.24C42.89 4.21 42.83 4.18 42.77 4.15C42.7 4.13 42.64 4.11 42.58 4.09C42.52 4.07 42.45 4.05 42.39 4.04C42.33 4.03 42.26 4.02 42.2 4.01C42.13 4 42.07 4 42 4L34 4C33.93 4 33.87 4 33.8 4.01C33.74 4.02 33.67 4.03 33.61 4.04C33.55 4.05 33.48 4.07 33.42 4.09C33.36 4.11 33.3 4.13 33.23 4.15C33.17 4.18 33.11 4.21 33.06 4.24C33 4.27 32.94 4.3 32.89 4.34C32.83 4.37 32.78 4.41 32.73 4.45C32.68 4.5 32.63 4.54 32.59 4.59C32.54 4.63 32.5 4.68 32.45 4.73C32.41 4.78 32.37 4.83 32.34 4.89C32.3 4.94 32.27 5 32.24 5.06C32.21 5.11 32.18 5.17 32.15 5.23C32.13 5.3 32.11 5.36 32.09 5.42C32.07 5.48 32.05 5.55 32.04 5.61C32.03 5.67 32.02 5.74 32.01 5.8C32 5.87 32 5.93 32 6L32 8L16 8L16 6C16 5.93 16 5.87 15.99 5.8C15.98 5.74 15.97 5.67 15.96 5.61C15.95 5.55 15.93 5.48 15.91 5.42C15.89 5.36 15.87 5.3 15.85 5.23C15.82 5.17 15.79 5.11 15.76 5.06C15.73 5 15.7 4.94 15.66 4.89C15.63 4.83 15.59 4.78 15.55 4.73C15.5 4.68 15.46 4.63 15.41 4.59C15.37 4.54 15.32 4.5 15.27 4.45C15.22 4.41 15.17 4.37 15.11 4.34C15.06 4.3 15 4.27 14.94 4.24C14.89 4.21 14.83 4.18 14.77 4.15C14.7 4.13 14.64 4.11 14.58 4.09C14.52 4.07 14.45 4.05 14.39 4.04C14.33 4.03 14.26 4.02 14.2 4.01C14.13 4 14.07 4 14 4L6 4C5.93 4 5.87 4 5.8 4.01C5.74 4.02 5.67 4.03 5.61 4.04C5.55 4.05 5.48 4.07 5.42 4.09C5.36 4.11 5.3 4.13 5.23 4.15C5.17 4.18 5.11 4.21 5.06 4.24C5 4.27 4.94 4.3 4.89 4.34C4.83 4.37 4.78 4.41 4.73 4.45C4.68 4.5 4.63 4.54 4.59 4.59C4.54 4.63 4.5 4.68 4.45 4.73C4.41 4.78 4.37 4.83 4.34 4.89C4.3 4.94 4.27 5 4.24 5.06C4.21 5.11 4.18 5.17 4.15 5.23C4.13 5.3 4.11 5.36 4.09 5.42C4.07 5.48 4.05 5.55 4.04 5.61C4.03 5.67 4.02 5.74 4.01 5.8C4 5.87 4 5.93 4 6L4 14C4 14.07 4 14.13 4.01 14.2C4.02 14.26 4.03 14.33 4.04 14.39ZM16 14C16 14.07 16 14.13 15.99 14.2C15.98 14.26 15.97 14.33 15.96 14.39C15.95 14.45 15.93 14.52 15.91 14.58C15.89 14.64 15.87 14.7 15.85 14.77C15.82 14.83 15.79 14.89 15.76 14.94C15.73 15 15.7 15.06 15.66 15.11C15.63 15.17 15.59 15.22 15.55 15.27C15.5 15.32 15.46 15.37 15.41 15.41C15.37 15.46 15.32 15.5 15.27 15.55C15.22 15.59 15.17 15.63 15.11 15.66C15.06 15.7 15 15.73 14.94 15.76C14.89 15.79 14.83 15.82 14.77 15.85C14.7 15.87 14.64 15.89 14.58 15.91C14.52 15.93 14.45 15.95 14.39 15.96C14.33 15.97 14.26 15.98 14.2 15.99C14.13 16 14.07 16 14 16L12 16L12 32L14 32C14.07 32 14.13 32 14.2 32.01C14.26 32.02 14.33 32.03 14.39 32.04C14.45 32.05 14.52 32.07 14.58 32.09C14.64 32.11 14.7 32.13 14.77 32.15C14.83 32.18 14.89 32.21 14.94 32.24C15 32.27 15.06 32.3 15.11 32.34C15.17 32.37 15.22 32.41 15.27 32.45C15.32 32.5 15.37 32.54 15.41 32.59C15.46 32.63 15.5 32.68 15.55 32.73C15.59 32.78 15.63 32.83 15.66 32.89C15.7 32.94 15.73 33 15.76 33.06C15.79 33.11 15.82 33.17 15.85 33.23C15.87 33.3 15.89 33.36 15.91 33.42C15.93 33.48 15.95 33.55 15.96 33.61C15.97 33.67 15.98 33.74 15.99 33.8C16 33.87 16 33.93 16 34L16 36L32 36L32 34C32 33.93 32 33.87 32.01 33.8C32.02 33.74 32.03 33.67 32.04 33.61C32.05 33.55 32.07 33.48 32.09 33.42C32.11 33.36 32.13 33.3 32.15 33.23C32.18 33.17 32.21 33.11 32.24 33.06C32.27 33 32.3 32.94 32.34 32.89C32.37 32.83 32.41 32.78 32.45 32.73C32.5 32.68 32.54 32.63 32.59 32.59C32.63 32.54 32.68 32.5 32.73 32.45C32.78 32.41 32.83 32.37 32.89 32.34C32.94 32.3 33 32.27 33.06 32.24C33.11 32.21 33.17 32.18 33.23 32.15C33.3 32.13 33.36 32.11 33.42 32.09C33.48 32.07 33.55 32.05 33.61 32.04C33.67 32.03 33.74 32.02 33.8 32.01C33.87 32 33.93 32 34 32L36 32L36 16L34 16C33.93 16 33.87 16 33.8 15.99C33.74 15.98 33.67 15.97 33.61 15.96C33.55 15.95 33.48 15.93 33.42 15.91C33.36 15.89 33.3 15.87 33.23 15.85C33.17 15.82 33.11 15.79 33.06 15.76C33 15.73 32.94 15.7 32.89 15.66C32.83 15.63 32.78 15.59 32.73 15.55C32.68 15.5 32.63 15.46 32.59 15.41C32.54 15.37 32.5 15.32 32.45 15.27C32.41 15.22 32.37 15.17 32.34 15.11C32.3 15.06 32.27 15 32.24 14.94C32.21 14.89 32.18 14.83 32.15 14.77C32.13 14.7 32.11 14.64 32.09 14.58C32.07 14.52 32.05 14.45 32.04 14.39C32.03 14.33 32.02 14.26 32.01 14.2C32 14.13 32 14.07 32 14L32 12L16 12L16 14ZM12 12L12 8L8 8L8 12L10 12L12 12ZM12 36L8 36L8 40L12 40L12 38L12 36ZM36 36L36 40L40 40L40 36L38 36L36 36ZM36 12L40 12L40 8L36 8L36 10L36 12Z" fill-rule="evenodd"  fill="#000000" >
</path>
</svg>
