<svg xmlns="http://www.w3.org/2000/svg" xmlns:xlink="http://www.w3.org/1999/xlink" width="48" height="48" viewBox="0 0 48 48" fill="none">
<path d="M44 26C44.07 26 44.13 26 44.2 25.99C44.26 25.98 44.33 25.97 44.39 25.96C44.45 25.95 44.52 25.93 44.58 25.91C44.64 25.89 44.7 25.87 44.77 25.85C44.83 25.82 44.89 25.79 44.94 25.76C45 25.73 45.06 25.7 45.11 25.66C45.17 25.63 45.22 25.59 45.27 25.55C45.32 25.5 45.37 25.46 45.41 25.41C45.46 25.37 45.5 25.32 45.55 25.27C45.59 25.22 45.63 25.17 45.66 25.11C45.7 25.06 45.73 25 45.76 24.94C45.79 24.89 45.82 24.83 45.85 24.77C45.87 24.7 45.89 24.64 45.91 24.58C45.93 24.52 45.95 24.45 45.96 24.39C45.97 24.33 45.98 24.26 45.99 24.2C46 24.13 46 24.07 46 24C46 23.93 46 23.87 45.99 23.8C45.98 23.74 45.97 23.67 45.96 23.61C45.95 23.55 45.93 23.48 45.91 23.42C45.89 23.36 45.87 23.3 45.85 23.23C45.82 23.17 45.79 23.11 45.76 23.06C45.73 23 45.7 22.94 45.66 22.89C45.63 22.83 45.59 22.78 45.55 22.73C45.5 22.68 45.46 22.63 45.41 22.59C45.37 22.54 45.32 22.5 45.27 22.45C45.22 22.41 45.17 22.37 45.11 22.34C45.06 22.3 45 22.27 44.94 22.24C44.89 22.21 44.83 22.18 44.77 22.15C44.7 22.13 44.64 22.11 44.58 22.09C44.52 22.07 44.45 22.05 44.39 22.04C44.33 22.03 44.26 22.02 44.2 22.01C44.13 22 44.07 22 44 22L44 12C44 10.92 43.79 9.88 43.37 8.89C42.96 7.93 42.39 7.08 41.66 6.34C40.92 5.61 40.07 5.04 39.11 4.63C38.12 4.21 37.08 4 36 4L12 4C10.92 4 9.88 4.21 8.89 4.63C7.93 5.04 7.08 5.61 6.34 6.34C5.61 7.08 5.04 7.93 4.63 8.89C4.21 9.88 4 10.92 4 12L4 22C3.93 22 3.87 22 3.8 22.01C3.74 22.02 3.67 22.03 3.61 22.04C3.55 22.05 3.48 22.07 3.42 22.09C3.36 22.11 3.3 22.13 3.23 22.15C3.17 22.18 3.11 22.21 3.06 22.24C3 22.27 2.94 22.3 2.89 22.34C2.83 22.37 2.78 22.41 2.73 22.45C2.68 22.5 2.63 22.54 2.59 22.59C2.54 22.63 2.5 22.68 2.45 22.73C2.41 22.78 2.37 22.83 2.34 22.89C2.3 22.94 2.27 23 2.24 23.06C2.21 23.11 2.18 23.17 2.15 23.23C2.13 23.3 2.11 23.36 2.09 23.42C2.07 23.48 2.05 23.55 2.04 23.61C2.03 23.67 2.02 23.74 2.01 23.8C2 23.87 2 23.93 2 24C2 24.07 2 24.13 2.01 24.2C2.02 24.26 2.03 24.33 2.04 24.39C2.05 24.45 2.07 24.52 2.09 24.58C2.11 24.64 2.13 24.7 2.15 24.77C2.18 24.83 2.21 24.89 2.24 24.94C2.27 25 2.3 25.06 2.34 25.11C2.37 25.17 2.41 25.22 2.45 25.27C2.5 25.32 2.54 25.37 2.59 25.41C2.63 25.46 2.68 25.5 2.73 25.55C2.78 25.59 2.83 25.63 2.89 25.66C2.94 25.7 3 25.73 3.06 25.76C3.11 25.79 3.17 25.82 3.23 25.85C3.3 25.87 3.36 25.89 3.42 25.91C3.48 25.93 3.55 25.95 3.61 25.96C3.67 25.97 3.74 25.98 3.8 25.99C3.87 26 3.93 26 4 26L44 26ZM39.69 10.45C39.48 9.97 39.2 9.54 38.83 9.17C38.46 8.8 38.03 8.52 37.55 8.31C37.06 8.1 36.54 8 36 8L12 8C11.46 8 10.94 8.1 10.45 8.31C9.97 8.52 9.54 8.8 9.17 9.17C8.8 9.54 8.52 9.97 8.31 10.45C8.1 10.94 8 11.46 8 12L8 22L40 22L40 12C40 11.46 39.9 10.94 39.69 10.45ZM40 36C40 36.54 39.9 37.06 39.69 37.55C39.48 38.03 39.2 38.46 38.83 38.83C38.46 39.2 38.03 39.48 37.55 39.69C37.06 39.9 36.54 40 36 40L12 40C11.46 40 10.94 39.9 10.45 39.69C9.97 39.48 9.54 39.2 9.17 38.83C8.8 38.46 8.52 38.03 8.31 37.55C8.1 37.06 8 36.54 8 36L8 30C8 29.93 8 29.87 7.99 29.8C7.98 29.74 7.97 29.67 7.96 29.61C7.95 29.55 7.93 29.48 7.91 29.42C7.89 29.36 7.87 29.3 7.85 29.23C7.82 29.17 7.79 29.11 7.76 29.06C7.73 29 7.7 28.94 7.66 28.89C7.63 28.83 7.59 28.78 7.55 28.73C7.5 28.68 7.46 28.63 7.41 28.59C7.37 28.54 7.32 28.5 7.27 28.45C7.22 28.41 7.17 28.37 7.11 28.34C7.06 28.3 7 28.27 6.94 28.24C6.88 28.21 6.83 28.18 6.77 28.15C6.7 28.13 6.64 28.11 6.58 28.09C6.52 28.07 6.45 28.05 6.39 28.04C6.33 28.03 6.26 28.02 6.2 28.01C6.13 28 6.07 28 6 28C5.93 28 5.87 28 5.8 28.01C5.74 28.02 5.67 28.03 5.61 28.04C5.55 28.05 5.48 28.07 5.42 28.09C5.36 28.11 5.3 28.13 5.23 28.15C5.17 28.18 5.12 28.21 5.06 28.24C5 28.27 4.94 28.3 4.89 28.34C4.83 28.37 4.78 28.41 4.73 28.45C4.68 28.5 4.63 28.54 4.59 28.59C4.54 28.63 4.5 28.68 4.45 28.73C4.41 28.78 4.37 28.83 4.34 28.89C4.3 28.94 4.27 29 4.24 29.06C4.21 29.11 4.18 29.17 4.15 29.23C4.13 29.3 4.11 29.36 4.09 29.42C4.07 29.48 4.05 29.55 4.04 29.61C4.03 29.67 4.02 29.74 4.01 29.8C4 29.87 4 29.93 4 30L4 36C4 37.08 4.21 38.12 4.63 39.11C5.04 40.07 5.61 40.92 6.34 41.66C7.08 42.39 7.93 42.96 8.89 43.37C9.88 43.79 10.92 44 12 44L36 44C37.08 44 38.12 43.79 39.11 43.37C40.07 42.96 40.92 42.39 41.66 41.66C42.39 40.92 42.96 40.07 43.37 39.11C43.79 38.12 44 37.08 44 36L44 30C44 29.93 44 29.87 43.99 29.8C43.98 29.74 43.97 29.67 43.96 29.61C43.95 29.55 43.93 29.48 43.91 29.42C43.89 29.36 43.87 29.3 43.85 29.23C43.82 29.17 43.79 29.11 43.76 29.06C43.73 29 43.7 28.94 43.66 28.89C43.63 28.83 43.59 28.78 43.55 28.73C43.5 28.68 43.46 28.63 43.41 28.59C43.37 28.54 43.32 28.5 43.27 28.45C43.22 28.41 43.17 28.37 43.11 28.34C43.06 28.3 43 28.27 42.94 28.24C42.89 28.21 42.83 28.18 42.77 28.15C42.7 28.13 42.64 28.11 42.58 28.09C42.52 28.07 42.45 28.05 42.39 28.04C42.33 28.03 42.26 28.02 42.2 28.01C42.13 28 42.07 28 42 28C41.93 28 41.87 28 41.8 28.01C41.74 28.02 41.67 28.03 41.61 28.04C41.55 28.05 41.48 28.07 41.42 28.09C41.36 28.11 41.3 28.13 41.23 28.15C41.17 28.18 41.11 28.21 41.06 28.24C41 28.27 40.94 28.3 40.89 28.34C40.83 28.37 40.78 28.41 40.73 28.45C40.68 28.5 40.63 28.54 40.59 28.59C40.54 28.63 40.5 28.68 40.45 28.73C40.41 28.78 40.37 28.83 40.34 28.89C40.3 28.94 40.27 29 40.24 29.06C40.21 29.11 40.18 29.17 40.15 29.23C40.13 29.3 40.11 29.36 40.09 29.42C40.07 29.48 40.05 29.55 40.04 29.61C40.03 29.67 40.02 29.74 40.01 29.8C40 29.87 40 29.93 40 30L40 36Z" fill-rule="evenodd"  fill="#000000" >
</path>
</svg>
