<svg xmlns="http://www.w3.org/2000/svg" xmlns:xlink="http://www.w3.org/1999/xlink" width="48" height="48" viewBox="0 0 48 48" fill="none">
<path d="M23.42 2.09C23.36 2.11 23.3 2.13 23.23 2.15C23.17 2.18 23.11 2.21 23.06 2.24C23 2.27 22.94 2.3 22.89 2.34C22.83 2.37 22.78 2.41 22.73 2.45C22.68 2.5 22.63 2.54 22.59 2.59C22.54 2.63 22.5 2.68 22.45 2.73C22.41 2.78 22.37 2.83 22.34 2.89C22.3 2.94 22.27 3 22.24 3.06C22.21 3.11 22.18 3.17 22.15 3.23C22.13 3.3 22.11 3.36 22.09 3.42C22.07 3.48 22.05 3.55 22.04 3.61C22.03 3.67 22.02 3.74 22.01 3.8C22 3.87 22 3.93 22 4L12 4C10.92 4 9.88 4.21 8.89 4.63C7.93 5.04 7.08 5.61 6.34 6.34C5.61 7.08 5.04 7.93 4.63 8.89C4.21 9.88 4 10.92 4 12L4 36C4 37.08 4.21 38.12 4.63 39.11C5.04 40.07 5.61 40.92 6.34 41.66C7.08 42.39 7.93 42.96 8.89 43.37C9.88 43.79 10.92 44 12 44L22 44C22 44.07 22 44.13 22.01 44.2C22.02 44.26 22.03 44.33 22.04 44.39C22.05 44.45 22.07 44.52 22.09 44.58C22.11 44.64 22.13 44.7 22.15 44.77C22.18 44.83 22.21 44.89 22.24 44.94C22.27 45 22.3 45.06 22.34 45.11C22.37 45.17 22.41 45.22 22.45 45.27C22.5 45.32 22.54 45.37 22.59 45.41C22.63 45.46 22.68 45.5 22.73 45.55C22.78 45.59 22.83 45.63 22.89 45.66C22.94 45.7 23 45.73 23.06 45.76C23.11 45.79 23.17 45.82 23.23 45.85C23.3 45.87 23.36 45.89 23.42 45.91C23.48 45.93 23.55 45.95 23.61 45.96C23.67 45.97 23.74 45.98 23.8 45.99C23.87 46 23.93 46 24 46C24.07 46 24.13 46 24.2 45.99C24.26 45.98 24.33 45.97 24.39 45.96C24.45 45.95 24.52 45.93 24.58 45.91C24.64 45.89 24.7 45.87 24.77 45.85C24.83 45.82 24.89 45.79 24.94 45.76C25 45.73 25.06 45.7 25.11 45.66C25.17 45.63 25.22 45.59 25.27 45.55C25.32 45.5 25.37 45.46 25.41 45.41C25.46 45.37 25.5 45.32 25.55 45.27C25.59 45.22 25.63 45.17 25.66 45.11C25.7 45.06 25.73 45 25.76 44.94C25.79 44.89 25.82 44.83 25.85 44.77C25.87 44.7 25.89 44.64 25.91 44.58C25.93 44.52 25.95 44.45 25.96 44.39C25.97 44.33 25.98 44.26 25.99 44.2C26 44.13 26 44.07 26 44L26 4C26 3.93 26 3.87 25.99 3.8C25.98 3.74 25.97 3.67 25.96 3.61C25.95 3.55 25.93 3.48 25.91 3.42C25.89 3.36 25.87 3.3 25.85 3.23C25.82 3.17 25.79 3.11 25.76 3.06C25.73 3 25.7 2.94 25.66 2.89C25.63 2.83 25.59 2.78 25.55 2.73C25.5 2.68 25.46 2.63 25.41 2.59C25.37 2.54 25.32 2.5 25.27 2.45C25.22 2.41 25.17 2.37 25.11 2.34C25.06 2.3 25 2.27 24.94 2.24C24.89 2.21 24.83 2.18 24.77 2.15C24.7 2.13 24.64 2.11 24.58 2.09C24.52 2.07 24.45 2.05 24.39 2.04C24.33 2.03 24.26 2.02 24.2 2.01C24.13 2 24.07 2 24 2C23.93 2 23.87 2 23.8 2.01C23.74 2.02 23.67 2.03 23.61 2.04C23.55 2.05 23.48 2.07 23.42 2.09ZM36 8C36.54 8 37.06 8.1 37.55 8.31C38.03 8.52 38.46 8.8 38.83 9.17C39.2 9.54 39.48 9.97 39.69 10.45C39.9 10.94 40 11.46 40 12L40 36C40 36.54 39.9 37.06 39.69 37.55C39.48 38.03 39.2 38.46 38.83 38.83C38.46 39.2 38.03 39.48 37.55 39.69C37.06 39.9 36.54 40 36 40L30 40C29.93 40 29.87 40 29.8 40.01C29.74 40.02 29.67 40.03 29.61 40.04C29.55 40.05 29.48 40.07 29.42 40.09C29.36 40.11 29.3 40.13 29.23 40.15C29.17 40.18 29.11 40.21 29.06 40.24C29 40.27 28.94 40.3 28.89 40.34C28.83 40.37 28.78 40.41 28.73 40.45C28.68 40.5 28.63 40.54 28.59 40.59C28.54 40.63 28.5 40.68 28.45 40.73C28.41 40.78 28.37 40.83 28.34 40.89C28.3 40.94 28.27 41 28.24 41.06C28.21 41.12 28.18 41.17 28.15 41.23C28.13 41.3 28.11 41.36 28.09 41.42C28.07 41.48 28.05 41.55 28.04 41.61C28.03 41.67 28.02 41.74 28.01 41.8C28 41.87 28 41.93 28 42C28 42.07 28 42.13 28.01 42.2C28.02 42.26 28.03 42.33 28.04 42.39C28.05 42.45 28.07 42.52 28.09 42.58C28.11 42.64 28.13 42.7 28.15 42.77C28.18 42.83 28.21 42.88 28.24 42.94C28.27 43 28.3 43.06 28.34 43.11C28.37 43.17 28.41 43.22 28.45 43.27C28.5 43.32 28.54 43.37 28.59 43.41C28.63 43.46 28.68 43.5 28.73 43.55C28.78 43.59 28.83 43.63 28.89 43.66C28.94 43.7 29 43.73 29.06 43.76C29.11 43.79 29.17 43.82 29.23 43.85C29.3 43.87 29.36 43.89 29.42 43.91C29.48 43.93 29.55 43.95 29.61 43.96C29.67 43.97 29.74 43.98 29.8 43.99C29.87 44 29.93 44 30 44L36 44C37.08 44 38.12 43.79 39.11 43.37C40.07 42.96 40.92 42.39 41.66 41.66C42.39 40.92 42.96 40.07 43.37 39.11C43.79 38.12 44 37.08 44 36L44 12C44 10.92 43.79 9.88 43.37 8.89C42.96 7.93 42.39 7.08 41.66 6.34C40.92 5.61 40.07 5.04 39.11 4.63C38.12 4.21 37.08 4 36 4L30 4C29.93 4 29.87 4 29.8 4.01C29.74 4.02 29.67 4.03 29.61 4.04C29.55 4.05 29.48 4.07 29.42 4.09C29.36 4.11 29.3 4.13 29.23 4.15C29.17 4.18 29.11 4.21 29.06 4.24C29 4.27 28.94 4.3 28.89 4.34C28.83 4.37 28.78 4.41 28.73 4.45C28.68 4.5 28.63 4.54 28.59 4.59C28.54 4.63 28.5 4.68 28.45 4.73C28.41 4.78 28.37 4.83 28.34 4.89C28.3 4.94 28.27 5 28.24 5.06C28.21 5.11 28.18 5.17 28.15 5.23C28.13 5.3 28.11 5.36 28.09 5.42C28.07 5.48 28.05 5.55 28.04 5.61C28.03 5.67 28.02 5.74 28.01 5.8C28 5.87 28 5.93 28 6C28 6.07 28 6.13 28.01 6.2C28.02 6.26 28.03 6.33 28.04 6.39C28.05 6.45 28.07 6.52 28.09 6.58C28.11 6.64 28.13 6.7 28.15 6.77C28.18 6.83 28.21 6.89 28.24 6.94C28.27 7 28.3 7.06 28.34 7.11C28.37 7.17 28.41 7.22 28.45 7.27C28.5 7.32 28.54 7.37 28.59 7.41C28.63 7.46 28.68 7.5 28.73 7.55C28.78 7.59 28.83 7.63 28.89 7.66C28.94 7.7 29 7.73 29.06 7.76C29.11 7.79 29.17 7.82 29.23 7.85C29.3 7.87 29.36 7.89 29.42 7.91C29.48 7.93 29.55 7.95 29.61 7.96C29.67 7.97 29.74 7.98 29.8 7.99C29.87 8 29.93 8 30 8L36 8ZM10.45 8.31C9.97 8.52 9.54 8.8 9.17 9.17C8.8 9.54 8.52 9.97 8.31 10.45C8.1 10.94 8 11.46 8 12L8 36C8 36.54 8.1 37.06 8.31 37.55C8.52 38.03 8.8 38.46 9.17 38.83C9.54 39.2 9.97 39.48 10.45 39.69C10.94 39.9 11.46 40 12 40L22 40L22 8L12 8C11.46 8 10.94 8.1 10.45 8.31Z" fill-rule="evenodd"  fill="#000000" >
</path>
</svg>
