<svg xmlns="http://www.w3.org/2000/svg" xmlns:xlink="http://www.w3.org/1999/xlink" width="48" height="48" viewBox="0 0 48 48" fill="none">
<path d="M8.98148 41.0001L8.79801 41.0001L11.877 32L18.4183 32L18.892 41.0001L18.0185 41.0001L18 41C16.8954 41 16 41.8954 16 43C16 44.1046 16.8954 45 18 45L18 45.0001L23 45.0001L23 45C24.1046 45 25 44.1046 25 43C25 41.8954 24.1046 41 23 41L22.9815 41.0001L22.8975 41.0001L20.9972 4.89495C20.8816 2.69778 17.8199 2.27093 17.1077 4.35269L9.01782 28L9 28L9 28.0521L4.57041 41.0001L3.01852 41.0001L3 41C1.89543 41 1 41.8954 1 43C1 44.1046 1.89543 45 3 45L3 45.0001L9 45.0001L9 45C10.1046 45 11 44.1046 11 43C11 41.8954 10.1046 41 9 41L8.98148 41.0001ZM13.2454 28L18.2078 28L17.5461 15.4287L13.2454 28ZM27.5861 23.0855L27.5871 23.0845C28.5961 22.0761 29.7422 21.3225 31.0254 20.8235C32.4369 20.2745 34.0951 20 36 20C37.0404 20 38.0349 20.1778 38.9835 20.5336C40.0539 20.935 40.9891 21.5357 41.7892 22.3358C42.6621 23.2086 43.3276 24.2751 43.7858 25.5353C44.2619 26.8446 44.5 28.3328 44.5 30L44.5 40.7505C44.534 40.7409 44.564 40.7302 44.5901 40.7185C44.8631 40.5788 45.1723 40.5 45.5 40.5C46.6046 40.5 47.5 41.3954 47.5 42.5C47.5 43.3043 47.0253 43.9976 46.3408 44.3152C45.903 44.5267 45.4201 44.6701 44.8922 44.7455C44.3137 44.8281 43.7605 44.8166 43.2328 44.7111C42.5904 44.5826 42.046 44.3274 41.5996 43.9455C41.2109 44.1055 40.798 44.2464 40.3608 44.3683C38.8507 44.7894 36.9937 45 34.79 45C31.904 45 29.6098 44.3689 27.9074 43.1066C26.9558 42.401 26.2323 41.5264 25.7368 40.4827C25.2456 39.4481 25 38.2872 25 37C25 35.4582 25.3506 34.0638 26.0518 32.8166C26.6828 31.6944 27.5665 30.7462 28.7027 29.9721C29.6806 29.3059 30.7953 28.8022 32.047 28.461C33.1746 28.1536 34.3256 28 35.5 28C37.4175 28 39.0644 28.2628 40.4405 28.7885C40.3683 28.0911 40.2304 27.4623 40.0267 26.9022C39.7706 26.1981 39.4153 25.6187 38.9608 25.1642C38.5692 24.7726 38.1086 24.4775 37.579 24.2789C37.0832 24.093 36.5568 24 36 24C34.5955 24 33.4205 24.1838 32.4752 24.5515C31.7145 24.8473 31.0278 25.3012 30.4153 25.9131L30.4139 25.9145C30.052 26.2763 29.5521 26.5 29 26.5C27.8954 26.5 27 25.6046 27 24.5C27 23.9475 27.224 23.4474 27.5861 23.0855ZM40.5 33.3695C40.3018 33.2211 40.1261 33.0989 39.973 33.0031C39.672 32.8147 39.3557 32.6568 39.0241 32.5293C38.1061 32.1764 36.9314 32 35.5 32C34.6825 32 33.8822 32.1067 33.0989 32.3202C32.2783 32.5439 31.5636 32.8631 30.9548 33.2778C29.6516 34.1657 29 35.4065 29 37C29 37.6863 29.1168 38.2754 29.3503 38.7673C29.5601 39.2092 29.8732 39.5846 30.2898 39.8934C30.7537 40.2373 31.3432 40.5029 32.0584 40.6902C32.8472 40.8967 33.7578 41 34.79 41C36.6289 41 38.1276 40.8384 39.2863 40.5153C39.6638 40.41 40.0037 40.2871 40.306 40.1464C40.3659 40.1185 40.4306 40.0865 40.5 40.0503L40.5 33.3695Z" fill-rule="evenodd"  fill="#000000" >
</path>
</svg>
