<svg xmlns="http://www.w3.org/2000/svg" xmlns:xlink="http://www.w3.org/1999/xlink" width="48" height="48" viewBox="0 0 48 48" fill="none">
<path d="M13.42 4.09C13.36 4.11 13.3 4.13 13.23 4.15C13.17 4.18 13.11 4.21 13.06 4.24C13 4.27 12.94 4.3 12.89 4.34C12.83 4.37 12.78 4.41 12.73 4.45C12.68 4.5 12.63 4.54 12.59 4.59C12.54 4.63 12.5 4.68 12.45 4.73C12.41 4.78 12.37 4.83 12.34 4.89C12.3 4.94 12.27 5 12.24 5.06C12.21 5.11 12.18 5.17 12.15 5.23C12.13 5.3 12.11 5.36 12.09 5.42C12.07 5.48 12.05 5.55 12.04 5.61C12.03 5.67 12.02 5.74 12.01 5.8C12 5.87 12 5.93 12 6L12 12L6 12C5.93 12 5.87 12 5.8 12.01C5.74 12.02 5.67 12.03 5.61 12.04C5.55 12.05 5.48 12.07 5.42 12.09C5.36 12.11 5.3 12.13 5.23 12.15C5.17 12.18 5.11 12.21 5.06 12.24C5 12.27 4.94 12.3 4.89 12.34C4.83 12.37 4.78 12.41 4.73 12.45C4.68 12.5 4.63 12.54 4.59 12.59C4.54 12.63 4.5 12.68 4.45 12.73C4.41 12.78 4.37 12.83 4.34 12.89C4.3 12.94 4.27 13 4.24 13.06C4.21 13.11 4.18 13.17 4.15 13.23C4.13 13.3 4.11 13.36 4.09 13.42C4.07 13.48 4.05 13.55 4.04 13.61C4.03 13.67 4.02 13.74 4.01 13.8C4 13.87 4 13.93 4 14C4 14.07 4 14.13 4.01 14.2C4.02 14.26 4.03 14.33 4.04 14.39C4.05 14.45 4.07 14.52 4.09 14.58C4.11 14.64 4.13 14.7 4.15 14.77C4.18 14.83 4.21 14.89 4.24 14.94C4.27 15 4.3 15.06 4.34 15.11C4.37 15.17 4.41 15.22 4.45 15.27C4.5 15.32 4.54 15.37 4.59 15.41C4.63 15.46 4.68 15.5 4.73 15.55C4.78 15.59 4.83 15.63 4.89 15.66C4.94 15.7 5 15.73 5.06 15.76C5.11 15.79 5.17 15.82 5.23 15.85C5.3 15.87 5.36 15.89 5.42 15.91C5.48 15.93 5.55 15.95 5.61 15.96C5.67 15.97 5.74 15.98 5.8 15.99C5.87 16 5.93 16 6 16L12 16L12 32L6 32C5.93 32 5.87 32 5.8 32.01C5.74 32.02 5.67 32.03 5.61 32.04C5.55 32.05 5.48 32.07 5.42 32.09C5.36 32.11 5.3 32.13 5.23 32.15C5.17 32.18 5.11 32.21 5.06 32.24C5 32.27 4.94 32.3 4.89 32.34C4.83 32.37 4.78 32.41 4.73 32.45C4.68 32.5 4.63 32.54 4.59 32.59C4.54 32.63 4.5 32.68 4.45 32.73C4.41 32.78 4.37 32.83 4.34 32.89C4.3 32.94 4.27 33 4.24 33.06C4.21 33.11 4.18 33.17 4.15 33.23C4.13 33.3 4.11 33.36 4.09 33.42C4.07 33.48 4.05 33.55 4.04 33.61C4.03 33.67 4.02 33.74 4.01 33.8C4 33.87 4 33.93 4 34C4 34.07 4 34.13 4.01 34.2C4.02 34.26 4.03 34.33 4.04 34.39C4.05 34.45 4.07 34.52 4.09 34.58C4.11 34.64 4.13 34.7 4.15 34.77C4.18 34.83 4.21 34.89 4.24 34.94C4.27 35 4.3 35.06 4.34 35.11C4.37 35.17 4.41 35.22 4.45 35.27C4.5 35.32 4.54 35.37 4.59 35.41C4.63 35.46 4.68 35.5 4.73 35.55C4.78 35.59 4.83 35.63 4.89 35.66C4.94 35.7 5 35.73 5.06 35.76C5.11 35.79 5.17 35.82 5.23 35.85C5.3 35.87 5.36 35.89 5.42 35.91C5.48 35.93 5.55 35.95 5.61 35.96C5.67 35.97 5.74 35.98 5.8 35.99C5.87 36 5.93 36 6 36L12 36L12 42C12 42.07 12 42.13 12.01 42.2C12.02 42.26 12.03 42.33 12.04 42.39C12.05 42.45 12.07 42.52 12.09 42.58C12.11 42.64 12.13 42.7 12.15 42.77C12.18 42.83 12.21 42.88 12.24 42.94C12.27 43 12.3 43.06 12.34 43.11C12.37 43.17 12.41 43.22 12.45 43.27C12.5 43.32 12.54 43.37 12.59 43.41C12.63 43.46 12.68 43.5 12.73 43.55C12.78 43.59 12.83 43.63 12.89 43.66C12.94 43.7 13 43.73 13.06 43.76C13.11 43.79 13.17 43.82 13.23 43.85C13.3 43.87 13.36 43.89 13.42 43.91C13.48 43.93 13.55 43.95 13.61 43.96C13.67 43.97 13.74 43.98 13.8 43.99C13.87 44 13.93 44 14 44C14.07 44 14.13 44 14.2 43.99C14.26 43.98 14.33 43.97 14.39 43.96C14.45 43.95 14.52 43.93 14.58 43.91C14.64 43.89 14.7 43.87 14.77 43.85C14.83 43.82 14.89 43.79 14.94 43.76C15 43.73 15.06 43.7 15.11 43.66C15.17 43.63 15.22 43.59 15.27 43.55C15.32 43.5 15.37 43.46 15.41 43.41C15.46 43.37 15.5 43.32 15.55 43.27C15.59 43.22 15.63 43.17 15.66 43.11C15.7 43.06 15.73 43 15.76 42.94C15.79 42.88 15.82 42.83 15.85 42.77C15.87 42.7 15.89 42.64 15.91 42.58C15.93 42.52 15.95 42.45 15.96 42.39C15.97 42.33 15.98 42.26 15.99 42.2C16 42.13 16 42.07 16 42L16 36L32 36L32 42C32 42.07 32 42.13 32.01 42.2C32.02 42.26 32.03 42.33 32.04 42.39C32.05 42.45 32.07 42.52 32.09 42.58C32.11 42.64 32.13 42.7 32.15 42.77C32.18 42.83 32.21 42.88 32.24 42.94C32.27 43 32.3 43.06 32.34 43.11C32.37 43.17 32.41 43.22 32.45 43.27C32.5 43.32 32.54 43.37 32.59 43.41C32.63 43.46 32.68 43.5 32.73 43.55C32.78 43.59 32.83 43.63 32.89 43.66C32.94 43.7 33 43.73 33.06 43.76C33.11 43.79 33.17 43.82 33.23 43.85C33.3 43.87 33.36 43.89 33.42 43.91C33.48 43.93 33.55 43.95 33.61 43.96C33.67 43.97 33.74 43.98 33.8 43.99C33.87 44 33.93 44 34 44C34.07 44 34.13 44 34.2 43.99C34.26 43.98 34.33 43.97 34.39 43.96C34.45 43.95 34.52 43.93 34.58 43.91C34.64 43.89 34.7 43.87 34.77 43.85C34.83 43.82 34.89 43.79 34.94 43.76C35 43.73 35.06 43.7 35.11 43.66C35.17 43.63 35.22 43.59 35.27 43.55C35.32 43.5 35.37 43.46 35.41 43.41C35.46 43.37 35.5 43.32 35.55 43.27C35.59 43.22 35.63 43.17 35.66 43.11C35.7 43.06 35.73 43 35.76 42.94C35.79 42.88 35.82 42.83 35.85 42.77C35.87 42.7 35.89 42.64 35.91 42.58C35.93 42.52 35.95 42.45 35.96 42.39C35.97 42.33 35.98 42.26 35.99 42.2C36 42.13 36 42.07 36 42L36 36L42 36C42.07 36 42.13 36 42.2 35.99C42.26 35.98 42.33 35.97 42.39 35.96C42.45 35.95 42.52 35.93 42.58 35.91C42.64 35.89 42.7 35.87 42.77 35.85C42.83 35.82 42.88 35.79 42.94 35.76C43 35.73 43.06 35.7 43.11 35.66C43.17 35.63 43.22 35.59 43.27 35.55C43.32 35.5 43.37 35.46 43.41 35.41C43.46 35.37 43.5 35.32 43.55 35.27C43.59 35.22 43.63 35.17 43.66 35.11C43.7 35.06 43.73 35 43.76 34.94C43.79 34.89 43.82 34.83 43.85 34.77C43.87 34.7 43.89 34.64 43.91 34.58C43.93 34.52 43.95 34.45 43.96 34.39C43.97 34.33 43.98 34.26 43.99 34.2C44 34.13 44 34.07 44 34C44 33.93 44 33.87 43.99 33.8C43.98 33.74 43.97 33.67 43.96 33.61C43.95 33.55 43.93 33.48 43.91 33.42C43.89 33.36 43.87 33.3 43.85 33.23C43.82 33.17 43.79 33.11 43.76 33.06C43.73 33 43.7 32.94 43.66 32.89C43.63 32.83 43.59 32.78 43.55 32.73C43.5 32.68 43.46 32.63 43.41 32.59C43.37 32.54 43.32 32.5 43.27 32.45C43.22 32.41 43.17 32.37 43.11 32.34C43.06 32.3 43 32.27 42.94 32.24C42.88 32.21 42.83 32.18 42.77 32.15C42.7 32.13 42.64 32.11 42.58 32.09C42.52 32.07 42.45 32.05 42.39 32.04C42.33 32.03 42.26 32.02 42.2 32.01C42.13 32 42.07 32 42 32L36 32L36 16L42 16C42.07 16 42.13 16 42.2 15.99C42.26 15.98 42.33 15.97 42.39 15.96C42.45 15.95 42.52 15.93 42.58 15.91C42.64 15.89 42.7 15.87 42.77 15.85C42.83 15.82 42.88 15.79 42.94 15.76C43 15.73 43.06 15.7 43.11 15.66C43.17 15.63 43.22 15.59 43.27 15.55C43.32 15.5 43.37 15.46 43.41 15.41C43.46 15.37 43.5 15.32 43.55 15.27C43.59 15.22 43.63 15.17 43.66 15.11C43.7 15.06 43.73 15 43.76 14.94C43.79 14.89 43.82 14.83 43.85 14.77C43.87 14.7 43.89 14.64 43.91 14.58C43.93 14.52 43.95 14.45 43.96 14.39C43.97 14.33 43.98 14.26 43.99 14.2C44 14.13 44 14.07 44 14C44 13.93 44 13.87 43.99 13.8C43.98 13.74 43.97 13.67 43.96 13.61C43.95 13.55 43.93 13.48 43.91 13.42C43.89 13.36 43.87 13.3 43.85 13.23C43.82 13.17 43.79 13.11 43.76 13.06C43.73 13 43.7 12.94 43.66 12.89C43.63 12.83 43.59 12.78 43.55 12.73C43.5 12.68 43.46 12.63 43.41 12.59C43.37 12.54 43.32 12.5 43.27 12.45C43.22 12.41 43.17 12.37 43.11 12.34C43.06 12.3 43 12.27 42.94 12.24C42.88 12.21 42.83 12.18 42.77 12.15C42.7 12.13 42.64 12.11 42.58 12.09C42.52 12.07 42.45 12.05 42.39 12.04C42.33 12.03 42.26 12.02 42.2 12.01C42.13 12 42.07 12 42 12L36 12L36 6C36 5.93 36 5.87 35.99 5.8C35.98 5.74 35.97 5.67 35.96 5.61C35.95 5.55 35.93 5.48 35.91 5.42C35.89 5.36 35.87 5.3 35.85 5.23C35.82 5.17 35.79 5.11 35.76 5.06C35.73 5 35.7 4.94 35.66 4.89C35.63 4.83 35.59 4.78 35.55 4.73C35.5 4.68 35.46 4.63 35.41 4.59C35.37 4.54 35.32 4.5 35.27 4.45C35.22 4.41 35.17 4.37 35.11 4.34C35.06 4.3 35 4.27 34.94 4.24C34.89 4.21 34.83 4.18 34.77 4.15C34.7 4.13 34.64 4.11 34.58 4.09C34.52 4.07 34.45 4.05 34.39 4.04C34.33 4.03 34.26 4.02 34.2 4.01C34.13 4 34.07 4 34 4C33.93 4 33.87 4 33.8 4.01C33.74 4.02 33.67 4.03 33.61 4.04C33.55 4.05 33.48 4.07 33.42 4.09C33.36 4.11 33.3 4.13 33.23 4.15C33.17 4.18 33.11 4.21 33.06 4.24C33 4.27 32.94 4.3 32.89 4.34C32.83 4.37 32.78 4.41 32.73 4.45C32.68 4.5 32.63 4.54 32.59 4.59C32.54 4.63 32.5 4.68 32.45 4.73C32.41 4.78 32.37 4.83 32.34 4.89C32.3 4.94 32.27 5 32.24 5.06C32.21 5.11 32.18 5.17 32.15 5.23C32.13 5.3 32.11 5.36 32.09 5.42C32.07 5.48 32.05 5.55 32.04 5.61C32.03 5.67 32.02 5.74 32.01 5.8C32 5.87 32 5.93 32 6L32 12L16 12L16 6C16 5.93 16 5.87 15.99 5.8C15.98 5.74 15.97 5.67 15.96 5.61C15.95 5.55 15.93 5.48 15.91 5.42C15.89 5.36 15.87 5.3 15.85 5.23C15.82 5.17 15.79 5.11 15.76 5.06C15.73 5 15.7 4.94 15.66 4.89C15.63 4.83 15.59 4.78 15.55 4.73C15.5 4.68 15.46 4.63 15.41 4.59C15.37 4.54 15.32 4.5 15.27 4.45C15.22 4.41 15.17 4.37 15.11 4.34C15.06 4.3 15 4.27 14.94 4.24C14.89 4.21 14.83 4.18 14.77 4.15C14.7 4.13 14.64 4.11 14.58 4.09C14.52 4.07 14.45 4.05 14.39 4.04C14.33 4.03 14.26 4.02 14.2 4.01C14.13 4 14.07 4 14 4C13.93 4 13.87 4 13.8 4.01C13.74 4.02 13.67 4.03 13.61 4.04C13.55 4.05 13.48 4.07 13.42 4.09ZM16 32L32 32L32 16L16 16L16 32Z" fill-rule="evenodd"  fill="#000000" >
</path>
</svg>
