<svg xmlns="http://www.w3.org/2000/svg" xmlns:xlink="http://www.w3.org/1999/xlink" width="48" height="48" viewBox="0 0 48 48" fill="none">
<path d="M41 15.5L41 11C41 10.46 40.9 9.94 40.69 9.45C40.48 8.97 40.2 8.54 39.83 8.17C39.46 7.8 39.03 7.52 38.55 7.31C38.06 7.1 37.54 7 37 7L32.5 7L32.5 15.5L41 15.5ZM9.45 7.31C8.97 7.52 8.54 7.8 8.17 8.17C7.8 8.54 7.52 8.97 7.31 9.45C7.1 9.94 7 10.46 7 11L7 15.5L15.5 15.5L15.5 7L11 7C10.46 7 9.94 7.1 9.45 7.31ZM44.37 40.11C44.79 39.12 45 38.08 45 37L45 11C45 9.92 44.79 8.88 44.37 7.89C43.96 6.93 43.39 6.08 42.66 5.34C41.92 4.61 41.07 4.04 40.11 3.63C39.12 3.21 38.08 3 37 3L11 3C9.92 3 8.88 3.21 7.89 3.63C6.93 4.04 6.08 4.61 5.34 5.34C4.61 6.08 4.04 6.93 3.63 7.89C3.21 8.88 3 9.92 3 11L3 37C3 38.08 3.21 39.12 3.63 40.11C4.04 41.07 4.61 41.92 5.34 42.66C6.08 43.39 6.93 43.96 7.89 44.37C8.88 44.79 9.92 45 11 45L37 45C38.08 45 39.12 44.79 40.11 44.37C41.07 43.96 41.92 43.39 42.66 42.66C43.39 41.92 43.96 41.07 44.37 40.11ZM19.5 32.5L19.5 41L28.5 41L28.5 32.5L19.5 32.5ZM9.45 40.69C9.94 40.9 10.46 41 11 41L15.5 41L15.5 32.5L7 32.5L7 37C7 37.54 7.1 38.06 7.31 38.55C7.52 39.03 7.8 39.46 8.17 39.83C8.54 40.2 8.97 40.48 9.45 40.69ZM41 19.5L32.5 19.5L32.5 28.5L41 28.5L41 19.5ZM32.5 41L37 41C37.54 41 38.06 40.9 38.55 40.69C39.03 40.48 39.46 40.2 39.83 39.83C40.2 39.46 40.48 39.03 40.69 38.55C40.9 38.06 41 37.54 41 37L41 32.5L32.5 32.5L32.5 41ZM15.5 28.5L15.5 19.5L7 19.5L7 28.5L15.5 28.5ZM19.5 19.5L19.5 28.5L28.5 28.5L28.5 19.5L19.5 19.5ZM19.5 7L19.5 15.5L28.5 15.5L28.5 7L19.5 7Z" fill-rule="evenodd"  fill="#000000" >
</path>
</svg>
