<svg xmlns="http://www.w3.org/2000/svg" xmlns:xlink="http://www.w3.org/1999/xlink" width="48" height="48" viewBox="0 0 48 48" fill="none">
<path d="M45.59 11.8987C45.57 11.5087 45.47 11.1487 45.3 10.7987C45.13 10.4287 44.89 10.1087 44.58 9.8387L37.09 3.1787C36.79 2.9087 36.45 2.7087 36.07 2.5787C35.69 2.4487 35.29 2.3987 34.88 2.4287C34.49 2.4587 34.12 2.5587 33.76 2.7287C33.42 2.8987 33.11 3.1287 32.85 3.4287L32.83 3.4487L23.74 13.9087C23.51 14.1687 23.33 14.4687 23.2 14.7987C23.07 15.1487 23 15.4987 23 15.8687L23 22.9987C23 23.4087 23.08 23.7987 23.24 24.1687C23.39 24.5287 23.6 24.8487 23.88 25.1187C24.16 25.3987 24.47 25.6087 24.83 25.7587C25.2 25.9187 25.59 25.9987 26 25.9987L33.05 25.9987C33.48 25.9987 33.89 25.9087 34.28 25.7387C34.68 25.5587 35.03 25.2987 35.31 24.9687L44.85 14.0687C45.12 13.7687 45.32 13.4187 45.45 13.0287C45.57 12.6687 45.61 12.2887 45.59 11.8987ZM4.49 30.9887C4.83 31.7887 5.3 32.4887 5.91 33.0987C6.51 33.7087 7.21 34.1687 8.01 34.5087C8.81 34.8387 9.64 34.9987 10.5 34.9987L37.5 34.9987C37.84 34.9987 38.17 35.0687 38.48 35.1987C38.77 35.3187 39.04 35.4987 39.27 35.7287C39.5 35.9587 39.68 36.2287 39.8 36.5187C39.93 36.8287 40 37.1587 40 37.4987C40 37.8387 39.93 38.1687 39.8 38.4787C39.68 38.7687 39.5 39.0387 39.27 39.2687C39.04 39.4987 38.77 39.6787 38.48 39.7987C38.17 39.9287 37.84 39.9987 37.5 39.9987L19.67 39.9987C19.6 39.9987 19.54 39.9987 19.47 40.0087C19.41 40.0187 19.34 40.0287 19.28 40.0387C19.22 40.0487 19.15 40.0687 19.09 40.0887C19.03 40.1087 18.97 40.1287 18.9 40.1487C18.84 40.1787 18.79 40.2087 18.73 40.2387C18.67 40.2687 18.61 40.2987 18.56 40.3387C18.5 40.3687 18.45 40.4087 18.4 40.4487C18.35 40.4987 18.3 40.5387 18.26 40.5887C18.21 40.6287 18.17 40.6787 18.12 40.7287C18.08 40.7787 18.04 40.8287 18.01 40.8887C17.97 40.9387 17.94 40.9987 17.91 41.0587C17.88 41.1187 17.85 41.1687 17.82 41.2287C17.8 41.2987 17.78 41.3587 17.76 41.4187C17.74 41.4787 17.72 41.5487 17.71 41.6087C17.7 41.6687 17.69 41.7387 17.68 41.7987C17.67 41.8687 17.67 41.9287 17.67 41.9987C17.67 42.0687 17.67 42.1287 17.68 42.1987C17.69 42.2587 17.7 42.3287 17.71 42.3887C17.72 42.4487 17.74 42.5187 17.76 42.5787C17.78 42.6387 17.8 42.6987 17.82 42.7687C17.85 42.8287 17.88 42.8787 17.91 42.9387C17.94 42.9987 17.97 43.0587 18.01 43.1087C18.04 43.1687 18.08 43.2187 18.12 43.2687C18.17 43.3187 18.21 43.3687 18.26 43.4087C18.3 43.4587 18.35 43.4987 18.4 43.5487C18.45 43.5887 18.5 43.6287 18.56 43.6587C18.61 43.6987 18.67 43.7287 18.73 43.7587C18.79 43.7887 18.84 43.8187 18.9 43.8487C18.97 43.8687 19.03 43.8887 19.09 43.9087C19.15 43.9287 19.22 43.9487 19.28 43.9587C19.34 43.9687 19.41 43.9787 19.47 43.9887C19.54 43.9987 19.6 43.9987 19.67 43.9987L37.5 43.9987C38.38 43.9987 39.23 43.8287 40.03 43.4887C40.81 43.1587 41.5 42.6987 42.1 42.0987C42.7 41.4987 43.16 40.8087 43.49 40.0287C43.83 39.2287 44 38.3787 44 37.4987C44 36.6187 43.83 35.7687 43.49 34.9687C43.16 34.1887 42.7 33.4987 42.1 32.8987C41.5 32.2987 40.81 31.8387 40.03 31.5087C39.23 31.1687 38.38 30.9987 37.5 30.9987L10.5 30.9987C10.17 30.9987 9.85 30.9387 9.54 30.8087C9.24 30.6787 8.97 30.4987 8.73 30.2587C8.49 30.0287 8.32 29.7587 8.19 29.4587C8.06 29.1487 8 28.8287 8 28.4987C8 28.1687 8.06 27.8487 8.19 27.5387C8.32 27.2387 8.5 26.9687 8.74 26.7287C8.97 26.4887 9.24 26.3187 9.54 26.1887C9.85 26.0587 10.17 25.9987 10.5 25.9987L16.94 25.9987C17.07 25.9987 17.2 25.9887 17.33 25.9587C17.46 25.9387 17.58 25.8987 17.7 25.8487C17.82 25.7987 17.94 25.7387 18.05 25.6587C18.16 25.5887 18.26 25.5087 18.35 25.4087C18.44 25.3187 18.53 25.2187 18.6 25.1087C18.67 24.9987 18.73 24.8887 18.78 24.7687C18.83 24.6387 18.87 24.5187 18.9 24.3887C18.92 24.2587 18.94 24.1287 18.94 23.9987C18.94 23.9287 18.93 23.8687 18.93 23.7987C18.92 23.7387 18.91 23.6687 18.9 23.6087C18.89 23.5487 18.87 23.4787 18.85 23.4187C18.83 23.3587 18.81 23.2987 18.78 23.2387C18.76 23.1687 18.73 23.1187 18.7 23.0587C18.67 22.9987 18.64 22.9387 18.6 22.8887C18.56 22.8387 18.53 22.7787 18.48 22.7287C18.44 22.6787 18.4 22.6287 18.35 22.5887C18.31 22.5387 18.26 22.4987 18.21 22.4587C18.16 22.4087 18.1 22.3687 18.05 22.3387C18 22.2987 17.94 22.2687 17.88 22.2387L17.7 22.1487L17.52 22.0887C17.46 22.0687 17.39 22.0487 17.33 22.0387C17.27 22.0287 17.2 22.0187 17.14 22.0087C17.07 21.9987 17.01 21.9987 16.94 21.9987L10.5 21.9987C9.64 21.9987 8.81 22.1587 8.01 22.4887C7.21 22.8287 6.51 23.2987 5.9 23.9087C5.29 24.5087 4.83 25.2087 4.49 26.0087C4.16 26.8087 4 27.6387 4 28.4987C4 29.3587 4.16 30.1887 4.49 30.9887ZM27 21.9987L32.6 21.9987L41.19 12.1787L35.19 6.8387L27 16.2587L27 21.9987Z" fill-rule="evenodd"  fill="#000000" >
</path>
</svg>
