<svg xmlns="http://www.w3.org/2000/svg" xmlns:xlink="http://www.w3.org/1999/xlink" width="48" height="48" viewBox="0 0 48 48" fill="none">
<path d="M5.99994 43.5C7.10451 43.5 7.99994 42.6046 7.99994 41.5L7.99994 25.5L23.9999 25.5L23.9999 41.5C23.9999 42.6046 24.8953 43.5 25.9999 43.5C27.1045 43.5 27.9999 42.6046 27.9999 41.5L27.9999 6.5C27.9999 5.3954 27.1045 4.5 25.9999 4.5C24.8953 4.5 23.9999 5.3954 23.9999 6.5L23.9999 21.5L7.99994 21.5L7.99994 6.5C7.99994 5.3954 7.10451 4.5 5.99994 4.5C4.89537 4.5 3.99994 5.3954 3.99994 6.5L3.99994 41.5C3.99994 42.6046 4.89537 43.5 5.99994 43.5ZM43.5 35.4999L42.5 35.4999L42.5 41.4999C42.5 42.6045 41.6046 43.4999 40.5 43.4999C39.3954 43.4999 38.5 42.6045 38.5 41.4999L38.5 35.4999L31.3634 35.4999C29.6295 35.4999 28.5771 33.5876 29.5048 32.1228L38.8103 17.4298C39.8821 15.7375 42.5 16.4967 42.5 18.4999L42.5 31.4999L43.5 31.4999C44.6046 31.4999 45.5 32.3953 45.5 33.4999C45.5 34.6045 44.6046 35.4999 43.5 35.4999ZM38.5 25.3957L38.5 31.4999L34.634 31.4999L38.5 25.3957Z" fill-rule="evenodd"  fill="#000000" >
</path>
</svg>
