<svg xmlns="http://www.w3.org/2000/svg" xmlns:xlink="http://www.w3.org/1999/xlink" width="48" height="48" viewBox="0 0 48 48" fill="none">
<path d="M5.99994 43.5C7.10451 43.5 7.99994 42.6046 7.99994 41.5L7.99994 25.5L23.9999 25.5L23.9999 41.5C23.9999 42.6046 24.8953 43.5 25.9999 43.5C27.1045 43.5 27.9999 42.6046 27.9999 41.5L27.9999 6.5C27.9999 5.3954 27.1045 4.5 25.9999 4.5C24.8953 4.5 23.9999 5.3954 23.9999 6.5L23.9999 21.5L7.99994 21.5L7.99994 6.5C7.99994 5.3954 7.10451 4.5 5.99994 4.5C4.89537 4.5 3.99994 5.3954 3.99994 6.5L3.99994 41.5C3.99994 42.6046 4.89537 43.5 5.99994 43.5ZM31 26.5L31 23.55C31 22.3964 31.2776 21.259 31.8326 20.1377C33.0332 17.7126 35.089 16.5 38 16.5C40.9111 16.5 42.9669 17.7126 44.1674 20.1377C44.7225 21.259 45 22.3964 45 23.55L45 26.5C45 29.8682 42.7976 32.9604 38.3928 35.7765C36.1658 37.2003 34.8943 38.4415 34.5783 39.5L43 39.5C44.1046 39.5 45 40.3954 45 41.5C45 42.6046 44.1046 43.5 43 43.5L32.5 43.5C31.3954 43.5 30.5 42.6046 30.5 41.5L30.5 40.01C30.5 37.3867 32.4127 34.8521 36.2381 32.4064C39.4127 30.3768 41 28.408 41 26.5L41 23.55C41 21.5167 40 20.5 38 20.5C37.0166 20.5 36.2749 20.7458 35.775 21.2375C35.2584 21.7457 35 22.5165 35 23.55L35 26.5C35 27.6046 34.1046 28.5 33 28.5C31.8954 28.5 31 27.6046 31 26.5Z" fill-rule="evenodd"  fill="#000000" >
</path>
</svg>
