<svg xmlns="http://www.w3.org/2000/svg" xmlns:xlink="http://www.w3.org/1999/xlink" width="48" height="48" viewBox="0 0 48 48" fill="none">
<path d="M5.99994 43.5C7.10451 43.5 7.99994 42.6046 7.99994 41.5L7.99994 25.5L23.9999 25.5L23.9999 41.5C23.9999 42.6046 24.8953 43.5 25.9999 43.5C27.1045 43.5 27.9999 42.6046 27.9999 41.5L27.9999 6.5C27.9999 5.3954 27.1045 4.5 25.9999 4.5C24.8953 4.5 23.9999 5.3954 23.9999 6.5L23.9999 21.5L7.99994 21.5L7.99994 6.5C7.99994 5.3954 7.10451 4.5 5.99994 4.5C4.89537 4.5 3.99994 5.3954 3.99994 6.5L3.99994 41.5C3.99994 42.6046 4.89537 43.5 5.99994 43.5ZM38.5 41.5L38.5 23.9356C37.3764 24.6452 36.0431 25 34.5 25L34 25C32.8954 25 32 24.1046 32 23C32 21.8954 32.8954 21 34 21L34.5 21C36.1647 21 37.3475 20.0114 38.0483 18.0341C38.4109 17.0114 39.1331 16.5 40.215 16.5C41.477 16.5 42.5 17.523 42.5 18.785L42.5 41.5C42.5 42.6046 41.6046 43.5 40.5 43.5C39.3954 43.5 38.5 42.6046 38.5 41.5Z" fill-rule="evenodd"  fill="#000000" >
</path>
</svg>
