<svg xmlns="http://www.w3.org/2000/svg" xmlns:xlink="http://www.w3.org/1999/xlink" width="48" height="48" viewBox="0 0 48 48" fill="none">
<path d="M7.99994 41.5C7.99994 42.6046 7.10451 43.5 5.99994 43.5C4.89537 43.5 3.99994 42.6046 3.99994 41.5L3.99994 6.5C3.99994 5.3954 4.89537 4.5 5.99994 4.5C7.10451 4.5 7.99994 5.3954 7.99994 6.5L7.99994 21.5L23.9999 21.5L23.9999 6.5C23.9999 5.3954 24.8953 4.5 25.9999 4.5C27.1045 4.5 27.9999 5.3954 27.9999 6.5L27.9999 41.5C27.9999 42.6046 27.1045 43.5 25.9999 43.5C24.8953 43.5 23.9999 42.6046 23.9999 41.5L23.9999 25.5L7.99994 25.5L7.99994 41.5ZM30 19C30 17.8954 30.8954 17 32 17L43 17C44.1046 17 45 17.8954 45 19L45 19.5C45 20.0304 44.7893 20.5391 44.4142 20.9142L38.8664 26.462C39.8594 26.5221 40.7747 26.719 41.6125 27.0526C44.5375 28.2173 46 30.6998 46 34.5C46 36.6344 45.3539 38.5092 44.0617 40.1244C42.5281 42.0415 40.5075 43 38 43C35.8179 43 33.9754 42.4254 32.4726 41.2762C30.8242 40.0157 30 38.4236 30 36.5C30 35.4 30.9 34.5 32 34.5C33.1 34.5 34 35.4 34 36.5C34 38.1667 35.3334 39 38 39C39.177 39 40.0943 38.7078 40.7518 38.1233C41.584 37.3836 42 36.1759 42 34.5C42 32.5082 41.3776 31.2645 40.1327 30.7688C38.7793 30.2299 36.8835 30.347 34.4453 31.1201C33.3199 31.477 32.4621 31.1423 31.872 30.1159C31.3083 29.1354 31.4254 28.2462 32.2233 27.4483L38.6716 21L32 21C30.8954 21 30 20.1046 30 19Z" fill-rule="evenodd"  fill="#000000" >
</path>
</svg>
