<svg xmlns="http://www.w3.org/2000/svg" xmlns:xlink="http://www.w3.org/1999/xlink" width="48" height="48" viewBox="0 0 48 48" fill="none">
<path d="M40.6221 15.3847C44.7232 15.9806 46.3608 21.0205 43.3932 23.9132L37.7005 29.4621C37.4495 29.7067 37.3536 30.0018 37.4129 30.3473L38.7568 38.1825C39.4574 42.267 35.1702 45.3818 31.5021 43.4534L24.4655 39.7541C24.1553 39.5911 23.8451 39.5911 23.5349 39.7541L16.4983 43.4534C12.8302 45.3819 8.54302 42.2671 9.24359 38.1825L10.5875 30.3473C10.6468 30.0018 10.5509 29.7067 10.2999 29.4621L4.60723 23.9132C1.63961 21.0205 3.27716 15.9806 7.37833 15.3847L15.2453 14.2416C15.5922 14.1912 15.8432 14.0089 15.9983 13.6945L19.5165 6.56573C21.3506 2.84951 26.6498 2.84951 28.4839 6.56573L32.0021 13.6945C32.1572 14.0088 32.4082 14.1911 32.7551 14.2415L40.6221 15.3847ZM40.0469 19.3431L32.1799 18.2C30.4457 17.948 29.1908 17.0362 28.4152 15.4648L24.8969 8.33599C24.5301 7.59274 23.4703 7.59274 23.1035 8.33599L19.5852 15.4648C18.8096 17.0362 17.5547 17.948 15.8205 18.2L7.95349 19.3431C7.13324 19.4623 6.80573 20.4703 7.39927 21.0488L13.0919 26.5977C14.3468 27.821 14.8262 29.2963 14.5299 31.0235L13.186 38.8587C13.0459 39.6756 13.9033 40.2986 14.637 39.9129L21.6735 36.2136C21.7824 36.1564 21.8912 36.1032 22 36.054L22 29.9905L20.3194 29.9879C18.6865 29.9853 17.6254 28.2672 18.3542 26.8059L21.748 20.0016C22.6672 18.1587 25.2955 18.1552 26.2194 19.9957L29.6416 26.8125C30.3767 28.2768 29.3105 30.0021 27.672 29.9995L26 29.9969L26 36.0538C26.1089 36.103 26.2179 36.1563 26.3269 36.2136L33.3634 39.9129C34.097 40.2985 34.9545 39.6756 34.8144 38.8587L33.4705 31.0235C33.1742 29.2962 33.6536 27.821 34.9085 26.5978L40.6012 21.0488C41.1947 20.4703 40.8672 19.4623 40.0469 19.3431Z" fill-rule="evenodd"  fill="#000000" >
</path>
</svg>
