<svg xmlns="http://www.w3.org/2000/svg" xmlns:xlink="http://www.w3.org/1999/xlink" width="48" height="48" viewBox="0 0 48 48" fill="none">
<path d="M20.39 7.96C20.45 7.95 20.52 7.93 20.58 7.91C20.64 7.89 20.7 7.87 20.77 7.85C20.83 7.82 20.89 7.79 20.94 7.76C21 7.73 21.06 7.7 21.11 7.66C21.17 7.63 21.22 7.59 21.27 7.55C21.32 7.5 21.37 7.46 21.41 7.41C21.46 7.37 21.5 7.32 21.55 7.27C21.59 7.22 21.63 7.17 21.66 7.11C21.7 7.06 21.73 7 21.76 6.94C21.79 6.89 21.82 6.83 21.85 6.77C21.87 6.7 21.89 6.64 21.91 6.58C21.93 6.52 21.95 6.45 21.96 6.39C21.97 6.33 21.98 6.26 21.99 6.2C22 6.13 22 6.07 22 6C22 5.93 22 5.87 21.99 5.8C21.98 5.74 21.97 5.67 21.96 5.61C21.95 5.55 21.93 5.48 21.91 5.42C21.89 5.36 21.87 5.3 21.85 5.23C21.82 5.17 21.79 5.11 21.76 5.06C21.73 5 21.7 4.94 21.66 4.89C21.63 4.83 21.59 4.78 21.55 4.73C21.5 4.68 21.46 4.63 21.41 4.59C21.37 4.54 21.32 4.5 21.27 4.45C21.22 4.41 21.17 4.37 21.11 4.34C21.06 4.3 21 4.27 20.94 4.24C20.89 4.21 20.83 4.18 20.77 4.15C20.7 4.13 20.64 4.11 20.58 4.09C20.52 4.07 20.45 4.05 20.39 4.04C20.33 4.03 20.26 4.02 20.2 4.01C20.13 4 20.07 4 20 4L12 4C10.92 4 9.88 4.21 8.89 4.63C7.93 5.04 7.08 5.61 6.34 6.34C5.61 7.08 5.04 7.93 4.63 8.89C4.21 9.88 4 10.92 4 12L4 20C4 20.07 4 20.13 4.01 20.2C4.02 20.26 4.03 20.33 4.04 20.39C4.05 20.45 4.07 20.52 4.09 20.58C4.11 20.64 4.13 20.7 4.15 20.77C4.18 20.83 4.21 20.88 4.24 20.94C4.27 21 4.3 21.06 4.34 21.11C4.37 21.17 4.41 21.22 4.45 21.27C4.5 21.32 4.54 21.37 4.59 21.41C4.63 21.46 4.68 21.5 4.73 21.55C4.78 21.59 4.83 21.63 4.89 21.66C4.94 21.7 5 21.73 5.06 21.76C5.11 21.79 5.17 21.82 5.23 21.85C5.3 21.87 5.36 21.89 5.42 21.91C5.48 21.93 5.55 21.95 5.61 21.96C5.67 21.97 5.74 21.98 5.8 21.99C5.87 22 5.93 22 6 22C6.07 22 6.13 22 6.2 21.99C6.26 21.98 6.33 21.97 6.39 21.96C6.45 21.95 6.52 21.93 6.58 21.91C6.64 21.89 6.7 21.87 6.77 21.85C6.83 21.82 6.89 21.79 6.94 21.76C7 21.73 7.06 21.7 7.11 21.66C7.17 21.63 7.22 21.59 7.27 21.55C7.32 21.5 7.37 21.46 7.41 21.41C7.46 21.37 7.5 21.32 7.55 21.27C7.59 21.22 7.63 21.17 7.66 21.11C7.7 21.06 7.73 21 7.76 20.94C7.79 20.88 7.82 20.83 7.85 20.77C7.87 20.7 7.89 20.64 7.91 20.58C7.93 20.52 7.95 20.45 7.96 20.39C7.97 20.33 7.98 20.26 7.99 20.2C8 20.13 8 20.07 8 20L8 12C8 11.46 8.1 10.94 8.31 10.45C8.52 9.97 8.8 9.54 9.17 9.17C9.54 8.8 9.97 8.52 10.45 8.31C10.94 8.1 11.46 8 12 8L20 8C20.07 8 20.13 8 20.2 7.99C20.26 7.98 20.33 7.97 20.39 7.96ZM28 8L36 8C36.54 8 37.06 8.1 37.55 8.31C38.03 8.52 38.46 8.8 38.83 9.17C39.2 9.54 39.48 9.97 39.69 10.45C39.9 10.94 40 11.46 40 12L40 20C40 20.07 40 20.13 40.01 20.2C40.02 20.26 40.03 20.33 40.04 20.39C40.05 20.45 40.07 20.52 40.09 20.58C40.11 20.64 40.13 20.7 40.15 20.77C40.18 20.83 40.21 20.88 40.24 20.94C40.27 21 40.3 21.06 40.34 21.11C40.37 21.17 40.41 21.22 40.45 21.27C40.5 21.32 40.54 21.37 40.59 21.41C40.63 21.46 40.68 21.5 40.73 21.55C40.78 21.59 40.83 21.63 40.89 21.66C40.94 21.7 41 21.73 41.06 21.76C41.11 21.79 41.17 21.82 41.23 21.85C41.3 21.87 41.36 21.89 41.42 21.91C41.48 21.93 41.55 21.95 41.61 21.96C41.67 21.97 41.74 21.98 41.8 21.99C41.87 22 41.93 22 42 22C42.07 22 42.13 22 42.2 21.99C42.26 21.98 42.33 21.97 42.39 21.96C42.45 21.95 42.52 21.93 42.58 21.91C42.64 21.89 42.7 21.87 42.77 21.85C42.83 21.82 42.89 21.79 42.94 21.76C43 21.73 43.06 21.7 43.11 21.66C43.17 21.63 43.22 21.59 43.27 21.55C43.32 21.5 43.37 21.46 43.41 21.41C43.46 21.37 43.5 21.32 43.55 21.27C43.59 21.22 43.63 21.17 43.66 21.11C43.7 21.06 43.73 21 43.76 20.94C43.79 20.88 43.82 20.83 43.85 20.77C43.87 20.7 43.89 20.64 43.91 20.58C43.93 20.52 43.95 20.45 43.96 20.39C43.97 20.33 43.98 20.26 43.99 20.2C44 20.13 44 20.07 44 20L44 12C44 10.92 43.79 9.88 43.37 8.89C42.96 7.93 42.39 7.08 41.66 6.34C40.92 5.61 40.07 5.04 39.11 4.63C38.12 4.21 37.08 4 36 4L28 4C27.93 4 27.87 4 27.8 4.01C27.74 4.02 27.67 4.03 27.61 4.04C27.55 4.05 27.48 4.07 27.42 4.09C27.36 4.11 27.3 4.13 27.23 4.15C27.17 4.18 27.11 4.21 27.06 4.24C27 4.27 26.94 4.3 26.89 4.34C26.83 4.37 26.78 4.41 26.73 4.45C26.68 4.5 26.63 4.54 26.59 4.59C26.54 4.63 26.5 4.68 26.45 4.73C26.41 4.78 26.37 4.83 26.34 4.89C26.3 4.94 26.27 5 26.24 5.06C26.21 5.11 26.18 5.17 26.15 5.23C26.13 5.3 26.11 5.36 26.09 5.42C26.07 5.48 26.05 5.55 26.04 5.61C26.03 5.67 26.02 5.74 26.01 5.8C26 5.87 26 5.93 26 6C26 6.07 26 6.13 26.01 6.2C26.02 6.26 26.03 6.33 26.04 6.39C26.05 6.45 26.07 6.52 26.09 6.58C26.11 6.64 26.13 6.7 26.15 6.77C26.18 6.83 26.21 6.89 26.24 6.94C26.27 7 26.3 7.06 26.34 7.11C26.37 7.17 26.41 7.22 26.45 7.27C26.5 7.32 26.54 7.37 26.59 7.41C26.63 7.46 26.68 7.5 26.73 7.55C26.78 7.59 26.83 7.63 26.89 7.66C26.94 7.7 27 7.73 27.06 7.76C27.11 7.79 27.17 7.82 27.23 7.85C27.3 7.87 27.36 7.89 27.42 7.91C27.48 7.93 27.55 7.95 27.61 7.96C27.67 7.97 27.74 7.98 27.8 7.99C27.87 8 27.93 8 28 8ZM20 40L12 40C11.46 40 10.94 39.9 10.45 39.69C9.97 39.48 9.54 39.2 9.17 38.83C8.8 38.46 8.52 38.03 8.31 37.55C8.1 37.06 8 36.54 8 36L8 28C8 27.93 8 27.87 7.99 27.8C7.98 27.74 7.97 27.67 7.96 27.61C7.95 27.55 7.93 27.48 7.91 27.42C7.89 27.36 7.87 27.3 7.85 27.23C7.82 27.17 7.79 27.12 7.76 27.06C7.73 27 7.7 26.94 7.66 26.89C7.63 26.83 7.59 26.78 7.55 26.73C7.5 26.68 7.46 26.63 7.41 26.59C7.37 26.54 7.32 26.5 7.27 26.45C7.22 26.41 7.17 26.37 7.11 26.34C7.06 26.3 7 26.27 6.94 26.24C6.89 26.21 6.83 26.18 6.77 26.15C6.7 26.13 6.64 26.11 6.58 26.09C6.52 26.07 6.45 26.05 6.39 26.04C6.33 26.03 6.26 26.02 6.2 26.01C6.13 26 6.07 26 6 26C5.93 26 5.87 26 5.8 26.01C5.74 26.02 5.67 26.03 5.61 26.04C5.55 26.05 5.48 26.07 5.42 26.09C5.36 26.11 5.3 26.13 5.23 26.15C5.17 26.18 5.11 26.21 5.06 26.24C5 26.27 4.94 26.3 4.89 26.34C4.83 26.37 4.78 26.41 4.73 26.45C4.68 26.5 4.63 26.54 4.59 26.59C4.54 26.63 4.5 26.68 4.45 26.73C4.41 26.78 4.37 26.83 4.34 26.89C4.3 26.94 4.27 27 4.24 27.06C4.21 27.12 4.18 27.17 4.15 27.23C4.13 27.3 4.11 27.36 4.09 27.42C4.07 27.48 4.05 27.55 4.04 27.61C4.03 27.67 4.02 27.74 4.01 27.8C4 27.87 4 27.93 4 28L4 36C4 37.08 4.21 38.12 4.63 39.11C5.04 40.07 5.61 40.92 6.34 41.66C7.08 42.39 7.93 42.96 8.89 43.37C9.88 43.79 10.92 44 12 44L20 44C20.07 44 20.13 44 20.2 43.99C20.26 43.98 20.33 43.97 20.39 43.96C20.45 43.95 20.52 43.93 20.58 43.91C20.64 43.89 20.7 43.87 20.77 43.85C20.83 43.82 20.89 43.79 20.94 43.76C21 43.73 21.06 43.7 21.11 43.66C21.17 43.63 21.22 43.59 21.27 43.55C21.32 43.5 21.37 43.46 21.41 43.41C21.46 43.37 21.5 43.32 21.55 43.27C21.59 43.22 21.63 43.17 21.66 43.11C21.7 43.06 21.73 43 21.76 42.94C21.79 42.89 21.82 42.83 21.85 42.77C21.87 42.7 21.89 42.64 21.91 42.58C21.93 42.52 21.95 42.45 21.96 42.39C21.97 42.33 21.98 42.26 21.99 42.2C22 42.13 22 42.07 22 42C22 41.93 22 41.87 21.99 41.8C21.98 41.74 21.97 41.67 21.96 41.61C21.95 41.55 21.93 41.48 21.91 41.42C21.89 41.36 21.87 41.3 21.85 41.23C21.82 41.17 21.79 41.11 21.76 41.06C21.73 41 21.7 40.94 21.66 40.89C21.63 40.83 21.59 40.78 21.55 40.73C21.5 40.68 21.46 40.63 21.41 40.59C21.37 40.54 21.32 40.5 21.27 40.45C21.22 40.41 21.17 40.37 21.11 40.34C21.06 40.3 21 40.27 20.94 40.24C20.89 40.21 20.83 40.18 20.77 40.15C20.7 40.13 20.64 40.11 20.58 40.09C20.52 40.07 20.45 40.05 20.39 40.04C20.33 40.03 20.26 40.02 20.2 40.01C20.13 40 20.07 40 20 40ZM27.61 40.04C27.55 40.05 27.48 40.07 27.42 40.09C27.36 40.11 27.3 40.13 27.23 40.15C27.17 40.18 27.11 40.21 27.06 40.24C27 40.27 26.94 40.3 26.89 40.34C26.83 40.37 26.78 40.41 26.73 40.45C26.68 40.5 26.63 40.54 26.59 40.59C26.54 40.63 26.5 40.68 26.45 40.73C26.41 40.78 26.37 40.83 26.34 40.89C26.3 40.94 26.27 41 26.24 41.06C26.21 41.11 26.18 41.17 26.15 41.23C26.13 41.3 26.11 41.36 26.09 41.42C26.07 41.48 26.05 41.55 26.04 41.61C26.03 41.67 26.02 41.74 26.01 41.8C26 41.87 26 41.93 26 42C26 42.07 26 42.13 26.01 42.2C26.02 42.26 26.03 42.33 26.04 42.39C26.05 42.45 26.07 42.52 26.09 42.58C26.11 42.64 26.13 42.7 26.15 42.77C26.18 42.83 26.21 42.89 26.24 42.94C26.27 43 26.3 43.06 26.34 43.11C26.37 43.17 26.41 43.22 26.45 43.27C26.5 43.32 26.54 43.37 26.59 43.41C26.63 43.46 26.68 43.5 26.73 43.55C26.78 43.59 26.83 43.63 26.89 43.66C26.94 43.7 27 43.73 27.06 43.76C27.11 43.79 27.17 43.82 27.23 43.85C27.3 43.87 27.36 43.89 27.42 43.91C27.48 43.93 27.55 43.95 27.61 43.96C27.67 43.97 27.74 43.98 27.8 43.99C27.87 44 27.93 44 28 44L36 44C37.08 44 38.12 43.79 39.11 43.37C40.07 42.96 40.92 42.39 41.66 41.66C42.39 40.92 42.96 40.07 43.37 39.11C43.79 38.12 44 37.08 44 36L44 28C44 27.93 44 27.87 43.99 27.8C43.98 27.74 43.97 27.67 43.96 27.61C43.95 27.55 43.93 27.48 43.91 27.42C43.89 27.36 43.87 27.3 43.85 27.23C43.82 27.17 43.79 27.12 43.76 27.06C43.73 27 43.7 26.94 43.66 26.89C43.63 26.83 43.59 26.78 43.55 26.73C43.5 26.68 43.46 26.63 43.41 26.59C43.37 26.54 43.32 26.5 43.27 26.45C43.22 26.41 43.17 26.37 43.11 26.34C43.06 26.3 43 26.27 42.94 26.24C42.89 26.21 42.83 26.18 42.77 26.15C42.7 26.13 42.64 26.11 42.58 26.09C42.52 26.07 42.45 26.05 42.39 26.04C42.33 26.03 42.26 26.02 42.2 26.01C42.13 26 42.07 26 42 26C41.93 26 41.87 26 41.8 26.01C41.74 26.02 41.67 26.03 41.61 26.04C41.55 26.05 41.48 26.07 41.42 26.09C41.36 26.11 41.3 26.13 41.23 26.15C41.17 26.18 41.11 26.21 41.06 26.24C41 26.27 40.94 26.3 40.89 26.34C40.83 26.37 40.78 26.41 40.73 26.45C40.68 26.5 40.63 26.54 40.59 26.59C40.54 26.63 40.5 26.68 40.45 26.73C40.41 26.78 40.37 26.83 40.34 26.89C40.3 26.94 40.27 27 40.24 27.06C40.21 27.12 40.18 27.17 40.15 27.23C40.13 27.3 40.11 27.36 40.09 27.42C40.07 27.48 40.05 27.55 40.04 27.61C40.03 27.67 40.02 27.74 40.01 27.8C40 27.87 40 27.93 40 28L40 36C40 36.54 39.9 37.06 39.69 37.55C39.48 38.03 39.2 38.46 38.83 38.83C38.46 39.2 38.03 39.48 37.55 39.69C37.06 39.9 36.54 40 36 40L28 40C27.93 40 27.87 40 27.8 40.01C27.74 40.02 27.67 40.03 27.61 40.04Z" fill-rule="evenodd"  fill="#000000" >
</path>
</svg>
