<svg xmlns="http://www.w3.org/2000/svg" xmlns:xlink="http://www.w3.org/1999/xlink" width="48" height="48" viewBox="0 0 48 48" fill="none">
<path d="M43 7.5L16 7.5C15.87 7.5 15.74 7.51 15.61 7.54C15.48 7.56 15.36 7.6 15.23 7.65C15.11 7.7 15 7.76 14.89 7.84C14.78 7.91 14.68 7.99 14.59 8.09C14.49 8.18 14.41 8.28 14.34 8.39C14.26 8.5 14.2 8.61 14.15 8.73C14.1 8.86 14.06 8.98 14.04 9.11C14.01 9.24 14 9.37 14 9.5C14 9.63 14.01 9.76 14.04 9.89C14.06 10.02 14.1 10.14 14.15 10.27C14.2 10.39 14.26 10.5 14.34 10.61C14.41 10.72 14.49 10.82 14.59 10.91C14.68 11.01 14.78 11.09 14.89 11.16C15 11.24 15.11 11.3 15.23 11.35C15.36 11.4 15.48 11.44 15.61 11.46C15.74 11.49 15.87 11.5 16 11.5L43 11.5C43.07 11.5 43.13 11.5 43.2 11.49C43.26 11.48 43.33 11.48 43.39 11.46C43.45 11.45 43.52 11.43 43.58 11.41C43.64 11.4 43.7 11.37 43.77 11.35C43.83 11.32 43.88 11.3 43.94 11.26C44 11.23 44.06 11.2 44.11 11.16C44.17 11.13 44.22 11.09 44.27 11.05C44.32 11.01 44.37 10.96 44.41 10.92C44.46 10.87 44.5 10.82 44.55 10.77C44.59 10.72 44.63 10.67 44.66 10.61C44.7 10.56 44.73 10.5 44.76 10.44C44.79 10.39 44.82 10.33 44.85 10.27C44.87 10.21 44.89 10.14 44.91 10.08C44.93 10.02 44.95 9.96 44.96 9.89C44.97 9.83 44.98 9.76 44.99 9.7C45 9.63 45 9.57 45 9.5C45 9.37 44.99 9.24 44.96 9.11C44.94 8.98 44.9 8.86 44.85 8.74C44.8 8.61 44.74 8.5 44.66 8.39C44.59 8.28 44.51 8.18 44.41 8.09C44.32 7.99 44.22 7.91 44.11 7.84C44 7.77 43.89 7.7 43.77 7.65C43.64 7.6 43.52 7.57 43.39 7.54C43.26 7.51 43.13 7.5 43 7.5ZM44.55 39.77C44.59 39.72 44.63 39.67 44.66 39.61C44.7 39.56 44.73 39.5 44.76 39.44C44.79 39.39 44.82 39.33 44.85 39.27C44.87 39.21 44.89 39.14 44.91 39.08C44.93 39.02 44.95 38.96 44.96 38.89C44.97 38.83 44.98 38.76 44.99 38.7C45 38.63 45 38.57 45 38.5C45 38.37 44.99 38.24 44.96 38.11C44.94 37.98 44.9 37.86 44.85 37.74C44.8 37.61 44.74 37.5 44.66 37.39C44.59 37.28 44.51 37.18 44.41 37.09C44.32 36.99 44.22 36.91 44.11 36.84C44 36.77 43.89 36.7 43.77 36.65C43.64 36.6 43.52 36.57 43.39 36.54C43.26 36.51 43.13 36.5 43 36.5L26 36.5C25.93 36.5 25.87 36.5 25.8 36.51C25.74 36.52 25.67 36.53 25.61 36.54C25.55 36.55 25.48 36.57 25.42 36.59C25.36 36.61 25.3 36.63 25.23 36.65C25.17 36.68 25.12 36.71 25.06 36.74C25 36.77 24.94 36.8 24.89 36.84C24.83 36.87 24.78 36.91 24.73 36.95C24.68 37 24.63 37.04 24.59 37.09C24.54 37.13 24.5 37.18 24.45 37.23C24.41 37.28 24.37 37.33 24.34 37.39C24.3 37.44 24.27 37.5 24.24 37.56C24.21 37.61 24.18 37.67 24.15 37.73C24.13 37.8 24.11 37.86 24.09 37.92C24.07 37.98 24.05 38.05 24.04 38.11C24.03 38.17 24.02 38.24 24.01 38.3C24 38.37 24 38.43 24 38.5C24 38.57 24 38.63 24.01 38.7C24.02 38.76 24.03 38.83 24.04 38.89C24.05 38.95 24.07 39.02 24.09 39.08C24.11 39.14 24.13 39.2 24.15 39.27C24.18 39.33 24.21 39.38 24.24 39.44C24.27 39.5 24.3 39.56 24.34 39.61C24.37 39.67 24.41 39.72 24.45 39.77C24.5 39.82 24.54 39.87 24.59 39.91C24.63 39.96 24.68 40 24.73 40.05C24.78 40.09 24.83 40.13 24.89 40.16C24.94 40.2 25 40.23 25.06 40.26C25.11 40.29 25.17 40.32 25.23 40.35C25.3 40.37 25.36 40.39 25.42 40.41C25.48 40.43 25.55 40.45 25.61 40.46C25.67 40.47 25.74 40.48 25.8 40.49C25.87 40.5 25.93 40.5 26 40.5L43 40.5C43.07 40.5 43.13 40.5 43.2 40.49C43.26 40.48 43.33 40.48 43.39 40.46C43.45 40.45 43.52 40.43 43.58 40.41C43.64 40.4 43.7 40.37 43.77 40.35C43.83 40.32 43.88 40.3 43.94 40.26C44 40.23 44.06 40.2 44.11 40.16C44.17 40.13 44.22 40.09 44.27 40.05C44.32 40.01 44.37 39.96 44.41 39.92C44.46 39.87 44.5 39.82 44.55 39.77ZM19.45 22.73C19.41 22.78 19.37 22.83 19.34 22.89C19.3 22.94 19.27 23 19.24 23.06C19.21 23.11 19.18 23.17 19.15 23.23C19.13 23.3 19.11 23.36 19.09 23.42C19.07 23.48 19.05 23.55 19.04 23.61C19.03 23.67 19.02 23.74 19.01 23.8C19 23.87 19 23.93 19 24C19 24.07 19 24.13 19.01 24.2C19.02 24.26 19.03 24.33 19.04 24.39C19.05 24.45 19.07 24.52 19.09 24.58C19.11 24.64 19.13 24.7 19.15 24.77C19.18 24.83 19.21 24.88 19.24 24.94C19.27 25 19.3 25.06 19.34 25.11C19.37 25.17 19.41 25.22 19.45 25.27C19.5 25.32 19.54 25.37 19.59 25.41C19.63 25.46 19.68 25.5 19.73 25.55C19.78 25.59 19.83 25.63 19.89 25.66C19.94 25.7 20 25.73 20.06 25.76C20.11 25.79 20.17 25.82 20.23 25.85C20.3 25.87 20.36 25.89 20.42 25.91C20.48 25.93 20.55 25.95 20.61 25.96C20.67 25.97 20.74 25.98 20.8 25.99C20.87 26 20.93 26 21 26L43 26C43.07 26 43.13 26 43.2 25.99C43.26 25.98 43.33 25.98 43.39 25.96C43.45 25.95 43.52 25.93 43.58 25.91C43.64 25.9 43.7 25.87 43.77 25.85C43.83 25.82 43.88 25.8 43.94 25.76C44 25.73 44.06 25.7 44.11 25.66C44.17 25.63 44.22 25.59 44.27 25.55C44.32 25.51 44.37 25.46 44.41 25.42C44.46 25.37 44.5 25.32 44.55 25.27C44.59 25.22 44.63 25.17 44.66 25.11C44.7 25.06 44.73 25 44.76 24.94C44.79 24.89 44.82 24.83 44.85 24.77C44.87 24.71 44.89 24.64 44.91 24.58C44.93 24.52 44.95 24.46 44.96 24.39C44.97 24.33 44.98 24.26 44.99 24.2C45 24.13 45 24.07 45 24C45 23.87 44.99 23.74 44.96 23.61C44.94 23.48 44.9 23.36 44.85 23.24C44.8 23.11 44.74 23 44.66 22.89C44.59 22.78 44.51 22.68 44.41 22.59C44.32 22.49 44.22 22.41 44.11 22.34C44 22.27 43.89 22.2 43.77 22.15C43.64 22.1 43.52 22.07 43.39 22.04C43.26 22.01 43.13 22 43 22L21 22C20.93 22 20.87 22 20.8 22.01C20.74 22.02 20.67 22.03 20.61 22.04C20.55 22.05 20.48 22.07 20.42 22.09C20.36 22.11 20.3 22.13 20.23 22.15C20.17 22.18 20.11 22.21 20.06 22.24C20 22.27 19.94 22.3 19.89 22.34C19.83 22.37 19.78 22.41 19.73 22.45C19.68 22.5 19.63 22.54 19.59 22.59C19.54 22.63 19.5 22.68 19.45 22.73ZM4 9.5C4 10.88 5.12 12 6.5 12C7.88 12 9 10.88 9 9.5C9 8.12 7.88 7 6.5 7C5.12 7 4 8.12 4 9.5ZM11.5 26.5C12.88 26.5 14 25.38 14 24C14 22.62 12.88 21.5 11.5 21.5C10.12 21.5 9 22.62 9 24C9 25.38 10.12 26.5 11.5 26.5ZM16.5 41C17.88 41 19 39.88 19 38.5C19 37.12 17.88 36 16.5 36C15.12 36 14 37.12 14 38.5C14 39.88 15.12 41 16.5 41Z" fill-rule="evenodd"  fill="#000000" >
</path>
</svg>
