<svg xmlns="http://www.w3.org/2000/svg" xmlns:xlink="http://www.w3.org/1999/xlink" width="48" height="48" viewBox="0 0 48 48" fill="none">
<path d="M3.11501 25.5C3.32501 26 3.61501 26.44 3.99501 26.82L12.585 35.41C12.635 35.46 12.685 35.5 12.735 35.55C12.785 35.59 12.835 35.63 12.885 35.66C12.945 35.7 12.995 35.73 13.055 35.76L13.235 35.85L13.415 35.91C13.485 35.93 13.545 35.95 13.605 35.96C13.675 35.97 13.735 35.98 13.805 35.99C13.865 36 13.935 36 14.005 36C14.065 36 14.135 36 14.195 35.99C14.265 35.98 14.325 35.97 14.395 35.96C14.455 35.95 14.515 35.93 14.585 35.91L14.765 35.85L14.945 35.76C15.005 35.73 15.055 35.7 15.115 35.66C15.165 35.63 15.215 35.59 15.265 35.55C15.315 35.5 15.365 35.46 15.415 35.41C15.505 35.32 15.585 35.22 15.665 35.11C15.735 35 15.795 34.89 15.845 34.77C15.895 34.64 15.935 34.52 15.965 34.39C15.985 34.26 16.005 34.13 16.005 34C16.005 33.87 15.985 33.74 15.965 33.61C15.935 33.48 15.895 33.36 15.845 33.23C15.795 33.11 15.735 33 15.665 32.89C15.585 32.78 15.505 32.68 15.415 32.59L6.82501 24L15.415 15.41C15.455 15.37 15.505 15.32 15.545 15.27C15.695 15.09 15.805 14.89 15.885 14.68C15.965 14.46 16.005 14.23 16.005 14C16.005 13.87 15.985 13.74 15.965 13.61C15.935 13.48 15.895 13.36 15.845 13.23C15.795 13.11 15.735 13 15.665 12.89C15.585 12.78 15.505 12.68 15.415 12.59C15.325 12.49 15.225 12.41 15.115 12.34C15.005 12.26 14.885 12.2 14.765 12.15C14.645 12.1 14.515 12.06 14.395 12.04C14.265 12.01 14.135 12 14.005 12C13.865 12 13.735 12.01 13.605 12.04C13.485 12.06 13.355 12.1 13.235 12.15C13.115 12.2 12.995 12.26 12.885 12.34C12.775 12.41 12.675 12.49 12.585 12.59L3.99501 21.18C3.61501 21.56 3.32501 22 3.11501 22.5C2.92501 22.98 2.82501 23.48 2.82501 24C2.82501 24.52 2.92501 25.02 3.11501 25.5ZM34.395 12.04C34.335 12.03 34.265 12.02 34.195 12.01C34.125 12 34.075 12 34.005 12C33.935 12 33.875 12 33.805 12.01C33.735 12.02 33.675 12.03 33.605 12.04C33.555 12.05 33.485 12.07 33.425 12.09C33.355 12.11 33.305 12.13 33.235 12.15C33.175 12.18 33.105 12.21 33.055 12.24C33.005 12.27 32.935 12.3 32.895 12.34C32.825 12.37 32.775 12.41 32.725 12.45C32.685 12.5 32.635 12.54 32.595 12.59C32.545 12.63 32.505 12.68 32.445 12.73C32.415 12.78 32.375 12.83 32.335 12.89C32.305 12.94 32.275 13 32.245 13.06C32.215 13.11 32.185 13.17 32.155 13.23C32.125 13.3 32.115 13.36 32.085 13.42C32.065 13.48 32.055 13.55 32.045 13.61C32.035 13.67 32.015 13.74 32.005 13.8C32.005 13.87 32.005 13.93 32.005 14C32.005 14.07 32.005 14.13 32.005 14.2C32.015 14.26 32.035 14.33 32.045 14.39C32.055 14.45 32.065 14.52 32.085 14.58C32.115 14.64 32.125 14.7 32.155 14.77C32.185 14.83 32.215 14.89 32.245 14.94C32.275 15 32.305 15.06 32.335 15.11C32.375 15.17 32.415 15.22 32.445 15.27C32.505 15.32 32.545 15.37 32.595 15.41L41.175 24L32.595 32.59C32.545 32.63 32.505 32.68 32.445 32.73C32.415 32.78 32.375 32.83 32.335 32.89C32.305 32.94 32.275 33 32.245 33.06C32.215 33.12 32.185 33.17 32.155 33.23C32.125 33.3 32.115 33.36 32.085 33.42C32.065 33.48 32.055 33.55 32.045 33.61C32.035 33.67 32.015 33.74 32.005 33.8C32.005 33.87 32.005 33.93 32.005 34C32.005 34.07 32.005 34.13 32.005 34.2C32.015 34.26 32.035 34.33 32.045 34.39C32.055 34.45 32.065 34.52 32.085 34.58C32.115 34.64 32.125 34.7 32.155 34.77C32.185 34.83 32.215 34.89 32.245 34.94C32.275 35 32.305 35.06 32.335 35.11C32.375 35.17 32.415 35.22 32.445 35.27C32.505 35.32 32.545 35.37 32.595 35.41C32.635 35.46 32.685 35.5 32.725 35.55C32.775 35.59 32.825 35.63 32.895 35.66C32.935 35.7 33.005 35.73 33.055 35.76C33.105 35.79 33.175 35.82 33.235 35.85C33.305 35.87 33.355 35.89 33.425 35.91C33.485 35.93 33.555 35.95 33.605 35.96C33.675 35.97 33.735 35.98 33.805 35.99C33.875 36 33.935 36 34.005 36C34.075 36 34.125 36 34.195 35.99C34.265 35.98 34.335 35.97 34.395 35.96C34.455 35.95 34.515 35.93 34.585 35.91C34.645 35.89 34.695 35.87 34.765 35.85C34.835 35.82 34.895 35.79 34.945 35.76C34.995 35.73 35.065 35.7 35.105 35.66C35.175 35.63 35.225 35.59 35.275 35.55C35.315 35.5 35.375 35.46 35.415 35.41L44.005 26.82C44.385 26.44 44.685 26 44.885 25.5C45.085 25.02 45.185 24.52 45.185 24C45.185 23.48 45.085 22.98 44.885 22.5C44.685 22 44.385 21.56 44.005 21.18L35.415 12.59C35.375 12.54 35.315 12.5 35.275 12.45C35.225 12.41 35.175 12.37 35.105 12.34C35.065 12.3 34.995 12.27 34.945 12.24C34.895 12.21 34.835 12.18 34.765 12.15C34.695 12.13 34.645 12.11 34.585 12.09C34.515 12.07 34.455 12.05 34.395 12.04ZM29.945 8.49C29.965 8.42 29.975 8.36 29.985 8.29C29.985 8.23 29.995 8.16 30.005 8.1L30.005 7.9C29.995 7.84 29.985 7.77 29.985 7.71C29.975 7.64 29.965 7.58 29.945 7.51L29.885 7.33C29.865 7.26 29.835 7.2 29.805 7.14C29.775 7.08 29.745 7.03 29.715 6.97C29.685 6.91 29.645 6.86 29.605 6.81C29.575 6.76 29.535 6.7 29.485 6.66C29.445 6.61 29.395 6.56 29.345 6.52C29.295 6.47 29.235 6.43 29.195 6.39C29.145 6.35 29.075 6.32 29.035 6.28L28.845 6.19C28.805 6.16 28.735 6.14 28.675 6.12C28.605 6.09 28.555 6.08 28.485 6.06C28.415 6.04 28.355 6.03 28.295 6.02C28.225 6.01 28.165 6.01 28.095 6L27.905 6C27.835 6.01 27.775 6.01 27.715 6.02C27.645 6.03 27.575 6.04 27.505 6.06L27.325 6.12C27.255 6.14 27.195 6.16 27.145 6.19C27.075 6.22 27.035 6.25 26.975 6.29C26.905 6.32 26.865 6.36 26.815 6.39C26.765 6.43 26.695 6.47 26.665 6.52C26.615 6.56 26.555 6.61 26.525 6.66C26.475 6.71 26.425 6.76 26.395 6.81C26.345 6.86 26.325 6.92 26.285 6.97L26.195 7.15C26.155 7.2 26.145 7.27 26.125 7.33C26.095 7.39 26.085 7.45 26.055 7.51L18.055 39.51C18.045 39.58 18.035 39.64 18.025 39.71C18.015 39.77 18.015 39.84 18.005 39.9L18.005 40.1C18.015 40.16 18.015 40.23 18.025 40.29C18.035 40.36 18.045 40.42 18.055 40.49L18.115 40.67C18.135 40.74 18.155 40.8 18.185 40.86C18.215 40.92 18.255 40.97 18.295 41.03C18.325 41.09 18.365 41.14 18.395 41.19C18.435 41.24 18.465 41.3 18.525 41.34C18.565 41.39 18.605 41.44 18.665 41.48C18.715 41.53 18.755 41.57 18.815 41.61C18.865 41.65 18.925 41.68 18.975 41.72L19.155 41.81C19.205 41.84 19.275 41.86 19.335 41.88C19.395 41.91 19.455 41.92 19.505 41.94C19.585 41.96 19.645 41.97 19.715 41.98C19.775 41.99 19.845 41.99 19.905 42L20.095 42C20.165 41.99 20.235 41.99 20.295 41.98C20.365 41.97 20.425 41.96 20.495 41.94L20.675 41.88C20.745 41.86 20.805 41.84 20.865 41.81C20.925 41.78 20.965 41.75 21.025 41.72C21.085 41.68 21.145 41.64 21.185 41.61C21.245 41.57 21.305 41.53 21.345 41.48C21.395 41.44 21.435 41.39 21.485 41.34C21.525 41.29 21.575 41.24 21.615 41.19C21.655 41.14 21.675 41.08 21.715 41.03L21.815 40.85C21.845 40.8 21.855 40.73 21.875 40.67C21.915 40.61 21.925 40.55 21.935 40.49L29.945 8.49Z" fill-rule="evenodd"  fill="#000000" >
</path>
</svg>
