<svg xmlns="http://www.w3.org/2000/svg" xmlns:xlink="http://www.w3.org/1999/xlink" width="48" height="48" viewBox="0 0 48 48" fill="none">
<path   fill-rule="evenodd"  fill="#000000"  d="M13.12 7.96C13.18 7.95 13.25 7.93 13.31 7.91L13.49 7.85L13.67 7.76C13.73 7.73 13.78 7.7 13.84 7.66C13.89 7.63 13.95 7.59 14 7.55C14.05 7.5 14.1 7.46 14.14 7.41C14.19 7.37 14.23 7.32 14.27 7.27C14.32 7.22 14.35 7.17 14.39 7.11C14.43 7.06 14.46 7 14.49 6.94C14.52 6.89 14.55 6.83 14.58 6.77C14.6 6.7 14.62 6.64 14.64 6.58C14.66 6.52 14.68 6.45 14.69 6.39C14.7 6.33 14.71 6.26 14.72 6.2C14.72 6.13 14.73 6.07 14.73 6C14.73 5.93 14.72 5.87 14.72 5.8C14.71 5.74 14.7 5.67 14.69 5.61C14.68 5.55 14.66 5.48 14.64 5.42C14.62 5.36 14.6 5.3 14.58 5.23C14.55 5.17 14.52 5.11 14.49 5.06C14.46 5 14.43 4.94 14.39 4.89C14.35 4.83 14.32 4.78 14.27 4.73C14.23 4.68 14.19 4.63 14.14 4.59C14.1 4.54 14.05 4.5 14 4.45C13.95 4.41 13.89 4.37 13.84 4.34C13.78 4.3 13.73 4.27 13.67 4.24L13.49 4.15L13.31 4.09C13.25 4.07 13.18 4.05 13.12 4.04C13.05 4.03 12.99 4.02 12.92 4.01C12.86 4 12.79 4 12.73 4L12 4C11.25 4 10.51 4.1 9.79 4.31C9.1 4.51 8.44 4.8 7.82 5.18C7.76 5.21 7.71 5.25 7.66 5.29C7.6 5.33 7.55 5.37 7.51 5.42C7.46 5.46 7.41 5.51 7.37 5.56L7.25 5.71C7.21 5.76 7.17 5.82 7.14 5.88C7.11 5.93 7.08 5.99 7.05 6.05C7.02 6.11 7 6.17 6.98 6.23C6.95 6.29 6.94 6.36 6.92 6.42C6.91 6.48 6.89 6.55 6.88 6.61C6.88 6.68 6.87 6.74 6.87 6.81L6.87 7C6.87 7.07 6.88 7.14 6.89 7.2C6.9 7.26 6.91 7.33 6.93 7.39C6.95 7.46 6.97 7.52 6.99 7.58C7.01 7.64 7.04 7.7 7.07 7.76C7.1 7.82 7.13 7.88 7.16 7.93C7.2 7.99 7.23 8.04 7.27 8.09C7.31 8.15 7.35 8.2 7.4 8.24C7.44 8.29 7.49 8.34 7.54 8.38C7.59 8.42 7.64 8.47 7.69 8.5C7.75 8.54 7.8 8.58 7.86 8.61C7.91 8.64 7.97 8.67 8.03 8.7C8.09 8.73 8.15 8.75 8.21 8.77C8.28 8.8 8.34 8.81 8.4 8.83C8.47 8.84 8.53 8.86 8.59 8.87C8.66 8.87 8.72 8.88 8.79 8.88C8.84 8.89 8.88 8.88 8.92 8.88C8.94 8.88 8.97 8.88 8.99 8.88C9.05 8.88 9.12 8.87 9.18 8.86C9.25 8.85 9.31 8.84 9.37 8.82C9.44 8.8 9.5 8.78 9.56 8.76C9.62 8.74 9.68 8.71 9.74 8.68C9.8 8.65 9.86 8.62 9.91 8.59C10.55 8.2 11.25 8 12 8L12.73 8C12.79 8 12.86 8 12.92 7.99C12.99 7.98 13.05 7.97 13.12 7.96ZM23.12 7.96C23.18 7.95 23.25 7.93 23.31 7.91L23.49 7.85L23.67 7.76C23.73 7.73 23.78 7.7 23.84 7.66C23.89 7.63 23.95 7.59 24 7.55C24.05 7.5 24.1 7.46 24.14 7.41C24.19 7.37 24.23 7.32 24.27 7.27C24.32 7.22 24.35 7.17 24.39 7.11C24.43 7.06 24.46 7 24.49 6.94C24.52 6.89 24.55 6.83 24.58 6.77C24.6 6.7 24.62 6.64 24.64 6.58C24.66 6.52 24.68 6.45 24.69 6.39C24.7 6.33 24.71 6.26 24.72 6.2C24.72 6.13 24.73 6.07 24.73 6C24.73 5.93 24.72 5.87 24.72 5.8C24.71 5.74 24.7 5.67 24.69 5.61C24.68 5.55 24.66 5.48 24.64 5.42C24.62 5.36 24.6 5.3 24.58 5.23C24.55 5.17 24.52 5.11 24.49 5.06C24.46 5 24.43 4.94 24.39 4.89C24.35 4.83 24.32 4.78 24.27 4.73C24.23 4.68 24.19 4.63 24.14 4.59C24.1 4.54 24.05 4.5 24 4.45C23.95 4.41 23.89 4.37 23.84 4.34C23.78 4.3 23.73 4.27 23.67 4.24L23.49 4.15L23.31 4.09C23.25 4.07 23.18 4.05 23.12 4.04C23.05 4.03 22.99 4.02 22.92 4.01C22.86 4 22.79 4 22.73 4L18.73 4C18.66 4 18.6 4 18.53 4.01C18.47 4.02 18.4 4.03 18.34 4.04C18.27 4.05 18.21 4.07 18.15 4.09C18.08 4.11 18.02 4.13 17.96 4.15C17.9 4.18 17.84 4.21 17.79 4.24C17.73 4.27 17.67 4.3 17.62 4.34C17.56 4.37 17.51 4.41 17.46 4.45C17.41 4.5 17.36 4.54 17.31 4.59C17.27 4.63 17.22 4.68 17.18 4.73C17.14 4.78 17.1 4.83 17.06 4.89C17.03 4.94 16.99 5 16.96 5.06C16.93 5.11 16.91 5.17 16.88 5.23C16.85 5.3 16.83 5.36 16.81 5.42C16.79 5.48 16.78 5.55 16.77 5.61C16.75 5.67 16.74 5.74 16.74 5.8C16.73 5.87 16.73 5.93 16.73 6C16.73 6.07 16.73 6.13 16.74 6.2C16.74 6.26 16.75 6.33 16.77 6.39C16.78 6.45 16.79 6.52 16.81 6.58C16.83 6.64 16.85 6.7 16.88 6.77C16.91 6.83 16.93 6.89 16.96 6.94C16.99 7 17.03 7.06 17.06 7.11C17.1 7.17 17.14 7.22 17.18 7.27C17.22 7.32 17.27 7.37 17.31 7.41C17.36 7.46 17.41 7.5 17.46 7.55C17.51 7.59 17.56 7.63 17.62 7.66C17.67 7.7 17.73 7.73 17.79 7.76C17.84 7.79 17.9 7.82 17.96 7.85C18.02 7.87 18.08 7.89 18.15 7.91C18.21 7.93 18.27 7.95 18.34 7.96C18.4 7.97 18.47 7.98 18.53 7.99C18.6 8 18.66 8 18.73 8L22.73 8C22.79 8 22.86 8 22.92 7.99C22.99 7.98 23.05 7.97 23.12 7.96ZM30.08 10.91C30.18 11 30.28 11.08 30.4 11.15C30.51 11.22 30.63 11.27 30.75 11.31C30.88 11.36 31 11.39 31.13 11.41C31.26 11.43 31.39 11.43 31.52 11.43C31.66 11.42 31.78 11.4 31.91 11.37C32.04 11.34 32.16 11.29 32.28 11.24C32.34 11.21 32.4 11.18 32.45 11.14C32.51 11.11 32.56 11.07 32.62 11.03L32.77 10.91C32.82 10.87 32.86 10.82 32.91 10.77L33.03 10.62C33.07 10.57 33.11 10.51 33.14 10.45C33.17 10.4 33.2 10.34 33.23 10.28C33.26 10.22 33.28 10.16 33.31 10.1C33.33 10.04 33.35 9.98 33.36 9.91C33.38 9.85 33.39 9.78 33.4 9.72C33.41 9.65 33.42 9.59 33.42 9.52L33.42 9.33C33.42 9.26 33.41 9.2 33.4 9.13C33.39 9.07 33.38 9 33.36 8.94C33.34 8.88 33.33 8.81 33.3 8.75C33.28 8.69 33.26 8.63 33.23 8.57C32.84 7.76 32.33 7.03 31.7 6.39C31.07 5.75 30.35 5.22 29.54 4.83C29.48 4.8 29.42 4.77 29.36 4.75C29.3 4.72 29.24 4.7 29.17 4.69C29.11 4.67 29.05 4.66 28.98 4.65C28.92 4.63 28.85 4.63 28.79 4.62L28.59 4.62C28.52 4.62 28.46 4.63 28.39 4.64C28.33 4.64 28.27 4.66 28.2 4.67C28.14 4.68 28.07 4.7 28.01 4.72C27.95 4.74 27.89 4.77 27.83 4.8C27.77 4.82 27.71 4.85 27.66 4.89C27.6 4.92 27.54 4.95 27.49 4.99L27.34 5.11C27.29 5.16 27.24 5.2 27.2 5.25C27.15 5.3 27.11 5.35 27.07 5.4C27.03 5.45 26.99 5.5 26.96 5.56C26.92 5.62 26.89 5.67 26.86 5.73C26.8 5.85 26.76 5.97 26.72 6.1C26.69 6.23 26.67 6.35 26.66 6.49C26.65 6.62 26.65 6.75 26.67 6.88C26.69 7.01 26.72 7.13 26.76 7.26C26.8 7.38 26.85 7.5 26.92 7.62C26.99 7.73 27.06 7.84 27.15 7.94C27.23 8.03 27.33 8.12 27.43 8.2C27.54 8.28 27.65 8.35 27.77 8.41C28.17 8.61 28.53 8.87 28.85 9.19C29.17 9.52 29.42 9.88 29.62 10.29C29.67 10.41 29.74 10.52 29.82 10.62C29.9 10.73 29.98 10.83 30.08 10.91ZM7.97 11.53C7.95 11.47 7.94 11.4 7.92 11.34C7.9 11.28 7.88 11.21 7.85 11.15C7.83 11.09 7.8 11.03 7.77 10.98C7.74 10.92 7.71 10.86 7.67 10.81C7.64 10.75 7.6 10.7 7.56 10.65C7.52 10.6 7.47 10.55 7.43 10.5C7.38 10.45 7.33 10.41 7.28 10.37C7.23 10.33 7.18 10.29 7.12 10.25C7.07 10.21 7.01 10.18 6.96 10.15L6.78 10.06C6.72 10.04 6.66 10.01 6.6 10C6.53 9.98 6.47 9.96 6.41 9.95C6.34 9.93 6.28 9.92 6.21 9.92C6.15 9.91 6.08 9.91 6.02 9.9C5.95 9.9 5.89 9.91 5.82 9.91C5.76 9.92 5.69 9.93 5.63 9.94C5.56 9.95 5.5 9.97 5.44 9.99C5.37 10 5.31 10.03 5.25 10.05C5.19 10.08 5.13 10.1 5.07 10.13C5.01 10.16 4.96 10.2 4.9 10.23C4.85 10.27 4.8 10.31 4.74 10.35C4.69 10.39 4.64 10.43 4.6 10.48L4.46 10.62C4.42 10.67 4.38 10.73 4.35 10.78C4.31 10.83 4.28 10.89 4.24 10.95C4.21 11.01 4.18 11.06 4.16 11.12C4.13 11.19 4.11 11.25 4.09 11.31C4.07 11.37 4.06 11.43 4.04 11.5C4.03 11.56 4.02 11.63 4.01 11.69C4.01 11.76 4 11.82 4 11.89L4 15.91C4 15.97 4 16.04 4.01 16.1C4.02 16.17 4.03 16.23 4.04 16.3C4.05 16.36 4.07 16.43 4.09 16.49L4.15 16.67L4.24 16.85C4.27 16.91 4.3 16.97 4.34 17.02C4.37 17.07 4.41 17.13 4.45 17.18C4.5 17.23 4.54 17.28 4.59 17.32C4.63 17.37 4.68 17.41 4.73 17.45C4.78 17.5 4.83 17.53 4.89 17.57C4.94 17.61 5 17.64 5.06 17.67C5.11 17.7 5.17 17.73 5.23 17.76C5.3 17.78 5.36 17.8 5.42 17.82C5.48 17.84 5.55 17.86 5.61 17.87C5.67 17.88 5.74 17.89 5.8 17.9C5.87 17.91 5.93 17.91 6 17.91C6.07 17.91 6.13 17.91 6.2 17.9C6.26 17.89 6.33 17.88 6.39 17.87C6.45 17.86 6.52 17.84 6.58 17.82C6.64 17.8 6.7 17.78 6.77 17.76C6.83 17.73 6.89 17.7 6.94 17.67C7 17.64 7.06 17.61 7.11 17.57C7.17 17.53 7.22 17.5 7.27 17.45C7.32 17.41 7.37 17.37 7.41 17.32C7.46 17.28 7.5 17.23 7.55 17.18C7.59 17.13 7.63 17.07 7.66 17.02C7.7 16.97 7.73 16.91 7.76 16.85L7.85 16.67L7.91 16.49C7.93 16.43 7.95 16.36 7.96 16.3C7.97 16.23 7.98 16.17 7.99 16.1C8 16.04 8 15.97 8 15.91L8 11.92C8 11.85 8 11.79 7.99 11.72C7.99 11.66 7.98 11.59 7.97 11.53ZM30 18L22 18C21.25 18 20.55 18.2 19.91 18.59C19.91 18.59 19.91 18.59 19.91 18.59C19.64 18.76 19.39 18.95 19.17 19.17C18.8 19.54 18.52 19.97 18.31 20.45C18.1 20.94 18 21.46 18 22L18 30L26 30C26.54 30 27.06 29.9 27.55 29.69C28.03 29.48 28.46 29.2 28.83 28.83C29.02 28.64 29.18 28.44 29.32 28.23C29.34 28.2 29.36 28.17 29.38 28.15C29.49 27.96 29.6 27.76 29.69 27.56C29.88 27.1 29.99 26.62 30 26.1C30 26.07 30 26.03 30 26L30 19.36L30 18ZM34 17.55C34.05 17.5 34.1 17.46 34.14 17.41C34.19 17.37 34.23 17.32 34.27 17.27C34.32 17.22 34.35 17.17 34.39 17.11C34.43 17.06 34.46 17 34.49 16.94C34.52 16.89 34.55 16.83 34.58 16.77C34.6 16.7 34.62 16.64 34.64 16.58C34.66 16.52 34.68 16.45 34.69 16.39C34.7 16.33 34.71 16.26 34.72 16.2C34.72 16.13 34.73 16.07 34.73 16C34.73 15.93 34.72 15.87 34.72 15.8C34.71 15.74 34.7 15.67 34.69 15.61C34.68 15.55 34.66 15.48 34.64 15.42C34.62 15.36 34.6 15.3 34.58 15.23C34.55 15.17 34.52 15.11 34.49 15.06C34.46 15 34.43 14.94 34.39 14.89C34.35 14.83 34.32 14.78 34.27 14.73C34.23 14.68 34.19 14.63 34.14 14.59C34.1 14.54 34.05 14.5 34 14.45C33.95 14.41 33.89 14.37 33.84 14.34C33.78 14.3 33.73 14.27 33.67 14.24L33.65 14.23C33.62 14.19 33.58 14.14 33.55 14.1C33.5 14.04 33.46 14 33.41 13.95C33.37 13.9 33.32 13.86 33.27 13.82C33.22 13.78 33.17 13.74 33.11 13.7C33.06 13.66 33 13.63 32.94 13.6C32.89 13.57 32.83 13.54 32.77 13.52C32.7 13.49 32.64 13.47 32.58 13.45C32.52 13.43 32.45 13.42 32.39 13.4C32.33 13.39 32.26 13.38 32.2 13.37C32.13 13.37 32.07 13.36 32 13.36C31.93 13.36 31.87 13.37 31.8 13.37C31.74 13.38 31.67 13.39 31.61 13.4C31.55 13.42 31.48 13.43 31.42 13.45C31.36 13.47 31.3 13.49 31.23 13.52C31.17 13.54 31.12 13.57 31.06 13.6C31 13.63 30.94 13.66 30.89 13.7C30.83 13.74 30.78 13.78 30.73 13.82C30.68 13.86 30.63 13.9 30.59 13.95C30.57 13.97 30.56 13.98 30.54 14L22 14C21.26 14 20.53 14.1 19.82 14.3C19.67 14.34 19.52 14.39 19.37 14.44C18.83 14.63 18.31 14.88 17.82 15.18C17.78 15.2 17.75 15.22 17.72 15.24C17.22 15.56 16.76 15.92 16.34 16.34C15.61 17.08 15.04 17.93 14.63 18.89C14.23 19.83 14.02 20.82 14 21.84C14 21.86 14 21.87 14 21.89L14 30L12 30C11.2 30 10.47 29.78 9.81 29.35C9.75 29.31 9.7 29.28 9.64 29.25L9.46 29.16L9.28 29.1C9.21 29.08 9.15 29.06 9.09 29.05C9.02 29.04 8.96 29.03 8.89 29.02L8.7 29.02C8.63 29.02 8.57 29.02 8.5 29.03C8.43 29.03 8.37 29.04 8.31 29.06C8.24 29.07 8.18 29.09 8.12 29.11C8.05 29.13 7.99 29.15 7.93 29.17L7.75 29.26C7.7 29.29 7.64 29.33 7.59 29.36C7.53 29.4 7.48 29.44 7.43 29.48C7.38 29.52 7.33 29.57 7.29 29.61C7.24 29.66 7.2 29.71 7.16 29.76C7.11 29.81 7.08 29.86 7.04 29.92C6.97 30.03 6.91 30.14 6.86 30.26C6.81 30.39 6.77 30.51 6.75 30.64C6.72 30.77 6.71 30.9 6.71 31.03C6.71 31.16 6.73 31.29 6.75 31.42C6.78 31.55 6.82 31.67 6.87 31.8C6.92 31.92 6.98 32.03 7.06 32.14C7.13 32.25 7.21 32.35 7.31 32.44C7.4 32.53 7.5 32.62 7.61 32.69C8.25 33.11 8.94 33.43 9.67 33.65C10.43 33.88 11.2 34 12 34L14 34L14 35.91C14 35.97 14 36.04 14.01 36.1C14.02 36.17 14.03 36.23 14.04 36.3C14.05 36.36 14.07 36.43 14.09 36.49L14.15 36.67L14.24 36.85C14.27 36.91 14.3 36.97 14.34 37.02C14.37 37.07 14.41 37.13 14.45 37.18C14.5 37.23 14.54 37.28 14.59 37.32C14.63 37.37 14.68 37.41 14.73 37.45C14.78 37.5 14.83 37.53 14.89 37.57C14.94 37.61 15 37.64 15.06 37.67C15.11 37.7 15.17 37.73 15.23 37.76C15.3 37.78 15.36 37.8 15.42 37.82C15.48 37.84 15.55 37.86 15.61 37.87C15.67 37.88 15.74 37.89 15.8 37.9C15.87 37.91 15.93 37.91 16 37.91C16.07 37.91 16.13 37.91 16.2 37.9C16.26 37.89 16.33 37.88 16.39 37.87C16.45 37.86 16.52 37.84 16.58 37.82C16.64 37.8 16.7 37.78 16.77 37.76C16.83 37.73 16.89 37.7 16.94 37.67C17 37.64 17.06 37.61 17.11 37.57C17.17 37.53 17.22 37.5 17.27 37.45C17.32 37.41 17.37 37.37 17.41 37.32C17.46 37.28 17.5 37.23 17.55 37.18C17.59 37.13 17.63 37.07 17.66 37.02C17.7 36.97 17.73 36.91 17.76 36.85L17.85 36.67L17.91 36.49C17.93 36.43 17.95 36.36 17.96 36.3C17.97 36.23 17.98 36.17 17.99 36.1C18 36.04 18 35.97 18 35.91L18 34L26 34C26.02 34 26.03 34 26.05 34C27.11 33.99 28.14 33.78 29.11 33.37C30.07 32.96 30.92 32.39 31.66 31.66C32.1 31.21 32.49 30.72 32.81 30.19C33.07 29.78 33.28 29.36 33.45 28.92C33.82 27.99 34 27.01 34 26L34 25.36L34 17.55ZM40.08 20.91C40.18 21 40.28 21.08 40.4 21.15C40.51 21.22 40.63 21.27 40.75 21.31C40.88 21.36 41 21.39 41.13 21.41C41.26 21.43 41.39 21.43 41.52 21.43C41.66 21.42 41.78 21.4 41.91 21.37C42.04 21.34 42.16 21.29 42.28 21.24C42.34 21.21 42.4 21.18 42.45 21.14C42.51 21.11 42.56 21.07 42.62 21.03L42.77 20.91C42.82 20.87 42.86 20.82 42.91 20.77L43.03 20.62C43.07 20.57 43.11 20.51 43.14 20.45C43.17 20.4 43.2 20.34 43.23 20.28C43.26 20.22 43.28 20.16 43.31 20.1C43.33 20.04 43.35 19.98 43.36 19.91C43.38 19.85 43.39 19.78 43.4 19.72C43.41 19.65 43.42 19.59 43.42 19.52L43.42 19.33C43.42 19.26 43.41 19.2 43.4 19.13C43.39 19.07 43.38 19 43.36 18.94C43.34 18.88 43.33 18.81 43.3 18.75C43.28 18.69 43.26 18.63 43.23 18.57C42.84 17.76 42.33 17.03 41.7 16.39C41.07 15.75 40.35 15.22 39.54 14.83C39.48 14.8 39.42 14.77 39.36 14.75C39.3 14.72 39.24 14.7 39.17 14.69C39.11 14.67 39.05 14.66 38.98 14.65C38.92 14.63 38.85 14.63 38.79 14.62L38.59 14.62C38.52 14.62 38.46 14.63 38.39 14.64C38.33 14.64 38.27 14.66 38.2 14.67C38.14 14.68 38.07 14.7 38.01 14.72C37.95 14.74 37.89 14.77 37.83 14.8C37.77 14.82 37.71 14.85 37.66 14.89C37.6 14.92 37.54 14.95 37.49 14.99L37.34 15.11C37.29 15.16 37.24 15.2 37.2 15.25C37.15 15.3 37.11 15.35 37.07 15.4C37.03 15.45 36.99 15.5 36.96 15.56C36.92 15.62 36.89 15.67 36.86 15.73C36.8 15.85 36.76 15.97 36.72 16.1C36.69 16.23 36.67 16.35 36.66 16.49C36.65 16.62 36.65 16.75 36.67 16.88C36.69 17.01 36.72 17.13 36.76 17.26C36.8 17.38 36.85 17.5 36.92 17.62C36.99 17.73 37.06 17.84 37.15 17.94C37.23 18.03 37.33 18.12 37.43 18.2C37.54 18.28 37.65 18.35 37.77 18.41C38.17 18.61 38.53 18.87 38.85 19.19C39.17 19.52 39.42 19.88 39.62 20.29C39.67 20.41 39.74 20.52 39.82 20.62C39.9 20.73 39.98 20.83 40.08 20.91ZM7.96 21.52C7.95 21.45 7.93 21.39 7.91 21.33C7.89 21.27 7.87 21.2 7.85 21.14C7.82 21.08 7.79 21.02 7.76 20.97C7.73 20.91 7.7 20.85 7.66 20.8C7.63 20.74 7.59 20.69 7.55 20.64C7.5 20.59 7.46 20.54 7.41 20.49C7.37 20.45 7.32 20.4 7.27 20.36C7.22 20.32 7.17 20.28 7.11 20.25C7.06 20.21 7 20.18 6.94 20.14C6.89 20.11 6.83 20.09 6.77 20.06C6.7 20.04 6.64 20.01 6.58 19.99C6.52 19.98 6.45 19.96 6.39 19.95C6.33 19.93 6.26 19.92 6.2 19.92C6.13 19.91 6.07 19.91 6 19.91C5.93 19.91 5.87 19.91 5.8 19.92C5.74 19.92 5.67 19.93 5.61 19.95C5.55 19.96 5.48 19.98 5.42 19.99C5.36 20.01 5.3 20.04 5.23 20.06C5.17 20.09 5.11 20.11 5.06 20.14C5 20.18 4.94 20.21 4.89 20.25C4.83 20.28 4.78 20.32 4.73 20.36C4.68 20.4 4.63 20.45 4.59 20.49C4.54 20.54 4.5 20.59 4.45 20.64C4.41 20.69 4.37 20.74 4.34 20.8C4.3 20.85 4.27 20.91 4.24 20.97C4.21 21.02 4.18 21.08 4.15 21.14C4.13 21.2 4.11 21.27 4.09 21.33C4.07 21.39 4.05 21.45 4.04 21.52C4.03 21.58 4.02 21.65 4.01 21.71C4 21.78 4 21.84 4 21.91L4 25.91C4 25.97 4 26.04 4.01 26.1C4.02 26.17 4.03 26.23 4.04 26.3C4.05 26.36 4.07 26.43 4.09 26.49L4.15 26.67L4.24 26.85C4.27 26.91 4.3 26.97 4.34 27.02C4.37 27.07 4.41 27.13 4.45 27.18C4.5 27.23 4.54 27.28 4.59 27.32C4.63 27.37 4.68 27.41 4.73 27.45C4.78 27.5 4.83 27.53 4.89 27.57C4.94 27.61 5 27.64 5.06 27.67C5.11 27.7 5.17 27.73 5.23 27.76C5.3 27.78 5.36 27.8 5.42 27.82C5.48 27.84 5.55 27.86 5.61 27.87C5.67 27.88 5.74 27.89 5.8 27.9C5.87 27.91 5.93 27.91 6 27.91C6.07 27.91 6.13 27.91 6.2 27.9C6.26 27.89 6.33 27.88 6.39 27.87C6.45 27.86 6.52 27.84 6.58 27.82C6.64 27.8 6.7 27.78 6.77 27.76C6.83 27.73 6.89 27.7 6.94 27.67C7 27.64 7.06 27.61 7.11 27.57C7.17 27.53 7.22 27.5 7.27 27.45C7.32 27.41 7.37 27.37 7.41 27.32C7.46 27.28 7.5 27.23 7.55 27.18C7.59 27.13 7.63 27.07 7.66 27.02C7.7 26.97 7.73 26.91 7.76 26.85L7.85 26.67L7.91 26.49C7.93 26.43 7.95 26.36 7.96 26.3C7.97 26.23 7.98 26.17 7.99 26.1C8 26.04 8 25.97 8 25.91L8 21.91C8 21.84 8 21.78 7.99 21.71C7.98 21.65 7.97 21.58 7.96 21.52ZM40.04 29.75C40.05 29.82 40.07 29.88 40.09 29.94C40.11 30.01 40.13 30.07 40.15 30.13L40.24 30.31C40.27 30.36 40.3 30.42 40.34 30.48C40.37 30.53 40.41 30.58 40.45 30.63C40.5 30.68 40.54 30.73 40.59 30.78C40.63 30.82 40.68 30.87 40.73 30.91C40.78 30.95 40.83 30.99 40.89 31.03C40.94 31.06 41 31.1 41.06 31.13C41.12 31.16 41.17 31.19 41.23 31.21C41.3 31.24 41.36 31.26 41.42 31.28C41.48 31.3 41.55 31.31 41.61 31.33C41.67 31.34 41.74 31.35 41.8 31.35C41.87 31.36 41.93 31.36 42 31.36C42.07 31.36 42.13 31.36 42.2 31.35C42.26 31.35 42.33 31.34 42.39 31.33C42.45 31.31 42.52 31.3 42.58 31.28C42.64 31.26 42.7 31.24 42.77 31.21C42.83 31.19 42.89 31.16 42.94 31.13C43 31.1 43.06 31.06 43.11 31.03C43.17 30.99 43.22 30.95 43.27 30.91C43.32 30.87 43.37 30.82 43.41 30.78C43.46 30.73 43.5 30.68 43.55 30.63C43.59 30.58 43.63 30.53 43.66 30.48C43.7 30.42 43.73 30.36 43.76 30.31L43.85 30.13C43.87 30.07 43.89 30.01 43.91 29.94C43.93 29.88 43.95 29.82 43.96 29.75C43.97 29.69 43.98 29.63 43.99 29.56C44 29.49 44 29.43 44 29.36L44 25.36C44 25.3 44 25.23 43.99 25.17C43.98 25.1 43.97 25.04 43.96 24.97C43.95 24.91 43.93 24.85 43.91 24.78L43.85 24.6L43.76 24.42C43.73 24.36 43.7 24.31 43.66 24.25C43.63 24.2 43.59 24.15 43.55 24.1C43.5 24.04 43.46 24 43.41 23.95C43.37 23.9 43.32 23.86 43.27 23.82C43.22 23.78 43.17 23.74 43.11 23.7C43.06 23.66 43 23.63 42.94 23.6C42.89 23.57 42.83 23.54 42.77 23.52C42.7 23.49 42.64 23.47 42.58 23.45C42.52 23.43 42.45 23.42 42.39 23.4C42.33 23.39 42.26 23.38 42.2 23.37C42.13 23.37 42.07 23.36 42 23.36C41.93 23.36 41.87 23.37 41.8 23.37C41.74 23.38 41.67 23.39 41.61 23.4C41.55 23.42 41.48 23.43 41.42 23.45C41.36 23.47 41.3 23.49 41.23 23.52C41.17 23.54 41.12 23.57 41.06 23.6C41 23.63 40.94 23.66 40.89 23.7C40.83 23.74 40.78 23.78 40.73 23.82C40.68 23.86 40.63 23.9 40.59 23.95C40.54 24 40.5 24.04 40.45 24.1C40.41 24.15 40.37 24.2 40.34 24.25C40.3 24.31 40.27 24.36 40.24 24.42L40.15 24.6L40.09 24.78C40.07 24.85 40.05 24.91 40.04 24.97C40.03 25.04 40.02 25.1 40.01 25.17C40 25.23 40 25.3 40 25.36L40 29.36C40 29.43 40 29.49 40.01 29.56C40.02 29.63 40.03 29.69 40.04 29.75ZM39.2 38.49C39.18 38.55 39.16 38.61 39.14 38.68C39.12 38.74 39.11 38.8 39.1 38.87C39.09 38.93 39.08 39 39.07 39.06L39.07 39.26C39.07 39.32 39.07 39.39 39.08 39.45C39.09 39.52 39.1 39.58 39.11 39.65C39.13 39.71 39.15 39.77 39.17 39.84C39.19 39.9 39.21 39.96 39.24 40.02C39.26 40.08 39.29 40.14 39.32 40.19C39.36 40.25 39.39 40.31 39.43 40.36C39.47 40.41 39.51 40.47 39.55 40.52C39.59 40.57 39.64 40.61 39.68 40.66C39.73 40.7 39.78 40.75 39.83 40.79C39.88 40.83 39.94 40.86 39.99 40.9C40.05 40.93 40.11 40.97 40.16 41C40.22 41.03 40.28 41.05 40.34 41.08C40.4 41.1 40.47 41.12 40.53 41.14C40.59 41.16 40.66 41.17 40.72 41.18C40.79 41.19 40.85 41.2 40.92 41.21L41.11 41.21C41.18 41.21 41.24 41.21 41.31 41.2C41.37 41.19 41.44 41.18 41.5 41.16C41.57 41.15 41.63 41.13 41.69 41.11C41.75 41.09 41.81 41.07 41.87 41.04C41.93 41.02 41.99 40.99 42.05 40.95C42.11 40.92 42.16 40.89 42.22 40.85L42.37 40.73C42.42 40.69 42.47 40.64 42.51 40.59C42.56 40.55 42.6 40.5 42.64 40.45C42.68 40.39 42.72 40.34 42.75 40.29C43.16 39.65 43.46 38.98 43.67 38.27C43.89 37.53 44 36.77 44 36L44 35.36C44 35.3 44 35.23 43.99 35.17C43.98 35.1 43.97 35.04 43.96 34.97C43.95 34.91 43.93 34.85 43.91 34.78L43.85 34.6L43.76 34.42C43.73 34.36 43.7 34.31 43.66 34.25C43.63 34.2 43.59 34.15 43.55 34.1C43.5 34.04 43.46 34 43.41 33.95C43.37 33.9 43.32 33.86 43.27 33.82C43.22 33.78 43.17 33.74 43.11 33.7C43.06 33.66 43 33.63 42.94 33.6C42.89 33.57 42.83 33.54 42.77 33.52C42.7 33.49 42.64 33.47 42.58 33.45C42.52 33.43 42.45 33.42 42.39 33.4C42.33 33.39 42.26 33.38 42.2 33.37C42.13 33.37 42.07 33.36 42 33.36C41.93 33.36 41.87 33.37 41.8 33.37C41.74 33.38 41.67 33.39 41.61 33.4C41.55 33.42 41.48 33.43 41.42 33.45C41.36 33.47 41.3 33.49 41.23 33.52C41.17 33.54 41.12 33.57 41.06 33.6C41 33.63 40.94 33.66 40.89 33.7C40.83 33.74 40.78 33.78 40.73 33.82C40.68 33.86 40.63 33.9 40.59 33.95C40.54 34 40.5 34.04 40.45 34.1C40.41 34.15 40.37 34.2 40.34 34.25C40.3 34.31 40.27 34.36 40.24 34.42L40.15 34.6L40.09 34.78C40.07 34.85 40.05 34.91 40.04 34.97C40.03 35.04 40.02 35.1 40.01 35.17C40 35.23 40 35.3 40 35.36L40 36C40 36.78 39.79 37.49 39.38 38.14C39.34 38.19 39.31 38.25 39.28 38.31C39.25 38.37 39.23 38.43 39.2 38.49ZM19.46 39.16L19.28 39.1C19.21 39.08 19.15 39.06 19.09 39.05C19.02 39.04 18.96 39.03 18.89 39.02L18.7 39.02C18.63 39.02 18.57 39.02 18.5 39.03C18.43 39.03 18.37 39.04 18.31 39.06C18.24 39.07 18.18 39.09 18.12 39.11C18.05 39.13 17.99 39.15 17.93 39.17L17.75 39.26C17.7 39.29 17.64 39.33 17.59 39.36C17.53 39.4 17.48 39.44 17.43 39.48C17.38 39.52 17.33 39.57 17.29 39.61C17.24 39.66 17.2 39.71 17.16 39.76C17.11 39.81 17.08 39.86 17.04 39.92C16.97 40.03 16.91 40.14 16.86 40.26C16.81 40.39 16.77 40.51 16.75 40.64C16.72 40.77 16.71 40.9 16.71 41.03C16.71 41.16 16.73 41.29 16.75 41.42C16.78 41.55 16.82 41.67 16.87 41.8C16.92 41.92 16.98 42.03 17.06 42.14C17.13 42.25 17.21 42.35 17.31 42.44C17.4 42.53 17.5 42.62 17.61 42.69C18.25 43.11 18.94 43.43 19.67 43.65C20.43 43.88 21.2 44 22 44L26 44C26.07 44 26.13 44 26.2 43.99C26.26 43.98 26.33 43.97 26.39 43.96C26.45 43.95 26.52 43.93 26.58 43.91C26.64 43.89 26.7 43.87 26.77 43.85C26.83 43.82 26.89 43.79 26.94 43.76C27 43.73 27.06 43.7 27.11 43.66C27.17 43.63 27.22 43.59 27.27 43.55C27.32 43.5 27.37 43.46 27.41 43.41C27.46 43.37 27.5 43.32 27.55 43.27C27.59 43.22 27.63 43.17 27.66 43.11C27.7 43.06 27.73 43 27.76 42.94C27.79 42.89 27.82 42.83 27.85 42.77C27.87 42.7 27.89 42.64 27.91 42.58C27.93 42.52 27.95 42.45 27.96 42.39C27.97 42.33 27.98 42.26 27.99 42.2C28 42.13 28 42.07 28 42C28 41.93 28 41.87 27.99 41.8C27.98 41.74 27.97 41.67 27.96 41.61C27.95 41.55 27.93 41.48 27.91 41.42C27.89 41.36 27.87 41.3 27.85 41.23C27.82 41.17 27.79 41.12 27.76 41.06C27.73 41 27.7 40.94 27.66 40.89C27.63 40.83 27.59 40.78 27.55 40.73C27.5 40.68 27.46 40.63 27.41 40.59C27.37 40.54 27.32 40.5 27.27 40.45C27.22 40.41 27.17 40.37 27.11 40.34C27.06 40.3 27 40.27 26.94 40.24C26.89 40.21 26.83 40.18 26.77 40.15C26.7 40.13 26.64 40.11 26.58 40.09C26.52 40.07 26.45 40.05 26.39 40.04C26.33 40.03 26.26 40.02 26.2 40.01C26.13 40 26.07 40 26 40L22 40C21.2 40 20.47 39.78 19.81 39.35C19.75 39.31 19.7 39.28 19.64 39.25L19.46 39.16ZM31.61 40.04C31.55 40.05 31.48 40.07 31.42 40.09C31.36 40.11 31.3 40.13 31.23 40.15C31.17 40.18 31.12 40.21 31.06 40.24C31 40.27 30.94 40.3 30.89 40.34C30.83 40.37 30.78 40.41 30.73 40.45C30.68 40.5 30.63 40.54 30.59 40.59C30.54 40.63 30.5 40.68 30.45 40.73C30.41 40.78 30.37 40.83 30.34 40.89C30.3 40.94 30.27 41 30.24 41.06C30.21 41.12 30.18 41.17 30.15 41.23C30.13 41.3 30.11 41.36 30.09 41.42C30.07 41.48 30.05 41.55 30.04 41.61C30.03 41.67 30.02 41.74 30.01 41.8C30 41.87 30 41.93 30 42C30 42.07 30 42.13 30.01 42.2C30.02 42.26 30.03 42.33 30.04 42.39C30.05 42.45 30.07 42.52 30.09 42.58C30.11 42.64 30.13 42.7 30.15 42.77C30.18 42.83 30.21 42.89 30.24 42.94C30.27 43 30.3 43.06 30.34 43.11C30.37 43.17 30.41 43.22 30.45 43.27C30.5 43.32 30.54 43.37 30.59 43.41C30.63 43.46 30.68 43.5 30.73 43.55C30.78 43.59 30.83 43.63 30.89 43.66C30.94 43.7 31 43.73 31.06 43.76C31.12 43.79 31.17 43.82 31.23 43.85C31.3 43.87 31.36 43.89 31.42 43.91C31.48 43.93 31.55 43.95 31.61 43.96C31.67 43.97 31.74 43.98 31.8 43.99C31.87 44 31.93 44 32 44L36 44C36.07 44 36.13 44 36.2 43.99C36.26 43.98 36.33 43.97 36.39 43.96C36.45 43.95 36.52 43.93 36.58 43.91C36.64 43.89 36.7 43.87 36.77 43.85C36.83 43.82 36.89 43.79 36.94 43.76C37 43.73 37.06 43.7 37.11 43.66C37.17 43.63 37.22 43.59 37.27 43.55C37.32 43.5 37.37 43.46 37.41 43.41C37.46 43.37 37.5 43.32 37.55 43.27C37.59 43.22 37.63 43.17 37.66 43.11C37.7 43.06 37.73 43 37.76 42.94C37.79 42.89 37.82 42.83 37.85 42.77C37.87 42.7 37.89 42.64 37.91 42.58C37.93 42.52 37.95 42.45 37.96 42.39C37.97 42.33 37.98 42.26 37.99 42.2C38 42.13 38 42.07 38 42C38 41.93 38 41.87 37.99 41.8C37.98 41.74 37.97 41.67 37.96 41.61C37.95 41.55 37.93 41.48 37.91 41.42C37.89 41.36 37.87 41.3 37.85 41.23C37.82 41.17 37.79 41.12 37.76 41.06C37.73 41 37.7 40.94 37.66 40.89C37.63 40.83 37.59 40.78 37.55 40.73C37.5 40.68 37.46 40.63 37.41 40.59C37.37 40.54 37.32 40.5 37.27 40.45C37.22 40.41 37.17 40.37 37.11 40.34C37.06 40.3 37 40.27 36.94 40.24C36.89 40.21 36.83 40.18 36.77 40.15C36.7 40.13 36.64 40.11 36.58 40.09C36.52 40.07 36.45 40.05 36.39 40.04C36.33 40.03 36.26 40.02 36.2 40.01C36.13 40 36.07 40 36 40L32 40C31.93 40 31.87 40 31.8 40.01C31.74 40.02 31.67 40.03 31.61 40.04Z">
</path>
</svg>
