<svg xmlns="http://www.w3.org/2000/svg" xmlns:xlink="http://www.w3.org/1999/xlink" width="48" height="48" viewBox="0 0 48 48" fill="none">
<path d="M27 42.9871C27 42.9171 27 42.8571 26.99 42.7871C26.98 42.7271 26.97 42.6571 26.96 42.5971C26.95 42.5371 26.93 42.4671 26.91 42.4071C26.89 42.3471 26.87 42.2771 26.85 42.2171C26.82 42.1571 26.79 42.0971 26.76 42.0471C26.73 41.9871 26.7 41.9271 26.66 41.8771C26.63 41.8171 26.59 41.7671 26.55 41.7171C26.5 41.6671 26.46 41.6171 26.41 41.5771C26.37 41.5271 26.32 41.4871 26.27 41.4371C26.22 41.3971 26.17 41.3571 26.11 41.3271C26.06 41.2871 26 41.2571 25.94 41.2271C25.88 41.1971 25.83 41.1671 25.77 41.1371C25.7 41.1171 25.64 41.0971 25.58 41.0771C25.52 41.0571 25.45 41.0371 25.39 41.0271C25.33 41.0171 25.26 41.0071 25.2 40.9971C25.13 40.9871 25.07 40.9871 25 40.9871L22.47 40.9871L29.62 7.00707L33 7.00707C33.13 7.00707 33.26 6.99707 33.39 6.96707C33.52 6.94707 33.64 6.90707 33.77 6.85707C33.89 6.80707 34 6.74707 34.11 6.66707C34.22 6.59707 34.32 6.51707 34.41 6.41707C34.51 6.32707 34.59 6.22707 34.66 6.11707C34.74 6.00707 34.8 5.89707 34.85 5.77707C34.9 5.64707 34.94 5.52707 34.96 5.39707C34.99 5.26707 35 5.13707 35 5.00707C35 4.93707 35 4.87707 34.99 4.80707C34.98 4.74707 34.97 4.67707 34.96 4.61707C34.95 4.55707 34.93 4.48707 34.91 4.42707C34.89 4.36707 34.87 4.29707 34.85 4.23707C34.82 4.17707 34.79 4.11707 34.76 4.06707C34.73 4.00707 34.7 3.94707 34.66 3.89707C34.63 3.83707 34.59 3.78707 34.55 3.73707C34.5 3.68707 34.46 3.63707 34.41 3.59707C34.37 3.54707 34.32 3.50707 34.27 3.45707C34.22 3.41707 34.17 3.37707 34.11 3.34707C34.06 3.30707 34 3.27707 33.94 3.24707C33.88 3.21707 33.83 3.18707 33.77 3.15707C33.7 3.13707 33.64 3.11707 33.58 3.09707C33.52 3.07707 33.45 3.05707 33.39 3.04707C33.33 3.03707 33.26 3.02707 33.2 3.01707C33.13 3.00707 33.07 3.00707 33 3.00707L28.21 3.00707C28.15 2.99707 28.09 2.99707 28.03 2.99707C27.96 2.99707 27.91 2.99707 27.84 3.00707L23 3.00707C22.93 3.00707 22.87 3.00707 22.8 3.01707C22.74 3.02707 22.67 3.03707 22.61 3.04707C22.55 3.05707 22.48 3.07707 22.42 3.09707C22.36 3.11707 22.29 3.13707 22.23 3.15707C22.17 3.18707 22.11 3.21707 22.06 3.24707C22 3.27707 21.94 3.30707 21.89 3.34707C21.83 3.37707 21.78 3.41707 21.73 3.46707C21.68 3.50707 21.63 3.54707 21.59 3.59707C21.54 3.63707 21.5 3.68707 21.45 3.73707C21.41 3.78707 21.37 3.84707 21.34 3.89707C21.3 3.94707 21.27 4.00707 21.24 4.06707L21.15 4.24707L21.09 4.42707C21.07 4.48707 21.05 4.55707 21.04 4.61707C21.03 4.68707 21.02 4.74707 21.01 4.81707C21 4.87707 21 4.94707 21 5.00707C21 5.07707 21 5.13707 21.01 5.20707C21.02 5.26707 21.03 5.33707 21.04 5.39707C21.05 5.46707 21.07 5.52707 21.09 5.58707C21.11 5.64707 21.13 5.71707 21.15 5.77707C21.18 5.83707 21.21 5.89707 21.24 5.94707C21.27 6.00707 21.3 6.06707 21.34 6.11707C21.37 6.17707 21.41 6.22707 21.45 6.27707C21.5 6.32707 21.54 6.37707 21.59 6.42707C21.63 6.46707 21.68 6.51707 21.73 6.55707C21.78 6.59707 21.83 6.63707 21.89 6.66707C21.94 6.70707 22 6.73707 22.06 6.77707C22.12 6.80707 22.17 6.82707 22.23 6.85707C22.3 6.87707 22.36 6.90707 22.42 6.92707C22.48 6.93707 22.55 6.95707 22.61 6.96707C22.67 6.98707 22.74 6.99707 22.8 6.99707C22.87 7.00707 22.93 7.00707 23 7.00707L25.53 7.00707L18.38 40.9871L15 40.9871C14.93 40.9871 14.87 40.9871 14.8 40.9971C14.74 41.0071 14.67 41.0171 14.61 41.0271C14.55 41.0371 14.48 41.0571 14.42 41.0771C14.36 41.0971 14.29 41.1171 14.23 41.1371C14.17 41.1671 14.11 41.1971 14.06 41.2271C14 41.2571 13.94 41.2871 13.89 41.3271C13.83 41.3571 13.78 41.3971 13.73 41.4471C13.68 41.4871 13.63 41.5271 13.59 41.5771C13.54 41.6171 13.5 41.6671 13.45 41.7171C13.41 41.7671 13.37 41.8271 13.34 41.8771C13.3 41.9271 13.27 41.9871 13.24 42.0471L13.15 42.2271L13.09 42.4071C13.07 42.4671 13.05 42.5371 13.04 42.5971C13.03 42.6671 13.02 42.7271 13.01 42.7971C13 42.8571 13 42.9271 13 42.9871C13 43.0571 13 43.1171 13.01 43.1871C13.02 43.2471 13.03 43.3171 13.04 43.3771C13.05 43.4471 13.07 43.5071 13.09 43.5671C13.11 43.6271 13.13 43.6971 13.15 43.7571C13.18 43.8171 13.21 43.8771 13.24 43.9271C13.27 43.9871 13.3 44.0471 13.34 44.0971C13.37 44.1571 13.41 44.2071 13.45 44.2571C13.5 44.3071 13.54 44.3571 13.59 44.4071C13.63 44.4471 13.68 44.4971 13.73 44.5371C13.78 44.5771 13.83 44.6171 13.89 44.6471C13.94 44.6871 14 44.7171 14.06 44.7571C14.12 44.7871 14.17 44.8071 14.23 44.8371C14.3 44.8571 14.36 44.8871 14.42 44.9071C14.48 44.9171 14.55 44.9371 14.61 44.9471C14.67 44.9671 14.74 44.9771 14.8 44.9771C14.87 44.9871 14.93 44.9871 15 44.9871L19.81 44.9871C19.87 44.9971 19.92 44.9971 19.98 44.9971C20.03 44.9971 20.09 44.9971 20.14 44.9871L25 44.9871C25.13 44.9871 25.26 44.9771 25.39 44.9471C25.52 44.9271 25.64 44.8871 25.77 44.8371C25.89 44.7871 26 44.7271 26.11 44.6471C26.22 44.5771 26.32 44.4971 26.41 44.3971C26.51 44.3071 26.59 44.2071 26.66 44.0971C26.74 43.9871 26.8 43.8771 26.85 43.7571C26.9 43.6271 26.94 43.5071 26.96 43.3771C26.99 43.2471 27 43.1171 27 42.9871Z"   fill="#000000" >
</path>
</svg>
