<svg xmlns="http://www.w3.org/2000/svg" xmlns:xlink="http://www.w3.org/1999/xlink" width="48" height="48" viewBox="0 0 48 48" fill="none">
<path d="M13.92 39.0901C13.86 39.1101 13.8 39.1301 13.73 39.1501C13.67 39.1801 13.61 39.2101 13.56 39.2401C13.5 39.2701 13.44 39.3001 13.39 39.3401C13.33 39.3701 13.28 39.4101 13.23 39.4501C13.18 39.5001 13.13 39.5401 13.09 39.5901C13.04 39.6301 13 39.6801 12.95 39.7301C12.91 39.7801 12.87 39.8301 12.84 39.8901C12.8 39.9401 12.77 40.0001 12.74 40.0601C12.71 40.1101 12.68 40.1701 12.65 40.2301C12.63 40.3001 12.61 40.3601 12.59 40.4201C12.57 40.4801 12.55 40.5501 12.54 40.6101C12.53 40.6701 12.52 40.7401 12.51 40.8001C12.5 40.8701 12.5 40.9301 12.5 41.0001C12.5 41.0701 12.5 41.1301 12.51 41.2001C12.52 41.2601 12.53 41.3301 12.54 41.3901C12.55 41.4501 12.57 41.5201 12.59 41.5801C12.61 41.6401 12.63 41.7001 12.65 41.7701C12.68 41.8301 12.71 41.8901 12.74 41.9401C12.77 42.0001 12.8 42.0601 12.84 42.1101C12.87 42.1701 12.91 42.2201 12.95 42.2701C13 42.3201 13.04 42.3701 13.09 42.4101C13.13 42.4601 13.18 42.5001 13.23 42.5501C13.28 42.5901 13.33 42.6301 13.39 42.6601C13.44 42.7001 13.5 42.7301 13.56 42.7601C13.61 42.7901 13.67 42.8201 13.73 42.8501C13.8 42.8701 13.86 42.8901 13.92 42.9101C13.98 42.9301 14.05 42.9501 14.11 42.9601C14.17 42.9701 14.24 42.9801 14.3 42.9901C14.37 43.0001 14.43 43.0001 14.5 43.0001L19.5 43.0001C19.57 43.0001 19.63 43.0001 19.7 42.9901C19.76 42.9801 19.83 42.9701 19.89 42.9601C19.95 42.9501 20.02 42.9301 20.08 42.9101C20.14 42.8901 20.2 42.8701 20.27 42.8501C20.33 42.8201 20.39 42.7901 20.44 42.7601C20.5 42.7301 20.56 42.7001 20.61 42.6601C20.67 42.6301 20.72 42.5901 20.77 42.5501C20.82 42.5001 20.87 42.4601 20.91 42.4101C20.96 42.3701 21 42.3201 21.05 42.2701C21.09 42.2201 21.13 42.1701 21.16 42.1101C21.2 42.0601 21.23 42.0001 21.26 41.9401C21.29 41.8901 21.32 41.8301 21.35 41.7701C21.37 41.7001 21.39 41.6401 21.41 41.5801C21.43 41.5201 21.45 41.4501 21.46 41.3901C21.47 41.3301 21.48 41.2601 21.49 41.2001C21.5 41.1301 21.5 41.0701 21.5 41.0001C21.5 40.9301 21.5 40.8701 21.49 40.8001C21.48 40.7401 21.47 40.6701 21.46 40.6101C21.45 40.5501 21.43 40.4801 21.41 40.4201C21.39 40.3601 21.37 40.3001 21.35 40.2301C21.32 40.1701 21.29 40.1101 21.26 40.0601C21.23 40.0001 21.2 39.9401 21.16 39.8901C21.13 39.8301 21.09 39.7801 21.05 39.7301C21 39.6801 20.96 39.6301 20.91 39.5901C20.87 39.5401 20.82 39.5001 20.77 39.4501C20.72 39.4101 20.67 39.3701 20.61 39.3401C20.56 39.3001 20.5 39.2701 20.44 39.2401C20.39 39.2101 20.33 39.1801 20.27 39.1501C20.2 39.1301 20.14 39.1101 20.08 39.0901C20.02 39.0701 19.95 39.0501 19.89 39.0401C19.83 39.0301 19.76 39.0201 19.7 39.0101C19.63 39.0001 19.57 39.0001 19.5 39.0001L19 39.0001L19 9.00012L29 9.00012C29.13 9.00012 29.26 8.99012 29.39 8.96012C29.52 8.94012 29.64 8.90012 29.77 8.85012C29.89 8.80012 30 8.74012 30.11 8.66012C30.22 8.59012 30.32 8.51012 30.41 8.41012C30.51 8.32012 30.59 8.22012 30.66 8.11012C30.74 8.00012 30.8 7.89012 30.85 7.77012C30.9 7.64012 30.94 7.52012 30.96 7.39012C30.99 7.26012 31 7.13012 31 7.00012C31 6.93012 31 6.87012 30.99 6.80012C30.98 6.74012 30.97 6.67012 30.96 6.61012C30.95 6.55012 30.93 6.48012 30.91 6.42012C30.89 6.36012 30.87 6.30012 30.85 6.23012C30.82 6.17012 30.79 6.11012 30.76 6.06012C30.73 6.00012 30.7 5.94012 30.66 5.89012C30.63 5.83012 30.59 5.78012 30.55 5.73012C30.5 5.68012 30.46 5.63012 30.41 5.59012C30.37 5.54012 30.32 5.50012 30.27 5.45012C30.22 5.41012 30.17 5.37012 30.11 5.34012C30.06 5.30012 30 5.27012 29.94 5.24012C29.89 5.21012 29.83 5.18012 29.77 5.15012C29.7 5.13012 29.64 5.11012 29.58 5.09012C29.52 5.07012 29.45 5.05012 29.39 5.04012C29.33 5.03012 29.26 5.02012 29.2 5.01012C29.13 5.00012 29.07 5.00012 29 5.00012L5 5.00012C4.93 5.00012 4.87 5.00012 4.8 5.01012C4.74 5.02012 4.67 5.03012 4.61 5.04012C4.55 5.05012 4.48 5.07012 4.42 5.09012C4.36 5.11012 4.3 5.13012 4.23 5.15012C4.17 5.18012 4.11 5.21012 4.06 5.24012C4 5.27012 3.94 5.30012 3.89 5.34012C3.83 5.37012 3.78 5.41012 3.73 5.46012C3.68 5.50012 3.63 5.54012 3.59 5.59012C3.54 5.63012 3.5 5.68012 3.45 5.73012C3.41 5.78012 3.37 5.84012 3.34 5.89012C3.3 5.94012 3.27 6.00012 3.24 6.06012L3.15 6.24012L3.09 6.42012C3.07 6.48012 3.05 6.55012 3.04 6.61012C3.03 6.68012 3.02 6.74012 3.01 6.81012C3 6.87012 3 6.94012 3 7.00012C3 7.13012 3.01 7.26012 3.04 7.39012C3.06 7.52012 3.1 7.65012 3.15 7.77012C3.2 7.89012 3.26 8.00012 3.34 8.11012C3.41 8.22012 3.49 8.32012 3.59 8.42012C3.68 8.51012 3.78 8.59012 3.89 8.66012C4 8.74012 4.11 8.80012 4.23 8.85012C4.36 8.90012 4.48 8.94012 4.61 8.96012C4.74 8.99012 4.87 9.00012 5 9.00012L15 9.00012L15 39.0001L14.5 39.0001C14.43 39.0001 14.37 39.0001 14.3 39.0101C14.24 39.0201 14.17 39.0301 14.11 39.0401C14.05 39.0501 13.98 39.0701 13.92 39.0901ZM32.12 13.8701C32.14 14.2901 32.26 14.6701 32.49 15.0101L32.59 15.1501C32.77 15.3801 32.99 15.5601 33.24 15.7001C33.58 15.8901 33.94 15.9901 34.32 15.9901L36 15.9901L36 32.0101L34.32 32.0101C33.93 32.0101 33.57 32.1101 33.24 32.3001C32.99 32.4401 32.77 32.6201 32.59 32.8501L32.53 32.9201L32.48 32.9901C32.26 33.3301 32.13 33.7101 32.12 34.1301C32.11 34.5001 32.18 34.8601 32.35 35.1901L35.76 42.0201L35.77 42.0501C35.99 42.4601 36.3 42.7901 36.7 43.0301C37.1 43.2601 37.53 43.3801 37.99 43.3801C38.45 43.3801 38.88 43.2601 39.28 43.0201C39.67 42.7801 39.98 42.4601 40.2 42.0501L43.64 35.1901C43.81 34.8501 43.88 34.4901 43.87 34.1201C43.85 33.7501 43.75 33.4101 43.57 33.1001C43.39 32.7901 43.15 32.5301 42.85 32.3401C42.49 32.1101 42.1 32.0001 41.68 32.0001L40 32.0001L40 16.0001L41.68 16.0001C42.1 16.0001 42.49 15.8901 42.85 15.6601C43.15 15.4701 43.39 15.2101 43.57 14.9001C43.76 14.5901 43.86 14.2501 43.87 13.8801C43.89 13.5101 43.81 13.1501 43.64 12.8201L40.22 5.99012C39.99 5.56012 39.68 5.22012 39.28 4.98012C38.89 4.74012 38.46 4.62012 37.99 4.62012C37.53 4.62012 37.1 4.74012 36.7 4.97012C36.3 5.21012 35.99 5.54012 35.77 5.95012L35.76 5.98012L35.75 6.00012L32.35 12.8101C32.18 13.1401 32.11 13.5001 32.12 13.8701Z" fill-rule="evenodd"  fill="#000000" >
</path>
</svg>
