<svg xmlns="http://www.w3.org/2000/svg" xmlns:xlink="http://www.w3.org/1999/xlink" width="48" height="48" viewBox="0 0 48 48" fill="none">
<path d="M12.7333 29.0475C12.7833 29.0875 12.8333 29.1275 12.8833 29.1675C12.9533 29.1975 13.0033 29.2375 13.0533 29.2575C13.1233 29.2975 13.1733 29.3275 13.2433 29.3475C13.2933 29.3775 13.3633 29.3975 13.4233 29.4175C13.4833 29.4275 13.5433 29.4575 13.6033 29.4575C13.6733 29.4775 13.7433 29.4775 13.8033 29.4875C13.8633 29.4975 13.9333 29.4975 14.0033 29.4975C14.0233 29.4975 14.0533 29.4975 14.0833 29.4975C14.1233 29.4975 14.1533 29.4975 14.2033 29.4875L14.3933 29.4675C14.4533 29.4475 14.5233 29.4375 14.5833 29.4175C14.6433 29.3975 14.7033 29.3675 14.7633 29.3475C14.8333 29.3275 14.8833 29.2975 14.9433 29.2675C15.0033 29.2375 15.0533 29.1975 15.1033 29.1675C15.1733 29.1275 15.2233 29.0875 15.2733 29.0475C15.3133 29.0075 15.3633 28.9575 15.4133 28.9175C15.4633 28.8675 15.5033 28.8275 15.5433 28.7675C15.5933 28.7175 15.6333 28.6675 15.6533 28.6075C15.7033 28.5575 15.7333 28.5075 15.7633 28.4475C15.8033 28.3875 15.8233 28.3275 15.8433 28.2675C15.8733 28.1975 15.8933 28.1475 15.9233 28.0775C15.9333 28.0275 15.9433 27.9575 15.9733 27.8875L15.9933 27.6975C15.9933 27.6375 15.9933 27.5675 16.0033 27.4975C15.9933 27.4375 15.9933 27.3675 15.9933 27.3075C15.9833 27.2375 15.9733 27.1775 15.9633 27.1075C15.9433 27.0475 15.9333 26.9775 15.9233 26.9175C15.8933 26.8575 15.8733 26.7975 15.8433 26.7375C15.8233 26.6775 15.8033 26.6175 15.7633 26.5575C15.7333 26.4975 15.7033 26.4475 15.6633 26.3875C15.6333 26.3375 15.5833 26.2775 15.5433 26.2375C15.5033 26.1775 15.4633 26.1375 15.4133 26.0875L15.3233 25.9975L11.1133 21.7675C10.3933 21.0475 9.84334 20.2075 9.47334 19.2675C9.11334 18.3775 8.92334 17.4275 8.93334 16.4375C8.92334 15.4575 9.11334 14.5175 9.48334 13.6175C9.86334 12.6775 10.4133 11.8575 11.1333 11.1275C11.8533 10.4075 12.6833 9.8675 13.6133 9.4875C14.5233 9.1175 15.4533 8.9375 16.4333 8.9375C17.4133 8.9375 18.3533 9.1175 19.2533 9.4875C20.1933 9.8675 21.0133 10.4075 21.7433 11.1275L26.1633 15.5575C26.2133 15.6075 26.2533 15.6475 26.3133 15.6975C26.3633 15.7275 26.4233 15.7675 26.4733 15.8075C26.5233 15.8375 26.5833 15.8775 26.6433 15.9075L26.8133 15.9875L27.0033 16.0575C27.0633 16.0775 27.1233 16.0975 27.1933 16.1075C27.2433 16.1175 27.3133 16.1275 27.3833 16.1375C27.4033 16.1375 27.4333 16.1375 27.4533 16.1375C27.4933 16.1375 27.5333 16.1475 27.5833 16.1375C27.6433 16.1475 27.7033 16.1375 27.7733 16.1275C27.8433 16.1275 27.9033 16.1075 27.9633 16.1075C28.0333 16.0975 28.0933 16.0775 28.1633 16.0575C28.2233 16.0275 28.2833 16.0175 28.3533 15.9875L28.5233 15.9075C28.5733 15.8775 28.6433 15.8375 28.6933 15.8075C28.7433 15.7675 28.7933 15.7275 28.8433 15.6975C28.8933 15.6475 28.9433 15.6075 28.9933 15.5575C29.0433 15.5075 29.0733 15.4575 29.1233 15.4075C29.1633 15.3575 29.2033 15.3075 29.2433 15.2575C29.2733 15.2075 29.3133 15.1375 29.3433 15.0875L29.4233 14.9175C29.4533 14.8475 29.4633 14.7875 29.4833 14.7275C29.5133 14.6575 29.5333 14.5975 29.5333 14.5375C29.5433 14.4675 29.5633 14.4075 29.5633 14.3375C29.5733 14.2675 29.5833 14.2075 29.5733 14.1475C29.5733 14.0975 29.5733 14.0575 29.5733 14.0175C29.5733 13.9975 29.5733 13.9675 29.5733 13.9475C29.5633 13.8775 29.5533 13.8075 29.5333 13.7575C29.5333 13.6875 29.5133 13.6275 29.4833 13.5675L29.4233 13.3775L29.3433 13.2075C29.3133 13.1475 29.2733 13.0875 29.2433 13.0375C29.2033 12.9875 29.1633 12.9275 29.1233 12.8775C29.0833 12.8175 29.0433 12.7775 28.9933 12.7275L24.5633 8.3075C23.4633 7.1975 22.1933 6.3575 20.7633 5.7675C19.3733 5.2175 17.9333 4.9375 16.4333 4.9375C14.9333 4.9375 13.4933 5.2175 12.1033 5.7675C10.6733 6.3575 9.40334 7.1975 8.30334 8.3075C7.20334 9.4075 6.36334 10.6675 5.77334 12.1075C5.20334 13.4975 4.93334 14.9475 4.92334 16.4375C4.92334 17.9375 5.20334 19.3775 5.76334 20.7675C6.33334 22.2075 7.18334 23.4675 8.27334 24.5775L12.5733 28.9075L12.5833 28.9175C12.6333 28.9675 12.6833 28.9975 12.7333 29.0475ZM29.8033 32.6175C29.8533 32.6575 29.9133 32.6975 29.9633 32.7375C30.0133 32.7675 30.0733 32.8075 30.1333 32.8275C30.1833 32.8575 30.2433 32.8875 30.3033 32.9275C30.3733 32.9475 30.4333 32.9675 30.4933 32.9775C30.5533 32.9975 30.6233 33.0275 30.6833 33.0275C30.7433 33.0475 30.8133 33.0575 30.8733 33.0675C30.8933 33.0675 30.9233 33.0675 30.9433 33.0675C30.9833 33.0675 31.0333 33.0675 31.0733 33.0675C31.1133 33.0675 31.1533 33.0675 31.2033 33.0675C31.2233 33.0675 31.2433 33.0675 31.2733 33.0675C31.3333 33.0575 31.3933 33.0475 31.4633 33.0275C31.5233 33.0275 31.5833 32.9975 31.6533 32.9775C31.7033 32.9675 31.7733 32.9475 31.8333 32.9275C31.9033 32.8875 31.9533 32.8575 32.0133 32.8275C32.0633 32.8075 32.1333 32.7675 32.1833 32.7375C32.2333 32.6975 32.2833 32.6575 32.3333 32.6175C32.3933 32.5775 32.4333 32.5375 32.4833 32.4875C32.5333 32.4375 32.5733 32.3975 32.6233 32.3375C32.6533 32.2875 32.6933 32.2275 32.7333 32.1775C32.7633 32.1275 32.8033 32.0675 32.8333 32.0075C32.8633 31.9575 32.8833 31.8975 32.9233 31.8375C32.9433 31.7675 32.9633 31.7075 32.9833 31.6475C33.0033 31.5875 33.0233 31.5275 33.0333 31.4575C33.0533 31.3975 33.0533 31.3375 33.0633 31.2675C33.0633 31.2475 33.0633 31.2175 33.0633 31.1975C33.0633 31.1575 33.0733 31.1175 33.0633 31.0675C33.0733 31.0275 33.0633 30.9875 33.0633 30.9475C33.0633 30.9175 33.0633 30.8975 33.0633 30.8775C33.0533 30.8075 33.0533 30.7475 33.0333 30.6775C33.0233 30.6175 33.0033 30.5575 32.9833 30.4875C32.9633 30.4375 32.9433 30.3675 32.9233 30.3075C32.8833 30.2475 32.8633 30.1875 32.8333 30.1275C32.8033 30.0775 32.7633 30.0075 32.7333 29.9575C32.6933 29.9075 32.6533 29.8575 32.6233 29.8075C32.5733 29.7475 32.5333 29.7075 32.4833 29.6575L18.3433 15.5175C18.2933 15.4675 18.2533 15.4275 18.1933 15.3775C18.1433 15.3475 18.0933 15.2975 18.0433 15.2675C17.9933 15.2275 17.9233 15.1975 17.8733 15.1675C17.8133 15.1375 17.7533 15.1075 17.6933 15.0775C17.6333 15.0575 17.5733 15.0375 17.5133 15.0175C17.4433 14.9975 17.3833 14.9775 17.3133 14.9675C17.2533 14.9475 17.1933 14.9375 17.1233 14.9375C17.1033 14.9375 17.0833 14.9375 17.0533 14.9375C17.0133 14.9275 16.9733 14.9275 16.9333 14.9375C16.8833 14.9275 16.8433 14.9275 16.8033 14.9375C16.7833 14.9375 16.7533 14.9375 16.7333 14.9375C16.6633 14.9375 16.6033 14.9475 16.5433 14.9675C16.4733 14.9775 16.4133 14.9975 16.3533 15.0175C16.2933 15.0375 16.2333 15.0575 16.1633 15.0775C16.1033 15.1075 16.0433 15.1375 15.9933 15.1675C15.9333 15.1975 15.8633 15.2275 15.8233 15.2675C15.7733 15.2975 15.7133 15.3475 15.6633 15.3775C15.6033 15.4275 15.5633 15.4675 15.5133 15.5175C15.4633 15.5675 15.4233 15.6075 15.3833 15.6675C15.3433 15.7175 15.3033 15.7675 15.2633 15.8175C15.2333 15.8675 15.1933 15.9275 15.1633 15.9875C15.1433 16.0475 15.1133 16.0975 15.0733 16.1675C15.0533 16.2275 15.0333 16.2875 15.0233 16.3475C15.0033 16.4175 14.9733 16.4775 14.9733 16.5375C14.9533 16.6075 14.9433 16.6675 14.9333 16.7275C14.9333 16.7575 14.9333 16.7775 14.9333 16.7975C14.9333 16.8475 14.9333 16.8875 14.9333 16.9275C14.9333 16.9675 14.9333 17.0175 14.9333 17.0575C14.9333 17.0775 14.9333 17.1075 14.9333 17.1275C14.9433 17.1875 14.9533 17.2575 14.9733 17.3175C14.9733 17.3775 15.0033 17.4475 15.0233 17.5075C15.0433 17.5675 15.0533 17.6275 15.0733 17.6975C15.1133 17.7575 15.1433 17.8175 15.1633 17.8675C15.1933 17.9275 15.2333 17.9875 15.2633 18.0375C15.3033 18.0875 15.3433 18.1475 15.3833 18.1975C15.4233 18.2475 15.4633 18.2975 15.5133 18.3475L29.6533 32.4875C29.7033 32.5375 29.7533 32.5775 29.8033 32.6175ZM21.2533 31.9175C21.2033 31.8775 21.1433 31.8475 21.0833 31.8175C21.0233 31.7875 20.9733 31.7575 20.9033 31.7275C20.8433 31.7075 20.7833 31.6775 20.7233 31.6675C20.6533 31.6475 20.5933 31.6275 20.5333 31.6175C20.4633 31.5975 20.4033 31.5875 20.3433 31.5875C20.3133 31.5875 20.2933 31.5775 20.2733 31.5775C20.2233 31.5775 20.1833 31.5775 20.1433 31.5875C20.1033 31.5775 20.0533 31.5775 20.0133 31.5775C19.9933 31.5775 19.9633 31.5875 19.9433 31.5875C19.8833 31.5875 19.8133 31.5975 19.7533 31.6175C19.6933 31.6275 19.6233 31.6475 19.5633 31.6675C19.5033 31.6775 19.4433 31.7075 19.3833 31.7275C19.3133 31.7575 19.2533 31.7875 19.2033 31.8175C19.1433 31.8475 19.0833 31.8775 19.0333 31.9175C18.9833 31.9475 18.9233 31.9975 18.8733 32.0275C18.8233 32.0675 18.7733 32.1175 18.7233 32.1675C18.6833 32.2075 18.6333 32.2575 18.5933 32.3075C18.5533 32.3575 18.5133 32.4175 18.4833 32.4675C18.4433 32.5175 18.4133 32.5775 18.3833 32.6375C18.3533 32.6975 18.3233 32.7475 18.2933 32.8175C18.2633 32.8775 18.2433 32.9375 18.2333 32.9975C18.2133 33.0575 18.1933 33.1275 18.1833 33.1875C18.1633 33.2475 18.1533 33.3175 18.1433 33.3775C18.1433 33.4075 18.1433 33.4275 18.1433 33.4475C18.1433 33.4975 18.1433 33.5375 18.1433 33.5775C18.1433 33.6175 18.1433 33.6575 18.1433 33.7075C18.1433 33.7275 18.1433 33.7475 18.1433 33.7775C18.1533 33.8375 18.1633 33.8975 18.1833 33.9675C18.1933 34.0275 18.2133 34.0975 18.2333 34.1575C18.2433 34.2175 18.2633 34.2775 18.2933 34.3375C18.3233 34.4075 18.3533 34.4575 18.3833 34.5175C18.4133 34.5775 18.4433 34.6375 18.4833 34.6875C18.5133 34.7375 18.5533 34.7975 18.5933 34.8475C18.6333 34.8975 18.6833 34.9375 18.7233 34.9875L23.1533 39.4175C24.2533 40.5175 25.5233 41.3575 26.9633 41.9475C28.3433 42.4975 29.7833 42.7875 31.2833 42.7875C32.7833 42.7875 34.2233 42.4975 35.6133 41.9475C37.0533 41.3575 38.3133 40.5175 39.4133 39.4175C40.5233 38.3175 41.3633 37.0475 41.9533 35.6175C42.5033 34.2275 42.7833 32.7875 42.7833 31.2875C42.7833 29.7875 42.5033 28.3475 41.9533 26.9575C41.3633 25.5275 40.5233 24.2575 39.4133 23.1575L34.9933 18.7275C34.9433 18.6775 34.9033 18.6375 34.8433 18.5975C34.7933 18.5575 34.7333 18.5175 34.6833 18.4775C34.6333 18.4475 34.5733 18.4075 34.5133 18.3775C34.4633 18.3575 34.4033 18.3275 34.3433 18.2875C34.2733 18.2675 34.2133 18.2475 34.1533 18.2375C34.0933 18.2075 34.0333 18.1875 33.9633 18.1875C33.9033 18.1575 33.8433 18.1575 33.7733 18.1475C33.7533 18.1475 33.7233 18.1475 33.7033 18.1475C33.6633 18.1475 33.6233 18.1475 33.5733 18.1475C33.5333 18.1475 33.4933 18.1475 33.4533 18.1475C33.4233 18.1475 33.4033 18.1475 33.3833 18.1475C33.3133 18.1575 33.2533 18.1575 33.1833 18.1875C33.1233 18.1875 33.0633 18.2075 32.9933 18.2375C32.9433 18.2475 32.8733 18.2675 32.8133 18.2875C32.7533 18.3275 32.6933 18.3575 32.6333 18.3775C32.5833 18.4075 32.5133 18.4475 32.4633 18.4775C32.4133 18.5175 32.3633 18.5575 32.3133 18.5975C32.2533 18.6375 32.2133 18.6775 32.1633 18.7275C32.1133 18.7775 32.0733 18.8175 32.0333 18.8775C31.9933 18.9275 31.9533 18.9775 31.9133 19.0275C31.8833 19.0775 31.8433 19.1475 31.8133 19.1975C31.7833 19.2575 31.7633 19.3175 31.7233 19.3775C31.7033 19.4375 31.6833 19.5075 31.6633 19.5575C31.6433 19.6275 31.6233 19.6875 31.6233 19.7575C31.5933 19.8175 31.5933 19.8775 31.5833 19.9475C31.5833 19.9675 31.5833 19.9875 31.5833 20.0175C31.5833 20.0575 31.5833 20.0975 31.5833 20.1375C31.5833 20.1875 31.5833 20.2275 31.5833 20.2675C31.5833 20.2975 31.5833 20.3175 31.5833 20.3375C31.5933 20.4075 31.5933 20.4675 31.6233 20.5275C31.6233 20.5975 31.6433 20.6575 31.6633 20.7175C31.6833 20.7775 31.7033 20.8375 31.7233 20.9075C31.7633 20.9675 31.7833 21.0275 31.8133 21.0875C31.8433 21.1375 31.8833 21.2075 31.9133 21.2475C31.9533 21.2975 31.9933 21.3575 32.0333 21.4075C32.0733 21.4675 32.1133 21.5075 32.1633 21.5575L36.5933 25.9875C37.3133 26.7075 37.8533 27.5275 38.2333 28.4675C38.6033 29.3675 38.7933 30.3075 38.7833 31.2875C38.7933 32.2675 38.6033 33.1975 38.2333 34.1075C37.8533 35.0375 37.3133 35.8675 36.5933 36.5875C35.8633 37.3075 35.0433 37.8575 34.1033 38.2375C33.2033 38.6075 32.2733 38.7875 31.2833 38.7775C30.3033 38.7875 29.3733 38.6075 28.4633 38.2375C27.5333 37.8575 26.7033 37.3075 25.9833 36.5875L21.5533 32.1675C21.5033 32.1175 21.4633 32.0675 21.4033 32.0275C21.3633 31.9975 21.3033 31.9475 21.2533 31.9175Z" fill-rule="evenodd"  fill="#000000" >
</path>
</svg>
