<svg xmlns="http://www.w3.org/2000/svg" xmlns:xlink="http://www.w3.org/1999/xlink" width="48" height="48" viewBox="0 0 48 48" fill="none">
<path d="M44.27 11.05C44.32 11.01 44.37 10.96 44.41 10.92C44.46 10.87 44.5 10.82 44.55 10.77C44.59 10.72 44.63 10.67 44.66 10.61C44.7 10.56 44.73 10.5 44.76 10.44C44.79 10.39 44.82 10.33 44.85 10.27C44.87 10.21 44.89 10.14 44.91 10.08C44.93 10.02 44.95 9.96 44.96 9.89C44.97 9.83 44.98 9.76 44.99 9.7C45 9.63 45 9.57 45 9.5C45 9.37 44.99 9.24 44.96 9.11C44.94 8.98 44.9 8.86 44.85 8.74C44.8 8.61 44.74 8.5 44.66 8.39C44.59 8.28 44.51 8.18 44.41 8.09C44.32 7.99 44.22 7.91 44.11 7.84C44 7.77 43.89 7.7 43.77 7.65C43.64 7.6 43.52 7.57 43.39 7.54C43.26 7.51 43.13 7.5 43 7.5L16 7.5C15.87 7.5 15.74 7.51 15.61 7.54C15.48 7.56 15.36 7.6 15.23 7.65C15.11 7.7 15 7.76 14.89 7.84C14.78 7.91 14.68 7.99 14.59 8.09C14.49 8.18 14.41 8.28 14.34 8.39C14.26 8.5 14.2 8.61 14.15 8.73C14.1 8.86 14.06 8.98 14.04 9.11C14.01 9.24 14 9.37 14 9.5C14 9.63 14.01 9.76 14.04 9.89C14.06 10.02 14.1 10.14 14.15 10.27C14.2 10.39 14.26 10.5 14.34 10.61C14.41 10.72 14.49 10.82 14.59 10.91C14.68 11.01 14.78 11.09 14.89 11.16C15 11.24 15.11 11.3 15.23 11.35C15.36 11.4 15.48 11.44 15.61 11.46C15.74 11.49 15.87 11.5 16 11.5L43 11.5C43.07 11.5 43.13 11.5 43.2 11.49C43.26 11.48 43.33 11.48 43.39 11.46C43.45 11.45 43.52 11.43 43.58 11.41C43.64 11.4 43.7 11.37 43.77 11.35C43.83 11.32 43.88 11.3 43.94 11.26C44 11.23 44.06 11.2 44.11 11.16C44.17 11.13 44.22 11.09 44.27 11.05ZM44.91 24.58C44.93 24.52 44.95 24.46 44.96 24.39C44.97 24.33 44.98 24.26 44.99 24.2C45 24.13 45 24.07 45 24C45 23.87 44.99 23.74 44.96 23.61C44.94 23.48 44.9 23.36 44.85 23.24C44.8 23.11 44.74 23 44.66 22.89C44.59 22.78 44.51 22.68 44.41 22.59C44.32 22.49 44.22 22.41 44.11 22.34C44 22.27 43.89 22.2 43.77 22.15C43.64 22.1 43.52 22.07 43.39 22.04C43.26 22.01 43.13 22 43 22L16 22C15.87 22 15.74 22.01 15.61 22.04C15.48 22.06 15.36 22.1 15.23 22.15C15.11 22.2 15 22.26 14.89 22.34C14.78 22.41 14.68 22.49 14.59 22.59C14.49 22.68 14.41 22.78 14.34 22.89C14.26 23 14.2 23.11 14.15 23.23C14.1 23.36 14.06 23.48 14.04 23.61C14.01 23.74 14 23.87 14 24C14 24.13 14.01 24.26 14.04 24.39C14.06 24.52 14.1 24.64 14.15 24.77C14.2 24.89 14.26 25 14.34 25.11C14.41 25.22 14.49 25.32 14.59 25.41C14.68 25.51 14.78 25.59 14.89 25.66C15 25.74 15.11 25.8 15.23 25.85C15.36 25.9 15.48 25.94 15.61 25.96C15.74 25.99 15.87 26 16 26L43 26C43.07 26 43.13 26 43.2 25.99C43.26 25.98 43.33 25.98 43.39 25.96C43.45 25.95 43.52 25.93 43.58 25.91C43.64 25.9 43.7 25.87 43.77 25.85C43.83 25.82 43.88 25.8 43.94 25.76C44 25.73 44.06 25.7 44.11 25.66C44.17 25.63 44.22 25.59 44.27 25.55C44.32 25.51 44.37 25.46 44.41 25.42C44.46 25.37 44.5 25.32 44.55 25.27C44.59 25.22 44.63 25.17 44.66 25.11C44.7 25.06 44.73 25 44.76 24.94C44.79 24.89 44.82 24.83 44.85 24.77C44.87 24.71 44.89 24.64 44.91 24.58ZM4 9.5C4 10.88 5.12 12 6.5 12C7.88 12 9 10.88 9 9.5C9 8.12 7.88 7 6.5 7C5.12 7 4 8.12 4 9.5ZM44.11 40.16C44.17 40.13 44.22 40.09 44.27 40.05C44.32 40.01 44.37 39.96 44.41 39.92C44.46 39.87 44.5 39.82 44.55 39.77C44.59 39.72 44.63 39.67 44.66 39.61C44.7 39.56 44.73 39.5 44.76 39.44C44.79 39.39 44.82 39.33 44.85 39.27C44.87 39.21 44.89 39.14 44.91 39.08C44.93 39.02 44.95 38.96 44.96 38.89C44.97 38.83 44.98 38.76 44.99 38.7C45 38.63 45 38.57 45 38.5C45 38.37 44.99 38.24 44.96 38.11C44.94 37.98 44.9 37.86 44.85 37.74C44.8 37.61 44.74 37.5 44.66 37.39C44.59 37.28 44.51 37.18 44.41 37.09C44.32 36.99 44.22 36.91 44.11 36.84C44 36.77 43.89 36.7 43.77 36.65C43.64 36.6 43.52 36.57 43.39 36.54C43.26 36.51 43.13 36.5 43 36.5L16 36.5C15.87 36.5 15.74 36.51 15.61 36.54C15.48 36.56 15.36 36.6 15.23 36.65C15.11 36.7 15 36.76 14.89 36.84C14.78 36.91 14.68 36.99 14.59 37.09C14.49 37.18 14.41 37.28 14.34 37.39C14.26 37.5 14.2 37.61 14.15 37.73C14.1 37.86 14.06 37.98 14.04 38.11C14.01 38.24 14 38.37 14 38.5C14 38.63 14.01 38.76 14.04 38.89C14.06 39.02 14.1 39.14 14.15 39.27C14.2 39.39 14.26 39.5 14.34 39.61C14.41 39.72 14.49 39.82 14.59 39.91C14.68 40.01 14.78 40.09 14.89 40.16C15 40.24 15.11 40.3 15.23 40.35C15.36 40.4 15.48 40.44 15.61 40.46C15.74 40.49 15.87 40.5 16 40.5L43 40.5C43.07 40.5 43.13 40.5 43.2 40.49C43.26 40.48 43.33 40.48 43.39 40.46C43.45 40.45 43.52 40.43 43.58 40.41C43.64 40.4 43.7 40.37 43.77 40.35C43.83 40.32 43.88 40.3 43.94 40.26C44 40.23 44.06 40.2 44.11 40.16ZM4 38.5C4 39.88 5.12 41 6.5 41C7.88 41 9 39.88 9 38.5C9 37.12 7.88 36 6.5 36C5.12 36 4 37.12 4 38.5ZM9 24C9 22.62 7.88 21.5 6.5 21.5C5.12 21.5 4 22.62 4 24C4 25.38 5.12 26.5 6.5 26.5C7.88 26.5 9 25.38 9 24Z" fill-rule="evenodd"  fill="#000000" >
</path>
</svg>
