<svg xmlns="http://www.w3.org/2000/svg" xmlns:xlink="http://www.w3.org/1999/xlink" width="48" height="48" viewBox="0 0 48 48" fill="none">
<path d="M21.6 19.99L27.98 20C27.99 20 27.99 20 28 20C29.1 20 30 19.1 30 18C30 16.9 29.1 16 28 16L27.98 16L21.6 15.99L21.6 10.07C21.61 9.99 21.62 9.9 21.64 9.8C21.69 9.5 21.78 9.22 21.91 8.98C22.06 8.69 22.25 8.48 22.48 8.33C22.82 8.11 23.29 8 23.87 8L23.88 8C23.91 8 23.94 8 23.99 8.01C24.14 8.02 24.3 8.05 24.47 8.08C24.98 8.2 25.45 8.38 25.85 8.63C26.17 8.86 26.57 9 27 9C28.1 9 29 8.1 29 7C29 6.28 28.62 5.65 28.04 5.3C27.22 4.76 26.3 4.38 25.3 4.17C24.77 4.06 24.3 4 23.89 4C22.52 4 21.33 4.32 20.33 4.95C19.5 5.49 18.84 6.21 18.36 7.12C18.04 7.73 17.82 8.4 17.7 9.12C17.63 9.49 17.6 9.81 17.6 10.1L17.6 15.99L12 16L12 16C10.9 16 10 16.9 10 18C10 19.1 10.9 20 12 20L12 20L12.01 20L17.6 19.99L17.61 31.5C17.61 31.57 17.6 31.68 17.6 31.82C17.57 32.15 17.54 32.5 17.49 32.85C17.32 33.99 17.03 35.02 16.63 35.95C16.1 37.16 15.39 38.1 14.52 38.77C13.45 39.59 12.09 40 10.44 40C10.38 40 10.28 39.99 10.14 39.98C9.81 39.95 9.47 39.89 9.12 39.8C8.01 39.54 7.06 39.09 6.25 38.44L6.25 38.44C5.91 38.17 5.47 38 5 38C3.9 38 3 38.9 3 40C3 40.63 3.29 41.19 3.75 41.56L3.75 41.56C5.02 42.58 6.51 43.29 8.19 43.7C8.72 43.82 9.23 43.91 9.74 43.96C10.02 43.99 10.25 44 10.44 44C12.99 44 15.16 43.32 16.95 41.95C18.37 40.86 19.48 39.4 20.29 37.55C20.84 36.29 21.23 34.92 21.44 33.43C21.55 32.68 21.61 32.04 21.61 31.5L21.6 19.99ZM41.29 39L39.79 39L36.15 33.68L41.32 28L43 28C44.1 28 45 27.1 45 26C45 24.9 44.1 24 43 24L37.88 24L37.88 24C36.84 24.07 36 24.94 36 26C36 26.51 36.2 26.98 36.52 27.34L33.84 30.28L32.07 27.69C32.63 27.33 33 26.71 33 26C33 24.93 32.15 24.05 31.09 24L31.09 24L25.88 24L25.88 24C24.84 24.07 24 24.94 24 26C24 27.06 24.84 27.93 25.88 28L25.88 28L27.43 28L31.06 33.31L25.77 39L24 39C22.9 39 22 39.9 22 41C22 42.1 22.9 43 24 43L29.2 43L29.2 42.99C30.21 42.89 31 42.03 31 41C31 40.52 30.83 40.08 30.55 39.73L33.37 36.7L35.09 39.22C34.44 39.55 34 40.23 34 41C34 42.1 34.9 43 36 43C36.06 43 36.11 43 36.17 42.99L36.17 43L41.29 43L41.29 42.98C42.25 42.84 43 42 43 41C43 40 42.25 39.16 41.29 39.02L41.29 39Z" fill-rule="evenodd"  fill="#000000" >
</path>
</svg>
