<svg xmlns="http://www.w3.org/2000/svg" xmlns:xlink="http://www.w3.org/1999/xlink" width="48" height="48" viewBox="0 0 48 48" fill="none">
<path d="M17.77 41.7799L17.77 41.7799L24.01 33.5899C24.2 33.3399 24.44 33.1399 24.72 32.9999C25 32.8599 25.3 32.7999 25.61 32.7999L35.85 32.7999C36.54 32.7999 37.2 32.6899 37.83 32.4799C38.44 32.2699 39 31.9699 39.51 31.5799C39.99 31.2099 40.41 30.7699 40.76 30.2599C41.1 29.7699 41.37 29.2399 41.55 28.6699C41.74 28.0999 41.84 27.5199 41.86 26.9299C41.88 26.3099 41.8 25.7099 41.64 25.1199C41.46 24.4999 41.19 23.9299 40.82 23.3999C40.44 22.8499 39.97 22.3799 39.42 21.9599L16.57 5.09991C15.62 4.38991 14.56 3.99991 13.4 3.91991C12.31 3.84991 11.28 4.06991 10.3 4.55991C9.32 5.05991 8.53 5.75991 7.94 6.67991C7.31 7.64991 7 8.73991 7 9.92991L7 38.1499C7 38.8299 7.11 39.4899 7.32 40.1199C7.53 40.7199 7.83 41.2699 8.21 41.7799C8.58 42.2599 9.01 42.6699 9.51 43.0299C10 43.3699 10.52 43.6299 11.08 43.8199C11.65 44.0099 12.23 44.1199 12.82 44.1399C13.43 44.1599 14.03 44.0999 14.61 43.9399C15.22 43.7699 15.79 43.5099 16.32 43.1499C16.87 42.7799 17.35 42.3199 17.77 41.7799ZM20.83 31.1599C21.4 30.4199 22.1 29.8299 22.95 29.4199C23.78 28.9999 24.67 28.7999 25.61 28.7999L35.85 28.7999C36.32 28.7999 36.73 28.6699 37.07 28.4099C37.39 28.1599 37.62 27.8299 37.75 27.4199C37.89 27.0099 37.9 26.6099 37.79 26.2199C37.67 25.8099 37.42 25.4699 37.04 25.1899L14.19 8.30991C13.87 8.06991 13.52 7.93991 13.14 7.90991C12.78 7.88991 12.43 7.95991 12.1 8.12991C11.77 8.29991 11.5 8.53991 11.31 8.83991C11.1 9.15991 11 9.51991 11 9.92991L11 38.1499C11 38.6099 11.13 39.0099 11.39 39.3499C11.63 39.6699 11.96 39.8999 12.36 40.0299C12.77 40.1699 13.16 40.1799 13.55 40.0799C13.96 39.9699 14.31 39.7199 14.59 39.3499L14.59 39.3499L20.83 31.1599Z" fill-rule="evenodd"  fill="#000000" >
</path>
</svg>
