<svg xmlns="http://www.w3.org/2000/svg" xmlns:xlink="http://www.w3.org/1999/xlink" width="48" height="48" viewBox="0 0 48 48" fill="none">
<path d="M35.11 9.63C34.12 9.21 33.08 9 32 9L32 8C32 7.19 31.84 6.41 31.53 5.66C31.22 4.95 30.8 4.31 30.24 3.76C29.69 3.2 29.05 2.78 28.34 2.47C27.59 2.16 26.81 2 26 2L22 2C21.19 2 20.41 2.16 19.66 2.47C18.95 2.78 18.31 3.2 17.76 3.76C17.2 4.31 16.78 4.95 16.47 5.66C16.16 6.41 16 7.19 16 8L16 9C14.92 9 13.88 9.21 12.89 9.63C11.93 10.04 11.08 10.61 10.34 11.34C9.61 12.08 9.04 12.93 8.63 13.89C8.21 14.88 8 15.92 8 17L8 36C8 37.08 8.21 38.12 8.63 39.11C9.04 40.07 9.61 40.92 10.34 41.66C11.08 42.39 11.93 42.96 12.89 43.37C13.88 43.79 14.92 44 16 44L32 44C33.08 44 34.12 43.79 35.11 43.37C36.07 42.96 36.92 42.39 37.66 41.66C38.39 40.92 38.96 40.07 39.37 39.11C39.79 38.12 40 37.08 40 36L40 17C40 15.92 39.79 14.88 39.37 13.89C38.96 12.93 38.39 12.08 37.66 11.34C36.92 10.61 36.07 10.04 35.11 9.63ZM15.45 22.73C15.41 22.78 15.37 22.84 15.34 22.89C15.3 22.94 15.27 23 15.24 23.06L15.15 23.24L15.09 23.42C15.07 23.48 15.05 23.55 15.04 23.61C15.03 23.68 15.02 23.74 15.01 23.81C15 23.87 15 23.94 15 24C15 24.07 15 24.13 15.01 24.2C15.02 24.26 15.03 24.33 15.04 24.39C15.05 24.46 15.07 24.52 15.09 24.58C15.11 24.64 15.13 24.71 15.15 24.77C15.18 24.83 15.21 24.89 15.24 24.94C15.27 25 15.3 25.06 15.34 25.11C15.37 25.17 15.41 25.22 15.45 25.27C15.5 25.32 15.54 25.37 15.59 25.42C15.63 25.46 15.68 25.51 15.73 25.55C15.78 25.59 15.83 25.63 15.89 25.66C15.94 25.7 16 25.73 16.06 25.76C16.12 25.8 16.17 25.82 16.23 25.85C16.3 25.87 16.36 25.9 16.42 25.91C16.48 25.93 16.55 25.95 16.61 25.96C16.67 25.98 16.74 25.98 16.8 25.99C16.87 26 16.93 26 17 26L23 26C23.13 26 23.26 25.99 23.39 25.96C23.52 25.94 23.64 25.9 23.77 25.85C23.89 25.8 24 25.74 24.11 25.66C24.22 25.59 24.32 25.51 24.41 25.41C24.51 25.32 24.59 25.22 24.66 25.11C24.74 25 24.8 24.89 24.85 24.77C24.9 24.64 24.94 24.52 24.96 24.39C24.99 24.26 25 24.13 25 24C25 23.87 24.99 23.74 24.96 23.61C24.94 23.48 24.9 23.36 24.85 23.23C24.8 23.11 24.74 23 24.66 22.89C24.59 22.78 24.51 22.68 24.41 22.59C24.32 22.49 24.22 22.41 24.11 22.34C24 22.26 23.89 22.2 23.77 22.15C23.64 22.1 23.52 22.06 23.39 22.04C23.26 22.01 23.13 22 23 22L17 22C16.93 22 16.87 22 16.8 22.01C16.74 22.02 16.67 22.03 16.61 22.04C16.55 22.05 16.48 22.07 16.42 22.09C16.36 22.11 16.29 22.13 16.23 22.15C16.17 22.18 16.11 22.21 16.06 22.24C16 22.27 15.94 22.3 15.89 22.34C15.83 22.37 15.78 22.41 15.73 22.46C15.68 22.5 15.63 22.54 15.59 22.59C15.54 22.63 15.5 22.68 15.45 22.73ZM15.45 16.73C15.41 16.78 15.37 16.84 15.34 16.89C15.3 16.94 15.27 17 15.24 17.06L15.15 17.24L15.09 17.42C15.07 17.48 15.05 17.55 15.04 17.61C15.03 17.68 15.02 17.74 15.01 17.81C15 17.87 15 17.94 15 18C15 18.07 15 18.13 15.01 18.2C15.02 18.26 15.03 18.33 15.04 18.39C15.05 18.46 15.07 18.52 15.09 18.58C15.11 18.64 15.13 18.71 15.15 18.77C15.18 18.83 15.21 18.89 15.24 18.94C15.27 19 15.3 19.06 15.34 19.11C15.37 19.17 15.41 19.22 15.45 19.27C15.5 19.32 15.54 19.37 15.59 19.42C15.63 19.46 15.68 19.51 15.73 19.55C15.78 19.59 15.83 19.63 15.89 19.66C15.94 19.7 16 19.73 16.06 19.76C16.12 19.8 16.17 19.82 16.23 19.85C16.3 19.87 16.36 19.9 16.42 19.91C16.48 19.93 16.55 19.95 16.61 19.96C16.67 19.98 16.74 19.98 16.8 19.99C16.87 20 16.93 20 17 20L27 20C27.13 20 27.26 19.99 27.39 19.96C27.52 19.94 27.64 19.9 27.77 19.85C27.89 19.8 28 19.74 28.11 19.66C28.22 19.59 28.32 19.51 28.41 19.41C28.51 19.32 28.59 19.22 28.66 19.11C28.74 19 28.8 18.89 28.85 18.77C28.9 18.64 28.94 18.52 28.96 18.39C28.99 18.26 29 18.13 29 18C29 17.93 29 17.87 28.99 17.8C28.98 17.74 28.97 17.67 28.96 17.61C28.95 17.55 28.93 17.48 28.91 17.42C28.89 17.36 28.87 17.3 28.85 17.23C28.82 17.17 28.79 17.11 28.76 17.06C28.73 17 28.7 16.94 28.66 16.89C28.63 16.83 28.59 16.78 28.55 16.73C28.5 16.68 28.46 16.63 28.41 16.59C28.37 16.54 28.32 16.5 28.27 16.45C28.22 16.41 28.17 16.37 28.11 16.34C28.06 16.3 28 16.27 27.94 16.24C27.88 16.21 27.83 16.18 27.77 16.15C27.7 16.13 27.64 16.11 27.58 16.09C27.52 16.07 27.45 16.05 27.39 16.04C27.33 16.03 27.26 16.02 27.2 16.01C27.13 16 27.07 16 27 16L17 16C16.93 16 16.87 16 16.8 16.01C16.74 16.02 16.67 16.03 16.61 16.04C16.55 16.05 16.48 16.07 16.42 16.09C16.36 16.11 16.29 16.13 16.23 16.15C16.17 16.18 16.11 16.21 16.06 16.24C16 16.27 15.94 16.3 15.89 16.34C15.83 16.37 15.78 16.41 15.73 16.46C15.68 16.5 15.63 16.54 15.59 16.59C15.54 16.63 15.5 16.68 15.45 16.73ZM16 13C15.46 13 14.94 13.1 14.45 13.31C13.97 13.52 13.54 13.8 13.17 14.17C12.8 14.54 12.52 14.97 12.31 15.45C12.1 15.94 12 16.46 12 17L12 36C12 36.54 12.1 37.06 12.31 37.55C12.52 38.03 12.8 38.46 13.17 38.83C13.54 39.2 13.97 39.48 14.45 39.69C14.94 39.9 15.46 40 16 40L32 40C32.54 40 33.06 39.9 33.55 39.69C34.03 39.48 34.46 39.2 34.83 38.83C35.2 38.46 35.48 38.03 35.69 37.55C35.9 37.06 36 36.54 36 36L36 17C36 16.46 35.9 15.94 35.69 15.45C35.48 14.97 35.2 14.54 34.83 14.17C34.46 13.8 34.03 13.52 33.55 13.31C33.06 13.1 32.54 13 32 13L16 13ZM20.16 7.22C20.05 7.47 20 7.73 20 8L20 9L28 9L28 8C28 7.73 27.95 7.47 27.84 7.22C27.74 6.98 27.6 6.77 27.41 6.59C27.23 6.4 27.02 6.26 26.78 6.16C26.53 6.05 26.27 6 26 6L22 6C21.73 6 21.47 6.05 21.22 6.16C20.98 6.26 20.77 6.4 20.59 6.59C20.4 6.77 20.26 6.98 20.16 7.22Z" fill-rule="evenodd"  fill="#000000" >
</path>
</svg>
