<svg xmlns="http://www.w3.org/2000/svg" xmlns:xlink="http://www.w3.org/1999/xlink" width="48" height="48" viewBox="0 0 48 48" fill="none">
<path d="M33.1759 44.0061C33.5559 44.3861 33.9959 44.6761 34.4959 44.8761C34.9759 45.0761 35.4759 45.1761 35.9959 45.1761C36.5159 45.1761 37.0159 45.0761 37.4959 44.8761C37.9959 44.6761 38.4359 44.3861 38.8259 44.0061L44.0059 38.8261C44.3859 38.4361 44.6759 37.9961 44.8759 37.4961C45.0759 37.0161 45.1759 36.5161 45.1759 35.9961C45.1759 35.4761 45.0759 34.9761 44.8759 34.4961C44.6759 33.9961 44.3859 33.5561 44.0059 33.1761L37.9959 27.1661L37.9959 13.6361C37.9959 13.1661 37.9159 12.7161 37.7559 12.2761C37.6059 11.8461 37.3759 11.4561 37.0959 11.1061C36.8059 10.7561 36.4659 10.4561 36.0759 10.2261C35.6759 9.97614 35.2459 9.80614 34.7859 9.71614L9.3259 4.62614C8.6559 4.48614 7.9859 4.52614 7.3359 4.73614C6.7159 4.92614 6.1759 5.25614 5.7159 5.71614C5.2559 6.17614 4.9259 6.71614 4.7359 7.33614C4.5259 7.98614 4.4859 8.65614 4.6259 9.32614L9.7159 34.7761C9.8059 35.2461 9.9759 35.6761 10.2259 36.0761C10.4559 36.4661 10.7559 36.8061 11.1059 37.0961C11.4559 37.3761 11.8459 37.6061 12.2759 37.7561C12.7159 37.9161 13.1659 37.9961 13.6359 37.9961L27.1659 37.9961L33.1759 44.0061ZM27.1659 33.9961C27.6959 33.9961 28.2059 34.0961 28.6959 34.3061C29.1859 34.5061 29.6259 34.7961 30.0059 35.1761L35.9959 41.1661L41.1659 35.9961L35.1759 30.0061C34.7959 29.6261 34.5059 29.1861 34.3059 28.6961C34.0959 28.2061 33.9959 27.6961 33.9959 27.1661L33.9959 13.6361L12.0759 9.25614L21.8859 19.0561C22.0859 19.0161 22.2959 18.9961 22.4959 18.9961C22.9659 18.9961 23.4259 19.0861 23.8559 19.2761C24.2759 19.4461 24.6459 19.6961 24.9759 20.0161C25.2959 20.3461 25.5459 20.7161 25.7159 21.1361C25.9059 21.5661 25.9959 22.0261 25.9959 22.4961C25.9959 22.9661 25.9059 23.4261 25.7159 23.8561C25.5459 24.2761 25.2959 24.6461 24.9759 24.9761C24.6459 25.2961 24.2759 25.5461 23.8559 25.7161C23.4259 25.9061 22.9659 25.9961 22.4959 25.9961C22.0259 25.9961 21.5659 25.9061 21.1359 25.7161C20.7159 25.5461 20.3459 25.2961 20.0159 24.9761C19.6959 24.6461 19.4459 24.2761 19.2759 23.8561C19.0859 23.4261 18.9959 22.9661 18.9959 22.4961C18.9959 22.2961 19.0159 22.0861 19.0559 21.8861L9.2559 12.0761L13.6359 33.9961L27.1659 33.9961Z" fill-rule="evenodd"  fill="#000000" >
</path>
</svg>
