<svg xmlns="http://www.w3.org/2000/svg" xmlns:xlink="http://www.w3.org/1999/xlink" width="48" height="48" viewBox="0 0 48 48" fill="none">
<path d="M31.1 20.9304C31.67 21.5004 32.34 21.9404 33.09 22.2504C33.81 22.5304 34.56 22.6904 35.34 22.6804C36.13 22.6904 36.88 22.5304 37.6 22.2504C38.35 21.9404 39.01 21.5004 39.58 20.9304L43.1 17.4104C43.67 16.8404 44.11 16.1804 44.42 15.4304C44.7 14.7104 44.86 13.9604 44.85 13.1704C44.86 12.3904 44.7 11.6404 44.42 10.9204C44.11 10.1704 43.67 9.5004 43.1 8.9304L39.58 5.4104C39.01 4.8404 38.35 4.4004 37.6 4.0904C36.88 3.8104 36.13 3.6504 35.34 3.6604C34.56 3.6504 33.81 3.8104 33.09 4.0904C32.34 4.4004 31.67 4.8404 31.1 5.4104L27.58 8.9304C27.01 9.5004 26.57 10.1704 26.26 10.9204C25.98 11.6404 25.82 12.3904 25.83 13.1704C25.82 13.9604 25.98 14.7104 26.26 15.4304C26.57 16.1804 27.01 16.8404 27.58 17.4104L31.1 20.9304ZM16.2 21.9204C17.33 21.4404 18.34 20.7604 19.22 19.8904C20.09 19.0104 20.77 18.0004 21.25 16.8704C21.75 15.6904 22 14.4604 22 13.1704C22 11.8804 21.75 10.6504 21.25 9.4704C20.77 8.3404 20.09 7.3304 19.22 6.4504C18.34 5.5804 17.33 4.9004 16.2 4.4204C15.02 3.9204 13.79 3.6704 12.5 3.6704C11.21 3.6704 9.98 3.9204 8.8 4.4204C7.67 4.9004 6.66 5.5804 5.78 6.4504C4.91 7.3304 4.23 8.3404 3.75 9.4704C3.25 10.6504 3 11.8804 3 13.1704C3 14.4604 3.25 15.6904 3.75 16.8704C4.23 18.0004 4.91 19.0104 5.78 19.8904C6.66 20.7604 7.67 21.4404 8.8 21.9204C9.98 22.4204 11.21 22.6704 12.5 22.6704C13.79 22.6704 15.02 22.4204 16.2 21.9204ZM35.34 18.6804C35.6 18.6904 35.85 18.6404 36.09 18.5404C36.35 18.4404 36.57 18.2904 36.76 18.1004L40.27 14.5804C40.46 14.3904 40.61 14.1704 40.71 13.9204C40.81 13.6804 40.86 13.4304 40.85 13.1704C40.86 12.9104 40.81 12.6604 40.71 12.4204C40.61 12.1704 40.46 11.9504 40.27 11.7604L36.76 8.2404C36.57 8.0504 36.35 7.9004 36.09 7.8004C35.85 7.7004 35.6 7.6604 35.34 7.6604C35.08 7.6604 34.83 7.7004 34.59 7.8004C34.34 7.9004 34.12 8.0504 33.93 8.2404L30.41 11.7604C30.22 11.9504 30.07 12.1704 29.97 12.4204C29.88 12.6604 29.83 12.9104 29.83 13.1704C29.83 13.4304 29.88 13.6804 29.97 13.9204C30.07 14.1704 30.22 14.3904 30.41 14.5804L33.93 18.1004C34.12 18.2904 34.34 18.4404 34.59 18.5404C34.83 18.6404 35.08 18.6904 35.34 18.6804ZM17.57 15.3104C17.86 14.6304 18 13.9204 18 13.1704C18 12.4204 17.86 11.7104 17.57 11.0304C17.29 10.3704 16.9 9.7904 16.39 9.2804C15.88 8.7704 15.3 8.3804 14.64 8.1004C13.96 7.8104 13.25 7.6704 12.5 7.6704C11.75 7.6704 11.04 7.8104 10.36 8.1004C9.7 8.3804 9.12 8.7704 8.61 9.2804C8.1 9.7904 7.71 10.3704 7.43 11.0304C7.14 11.7104 7 12.4204 7 13.1704C7 13.9204 7.14 14.6304 7.43 15.3104C7.71 15.9704 8.1 16.5504 8.61 17.0604C9.12 17.5704 9.7 17.9604 10.36 18.2404C11.04 18.5304 11.75 18.6704 12.5 18.6704C13.25 18.6704 13.96 18.5304 14.64 18.2404C15.3 17.9604 15.88 17.5704 16.39 17.0604C16.9 16.5504 17.29 15.9704 17.57 15.3104ZM39 45.0004C39.81 45.0004 40.59 44.8404 41.34 44.5304C42.05 44.2204 42.69 43.8004 43.24 43.2404C43.8 42.6904 44.22 42.0504 44.53 41.3404C44.84 40.5904 45 39.8104 45 39.0004L45 32.0004C45 31.1904 44.84 30.4104 44.53 29.6604C44.22 28.9504 43.8 28.3104 43.24 27.7604C42.69 27.2004 42.05 26.7804 41.34 26.4704C40.59 26.1604 39.81 26.0004 39 26.0004L32 26.0004C31.19 26.0004 30.41 26.1604 29.66 26.4704C28.95 26.7804 28.31 27.2004 27.76 27.7604C27.2 28.3104 26.78 28.9504 26.47 29.6604C26.16 30.4104 26 31.1904 26 32.0004L26 39.0004C26 39.8104 26.16 40.5904 26.47 41.3404C26.78 42.0504 27.2 42.6904 27.76 43.2404C28.31 43.8004 28.95 44.2204 29.66 44.5304C30.41 44.8404 31.19 45.0004 32 45.0004L39 45.0004ZM13.99 28.8004C13.98 28.7404 13.97 28.6704 13.96 28.6104C13.95 28.5504 13.93 28.4804 13.91 28.4204C13.89 28.3604 13.87 28.3004 13.85 28.2304C13.82 28.1704 13.79 28.1104 13.76 28.0604C13.73 28.0004 13.7 27.9404 13.66 27.8904C13.63 27.8304 13.59 27.7804 13.55 27.7304C13.5 27.6804 13.46 27.6304 13.41 27.5904C13.37 27.5404 13.32 27.5004 13.27 27.4504C13.22 27.4104 13.17 27.3704 13.11 27.3404C13.06 27.3004 13 27.2704 12.94 27.2404C12.89 27.2104 12.83 27.1804 12.77 27.1504C12.7 27.1304 12.64 27.1104 12.58 27.0904C12.52 27.0704 12.45 27.0504 12.39 27.0404C12.33 27.0304 12.26 27.0204 12.2 27.0104C12.13 27.0004 12.07 27.0004 12 27.0004C11.93 27.0004 11.87 27.0004 11.8 27.0104C11.74 27.0204 11.67 27.0304 11.61 27.0404C11.55 27.0504 11.48 27.0704 11.42 27.0904C11.36 27.1104 11.3 27.1304 11.23 27.1504C11.17 27.1804 11.11 27.2104 11.06 27.2404C11 27.2704 10.94 27.3004 10.89 27.3404C10.83 27.3704 10.78 27.4104 10.73 27.4504C10.68 27.5004 10.63 27.5404 10.59 27.5904C10.54 27.6304 10.5 27.6804 10.45 27.7304C10.41 27.7804 10.37 27.8304 10.34 27.8904C10.3 27.9404 10.27 28.0004 10.24 28.0604C10.21 28.1104 10.18 28.1704 10.15 28.2304C10.13 28.3004 10.11 28.3604 10.09 28.4204C10.07 28.4804 10.05 28.5504 10.04 28.6104C10.03 28.6704 10.02 28.7404 10.01 28.8004C10 28.8704 10 28.9304 10 29.0004L10 34.0004L5 34.0004C4.93 34.0004 4.87 34.0004 4.8 34.0104C4.74 34.0204 4.67 34.0304 4.61 34.0404C4.55 34.0504 4.48 34.0704 4.42 34.0904C4.36 34.1104 4.3 34.1304 4.23 34.1504C4.17 34.1804 4.11 34.2104 4.06 34.2404C4 34.2704 3.94 34.3004 3.89 34.3404C3.83 34.3704 3.78 34.4104 3.73 34.4504C3.68 34.5004 3.63 34.5404 3.59 34.5904C3.54 34.6304 3.5 34.6804 3.45 34.7304C3.41 34.7804 3.37 34.8304 3.34 34.8904C3.3 34.9404 3.27 35.0004 3.24 35.0604C3.21 35.1104 3.18 35.1704 3.15 35.2304C3.13 35.3004 3.11 35.3604 3.09 35.4204C3.07 35.4804 3.05 35.5504 3.04 35.6104C3.03 35.6704 3.02 35.7404 3.01 35.8004C3 35.8704 3 35.9304 3 36.0004C3 36.0704 3 36.1304 3.01 36.2004C3.02 36.2604 3.03 36.3304 3.04 36.3904C3.05 36.4504 3.07 36.5204 3.09 36.5804C3.11 36.6404 3.13 36.7004 3.15 36.7704C3.18 36.8304 3.21 36.8904 3.24 36.9404C3.27 37.0004 3.3 37.0604 3.34 37.1104C3.37 37.1704 3.41 37.2204 3.45 37.2704C3.5 37.3204 3.54 37.3704 3.59 37.4104C3.63 37.4604 3.68 37.5004 3.73 37.5504C3.78 37.5904 3.83 37.6304 3.89 37.6604C3.94 37.7004 4 37.7304 4.06 37.7604C4.11 37.7904 4.17 37.8204 4.23 37.8504C4.3 37.8704 4.36 37.8904 4.42 37.9104C4.48 37.9304 4.55 37.9504 4.61 37.9604C4.67 37.9704 4.74 37.9804 4.8 37.9904C4.87 38.0004 4.93 38.0004 5 38.0004L10 38.0004L10 43.0004C10 43.0704 10 43.1304 10.01 43.2004C10.02 43.2604 10.03 43.3304 10.04 43.3904C10.05 43.4504 10.07 43.5204 10.09 43.5804C10.11 43.6404 10.13 43.7004 10.15 43.7704C10.18 43.8304 10.21 43.8804 10.24 43.9404C10.27 44.0004 10.3 44.0604 10.34 44.1104C10.37 44.1704 10.41 44.2204 10.45 44.2704C10.5 44.3204 10.54 44.3704 10.59 44.4104C10.63 44.4604 10.68 44.5004 10.73 44.5504C10.78 44.5904 10.83 44.6304 10.89 44.6604C10.94 44.7004 11 44.7304 11.06 44.7604C11.11 44.7904 11.17 44.8204 11.23 44.8504C11.3 44.8704 11.36 44.8904 11.42 44.9104C11.48 44.9304 11.55 44.9504 11.61 44.9604C11.67 44.9704 11.74 44.9804 11.8 44.9904C11.87 45.0004 11.93 45.0004 12 45.0004C12.07 45.0004 12.13 45.0004 12.2 44.9904C12.26 44.9804 12.33 44.9704 12.39 44.9604C12.45 44.9504 12.52 44.9304 12.58 44.9104C12.64 44.8904 12.7 44.8704 12.77 44.8504C12.83 44.8204 12.89 44.7904 12.94 44.7604C13 44.7304 13.06 44.7004 13.11 44.6604C13.17 44.6304 13.22 44.5904 13.27 44.5504C13.32 44.5004 13.37 44.4604 13.41 44.4104C13.46 44.3704 13.5 44.3204 13.55 44.2704C13.59 44.2204 13.63 44.1704 13.66 44.1104C13.7 44.0604 13.73 44.0004 13.76 43.9404C13.79 43.8804 13.82 43.8304 13.85 43.7704C13.87 43.7004 13.89 43.6404 13.91 43.5804C13.93 43.5204 13.95 43.4504 13.96 43.3904C13.97 43.3304 13.98 43.2604 13.99 43.2004C14 43.1304 14 43.0704 14 43.0004L14 38.0004L19 38.0004C19.07 38.0004 19.13 38.0004 19.2 37.9904C19.26 37.9804 19.33 37.9704 19.39 37.9604C19.45 37.9504 19.52 37.9304 19.58 37.9104C19.64 37.8904 19.7 37.8704 19.77 37.8504C19.83 37.8204 19.88 37.7904 19.94 37.7604C20 37.7304 20.06 37.7004 20.11 37.6604C20.17 37.6304 20.22 37.5904 20.27 37.5504C20.32 37.5004 20.37 37.4604 20.41 37.4104C20.46 37.3704 20.5 37.3204 20.55 37.2704C20.59 37.2204 20.63 37.1704 20.66 37.1104C20.7 37.0604 20.73 37.0004 20.76 36.9404C20.79 36.8904 20.82 36.8304 20.85 36.7704C20.87 36.7004 20.89 36.6404 20.91 36.5804C20.93 36.5204 20.95 36.4504 20.96 36.3904C20.97 36.3304 20.98 36.2604 20.99 36.2004C21 36.1304 21 36.0704 21 36.0004C21 35.9304 21 35.8704 20.99 35.8004C20.98 35.7404 20.97 35.6704 20.96 35.6104C20.95 35.5504 20.93 35.4804 20.91 35.4204C20.89 35.3604 20.87 35.3004 20.85 35.2304C20.82 35.1704 20.79 35.1104 20.76 35.0604C20.73 35.0004 20.7 34.9404 20.66 34.8904C20.63 34.8304 20.59 34.7804 20.55 34.7304C20.5 34.6804 20.46 34.6304 20.41 34.5904C20.37 34.5404 20.32 34.5004 20.27 34.4504C20.22 34.4104 20.17 34.3704 20.11 34.3404C20.06 34.3004 20 34.2704 19.94 34.2404C19.88 34.2104 19.83 34.1804 19.77 34.1504C19.7 34.1304 19.64 34.1104 19.58 34.0904C19.52 34.0704 19.45 34.0504 19.39 34.0404C19.33 34.0304 19.26 34.0204 19.2 34.0104C19.13 34.0004 19.07 34.0004 19 34.0004L14 34.0004L14 29.0004C14 28.9304 14 28.8704 13.99 28.8004ZM40.41 40.4104C40.6 40.2304 40.74 40.0204 40.84 39.7804C40.95 39.5304 41 39.2704 41 39.0004L41 32.0004C41 31.7304 40.95 31.4704 40.84 31.2204C40.74 30.9804 40.6 30.7704 40.41 30.5904C40.23 30.4004 40.02 30.2604 39.78 30.1604C39.53 30.0504 39.27 30.0004 39 30.0004L32 30.0004C31.73 30.0004 31.47 30.0504 31.22 30.1604C30.98 30.2604 30.77 30.4004 30.59 30.5904C30.4 30.7704 30.26 30.9804 30.16 31.2204C30.05 31.4704 30 31.7304 30 32.0004L30 39.0004C30 39.2704 30.05 39.5304 30.16 39.7804C30.26 40.0204 30.4 40.2304 30.59 40.4104C30.77 40.6004 30.98 40.7404 31.22 40.8404C31.47 40.9504 31.73 41.0004 32 41.0004L39 41.0004C39.27 41.0004 39.53 40.9504 39.78 40.8404C40.02 40.7404 40.23 40.6004 40.41 40.4104Z" fill-rule="evenodd"  fill="#000000" >
</path>
</svg>
