<svg xmlns="http://www.w3.org/2000/svg" xmlns:xlink="http://www.w3.org/1999/xlink" width="48" height="48" viewBox="0 0 48 48" fill="none">
<path d="M20.4718 6.09507L7.10184 15.8051C6.58184 16.1851 6.14184 16.6251 5.76184 17.1451C5.40184 17.6551 5.12184 18.2051 4.92184 18.7951C4.73184 19.3951 4.63184 20.0051 4.63184 20.6351C4.63184 21.2751 4.73184 21.9051 4.93184 22.5151L10.0318 38.2251C10.2318 38.8451 10.5218 39.4051 10.9018 39.9251C11.2718 40.4251 11.7118 40.8651 12.2118 41.2251C12.7218 41.5951 13.2718 41.8751 13.8718 42.0751C14.4718 42.2751 15.1018 42.3651 15.7418 42.3651L32.2618 42.3651C32.9018 42.3651 33.5218 42.2751 34.1318 42.0751C34.7218 41.8751 35.2718 41.5951 35.7818 41.2251C36.2918 40.8651 36.7318 40.4251 37.1018 39.9251C37.4818 39.4051 37.7718 38.8451 37.9718 38.2351L43.0718 22.5051C43.2718 21.8951 43.3718 21.2751 43.3718 20.6351C43.3618 20.0051 43.2718 19.3951 43.0718 18.7951C42.8818 18.2051 42.6018 17.6551 42.2318 17.1451C41.8618 16.6251 41.4118 16.1851 40.9018 15.8051L27.5218 6.09507C27.0118 5.71507 26.4418 5.42507 25.8318 5.23507C25.2418 5.04507 24.6218 4.94507 24.0018 4.94507C23.3718 4.94507 22.7618 5.04507 22.1618 5.23507C21.5618 5.42507 20.9918 5.71507 20.4718 6.09507C20.4718 6.09507 20.4718 6.09507 20.4718 6.09507ZM8.73184 20.0351C8.59184 20.4451 8.59184 20.8551 8.73184 21.2651L13.8318 36.9951C13.9618 37.4051 14.2118 37.7351 14.5618 37.9851C14.9118 38.2451 15.3018 38.3651 15.7418 38.3651L32.2618 38.3651C32.6918 38.3651 33.0918 38.2451 33.4418 37.9851C33.7918 37.7351 34.0318 37.4051 34.1718 36.9851L39.2718 21.2751C39.4018 20.8551 39.4018 20.4451 39.2718 20.0351C39.1418 19.6251 38.8918 19.2951 38.5418 19.0351L25.1718 9.32507C24.8218 9.07507 24.4318 8.94507 24.0018 8.94507C23.5718 8.94507 23.1718 9.07507 22.8318 9.32507L22.8218 9.32507L9.45184 19.0351C9.10184 19.2951 8.86184 19.6251 8.73184 20.0351Z" fill-rule="evenodd"  fill="#000000" >
</path>
</svg>
