<svg xmlns="http://www.w3.org/2000/svg" xmlns:xlink="http://www.w3.org/1999/xlink" width="48" height="48" viewBox="0 0 48 48" fill="none">
<path d="M2 11C2 15.97 6.03 20 11 20C12.76 20 14.41 19.49 15.8 18.62L21.18 24L15.8 29.38C14.41 28.51 12.76 28 11 28C6.03 28 2 32.03 2 37C2 41.97 6.03 46 11 46C15.97 46 20 41.97 20 37C20 35.24 19.49 33.59 18.62 32.2L24 26.82L29.38 32.2C28.51 33.59 28 35.24 28 37C28 41.97 32.03 46 37 46C41.97 46 46 41.97 46 37C46 32.03 41.97 28 37 28C35.24 28 33.59 28.51 32.2 29.38L26.82 24L32.2 18.62C33.59 19.49 35.24 20 37 20C41.97 20 46 15.97 46 11C46 6.03 41.97 2 37 2C32.03 2 28 6.03 28 11C28 12.76 28.51 14.41 29.38 15.8L24 21.18L18.62 15.8C19.49 14.41 20 12.76 20 11C20 6.03 15.97 2 11 2C6.03 2 2 6.03 2 11ZM16 11C16 8.24 13.76 6 11 6C8.24 6 6 8.24 6 11C6 13.76 8.24 16 11 16C13.76 16 16 13.76 16 11ZM42 11C42 8.24 39.76 6 37 6C34.24 6 32 8.24 32 11C32 13.76 34.24 16 37 16C39.76 16 42 13.76 42 11ZM16 37C16 34.24 13.76 32 11 32C8.24 32 6 34.24 6 37C6 39.76 8.24 42 11 42C13.76 42 16 39.76 16 37ZM42 37C42 34.24 39.76 32 37 32C34.24 32 32 34.24 32 37C32 39.76 34.24 42 37 42C39.76 42 42 39.76 42 37Z" fill-rule="evenodd"  fill="#000000" >
</path>
</svg>
