<svg xmlns="http://www.w3.org/2000/svg" xmlns:xlink="http://www.w3.org/1999/xlink" width="48" height="48" viewBox="0 0 48 48" fill="none">
<path d="M10.24 36.75C11.61 38.1101 13.18 39.16 14.95 39.89C16.73 40.6301 18.58 41 20.5 41L37 41C37.07 41 37.13 41 37.2 40.99C37.26 40.98 37.33 40.97 37.39 40.96C37.45 40.9501 37.52 40.93 37.58 40.91C37.64 40.89 37.7 40.87 37.77 40.85C37.83 40.82 37.89 40.7901 37.94 40.76C38 40.73 38.06 40.7001 38.11 40.66C38.17 40.6301 38.22 40.59 38.27 40.55C38.32 40.5 38.37 40.46 38.41 40.41C38.46 40.37 38.5 40.32 38.55 40.2701C38.59 40.22 38.63 40.17 38.66 40.1101C38.7 40.06 38.73 40 38.76 39.94C38.79 39.89 38.82 39.83 38.85 39.7701C38.87 39.7001 38.89 39.64 38.91 39.58C38.93 39.5201 38.95 39.4501 38.96 39.39C38.97 39.33 38.98 39.26 38.99 39.2001C39 39.1301 39 39.07 39 39C39 38.93 39 38.87 38.99 38.8C38.98 38.74 38.97 38.67 38.96 38.6101C38.95 38.55 38.93 38.48 38.91 38.42C38.89 38.3601 38.87 38.3 38.85 38.23C38.82 38.17 38.79 38.1101 38.76 38.06C38.73 38 38.7 37.94 38.66 37.89C38.63 37.83 38.59 37.78 38.55 37.73C38.5 37.68 38.46 37.6301 38.41 37.59C38.37 37.54 38.32 37.5 38.27 37.4501C38.22 37.41 38.17 37.37 38.11 37.34C38.06 37.3 38 37.2701 37.94 37.2401C37.89 37.21 37.83 37.18 37.77 37.15C37.7 37.1301 37.64 37.11 37.58 37.09C37.52 37.07 37.45 37.05 37.39 37.04C37.33 37.03 37.26 37.0201 37.2 37.01C37.13 37 37.07 37 37 37L20.5 37C19.11 37 17.77 36.73 16.48 36.2001C15.2 35.6701 14.06 34.91 13.08 33.93C12.09 32.94 11.33 31.8 10.8 30.52C10.27 29.23 10 27.89 10 26.5C10 25.11 10.27 23.77 10.8 22.48C11.33 21.2 12.09 20.06 13.07 19.08C14.06 18.09 15.2 17.33 16.48 16.8C17.77 16.2701 19.11 16 20.5 16L35.37 16L32.18 18.78L34.82 21.8L40.24 17.05C40.67 16.67 41.01 16.22 41.24 15.7C41.48 15.17 41.6 14.62 41.6 14.05C41.6 13.47 41.48 12.92 41.24 12.4C41.01 11.87 40.67 11.42 40.24 11.03L34.82 6.29005C34.77 6.25005 34.72 6.21005 34.66 6.17005C34.61 6.13005 34.55 6.10005 34.5 6.07005C34.44 6.03005 34.38 6.00005 34.32 5.98005C34.26 5.95005 34.2 5.93005 34.14 5.91005C34.08 5.88005 34.02 5.87005 33.95 5.85005C33.89 5.84005 33.82 5.83005 33.76 5.82005C33.69 5.81005 33.63 5.80005 33.56 5.80005L33.37 5.80005C33.3 5.81005 33.24 5.82005 33.17 5.83005C33.11 5.84005 33.04 5.85005 32.98 5.87005C32.92 5.89005 32.85 5.91005 32.79 5.93005C32.73 5.95005 32.67 5.98005 32.61 6.01005C32.55 6.04005 32.5 6.07005 32.44 6.10005C32.39 6.14005 32.33 6.17005 32.28 6.21005C32.23 6.25005 32.18 6.30005 32.13 6.34005L31.99 6.48005C31.95 6.53005 31.91 6.58005 31.87 6.64005C31.83 6.69005 31.8 6.75005 31.77 6.80005C31.73 6.86005 31.7 6.92005 31.68 6.98005C31.65 7.04005 31.63 7.10005 31.61 7.16005C31.58 7.22005 31.57 7.28005 31.55 7.35005C31.54 7.41005 31.53 7.48005 31.52 7.54005C31.51 7.61005 31.5 7.67005 31.5 7.74005L31.5 7.93005C31.51 8.00005 31.52 8.06005 31.53 8.13005C31.54 8.19005 31.55 8.26005 31.57 8.32005C31.59 8.38005 31.61 8.45005 31.63 8.51005C31.65 8.57005 31.68 8.63005 31.71 8.69005C31.74 8.75005 31.77 8.80005 31.8 8.86005C31.84 8.91005 31.87 8.97005 31.91 9.02005C31.95 9.07005 32 9.12005 32.04 9.17005L32.18 9.31005L35.26 12L20.5 12C18.58 12 16.73 12.37 14.95 13.1C13.18 13.84 11.61 14.89 10.25 16.24C8.89 17.6101 7.84 19.18 7.1 20.95C6.37 22.73 6 24.58 6 26.5C6 28.42 6.37 30.27 7.1 32.05C7.84 33.82 8.89 35.39 10.24 36.75ZM32.61 22.09C32.67 22.12 32.73 22.14 32.79 22.17C32.85 22.19 32.92 22.21 32.98 22.23C33.04 22.24 33.11 22.26 33.17 22.27C33.24 22.28 33.3 22.29 33.37 22.29C33.39 22.29 33.41 22.29 33.43 22.29C33.47 22.29 33.52 22.3 33.56 22.29C33.63 22.29 33.69 22.29 33.76 22.28C33.82 22.27 33.89 22.26 33.95 22.24C34.02 22.23 34.08 22.21 34.14 22.19C34.2 22.17 34.26 22.14 34.32 22.12L34.5 22.03C34.55 22 34.61 21.96 34.66 21.92C34.72 21.88 34.77 21.84 34.82 21.8L32.18 18.79C32.08 18.88 31.99 18.97 31.91 19.08C31.83 19.18 31.77 19.29 31.71 19.41C31.65 19.53 31.6 19.65 31.57 19.78C31.53 19.9 31.51 20.03 31.5 20.16C31.5 20.29 31.5 20.42 31.52 20.55C31.53 20.68 31.56 20.81 31.61 20.94C31.65 21.06 31.7 21.18 31.77 21.29C31.83 21.41 31.91 21.51 31.99 21.6101C32.04 21.66 32.08 21.71 32.13 21.75C32.18 21.8 32.23 21.84 32.28 21.88C32.33 21.92 32.39 21.96 32.44 21.99C32.5 22.03 32.55 22.06 32.61 22.09Z" fill-rule="evenodd"  fill="#000000" >
</path>
</svg>
