<svg xmlns="http://www.w3.org/2000/svg" xmlns:xlink="http://www.w3.org/1999/xlink" width="48" height="48" viewBox="0 0 48 48" fill="none">
<path d="M35.09 7.36L33.53 9.61L35.08 7.35C35.03 7.32 34.97 7.28 34.91 7.25C34.85 7.22 34.8 7.19 34.74 7.16C34.68 7.14 34.61 7.11 34.55 7.09C34.49 7.07 34.43 7.06 34.36 7.04C34.3 7.03 34.23 7.02 34.17 7.01C34.1 7.01 34.04 7 33.97 7C33.91 7 33.84 7 33.78 7.01C33.71 7.01 33.65 7.02 33.58 7.03C33.52 7.05 33.45 7.06 33.39 7.08L33.21 7.14C33.14 7.17 33.08 7.19 33.03 7.22C32.97 7.25 32.91 7.29 32.86 7.32C32.8 7.36 32.75 7.4 32.7 7.44C32.65 7.48 32.6 7.52 32.55 7.57C32.5 7.61 32.46 7.66 32.42 7.71C32.37 7.76 32.33 7.81 32.3 7.87C32.22 7.97 32.16 8.09 32.11 8.21C32.06 8.33 32.02 8.45 31.99 8.58C31.96 8.71 31.95 8.84 31.95 8.97C31.94 9.1 31.95 9.23 31.98 9.36C32 9.49 32.04 9.62 32.09 9.74C32.14 9.86 32.2 9.98 32.27 10.09C32.34 10.2 32.42 10.3 32.51 10.39C32.6 10.49 32.7 10.57 32.81 10.65C33.62 11.21 34.38 11.85 35.09 12.56C36.48 14 37.55 15.64 38.32 17.49C39.11 19.41 39.5 21.42 39.5 23.53C39.5 25.64 39.1 27.65 38.31 29.57C37.55 31.42 36.48 33.06 35.09 34.49C33.7 35.91 32.11 37.01 30.32 37.79C28.47 38.6 26.53 39 24.5 39C22.47 39 20.53 38.6 18.68 37.79C16.89 37.01 15.3 35.91 13.91 34.49C12.52 33.06 11.45 31.42 10.69 29.57C9.9 27.65 9.5 25.64 9.5 23.53C9.5 21.42 9.89 19.41 10.68 17.49C11.45 15.64 12.52 14 13.9 12.58C14.1 12.38 14.3 12.19 14.5 12L14.5 17C14.5 17.07 14.5 17.13 14.51 17.2C14.52 17.26 14.53 17.33 14.54 17.39C14.55 17.45 14.57 17.52 14.59 17.58C14.61 17.64 14.63 17.7 14.65 17.77C14.68 17.83 14.71 17.89 14.74 17.94C14.77 18 14.8 18.06 14.84 18.11C14.87 18.17 14.91 18.22 14.95 18.27C15 18.32 15.04 18.37 15.09 18.41C15.13 18.46 15.18 18.5 15.23 18.55C15.28 18.59 15.33 18.63 15.39 18.66C15.44 18.7 15.5 18.73 15.56 18.76C15.61 18.79 15.67 18.82 15.73 18.85C15.8 18.87 15.86 18.89 15.92 18.91C15.98 18.93 16.05 18.95 16.11 18.96C16.17 18.97 16.24 18.98 16.3 18.99C16.37 19 16.43 19 16.5 19C16.57 19 16.63 19 16.7 18.99C16.76 18.98 16.83 18.97 16.89 18.96C16.95 18.95 17.02 18.93 17.08 18.91C17.14 18.89 17.2 18.87 17.27 18.85C17.33 18.82 17.39 18.79 17.44 18.76C17.5 18.73 17.56 18.7 17.61 18.66C17.67 18.63 17.72 18.59 17.77 18.55C17.82 18.5 17.87 18.46 17.91 18.41C17.96 18.37 18 18.32 18.05 18.27C18.09 18.22 18.13 18.17 18.16 18.11C18.2 18.06 18.23 18 18.26 17.94C18.29 17.89 18.32 17.83 18.35 17.77C18.37 17.7 18.39 17.64 18.41 17.58C18.43 17.52 18.45 17.45 18.46 17.39C18.47 17.33 18.48 17.26 18.49 17.2C18.5 17.13 18.5 17.07 18.5 17L18.5 9C18.5 8.46 18.39 7.94 18.18 7.44C17.98 6.96 17.69 6.54 17.33 6.17C16.96 5.81 16.54 5.52 16.06 5.32C15.56 5.11 15.04 5 14.5 5L6.5 5C6.43 5 6.37 5 6.3 5.01C6.24 5.02 6.17 5.03 6.11 5.04C6.05 5.05 5.98 5.07 5.92 5.09C5.86 5.11 5.8 5.13 5.73 5.15C5.67 5.18 5.61 5.21 5.56 5.24C5.5 5.27 5.44 5.3 5.39 5.34C5.33 5.37 5.28 5.41 5.23 5.45C5.18 5.5 5.13 5.54 5.09 5.59C5.04 5.63 5 5.68 4.95 5.73C4.91 5.78 4.87 5.83 4.84 5.89C4.8 5.94 4.77 6 4.74 6.06C4.71 6.11 4.68 6.17 4.65 6.23C4.63 6.3 4.61 6.36 4.59 6.42C4.57 6.48 4.55 6.55 4.54 6.61C4.53 6.67 4.52 6.74 4.51 6.8C4.5 6.87 4.5 6.93 4.5 7C4.5 7.07 4.5 7.13 4.51 7.2C4.52 7.26 4.53 7.33 4.54 7.39C4.55 7.45 4.57 7.52 4.59 7.58C4.61 7.64 4.63 7.7 4.65 7.77C4.68 7.83 4.71 7.89 4.74 7.94C4.77 8 4.8 8.06 4.84 8.11C4.87 8.17 4.91 8.22 4.95 8.27C5 8.32 5.04 8.37 5.09 8.41C5.13 8.46 5.18 8.5 5.23 8.55C5.28 8.59 5.33 8.63 5.39 8.66C5.44 8.7 5.5 8.73 5.56 8.76C5.61 8.79 5.67 8.82 5.73 8.85C5.8 8.87 5.86 8.89 5.92 8.91C5.98 8.93 6.05 8.95 6.11 8.96C6.17 8.97 6.24 8.98 6.3 8.99C6.37 9 6.43 9 6.5 9L11.85 9C11.58 9.24 11.32 9.5 11.06 9.76C9.3 11.57 7.94 13.64 6.99 15.97C6 18.37 5.5 20.89 5.5 23.53C5.5 26.16 6 28.68 6.99 31.09C7.94 33.42 9.3 35.48 11.05 37.28C12.8 39.08 14.81 40.47 17.09 41.46C19.45 42.49 21.92 43 24.5 43C27.08 43 29.55 42.49 31.91 41.46C34.19 40.47 36.2 39.08 37.95 37.28C39.7 35.48 41.06 33.42 42.01 31.09C43 28.68 43.5 26.16 43.5 23.53C43.5 20.89 43 18.37 42.01 15.97C41.06 13.64 39.7 11.58 37.95 9.78C37.06 8.87 36.1 8.06 35.09 7.36Z"   fill="#000000" >
</path>
</svg>
