<svg xmlns="http://www.w3.org/2000/svg" xmlns:xlink="http://www.w3.org/1999/xlink" width="48" height="48" viewBox="0 0 48 48" fill="none">
<path   fill-rule="evenodd"  fill="#000000"  d="M10 6L12.7278 6C12.7933 6 12.8586 5.99679 12.9238 5.99037C12.989 5.98395 13.0537 5.97435 13.118 5.96157C13.1822 5.94879 13.2457 5.93289 13.3083 5.91388C13.371 5.89487 13.4326 5.87283 13.4931 5.84776C13.5537 5.82269 13.6128 5.79472 13.6706 5.76384C13.7283 5.73297 13.7845 5.69933 13.8389 5.66294C13.8934 5.62655 13.9459 5.58757 13.9966 5.54602C14.0472 5.50447 14.0957 5.46053 14.142 5.41421C14.1883 5.3679 14.2323 5.31942 14.2738 5.26879C14.3153 5.21816 14.3543 5.16561 14.3907 5.11114C14.4271 5.05668 14.4607 5.00056 14.4916 4.94279C14.5225 4.88503 14.5504 4.82588 14.5755 4.76537C14.6006 4.70485 14.6226 4.64325 14.6417 4.58057C14.6607 4.51789 14.6766 4.45442 14.6894 4.39018C14.7021 4.32594 14.7117 4.26122 14.7182 4.19603C14.7246 4.13085 14.7278 4.0655 14.7278 4C14.7278 3.9345 14.7246 3.86915 14.7182 3.80397C14.7117 3.73878 14.7021 3.67406 14.6894 3.60982C14.6766 3.54558 14.6607 3.48211 14.6417 3.41943C14.6226 3.35675 14.6006 3.29515 14.5755 3.23463C14.5504 3.17412 14.5225 3.11498 14.4916 3.05721C14.4607 2.99944 14.4271 2.94332 14.3907 2.88886C14.3543 2.83439 14.3153 2.78184 14.2738 2.73121C14.2323 2.68058 14.1883 2.6321 14.142 2.58579C14.0957 2.53947 14.0472 2.49553 13.9966 2.45398C13.9459 2.41243 13.8934 2.37345 13.8389 2.33706C13.7844 2.30067 13.7283 2.26703 13.6706 2.23616C13.6128 2.20528 13.5537 2.17731 13.4931 2.15224C13.4326 2.12717 13.371 2.10513 13.3083 2.08612C13.2456 2.06711 13.1822 2.05121 13.118 2.03843C13.0537 2.02565 12.989 2.01605 12.9238 2.00963C12.8586 2.00321 12.7933 2 12.7278 2L10 2C9.4192 2 8.84694 2.06183 8.28321 2.1855C8.21922 2.19953 8.15608 2.21667 8.09379 2.23691C8.03149 2.25715 7.97033 2.28039 7.91032 2.30664C7.85031 2.33289 7.79172 2.36201 7.73457 2.39402C7.67742 2.42603 7.62198 2.46075 7.56824 2.4982C7.5145 2.53565 7.46272 2.57565 7.41291 2.61819C7.3631 2.66073 7.3155 2.70561 7.2701 2.75282C7.2247 2.80004 7.18172 2.84937 7.14117 2.9008C7.10062 2.95224 7.06268 3.00554 7.02736 3.06071C6.99204 3.11588 6.95951 3.17264 6.92978 3.231C6.90004 3.28937 6.87323 3.34904 6.84935 3.41004C6.82548 3.47104 6.80465 3.53306 6.78686 3.5961C6.76908 3.65914 6.75443 3.7229 6.74292 3.78738C6.7314 3.85187 6.72307 3.91676 6.71793 3.98206C6.71279 4.04736 6.71086 4.11275 6.71214 4.17824C6.71343 4.24373 6.71792 4.309 6.72561 4.37405C6.73331 4.4391 6.74418 4.50362 6.75821 4.5676C6.77224 4.63158 6.78938 4.69472 6.80962 4.75701C6.82986 4.81931 6.8531 4.88047 6.87935 4.94048C6.9056 5.00049 6.93473 5.05908 6.96673 5.11623C6.99874 5.17338 7.03346 5.22883 7.07091 5.28256C7.10836 5.3363 7.14836 5.38808 7.1909 5.43789C7.23344 5.4877 7.27832 5.5353 7.32553 5.5807C7.37275 5.62611 7.42208 5.66909 7.47351 5.70964C7.52495 5.75019 7.57825 5.78813 7.63342 5.82344C7.68859 5.85876 7.74535 5.89129 7.80371 5.92103C7.86208 5.95077 7.92176 5.97758 7.98275 6.00145C8.04374 6.02532 8.10576 6.04615 8.16881 6.06394C8.23185 6.08172 8.29561 6.09637 8.3601 6.10789C8.42458 6.1194 8.48947 6.12773 8.55477 6.13287C8.62007 6.13802 8.68546 6.13995 8.75095 6.13866C8.81644 6.13738 8.88171 6.13289 8.94676 6.12519C9.01181 6.1175 9.07633 6.10663 9.14031 6.09259C9.4217 6.03086 9.70826 6 10 6ZM18.4998 6.03086C19.4136 6.14469 20.1966 6.53266 20.8487 7.19478C20.8946 7.24145 20.9428 7.28575 20.9931 7.32768C21.0434 7.36962 21.0957 7.40899 21.1499 7.44579C21.204 7.4826 21.2599 7.51666 21.3174 7.54797C21.3749 7.57928 21.4339 7.6077 21.4942 7.63323C21.5545 7.65876 21.616 7.68126 21.6785 7.70075C21.741 7.72024 21.8044 7.73662 21.8685 7.74989C21.9326 7.76316 21.9973 7.77325 22.0625 7.78016C22.1276 7.78707 22.1929 7.79078 22.2584 7.79128C22.3239 7.79177 22.3893 7.78906 22.4545 7.78313C22.5198 7.77721 22.5846 7.7681 22.6489 7.75581C22.7132 7.74352 22.7768 7.7281 22.8396 7.70957C22.9025 7.69103 22.9642 7.66946 23.0249 7.64485C23.0856 7.62024 23.145 7.59272 23.203 7.56228C23.261 7.53184 23.3174 7.49863 23.3721 7.46266C23.4268 7.42668 23.4797 7.38811 23.5306 7.34694C23.5815 7.30577 23.6303 7.2622 23.677 7.21624C23.7706 7.12409 23.8543 7.02369 23.928 6.91506C24.0018 6.80643 24.0643 6.69164 24.1155 6.5707C24.1666 6.44976 24.2055 6.32499 24.2321 6.19639C24.2587 6.06779 24.2725 5.93783 24.2735 5.80651C24.2745 5.67519 24.2627 5.54504 24.2381 5.41605C24.2134 5.28706 24.1764 5.16171 24.1271 5.04001C24.0778 4.91831 24.017 4.80258 23.9449 4.69284C23.8728 4.5831 23.7906 4.48145 23.6985 4.38789C22.3959 3.06539 20.8278 2.28994 18.9942 2.06153C18.9292 2.05344 18.864 2.04855 18.7985 2.04686C18.733 2.04517 18.6676 2.0467 18.6023 2.05144C18.537 2.05618 18.472 2.06411 18.4074 2.07523C18.3429 2.08635 18.279 2.10061 18.2159 2.118C18.1528 2.13539 18.0906 2.15584 18.0294 2.17934C17.9683 2.20284 17.9084 2.22928 17.8499 2.25866C17.7914 2.28804 17.7344 2.32022 17.679 2.35519C17.6236 2.39017 17.5701 2.42778 17.5184 2.46802C17.4667 2.50825 17.4171 2.55092 17.3696 2.59603C17.3221 2.64114 17.277 2.68847 17.2341 2.73802C17.1913 2.78757 17.151 2.83909 17.1132 2.8926C17.0754 2.94611 17.0403 3.00134 17.008 3.0583C16.9757 3.11525 16.9462 3.17365 16.9195 3.2335C16.8929 3.29335 16.8693 3.35436 16.8487 3.41654C16.828 3.47871 16.8105 3.54174 16.7961 3.60563C16.7817 3.66953 16.7704 3.73397 16.7623 3.79897C16.7461 3.92929 16.7427 4.05993 16.7522 4.19091C16.7617 4.32189 16.7839 4.45068 16.8188 4.57729C16.8537 4.7039 16.9005 4.82589 16.9594 4.94326C17.0183 5.06063 17.0881 5.17112 17.1688 5.27475C17.2495 5.37838 17.3395 5.47314 17.4388 5.55903C17.5381 5.64493 17.6449 5.72031 17.7591 5.78518C17.8732 5.85004 17.9926 5.90314 18.1173 5.94449C18.242 5.98584 18.3695 6.01463 18.4998 6.03086ZM6 10C6 9.52329 6.08137 9.06394 6.2441 8.62194C6.28947 8.49871 6.32239 8.37223 6.34285 8.24251C6.36331 8.11279 6.37092 7.98232 6.36567 7.8511C6.36043 7.71989 6.34244 7.59044 6.3117 7.46277C6.28096 7.3351 6.23806 7.21165 6.18301 7.09242C6.12795 6.9732 6.06179 6.86049 5.98453 6.7543C5.90728 6.64811 5.8204 6.55048 5.72391 6.4614C5.62742 6.37232 5.52316 6.29351 5.41115 6.22497C5.29914 6.15642 5.18151 6.09947 5.05828 6.0541C4.99681 6.03147 4.93438 6.0119 4.87099 5.9954C4.8076 5.97891 4.74355 5.96556 4.67885 5.95535C4.61414 5.94514 4.54909 5.93813 4.4837 5.93432C4.41831 5.93051 4.35289 5.92991 4.28744 5.93253C4.22199 5.93514 4.15683 5.94096 4.09195 5.94997C4.02707 5.95899 3.96279 5.97117 3.89911 5.9865C3.83542 6.00183 3.77265 6.02025 3.71077 6.04175C3.6489 6.06325 3.58823 6.08773 3.52876 6.11519C3.46929 6.14266 3.41132 6.17297 3.35483 6.20612C3.29834 6.23928 3.24361 6.27513 3.19064 6.31367C3.13767 6.3522 3.08672 6.39324 3.03779 6.43678C2.98885 6.48033 2.94217 6.52616 2.89774 6.57429C2.85331 6.62242 2.81134 6.67261 2.77184 6.72486C2.73234 6.77711 2.6955 6.83118 2.66131 6.88705C2.62712 6.94292 2.59575 7.00034 2.5672 7.05929C2.53865 7.11824 2.51306 7.17845 2.49043 7.23992C2.16348 8.12796 2 9.04799 2 10L2 11.9083C2 11.9738 2.00321 12.0392 2.00963 12.1044C2.01605 12.1695 2.02565 12.2343 2.03843 12.2985C2.05121 12.3628 2.06711 12.4262 2.08612 12.4889C2.10513 12.5516 2.12717 12.6132 2.15224 12.6737C2.17731 12.7342 2.20528 12.7934 2.23616 12.8511C2.26703 12.9089 2.30067 12.965 2.33706 13.0195C2.37345 13.074 2.41243 13.1265 2.45398 13.1771C2.49553 13.2277 2.53947 13.2762 2.58579 13.3225C2.6321 13.3688 2.68058 13.4128 2.73121 13.4544C2.78184 13.4959 2.83439 13.5349 2.88886 13.5713C2.94332 13.6077 2.99944 13.6413 3.05721 13.6722C3.11497 13.703 3.17412 13.731 3.23463 13.7561C3.29515 13.7811 3.35675 13.8032 3.41943 13.8222C3.48211 13.8412 3.54558 13.8571 3.60982 13.8699C3.67406 13.8827 3.73878 13.8923 3.80397 13.8987C3.86915 13.9051 3.9345 13.9083 4 13.9083C4.0655 13.9083 4.13085 13.9051 4.19603 13.8987C4.26122 13.8923 4.32594 13.8827 4.39018 13.8699C4.45442 13.8571 4.51789 13.8412 4.58057 13.8222C4.64325 13.8032 4.70485 13.7811 4.76537 13.7561C4.82588 13.731 4.88503 13.703 4.94279 13.6722C5.00056 13.6413 5.05668 13.6077 5.11114 13.5713C5.16561 13.5349 5.21816 13.4959 5.26879 13.4544C5.31942 13.4128 5.3679 13.3689 5.41421 13.3225C5.46053 13.2762 5.50447 13.2277 5.54602 13.1771C5.58757 13.1265 5.62655 13.074 5.66294 13.0195C5.69933 12.965 5.73297 12.9089 5.76384 12.8511C5.79472 12.7934 5.82269 12.7342 5.84776 12.6737C5.87283 12.6132 5.89487 12.5516 5.91388 12.4889C5.93289 12.4262 5.94879 12.3627 5.96157 12.2985C5.97435 12.2343 5.98395 12.1695 5.99037 12.1044C5.99679 12.0392 6 11.9738 6 11.9083L6 10ZM28 16C28 18.2091 29.7909 20 32 20L38 20C40.2091 20 42 18.2091 42 16L42 10C42 7.79086 40.2091 6 38 6L32 6C29.7909 6 28 7.79086 28 10L28 16ZM8 16C8 18.2091 9.79086 20 12 20L16 20C18.2091 20 20 18.2091 20 16L20 12C20 9.79086 18.2091 8 16 8L12 8C9.79086 8 8 9.79086 8 12L8 16ZM22 11.3639L22 15.3639C22 15.4294 22.0032 15.4947 22.0096 15.5599C22.0161 15.6251 22.0257 15.6898 22.0384 15.7541C22.0512 15.8183 22.0671 15.8818 22.0861 15.9445C22.1051 16.0072 22.1271 16.0688 22.1522 16.1293C22.1773 16.1898 22.2053 16.2489 22.2362 16.3067C22.2671 16.3644 22.3007 16.4205 22.3371 16.475C22.3734 16.5295 22.4124 16.582 22.454 16.6327C22.4955 16.6833 22.5395 16.7318 22.5858 16.7781C22.6321 16.8244 22.6806 16.8684 22.7312 16.9099C22.7819 16.9514 22.8344 16.9904 22.8889 17.0268C22.9434 17.0632 22.9995 17.0968 23.0572 17.1277C23.115 17.1586 23.1741 17.1865 23.2346 17.2116C23.2951 17.2367 23.3567 17.2587 23.4194 17.2778C23.4821 17.2968 23.5456 17.3127 23.6098 17.3255C23.6741 17.3382 23.7388 17.3478 23.804 17.3543C23.8691 17.3607 23.9345 17.3639 24 17.3639C24.0655 17.3639 24.1309 17.3607 24.196 17.3543C24.2612 17.3478 24.3259 17.3382 24.3902 17.3255C24.4544 17.3127 24.5179 17.2968 24.5806 17.2778C24.6433 17.2587 24.7049 17.2367 24.7654 17.2116C24.8259 17.1865 24.885 17.1586 24.9428 17.1277C25.0005 17.0968 25.0566 17.0632 25.1111 17.0268C25.1656 16.9904 25.2181 16.9514 25.2688 16.9099C25.3194 16.8684 25.3679 16.8244 25.4142 16.7781C25.4605 16.7318 25.5045 16.6833 25.546 16.6327C25.5876 16.582 25.6266 16.5295 25.6629 16.475C25.6993 16.4205 25.7329 16.3644 25.7638 16.3067C25.7947 16.2489 25.8227 16.1898 25.8478 16.1293C25.8729 16.0688 25.8949 16.0072 25.9139 15.9445C25.9329 15.8818 25.9488 15.8183 25.9616 15.7541C25.9743 15.6898 25.9839 15.6251 25.9904 15.5599C25.9968 15.4947 26 15.4294 26 15.3639L26 11.3639C26 11.2984 25.9968 11.2331 25.9904 11.1679C25.9839 11.1027 25.9743 11.0379 25.9616 10.9737C25.9488 10.9095 25.9329 10.846 25.9139 10.7833C25.8949 10.7206 25.8729 10.659 25.8478 10.5985C25.8227 10.538 25.7947 10.4789 25.7638 10.4211C25.7329 10.3633 25.6993 10.3072 25.6629 10.2528C25.6265 10.1983 25.5875 10.1457 25.546 10.0951C25.5045 10.0445 25.4605 9.99599 25.4142 9.94968C25.3679 9.90336 25.3194 9.85942 25.2688 9.81787C25.2181 9.77632 25.1656 9.73734 25.1111 9.70095C25.0566 9.66456 25.0005 9.63092 24.9428 9.60005C24.885 9.56917 24.8259 9.5412 24.7654 9.51613C24.7049 9.49106 24.6433 9.46902 24.5806 9.45001C24.5179 9.431 24.4544 9.4151 24.3902 9.40232C24.3259 9.38954 24.2612 9.37994 24.196 9.37352C24.1309 9.3671 24.0655 9.36389 24 9.36389C23.9345 9.36389 23.8691 9.3671 23.804 9.37352C23.7388 9.37994 23.6741 9.38954 23.6098 9.40232C23.5456 9.4151 23.4821 9.431 23.4194 9.45001C23.3567 9.46902 23.2951 9.49106 23.2346 9.51613C23.1741 9.5412 23.115 9.56917 23.0572 9.60005C22.9995 9.63092 22.9434 9.66456 22.8889 9.70095C22.8344 9.73734 22.7819 9.77632 22.7312 9.81787C22.6806 9.85942 22.6321 9.90336 22.5858 9.94968C22.5395 9.99599 22.4955 10.0445 22.454 10.0951C22.4124 10.1457 22.3734 10.1983 22.3371 10.2528C22.3007 10.3072 22.2671 10.3633 22.2362 10.4211C22.2053 10.4789 22.1773 10.538 22.1522 10.5985C22.1271 10.659 22.1051 10.7206 22.0861 10.7833C22.0671 10.846 22.0512 10.9095 22.0384 10.9737C22.0257 11.0379 22.0161 11.1027 22.0096 11.1679C22.0032 11.2331 22 11.2984 22 11.3639ZM38 16L32 16L32 10L38 10L38 16ZM6 18L6 17.9083C6 17.8428 5.99679 17.7775 5.99037 17.7123C5.98395 17.6471 5.97435 17.5824 5.96157 17.5181C5.94879 17.4539 5.93289 17.3905 5.91388 17.3278C5.89487 17.2651 5.87283 17.2035 5.84776 17.143C5.82269 17.0825 5.79472 17.0233 5.76384 16.9655C5.73297 16.9078 5.69933 16.8517 5.66294 16.7972C5.62655 16.7427 5.58757 16.6902 5.54602 16.6395C5.50447 16.5889 5.46053 16.5404 5.41421 16.4941C5.3679 16.4478 5.31942 16.4038 5.26879 16.3623C5.21816 16.3208 5.16561 16.2818 5.11114 16.2454C5.05668 16.209 5.00056 16.1754 4.94279 16.1445C4.88503 16.1136 4.82588 16.0857 4.76537 16.0606C4.70485 16.0355 4.64325 16.0135 4.58057 15.9944C4.51789 15.9754 4.45442 15.9595 4.39018 15.9468C4.32594 15.934 4.26122 15.9244 4.19603 15.918C4.13085 15.9115 4.0655 15.9083 4 15.9083C3.9345 15.9083 3.86915 15.9115 3.80397 15.918C3.73878 15.9244 3.67406 15.934 3.60982 15.9468C3.54558 15.9595 3.48211 15.9754 3.41943 15.9944C3.35675 16.0135 3.29515 16.0355 3.23463 16.0606C3.17412 16.0857 3.11498 16.1136 3.05721 16.1445C2.99944 16.1754 2.94332 16.209 2.88886 16.2454C2.83439 16.2818 2.78184 16.3208 2.73121 16.3623C2.68058 16.4038 2.6321 16.4478 2.58579 16.4941C2.53947 16.5404 2.49553 16.5889 2.45398 16.6395C2.41243 16.6902 2.37345 16.7427 2.33706 16.7972C2.30067 16.8517 2.26703 16.9078 2.23616 16.9655C2.20528 17.0233 2.17731 17.0825 2.15224 17.143C2.12717 17.2035 2.10513 17.2651 2.08612 17.3278C2.06711 17.3905 2.05121 17.4539 2.03843 17.5181C2.02565 17.5824 2.01605 17.6471 2.00963 17.7123C2.00321 17.7775 2 17.8428 2 17.9083L2 18C2 19.8167 2.55458 21.4438 3.66374 22.8813C3.74396 22.9852 3.83356 23.0804 3.93252 23.1667C4.03148 23.253 4.13792 23.3289 4.25182 23.3942C4.36572 23.4596 4.48491 23.5132 4.60937 23.5551C4.73384 23.597 4.86119 23.6263 4.99143 23.6431C5.12168 23.6599 5.25231 23.6638 5.38332 23.6549C5.51434 23.646 5.64323 23.6243 5.76998 23.59C5.89674 23.5557 6.01893 23.5093 6.13655 23.4509C6.25418 23.3925 6.36498 23.3232 6.46895 23.243C6.52081 23.203 6.57058 23.1605 6.61827 23.1156C6.66596 23.0707 6.71133 23.0236 6.75439 22.9742C6.79744 22.9249 6.83798 22.8735 6.87599 22.8201C6.914 22.7668 6.94931 22.7117 6.98191 22.6549C7.01451 22.5981 7.04425 22.5398 7.07112 22.4801C7.09799 22.4204 7.12188 22.3595 7.14277 22.2974C7.16366 22.2353 7.18145 22.1723 7.19616 22.1085C7.21086 22.0446 7.2224 21.9802 7.23078 21.9153C7.23915 21.8503 7.24433 21.7851 7.2463 21.7196C7.24827 21.6541 7.24702 21.5887 7.24256 21.5234C7.2381 21.4581 7.23045 21.3931 7.21961 21.3285C7.20877 21.2639 7.19479 21.2 7.17766 21.1367C7.16054 21.0735 7.14036 21.0113 7.11713 20.95C7.09389 20.8888 7.06771 20.8289 7.03858 20.7702C7.00945 20.7115 6.97752 20.6544 6.94278 20.5989C6.90805 20.5434 6.87067 20.4897 6.83065 20.4378C6.27688 19.7201 6 18.9075 6 18ZM21.3791 20.1389C20.8796 20.9243 20.1938 21.4701 19.3215 21.7762C19.1976 21.8197 19.0792 21.8749 18.9661 21.9417C18.853 22.0086 18.7476 22.0858 18.6498 22.1734C18.5519 22.261 18.4636 22.3573 18.3847 22.4623C18.3058 22.5673 18.238 22.679 18.1812 22.7973C18.1243 22.9157 18.0795 23.0385 18.0468 23.1657C18.0141 23.2929 17.9942 23.4221 17.987 23.5532C17.9797 23.6843 17.9854 23.8148 18.0039 23.9449C18.0224 24.0749 18.0533 24.2018 18.0968 24.3257C18.1185 24.3876 18.1432 24.4482 18.1708 24.5075C18.1985 24.5669 18.229 24.6248 18.2623 24.6812C18.2956 24.7376 18.3317 24.7922 18.3704 24.845C18.4091 24.8979 18.4503 24.9487 18.494 24.9975C18.5377 25.0463 18.5836 25.0928 18.6319 25.1371C18.6802 25.1814 18.7305 25.2232 18.7829 25.2625C18.8352 25.3018 18.8894 25.3385 18.9454 25.3726C19.0014 25.4066 19.0589 25.4378 19.1179 25.4661C19.177 25.4945 19.2373 25.5199 19.2988 25.5423C19.3603 25.5648 19.4228 25.5841 19.4863 25.6004C19.5498 25.6167 19.6139 25.6299 19.6786 25.6399C19.7433 25.6499 19.8084 25.6567 19.8738 25.6603C19.9392 25.6639 20.0046 25.6643 20.07 25.6615C20.1355 25.6587 20.2006 25.6527 20.2655 25.6434C20.3303 25.6342 20.3945 25.6218 20.4582 25.6063C20.5218 25.5908 20.5845 25.5722 20.6464 25.5505C22.3901 24.9384 23.7594 23.85 24.7544 22.2853C24.7895 22.23 24.8219 22.1732 24.8515 22.1147C24.881 22.0562 24.9077 21.9965 24.9314 21.9354C24.9551 21.8743 24.9757 21.8123 24.9933 21.7492C25.0109 21.6861 25.0254 21.6222 25.0367 21.5577C25.048 21.4932 25.0561 21.4283 25.0611 21.363C25.066 21.2977 25.0677 21.2323 25.0662 21.1668C25.0647 21.1013 25.0601 21.0361 25.0522 20.971C25.0443 20.906 25.0332 20.8415 25.019 20.7776C25.0047 20.7137 24.9874 20.6506 24.967 20.5883C24.9466 20.5261 24.9232 20.465 24.8967 20.4051C24.8703 20.3452 24.841 20.2867 24.8088 20.2296C24.7766 20.1725 24.7417 20.1172 24.7041 20.0636C24.6665 20.0099 24.6264 19.9583 24.5837 19.9086C24.541 19.8589 24.4959 19.8115 24.4486 19.7662C24.4013 19.7209 24.3518 19.6781 24.3002 19.6377C24.2487 19.5973 24.1953 19.5595 24.14 19.5244C24.0847 19.4893 24.0279 19.4569 23.9694 19.4273C23.9109 19.3978 23.8512 19.3712 23.7901 19.3475C23.729 19.3238 23.667 19.3031 23.6039 19.2855C23.5408 19.2679 23.4769 19.2535 23.4124 19.2422C23.3479 19.2309 23.283 19.2227 23.2177 19.2178C23.1524 19.2129 23.087 19.2111 23.0215 19.2126C22.956 19.2141 22.8908 19.2187 22.8257 19.2266C22.7607 19.2345 22.6962 19.2456 22.6323 19.2598C22.5684 19.2741 22.5053 19.2914 22.443 19.3118C22.3808 19.3323 22.3197 19.3557 22.2598 19.3821C22.1999 19.4086 22.1414 19.4379 22.0843 19.47C22.0272 19.5022 21.9719 19.5371 21.9183 19.5747C21.8646 19.6123 21.813 19.6525 21.7633 19.6952C21.7136 19.7379 21.6662 19.7829 21.6209 19.8302C21.5756 19.8776 21.5328 19.9271 21.4924 19.9786C21.452 20.0301 21.4142 20.0836 21.3791 20.1389ZM10 22C9.9345 22 9.86916 22.0032 9.80397 22.0096C9.73878 22.0161 9.67406 22.0257 9.60982 22.0384C9.54557 22.0512 9.48211 22.0671 9.41943 22.0861C9.35675 22.1051 9.29515 22.1271 9.23463 22.1522C9.17412 22.1773 9.11498 22.2053 9.05721 22.2362C8.99944 22.2671 8.94332 22.3007 8.88886 22.3371C8.83439 22.3734 8.78184 22.4124 8.73121 22.454C8.68058 22.4955 8.6321 22.5395 8.58579 22.5858C8.53947 22.6321 8.49553 22.6806 8.45398 22.7312C8.41243 22.7819 8.37345 22.8344 8.33706 22.8889C8.30067 22.9434 8.26703 22.9995 8.23616 23.0572C8.20528 23.115 8.17731 23.1741 8.15224 23.2346C8.12717 23.2951 8.10513 23.3567 8.08612 23.4194C8.06711 23.4821 8.05121 23.5456 8.03843 23.6098C8.02565 23.6741 8.01605 23.7388 8.00963 23.804C8.00321 23.8691 8 23.9345 8 24C8 24.0655 8.00321 24.1309 8.00963 24.196C8.01605 24.2612 8.02565 24.3259 8.03843 24.3902C8.05121 24.4544 8.06711 24.5179 8.08612 24.5806C8.10513 24.6433 8.12717 24.7049 8.15224 24.7654C8.17731 24.8259 8.20528 24.885 8.23616 24.9428C8.26703 25.0005 8.30067 25.0566 8.33706 25.1111C8.37345 25.1656 8.41243 25.2181 8.45398 25.2688C8.49553 25.3194 8.53947 25.3679 8.58579 25.4142C8.6321 25.4605 8.68058 25.5045 8.73121 25.546C8.78184 25.5876 8.83439 25.6266 8.88886 25.6629C8.94332 25.6993 8.99944 25.7329 9.05721 25.7638C9.11498 25.7947 9.17412 25.8227 9.23463 25.8478C9.29515 25.8729 9.35675 25.8949 9.41943 25.9139C9.48211 25.9329 9.54557 25.9488 9.60982 25.9616C9.67406 25.9743 9.73878 25.9839 9.80397 25.9904C9.86916 25.9968 9.9345 26 10 26L14 26C14.0655 26 14.1309 25.9968 14.196 25.9904C14.2612 25.9839 14.3259 25.9743 14.3902 25.9616C14.4544 25.9488 14.5179 25.9329 14.5806 25.9139C14.6433 25.8949 14.7049 25.8729 14.7654 25.8478C14.8259 25.8227 14.885 25.7947 14.9428 25.7638C15.0005 25.7329 15.0566 25.6993 15.1111 25.6629C15.1656 25.6265 15.2181 25.5875 15.2688 25.546C15.3194 25.5045 15.3679 25.4605 15.4142 25.4142C15.4605 25.3679 15.5045 25.3194 15.546 25.2688C15.5876 25.2181 15.6266 25.1656 15.6629 25.1111C15.6993 25.0566 15.7329 25.0005 15.7638 24.9428C15.7947 24.885 15.8227 24.8259 15.8478 24.7654C15.8729 24.7049 15.8949 24.6433 15.9139 24.5806C15.9329 24.5179 15.9488 24.4544 15.9616 24.3902C15.9743 24.3259 15.9839 24.2612 15.9904 24.196C15.9968 24.1309 16 24.0655 16 24C16 23.9345 15.9968 23.8691 15.9904 23.804C15.9839 23.7388 15.9743 23.6741 15.9616 23.6098C15.9488 23.5456 15.9329 23.4821 15.9139 23.4194C15.8949 23.3567 15.8729 23.2951 15.8478 23.2346C15.8227 23.1741 15.7947 23.115 15.7638 23.0572C15.7329 22.9995 15.6993 22.9434 15.6629 22.8889C15.6266 22.8344 15.5876 22.7819 15.546 22.7312C15.5045 22.6806 15.4605 22.6321 15.4142 22.5858C15.3679 22.5395 15.3194 22.4955 15.2688 22.454C15.2181 22.4124 15.1656 22.3734 15.1111 22.3371C15.0566 22.3007 15.0005 22.2671 14.9428 22.2362C14.885 22.2053 14.8259 22.1773 14.7654 22.1522C14.7049 22.1271 14.6433 22.1051 14.5806 22.0861C14.5179 22.0671 14.4544 22.0512 14.3902 22.0384C14.3259 22.0257 14.2612 22.0161 14.196 22.0096C14.1309 22.0032 14.0655 22 14 22L10 22ZM30 26L32.7278 26C32.7933 26 32.8586 25.9968 32.9238 25.9904C32.989 25.9839 33.0537 25.9743 33.118 25.9616C33.1822 25.9488 33.2457 25.9329 33.3083 25.9139C33.371 25.8949 33.4326 25.8728 33.4931 25.8478C33.5537 25.8227 33.6128 25.7947 33.6706 25.7638C33.7283 25.733 33.7845 25.6993 33.8389 25.6629C33.8934 25.6265 33.9459 25.5876 33.9966 25.546C34.0472 25.5045 34.0957 25.4605 34.142 25.4142C34.1883 25.3679 34.2323 25.3194 34.2738 25.2688C34.3153 25.2182 34.3543 25.1656 34.3907 25.1111C34.4271 25.0567 34.4607 25.0006 34.4916 24.9428C34.5225 24.885 34.5504 24.8259 34.5755 24.7654C34.6006 24.7049 34.6226 24.6433 34.6417 24.5806C34.6607 24.5179 34.6766 24.4544 34.6894 24.3902C34.7021 24.3259 34.7117 24.2612 34.7182 24.196C34.7246 24.1308 34.7278 24.0655 34.7278 24C34.7278 23.9345 34.7246 23.8692 34.7182 23.804C34.7117 23.7388 34.7021 23.6741 34.6894 23.6098C34.6766 23.5456 34.6607 23.4821 34.6417 23.4194C34.6226 23.3567 34.6006 23.2951 34.5755 23.2346C34.5504 23.1741 34.5225 23.115 34.4916 23.0572C34.4607 22.9995 34.4271 22.9434 34.3907 22.8889C34.3543 22.8344 34.3153 22.7818 34.2738 22.7312C34.2323 22.6806 34.1883 22.6321 34.142 22.5858C34.0957 22.5395 34.0472 22.4955 33.9966 22.454C33.9459 22.4124 33.8934 22.3735 33.8389 22.3371C33.7844 22.3007 33.7283 22.2671 33.6706 22.2362C33.6128 22.2053 33.5537 22.1773 33.4931 22.1522C33.4326 22.1272 33.371 22.1051 33.3083 22.0861C33.2456 22.0671 33.1822 22.0512 33.118 22.0384C33.0537 22.0257 32.989 22.0161 32.9238 22.0096C32.8586 22.0032 32.7933 22 32.7278 22L30 22C29.4192 22 28.8469 22.0618 28.2832 22.1855C28.2192 22.1995 28.1561 22.2167 28.0938 22.2369C28.0315 22.2572 27.9703 22.2804 27.9103 22.3066C27.8503 22.3329 27.7917 22.362 27.7346 22.394C27.6774 22.426 27.6219 22.4607 27.5682 22.4982C27.5145 22.5357 27.4627 22.5756 27.4129 22.6182C27.3631 22.6607 27.3155 22.7056 27.2701 22.7528C27.2247 22.8 27.1817 22.8494 27.1412 22.9008C27.1006 22.9523 27.0627 23.0056 27.0274 23.0607C26.992 23.1159 26.9595 23.1726 26.9298 23.231C26.9001 23.2893 26.8732 23.349 26.8493 23.41C26.8255 23.471 26.8046 23.5331 26.7869 23.5961C26.7691 23.6591 26.7544 23.7229 26.7429 23.7874C26.7314 23.8519 26.7231 23.9168 26.7179 23.9821C26.7128 24.0474 26.7108 24.1127 26.7121 24.1782C26.7134 24.2437 26.7179 24.309 26.7256 24.3741C26.7333 24.4391 26.7442 24.5036 26.7582 24.5676C26.7722 24.6316 26.7894 24.6947 26.8096 24.757C26.8299 24.8193 26.8531 24.8805 26.8794 24.9405C26.9056 25.0005 26.9347 25.0591 26.9667 25.1162C26.9987 25.1734 27.0335 25.2288 27.0709 25.2826C27.1084 25.3363 27.1484 25.3881 27.1909 25.4379C27.2334 25.4877 27.2783 25.5353 27.3255 25.5807C27.3727 25.6261 27.4221 25.6691 27.4735 25.7096C27.525 25.7502 27.5783 25.7881 27.6334 25.8234C27.6886 25.8588 27.7453 25.8913 27.8037 25.921C27.8621 25.9508 27.9218 25.9776 27.9827 26.0014C28.0437 26.0253 28.1058 26.0462 28.1688 26.0639C28.2318 26.0817 28.2956 26.0964 28.3601 26.1079C28.4246 26.1194 28.4895 26.1277 28.5548 26.1329C28.6201 26.138 28.6854 26.14 28.7509 26.1387C28.8164 26.1374 28.8817 26.1329 28.9468 26.1252C29.0118 26.1175 29.0763 26.1066 29.1403 26.0926C29.4217 26.0309 29.7083 26 30 26ZM38.4998 26.0309C39.4136 26.1447 40.1966 26.5327 40.8487 27.1948C40.8946 27.2414 40.9428 27.2857 40.9931 27.3277C41.0434 27.3696 41.0957 27.409 41.1499 27.4458C41.204 27.4826 41.2599 27.5167 41.3174 27.548C41.3749 27.5793 41.4339 27.6077 41.4942 27.6332C41.5545 27.6587 41.616 27.6813 41.6785 27.7008C41.741 27.7202 41.8044 27.7366 41.8685 27.7499C41.9326 27.7632 41.9973 27.7733 42.0625 27.7802C42.1276 27.7871 42.1929 27.7908 42.2584 27.7913C42.3239 27.7918 42.3893 27.789 42.4545 27.7831C42.5198 27.7772 42.5846 27.7681 42.6489 27.7558C42.7132 27.7435 42.7768 27.7281 42.8396 27.7096C42.9025 27.691 42.9642 27.6695 43.0249 27.6448C43.0856 27.6202 43.145 27.5927 43.203 27.5623C43.261 27.5318 43.3174 27.4986 43.3721 27.4627C43.4268 27.4267 43.4797 27.3881 43.5306 27.3469C43.5815 27.3058 43.6303 27.2622 43.677 27.2162C43.7706 27.1241 43.8543 27.0237 43.928 26.9151C44.0018 26.8064 44.0643 26.6916 44.1155 26.5707C44.1666 26.4498 44.2055 26.325 44.2321 26.1964C44.2587 26.0678 44.2725 25.9378 44.2735 25.8065C44.2745 25.6752 44.2627 25.545 44.2381 25.416C44.2134 25.2871 44.1764 25.1617 44.1271 25.04C44.0778 24.9183 44.017 24.8026 43.9449 24.6928C43.8728 24.5831 43.7906 24.4815 43.6985 24.3879C42.3959 23.0654 40.8278 22.2899 38.9942 22.0615C38.9292 22.0534 38.864 22.0485 38.7985 22.0469C38.733 22.0452 38.6676 22.0467 38.6023 22.0514C38.537 22.0562 38.472 22.0641 38.4074 22.0752C38.3429 22.0863 38.279 22.1006 38.2159 22.118C38.1528 22.1354 38.0906 22.1558 38.0294 22.1793C37.9683 22.2028 37.9084 22.2293 37.8499 22.2587C37.7914 22.288 37.7344 22.3202 37.679 22.3552C37.6236 22.3902 37.5701 22.4278 37.5184 22.468C37.4667 22.5083 37.4171 22.5509 37.3696 22.596C37.3221 22.6411 37.277 22.6885 37.2341 22.738C37.1913 22.7876 37.151 22.8391 37.1132 22.8926C37.0754 22.9461 37.0403 23.0014 37.008 23.0583C36.9757 23.1152 36.9462 23.1736 36.9195 23.2335C36.8929 23.2934 36.8693 23.3544 36.8487 23.4165C36.828 23.4787 36.8105 23.5417 36.7961 23.6056C36.7817 23.6695 36.7704 23.734 36.7623 23.799C36.7461 23.9293 36.7427 24.0599 36.7522 24.1909C36.7617 24.3219 36.7839 24.4507 36.8188 24.5773C36.8537 24.7039 36.9005 24.8259 36.9594 24.9433C37.0183 25.0606 37.0881 25.1711 37.1688 25.2747C37.2495 25.3784 37.3395 25.4731 37.4388 25.559C37.5381 25.6449 37.6449 25.7203 37.7591 25.7852C37.8732 25.85 37.9926 25.9031 38.1173 25.9445C38.242 25.9858 38.3695 26.0146 38.4998 26.0309ZM26 30C26 29.5233 26.0814 29.0639 26.2441 28.6219C26.2895 28.4987 26.3224 28.3722 26.3428 28.2425C26.3633 28.1128 26.3709 27.9823 26.3657 27.8511C26.3604 27.7199 26.3424 27.5904 26.3117 27.4628C26.281 27.3351 26.2381 27.2116 26.183 27.0924C26.1279 26.9732 26.0618 26.8605 25.9845 26.7543C25.9073 26.6481 25.8204 26.5505 25.7239 26.4614C25.6274 26.3723 25.5232 26.2935 25.4111 26.225C25.2991 26.1564 25.1815 26.0995 25.0583 26.0541C24.9968 26.0315 24.9344 26.0119 24.871 25.9954C24.8076 25.9789 24.7435 25.9656 24.6788 25.9553C24.6141 25.9451 24.5491 25.9381 24.4837 25.9343C24.4183 25.9305 24.3529 25.9299 24.2874 25.9325C24.222 25.9352 24.1568 25.941 24.0919 25.95C24.0271 25.959 23.9628 25.9712 23.8991 25.9865C23.8354 26.0018 23.7726 26.0203 23.7108 26.0417C23.6489 26.0632 23.5882 26.0877 23.5288 26.1152C23.4693 26.1427 23.4113 26.173 23.3548 26.2061C23.2983 26.2393 23.2436 26.2751 23.1906 26.3137C23.1377 26.3522 23.0867 26.3933 23.0378 26.4368C22.9888 26.4803 22.9422 26.5262 22.8977 26.5743C22.8533 26.6224 22.8113 26.6726 22.7718 26.7249C22.7323 26.7771 22.6955 26.8312 22.6613 26.8871C22.6271 26.9429 22.5957 27.0003 22.5672 27.0593C22.5387 27.1182 22.5131 27.1785 22.4904 27.2399C22.1635 28.128 22 29.048 22 30L22 31.9083C22 31.9738 22.0032 32.0392 22.0096 32.1044C22.0161 32.1695 22.0257 32.2343 22.0384 32.2985C22.0512 32.3628 22.0671 32.4262 22.0861 32.4889C22.1051 32.5516 22.1272 32.6132 22.1522 32.6737C22.1773 32.7342 22.2053 32.7934 22.2362 32.8511C22.267 32.9089 22.3007 32.965 22.3371 33.0195C22.3734 33.074 22.4124 33.1265 22.454 33.1771C22.4955 33.2277 22.5395 33.2762 22.5858 33.3225C22.6321 33.3688 22.6806 33.4128 22.7312 33.4543C22.7819 33.4959 22.8344 33.5349 22.8889 33.5713C22.9433 33.6077 22.9994 33.6413 23.0572 33.6722C23.115 33.703 23.1741 33.731 23.2346 33.7561C23.2951 33.7811 23.3567 33.8032 23.4194 33.8222C23.4821 33.8412 23.5456 33.8571 23.6098 33.8699C23.6741 33.8827 23.7388 33.8923 23.804 33.8987C23.8692 33.9051 23.9345 33.9083 24 33.9083C24.0655 33.9083 24.1308 33.9051 24.196 33.8987C24.2612 33.8923 24.3259 33.8827 24.3902 33.8699C24.4544 33.8571 24.5179 33.8412 24.5806 33.8222C24.6433 33.8032 24.7049 33.7811 24.7654 33.7561C24.8259 33.731 24.885 33.703 24.9428 33.6722C25.0006 33.6413 25.0567 33.6077 25.1111 33.5713C25.1656 33.5349 25.2182 33.4959 25.2688 33.4543C25.3194 33.4128 25.3679 33.3689 25.4142 33.3225C25.4605 33.2762 25.5045 33.2277 25.546 33.1771C25.5875 33.1265 25.6265 33.074 25.6629 33.0195C25.6993 32.965 25.733 32.9089 25.7638 32.8511C25.7947 32.7934 25.8227 32.7342 25.8478 32.6737C25.8728 32.6132 25.8949 32.5516 25.9139 32.4889C25.9329 32.4262 25.9488 32.3627 25.9616 32.2985C25.9743 32.2343 25.9839 32.1695 25.9904 32.1044C25.9968 32.0392 26 31.9738 26 31.9083L26 30ZM6 38C6 40.2091 7.79086 42 10 42L16 42C18.2091 42 20 40.2091 20 38L20 32C20 29.7909 18.2091 28 16 28L10 28C7.79086 28 6 29.7909 6 32L6 38ZM28 36C28 38.2091 29.7909 40 32 40L36 40C38.2091 40 40 38.2091 40 36L40 32C40 29.7909 38.2091 28 36 28L32 28C29.7909 28 28 29.7909 28 32L28 36ZM42 31.3639L42 35.3639C42 35.4294 42.0032 35.4947 42.0096 35.5599C42.0161 35.6251 42.0257 35.6898 42.0384 35.7541C42.0512 35.8183 42.0671 35.8818 42.0861 35.9445C42.1051 36.0072 42.1271 36.0688 42.1522 36.1293C42.1773 36.1898 42.2053 36.2489 42.2362 36.3067C42.2671 36.3644 42.3007 36.4205 42.3371 36.475C42.3734 36.5295 42.4124 36.582 42.454 36.6327C42.4955 36.6833 42.5395 36.7318 42.5858 36.7781C42.6321 36.8244 42.6806 36.8684 42.7312 36.9099C42.7819 36.9514 42.8344 36.9904 42.8889 37.0268C42.9434 37.0632 42.9995 37.0968 43.0572 37.1277C43.115 37.1586 43.1741 37.1865 43.2346 37.2116C43.2951 37.2367 43.3567 37.2587 43.4194 37.2778C43.4821 37.2968 43.5456 37.3127 43.6098 37.3255C43.6741 37.3382 43.7388 37.3478 43.804 37.3543C43.8691 37.3607 43.9345 37.3639 44 37.3639C44.0655 37.3639 44.1309 37.3607 44.196 37.3543C44.2612 37.3478 44.3259 37.3382 44.3902 37.3255C44.4544 37.3127 44.5179 37.2968 44.5806 37.2778C44.6433 37.2587 44.7049 37.2367 44.7654 37.2116C44.8259 37.1865 44.885 37.1586 44.9428 37.1277C45.0005 37.0968 45.0566 37.0632 45.1111 37.0268C45.1656 36.9904 45.2181 36.9514 45.2688 36.9099C45.3194 36.8684 45.3679 36.8244 45.4142 36.7781C45.4605 36.7318 45.5045 36.6833 45.546 36.6327C45.5876 36.582 45.6266 36.5295 45.6629 36.475C45.6993 36.4205 45.7329 36.3644 45.7638 36.3067C45.7947 36.2489 45.8227 36.1898 45.8478 36.1293C45.8729 36.0688 45.8949 36.0072 45.9139 35.9445C45.9329 35.8818 45.9488 35.8183 45.9616 35.7541C45.9743 35.6898 45.9839 35.6251 45.9904 35.5599C45.9968 35.4947 46 35.4294 46 35.3639L46 31.3639C46 31.2984 45.9968 31.233 45.9904 31.1679C45.9839 31.1027 45.9743 31.0379 45.9616 30.9737C45.9488 30.9094 45.9329 30.846 45.9139 30.7833C45.8949 30.7206 45.8729 30.659 45.8478 30.5985C45.8227 30.538 45.7947 30.4788 45.7638 30.4211C45.7329 30.3633 45.6993 30.3072 45.6629 30.2528C45.6265 30.1983 45.5875 30.1457 45.546 30.0951C45.5045 30.0445 45.4605 29.996 45.4142 29.9497C45.3679 29.9034 45.3194 29.8594 45.2688 29.8179C45.2181 29.7763 45.1656 29.7373 45.1111 29.701C45.0566 29.6646 45.0005 29.6309 44.9428 29.6C44.885 29.5692 44.8259 29.5412 44.7654 29.5161C44.7049 29.4911 44.6433 29.469 44.5806 29.45C44.5179 29.431 44.4544 29.4151 44.3902 29.4023C44.3259 29.3895 44.2612 29.3799 44.196 29.3735C44.1309 29.3671 44.0655 29.3639 44 29.3639C43.9345 29.3639 43.8691 29.3671 43.804 29.3735C43.7388 29.3799 43.6741 29.3895 43.6098 29.4023C43.5456 29.4151 43.4821 29.431 43.4194 29.45C43.3567 29.469 43.2951 29.4911 43.2346 29.5161C43.1741 29.5412 43.115 29.5692 43.0572 29.6C42.9995 29.6309 42.9434 29.6646 42.8889 29.701C42.8344 29.7373 42.7819 29.7763 42.7312 29.8179C42.6806 29.8594 42.6321 29.9034 42.5858 29.9497C42.5395 29.996 42.4955 30.0445 42.454 30.0951C42.4124 30.1457 42.3734 30.1983 42.3371 30.2528C42.3007 30.3072 42.2671 30.3633 42.2362 30.4211C42.2053 30.4788 42.1773 30.538 42.1522 30.5985C42.1271 30.659 42.1051 30.7206 42.0861 30.7833C42.0671 30.846 42.0512 30.9094 42.0384 30.9737C42.0257 31.0379 42.0161 31.1027 42.0096 31.1679C42.0032 31.233 42 31.2984 42 31.3639ZM16 38L10 38L10 32L16 32L16 38ZM26 38L26 37.9083C26 37.8428 25.9968 37.7775 25.9904 37.7123C25.9839 37.6471 25.9743 37.5824 25.9616 37.5181C25.9488 37.4539 25.9329 37.3905 25.9139 37.3278C25.8949 37.2651 25.8728 37.2035 25.8478 37.143C25.8227 37.0825 25.7947 37.0233 25.7638 36.9655C25.733 36.9078 25.6993 36.8517 25.6629 36.7972C25.6265 36.7427 25.5876 36.6902 25.546 36.6395C25.5045 36.5889 25.4605 36.5404 25.4142 36.4941C25.3679 36.4478 25.3194 36.4038 25.2688 36.3623C25.2182 36.3208 25.1656 36.2818 25.1111 36.2454C25.0567 36.209 25.0006 36.1754 24.9428 36.1445C24.885 36.1136 24.8259 36.0857 24.7654 36.0606C24.7049 36.0355 24.6433 36.0135 24.5806 35.9944C24.5179 35.9754 24.4544 35.9595 24.3902 35.9468C24.3259 35.934 24.2612 35.9244 24.196 35.918C24.1308 35.9115 24.0655 35.9083 24 35.9083C23.9345 35.9083 23.8692 35.9115 23.804 35.918C23.7388 35.9244 23.6741 35.934 23.6098 35.9468C23.5456 35.9595 23.4821 35.9754 23.4194 35.9944C23.3567 36.0135 23.2951 36.0355 23.2346 36.0606C23.1741 36.0857 23.115 36.1136 23.0572 36.1445C22.9994 36.1754 22.9433 36.209 22.8889 36.2454C22.8344 36.2818 22.7818 36.3208 22.7312 36.3623C22.6806 36.4038 22.6321 36.4478 22.5858 36.4941C22.5395 36.5404 22.4955 36.5889 22.454 36.6395C22.4124 36.6902 22.3734 36.7427 22.3371 36.7972C22.3007 36.8517 22.2671 36.9078 22.2362 36.9655C22.2053 37.0233 22.1773 37.0825 22.1522 37.143C22.1272 37.2035 22.1051 37.2651 22.0861 37.3278C22.0671 37.3905 22.0512 37.4539 22.0384 37.5181C22.0257 37.5824 22.0161 37.6471 22.0096 37.7123C22.0032 37.7775 22 37.8428 22 37.9083L22 38C22 39.8167 22.5546 41.4438 23.6637 42.8813C23.744 42.9852 23.8336 43.0804 23.9325 43.1667C24.0315 43.253 24.1379 43.3289 24.2518 43.3942C24.3657 43.4596 24.4849 43.5132 24.6094 43.5551C24.7338 43.597 24.8612 43.6263 24.9914 43.6431C25.1217 43.6599 25.2523 43.6638 25.3833 43.6549C25.5143 43.646 25.6432 43.6243 25.77 43.59C25.8967 43.5557 26.0189 43.5093 26.1366 43.4509C26.2542 43.3925 26.365 43.3232 26.469 43.243C26.5208 43.203 26.5706 43.1605 26.6183 43.1156C26.666 43.0707 26.7113 43.0236 26.7544 42.9742C26.7974 42.9249 26.838 42.8735 26.876 42.8201C26.914 42.7668 26.9493 42.7117 26.9819 42.6549C27.0145 42.5981 27.0442 42.5398 27.0711 42.4801C27.098 42.4204 27.1219 42.3595 27.1428 42.2974C27.1637 42.2353 27.1815 42.1723 27.1962 42.1085C27.2109 42.0446 27.2224 41.9802 27.2308 41.9153C27.2392 41.8503 27.2443 41.7851 27.2463 41.7196C27.2483 41.6541 27.247 41.5887 27.2426 41.5234C27.2381 41.4581 27.2305 41.3931 27.2196 41.3285C27.2088 41.2639 27.1948 41.2 27.1777 41.1367C27.1605 41.0735 27.1404 41.0113 27.1171 40.95C27.0939 40.8888 27.0677 40.8289 27.0386 40.7702C27.0095 40.7115 26.9775 40.6544 26.9428 40.5989C26.908 40.5434 26.8707 40.4897 26.8307 40.4378C26.2769 39.7201 26 38.9075 26 38ZM41.3791 40.1389C40.8796 40.9243 40.1938 41.4701 39.3215 41.7762C39.1976 41.8197 39.0792 41.8749 38.9661 41.9417C38.853 42.0086 38.7476 42.0858 38.6498 42.1734C38.5519 42.261 38.4636 42.3573 38.3847 42.4623C38.3058 42.5673 38.238 42.679 38.1812 42.7973C38.1243 42.9157 38.0795 43.0385 38.0468 43.1657C38.0141 43.2929 37.9942 43.4221 37.987 43.5532C37.9797 43.6843 37.9854 43.8148 38.0039 43.9449C38.0224 44.0749 38.0533 44.2018 38.0968 44.3257C38.1185 44.3876 38.1432 44.4482 38.1708 44.5075C38.1985 44.5669 38.229 44.6248 38.2623 44.6812C38.2956 44.7376 38.3317 44.7922 38.3704 44.845C38.4091 44.8979 38.4503 44.9487 38.494 44.9975C38.5377 45.0463 38.5836 45.0928 38.6319 45.1371C38.6802 45.1814 38.7305 45.2232 38.7829 45.2625C38.8352 45.3018 38.8894 45.3385 38.9454 45.3726C39.0014 45.4066 39.0589 45.4378 39.1179 45.4661C39.177 45.4945 39.2373 45.5199 39.2988 45.5423C39.3603 45.5648 39.4228 45.5841 39.4863 45.6004C39.5498 45.6167 39.6139 45.6299 39.6786 45.6399C39.7433 45.6499 39.8084 45.6567 39.8738 45.6603C39.9392 45.6639 40.0046 45.6643 40.07 45.6615C40.1355 45.6587 40.2006 45.6527 40.2655 45.6434C40.3303 45.6342 40.3945 45.6218 40.4582 45.6063C40.5218 45.5908 40.5845 45.5722 40.6464 45.5505C42.3901 44.9384 43.7594 43.85 44.7544 42.2853C44.7895 42.23 44.8219 42.1732 44.8515 42.1147C44.881 42.0562 44.9077 41.9965 44.9314 41.9354C44.9551 41.8743 44.9757 41.8123 44.9933 41.7492C45.0109 41.6861 45.0254 41.6222 45.0367 41.5577C45.048 41.4932 45.0561 41.4283 45.0611 41.363C45.066 41.2977 45.0677 41.2323 45.0662 41.1668C45.0647 41.1013 45.0601 41.0361 45.0522 40.971C45.0443 40.906 45.0332 40.8415 45.019 40.7776C45.0047 40.7137 44.9874 40.6506 44.967 40.5883C44.9466 40.5261 44.9232 40.465 44.8967 40.4051C44.8703 40.3452 44.841 40.2867 44.8088 40.2296C44.7766 40.1725 44.7417 40.1172 44.7041 40.0636C44.6665 40.0099 44.6264 39.9583 44.5837 39.9086C44.541 39.8589 44.4959 39.8115 44.4486 39.7662C44.4013 39.7209 44.3518 39.6781 44.3002 39.6377C44.2487 39.5973 44.1953 39.5595 44.14 39.5244C44.0847 39.4893 44.0279 39.4569 43.9694 39.4273C43.9109 39.3978 43.8512 39.3712 43.7901 39.3475C43.729 39.3238 43.667 39.3031 43.6039 39.2855C43.5408 39.2679 43.4769 39.2535 43.4124 39.2422C43.3479 39.2309 43.283 39.2227 43.2177 39.2178C43.1524 39.2129 43.087 39.2111 43.0215 39.2126C42.956 39.2141 42.8908 39.2187 42.8257 39.2266C42.7607 39.2345 42.6962 39.2456 42.6323 39.2598C42.5684 39.2741 42.5053 39.2914 42.443 39.3118C42.3808 39.3323 42.3197 39.3557 42.2598 39.3821C42.1999 39.4086 42.1414 39.4379 42.0843 39.47C42.0272 39.5022 41.9719 39.5371 41.9183 39.5747C41.8646 39.6123 41.813 39.6525 41.7633 39.6952C41.7136 39.7379 41.6662 39.7829 41.6209 39.8302C41.5756 39.8776 41.5328 39.9271 41.4924 39.9786C41.452 40.0301 41.4142 40.0836 41.3791 40.1389ZM34.196 42.0096C34.1309 42.0032 34.0655 42 34 42L30 42C29.9345 42 29.8692 42.0032 29.804 42.0096C29.7388 42.0161 29.6741 42.0257 29.6098 42.0384C29.5456 42.0512 29.4821 42.0671 29.4194 42.0861C29.3568 42.1051 29.2952 42.1271 29.2346 42.1522C29.1741 42.1773 29.115 42.2053 29.0572 42.2362C28.9994 42.2671 28.9433 42.3007 28.8889 42.3371C28.8344 42.3734 28.7818 42.4124 28.7312 42.454C28.6806 42.4955 28.6321 42.5395 28.5858 42.5858C28.5395 42.6321 28.4955 42.6806 28.454 42.7312C28.4124 42.7819 28.3735 42.8344 28.3371 42.8889C28.3007 42.9434 28.267 42.9995 28.2362 43.0572C28.2053 43.115 28.1773 43.1741 28.1522 43.2346C28.1271 43.2951 28.1051 43.3567 28.0861 43.4194C28.0671 43.4821 28.0512 43.5456 28.0384 43.6098C28.0257 43.6741 28.0161 43.7388 28.0096 43.804C28.0032 43.8691 28 43.9345 28 44C28 44.0655 28.0032 44.1309 28.0096 44.196C28.0161 44.2612 28.0257 44.3259 28.0384 44.3902C28.0512 44.4544 28.0671 44.5179 28.0861 44.5806C28.1051 44.6433 28.1271 44.7049 28.1522 44.7654C28.1773 44.8259 28.2053 44.885 28.2362 44.9428C28.267 45.0005 28.3007 45.0566 28.3371 45.1111C28.3735 45.1656 28.4124 45.2181 28.454 45.2688C28.4955 45.3194 28.5395 45.3679 28.5858 45.4142C28.6321 45.4605 28.6806 45.5045 28.7312 45.546C28.7818 45.5876 28.8344 45.6266 28.8889 45.6629C28.9433 45.6993 28.9994 45.7329 29.0572 45.7638C29.115 45.7947 29.1741 45.8227 29.2346 45.8478C29.2952 45.8729 29.3568 45.8949 29.4194 45.9139C29.4821 45.9329 29.5456 45.9488 29.6098 45.9616C29.6741 45.9743 29.7388 45.9839 29.804 45.9904C29.8692 45.9968 29.9345 46 30 46L34 46C34.0655 46 34.1309 45.9968 34.196 45.9904C34.2612 45.9839 34.3259 45.9743 34.3902 45.9616C34.4544 45.9488 34.5179 45.9329 34.5806 45.9139C34.6433 45.8949 34.7049 45.8729 34.7654 45.8478C34.8259 45.8227 34.885 45.7947 34.9428 45.7638C35.0005 45.7329 35.0566 45.6993 35.1111 45.6629C35.1656 45.6265 35.2181 45.5875 35.2688 45.546C35.3194 45.5045 35.3679 45.4605 35.4142 45.4142C35.4605 45.3679 35.5045 45.3194 35.546 45.2688C35.5876 45.2181 35.6266 45.1656 35.6629 45.1111C35.6993 45.0566 35.7329 45.0005 35.7638 44.9428C35.7947 44.885 35.8227 44.8259 35.8478 44.7654C35.8729 44.7049 35.8949 44.6433 35.9139 44.5806C35.9329 44.5179 35.9488 44.4544 35.9616 44.3902C35.9743 44.3259 35.9839 44.2612 35.9904 44.196C35.9968 44.1309 36 44.0655 36 44C36 43.9345 35.9968 43.8691 35.9904 43.804C35.9839 43.7388 35.9743 43.6741 35.9616 43.6098C35.9488 43.5456 35.9329 43.4821 35.9139 43.4194C35.8949 43.3567 35.8729 43.2951 35.8478 43.2346C35.8227 43.1741 35.7947 43.115 35.7638 43.0572C35.7329 42.9995 35.6993 42.9434 35.6629 42.8889C35.6266 42.8344 35.5876 42.7819 35.546 42.7312C35.5045 42.6806 35.4605 42.6321 35.4142 42.5858C35.3679 42.5395 35.3194 42.4955 35.2688 42.454C35.2181 42.4124 35.1656 42.3734 35.1111 42.3371C35.0566 42.3007 35.0005 42.2671 34.9428 42.2362C34.885 42.2053 34.8259 42.1773 34.7654 42.1522C34.7049 42.1271 34.6433 42.1051 34.5806 42.0861C34.5179 42.0671 34.4544 42.0512 34.3902 42.0384C34.3259 42.0257 34.2612 42.0161 34.196 42.0096Z">
</path>
</svg>
