<svg xmlns="http://www.w3.org/2000/svg" xmlns:xlink="http://www.w3.org/1999/xlink" width="48" height="48" viewBox="0 0 48 48" fill="none">
<path d="M16.42 3.09C16.36 3.11 16.3 3.13 16.23 3.15C16.17 3.18 16.11 3.21 16.06 3.24C16 3.27 15.94 3.3 15.89 3.34C15.83 3.37 15.78 3.41 15.73 3.45C15.68 3.5 15.63 3.54 15.59 3.59C15.54 3.63 15.5 3.68 15.45 3.73C15.41 3.78 15.37 3.83 15.34 3.89C15.3 3.94 15.27 4 15.24 4.06C15.21 4.11 15.18 4.17 15.15 4.23C15.13 4.3 15.11 4.36 15.09 4.42C15.07 4.48 15.05 4.55 15.04 4.61C15.03 4.67 15.02 4.74 15.01 4.8C15 4.87 15 4.93 15 5L15 43C15 43.07 15 43.13 15.01 43.2C15.02 43.26 15.03 43.33 15.04 43.39C15.05 43.45 15.07 43.52 15.09 43.58C15.11 43.64 15.13 43.7 15.15 43.77C15.18 43.83 15.21 43.89 15.24 43.94C15.27 44 15.3 44.06 15.34 44.11C15.37 44.17 15.41 44.22 15.45 44.27C15.5 44.32 15.54 44.37 15.59 44.41C15.63 44.46 15.68 44.5 15.73 44.55C15.78 44.59 15.83 44.63 15.89 44.66C15.94 44.7 16 44.73 16.06 44.76C16.11 44.79 16.17 44.82 16.23 44.85C16.3 44.87 16.36 44.89 16.42 44.91C16.48 44.93 16.55 44.95 16.61 44.96C16.67 44.97 16.74 44.98 16.8 44.99C16.87 45 16.93 45 17 45C17.07 45 17.13 45 17.2 44.99C17.26 44.98 17.33 44.97 17.39 44.96C17.45 44.95 17.52 44.93 17.58 44.91C17.64 44.89 17.7 44.87 17.77 44.85C17.83 44.82 17.89 44.79 17.94 44.76C18 44.73 18.06 44.7 18.11 44.66C18.17 44.63 18.22 44.59 18.27 44.55C18.32 44.5 18.37 44.46 18.41 44.41C18.46 44.37 18.5 44.32 18.55 44.27C18.59 44.22 18.63 44.17 18.66 44.11C18.7 44.06 18.73 44 18.76 43.94C18.79 43.89 18.82 43.83 18.85 43.77C18.87 43.7 18.89 43.64 18.91 43.58C18.93 43.52 18.95 43.45 18.96 43.39C18.97 43.33 18.98 43.26 18.99 43.2C19 43.13 19 43.07 19 43L19 35L39 35C39.81 35 40.59 34.84 41.34 34.53C42.05 34.22 42.69 33.8 43.24 33.24C43.8 32.69 44.22 32.05 44.53 31.34C44.84 30.59 45 29.81 45 29L45 19C45 18.19 44.84 17.41 44.53 16.66C44.22 15.95 43.8 15.31 43.24 14.76C42.69 14.2 42.05 13.78 41.34 13.47C40.59 13.16 39.81 13 39 13L19 13L19 5C19 4.93 19 4.87 18.99 4.8C18.98 4.74 18.97 4.67 18.96 4.61C18.95 4.55 18.93 4.48 18.91 4.42C18.89 4.36 18.87 4.3 18.85 4.23C18.82 4.17 18.79 4.11 18.76 4.06C18.73 4 18.7 3.94 18.66 3.89C18.63 3.83 18.59 3.78 18.55 3.73C18.5 3.68 18.46 3.63 18.41 3.59C18.37 3.54 18.32 3.5 18.27 3.45C18.22 3.41 18.17 3.37 18.11 3.34C18.06 3.3 18 3.27 17.94 3.24C17.89 3.21 17.83 3.18 17.77 3.15C17.7 3.13 17.64 3.11 17.58 3.09C17.52 3.07 17.45 3.05 17.39 3.04C17.33 3.03 17.26 3.02 17.2 3.01C17.13 3 17.07 3 17 3C16.93 3 16.87 3 16.8 3.01C16.74 3.02 16.67 3.03 16.61 3.04C16.55 3.05 16.48 3.07 16.42 3.09ZM13 13L9 13C8.19 13 7.41 13.16 6.66 13.47C5.95 13.78 5.31 14.2 4.76 14.76C4.2 15.31 3.78 15.95 3.47 16.66C3.16 17.41 3 18.19 3 19L3 29C3 29.81 3.16 30.59 3.47 31.34C3.78 32.05 4.2 32.69 4.76 33.24C5.31 33.8 5.95 34.22 6.66 34.53C7.41 34.84 8.19 35 9 35L13 35L13 31L9 31C8.73 31 8.47 30.95 8.22 30.84C7.98 30.74 7.77 30.6 7.59 30.41C7.4 30.23 7.26 30.02 7.16 29.78C7.05 29.53 7 29.27 7 29L7 19C7 18.73 7.05 18.47 7.16 18.22C7.26 17.98 7.4 17.77 7.59 17.59C7.77 17.4 7.98 17.26 8.22 17.16C8.47 17.05 8.73 17 9 17L13 17L13 13ZM39 31C39.27 31 39.53 30.95 39.78 30.84C40.02 30.74 40.23 30.6 40.41 30.41C40.6 30.23 40.74 30.02 40.84 29.78C40.95 29.53 41 29.27 41 29L41 19C41 18.73 40.95 18.47 40.84 18.22C40.74 17.98 40.6 17.77 40.41 17.59C40.23 17.4 40.02 17.26 39.78 17.16C39.53 17.05 39.27 17 39 17L19 17L19 31L39 31Z" fill-rule="evenodd"  fill="#000000" >
</path>
</svg>
