<svg xmlns="http://www.w3.org/2000/svg" xmlns:xlink="http://www.w3.org/1999/xlink" width="48" height="48" viewBox="0 0 48 48" fill="none">
<path d="M26.3302 4.13937C24.4302 4.26937 22.6202 4.76937 20.9302 5.60937C19.2202 6.46937 17.7502 7.60937 16.5002 9.05937L9.74023 16.8594L9.74023 8.98936C9.74023 8.91936 9.74023 8.85937 9.73023 8.78937C9.72023 8.72937 9.71023 8.65936 9.70023 8.59937C9.69023 8.53937 9.67023 8.46937 9.65023 8.40936C9.63023 8.34937 9.61023 8.28937 9.59023 8.21937C9.56023 8.15936 9.53023 8.09937 9.50023 8.04937C9.47023 7.98937 9.44023 7.92937 9.40023 7.87936C9.37023 7.81937 9.33023 7.76937 9.29023 7.71937C9.24023 7.66936 9.20023 7.61937 9.15023 7.57937C9.11023 7.52937 9.06023 7.48937 9.01023 7.43937C8.96023 7.39937 8.91023 7.35937 8.85023 7.32937C8.80023 7.28937 8.74023 7.25937 8.68023 7.22937C8.63023 7.19937 8.57023 7.16936 8.51023 7.13937C8.44023 7.11937 8.38023 7.09937 8.32023 7.07937C8.26023 7.05937 8.19023 7.03937 8.13023 7.02937C8.07023 7.01937 8.00023 7.00937 7.94023 6.99937C7.87023 6.98937 7.81023 6.98937 7.74023 6.98937C7.67023 6.98937 7.61023 6.98937 7.54023 6.99937C7.48023 7.00937 7.41023 7.01937 7.35023 7.02937C7.29023 7.03937 7.22023 7.05937 7.16023 7.07937C7.10023 7.09937 7.04023 7.11937 6.97023 7.13937C6.91023 7.16936 6.85023 7.19937 6.80023 7.22937C6.74023 7.25937 6.68023 7.28937 6.63023 7.32937C6.57023 7.35937 6.52023 7.39937 6.47023 7.43937C6.42023 7.48937 6.37023 7.52937 6.33023 7.57937C6.28023 7.61937 6.24023 7.66936 6.19023 7.71937C6.15023 7.76937 6.11023 7.81937 6.08023 7.87936C6.04023 7.92937 6.01023 7.98937 5.98023 8.04937C5.95023 8.09937 5.92023 8.15936 5.89023 8.21937C5.87023 8.28937 5.85023 8.34937 5.83023 8.40936C5.81023 8.46937 5.79023 8.53937 5.78023 8.59937C5.77023 8.65936 5.76023 8.72937 5.75023 8.78937C5.74023 8.85937 5.74023 8.91936 5.74023 8.98936L5.74023 20.0794C5.74023 20.6194 5.85023 21.1394 6.06023 21.6394C6.26023 22.1194 6.55023 22.5394 6.91023 22.9094C7.28023 23.2694 7.70023 23.5594 8.18023 23.7594C8.68023 23.9694 9.20023 24.0794 9.74023 24.0794L20.9002 24.0794C20.9602 24.0794 21.0302 24.0794 21.0902 24.0694C21.1602 24.0694 21.2202 24.0594 21.2902 24.0494C21.3502 24.0294 21.4102 24.0194 21.4802 23.9994C21.5402 23.9794 21.6002 23.9594 21.6602 23.9294C21.7202 23.9094 21.7802 23.8794 21.8402 23.8494C21.9002 23.8194 21.9502 23.7794 22.0102 23.7494L22.1602 23.6294C22.2202 23.5894 22.2602 23.5394 22.3102 23.4994C22.3602 23.4494 22.4002 23.3994 22.4402 23.3494C22.4802 23.2994 22.5202 23.2494 22.5602 23.1894C22.6002 23.1394 22.6302 23.0794 22.6602 23.0294C22.6902 22.9694 22.7202 22.9094 22.7402 22.8494C22.7702 22.7894 22.7902 22.7294 22.8102 22.6594C22.8302 22.5994 22.8402 22.5394 22.8602 22.4694C22.8702 22.4094 22.8802 22.3494 22.8902 22.2794C22.8902 22.2094 22.9002 22.1494 22.9002 22.0794C22.9002 22.0194 22.8902 21.9494 22.8902 21.8894C22.8802 21.8194 22.8702 21.7594 22.8602 21.6894C22.8402 21.6294 22.8302 21.5694 22.8102 21.4994C22.7902 21.4394 22.7702 21.3794 22.7402 21.3194C22.7202 21.2594 22.6902 21.1994 22.6602 21.1394C22.6302 21.0794 22.6002 21.0294 22.5602 20.9694L22.4402 20.8194C22.4002 20.7694 22.3602 20.7194 22.3102 20.6694C22.2702 20.6194 22.2202 20.5794 22.1702 20.5394C22.1202 20.4994 22.0602 20.4594 22.0102 20.4194C21.9502 20.3894 21.9002 20.3494 21.8402 20.3194C21.7802 20.2894 21.7202 20.2594 21.6602 20.2394C21.6002 20.2094 21.5402 20.1894 21.4802 20.1694C21.4202 20.1494 21.3502 20.1394 21.2902 20.1194C21.2302 20.1094 21.1602 20.0994 21.1002 20.0894C21.0302 20.0894 20.9702 20.0794 20.9002 20.0794L12.2502 20.0794L19.5302 11.6794C20.4202 10.6394 21.4902 9.79937 22.7202 9.19937C23.9402 8.57936 25.2402 8.21937 26.6202 8.11937C27.9902 8.02937 29.3302 8.18937 30.6302 8.62937C31.9302 9.05937 33.1002 9.72937 34.1402 10.6294C35.2102 11.5494 36.0502 12.6394 36.6702 13.8894C37.2702 15.1094 37.6202 16.3894 37.7202 17.7494C37.8302 19.0994 37.6802 20.4294 37.2702 21.7094C36.8402 23.0494 36.1702 24.2594 35.2602 25.3294L21.3602 41.6794C21.3302 41.7294 21.2802 41.7794 21.2502 41.8394C21.2002 41.8894 21.1702 41.9394 21.1402 42.0094C21.1102 42.0594 21.0802 42.1294 21.0502 42.1794L20.9802 42.3594L20.9302 42.5494C20.9202 42.6194 20.9102 42.6794 20.9002 42.7494L20.8902 42.9394C20.8902 42.9694 20.8902 43.0094 20.8902 43.0394C20.8902 43.0694 20.8902 43.1094 20.8902 43.1394C20.9002 43.1994 20.9102 43.2694 20.9202 43.3394C20.9302 43.3994 20.9402 43.4594 20.9702 43.5194C20.9802 43.5894 21.0002 43.6494 21.0302 43.7094C21.0502 43.7694 21.0802 43.8294 21.1102 43.8894C21.1402 43.9494 21.1702 43.9994 21.2002 44.0594C21.2302 44.1094 21.2802 44.1694 21.3202 44.2094C21.3602 44.2694 21.4102 44.3094 21.4502 44.3694C21.4902 44.4094 21.5402 44.4594 21.5902 44.4994C21.6402 44.5494 21.6902 44.5794 21.7502 44.6194C21.8002 44.6494 21.8602 44.6894 21.9102 44.7194C21.9802 44.7594 22.0302 44.7894 22.0902 44.8094C22.1502 44.8394 22.2202 44.8594 22.2802 44.8794C22.3402 44.8994 22.4102 44.9194 22.4602 44.9294C22.5302 44.9394 22.5902 44.9594 22.6602 44.9594C22.7302 44.9694 22.7902 44.9694 22.8602 44.9794C22.9202 44.9794 22.9802 44.9794 23.0502 44.9694C23.1202 44.9594 23.1802 44.9494 23.2402 44.9394C23.3102 44.9294 23.3702 44.9194 23.4402 44.8994C23.4902 44.8794 23.5602 44.8594 23.6302 44.8394C23.6802 44.8194 23.7402 44.7794 23.8002 44.7594C23.8502 44.7294 23.9202 44.6894 23.9702 44.6494C24.0202 44.6194 24.0802 44.5794 24.1302 44.5394C24.1802 44.5094 24.2302 44.4594 24.2802 44.4194L24.4102 44.2694L38.3102 27.9194C39.5702 26.4294 40.4902 24.7694 41.0802 22.9194C41.6502 21.1394 41.8502 19.3194 41.7202 17.4394C41.5702 15.5694 41.0802 13.7894 40.2502 12.1194C39.4002 10.3894 38.2302 8.87937 36.7602 7.59937C35.3102 6.34937 33.7002 5.42937 31.8902 4.82937C30.0902 4.22937 28.2302 3.99937 26.3302 4.13937Z"   fill="#000000" >
</path>
</svg>
