<svg xmlns="http://www.w3.org/2000/svg" xmlns:xlink="http://www.w3.org/1999/xlink" width="48" height="48" viewBox="0 0 48 48" fill="none">
<path d="M9.95004 40.2701C10 40.32 10.04 40.37 10.09 40.41C10.13 40.46 10.18 40.5 10.23 40.55C10.28 40.59 10.33 40.6301 10.39 40.66C10.44 40.7001 10.5 40.73 10.56 40.76C10.61 40.7901 10.67 40.82 10.73 40.85C10.8 40.87 10.86 40.89 10.92 40.91C10.98 40.93 11.05 40.9501 11.11 40.96C11.17 40.97 11.24 40.98 11.3 40.99C11.37 41 11.43 41 11.5 41L28 41C29.92 41 31.77 40.6301 33.55 39.89C35.32 39.16 36.89 38.1101 38.26 36.75C39.61 35.39 40.66 33.82 41.39 32.05C42.13 30.27 42.5 28.42 42.5 26.5C42.5 24.58 42.13 22.73 41.39 20.95C40.66 19.18 39.61 17.6101 38.25 16.24C36.89 14.89 35.32 13.84 33.55 13.1C31.77 12.37 29.92 12 28 12L12.38 12L15.46 9.30005L14.62 8.35005L12.82 6.30005L7.40004 11.05C6.97004 11.43 6.63004 11.88 6.40004 12.41C6.16004 12.93 6.04004 13.48 6.04004 14.06C6.04004 14.63 6.16004 15.18 6.40004 15.71C6.63004 16.23 6.97004 16.68 7.40004 17.06L12.82 21.81L15.46 18.79L12.26 16L28 16C29.39 16 30.73 16.2701 32.02 16.8C33.3 17.33 34.44 18.09 35.43 19.08C36.41 20.06 37.17 21.2 37.7 22.48C38.23 23.77 38.5 25.11 38.5 26.5C38.5 27.89 38.23 29.23 37.7 30.52C37.17 31.8 36.41 32.94 35.42 33.93C34.44 34.91 33.3 35.6701 32.02 36.2001C30.73 36.73 29.39 37 28 37L11.5 37C11.43 37 11.37 37 11.3 37.01C11.24 37.0201 11.17 37.03 11.11 37.04C11.05 37.05 10.98 37.07 10.92 37.09C10.86 37.11 10.8 37.1301 10.73 37.15C10.67 37.18 10.61 37.21 10.56 37.2401C10.5 37.2701 10.44 37.3 10.39 37.34C10.33 37.37 10.28 37.41 10.23 37.4501C10.18 37.5 10.13 37.54 10.09 37.59C10.04 37.6301 10 37.68 9.95004 37.73C9.91004 37.78 9.87004 37.83 9.84004 37.89C9.80004 37.94 9.77004 38 9.74004 38.06C9.71004 38.1101 9.68004 38.17 9.65004 38.23C9.63004 38.3 9.61004 38.3601 9.59004 38.42C9.57004 38.48 9.55004 38.55 9.54004 38.6101C9.53004 38.67 9.52004 38.74 9.51004 38.8C9.50004 38.87 9.50004 38.93 9.50004 39C9.50004 39.07 9.50004 39.1301 9.51004 39.2001C9.52004 39.26 9.53004 39.33 9.54004 39.39C9.55004 39.4501 9.57004 39.5201 9.59004 39.58C9.61004 39.64 9.63004 39.7001 9.65004 39.7701C9.68004 39.83 9.71004 39.89 9.74004 39.94C9.77004 40 9.80004 40.06 9.84004 40.1101C9.87004 40.17 9.91004 40.22 9.95004 40.2701ZM13.89 22.29C13.95 22.29 14.02 22.3 14.08 22.3L14.28 22.3C14.34 22.29 14.41 22.29 14.47 22.28C14.54 22.26 14.6 22.25 14.66 22.23C14.73 22.22 14.79 22.2 14.85 22.17C14.91 22.15 14.97 22.12 15.03 22.09C15.09 22.07 15.15 22.03 15.2 22C15.26 21.96 15.31 21.93 15.36 21.89C15.42 21.85 15.47 21.81 15.51 21.76C15.56 21.72 15.61 21.67 15.65 21.62L15.77 21.47C15.81 21.41 15.84 21.3601 15.88 21.3C15.91 21.24 15.94 21.19 15.97 21.13C15.99 21.07 16.02 21 16.04 20.94C16.06 20.88 16.08 20.82 16.09 20.75C16.11 20.69 16.12 20.63 16.13 20.56C16.14 20.5 16.14 20.43 16.14 20.37C16.15 20.32 16.14 20.28 16.14 20.23C16.14 20.21 16.14 20.19 16.14 20.17C16.14 20.1 16.13 20.04 16.12 19.97C16.11 19.91 16.09 19.85 16.08 19.78L16.02 19.6C15.99 19.53 15.97 19.47 15.94 19.42C15.91 19.3601 15.88 19.3 15.84 19.24C15.81 19.19 15.77 19.13 15.73 19.08C15.69 19.03 15.65 18.98 15.6 18.93C15.56 18.89 15.51 18.84 15.46 18.8L12.83 21.81L12.98 21.93C13.03 21.97 13.09 22 13.15 22.04C13.2 22.07 13.26 22.1 13.32 22.12C13.38 22.15 13.44 22.18 13.5 22.2C13.57 22.22 13.63 22.24 13.69 22.25C13.76 22.27 13.82 22.28 13.89 22.29ZM15.73 9.02005C15.77 8.97005 15.81 8.91005 15.84 8.86005C15.88 8.80005 15.91 8.75005 15.94 8.69005C15.97 8.63005 15.99 8.57005 16.02 8.51005C16.04 8.45005 16.06 8.38005 16.08 8.32005C16.09 8.26005 16.11 8.19005 16.12 8.13005C16.13 8.06005 16.14 8.00005 16.14 7.93005C16.14 7.91005 16.14 7.89005 16.14 7.87005C16.14 7.83005 16.15 7.78005 16.14 7.74005C16.14 7.67005 16.14 7.61005 16.13 7.54005C16.12 7.48005 16.11 7.41005 16.09 7.35005C16.08 7.28005 16.06 7.22005 16.04 7.16005C16.02 7.10005 15.99 7.04005 15.97 6.98005L15.88 6.80005C15.84 6.75005 15.81 6.69005 15.77 6.64005C15.73 6.58005 15.69 6.53005 15.65 6.48005C15.56 6.38005 15.47 6.29005 15.36 6.21005C15.26 6.13005 15.15 6.07005 15.03 6.01005C14.91 5.95005 14.79 5.90005 14.66 5.87005C14.54 5.83005 14.41 5.81005 14.28 5.80005C14.15 5.80005 14.02 5.80005 13.89 5.82005C13.76 5.83005 13.63 5.86005 13.5 5.91005C13.38 5.95005 13.26 6.00005 13.15 6.07005C13.03 6.13005 12.93 6.21005 12.83 6.29005L14.62 8.35005L15.46 9.30005L15.46 9.30005L15.46 9.31005C15.51 9.26005 15.56 9.22005 15.6 9.17005C15.65 9.12005 15.69 9.07005 15.73 9.02005ZM15.46 9.30005L15.46 9.30005L14.62 8.35005L15.46 9.30005Z" fill-rule="evenodd"  fill="#000000" >
</path>
</svg>
