<svg xmlns="http://www.w3.org/2000/svg" xmlns:xlink="http://www.w3.org/1999/xlink" width="48" height="48" viewBox="0 0 48 48" fill="none">
<path d="M19 15C19 15.07 19 15.13 19.01 15.2C19.02 15.26 19.03 15.33 19.04 15.39C19.05 15.45 19.07 15.52 19.09 15.58C19.11 15.64 19.13 15.7 19.15 15.77C19.18 15.83 19.21 15.89 19.24 15.94C19.27 16 19.3 16.06 19.34 16.11C19.37 16.17 19.41 16.22 19.45 16.27C19.5 16.32 19.54 16.37 19.59 16.41C19.63 16.46 19.68 16.5 19.73 16.55C19.78 16.59 19.83 16.63 19.89 16.66C19.94 16.7 20 16.73 20.06 16.76C20.11 16.79 20.17 16.82 20.23 16.85C20.3 16.87 20.36 16.89 20.42 16.91C20.48 16.93 20.55 16.95 20.61 16.96C20.67 16.97 20.74 16.98 20.8 16.99C20.87 17 20.93 17 21 17C21.07 17 21.13 17 21.2 16.99C21.26 16.98 21.33 16.97 21.39 16.96C21.45 16.95 21.52 16.93 21.58 16.91C21.64 16.89 21.7 16.87 21.77 16.85C21.83 16.82 21.89 16.79 21.94 16.76C22 16.73 22.06 16.7 22.11 16.66C22.17 16.63 22.22 16.59 22.27 16.55C22.32 16.5 22.37 16.46 22.41 16.41C22.46 16.37 22.5 16.32 22.55 16.27C22.59 16.22 22.63 16.17 22.66 16.11C22.7 16.06 22.73 16 22.76 15.94C22.79 15.89 22.82 15.83 22.85 15.77C22.87 15.7 22.89 15.64 22.91 15.58C22.93 15.52 22.95 15.45 22.96 15.39C22.97 15.33 22.98 15.26 22.99 15.2C23 15.13 23 15.07 23 15L23 11C23 10.93 23 10.87 22.99 10.8C22.98 10.74 22.97 10.67 22.96 10.61C22.95 10.55 22.93 10.48 22.91 10.42C22.89 10.36 22.87 10.3 22.85 10.23C22.82 10.17 22.79 10.11 22.76 10.06C22.73 10 22.7 9.94 22.66 9.89C22.63 9.83 22.59 9.78 22.55 9.73C22.5 9.68 22.46 9.63 22.41 9.59C22.37 9.54 22.32 9.5 22.27 9.45C22.22 9.41 22.17 9.37 22.11 9.34C22.06 9.3 22 9.27 21.94 9.24C21.89 9.21 21.83 9.18 21.77 9.15C21.7 9.13 21.64 9.11 21.58 9.09C21.52 9.07 21.45 9.05 21.39 9.04C21.33 9.03 21.26 9.02 21.2 9.01C21.13 9 21.07 9 21 9C20.93 9 20.87 9 20.8 9.01C20.74 9.02 20.67 9.03 20.61 9.04C20.55 9.05 20.48 9.07 20.42 9.09C20.36 9.11 20.3 9.13 20.23 9.15C20.17 9.18 20.11 9.21 20.06 9.24C20 9.27 19.94 9.3 19.89 9.34C19.83 9.37 19.78 9.41 19.73 9.45C19.68 9.5 19.63 9.54 19.59 9.59C19.54 9.63 19.5 9.68 19.45 9.73C19.41 9.78 19.37 9.83 19.34 9.89C19.3 9.94 19.27 10 19.24 10.06C19.21 10.11 19.18 10.17 19.15 10.23C19.13 10.3 19.11 10.36 19.09 10.42C19.07 10.48 19.05 10.55 19.04 10.61C19.03 10.67 19.02 10.74 19.01 10.8C19 10.87 19 10.93 19 11L19 15ZM31 7L17 7L17 17C17 17.27 17.05 17.53 17.16 17.78C17.26 18.02 17.4 18.23 17.59 18.41C17.77 18.6 17.98 18.74 18.22 18.84C18.47 18.95 18.73 19 19 19L29 19C29.27 19 29.53 18.95 29.78 18.84C30.02 18.74 30.23 18.6 30.41 18.41C30.6 18.23 30.74 18.02 30.84 17.78C30.95 17.53 31 17.27 31 17L31 7ZM43 37L43 11C43 9.92 42.79 8.88 42.37 7.89C41.96 6.93 41.39 6.08 40.66 5.34C39.92 4.61 39.07 4.04 38.11 3.63C37.12 3.21 36.08 3 35 3L13 3C11.92 3 10.88 3.21 9.89 3.63C8.93 4.04 8.08 4.61 7.34 5.34C6.61 6.08 6.04 6.93 5.63 7.89C5.21 8.88 5 9.92 5 11L5 37C5 38.08 5.21 39.12 5.63 40.11C6.04 41.07 6.61 41.92 7.34 42.66C8.08 43.39 8.93 43.96 9.89 44.37C10.88 44.79 11.92 45 13 45L35 45C36.08 45 37.12 44.79 38.11 44.37C39.07 43.96 39.92 43.39 40.66 42.66C41.39 41.92 41.96 41.07 42.37 40.11C42.79 39.12 43 38.08 43 37ZM38.69 9.45C38.48 8.97 38.2 8.54 37.83 8.17C37.46 7.8 37.03 7.52 36.55 7.31C36.06 7.1 35.54 7 35 7L35 17C35 17.81 34.84 18.59 34.53 19.34C34.22 20.05 33.8 20.69 33.24 21.24C32.69 21.8 32.05 22.22 31.34 22.53C30.59 22.84 29.81 23 29 23L19 23C18.19 23 17.41 22.84 16.66 22.53C15.95 22.22 15.31 21.8 14.76 21.24C14.2 20.69 13.78 20.05 13.47 19.34C13.16 18.59 13 17.81 13 17L13 7C12.46 7 11.94 7.1 11.45 7.31C10.97 7.52 10.54 7.8 10.17 8.17C9.8 8.54 9.52 8.97 9.31 9.45C9.1 9.94 9 10.46 9 11L9 37C9 37.54 9.1 38.06 9.31 38.55C9.52 39.03 9.8 39.46 10.17 39.83C10.54 40.2 10.97 40.48 11.45 40.69C11.94 40.9 12.46 41 13 41L35 41C35.54 41 36.06 40.9 36.55 40.69C37.03 40.48 37.46 40.2 37.83 39.83C38.2 39.46 38.48 39.03 38.69 38.55C38.9 38.06 39 37.54 39 37L39 11C39 10.46 38.9 9.94 38.69 9.45ZM32.96 35.61C32.95 35.55 32.93 35.48 32.91 35.42C32.89 35.36 32.87 35.3 32.85 35.23C32.82 35.17 32.79 35.11 32.76 35.06C32.73 35 32.7 34.94 32.66 34.89C32.63 34.83 32.59 34.78 32.55 34.73C32.5 34.68 32.46 34.63 32.41 34.59C32.37 34.54 32.32 34.5 32.27 34.45C32.22 34.41 32.17 34.37 32.11 34.34C32.06 34.3 32 34.27 31.94 34.24C31.88 34.21 31.83 34.18 31.77 34.15C31.7 34.13 31.64 34.11 31.58 34.09C31.52 34.07 31.45 34.05 31.39 34.04C31.33 34.03 31.26 34.02 31.2 34.01C31.13 34 31.07 34 31 34L17 34C16.93 34 16.87 34 16.8 34.01C16.74 34.02 16.67 34.03 16.61 34.04C16.55 34.05 16.48 34.07 16.42 34.09C16.36 34.11 16.3 34.13 16.23 34.15C16.17 34.18 16.11 34.21 16.06 34.24C16 34.27 15.94 34.3 15.89 34.34C15.83 34.37 15.78 34.41 15.73 34.45C15.68 34.5 15.63 34.54 15.59 34.59C15.54 34.63 15.5 34.68 15.45 34.73C15.41 34.78 15.37 34.83 15.34 34.89C15.3 34.94 15.27 35 15.24 35.06C15.21 35.11 15.18 35.17 15.15 35.23C15.13 35.3 15.11 35.36 15.09 35.42C15.07 35.48 15.05 35.55 15.04 35.61C15.03 35.67 15.02 35.74 15.01 35.8C15 35.87 15 35.93 15 36C15 36.07 15 36.13 15.01 36.2C15.02 36.26 15.03 36.33 15.04 36.39C15.05 36.45 15.07 36.52 15.09 36.58C15.11 36.64 15.13 36.7 15.15 36.77C15.18 36.83 15.21 36.89 15.24 36.94C15.27 37 15.3 37.06 15.34 37.11C15.37 37.17 15.41 37.22 15.45 37.27C15.5 37.32 15.54 37.37 15.59 37.41C15.63 37.46 15.68 37.5 15.73 37.55C15.78 37.59 15.83 37.63 15.89 37.66C15.94 37.7 16 37.73 16.06 37.76C16.11 37.79 16.17 37.82 16.23 37.85C16.3 37.87 16.36 37.89 16.42 37.91C16.48 37.93 16.55 37.95 16.61 37.96C16.67 37.97 16.74 37.98 16.8 37.99C16.87 38 16.93 38 17 38L31 38C31.07 38 31.13 38 31.2 37.99C31.26 37.98 31.33 37.97 31.39 37.96C31.45 37.95 31.52 37.93 31.58 37.91C31.64 37.89 31.7 37.87 31.77 37.85C31.83 37.82 31.88 37.79 31.94 37.76C32 37.73 32.06 37.7 32.11 37.66C32.17 37.63 32.22 37.59 32.27 37.55C32.32 37.5 32.37 37.46 32.41 37.41C32.46 37.37 32.5 37.32 32.55 37.27C32.59 37.22 32.63 37.17 32.66 37.11C32.7 37.06 32.73 37 32.76 36.94C32.79 36.89 32.82 36.83 32.85 36.77C32.87 36.7 32.89 36.64 32.91 36.58C32.93 36.52 32.95 36.45 32.96 36.39C32.97 36.33 32.98 36.26 32.99 36.2C33 36.13 33 36.07 33 36C33 35.93 33 35.87 32.99 35.8C32.98 35.74 32.97 35.67 32.96 35.61Z" fill-rule="evenodd"  fill="#000000" >
</path>
</svg>
