<svg xmlns="http://www.w3.org/2000/svg" xmlns:xlink="http://www.w3.org/1999/xlink" width="48" height="48" viewBox="0 0 48 48" fill="none">
<path d="M35.3485 43.32C36.4585 43.32 37.5185 43.11 38.5285 42.68C39.5085 42.26 40.3785 41.68 41.1285 40.92C41.8885 40.17 42.4685 39.3 42.8885 38.32C43.3185 37.31 43.5285 36.25 43.5285 35.14C43.5285 34.03 43.3185 32.97 42.8885 31.95C42.4685 30.97 41.8885 30.1 41.1285 29.35C40.3785 28.59 39.5085 28.01 38.5285 27.59C37.5185 27.16 36.4585 26.95 35.3485 26.95C34.2385 26.95 33.1785 27.16 32.1585 27.59C31.8385 27.73 31.5385 27.88 31.2485 28.05L26.6485 22.79L39.2485 8.37C39.5885 8.01 39.7985 7.53 39.7985 7C39.7985 5.9 38.8985 5 37.7985 5C37.1985 5 36.6585 5.27 36.2985 5.69L36.2885 5.68L23.9985 19.75L11.7285 5.71C11.3585 5.28 10.8085 5 10.1985 5C9.09851 5 8.19851 5.9 8.19851 7C8.19851 7.5 8.38851 7.96 8.69851 8.31L8.68851 8.31L21.3385 22.79L16.7485 28.05C16.4585 27.88 16.1585 27.73 15.8385 27.59C14.8285 27.16 13.7685 26.95 12.6585 26.95C11.5485 26.95 10.4885 27.16 9.46851 27.59C8.48851 28.01 7.61851 28.59 6.86851 29.35C6.10851 30.1 5.52851 30.97 5.10851 31.95C4.67851 32.97 4.46851 34.03 4.46851 35.14C4.46851 36.25 4.67851 37.31 5.10851 38.32C5.52851 39.3 6.10851 40.17 6.86851 40.92C7.61851 41.68 8.48851 42.26 9.46851 42.68C10.4885 43.11 11.5485 43.32 12.6585 43.32C13.7685 43.32 14.8285 43.11 15.8385 42.68C16.8185 42.26 17.6885 41.68 18.4385 40.92C19.1985 40.17 19.7785 39.3 20.1985 38.32C20.6285 37.31 20.8385 36.25 20.8385 35.14C20.8385 34.03 20.6285 32.97 20.1985 31.95C20.0285 31.56 19.8385 31.19 19.6185 30.84L23.9985 25.83L28.3785 30.84C28.1585 31.19 27.9685 31.56 27.7985 31.95C27.3685 32.97 27.1585 34.03 27.1585 35.14C27.1585 36.25 27.3685 37.31 27.7985 38.32C28.2185 39.3 28.7985 40.17 29.5585 40.92C30.3085 41.68 31.1785 42.26 32.1585 42.68C33.1785 43.11 34.2385 43.32 35.3485 43.32ZM39.1985 33.51C38.9885 33.01 38.6885 32.56 38.2985 32.18C37.9185 31.79 37.4685 31.49 36.9685 31.28C36.4585 31.06 35.9185 30.95 35.3485 30.95C34.7785 30.95 34.2385 31.06 33.7185 31.28C33.2185 31.49 32.7685 31.79 32.3885 32.18C31.9985 32.56 31.6985 33.01 31.4885 33.51C31.2685 34.03 31.1585 34.57 31.1585 35.14C31.1585 35.71 31.2685 36.25 31.4885 36.76C31.6985 37.26 31.9985 37.71 32.3885 38.09C32.7685 38.48 33.2185 38.78 33.7185 38.99C34.2385 39.21 34.7785 39.32 35.3485 39.32C35.9185 39.32 36.4585 39.21 36.9685 38.99C37.4685 38.78 37.9185 38.48 38.2985 38.09C38.6885 37.71 38.9885 37.26 39.1985 36.76C39.4185 36.25 39.5285 35.71 39.5285 35.14C39.5285 34.57 39.4185 34.03 39.1985 33.51ZM9.69851 32.18C9.30851 32.56 9.00851 33.01 8.79851 33.51C8.57851 34.03 8.46851 34.57 8.46851 35.14C8.46851 35.71 8.57851 36.25 8.79851 36.76C9.00851 37.26 9.30851 37.71 9.69851 38.09C10.0785 38.48 10.5285 38.78 11.0285 38.99C11.5485 39.21 12.0885 39.32 12.6585 39.32C13.2285 39.32 13.7685 39.21 14.2785 38.99C14.7785 38.78 15.2285 38.48 15.6085 38.09C15.9985 37.71 16.2985 37.26 16.5085 36.76C16.7285 36.25 16.8385 35.71 16.8385 35.14C16.8385 34.57 16.7285 34.03 16.5085 33.51C16.2985 33.01 15.9985 32.56 15.6085 32.18C15.2285 31.79 14.7785 31.49 14.2785 31.28C13.7685 31.06 13.2285 30.95 12.6585 30.95C12.0885 30.95 11.5485 31.06 11.0285 31.28C10.5285 31.49 10.0785 31.79 9.69851 32.18Z" fill-rule="evenodd"  fill="#000000" >
</path>
</svg>
