<svg xmlns="http://www.w3.org/2000/svg" xmlns:xlink="http://www.w3.org/1999/xlink" width="48" height="48" viewBox="0 0 48 48" fill="none">
<path d="M23.52 24.81C19.54 29.05 15.39 33.36 11.07 37.73C14.05 37.41 16.91 36.81 19.66 35.91C23.07 34.8 26.23 33.28 29.14 31.34C31.21 29.96 33.05 28.44 34.66 26.79C34.88 26.56 35.1 26.34 35.3 26.12L31.73 22.55C31.68 22.5 31.63 22.46 31.59 22.41C31.54 22.37 31.5 22.32 31.45 22.27L28.55 19.37C27.23 20.83 25.55 22.64 23.52 24.81ZM42.41 14.41C42.51 14.32 42.59 14.22 42.66 14.11C42.74 14 42.8 13.89 42.85 13.77C42.9 13.64 42.94 13.52 42.96 13.39C42.99 13.26 43 13.13 43 13C43 12.87 42.99 12.74 42.96 12.61C42.94 12.48 42.9 12.36 42.85 12.23C42.8 12.11 42.74 12 42.66 11.89C42.59 11.78 42.51 11.68 42.41 11.59L37.41 6.59C37.39 6.56 37.36 6.53 37.33 6.51C37.28 6.46 37.23 6.42 37.18 6.38C37.12 6.34 37.07 6.31 37.01 6.27C36.96 6.24 36.9 6.21 36.84 6.18C36.78 6.16 36.72 6.13 36.66 6.11C36.59 6.09 36.53 6.07 36.47 6.06C36.4 6.04 36.34 6.03 36.27 6.02C36.21 6.01 36.14 6 36.08 6L35.88 6C35.82 6.01 35.75 6.01 35.69 6.02C35.62 6.03 35.56 6.05 35.5 6.06C35.43 6.08 35.37 6.1 35.31 6.12C35.25 6.15 35.19 6.17 35.13 6.2C35.07 6.23 35.01 6.26 34.96 6.29C34.9 6.33 34.85 6.37 34.79 6.41C34.74 6.44 34.69 6.49 34.64 6.53C34.59 6.58 34.55 6.62 34.51 6.67L26.57 15.6C26.55 15.62 26.53 15.65 26.51 15.67C26.48 15.7 26.45 15.73 26.42 15.76C25.02 17.33 23.08 19.42 20.6 22.07C15.54 27.47 10.2 32.98 4.59 38.59C4.49 38.68 4.41 38.78 4.34 38.89C4.26 39 4.2 39.11 4.15 39.23C4.1 39.36 4.06 39.48 4.04 39.61C4.01 39.74 4 39.87 4 40C4 40.13 4.01 40.26 4.04 40.39C4.06 40.52 4.1 40.64 4.15 40.77C4.2 40.89 4.26 41 4.34 41.11C4.41 41.22 4.49 41.32 4.59 41.41C4.68 41.51 4.78 41.59 4.89 41.66C5 41.74 5.11 41.8 5.23 41.85C5.36 41.9 5.48 41.94 5.61 41.96C5.74 41.99 5.87 42 6 42C11.25 42 16.22 41.24 20.9 39.71C24.66 38.49 28.14 36.81 31.36 34.66C33.66 33.13 35.72 31.43 37.52 29.58C38.1 29 38.61 28.43 39.07 27.88C39.28 27.62 39.44 27.42 39.57 27.25C39.6 27.21 39.62 27.18 39.64 27.14C39.71 27.05 39.76 26.95 39.81 26.85C39.82 26.82 39.84 26.8 39.85 26.77C39.86 26.74 39.87 26.72 39.87 26.69C39.88 26.66 39.89 26.64 39.9 26.61L39.9 26.61L39.9 26.61C39.91 26.58 39.92 26.56 39.93 26.53C39.93 26.5 39.94 26.47 39.95 26.44C39.97 26.36 39.98 26.28 39.99 26.19C40 26.13 40 26.07 40 26C40 25.94 40 25.88 39.99 25.82C39.99 25.75 39.98 25.68 39.96 25.61C39.94 25.48 39.9 25.36 39.85 25.23C39.81 25.13 39.76 25.04 39.7 24.94C39.69 24.93 39.67 24.91 39.66 24.89C39.63 24.83 39.59 24.78 39.55 24.73C39.5 24.68 39.46 24.63 39.41 24.59C39.37 24.54 39.32 24.5 39.27 24.45L35.82 21L42.41 14.41ZM38.17 13L36.09 10.91L31.21 16.39L33 18.18L38.17 13Z" fill-rule="evenodd"  fill="#000000" >
</path>
</svg>
