<svg xmlns="http://www.w3.org/2000/svg" xmlns:xlink="http://www.w3.org/1999/xlink" width="48" height="48" viewBox="0 0 48 48" fill="none">
<path d="M4.23 12.85C4.36 12.9 4.48 12.94 4.61 12.96C4.74 12.99 4.87 13 5 13L12 13C12.13 13 12.26 12.99 12.39 12.96C12.52 12.94 12.64 12.9 12.77 12.85C12.89 12.8 13 12.74 13.11 12.66C13.22 12.59 13.32 12.51 13.41 12.41C13.51 12.32 13.59 12.22 13.66 12.11C13.74 12 13.8 11.89 13.85 11.77C13.9 11.64 13.94 11.52 13.96 11.39C13.99 11.26 14 11.13 14 11C14 10.93 14 10.87 13.99 10.8C13.98 10.74 13.97 10.67 13.96 10.61C13.95 10.55 13.93 10.48 13.91 10.42C13.89 10.36 13.87 10.3 13.85 10.23C13.82 10.17 13.79 10.11 13.76 10.06C13.73 10 13.7 9.94 13.66 9.89C13.63 9.83 13.59 9.78 13.55 9.73C13.5 9.68 13.46 9.63 13.41 9.59C13.37 9.54 13.32 9.5 13.27 9.45C13.22 9.41 13.17 9.37 13.11 9.34C13.06 9.3 13 9.27 12.94 9.24C12.89 9.21 12.83 9.18 12.77 9.15C12.7 9.13 12.64 9.11 12.58 9.09C12.52 9.07 12.45 9.05 12.39 9.04C12.33 9.03 12.26 9.02 12.2 9.01C12.13 9 12.07 9 12 9L5 9C4.87 9 4.74 9.01 4.61 9.04C4.48 9.06 4.36 9.1 4.23 9.15C4.11 9.2 4 9.26 3.89 9.34C3.78 9.41 3.68 9.49 3.59 9.59C3.49 9.68 3.41 9.78 3.34 9.89C3.26 10 3.2 10.11 3.15 10.23C3.1 10.36 3.06 10.48 3.04 10.61C3.01 10.74 3 10.87 3 11C3 11.13 3.01 11.26 3.04 11.39C3.06 11.52 3.1 11.64 3.15 11.77C3.2 11.89 3.26 12 3.34 12.11C3.41 12.22 3.49 12.32 3.59 12.41C3.68 12.51 3.78 12.59 3.89 12.66C4 12.74 4.11 12.8 4.23 12.85ZM44.96 23.61C44.94 23.48 44.9 23.36 44.85 23.24C44.8 23.11 44.74 23 44.66 22.89C44.59 22.78 44.51 22.68 44.41 22.59C44.32 22.49 44.22 22.41 44.11 22.34C44 22.27 43.89 22.2 43.77 22.15C43.64 22.1 43.52 22.07 43.39 22.04C43.26 22.01 43.13 22 43 22L5 22C4.93 22 4.87 22 4.8 22.01C4.74 22.02 4.67 22.03 4.61 22.04C4.55 22.05 4.48 22.07 4.42 22.09C4.36 22.11 4.3 22.13 4.23 22.15C4.17 22.18 4.11 22.21 4.06 22.24C4 22.27 3.94 22.3 3.89 22.34C3.83 22.37 3.78 22.41 3.73 22.45C3.68 22.5 3.63 22.54 3.59 22.59C3.54 22.63 3.5 22.68 3.45 22.73C3.41 22.78 3.37 22.83 3.34 22.89C3.3 22.94 3.27 23 3.24 23.06C3.21 23.11 3.18 23.17 3.15 23.23C3.13 23.3 3.11 23.36 3.09 23.42C3.07 23.48 3.05 23.55 3.04 23.61C3.03 23.67 3.02 23.74 3.01 23.8C3 23.87 3 23.93 3 24C3 24.07 3 24.13 3.01 24.2C3.02 24.26 3.03 24.33 3.04 24.39C3.05 24.45 3.07 24.52 3.09 24.58C3.11 24.64 3.13 24.7 3.15 24.77C3.18 24.83 3.21 24.88 3.24 24.94C3.27 25 3.3 25.06 3.34 25.11C3.37 25.17 3.41 25.22 3.45 25.27C3.5 25.32 3.54 25.37 3.59 25.41C3.63 25.46 3.68 25.5 3.73 25.55C3.78 25.59 3.83 25.63 3.89 25.66C3.94 25.7 4 25.73 4.06 25.76C4.11 25.79 4.17 25.82 4.23 25.85C4.3 25.87 4.36 25.89 4.42 25.91C4.48 25.93 4.55 25.95 4.61 25.96C4.67 25.97 4.74 25.98 4.8 25.99C4.87 26 4.93 26 5 26L43 26C43.07 26 43.13 26 43.2 25.99C43.26 25.98 43.33 25.98 43.39 25.96C43.45 25.95 43.52 25.93 43.58 25.91C43.64 25.9 43.7 25.87 43.77 25.85C43.83 25.82 43.88 25.8 43.94 25.76C44 25.73 44.06 25.7 44.11 25.66C44.17 25.63 44.22 25.59 44.27 25.55C44.32 25.51 44.37 25.46 44.41 25.42C44.46 25.37 44.5 25.32 44.55 25.27C44.59 25.22 44.63 25.17 44.66 25.11C44.7 25.06 44.73 25 44.76 24.94C44.79 24.89 44.82 24.83 44.85 24.77C44.87 24.71 44.89 24.64 44.91 24.58C44.93 24.52 44.95 24.46 44.96 24.39C44.97 24.33 44.98 24.26 44.99 24.2C45 24.13 45 24.07 45 24C45 23.87 44.99 23.74 44.96 23.61ZM44.41 38.41C44.51 38.32 44.59 38.22 44.66 38.11C44.74 38 44.8 37.89 44.85 37.77C44.9 37.64 44.94 37.52 44.96 37.39C44.99 37.26 45 37.13 45 37C45 36.93 45 36.87 44.99 36.8C44.98 36.74 44.97 36.67 44.96 36.61C44.95 36.55 44.93 36.48 44.91 36.42C44.89 36.36 44.87 36.3 44.85 36.23C44.82 36.17 44.79 36.11 44.76 36.06C44.73 36 44.7 35.94 44.66 35.89C44.63 35.83 44.59 35.78 44.55 35.73C44.5 35.68 44.46 35.63 44.41 35.59C44.37 35.54 44.32 35.5 44.27 35.45C44.22 35.41 44.17 35.37 44.11 35.34C44.06 35.3 44 35.27 43.94 35.24C43.89 35.21 43.83 35.18 43.77 35.15C43.7 35.13 43.64 35.11 43.58 35.09C43.52 35.07 43.45 35.05 43.39 35.04C43.33 35.03 43.26 35.02 43.2 35.01C43.13 35 43.07 35 43 35L36 35C35.87 35 35.74 35.01 35.61 35.04C35.48 35.06 35.36 35.1 35.23 35.15C35.11 35.2 35 35.26 34.89 35.34C34.78 35.41 34.68 35.49 34.59 35.59C34.49 35.68 34.41 35.78 34.34 35.89C34.26 36 34.2 36.11 34.15 36.23C34.1 36.36 34.06 36.48 34.04 36.61C34.01 36.74 34 36.87 34 37C34 37.13 34.01 37.26 34.04 37.39C34.06 37.52 34.1 37.64 34.15 37.77C34.2 37.89 34.26 38 34.34 38.11C34.41 38.22 34.49 38.32 34.59 38.41C34.68 38.51 34.78 38.59 34.89 38.66C35 38.74 35.11 38.8 35.23 38.85C35.36 38.9 35.48 38.94 35.61 38.96C35.74 38.99 35.87 39 36 39L43 39C43.13 39 43.26 38.99 43.39 38.96C43.52 38.94 43.64 38.9 43.77 38.85C43.89 38.8 44 38.74 44.11 38.66C44.22 38.59 44.32 38.51 44.41 38.41ZM4.61 38.96C4.74 38.99 4.87 39 5 39L12 39C12.13 39 12.26 38.99 12.39 38.96C12.52 38.94 12.64 38.9 12.77 38.85C12.89 38.8 13 38.74 13.11 38.66C13.22 38.59 13.32 38.51 13.41 38.41C13.51 38.32 13.59 38.22 13.66 38.11C13.74 38 13.8 37.89 13.85 37.77C13.9 37.64 13.94 37.52 13.96 37.39C13.99 37.26 14 37.13 14 37C14 36.93 14 36.87 13.99 36.8C13.98 36.74 13.97 36.67 13.96 36.61C13.95 36.55 13.93 36.48 13.91 36.42C13.89 36.36 13.87 36.3 13.85 36.23C13.82 36.17 13.79 36.11 13.76 36.06C13.73 36 13.7 35.94 13.66 35.89C13.63 35.83 13.59 35.78 13.55 35.73C13.5 35.68 13.46 35.63 13.41 35.59C13.37 35.54 13.32 35.5 13.27 35.45C13.22 35.41 13.17 35.37 13.11 35.34C13.06 35.3 13 35.27 12.94 35.24C12.89 35.21 12.83 35.18 12.77 35.15C12.7 35.13 12.64 35.11 12.58 35.09C12.52 35.07 12.45 35.05 12.39 35.04C12.33 35.03 12.26 35.02 12.2 35.01C12.13 35 12.07 35 12 35L5 35C4.87 35 4.74 35.01 4.61 35.04C4.48 35.06 4.36 35.1 4.23 35.15C4.11 35.2 4 35.26 3.89 35.34C3.78 35.41 3.68 35.49 3.59 35.59C3.49 35.68 3.41 35.78 3.34 35.89C3.26 36 3.2 36.11 3.15 36.23C3.1 36.36 3.06 36.48 3.04 36.61C3.01 36.74 3 36.87 3 37C3 37.13 3.01 37.26 3.04 37.39C3.06 37.52 3.1 37.64 3.15 37.77C3.2 37.89 3.26 38 3.34 38.11C3.41 38.22 3.49 38.32 3.59 38.41C3.68 38.51 3.78 38.59 3.89 38.66C4 38.74 4.11 38.8 4.23 38.85C4.36 38.9 4.48 38.94 4.61 38.96ZM29.35 10.23C29.32 10.17 29.29 10.11 29.26 10.06C29.23 10 29.2 9.94 29.16 9.89C29.13 9.83 29.09 9.78 29.05 9.73C29 9.68 28.96 9.63 28.91 9.59C28.87 9.54 28.82 9.5 28.77 9.45C28.72 9.41 28.67 9.37 28.61 9.34C28.56 9.3 28.5 9.27 28.44 9.24C28.39 9.21 28.33 9.18 28.27 9.15C28.2 9.13 28.14 9.11 28.08 9.09C28.02 9.07 27.95 9.05 27.89 9.04C27.83 9.03 27.76 9.02 27.7 9.01C27.63 9 27.57 9 27.5 9L20.5 9C20.37 9 20.24 9.01 20.11 9.04C19.98 9.06 19.86 9.1 19.73 9.15C19.61 9.2 19.5 9.26 19.39 9.34C19.28 9.41 19.18 9.49 19.09 9.59C18.99 9.68 18.91 9.78 18.84 9.89C18.76 10 18.7 10.11 18.65 10.23C18.6 10.36 18.56 10.48 18.54 10.61C18.51 10.74 18.5 10.87 18.5 11C18.5 11.13 18.51 11.26 18.54 11.39C18.56 11.52 18.6 11.64 18.65 11.77C18.7 11.89 18.76 12 18.84 12.11C18.91 12.22 18.99 12.32 19.09 12.41C19.18 12.51 19.28 12.59 19.39 12.66C19.5 12.74 19.61 12.8 19.73 12.85C19.86 12.9 19.98 12.94 20.11 12.96C20.24 12.99 20.37 13 20.5 13L27.5 13C27.63 13 27.76 12.99 27.89 12.96C28.02 12.94 28.14 12.9 28.27 12.85C28.39 12.8 28.5 12.74 28.61 12.66C28.72 12.59 28.82 12.51 28.91 12.41C29.01 12.32 29.09 12.22 29.16 12.11C29.24 12 29.3 11.89 29.35 11.77C29.4 11.64 29.44 11.52 29.46 11.39C29.49 11.26 29.5 11.13 29.5 11C29.5 10.93 29.5 10.87 29.49 10.8C29.48 10.74 29.47 10.67 29.46 10.61C29.45 10.55 29.43 10.48 29.41 10.42C29.39 10.36 29.37 10.3 29.35 10.23ZM34.59 9.59C34.49 9.68 34.41 9.78 34.34 9.89C34.26 10 34.2 10.11 34.15 10.23C34.1 10.36 34.06 10.48 34.04 10.61C34.01 10.74 34 10.87 34 11C34 11.13 34.01 11.26 34.04 11.39C34.06 11.52 34.1 11.64 34.15 11.77C34.2 11.89 34.26 12 34.34 12.11C34.41 12.22 34.49 12.32 34.59 12.41C34.68 12.51 34.78 12.59 34.89 12.66C35 12.74 35.11 12.8 35.23 12.85C35.36 12.9 35.48 12.94 35.61 12.96C35.74 12.99 35.87 13 36 13L43 13C43.13 13 43.26 12.99 43.39 12.96C43.52 12.94 43.64 12.9 43.77 12.85C43.89 12.8 44 12.74 44.11 12.66C44.22 12.59 44.32 12.51 44.41 12.41C44.51 12.32 44.59 12.22 44.66 12.11C44.74 12 44.8 11.89 44.85 11.77C44.9 11.64 44.94 11.52 44.96 11.39C44.99 11.26 45 11.13 45 11C45 10.93 45 10.87 44.99 10.8C44.98 10.74 44.97 10.67 44.96 10.61C44.95 10.55 44.93 10.48 44.91 10.42C44.89 10.36 44.87 10.3 44.85 10.23C44.82 10.17 44.79 10.11 44.76 10.06C44.73 10 44.7 9.94 44.66 9.89C44.63 9.83 44.59 9.78 44.55 9.73C44.5 9.68 44.46 9.63 44.41 9.59C44.37 9.54 44.32 9.5 44.27 9.45C44.22 9.41 44.17 9.37 44.11 9.34C44.06 9.3 44 9.27 43.94 9.24C43.89 9.21 43.83 9.18 43.77 9.15C43.7 9.13 43.64 9.11 43.58 9.09C43.52 9.07 43.45 9.05 43.39 9.04C43.33 9.03 43.26 9.02 43.2 9.01C43.13 9 43.07 9 43 9L36 9C35.87 9 35.74 9.01 35.61 9.04C35.48 9.06 35.36 9.1 35.23 9.15C35.11 9.2 35 9.26 34.89 9.34C34.78 9.41 34.68 9.49 34.59 9.59ZM18.65 36.23C18.6 36.36 18.56 36.48 18.54 36.61C18.51 36.74 18.5 36.87 18.5 37C18.5 37.13 18.51 37.26 18.54 37.39C18.56 37.52 18.6 37.64 18.65 37.77C18.7 37.89 18.76 38 18.84 38.11C18.91 38.22 18.99 38.32 19.09 38.41C19.18 38.51 19.28 38.59 19.39 38.66C19.5 38.74 19.61 38.8 19.73 38.85C19.86 38.9 19.98 38.94 20.11 38.96C20.24 38.99 20.37 39 20.5 39L27.5 39C27.63 39 27.76 38.99 27.89 38.96C28.02 38.94 28.14 38.9 28.27 38.85C28.39 38.8 28.5 38.74 28.61 38.66C28.72 38.59 28.82 38.51 28.91 38.41C29.01 38.32 29.09 38.22 29.16 38.11C29.24 38 29.3 37.89 29.35 37.77C29.4 37.64 29.44 37.52 29.46 37.39C29.49 37.26 29.5 37.13 29.5 37C29.5 36.93 29.5 36.87 29.49 36.8C29.48 36.74 29.47 36.67 29.46 36.61C29.45 36.55 29.43 36.48 29.41 36.42C29.39 36.36 29.37 36.3 29.35 36.23C29.32 36.17 29.29 36.11 29.26 36.06C29.23 36 29.2 35.94 29.16 35.89C29.13 35.83 29.09 35.78 29.05 35.73C29 35.68 28.96 35.63 28.91 35.59C28.87 35.54 28.82 35.5 28.77 35.45C28.72 35.41 28.67 35.37 28.61 35.34C28.56 35.3 28.5 35.27 28.44 35.24C28.39 35.21 28.33 35.18 28.27 35.15C28.2 35.13 28.14 35.11 28.08 35.09C28.02 35.07 27.95 35.05 27.89 35.04C27.83 35.03 27.76 35.02 27.7 35.01C27.63 35 27.57 35 27.5 35L20.5 35C20.37 35 20.24 35.01 20.11 35.04C19.98 35.06 19.86 35.1 19.73 35.15C19.61 35.2 19.5 35.26 19.39 35.34C19.28 35.41 19.18 35.49 19.09 35.59C18.99 35.68 18.91 35.78 18.84 35.89C18.76 36 18.7 36.11 18.65 36.23Z" fill-rule="evenodd"  fill="#000000" >
</path>
</svg>
