<svg xmlns="http://www.w3.org/2000/svg" xmlns:xlink="http://www.w3.org/1999/xlink" width="48" height="48" viewBox="0 0 48 48" fill="none">
<path d="M39.33 18.4474C38.99 18.2374 38.62 18.1374 38.21 18.1374C37.81 18.1374 37.44 18.2374 37.1 18.4374C36.77 18.6274 36.51 18.8874 36.31 19.2274C36.11 19.5774 36.01 19.9374 36.01 20.3374L36.01 21.7474L34.69 21.7474C34.51 21.1374 34.26 20.5574 33.93 19.9874C33.22 18.7574 32.24 17.7774 31 17.0674L16 8.4074C14.76 7.6974 13.42 7.3374 12 7.3374C10.57 7.3374 9.23 7.6974 8 8.4074C6.76 9.1174 5.78 10.0974 5.07 11.3374C4.36 12.5774 4 13.9074 4 15.3374L4 32.6574C4 34.0874 4.36 35.4174 5.07 36.6574C5.78 37.8974 6.76 38.8774 8 39.5974C9.23 40.3074 10.57 40.6674 12 40.6674C13.42 40.6674 14.76 40.3074 16 39.5974L31 30.9274C32.24 30.2174 33.22 29.2474 33.93 28.0074C34.35 27.2874 34.65 26.5374 34.82 25.7474L36 25.7474L36 27.6474C36 28.0074 36.08 28.3474 36.25 28.6674C36.44 29.0374 36.7 29.3174 37.05 29.5274C37.4 29.7474 37.78 29.8574 38.2 29.8574C38.61 29.8574 38.98 29.7574 39.33 29.5474L45.24 26.1474C45.62 25.9374 45.93 25.6274 46.16 25.2374C46.38 24.8474 46.49 24.4374 46.49 23.9874C46.49 23.5374 46.38 23.1274 46.17 22.7474C45.94 22.3474 45.63 22.0374 45.23 21.8074L39.33 18.4474ZM31 23.7474L31 23.7074C30.96 23.1074 30.78 22.5374 30.47 21.9974C30.11 21.3774 29.62 20.8874 29 20.5374L14 11.8674C13.38 11.5174 12.71 11.3374 12 11.3374C11.28 11.3374 10.62 11.5174 10 11.8674C9.38 12.2274 8.89 12.7174 8.54 13.3374C8.18 13.9574 8 14.6274 8 15.3374L8 32.6574C8 33.3774 8.18 34.0474 8.54 34.6674C8.89 35.2874 9.38 35.7674 10 36.1274C10.62 36.4874 11.28 36.6674 12 36.6674C12.71 36.6674 13.38 36.4874 14 36.1274L29 27.4674C29.62 27.1074 30.11 26.6174 30.47 25.9974C30.83 25.3874 31.01 24.7174 31.01 23.9974C31.01 23.9774 31.01 23.9674 31.01 23.9474C31 23.8774 31 23.8174 31 23.7474ZM43.24 22.6874C43.24 22.6874 43.23 22.6874 43.22 22.6974L43.24 22.6874Z" fill-rule="evenodd"  fill="#000000" >
</path>
</svg>
