<svg xmlns="http://www.w3.org/2000/svg" xmlns:xlink="http://www.w3.org/1999/xlink" width="48" height="48" viewBox="0 0 48 48" fill="none">
<path d="M35.79 34.2985C35.49 35.0385 35.06 35.6785 34.5 36.2485C33.93 36.8085 33.29 37.2385 32.55 37.5385C31.81 37.8485 31.05 37.9985 30.25 37.9985L12.25 37.9985C12.18 37.9985 12.12 37.9985 12.05 38.0085C11.99 38.0185 11.92 38.0285 11.86 38.0385C11.8 38.0485 11.73 38.0685 11.67 38.0885C11.61 38.1085 11.55 38.1285 11.48 38.1485C11.42 38.1785 11.36 38.2085 11.31 38.2385C11.25 38.2685 11.19 38.2985 11.14 38.3385C11.08 38.3785 11.03 38.4085 10.98 38.4585C10.93 38.4985 10.88 38.5385 10.84 38.5885C10.79 38.6285 10.75 38.6785 10.7 38.7285C10.66 38.7785 10.62 38.8385 10.59 38.8885C10.55 38.9385 10.52 38.9985 10.49 39.0585L10.4 39.2385L10.34 39.4185C10.32 39.4785 10.3 39.5485 10.29 39.6085C10.28 39.6785 10.27 39.7385 10.26 39.8085C10.25 39.8685 10.25 39.9385 10.25 39.9985C10.25 40.0685 10.25 40.1285 10.26 40.1985C10.27 40.2585 10.28 40.3285 10.29 40.3885C10.3 40.4585 10.32 40.5185 10.34 40.5785C10.36 40.6385 10.38 40.7085 10.4 40.7685C10.43 40.8285 10.46 40.8885 10.49 40.9385C10.52 40.9985 10.55 41.0585 10.59 41.1085C10.62 41.1685 10.66 41.2185 10.7 41.2685C10.75 41.3185 10.79 41.3685 10.84 41.4185C10.88 41.4585 10.93 41.5085 10.98 41.5485C11.03 41.5885 11.08 41.6285 11.14 41.6585C11.19 41.6985 11.25 41.7285 11.31 41.7685C11.36 41.7985 11.42 41.8185 11.48 41.8485C11.55 41.8685 11.61 41.8985 11.67 41.9185C11.73 41.9285 11.8 41.9485 11.86 41.9585C11.92 41.9785 11.99 41.9885 12.05 41.9885C12.12 41.9985 12.18 41.9985 12.25 41.9985L30.25 41.9985C31.58 41.9985 32.85 41.7485 34.08 41.2385C35.3 40.7285 36.39 40.0085 37.32 39.0685C38.26 38.1385 38.98 37.0485 39.49 35.8285C40 34.5985 40.25 33.3285 40.25 31.9985C40.25 31.3185 40.18 30.6585 40.05 30.0085L35.91 30.0085C36.14 30.6485 36.25 31.3085 36.25 31.9985C36.25 32.7985 36.1 33.5585 35.79 34.2985ZM37.66 7.41854C37.64 7.35854 37.62 7.29854 37.6 7.22854C37.57 7.16854 37.54 7.10854 37.51 7.05854C37.48 6.99854 37.45 6.93854 37.41 6.88854C37.38 6.82854 37.34 6.77853 37.3 6.72854C37.25 6.67853 37.21 6.62854 37.16 6.58854C37.12 6.53854 37.07 6.49854 37.02 6.44853C36.97 6.40854 36.92 6.36854 36.86 6.33854C36.81 6.29854 36.75 6.26854 36.69 6.23853C36.64 6.20854 36.58 6.17853 36.52 6.14854C36.45 6.12854 36.39 6.10854 36.33 6.08854C36.27 6.06854 36.2 6.04854 36.14 6.03854C36.08 6.02854 36.01 6.01854 35.95 6.00854C35.88 5.99854 35.82 5.99854 35.75 5.99854L17.75 5.99854C16.42 5.99854 15.15 6.24854 13.92 6.75854C12.7 7.26854 11.61 7.98853 10.68 8.92854C9.74 9.85853 9.02 10.9485 8.51 12.1685C8 13.3985 7.75 14.6685 7.75 15.9985C7.75 17.3585 8.01 18.6485 8.54 19.8885C8.86 20.6485 9.26 21.3485 9.75 21.9985L5 21.9985C4.93 21.9985 4.87 22.0085 4.8 22.0085C4.74 22.0185 4.67 22.0285 4.61 22.0385C4.55 22.0485 4.48 22.0685 4.42 22.0885C4.36 22.1085 4.3 22.1285 4.23 22.1585C4.17 22.1785 4.11 22.2085 4.06 22.2385C4 22.2685 3.94 22.2985 3.89 22.3385C3.83 22.3785 3.78 22.4185 3.73 22.4585C3.68 22.4985 3.63 22.5385 3.59 22.5885L3.45 22.7285C3.41 22.7785 3.37 22.8385 3.34 22.8885C3.3 22.9485 3.27 22.9985 3.24 23.0585L3.15 23.2385L3.09 23.4185C3.07 23.4885 3.05 23.5485 3.04 23.6085C3.03 23.6785 3.02 23.7385 3.01 23.8085C3 23.8685 3 23.9385 3 23.9985C3 24.0685 3 24.1285 3.01 24.1985C3.02 24.2585 3.03 24.3285 3.04 24.3885C3.05 24.4585 3.07 24.5185 3.09 24.5785C3.11 24.6485 3.13 24.7085 3.15 24.7685L3.24 24.9485C3.27 24.9985 3.3 25.0585 3.34 25.1085C3.37 25.1685 3.41 25.2185 3.45 25.2685C3.5 25.3185 3.54 25.3685 3.59 25.4185C3.63 25.4585 3.68 25.5085 3.73 25.5485C3.78 25.5885 3.83 25.6285 3.89 25.6685C3.94 25.6985 4 25.7385 4.06 25.7685C4.12 25.7985 4.17 25.8285 4.23 25.8485C4.3 25.8785 4.36 25.8985 4.42 25.9185C4.48 25.9385 4.55 25.9485 4.61 25.9585C4.67 25.9785 4.74 25.9885 4.8 25.9885C4.87 25.9985 4.93 25.9985 5 25.9985L43 25.9985C43.07 25.9985 43.13 25.9985 43.2 25.9885C43.26 25.9785 43.33 25.9685 43.39 25.9585C43.45 25.9485 43.52 25.9285 43.58 25.9085C43.64 25.8885 43.7 25.8685 43.77 25.8485C43.83 25.8185 43.89 25.7885 43.94 25.7585C44 25.7285 44.06 25.6985 44.11 25.6585C44.17 25.6285 44.22 25.5885 44.27 25.5485C44.32 25.4985 44.37 25.4585 44.41 25.4085C44.46 25.3685 44.5 25.3185 44.55 25.2685C44.59 25.2185 44.63 25.1685 44.66 25.1085C44.7 25.0585 44.73 24.9985 44.76 24.9385C44.79 24.8785 44.82 24.8285 44.85 24.7685C44.87 24.6985 44.89 24.6385 44.91 24.5785C44.93 24.5185 44.95 24.4485 44.96 24.3885C44.97 24.3285 44.98 24.2585 44.99 24.1985C45 24.1285 45 24.0685 45 23.9985C45 23.8685 44.99 23.7385 44.96 23.6085C44.94 23.4785 44.9 23.3585 44.85 23.2285C44.8 23.1085 44.74 22.9985 44.66 22.8885C44.59 22.7785 44.51 22.6785 44.41 22.5885C44.32 22.4885 44.22 22.4085 44.11 22.3385C44 22.2585 43.89 22.1985 43.77 22.1485C43.64 22.0985 43.52 22.0585 43.39 22.0385C43.26 22.0085 43.13 21.9985 43 21.9985L25.28 21.9985L25.26 21.9985L17.75 21.9985C16.93 21.9985 16.16 21.8385 15.41 21.5285C14.7 21.2285 14.06 20.7985 13.51 20.2385C12.95 19.6885 12.52 19.0485 12.22 18.3385C11.91 17.5885 11.75 16.8185 11.75 15.9985C11.75 15.1985 11.9 14.4385 12.21 13.6985C12.51 12.9585 12.94 12.3185 13.5 11.7485C14.07 11.1885 14.71 10.7585 15.45 10.4585C16.19 10.1485 16.95 9.99854 17.75 9.99854L35.75 9.99854C35.82 9.99854 35.88 9.99854 35.95 9.98853C36.01 9.97853 36.08 9.96854 36.14 9.95854C36.2 9.94853 36.27 9.92854 36.33 9.90854C36.39 9.88854 36.45 9.86854 36.52 9.84854C36.58 9.81853 36.64 9.78854 36.69 9.75854C36.75 9.72853 36.81 9.69853 36.86 9.65854C36.92 9.62854 36.97 9.58854 37.02 9.54854C37.07 9.49854 37.12 9.45854 37.16 9.40854C37.21 9.36854 37.25 9.31853 37.3 9.26854C37.34 9.21854 37.38 9.16854 37.41 9.10853C37.45 9.05853 37.48 8.99854 37.51 8.93854C37.54 8.88854 37.57 8.82854 37.6 8.76854C37.62 8.69853 37.64 8.63854 37.66 8.57854C37.68 8.51854 37.7 8.44853 37.71 8.38854C37.72 8.32854 37.73 8.25854 37.74 8.19853C37.75 8.12854 37.75 8.06853 37.75 7.99854C37.75 7.92853 37.75 7.86854 37.74 7.79854C37.73 7.73853 37.72 7.66854 37.71 7.60854C37.7 7.54854 37.68 7.47854 37.66 7.41854Z" fill-rule="evenodd"  fill="#000000" >
</path>
</svg>
