<svg xmlns="http://www.w3.org/2000/svg" xmlns:xlink="http://www.w3.org/1999/xlink" width="48" height="48" viewBox="0 0 48 48" fill="none">
<path   fill-rule="evenodd"  fill="#000000"  d="M12.92 7.99C12.99 7.98 13.05 7.97 13.12 7.96C13.18 7.95 13.25 7.93 13.31 7.91L13.49 7.85L13.67 7.76C13.73 7.73 13.78 7.7 13.84 7.66C13.89 7.63 13.95 7.59 14 7.55C14.05 7.5 14.1 7.46 14.14 7.41C14.19 7.37 14.23 7.32 14.27 7.27C14.32 7.22 14.35 7.17 14.39 7.11C14.43 7.06 14.46 7 14.49 6.94C14.52 6.89 14.55 6.83 14.58 6.77C14.6 6.7 14.62 6.64 14.64 6.58C14.66 6.52 14.68 6.45 14.69 6.39C14.7 6.33 14.71 6.26 14.72 6.2C14.72 6.13 14.73 6.07 14.73 6C14.73 5.93 14.72 5.87 14.72 5.8C14.71 5.74 14.7 5.67 14.69 5.61C14.68 5.55 14.66 5.48 14.64 5.42C14.62 5.36 14.6 5.3 14.58 5.23C14.55 5.17 14.52 5.11 14.49 5.06C14.46 5 14.43 4.94 14.39 4.89C14.35 4.83 14.32 4.78 14.27 4.73C14.23 4.68 14.19 4.63 14.14 4.59C14.1 4.54 14.05 4.5 14 4.45C13.95 4.41 13.89 4.37 13.84 4.34C13.78 4.3 13.73 4.27 13.67 4.24L13.49 4.15L13.31 4.09C13.25 4.07 13.18 4.05 13.12 4.04C13.05 4.03 12.99 4.02 12.92 4.01C12.86 4 12.79 4 12.73 4L12 4C11.25 4 10.51 4.1 9.79 4.31C9.1 4.51 8.44 4.8 7.82 5.18C7.76 5.21 7.71 5.25 7.66 5.29C7.6 5.33 7.55 5.37 7.51 5.42C7.46 5.46 7.41 5.51 7.37 5.56L7.25 5.71C7.21 5.76 7.17 5.82 7.14 5.88C7.11 5.93 7.08 5.99 7.05 6.05C7.02 6.11 7 6.17 6.98 6.23C6.95 6.29 6.94 6.36 6.92 6.42C6.91 6.48 6.89 6.55 6.88 6.61C6.88 6.68 6.87 6.74 6.87 6.81L6.87 7C6.87 7.07 6.88 7.14 6.89 7.2C6.9 7.26 6.91 7.33 6.93 7.39C6.95 7.46 6.97 7.52 6.99 7.58C7.01 7.64 7.04 7.7 7.07 7.76C7.1 7.82 7.13 7.88 7.16 7.93C7.2 7.99 7.23 8.04 7.27 8.09C7.31 8.15 7.35 8.2 7.4 8.24C7.44 8.29 7.49 8.34 7.54 8.38C7.59 8.42 7.64 8.47 7.69 8.5C7.75 8.54 7.8 8.58 7.86 8.61C7.91 8.64 7.97 8.67 8.03 8.7C8.09 8.73 8.15 8.75 8.21 8.77C8.28 8.8 8.34 8.81 8.4 8.83C8.47 8.84 8.53 8.86 8.59 8.87C8.66 8.87 8.72 8.88 8.79 8.88C8.84 8.89 8.88 8.88 8.92 8.88C8.94 8.88 8.97 8.88 8.99 8.88C9.05 8.88 9.12 8.87 9.18 8.86C9.25 8.85 9.31 8.84 9.37 8.82C9.44 8.8 9.5 8.78 9.56 8.76C9.62 8.74 9.68 8.71 9.74 8.68C9.8 8.65 9.86 8.62 9.91 8.59C10.55 8.2 11.25 8 12 8L12.73 8C12.79 8 12.86 8 12.92 7.99ZM22.92 7.99C22.99 7.98 23.05 7.97 23.12 7.96C23.18 7.95 23.25 7.93 23.31 7.91L23.49 7.85L23.67 7.76C23.73 7.73 23.78 7.7 23.84 7.66C23.89 7.63 23.95 7.59 24 7.55C24.05 7.5 24.1 7.46 24.14 7.41C24.19 7.37 24.23 7.32 24.27 7.27C24.32 7.22 24.35 7.17 24.39 7.11C24.43 7.06 24.46 7 24.49 6.94C24.52 6.89 24.55 6.83 24.58 6.77C24.6 6.7 24.62 6.64 24.64 6.58C24.66 6.52 24.68 6.45 24.69 6.39C24.7 6.33 24.71 6.26 24.72 6.2C24.72 6.13 24.73 6.07 24.73 6C24.73 5.93 24.72 5.87 24.72 5.8C24.71 5.74 24.7 5.67 24.69 5.61C24.68 5.55 24.66 5.48 24.64 5.42C24.62 5.36 24.6 5.3 24.58 5.23C24.55 5.17 24.52 5.11 24.49 5.06C24.46 5 24.43 4.94 24.39 4.89C24.35 4.83 24.32 4.78 24.27 4.73C24.23 4.68 24.19 4.63 24.14 4.59C24.1 4.54 24.05 4.5 24 4.45C23.95 4.41 23.89 4.37 23.84 4.34C23.78 4.3 23.73 4.27 23.67 4.24L23.49 4.15L23.31 4.09C23.25 4.07 23.18 4.05 23.12 4.04C23.05 4.03 22.99 4.02 22.92 4.01C22.86 4 22.79 4 22.73 4L18.73 4C18.66 4 18.6 4 18.53 4.01C18.47 4.02 18.4 4.03 18.34 4.04C18.27 4.05 18.21 4.07 18.15 4.09C18.08 4.11 18.02 4.13 17.96 4.15C17.9 4.18 17.84 4.21 17.79 4.24C17.73 4.27 17.67 4.3 17.62 4.34C17.56 4.37 17.51 4.41 17.46 4.45C17.41 4.5 17.36 4.54 17.31 4.59C17.27 4.63 17.22 4.68 17.18 4.73C17.14 4.78 17.1 4.83 17.06 4.89C17.03 4.94 16.99 5 16.96 5.06C16.93 5.11 16.91 5.17 16.88 5.23C16.85 5.3 16.83 5.36 16.81 5.42C16.79 5.48 16.78 5.55 16.77 5.61C16.75 5.67 16.74 5.74 16.74 5.8C16.73 5.87 16.73 5.93 16.73 6C16.73 6.07 16.73 6.13 16.74 6.2C16.74 6.26 16.75 6.33 16.77 6.39C16.78 6.45 16.79 6.52 16.81 6.58C16.83 6.64 16.85 6.7 16.88 6.77C16.91 6.83 16.93 6.89 16.96 6.94C16.99 7 17.03 7.06 17.06 7.11C17.1 7.17 17.14 7.22 17.18 7.27C17.22 7.32 17.27 7.37 17.31 7.41C17.36 7.46 17.41 7.5 17.46 7.55C17.51 7.59 17.56 7.63 17.62 7.66C17.67 7.7 17.73 7.73 17.79 7.76C17.84 7.79 17.9 7.82 17.96 7.85C18.02 7.87 18.08 7.89 18.15 7.91C18.21 7.93 18.27 7.95 18.34 7.96C18.4 7.97 18.47 7.98 18.53 7.99C18.6 8 18.66 8 18.73 8L22.73 8C22.79 8 22.86 8 22.92 7.99ZM29.82 10.62C29.9 10.73 29.98 10.83 30.08 10.91C30.18 11 30.28 11.08 30.4 11.15C30.51 11.22 30.63 11.27 30.75 11.31C30.88 11.36 31 11.39 31.13 11.41C31.26 11.43 31.39 11.43 31.52 11.43C31.66 11.42 31.78 11.4 31.91 11.37C32.04 11.34 32.16 11.29 32.28 11.24C32.34 11.21 32.4 11.18 32.45 11.14C32.51 11.11 32.56 11.07 32.62 11.03L32.77 10.91C32.82 10.87 32.86 10.82 32.91 10.77L33.03 10.62C33.07 10.57 33.11 10.51 33.14 10.45C33.17 10.4 33.2 10.34 33.23 10.28C33.26 10.22 33.28 10.16 33.31 10.1C33.33 10.04 33.35 9.98 33.36 9.91C33.38 9.85 33.39 9.78 33.4 9.72C33.41 9.65 33.42 9.59 33.42 9.52L33.42 9.33C33.42 9.26 33.41 9.2 33.4 9.13C33.39 9.07 33.38 9 33.36 8.94C33.34 8.88 33.33 8.81 33.3 8.75C33.28 8.69 33.26 8.63 33.23 8.57C32.84 7.76 32.33 7.03 31.7 6.39C31.07 5.75 30.35 5.22 29.54 4.83C29.48 4.8 29.42 4.77 29.36 4.75C29.3 4.72 29.24 4.7 29.17 4.69C29.11 4.67 29.05 4.66 28.98 4.65C28.92 4.63 28.85 4.63 28.79 4.62L28.59 4.62C28.52 4.62 28.46 4.63 28.39 4.64C28.33 4.64 28.27 4.66 28.2 4.67C28.14 4.68 28.07 4.7 28.01 4.72C27.95 4.74 27.89 4.77 27.83 4.8C27.77 4.82 27.71 4.85 27.66 4.89C27.6 4.92 27.54 4.95 27.49 4.99L27.34 5.11C27.29 5.16 27.24 5.2 27.2 5.25C27.15 5.3 27.11 5.35 27.07 5.4C27.03 5.45 26.99 5.5 26.96 5.56C26.92 5.62 26.89 5.67 26.86 5.73C26.8 5.85 26.76 5.97 26.72 6.1C26.69 6.23 26.67 6.35 26.66 6.49C26.65 6.62 26.65 6.75 26.67 6.88C26.69 7.01 26.72 7.13 26.76 7.26C26.8 7.38 26.85 7.5 26.92 7.62C26.99 7.73 27.06 7.84 27.15 7.94C27.23 8.03 27.33 8.12 27.43 8.2C27.54 8.28 27.65 8.35 27.77 8.41C28.17 8.61 28.53 8.87 28.85 9.19C29.17 9.52 29.42 9.88 29.62 10.29C29.67 10.41 29.74 10.52 29.82 10.62ZM7.99 11.72C7.99 11.66 7.98 11.59 7.97 11.53C7.95 11.47 7.94 11.4 7.92 11.34C7.9 11.28 7.88 11.21 7.85 11.15C7.83 11.09 7.8 11.03 7.77 10.98C7.74 10.92 7.71 10.86 7.67 10.81C7.64 10.75 7.6 10.7 7.56 10.65C7.52 10.6 7.47 10.55 7.43 10.5C7.38 10.45 7.33 10.41 7.28 10.37C7.23 10.33 7.18 10.29 7.12 10.25C7.07 10.21 7.01 10.18 6.96 10.15L6.78 10.06C6.72 10.04 6.66 10.01 6.6 10C6.53 9.98 6.47 9.96 6.41 9.95C6.34 9.93 6.28 9.92 6.21 9.92C6.15 9.91 6.08 9.91 6.02 9.9C5.95 9.9 5.89 9.91 5.82 9.91C5.76 9.92 5.69 9.93 5.63 9.94C5.56 9.95 5.5 9.97 5.44 9.99C5.37 10 5.31 10.03 5.25 10.05C5.19 10.08 5.13 10.1 5.07 10.13C5.01 10.16 4.96 10.2 4.9 10.23C4.85 10.27 4.8 10.31 4.74 10.35C4.69 10.39 4.64 10.43 4.6 10.48L4.46 10.62C4.42 10.67 4.38 10.73 4.35 10.78C4.31 10.83 4.28 10.89 4.24 10.95C4.21 11.01 4.18 11.06 4.16 11.12C4.13 11.19 4.11 11.25 4.09 11.31C4.07 11.37 4.06 11.43 4.04 11.5C4.03 11.56 4.02 11.63 4.01 11.69C4.01 11.76 4 11.82 4 11.89L4 15.91C4 15.97 4 16.04 4.01 16.1C4.02 16.17 4.03 16.23 4.04 16.3C4.05 16.36 4.07 16.43 4.09 16.49L4.15 16.67L4.24 16.85C4.27 16.91 4.3 16.97 4.34 17.02C4.37 17.07 4.41 17.13 4.45 17.18C4.5 17.23 4.54 17.28 4.59 17.32C4.63 17.37 4.68 17.41 4.73 17.45C4.78 17.5 4.83 17.53 4.89 17.57C4.94 17.61 5 17.64 5.06 17.67C5.11 17.7 5.17 17.73 5.23 17.76C5.3 17.78 5.36 17.8 5.42 17.82C5.48 17.84 5.55 17.86 5.61 17.87C5.67 17.88 5.74 17.89 5.8 17.9C5.87 17.91 5.93 17.91 6 17.91C6.07 17.91 6.13 17.91 6.2 17.9C6.26 17.89 6.33 17.88 6.39 17.87C6.45 17.86 6.52 17.84 6.58 17.82C6.64 17.8 6.7 17.78 6.77 17.76C6.83 17.73 6.89 17.7 6.94 17.67C7 17.64 7.06 17.61 7.11 17.57C7.17 17.53 7.22 17.5 7.27 17.45C7.32 17.41 7.37 17.37 7.41 17.32C7.46 17.28 7.5 17.23 7.55 17.18C7.59 17.13 7.63 17.07 7.66 17.02C7.7 16.97 7.73 16.91 7.76 16.85L7.85 16.67L7.91 16.49C7.93 16.43 7.95 16.36 7.96 16.3C7.97 16.23 7.98 16.17 7.99 16.1C8 16.04 8 15.97 8 15.91L8 11.92C8 11.85 8 11.79 7.99 11.72ZM30.01 19.56C30.02 19.63 30.03 19.69 30.04 19.75C30.05 19.82 30.07 19.88 30.09 19.94C30.11 20.01 30.13 20.07 30.15 20.13L30.24 20.31C30.27 20.36 30.3 20.42 30.34 20.48C30.37 20.53 30.41 20.58 30.45 20.63C30.5 20.68 30.54 20.73 30.59 20.78C30.63 20.82 30.68 20.87 30.73 20.91C30.78 20.95 30.83 20.99 30.89 21.03C30.94 21.06 31 21.1 31.06 21.13C31.12 21.16 31.17 21.19 31.23 21.21C31.3 21.24 31.36 21.26 31.42 21.28C31.48 21.3 31.55 21.31 31.61 21.33C31.67 21.34 31.74 21.35 31.8 21.35C31.87 21.36 31.93 21.36 32 21.36C32.07 21.36 32.13 21.36 32.2 21.35C32.26 21.35 32.33 21.34 32.39 21.33C32.45 21.31 32.52 21.3 32.58 21.28C32.64 21.26 32.7 21.24 32.77 21.21C32.83 21.19 32.89 21.16 32.94 21.13C33 21.1 33.06 21.06 33.11 21.03C33.17 20.99 33.22 20.95 33.27 20.91C33.32 20.87 33.37 20.82 33.41 20.78C33.46 20.73 33.5 20.68 33.55 20.63C33.59 20.58 33.63 20.53 33.66 20.48C33.7 20.42 33.73 20.36 33.76 20.31L33.85 20.13C33.87 20.07 33.89 20.01 33.91 19.94C33.93 19.88 33.95 19.82 33.96 19.75C33.97 19.69 33.98 19.63 33.99 19.56C34 19.49 34 19.43 34 19.36L34 18L36 18C36.54 18 37.06 18.1 37.55 18.31C38.03 18.52 38.46 18.8 38.83 19.17C39.2 19.54 39.48 19.97 39.69 20.45C39.9 20.94 40 21.46 40 22L40 36C40 36.54 39.9 37.06 39.69 37.55C39.48 38.03 39.2 38.46 38.83 38.83C38.46 39.2 38.03 39.48 37.55 39.69C37.06 39.9 36.54 40 36 40L22 40C21.46 40 20.94 39.9 20.45 39.69C19.97 39.48 19.54 39.2 19.17 38.83C18.8 38.46 18.52 38.03 18.31 37.55C18.1 37.06 18 36.54 18 36L18 32C18 31.93 18 31.87 17.99 31.8C17.98 31.74 17.97 31.67 17.96 31.61C17.95 31.55 17.93 31.48 17.91 31.42C17.89 31.36 17.87 31.3 17.85 31.23C17.82 31.17 17.79 31.12 17.76 31.06C17.73 31 17.7 30.94 17.66 30.89C17.63 30.83 17.59 30.78 17.55 30.73C17.5 30.68 17.46 30.63 17.41 30.59C17.37 30.54 17.32 30.5 17.27 30.45C17.22 30.41 17.17 30.37 17.11 30.34C17.07 30.31 17.01 30.28 16.96 30.25C16.96 30.25 16.95 30.24 16.94 30.24C16.93 30.24 16.93 30.23 16.92 30.23C16.88 30.2 16.82 30.18 16.77 30.15C16.7 30.13 16.64 30.11 16.58 30.09C16.52 30.07 16.45 30.05 16.39 30.04C16.33 30.03 16.26 30.02 16.2 30.01C16.13 30 16.07 30 16 30L12 30C11.2 30 10.47 29.78 9.81 29.35C9.75 29.31 9.7 29.28 9.64 29.25L9.46 29.16L9.28 29.1C9.21 29.08 9.15 29.06 9.09 29.05C9.02 29.04 8.96 29.03 8.89 29.02L8.7 29.02C8.63 29.02 8.57 29.02 8.5 29.03C8.43 29.03 8.37 29.04 8.31 29.06C8.24 29.07 8.18 29.09 8.12 29.11C8.05 29.13 7.99 29.15 7.93 29.17L7.75 29.26C7.7 29.29 7.64 29.33 7.59 29.36C7.53 29.4 7.48 29.44 7.43 29.48C7.38 29.52 7.33 29.57 7.29 29.61C7.24 29.66 7.2 29.71 7.16 29.76C7.11 29.81 7.08 29.86 7.04 29.92C6.97 30.03 6.91 30.14 6.86 30.26C6.81 30.39 6.77 30.51 6.75 30.64C6.72 30.77 6.71 30.9 6.71 31.03C6.71 31.16 6.73 31.29 6.75 31.42C6.78 31.55 6.82 31.67 6.87 31.8C6.92 31.92 6.98 32.03 7.06 32.14C7.13 32.25 7.21 32.35 7.31 32.44C7.4 32.53 7.5 32.62 7.61 32.69C8.25 33.11 8.94 33.43 9.67 33.65C10.43 33.88 11.2 34 12 34L14 34L14 36C14 37.08 14.21 38.12 14.63 39.11C15.04 40.07 15.61 40.92 16.34 41.66C17.08 42.39 17.93 42.96 18.89 43.37C19.88 43.79 20.92 44 22 44L36 44C37.08 44 38.12 43.79 39.11 43.37C40.07 42.96 40.92 42.39 41.66 41.66C42.39 40.92 42.96 40.07 43.37 39.11C43.79 38.12 44 37.08 44 36L44 22C44 20.92 43.79 19.88 43.37 18.89C42.96 17.93 42.39 17.08 41.66 16.34C40.92 15.61 40.07 15.04 39.11 14.63C38.12 14.21 37.08 14 36 14L33.46 14C33.44 13.98 33.43 13.97 33.41 13.95C33.37 13.9 33.32 13.86 33.27 13.82C33.22 13.78 33.17 13.74 33.11 13.7C33.06 13.66 33 13.63 32.94 13.6C32.89 13.57 32.83 13.54 32.77 13.52C32.7 13.49 32.64 13.47 32.58 13.45C32.52 13.43 32.45 13.42 32.39 13.4C32.33 13.39 32.26 13.38 32.2 13.37C32.13 13.37 32.07 13.36 32 13.36C31.93 13.36 31.87 13.37 31.8 13.37C31.74 13.38 31.67 13.39 31.61 13.4C31.55 13.42 31.48 13.43 31.42 13.45C31.36 13.47 31.3 13.49 31.23 13.52C31.17 13.54 31.12 13.57 31.06 13.6C31 13.63 30.94 13.66 30.89 13.7C30.83 13.74 30.78 13.78 30.73 13.82C30.68 13.86 30.63 13.9 30.59 13.95C30.54 14 30.5 14.04 30.45 14.1C30.41 14.15 30.37 14.2 30.34 14.25C30.3 14.31 30.27 14.36 30.24 14.42L30.15 14.6L30.09 14.78C30.07 14.85 30.05 14.91 30.04 14.97C30.03 15.04 30.02 15.1 30.01 15.17C30 15.23 30 15.3 30 15.36L30 19.36C30 19.43 30 19.49 30.01 19.56ZM7.99 21.71C7.98 21.65 7.97 21.58 7.96 21.52C7.95 21.45 7.93 21.39 7.91 21.33C7.89 21.27 7.87 21.2 7.85 21.14C7.82 21.08 7.79 21.02 7.76 20.97C7.73 20.91 7.7 20.85 7.66 20.8C7.63 20.74 7.59 20.69 7.55 20.64C7.5 20.59 7.46 20.54 7.41 20.49C7.37 20.45 7.32 20.4 7.27 20.36C7.22 20.32 7.17 20.28 7.11 20.25C7.06 20.21 7 20.18 6.94 20.14C6.89 20.11 6.83 20.09 6.77 20.06C6.7 20.04 6.64 20.01 6.58 19.99C6.52 19.98 6.45 19.96 6.39 19.95C6.33 19.93 6.26 19.92 6.2 19.92C6.13 19.91 6.07 19.91 6 19.91C5.93 19.91 5.87 19.91 5.8 19.92C5.74 19.92 5.67 19.93 5.61 19.95C5.55 19.96 5.48 19.98 5.42 19.99C5.36 20.01 5.3 20.04 5.23 20.06C5.17 20.09 5.11 20.11 5.06 20.14C5 20.18 4.94 20.21 4.89 20.25C4.83 20.28 4.78 20.32 4.73 20.36C4.68 20.4 4.63 20.45 4.59 20.49C4.54 20.54 4.5 20.59 4.45 20.64C4.41 20.69 4.37 20.74 4.34 20.8C4.3 20.85 4.27 20.91 4.24 20.97C4.21 21.02 4.18 21.08 4.15 21.14C4.13 21.2 4.11 21.27 4.09 21.33C4.07 21.39 4.05 21.45 4.04 21.52C4.03 21.58 4.02 21.65 4.01 21.71C4 21.78 4 21.84 4 21.91L4 25.91C4 25.97 4 26.04 4.01 26.1C4.02 26.17 4.03 26.23 4.04 26.3C4.05 26.36 4.07 26.43 4.09 26.49L4.15 26.67L4.24 26.85C4.27 26.91 4.3 26.97 4.34 27.02C4.37 27.07 4.41 27.13 4.45 27.18C4.5 27.23 4.54 27.28 4.59 27.32C4.63 27.37 4.68 27.41 4.73 27.45C4.78 27.5 4.83 27.53 4.89 27.57C4.94 27.61 5 27.64 5.06 27.67C5.11 27.7 5.17 27.73 5.23 27.76C5.3 27.78 5.36 27.8 5.42 27.82C5.48 27.84 5.55 27.86 5.61 27.87C5.67 27.88 5.74 27.89 5.8 27.9C5.87 27.91 5.93 27.91 6 27.91C6.07 27.91 6.13 27.91 6.2 27.9C6.26 27.89 6.33 27.88 6.39 27.87C6.45 27.86 6.52 27.84 6.58 27.82C6.64 27.8 6.7 27.78 6.77 27.76C6.83 27.73 6.89 27.7 6.94 27.67C7 27.64 7.06 27.61 7.11 27.57C7.17 27.53 7.22 27.5 7.27 27.45C7.32 27.41 7.37 27.37 7.41 27.32C7.46 27.28 7.5 27.23 7.55 27.18C7.59 27.13 7.63 27.07 7.66 27.02C7.7 26.97 7.73 26.91 7.76 26.85L7.85 26.67L7.91 26.49C7.93 26.43 7.95 26.36 7.96 26.3C7.97 26.23 7.98 26.17 7.99 26.1C8 26.04 8 25.97 8 25.91L8 21.91C8 21.84 8 21.78 7.99 21.71ZM29.28 28.31C29.25 28.37 29.23 28.43 29.2 28.49C29.18 28.55 29.16 28.61 29.14 28.68C29.12 28.74 29.11 28.8 29.1 28.87C29.09 28.93 29.08 29 29.07 29.06L29.07 29.26C29.07 29.32 29.07 29.39 29.08 29.45C29.09 29.52 29.1 29.58 29.11 29.65C29.13 29.71 29.15 29.77 29.17 29.84C29.19 29.9 29.21 29.96 29.24 30.02C29.26 30.08 29.29 30.14 29.32 30.19C29.36 30.25 29.39 30.31 29.43 30.36C29.47 30.41 29.51 30.47 29.55 30.52C29.59 30.57 29.64 30.61 29.68 30.66C29.73 30.7 29.78 30.75 29.83 30.79C29.88 30.83 29.94 30.86 29.99 30.9C30.05 30.93 30.11 30.97 30.16 31C30.22 31.03 30.28 31.05 30.34 31.08C30.4 31.1 30.47 31.12 30.53 31.14C30.59 31.16 30.66 31.17 30.72 31.18C30.79 31.19 30.85 31.2 30.92 31.21L31.11 31.21C31.18 31.21 31.24 31.21 31.31 31.2C31.37 31.19 31.44 31.18 31.5 31.16C31.57 31.15 31.63 31.13 31.69 31.11C31.75 31.09 31.81 31.07 31.87 31.04C31.93 31.02 31.99 30.99 32.05 30.95C32.11 30.92 32.16 30.89 32.22 30.85L32.37 30.73C32.42 30.69 32.47 30.64 32.51 30.59C32.56 30.55 32.6 30.5 32.64 30.45C32.68 30.39 32.72 30.34 32.75 30.29C33.16 29.65 33.46 28.98 33.67 28.27C33.89 27.53 34 26.77 34 26L34 25.36C34 25.3 34 25.23 33.99 25.17C33.98 25.1 33.97 25.04 33.96 24.97C33.95 24.91 33.93 24.85 33.91 24.78L33.85 24.6L33.76 24.42C33.73 24.36 33.7 24.31 33.66 24.25C33.63 24.2 33.59 24.15 33.55 24.1C33.5 24.04 33.46 24 33.41 23.95C33.37 23.9 33.32 23.86 33.27 23.82C33.22 23.78 33.17 23.74 33.11 23.7C33.06 23.66 33 23.63 32.94 23.6C32.89 23.57 32.83 23.54 32.77 23.52C32.7 23.49 32.64 23.47 32.58 23.45C32.52 23.43 32.45 23.42 32.39 23.4C32.33 23.39 32.26 23.38 32.2 23.37C32.13 23.37 32.07 23.36 32 23.36C31.93 23.36 31.87 23.37 31.8 23.37C31.74 23.38 31.67 23.39 31.61 23.4C31.55 23.42 31.48 23.43 31.42 23.45C31.36 23.47 31.3 23.49 31.23 23.52C31.17 23.54 31.12 23.57 31.06 23.6C31 23.63 30.94 23.66 30.89 23.7C30.83 23.74 30.78 23.78 30.73 23.82C30.68 23.86 30.63 23.9 30.59 23.95C30.54 24 30.5 24.04 30.45 24.1C30.41 24.15 30.37 24.2 30.34 24.25C30.3 24.31 30.27 24.36 30.24 24.42L30.15 24.6L30.09 24.78C30.07 24.85 30.05 24.91 30.04 24.97C30.03 25.04 30.02 25.1 30.01 25.17C30 25.23 30 25.3 30 25.36L30 26C30 26.78 29.79 27.49 29.38 28.14C29.34 28.19 29.31 28.25 29.28 28.31ZM21.8 30.01C21.74 30.02 21.67 30.03 21.61 30.04C21.55 30.05 21.48 30.07 21.42 30.09C21.36 30.11 21.3 30.13 21.23 30.15C21.17 30.18 21.12 30.21 21.06 30.24C21 30.27 20.94 30.3 20.89 30.34C20.83 30.37 20.78 30.41 20.73 30.45C20.68 30.5 20.63 30.54 20.59 30.59C20.54 30.63 20.5 30.68 20.45 30.73C20.41 30.78 20.37 30.83 20.34 30.89C20.3 30.94 20.27 31 20.24 31.06C20.21 31.12 20.18 31.17 20.15 31.23C20.13 31.3 20.11 31.36 20.09 31.42C20.07 31.48 20.05 31.55 20.04 31.61C20.03 31.67 20.02 31.74 20.01 31.8C20 31.87 20 31.93 20 32C20 32.07 20 32.13 20.01 32.2C20.02 32.26 20.03 32.33 20.04 32.39C20.05 32.45 20.07 32.52 20.09 32.58C20.11 32.64 20.13 32.7 20.15 32.77C20.18 32.83 20.21 32.89 20.24 32.94C20.27 33 20.3 33.06 20.34 33.11C20.37 33.17 20.41 33.22 20.45 33.27C20.5 33.32 20.54 33.37 20.59 33.41C20.63 33.46 20.68 33.5 20.73 33.55C20.78 33.59 20.83 33.63 20.89 33.66C20.94 33.7 21 33.73 21.06 33.76C21.12 33.79 21.17 33.82 21.23 33.85C21.3 33.87 21.36 33.89 21.42 33.91C21.48 33.93 21.55 33.95 21.61 33.96C21.67 33.97 21.74 33.98 21.8 33.99C21.87 34 21.93 34 22 34L26 34C26.07 34 26.13 34 26.2 33.99C26.26 33.98 26.33 33.97 26.39 33.96C26.45 33.95 26.52 33.93 26.58 33.91C26.64 33.89 26.7 33.87 26.77 33.85C26.83 33.82 26.89 33.79 26.94 33.76C27 33.73 27.06 33.7 27.11 33.66C27.17 33.63 27.22 33.59 27.27 33.55C27.32 33.5 27.37 33.46 27.41 33.41C27.46 33.37 27.5 33.32 27.55 33.27C27.59 33.22 27.63 33.17 27.66 33.11C27.7 33.06 27.73 33 27.76 32.94C27.79 32.89 27.82 32.83 27.85 32.77C27.87 32.7 27.89 32.64 27.91 32.58C27.93 32.52 27.95 32.45 27.96 32.39C27.97 32.33 27.98 32.26 27.99 32.2C28 32.13 28 32.07 28 32C28 31.93 28 31.87 27.99 31.8C27.98 31.74 27.97 31.67 27.96 31.61C27.95 31.55 27.93 31.48 27.91 31.42C27.89 31.36 27.87 31.3 27.85 31.23C27.82 31.17 27.79 31.12 27.76 31.06C27.73 31 27.7 30.94 27.66 30.89C27.63 30.83 27.59 30.78 27.55 30.73C27.5 30.68 27.46 30.63 27.41 30.59C27.37 30.54 27.32 30.5 27.27 30.45C27.22 30.41 27.17 30.37 27.11 30.34C27.06 30.3 27 30.27 26.94 30.24C26.89 30.21 26.83 30.18 26.77 30.15C26.7 30.13 26.64 30.11 26.58 30.09C26.52 30.07 26.45 30.05 26.39 30.04C26.33 30.03 26.26 30.02 26.2 30.01C26.13 30 26.07 30 26 30L22 30C21.93 30 21.87 30 21.8 30.01Z">
</path>
</svg>
