<svg xmlns="http://www.w3.org/2000/svg" xmlns:xlink="http://www.w3.org/1999/xlink" width="48" height="48" viewBox="0 0 48 48" fill="none">
<path d="M29.5014 15.998C29.0914 15.998 28.7314 16.148 28.4414 16.438C28.1514 16.728 28.0014 17.088 28.0014 17.498C28.0014 17.908 28.1514 18.268 28.4414 18.558C28.7314 18.848 29.0914 18.998 29.5014 18.998C29.9114 18.998 30.2714 18.848 30.5614 18.558C30.8514 18.268 31.0014 17.908 31.0014 17.498C31.0014 17.088 30.8514 16.728 30.5614 16.438C30.2714 16.148 29.9114 15.998 29.5014 15.998ZM9.07145 28.558L18.8314 38.318C19.0214 38.508 19.2414 38.658 19.4814 38.768C19.7214 38.858 19.9814 38.908 20.2314 38.908C20.5014 38.908 20.7514 38.858 20.9914 38.758C21.2414 38.658 21.4614 38.508 21.6514 38.318L38.4814 21.498C38.6614 21.308 38.8114 21.098 38.9114 20.848C39.0114 20.608 39.0614 20.348 39.0614 20.088L39.0514 8.78805L26.6214 8.74805C26.3514 8.74805 26.0914 8.79805 25.8414 8.89805C25.5914 9.00805 25.3714 9.15805 25.1914 9.33805L9.05145 25.748C8.86145 25.938 8.72145 26.168 8.62144 26.408C8.52145 26.648 8.48145 26.898 8.48145 27.158C8.48145 27.418 8.53145 27.668 8.62144 27.898C8.73145 28.148 8.88144 28.368 9.07145 28.558ZM25.6114 13.608C25.1114 14.118 24.7114 14.698 24.4314 15.358C24.1414 16.038 24.0014 16.758 24.0014 17.498C24.0014 18.238 24.1414 18.958 24.4314 19.638C24.7114 20.298 25.1114 20.878 25.6114 21.388C26.1214 21.888 26.7014 22.288 27.3614 22.568C28.0414 22.858 28.7614 22.998 29.5014 22.998C30.2414 22.998 30.9614 22.858 31.6414 22.568C32.3014 22.288 32.8814 21.888 33.3914 21.388C33.8914 20.878 34.2914 20.298 34.5714 19.638C34.8614 18.958 35.0014 18.238 35.0014 17.498C35.0014 16.758 34.8614 16.038 34.5714 15.358C34.2914 14.698 33.8914 14.118 33.3914 13.608C32.8814 13.108 32.3014 12.708 31.6414 12.428C30.9614 12.138 30.2414 11.998 29.5014 11.998C28.7614 11.998 28.0414 12.138 27.3614 12.428C26.7014 12.708 26.1214 13.108 25.6114 13.608ZM42.6014 22.378C42.9114 21.648 43.0714 20.878 43.0614 20.078L43.0414 7.78805C43.0514 7.38805 42.9714 6.99805 42.8114 6.62805C42.6614 6.26805 42.4514 5.95805 42.1714 5.67805C41.8914 5.39805 41.5814 5.18805 41.2214 5.03805C40.8514 4.87805 40.4614 4.79805 40.0614 4.79805L40.0514 4.79805L26.6314 4.74805C25.8214 4.74805 25.0514 4.89805 24.3114 5.20805C23.5614 5.51805 22.9014 5.95805 22.3314 6.53805L6.20145 22.938C5.64145 23.518 5.21145 24.178 4.91145 24.928C4.62145 25.638 4.48145 26.388 4.48145 27.168C4.49145 27.948 4.63145 28.698 4.92145 29.418C5.23145 30.168 5.67145 30.818 6.24145 31.388L16.0014 41.148C16.5714 41.718 17.2314 42.168 17.9814 42.468C18.7014 42.758 19.4614 42.908 20.2314 42.908C21.0314 42.908 21.7714 42.758 22.5014 42.468C23.2514 42.158 23.9014 41.728 24.4814 41.148L41.3014 24.328C41.8614 23.768 42.3014 23.118 42.6014 22.378Z" fill-rule="evenodd"  fill="#000000" >
</path>
</svg>
