<svg xmlns="http://www.w3.org/2000/svg" xmlns:xlink="http://www.w3.org/1999/xlink" width="48" height="48" viewBox="0 0 48 48" fill="none">
<path d="M16 40L36 40L36 42C36 43.1 36.9 44 38 44C39.1 44 40 43.1 40 42L40 40L42 40C43.1 40 44 39.1 44 38C44 36.9 43.1 36 42 36L16 36C15.64 36 15.3 35.95 14.97 35.86L35.86 14.97C35.95 15.3 36 15.64 36 16L36 32L40 32L40 16C40 11.58 36.42 8 32 8L16 8L16 12L32 12C32.36 12 32.7 12.05 33.04 12.14L12.14 33.04C12.05 32.7 12 32.36 12 32L12 6C12 4.9 11.1 4 10 4C8.9 4 8 4.9 8 6L8 8L6 8C4.9 8 4 8.9 4 10C4 11.1 4.9 12 6 12L8 12L8 32C8 36.42 11.58 40 16 40Z" fill-rule="evenodd"  fill="#000000" >
</path>
</svg>
