<svg xmlns="http://www.w3.org/2000/svg" xmlns:xlink="http://www.w3.org/1999/xlink" width="48" height="48" viewBox="0 0 48 48" fill="none">
<path d="M39.83 9.17C39.46 8.8 39.03 8.52 38.55 8.31C38.06 8.1 37.54 8 37 8L32 8C31.73 8 31.47 8.05 31.22 8.16C30.98 8.26 30.77 8.4 30.59 8.59C30.4 8.77 30.26 8.98 30.16 9.22C30.05 9.47 30 9.73 30 10L30 18C30 18.27 30.05 18.53 30.16 18.78C30.26 19.02 30.4 19.23 30.59 19.41C30.77 19.6 30.98 19.74 31.22 19.84C31.47 19.95 31.73 20 32 20L39 20C39.27 20 39.53 19.95 39.78 19.84C40.02 19.74 40.23 19.6 40.41 19.41C40.6 19.23 40.74 19.02 40.84 18.78C40.95 18.53 41 18.27 41 18L41 12C41 11.46 40.9 10.94 40.69 10.45C40.48 9.97 40.2 9.54 39.83 9.17ZM26 10L26 18C26 18.81 26.16 19.59 26.47 20.34C26.78 21.05 27.2 21.69 27.76 22.24C28.31 22.8 28.95 23.22 29.66 23.53C30.41 23.84 31.19 24 32 24L39 24C39.81 24 40.59 23.84 41.34 23.53C42.05 23.22 42.69 22.8 43.24 22.24C43.8 21.69 44.22 21.05 44.53 20.34C44.84 19.59 45 18.81 45 18L45 12C45 10.92 44.79 9.88 44.37 8.89C43.96 7.93 43.39 7.08 42.66 6.34C41.92 5.61 41.07 5.04 40.11 4.63C39.12 4.21 38.08 4 37 4L32 4C31.19 4 30.41 4.16 29.66 4.47C28.95 4.78 28.31 5.2 27.76 5.76C27.2 6.31 26.78 6.95 26.47 7.66C26.16 8.41 26 9.19 26 10ZM29.66 26.47C28.95 26.78 28.31 27.2 27.76 27.76C27.2 28.31 26.78 28.95 26.47 29.66C26.16 30.41 26 31.19 26 32L26 38C26 38.81 26.16 39.59 26.47 40.34C26.78 41.05 27.2 41.69 27.76 42.24C28.31 42.8 28.95 43.22 29.66 43.53C30.41 43.84 31.19 44 32 44L37 44C38.08 44 39.12 43.79 40.11 43.37C41.07 42.96 41.92 42.39 42.66 41.66C43.39 40.92 43.96 40.07 44.37 39.11C44.79 38.12 45 37.08 45 36L45 32C45 31.19 44.84 30.41 44.53 29.66C44.22 28.95 43.8 28.31 43.24 27.76C42.69 27.2 42.05 26.78 41.34 26.47C40.59 26.16 39.81 26 39 26L32 26C31.19 26 30.41 26.16 29.66 26.47ZM7 12L7 36C7 36.54 7.1 37.06 7.31 37.55C7.52 38.03 7.8 38.46 8.17 38.83C8.54 39.2 8.97 39.48 9.45 39.69C9.94 39.9 10.46 40 11 40L17 40C17.27 40 17.53 39.95 17.78 39.84C18.02 39.74 18.23 39.6 18.41 39.41C18.6 39.23 18.74 39.02 18.84 38.78C18.95 38.53 19 38.27 19 38L19 10C19 9.73 18.95 9.47 18.84 9.22C18.74 8.98 18.6 8.77 18.41 8.59C18.23 8.4 18.02 8.26 17.78 8.16C17.53 8.05 17.27 8 17 8L11 8C10.46 8 9.94 8.1 9.45 8.31C8.97 8.52 8.54 8.8 8.17 9.17C7.8 9.54 7.52 9.97 7.31 10.45C7.1 10.94 7 11.46 7 12ZM3.63 39.11C4.04 40.07 4.61 40.92 5.34 41.66C6.08 42.39 6.93 42.96 7.89 43.37C8.88 43.79 9.92 44 11 44L17 44C17.81 44 18.59 43.84 19.34 43.53C20.05 43.22 20.69 42.8 21.24 42.24C21.8 41.69 22.22 41.05 22.53 40.34C22.84 39.59 23 38.81 23 38L23 10C23 9.19 22.84 8.41 22.53 7.66C22.22 6.95 21.8 6.31 21.24 5.76C20.69 5.2 20.05 4.78 19.34 4.47C18.59 4.16 17.81 4 17 4L11 4C9.92 4 8.88 4.21 7.89 4.63C6.93 5.04 6.08 5.61 5.34 6.34C4.61 7.08 4.04 7.93 3.63 8.89C3.21 9.88 3 10.92 3 12L3 36C3 37.08 3.21 38.12 3.63 39.11ZM32 30C31.73 30 31.47 30.05 31.22 30.16C30.98 30.26 30.77 30.4 30.59 30.59C30.4 30.77 30.26 30.98 30.16 31.22C30.05 31.47 30 31.73 30 32L30 38C30 38.27 30.05 38.53 30.16 38.78C30.26 39.02 30.4 39.23 30.59 39.41C30.77 39.6 30.98 39.74 31.22 39.84C31.47 39.95 31.73 40 32 40L37 40C37.54 40 38.06 39.9 38.55 39.69C39.03 39.48 39.46 39.2 39.83 38.83C40.2 38.46 40.48 38.03 40.69 37.55C40.9 37.06 41 36.54 41 36L41 32C41 31.73 40.95 31.47 40.84 31.22C40.74 30.98 40.6 30.77 40.41 30.59C40.23 30.4 40.02 30.26 39.78 30.16C39.53 30.05 39.27 30 39 30L32 30Z" fill-rule="evenodd"  fill="#000000" >
</path>
</svg>
