<svg xmlns="http://www.w3.org/2000/svg" xmlns:xlink="http://www.w3.org/1999/xlink" width="48" height="48" viewBox="0 0 48 48" fill="none">
<path d="M4.01 14.7C4.02 14.76 4.03 14.83 4.04 14.89C4.05 14.95 4.07 15.02 4.09 15.08C4.11 15.14 4.13 15.2 4.15 15.27C4.18 15.33 4.21 15.39 4.24 15.44C4.27 15.5 4.3 15.56 4.34 15.61C4.37 15.67 4.41 15.72 4.45 15.77C4.5 15.82 4.54 15.87 4.59 15.91C4.63 15.96 4.68 16 4.73 16.05C4.78 16.09 4.83 16.13 4.89 16.16C4.94 16.2 5 16.23 5.06 16.26C5.11 16.29 5.17 16.32 5.23 16.35C5.3 16.37 5.36 16.39 5.42 16.41C5.48 16.43 5.55 16.45 5.61 16.46C5.67 16.47 5.74 16.48 5.8 16.49C5.87 16.5 5.93 16.5 6 16.5C6.07 16.5 6.13 16.5 6.2 16.49C6.26 16.48 6.33 16.47 6.39 16.46C6.45 16.45 6.52 16.43 6.58 16.41C6.64 16.39 6.7 16.37 6.77 16.35C6.83 16.32 6.89 16.29 6.94 16.26C7 16.23 7.06 16.2 7.11 16.16C7.17 16.13 7.22 16.09 7.27 16.05C7.32 16 7.37 15.96 7.41 15.91C7.46 15.87 7.5 15.82 7.55 15.77C7.59 15.72 7.63 15.67 7.66 15.61C7.7 15.56 7.73 15.5 7.76 15.44C7.79 15.39 7.82 15.33 7.85 15.27C7.87 15.2 7.89 15.14 7.91 15.08C7.93 15.02 7.95 14.95 7.96 14.89C7.97 14.83 7.98 14.76 7.99 14.7C8 14.63 8 14.57 8 14.5L8 8L22 8L22 40L15.47 40C15.4 40 15.34 40 15.27 40.01C15.21 40.02 15.14 40.03 15.08 40.04C15.02 40.05 14.95 40.07 14.89 40.09C14.83 40.11 14.77 40.13 14.7 40.15C14.64 40.18 14.58 40.21 14.53 40.24C14.47 40.27 14.41 40.3 14.36 40.34C14.3 40.37 14.25 40.41 14.2 40.45C14.15 40.5 14.1 40.54 14.06 40.59C14.01 40.63 13.97 40.68 13.92 40.73C13.88 40.78 13.84 40.83 13.81 40.89C13.77 40.94 13.74 41 13.71 41.06C13.68 41.11 13.65 41.17 13.62 41.23C13.6 41.3 13.58 41.36 13.56 41.42C13.54 41.48 13.52 41.55 13.51 41.61C13.5 41.67 13.49 41.74 13.48 41.8C13.47 41.87 13.47 41.93 13.47 42C13.47 42.07 13.47 42.13 13.48 42.2C13.49 42.26 13.5 42.33 13.51 42.39C13.52 42.45 13.54 42.52 13.56 42.58C13.58 42.64 13.6 42.7 13.62 42.77C13.65 42.83 13.68 42.89 13.71 42.94C13.74 43 13.77 43.06 13.81 43.11C13.84 43.17 13.88 43.22 13.92 43.27C13.97 43.32 14.01 43.37 14.06 43.41C14.1 43.46 14.15 43.5 14.2 43.55C14.25 43.59 14.3 43.63 14.36 43.66C14.41 43.7 14.47 43.73 14.53 43.76C14.58 43.79 14.64 43.82 14.7 43.85C14.77 43.87 14.83 43.89 14.89 43.91C14.95 43.93 15.02 43.95 15.08 43.96C15.14 43.97 15.21 43.98 15.27 43.99C15.34 44 15.4 44 15.47 44L31.58 44C31.64 44 31.71 44 31.77 43.99C31.84 43.98 31.9 43.97 31.97 43.96C32.03 43.95 32.09 43.93 32.16 43.91L32.34 43.85L32.52 43.76C32.58 43.73 32.63 43.7 32.69 43.66C32.74 43.63 32.79 43.59 32.84 43.55C32.89 43.5 32.94 43.46 32.99 43.41C33.04 43.37 33.08 43.32 33.12 43.27C33.16 43.22 33.2 43.17 33.24 43.11C33.27 43.06 33.31 43 33.34 42.94C33.37 42.89 33.4 42.83 33.42 42.77C33.45 42.7 33.47 42.64 33.49 42.58C33.51 42.52 33.52 42.45 33.54 42.39C33.55 42.33 33.56 42.26 33.57 42.2C33.57 42.13 33.58 42.07 33.58 42C33.58 41.93 33.57 41.87 33.57 41.8C33.56 41.74 33.55 41.67 33.54 41.61C33.52 41.55 33.51 41.48 33.49 41.42C33.47 41.36 33.45 41.3 33.42 41.23C33.4 41.17 33.37 41.11 33.34 41.06C33.31 41 33.27 40.94 33.24 40.89C33.2 40.83 33.16 40.78 33.12 40.73C33.08 40.68 33.04 40.63 32.99 40.59C32.94 40.54 32.89 40.5 32.84 40.45C32.79 40.41 32.74 40.37 32.69 40.34C32.63 40.3 32.58 40.27 32.52 40.24L32.34 40.15L32.16 40.09C32.09 40.07 32.03 40.05 31.97 40.04C31.9 40.03 31.84 40.02 31.77 40.01C31.71 40 31.64 40 31.58 40L26 40L26 8L40 8L40 14.5C40 14.57 40 14.63 40.01 14.7C40.02 14.76 40.03 14.83 40.04 14.89C40.05 14.95 40.07 15.02 40.09 15.08C40.11 15.14 40.13 15.2 40.15 15.27C40.18 15.33 40.21 15.39 40.24 15.44C40.27 15.5 40.3 15.56 40.34 15.61C40.37 15.67 40.41 15.72 40.45 15.77C40.5 15.82 40.54 15.87 40.59 15.91C40.63 15.96 40.68 16 40.73 16.05C40.78 16.09 40.83 16.13 40.89 16.16C40.94 16.2 41 16.23 41.06 16.26C41.12 16.29 41.17 16.32 41.23 16.35C41.3 16.37 41.36 16.39 41.42 16.41C41.48 16.43 41.55 16.45 41.61 16.46C41.67 16.47 41.74 16.48 41.8 16.49C41.87 16.5 41.93 16.5 42 16.5C42.07 16.5 42.13 16.5 42.2 16.49C42.26 16.48 42.33 16.47 42.39 16.46C42.45 16.45 42.52 16.43 42.58 16.41C42.64 16.39 42.7 16.37 42.77 16.35C42.83 16.32 42.88 16.29 42.94 16.26C43 16.23 43.06 16.2 43.11 16.16C43.17 16.13 43.22 16.09 43.27 16.05C43.32 16 43.37 15.96 43.41 15.91C43.46 15.87 43.5 15.82 43.55 15.77C43.59 15.72 43.63 15.67 43.66 15.61C43.7 15.56 43.73 15.5 43.76 15.44C43.79 15.38 43.82 15.33 43.85 15.27C43.87 15.2 43.89 15.14 43.91 15.08C43.93 15.02 43.95 14.95 43.96 14.89C43.97 14.83 43.98 14.76 43.99 14.7C44 14.63 44 14.57 44 14.5L44 7C44 6.59 43.92 6.2 43.76 5.83C43.61 5.47 43.4 5.16 43.12 4.88C42.84 4.6 42.53 4.39 42.17 4.24C41.8 4.08 41.41 4 41 4L7 4C6.59 4 6.2 4.08 5.83 4.24C5.47 4.39 5.16 4.6 4.88 4.88C4.6 5.16 4.39 5.47 4.24 5.83C4.08 6.2 4 6.59 4 7L4 14.5C4 14.57 4 14.63 4.01 14.7Z" fill-rule="evenodd"  fill="#000000" >
</path>
</svg>
