<svg xmlns="http://www.w3.org/2000/svg" xmlns:xlink="http://www.w3.org/1999/xlink" width="48" height="48" viewBox="0 0 48 48" fill="none">
<path d="M7 10C7 11.66 8.34 13 10 13C11.66 13 13 11.66 13 10C13 8.34 11.66 7 10 7C8.34 7 7 8.34 7 10ZM21 10C21 11.66 22.34 13 24 13C25.66 13 27 11.66 27 10C27 8.34 25.66 7 24 7C22.34 7 21 8.34 21 10ZM35 10C35 11.66 36.34 13 38 13C39.66 13 41 11.66 41 10C41 8.34 39.66 7 38 7C36.34 7 35 8.34 35 10ZM7 24C7 25.66 8.34 27 10 27C11.66 27 13 25.66 13 24C13 22.34 11.66 21 10 21C8.34 21 7 22.34 7 24ZM21 24C21 25.66 22.34 27 24 27C25.66 27 27 25.66 27 24C27 22.34 25.66 21 24 21C22.34 21 21 22.34 21 24ZM35 24C35 25.66 36.34 27 38 27C39.66 27 41 25.66 41 24C41 22.34 39.66 21 38 21C36.34 21 35 22.34 35 24ZM7 38C7 39.66 8.34 41 10 41C11.66 41 13 39.66 13 38C13 36.34 11.66 35 10 35C8.34 35 7 36.34 7 38ZM21 38C21 39.66 22.34 41 24 41C25.66 41 27 39.66 27 38C27 36.34 25.66 35 24 35C22.34 35 21 36.34 21 38ZM38 41C39.66 41 41 39.66 41 38C41 36.34 39.66 35 38 35C36.34 35 35 36.34 35 38C35 39.66 36.34 41 38 41Z" fill-rule="evenodd"  fill="#000000" >
</path>
</svg>
