<svg xmlns="http://www.w3.org/2000/svg" xmlns:xlink="http://www.w3.org/1999/xlink" width="48" height="48" viewBox="0 0 48 48" fill="none">
<path d="M39.94 41.24C39.88 41.21 39.83 41.18 39.77 41.15C39.7 41.13 39.64 41.11 39.58 41.09C39.52 41.07 39.45 41.05 39.39 41.04C39.33 41.03 39.26 41.02 39.2 41.01C39.13 41 39.07 41 39 41L9 41C8.93 41 8.87 41.01 8.8 41.01C8.74 41.02 8.67 41.03 8.61 41.04C8.55 41.05 8.48 41.07 8.42 41.09C8.36 41.11 8.29 41.13 8.23 41.16C8.17 41.18 8.11 41.21 8.06 41.24C8 41.27 7.94 41.3 7.89 41.34C7.83 41.38 7.78 41.42 7.73 41.46C7.68 41.5 7.63 41.54 7.59 41.59L7.45 41.73C7.41 41.79 7.37 41.84 7.34 41.89C7.3 41.95 7.27 42 7.24 42.06L7.15 42.24L7.09 42.42C7.07 42.49 7.05 42.55 7.04 42.61C7.03 42.68 7.02 42.74 7.01 42.81C7 42.87 7 42.94 7 43C7 43.13 7.01 43.26 7.04 43.39C7.06 43.52 7.1 43.65 7.15 43.77C7.2 43.89 7.26 44.01 7.34 44.11C7.41 44.22 7.49 44.32 7.59 44.42C7.68 44.51 7.78 44.59 7.89 44.67C8 44.74 8.11 44.8 8.23 44.85C8.36 44.9 8.48 44.94 8.61 44.96C8.74 44.99 8.87 45 9 45L39 45C39.07 45 39.13 45 39.2 44.99C39.26 44.98 39.33 44.97 39.39 44.96C39.45 44.95 39.52 44.93 39.58 44.91C39.64 44.89 39.71 44.87 39.77 44.85C39.83 44.82 39.89 44.79 39.94 44.76C40 44.73 40.06 44.7 40.11 44.66C40.17 44.63 40.22 44.59 40.27 44.55C40.32 44.5 40.37 44.46 40.41 44.41C40.46 44.37 40.5 44.32 40.55 44.27C40.59 44.22 40.63 44.17 40.66 44.11C40.7 44.06 40.73 44 40.76 43.94C40.79 43.88 40.82 43.83 40.85 43.77C40.87 43.7 40.89 43.64 40.91 43.58C40.93 43.52 40.95 43.45 40.96 43.39C40.97 43.33 40.98 43.26 40.99 43.2C41 43.13 41 43.07 41 43C41 42.93 41 42.87 40.99 42.8C40.98 42.74 40.97 42.67 40.96 42.61C40.95 42.55 40.93 42.48 40.91 42.42C40.89 42.36 40.87 42.3 40.85 42.23C40.82 42.17 40.79 42.11 40.76 42.06C40.73 42 40.7 41.94 40.66 41.89C40.63 41.83 40.59 41.78 40.55 41.73C40.5 41.68 40.46 41.63 40.41 41.59C40.37 41.54 40.32 41.5 40.27 41.45C40.22 41.41 40.17 41.37 40.11 41.34C40.06 41.3 40 41.27 39.94 41.24ZM9.06 4.24C9 4.27 8.94 4.3 8.89 4.34C8.83 4.37 8.78 4.41 8.73 4.45C8.68 4.5 8.63 4.54 8.59 4.59C8.54 4.63 8.5 4.68 8.45 4.73C8.41 4.78 8.37 4.83 8.34 4.89C8.3 4.94 8.27 5 8.24 5.06C8.21 5.11 8.18 5.17 8.15 5.23C8.13 5.3 8.11 5.36 8.09 5.42C8.07 5.48 8.05 5.55 8.04 5.61C8.03 5.67 8.02 5.74 8.01 5.8C8 5.87 8 5.93 8 6L8 23C8 25.12 8.41 27.16 9.22 29.12C10.03 31.08 11.18 32.81 12.69 34.31C14.19 35.82 15.92 36.97 17.88 37.78C19.84 38.59 21.88 39 24 39C26.12 39 28.16 38.59 30.12 37.78C32.08 36.97 33.81 35.82 35.31 34.31C36.82 32.81 37.97 31.08 38.78 29.12C39.59 27.16 40 25.12 40 23L40 6C40 5.93 40 5.87 39.99 5.8C39.98 5.74 39.97 5.67 39.96 5.61C39.95 5.55 39.93 5.48 39.91 5.42C39.89 5.36 39.87 5.3 39.85 5.23C39.82 5.17 39.79 5.11 39.76 5.06C39.73 5 39.7 4.94 39.66 4.89C39.63 4.83 39.59 4.78 39.55 4.73C39.5 4.68 39.46 4.63 39.41 4.59C39.37 4.54 39.32 4.5 39.27 4.45C39.22 4.41 39.17 4.37 39.11 4.34C39.06 4.3 39 4.27 38.94 4.24C38.89 4.21 38.83 4.18 38.77 4.15C38.7 4.13 38.64 4.11 38.58 4.09C38.52 4.07 38.45 4.05 38.39 4.04C38.33 4.03 38.26 4.02 38.2 4.01C38.13 4 38.07 4 38 4C37.93 4 37.87 4 37.8 4.01C37.74 4.02 37.67 4.03 37.61 4.04C37.55 4.05 37.48 4.07 37.42 4.09C37.36 4.11 37.3 4.13 37.23 4.15C37.17 4.18 37.12 4.21 37.06 4.24C37 4.27 36.94 4.3 36.89 4.34C36.83 4.37 36.78 4.41 36.73 4.45C36.68 4.5 36.63 4.54 36.59 4.59C36.54 4.63 36.5 4.68 36.45 4.73C36.41 4.78 36.37 4.83 36.34 4.89C36.3 4.94 36.27 5 36.24 5.06C36.21 5.11 36.18 5.17 36.15 5.23C36.13 5.3 36.11 5.36 36.09 5.42C36.07 5.48 36.05 5.55 36.04 5.61C36.03 5.67 36.02 5.74 36.01 5.8C36 5.87 36 5.93 36 6L36 23C36 24.59 35.7 26.12 35.09 27.59C34.48 29.06 33.61 30.36 32.49 31.49C31.36 32.61 30.06 33.48 28.59 34.09C27.12 34.7 25.59 35 24 35C22.41 35 20.88 34.7 19.41 34.09C17.94 33.48 16.64 32.61 15.51 31.49C14.39 30.36 13.52 29.06 12.91 27.59C12.3 26.12 12 24.59 12 23L12 6C12 5.93 12 5.87 11.99 5.8C11.98 5.74 11.97 5.67 11.96 5.61C11.95 5.55 11.93 5.48 11.91 5.42C11.89 5.36 11.87 5.3 11.85 5.23C11.82 5.17 11.79 5.11 11.76 5.06C11.73 5 11.7 4.94 11.66 4.89C11.63 4.83 11.59 4.78 11.55 4.73C11.5 4.68 11.46 4.63 11.41 4.59C11.37 4.54 11.32 4.5 11.27 4.45C11.22 4.41 11.17 4.37 11.11 4.34C11.06 4.3 11 4.27 10.94 4.24C10.89 4.21 10.83 4.18 10.77 4.15C10.7 4.13 10.64 4.11 10.58 4.09C10.52 4.07 10.45 4.05 10.39 4.04C10.33 4.03 10.26 4.02 10.2 4.01C10.13 4 10.07 4 10 4C9.93 4 9.87 4 9.8 4.01C9.74 4.02 9.67 4.03 9.61 4.04C9.55 4.05 9.48 4.07 9.42 4.09C9.36 4.11 9.3 4.13 9.23 4.15C9.17 4.18 9.11 4.21 9.06 4.24Z" fill-rule="evenodd"  fill="#000000" >
</path>
</svg>
