<svg xmlns="http://www.w3.org/2000/svg" xmlns:xlink="http://www.w3.org/1999/xlink" width="48" height="48" viewBox="0 0 48 48" fill="none">
<path d="M20.97 7.59927C20 7.99927 19.14 8.56927 18.39 9.31927C17.65 10.0593 17.08 10.9193 16.68 11.8893C16.28 12.8593 16.08 13.8693 16.08 14.9193L16.08 25.0193C16.08 26.0693 16.28 27.0793 16.68 28.0493C17.08 29.0193 17.65 29.8793 18.4 30.6293C19.14 31.3693 20 31.9393 20.97 32.3393C21.94 32.7393 22.95 32.9393 24 32.9393C25.08 32.9393 26.1 32.7293 27.08 32.3193C28.03 31.9193 28.86 31.3493 29.59 30.6193C30.32 29.8893 30.89 29.0493 31.29 28.0993C31.7 27.1193 31.91 26.0993 31.91 25.0193L31.91 14.9193C31.91 13.8393 31.7 12.8193 31.29 11.8393C30.89 10.8893 30.32 10.0493 29.59 9.31927C28.86 8.58927 28.03 8.01927 27.08 7.61927C26.1 7.20927 25.08 6.99927 24 6.99927C22.95 6.99927 21.94 7.19927 20.97 7.59927ZM5.98 32.9593C6.97 35.3493 8.39 37.4593 10.22 39.2893C12.04 41.1193 14.15 42.5293 16.54 43.5193C18.93 44.5093 21.41 44.9993 24 44.9993C26.59 44.9993 29.07 44.5093 31.46 43.5193C33.85 42.5293 35.96 41.1093 37.79 39.2793C39.62 37.4593 41.03 35.3493 42.02 32.9593C43.01 30.5693 43.5 28.0893 43.5 25.4993L43.5 25.1493C43.5 25.0793 43.5 25.0193 43.49 24.9493C43.48 24.8893 43.47 24.8193 43.46 24.7593C43.45 24.6993 43.43 24.6293 43.41 24.5693C43.39 24.5093 43.37 24.4493 43.35 24.3793C43.32 24.3193 43.29 24.2593 43.26 24.2093C43.23 24.1493 43.2 24.0893 43.16 24.0393C43.13 23.9793 43.09 23.9293 43.05 23.8793C43 23.8293 42.96 23.7793 42.91 23.7393C42.87 23.6893 42.82 23.6493 42.77 23.5993C42.72 23.5593 42.67 23.5193 42.61 23.4893C42.56 23.4493 42.5 23.4193 42.44 23.3893C42.39 23.3593 42.33 23.3293 42.27 23.2993C42.2 23.2793 42.14 23.2593 42.08 23.2393C42.02 23.2193 41.95 23.1993 41.89 23.1893C41.83 23.1793 41.76 23.1693 41.7 23.1593C41.63 23.1493 41.57 23.1493 41.5 23.1493C41.43 23.1493 41.37 23.1493 41.3 23.1593C41.24 23.1693 41.17 23.1793 41.11 23.1893C41.05 23.1993 40.98 23.2193 40.92 23.2393C40.86 23.2593 40.8 23.2793 40.73 23.2993C40.67 23.3293 40.62 23.3593 40.56 23.3893C40.5 23.4193 40.44 23.4493 40.39 23.4893C40.33 23.5193 40.28 23.5593 40.23 23.5993C40.18 23.6493 40.13 23.6893 40.09 23.7393C40.04 23.7793 40 23.8293 39.95 23.8793C39.91 23.9293 39.87 23.9793 39.84 24.0393C39.8 24.0893 39.77 24.1493 39.74 24.2093C39.71 24.2593 39.68 24.3193 39.65 24.3793C39.63 24.4493 39.61 24.5093 39.59 24.5693C39.57 24.6293 39.55 24.6993 39.54 24.7593C39.53 24.8193 39.52 24.8893 39.51 24.9493C39.5 25.0193 39.5 25.0793 39.5 25.1493L39.5 25.4993C39.5 27.5593 39.11 29.5293 38.32 31.4293C37.53 33.3293 36.41 34.9993 34.95 36.4593C33.5 37.9093 31.83 39.0293 29.93 39.8193C28.03 40.6093 26.06 40.9993 24 40.9993C21.94 40.9993 19.97 40.6093 18.07 39.8193C16.17 39.0293 14.5 37.9093 13.04 36.4493C11.59 34.9993 10.47 33.3293 9.68 31.4293C8.89 29.5293 8.5 27.5593 8.5 25.4993L8.5 25.1493C8.5 25.0793 8.5 25.0193 8.49 24.9493C8.48 24.8893 8.47 24.8193 8.46 24.7593C8.45 24.6993 8.43 24.6293 8.41 24.5693C8.39 24.5093 8.37 24.4493 8.35 24.3793C8.32 24.3193 8.29 24.2593 8.26 24.2093C8.23 24.1493 8.2 24.0893 8.16 24.0393C8.13 23.9793 8.09 23.9293 8.05 23.8793C8 23.8293 7.96 23.7793 7.91 23.7393C7.87 23.6893 7.82 23.6493 7.77 23.5993C7.72 23.5593 7.67 23.5193 7.61 23.4893C7.56 23.4493 7.5 23.4193 7.44 23.3893C7.39 23.3593 7.33 23.3293 7.27 23.2993C7.2 23.2793 7.14 23.2593 7.08 23.2393C7.02 23.2193 6.95 23.1993 6.89 23.1893C6.83 23.1793 6.76 23.1693 6.7 23.1593C6.63 23.1493 6.57 23.1493 6.5 23.1493C6.43 23.1493 6.37 23.1493 6.3 23.1593C6.24 23.1693 6.17 23.1793 6.11 23.1893C6.05 23.1993 5.98 23.2193 5.92 23.2393C5.86 23.2593 5.8 23.2793 5.73 23.2993C5.67 23.3293 5.61 23.3593 5.56 23.3893C5.5 23.4193 5.44 23.4493 5.39 23.4893C5.33 23.5193 5.28 23.5593 5.23 23.5993C5.18 23.6493 5.13 23.6893 5.09 23.7393C5.04 23.7793 5 23.8293 4.95 23.8793C4.91 23.9293 4.87 23.9793 4.84 24.0393C4.8 24.0893 4.77 24.1493 4.74 24.2093C4.71 24.2593 4.68 24.3193 4.65 24.3793C4.63 24.4493 4.61 24.5093 4.59 24.5693C4.57 24.6293 4.55 24.6993 4.54 24.7593C4.53 24.8193 4.52 24.8893 4.51 24.9493C4.5 25.0193 4.5 25.0793 4.5 25.1493L4.5 25.4993C4.5 28.0893 4.99 30.5693 5.98 32.9593ZM35.91 14.9193C35.91 13.2993 35.6 11.7593 34.97 10.2793C34.37 8.84927 33.52 7.58927 32.43 6.48927C31.33 5.38927 30.07 4.53927 28.64 3.93927C27.16 3.30927 25.62 2.99927 24 2.99927C22.42 2.99927 20.9 3.29927 19.44 3.89927C17.98 4.50927 16.69 5.36927 15.57 6.47927C14.45 7.60927 13.59 8.89927 12.98 10.3593C12.38 11.8193 12.08 13.3393 12.08 14.9193L12.08 25.0193C12.08 26.5993 12.38 28.1193 12.98 29.5793C13.59 31.0393 14.45 32.3293 15.56 33.4493C16.69 34.5693 17.98 35.4293 19.44 36.0393C20.9 36.6393 22.42 36.9393 24 36.9393C25.62 36.9393 27.16 36.6293 28.64 35.9993C30.07 35.3993 31.33 34.5493 32.43 33.4493C33.52 32.3493 34.37 31.0893 34.97 29.6593C35.6 28.1793 35.91 26.6393 35.91 25.0193L35.91 14.9193Z" fill-rule="evenodd"  fill="#000000" >
</path>
</svg>
