<svg xmlns="http://www.w3.org/2000/svg" xmlns:xlink="http://www.w3.org/1999/xlink" width="48" height="48" viewBox="0 0 48 48" fill="none">
<path d="M45 11C45 6.58 41.42 3 37 3L11 3C6.58 3 3 6.58 3 11L3 27C3 31.42 6.58 35 11 35L21.99 35C21.49 33.96 21.13 32.65 21.03 31L11 31C8.79 31 7 29.21 7 27L7 11C7 8.79 8.79 7 11 7L37 7C39.21 7 41 8.79 41 11L41 14.88C42.79 15.58 44.09 16.62 45 17.64L45 11ZM30 15C30 13.9 29.1 13 28 13L13 13C11.9 13 11 13.9 11 15C11 16.1 11.9 17 13 17L28 17C29.1 17 30 16.1 30 15ZM25 28C25 30.8 26.15 33.32 28 35.14L28 43.23C28 45.56 30.54 47 32.54 45.81L35 44.33L37.46 45.81C39.47 47 42 45.56 42 43.23L42 35.14C43.85 33.32 45 30.8 45 28C45 22.48 40.52 18 35 18C29.48 18 25 22.48 25 28ZM21 23C21 21.9 20.1 21 19 21L13 21C11.9 21 11 21.9 11 23C11 24.1 11.9 25 13 25L19 25C20.1 25 21 24.1 21 23ZM41 28C41 24.69 38.31 22 35 22C31.69 22 29 24.69 29 28C29 31.31 31.69 34 35 34C38.31 34 41 31.31 41 28ZM33.46 40.59C34.4 40.02 35.6 40.02 36.56 40.6L38 41.47L38 37.54C37.05 37.84 36.05 38 35 38C33.95 38 32.95 37.84 32 37.54L32 41.47L33.46 40.59ZM34.48 44.03C34.48 44.02 34.47 44.02 34.46 44.02L34.48 44.03ZM35.5 44.04L35.52 44.03C35.51 44.03 35.5 44.03 35.5 44.04Z" fill-rule="evenodd"  fill="#000000" >
</path>
</svg>
