<svg xmlns="http://www.w3.org/2000/svg" xmlns:xlink="http://www.w3.org/1999/xlink" width="48" height="48" viewBox="0 0 48 48" fill="none">
<path d="M4.83 19.902C4.28 21.752 4 23.662 4 25.622C4 28.332 4.52 30.922 5.57 33.402C6.58 35.792 8.01 37.912 9.86 39.762C11.7 41.602 13.82 43.032 16.21 44.042C18.69 45.092 21.29 45.622 24 45.622C26.71 45.622 29.31 45.092 31.79 44.042C34.18 43.032 36.3 41.602 38.14 39.762C39.99 37.912 41.42 35.792 42.43 33.402C43.48 30.922 44 28.332 44 25.622C44 23.682 43.73 21.792 43.19 19.952C42.73 18.422 42.11 16.972 41.31 15.592L42.6 7.892C42.72 7.162 42.65 6.452 42.38 5.772C42.13 5.132 41.74 4.592 41.2 4.152C40.67 3.702 40.06 3.422 39.38 3.302C38.66 3.162 37.95 3.222 37.26 3.492L29.49 6.382C27.71 5.872 25.88 5.622 24 5.622C22.36 5.622 20.75 5.812 19.18 6.202L10.74 3.062C10.05 2.802 9.34 2.732 8.62 2.872C7.94 2.992 7.33 3.282 6.8 3.722C6.26 4.162 5.87 4.702 5.62 5.342C5.35 6.022 5.28 6.732 5.4 7.472L6.75 15.492C5.93 16.882 5.29 18.352 4.83 19.902ZM8.66 21.042C8.22 22.522 8 24.052 8 25.622C8 27.792 8.42 29.862 9.26 31.842C10.07 33.762 11.21 35.452 12.69 36.932C14.16 38.412 15.86 39.552 17.77 40.362C19.75 41.202 21.83 41.622 24 41.622C26.17 41.622 28.25 41.202 30.23 40.362C32.14 39.552 33.84 38.412 35.31 36.932C36.79 35.452 37.93 33.762 38.74 31.842C39.58 29.862 40 27.792 40 25.622C40 24.072 39.78 22.562 39.35 21.082C38.93 19.662 38.32 18.322 37.52 17.062L37.11 16.412L38.66 7.232L29.6 10.612L28.94 10.392C27.34 9.882 25.69 9.622 24 9.622C22.51 9.622 21.05 9.822 19.63 10.222L19 10.402L9.34 6.812L10.95 16.332L10.53 16.982C9.71 18.252 9.09 19.602 8.66 21.042ZM19.96 17.422C19.94 17.362 19.91 17.302 19.89 17.232C19.86 17.172 19.83 17.112 19.8 17.062C19.77 17.002 19.74 16.942 19.7 16.892C19.67 16.832 19.63 16.782 19.59 16.732C19.54 16.682 19.49 16.632 19.44 16.592C19.4 16.542 19.35 16.502 19.3 16.452C19.25 16.412 19.2 16.372 19.14 16.342C19.09 16.302 19.02 16.272 18.96 16.242C18.91 16.212 18.85 16.182 18.79 16.152C18.72 16.132 18.66 16.112 18.59 16.092C18.53 16.072 18.46 16.052 18.4 16.042C18.34 16.032 18.27 16.022 18.2 16.012C18.13 16.002 18.07 16.002 18 16.002C17.93 16.002 17.87 16.002 17.8 16.012C17.73 16.022 17.66 16.032 17.6 16.042C17.54 16.052 17.47 16.072 17.41 16.092C17.34 16.112 17.28 16.132 17.21 16.152C17.15 16.182 17.09 16.212 17.04 16.242C16.98 16.272 16.91 16.302 16.86 16.342C16.8 16.372 16.75 16.412 16.7 16.452C16.65 16.502 16.6 16.542 16.56 16.592C16.51 16.632 16.46 16.682 16.41 16.732C16.37 16.782 16.33 16.832 16.3 16.892C16.26 16.942 16.23 17.002 16.2 17.062C16.17 17.112 16.14 17.172 16.11 17.232C16.09 17.302 16.06 17.362 16.04 17.422C16.02 17.482 16 17.552 15.99 17.612C15.98 17.672 15.97 17.742 15.96 17.802C15.95 17.872 15.95 17.932 15.95 18.002L15.95 23.002C15.95 23.072 15.95 23.132 15.96 23.202C15.97 23.262 15.98 23.332 15.99 23.392C16 23.452 16.02 23.522 16.04 23.582C16.06 23.642 16.09 23.702 16.11 23.772C16.14 23.832 16.17 23.882 16.2 23.942C16.23 24.002 16.26 24.062 16.3 24.112C16.33 24.172 16.37 24.222 16.41 24.272C16.46 24.322 16.51 24.372 16.56 24.412C16.6 24.462 16.65 24.502 16.7 24.552C16.75 24.592 16.8 24.632 16.86 24.662C16.91 24.702 16.98 24.732 17.04 24.762C17.09 24.792 17.15 24.822 17.21 24.852C17.28 24.872 17.34 24.892 17.41 24.912C17.47 24.932 17.54 24.952 17.6 24.962C17.66 24.972 17.73 24.982 17.8 24.992C17.87 25.002 17.93 25.002 18 25.002C18.07 25.002 18.13 25.002 18.2 24.992C18.27 24.982 18.34 24.972 18.4 24.962C18.46 24.952 18.53 24.932 18.59 24.912C18.66 24.892 18.72 24.872 18.79 24.852C18.85 24.822 18.91 24.792 18.96 24.762C19.02 24.732 19.09 24.702 19.14 24.662C19.2 24.632 19.25 24.592 19.3 24.552C19.35 24.502 19.4 24.462 19.44 24.412C19.49 24.372 19.54 24.322 19.59 24.272C19.63 24.222 19.67 24.172 19.7 24.112C19.74 24.062 19.77 24.002 19.8 23.942C19.83 23.882 19.86 23.832 19.89 23.772C19.91 23.702 19.94 23.642 19.96 23.582C19.98 23.522 20 23.452 20.01 23.392C20.02 23.332 20.03 23.262 20.04 23.202C20.05 23.132 20.05 23.072 20.05 23.002L20.05 18.002C20.05 17.932 20.05 17.872 20.04 17.802C20.03 17.742 20.02 17.672 20.01 17.612C20 17.552 19.98 17.482 19.96 17.422ZM31.96 17.422C31.94 17.362 31.91 17.302 31.89 17.232C31.86 17.172 31.83 17.112 31.8 17.062C31.77 17.002 31.74 16.942 31.7 16.892C31.67 16.832 31.63 16.782 31.59 16.732C31.54 16.682 31.49 16.632 31.44 16.592C31.4 16.542 31.35 16.502 31.3 16.452C31.25 16.412 31.2 16.372 31.14 16.342C31.09 16.302 31.02 16.272 30.96 16.242C30.91 16.212 30.85 16.182 30.79 16.152C30.72 16.132 30.66 16.112 30.59 16.092C30.53 16.072 30.46 16.052 30.4 16.042C30.34 16.032 30.27 16.022 30.2 16.012C30.13 16.002 30.07 16.002 30 16.002C29.93 16.002 29.87 16.002 29.8 16.012C29.73 16.022 29.66 16.032 29.6 16.042C29.54 16.052 29.47 16.072 29.41 16.092C29.34 16.112 29.28 16.132 29.21 16.152C29.15 16.182 29.09 16.212 29.04 16.242C28.98 16.272 28.91 16.302 28.86 16.342C28.8 16.372 28.75 16.412 28.7 16.452C28.65 16.502 28.6 16.542 28.56 16.592C28.51 16.632 28.46 16.682 28.41 16.732C28.37 16.782 28.33 16.832 28.3 16.892C28.26 16.942 28.23 17.002 28.2 17.062C28.17 17.112 28.14 17.172 28.11 17.232C28.09 17.302 28.06 17.362 28.04 17.422C28.02 17.482 28 17.552 27.99 17.612C27.98 17.672 27.97 17.742 27.96 17.802C27.95 17.872 27.95 17.932 27.95 18.002L27.95 23.002C27.95 23.072 27.95 23.132 27.96 23.202C27.97 23.262 27.98 23.332 27.99 23.392C28 23.452 28.02 23.522 28.04 23.582C28.06 23.642 28.09 23.702 28.11 23.772C28.14 23.832 28.17 23.882 28.2 23.942C28.23 24.002 28.26 24.062 28.3 24.112C28.33 24.172 28.37 24.222 28.41 24.272C28.46 24.322 28.51 24.372 28.56 24.412C28.6 24.462 28.65 24.502 28.7 24.552C28.75 24.592 28.8 24.632 28.86 24.662C28.91 24.702 28.98 24.732 29.04 24.762C29.09 24.792 29.15 24.822 29.21 24.852C29.28 24.872 29.34 24.892 29.41 24.912C29.47 24.932 29.54 24.952 29.6 24.962C29.66 24.972 29.73 24.982 29.8 24.992C29.87 25.002 29.93 25.002 30 25.002C30.07 25.002 30.13 25.002 30.2 24.992C30.27 24.982 30.34 24.972 30.4 24.962C30.46 24.952 30.53 24.932 30.59 24.912C30.66 24.892 30.72 24.872 30.79 24.852C30.85 24.822 30.91 24.792 30.96 24.762C31.02 24.732 31.09 24.702 31.14 24.662C31.2 24.632 31.25 24.592 31.3 24.552C31.35 24.502 31.4 24.462 31.44 24.412C31.49 24.372 31.54 24.322 31.59 24.272C31.63 24.222 31.67 24.172 31.7 24.112C31.74 24.062 31.77 24.002 31.8 23.942C31.83 23.882 31.86 23.832 31.89 23.772C31.91 23.702 31.94 23.642 31.96 23.582C31.98 23.522 32 23.452 32.01 23.392C32.02 23.332 32.03 23.262 32.04 23.202C32.05 23.132 32.05 23.072 32.05 23.002L32.05 18.002C32.05 17.932 32.05 17.872 32.04 17.802C32.03 17.742 32.02 17.672 32.01 17.612C32 17.552 31.98 17.482 31.96 17.422ZM31.89 30.962C31.95 30.952 32.02 30.932 32.08 30.912C32.14 30.892 32.2 30.872 32.27 30.852C32.33 30.822 32.38 30.792 32.44 30.762C32.5 30.732 32.56 30.702 32.61 30.662C32.67 30.632 32.72 30.592 32.77 30.552C32.82 30.502 32.87 30.462 32.91 30.412C32.96 30.372 33 30.322 33.05 30.272C33.09 30.222 33.13 30.172 33.16 30.112C33.2 30.062 33.23 30.002 33.26 29.942C33.29 29.892 33.32 29.832 33.35 29.772C33.37 29.702 33.39 29.642 33.41 29.582C33.43 29.522 33.45 29.452 33.46 29.392C33.47 29.332 33.48 29.262 33.49 29.202C33.5 29.132 33.5 29.072 33.5 29.002C33.5 28.932 33.5 28.872 33.49 28.802C33.48 28.742 33.47 28.672 33.46 28.612C33.45 28.552 33.43 28.482 33.41 28.422C33.39 28.362 33.37 28.302 33.35 28.232C33.32 28.172 33.29 28.112 33.26 28.062C33.23 28.002 33.2 27.942 33.16 27.892C33.13 27.832 33.09 27.782 33.05 27.732C33 27.682 32.96 27.632 32.91 27.592C32.87 27.542 32.82 27.502 32.77 27.452C32.72 27.412 32.67 27.372 32.61 27.342C32.56 27.302 32.5 27.272 32.44 27.242C32.38 27.212 32.33 27.182 32.27 27.152C32.2 27.132 32.14 27.112 32.08 27.092C32.02 27.072 31.95 27.052 31.89 27.042C31.83 27.032 31.76 27.022 31.7 27.012C31.63 27.002 31.57 27.002 31.5 27.002L29.92 27.002C29.34 27.002 28.78 27.122 28.25 27.372C27.72 27.612 27.27 27.952 26.89 28.392L26 29.432L25.12 28.402C24.74 27.962 24.28 27.612 23.75 27.372C23.22 27.122 22.66 27.002 22.08 27.002L16.5 27.002C16.43 27.002 16.37 27.002 16.3 27.012C16.24 27.022 16.17 27.032 16.11 27.042C16.05 27.052 15.98 27.072 15.92 27.092C15.86 27.112 15.8 27.132 15.73 27.152C15.67 27.182 15.61 27.212 15.56 27.242C15.5 27.272 15.44 27.302 15.39 27.342C15.33 27.372 15.28 27.412 15.23 27.452C15.18 27.502 15.13 27.542 15.09 27.592C15.04 27.632 15 27.682 14.95 27.732C14.91 27.782 14.87 27.832 14.84 27.892C14.8 27.942 14.77 28.002 14.74 28.062C14.71 28.112 14.68 28.172 14.65 28.232C14.63 28.302 14.61 28.362 14.59 28.422C14.57 28.482 14.55 28.552 14.54 28.612C14.53 28.672 14.52 28.742 14.51 28.802C14.5 28.872 14.5 28.932 14.5 29.002C14.5 29.072 14.5 29.132 14.51 29.202C14.52 29.262 14.53 29.332 14.54 29.392C14.55 29.452 14.57 29.522 14.59 29.582C14.61 29.642 14.63 29.702 14.65 29.772C14.68 29.832 14.71 29.892 14.74 29.942C14.77 30.002 14.8 30.062 14.84 30.112C14.87 30.172 14.91 30.222 14.95 30.272C15 30.322 15.04 30.372 15.09 30.412C15.13 30.462 15.18 30.502 15.23 30.552C15.28 30.592 15.33 30.632 15.39 30.662C15.44 30.702 15.5 30.732 15.56 30.762C15.61 30.792 15.67 30.822 15.73 30.852C15.8 30.872 15.86 30.892 15.92 30.912C15.98 30.932 16.05 30.952 16.11 30.962C16.17 30.972 16.24 30.982 16.3 30.992C16.37 31.002 16.43 31.002 16.5 31.002L22.08 31.002L23.72 32.912C24.01 33.252 24.36 33.512 24.77 33.702C25.16 33.872 25.57 33.962 26 33.962C26.43 33.962 26.84 33.872 27.23 33.702C27.64 33.512 27.99 33.252 28.28 32.912L29.91 31.012L29.92 31.002L31.5 31.002C31.57 31.002 31.63 31.002 31.7 30.992C31.76 30.982 31.83 30.972 31.89 30.962Z" fill-rule="evenodd"  fill="#000000" >
</path>
</svg>
