<svg xmlns="http://www.w3.org/2000/svg" xmlns:xlink="http://www.w3.org/1999/xlink" width="48" height="48" viewBox="0 0 48 48" fill="none">
<path d="M7 35C7 35.82 7.16 36.59 7.47 37.34C7.77 38.05 8.2 38.69 8.76 39.24C9.31 39.8 9.95 40.23 10.66 40.53C11.41 40.84 12.18 41 13 41C13.82 41 14.59 40.84 15.34 40.53C16.05 40.23 16.69 39.8 17.24 39.24C17.8 38.69 18.23 38.05 18.53 37.34C18.84 36.59 19 35.82 19 35C19 34.18 18.84 33.41 18.53 32.66C18.23 31.95 17.8 31.31 17.24 30.76C16.69 30.2 16.05 29.77 15.34 29.47C14.59 29.16 13.82 29 13 29C12.18 29 11.41 29.16 10.66 29.47C9.95 29.77 9.31 30.2 8.76 30.76C8.2 31.31 7.77 31.95 7.47 32.66C7.16 33.41 7 34.18 7 35ZM35.78 16.58L35.02 15.8L29.84 20.98L30.61 21.75C30.79 21.94 31.01 22.08 31.26 22.18C31.5 22.28 31.76 22.34 32.03 22.34C32.29 22.34 32.54 22.28 32.78 22.18C33.03 22.08 33.25 21.93 33.44 21.74L35.78 19.39C35.97 19.2 36.11 18.98 36.21 18.74C36.31 18.5 36.36 18.25 36.36 17.99C36.36 17.73 36.31 17.48 36.22 17.24C36.12 16.99 35.97 16.77 35.78 16.58ZM13 25C11.64 25 10.35 25.26 9.11 25.79C7.91 26.29 6.85 27.01 5.93 27.93C5.01 28.85 4.29 29.91 3.79 31.11C3.26 32.35 3 33.64 3 35C3 36.36 3.26 37.65 3.79 38.89C4.29 40.09 5.01 41.15 5.93 42.07C6.85 42.99 7.91 43.71 9.11 44.21C10.35 44.74 11.64 45 13 45C14.36 45 15.65 44.74 16.89 44.21C18.09 43.71 19.15 42.99 20.07 42.07C20.99 41.15 21.71 40.09 22.21 38.89C22.74 37.65 23 36.36 23 35C23 33.64 22.74 32.35 22.21 31.11C21.97 30.54 21.68 30 21.35 29.49L27.01 23.81L27.78 24.58C28.34 25.14 28.99 25.58 29.73 25.88C30.47 26.18 31.23 26.34 32.03 26.34C32.82 26.34 33.59 26.18 34.33 25.87C35.06 25.57 35.71 25.13 36.27 24.57L38.61 22.22C39.18 21.64 39.62 20.98 39.92 20.24C40.21 19.52 40.36 18.77 40.36 17.99C40.36 17.22 40.22 16.47 39.93 15.75C39.63 15 39.2 14.34 38.63 13.77L37.84 12.98L43.42 7.41L43.41 7.41C43.78 7.05 44 6.55 44 6C44 4.9 43.1 4 42 4C41.45 4 40.95 4.22 40.59 4.59L40.59 4.58L35.04 10.13L35.03 10.13L25.59 19.57L24.17 20.99L18.52 26.66C18.01 26.32 17.46 26.03 16.89 25.79C15.65 25.26 14.36 25 13 25Z" fill-rule="evenodd"  fill="#000000" >
</path>
</svg>
