<svg xmlns="http://www.w3.org/2000/svg" xmlns:xlink="http://www.w3.org/1999/xlink" width="48" height="48" viewBox="0 0 48 48" fill="none">
<path d="M25.91 24.42C25.89 24.36 25.87 24.3 25.85 24.23C25.82 24.17 25.79 24.11 25.76 24.06C25.73 24 25.7 23.94 25.66 23.89C25.63 23.83 25.59 23.78 25.55 23.73C25.5 23.68 25.46 23.63 25.41 23.59C25.37 23.54 25.32 23.5 25.27 23.45C25.22 23.41 25.17 23.37 25.11 23.34C25.06 23.3 25 23.27 24.94 23.24C24.89 23.21 24.83 23.18 24.77 23.15C24.7 23.13 24.64 23.11 24.58 23.09C24.52 23.07 24.45 23.05 24.39 23.04C24.33 23.03 24.26 23.02 24.2 23.01C24.13 23 24.07 23 24 23C23.93 23 23.87 23 23.8 23.01C23.74 23.02 23.67 23.03 23.61 23.04C23.55 23.05 23.48 23.07 23.42 23.09C23.36 23.11 23.3 23.13 23.23 23.15C23.17 23.18 23.11 23.21 23.06 23.24C23 23.27 22.94 23.3 22.89 23.34C22.83 23.37 22.78 23.41 22.73 23.45C22.68 23.5 22.63 23.54 22.59 23.59C22.54 23.63 22.5 23.68 22.45 23.73C22.41 23.78 22.37 23.83 22.34 23.89C22.3 23.94 22.27 24 22.24 24.06C22.21 24.11 22.18 24.17 22.15 24.23C22.13 24.3 22.11 24.36 22.09 24.42C22.07 24.48 22.05 24.55 22.04 24.61C22.03 24.67 22.02 24.74 22.01 24.8C22 24.87 22 24.93 22 25L22 32C22 32.07 22 32.13 22.01 32.2C22.02 32.26 22.03 32.33 22.04 32.39C22.05 32.45 22.07 32.52 22.09 32.58C22.11 32.64 22.13 32.7 22.15 32.77C22.18 32.83 22.21 32.89 22.24 32.94C22.27 33 22.3 33.06 22.34 33.11C22.37 33.17 22.41 33.22 22.45 33.27C22.5 33.32 22.54 33.37 22.59 33.41C22.63 33.46 22.68 33.5 22.73 33.55C22.78 33.59 22.83 33.63 22.89 33.66C22.94 33.7 23 33.73 23.06 33.76C23.11 33.79 23.17 33.82 23.23 33.85C23.3 33.87 23.36 33.89 23.42 33.91C23.48 33.93 23.55 33.95 23.61 33.96C23.67 33.97 23.74 33.98 23.8 33.99C23.87 34 23.93 34 24 34C24.07 34 24.13 34 24.2 33.99C24.26 33.98 24.33 33.97 24.39 33.96C24.45 33.95 24.52 33.93 24.58 33.91C24.64 33.89 24.7 33.87 24.77 33.85C24.83 33.82 24.89 33.79 24.94 33.76C25 33.73 25.06 33.7 25.11 33.66C25.17 33.63 25.22 33.59 25.27 33.55C25.32 33.5 25.37 33.46 25.41 33.41C25.46 33.37 25.5 33.32 25.55 33.27C25.59 33.22 25.63 33.17 25.66 33.11C25.7 33.06 25.73 33 25.76 32.94C25.79 32.89 25.82 32.83 25.85 32.77C25.87 32.7 25.89 32.64 25.91 32.58C25.93 32.52 25.95 32.45 25.96 32.39C25.97 32.33 25.98 32.26 25.99 32.2C26 32.13 26 32.07 26 32L26 25C26 24.93 26 24.87 25.99 24.8C25.98 24.74 25.97 24.67 25.96 24.61C25.95 24.55 25.93 24.48 25.91 24.42ZM26.36 41.1C27.94 40.45 29.36 39.67 30.61 38.77C34.2 36.19 36 32.93 36 28.99L36 21.29C36 20.9 35.89 20.54 35.68 20.21C35.47 19.88 35.18 19.64 34.83 19.47L34.82 19.47L31.19 17.83L25.19 15.2L24.8 15.03L24.79 15.03C24.54 14.92 24.27 14.86 24 14.86C23.73 14.86 23.46 14.92 23.21 15.03L23.2 15.03L16.8 17.83L13.17 19.47C12.82 19.63 12.53 19.88 12.32 20.21C12.11 20.54 12 20.9 12 21.29L12 28.99C12 32.93 13.8 36.19 17.39 38.77C18.64 39.67 20.06 40.45 21.64 41.1C22.48 41.45 23.27 41.73 24 41.93C24.73 41.73 25.52 41.45 26.36 41.1ZM20.11 44.8C21.23 45.26 22.28 45.62 23.26 45.87C23.75 46.01 24.25 46.01 24.74 45.87C25.72 45.62 26.77 45.26 27.89 44.8C29.76 44.03 31.44 43.1 32.95 42.02C35.01 40.54 36.63 38.84 37.8 36.92C39.27 34.53 40 31.89 40 28.99L40 21.29C40 20.71 39.92 20.14 39.75 19.58C39.59 19.03 39.35 18.52 39.04 18.04C38.73 17.56 38.36 17.13 37.93 16.76C37.49 16.38 37.01 16.07 36.48 15.83L36.47 15.83L34 14.71L34 12C34 10.67 33.75 9.4 33.24 8.17C32.73 6.95 32.01 5.86 31.07 4.93C30.14 3.99 29.05 3.27 27.83 2.76C26.6 2.25 25.33 2 24 2C22.67 2 21.4 2.25 20.17 2.76C18.95 3.27 17.86 3.99 16.93 4.93C15.99 5.86 15.27 6.95 14.76 8.17C14.25 9.4 14 10.67 14 12L14 14.71L11.53 15.83C10.99 16.07 10.51 16.38 10.07 16.76C9.64 17.13 9.27 17.56 8.96 18.04C8.65 18.52 8.41 19.03 8.25 19.58C8.08 20.14 8 20.71 8 21.29L8 28.99C8 31.89 8.73 34.53 10.2 36.92C11.37 38.84 12.99 40.54 15.05 42.02C16.56 43.1 18.24 44.03 20.11 44.8ZM28.25 7.75C27.68 7.19 27.04 6.76 26.3 6.46C25.56 6.15 24.8 6 24 6C23.2 6 22.44 6.15 21.7 6.46C20.96 6.76 20.32 7.19 19.75 7.75C19.19 8.32 18.76 8.96 18.46 9.7C18.15 10.44 18 11.2 18 12L18 12.94L21.59 11.37L21.6 11.37L21.6 11.36C22.37 11.03 23.16 10.86 24 10.86C24.84 10.86 25.63 11.03 26.4 11.36L26.4 11.37L26.41 11.37L26.79 11.54L30 12.94L30 12C30 11.2 29.85 10.44 29.54 9.7C29.24 8.96 28.81 8.32 28.25 7.75Z" fill-rule="evenodd"  fill="#000000" >
</path>
</svg>
