<svg xmlns="http://www.w3.org/2000/svg" xmlns:xlink="http://www.w3.org/1999/xlink" width="48" height="48" viewBox="0 0 48 48" fill="none">
<path d="M3 31C3 35.42 6.58 39 11 39L21.59 39C21.22 37.92 21 36.6 21 35L11 35C8.79 35 7 33.21 7 31L7 17.01L21.67 23.19C23.16 23.82 24.84 23.82 26.32 23.19L26.33 23.19L41 17.01L41 19.83C41.74 20.1 42.42 20.41 43.03 20.77C43.78 21.2 44.44 21.68 45 22.16L45 11C45 6.58 41.42 3 37 3L11 3C6.58 3 3 6.58 3 11L3 31ZM37 7L11 7C8.79 7 7 8.79 7 11L7 12.67L23.23 19.51C23.73 19.72 24.28 19.72 24.77 19.51L41 12.67L41 11C41 8.79 39.21 7 37 7ZM29.31 41.67C30.79 42.68 32.45 43.42 34.28 43.88C34.75 44.02 35.25 44.02 35.72 43.88C37.55 43.42 39.21 42.68 40.69 41.67C43.56 39.71 45 37.17 45 34.06L45 28.62C45 27.01 44.03 25.54 42.53 24.92L40.34 24.01L36.5 22.45C35.53 22.06 34.47 22.06 33.51 22.44L29.68 24L27.46 24.93C25.97 25.54 25 27 25 28.62L25 34.06C25 37.17 26.44 39.71 29.31 41.67ZM41 28.62L41.01 28.62L38.8 27.7L35 26.16L34.99 26.16L31.18 27.71L29 28.62L29 34.06C29 36.91 31 38.86 35 39.94C39 38.86 41 36.91 41 34.06L41 28.62Z" fill-rule="evenodd"  fill="#000000" >
</path>
</svg>
