<svg xmlns="http://www.w3.org/2000/svg" xmlns:xlink="http://www.w3.org/1999/xlink" width="48" height="48" viewBox="0 0 48 48" fill="none">
<path d="M24 24C29.52 24 34 19.52 34 14C34 8.48 29.52 4 24 4C18.48 4 14 8.48 14 14C14 19.52 18.48 24 24 24ZM24 8C20.69 8 18 10.69 18 14C18 17.31 20.69 20 24 20C27.31 20 30 17.31 30 14C30 10.69 27.31 8 24 8ZM33.68 29.5C33.62 29.56 33.56 29.62 33.5 29.68L31.08 32.1C30.2 31.72 29.22 31.5 28.2 31.5C24.2 31.5 21 34.75 21 38.75C21 42.73 24.22 46 28.2 46C32.2 46 35.4 42.75 35.4 38.75C35.4 37.24 34.94 35.84 34.15 34.68L35 33.82L37.09 35.91C37.45 36.28 37.95 36.5 38.5 36.5C39.6 36.5 40.5 35.6 40.5 34.5C40.5 33.95 40.28 33.45 39.91 33.09L37.82 31L39 29.82L41.09 31.91C41.45 32.28 41.95 32.5 42.5 32.5C43.6 32.5 44.5 31.6 44.5 30.5C44.5 29.95 44.28 29.45 43.91 29.09L41.83 27.01L43.41 25.42C43.78 25.05 44 24.55 44 24C44 22.9 43.1 22 42 22C41.45 22 40.95 22.22 40.59 22.59L33.68 29.5ZM17 40L10 40C8.9 40 8 39.1 8 38L8 34C8 31.79 9.79 30 12 30L22 30C23.1 30 24 29.1 24 28C24 26.9 23.1 26 22 26L12 26C7.58 26 4 29.58 4 34L4 38C4 41.31 6.69 44 10 44L17 44C18.1 44 19 43.1 19 42C19 40.9 18.1 40 17 40ZM28.2 35.5C26.41 35.5 25 36.96 25 38.75C25 40.52 26.43 42 28.2 42C29.99 42 31.4 40.54 31.4 38.75C31.4 36.98 29.97 35.5 28.2 35.5Z" fill-rule="evenodd"  fill="#000000" >
</path>
</svg>
