<svg xmlns="http://www.w3.org/2000/svg" xmlns:xlink="http://www.w3.org/1999/xlink" width="48" height="48" viewBox="0 0 48 48" fill="none">
<path d="M10.5499 6.28869C7.51664 7.04417 6 8.98489 6 12.1109L6 25.9933C6 30.8191 7.43709 34.8386 10.3113 38.0519C11.5305 32.863 16.1891 29 21.75 29L26.25 29C31.8109 29 36.4696 32.8631 37.6888 38.052C40.5629 34.8389 42 30.8194 42 25.9933L42 12.1109C42 8.98489 40.4834 7.04417 37.4501 6.28869L25.4501 3.29996C24.4834 3.05919 23.5166 3.05919 22.5499 3.29996L10.5499 6.28869ZM34.0118 41.2185C34.004 41.1468 34 41.0739 34 41L34 40.75C34 36.4698 30.5302 33 26.25 33L21.75 33C17.4698 33 14 36.4698 14 40.75L14 41C14 41.0739 13.996 41.1468 13.9882 41.2186C16.7103 43.0534 19.762 44.2763 23.1431 44.8874C23.7134 44.9905 24.2812 44.9911 24.8467 44.8893C28.2301 44.2798 31.2851 43.0562 34.0118 41.2185ZM32 19C32 23.4183 28.4183 27 24 27C19.5817 27 16 23.4183 16 19C16 14.5817 19.5817 11 24 11C28.4183 11 32 14.5817 32 19ZM28 19C28 16.7909 26.2091 15 24 15C21.7909 15 20 16.7909 20 19C20 21.2091 21.7909 23 24 23C26.2091 23 28 21.2091 28 19Z" fill-rule="evenodd"  fill="#000000" >
</path>
</svg>
