<svg xmlns="http://www.w3.org/2000/svg" xmlns:xlink="http://www.w3.org/1999/xlink" width="48" height="48" viewBox="0 0 48 48" fill="none">
<path d="M6 25.9906C6 30.8361 7.43612 34.8617 10.3084 38.0638C11.3352 39.2086 12.5456 40.248 13.9395 41.1821Q13.9639 41.1985 13.9885 41.2148C14.1434 41.318 14.3006 41.42 14.46 41.5206C17.34 43.3406 20.39 44.4906 23.61 44.9606C23.87 45.0106 24.13 45.0106 24.39 44.9606C27.61 44.4906 30.66 43.3406 33.54 41.5206C33.6994 41.42 33.8566 41.318 34.0115 41.2148C35.398 40.291 36.604 39.2636 37.6296 38.1326C37.6503 38.1097 37.671 38.0868 37.6916 38.0638C40.5639 34.8617 42 30.8361 42 25.9906L42 12.1106C42 9.36061 40.13 6.97061 37.46 6.29061L25.45 3.30061C24.5 3.06061 23.5 3.06061 22.54 3.30061L10.55 6.29061C7.88 6.96061 6 9.36061 6 12.1106L6 25.9906ZM26.25 29C30.1918 29 33.6798 30.9403 35.8112 33.9181Q38 30.5861 38 25.9906L38 12.1106C38 11.1906 37.37 10.3906 36.48 10.1706L24.49 7.18061C24.17 7.10061 23.83 7.10061 23.52 7.18061L11.51 10.1706C10.63 10.3906 10 11.1906 10 12.1106L10 25.9906Q10 30.5861 12.1888 33.9181C14.3202 30.9403 17.8082 29 21.75 29L26.25 29ZM16 19C16 14.58 19.58 11 24 11C28.42 11 32 14.58 32 19C32 23.42 28.42 27 24 27C19.58 27 16 23.42 16 19ZM28 19C28 21.21 26.21 23 24 23C21.79 23 20 21.21 20 19C20 16.79 21.79 15 24 15C26.21 15 28 16.79 28 19ZM16.6 38.1406Q15.7321 37.5923 14.9784 36.978C16.3032 34.6049 18.8393 33 21.75 33L26.25 33C29.1607 33 31.6968 34.6049 33.0216 36.978Q32.2679 37.5923 31.4 38.1406C29.06 39.6206 26.59 40.5706 24 40.9806C21.41 40.5706 18.94 39.6206 16.6 38.1406Z" fill-rule="evenodd"  fill="#000000" >
</path>
</svg>
