<svg xmlns="http://www.w3.org/2000/svg" xmlns:xlink="http://www.w3.org/1999/xlink" width="48" height="48" viewBox="0 0 48 48" fill="none">
<path d="M34 14C34 19.5228 29.5228 24 24 24C18.4771 24 14 19.5228 14 14C14 8.47715 18.4771 4 24 4C29.5228 4 34 8.47715 34 14ZM30 14C30 10.6863 27.3137 8 24 8C20.6863 8 18 10.6863 18 14C18 17.3137 20.6863 20 24 20C27.3137 20 30 17.3137 30 14ZM28.2596 25.6528C26.7532 26.0365 26 27.0055 26 28.56L26 35.3918C26 38.6003 27.2392 41.1117 29.7176 42.9259C31.0843 43.9263 32.635 44.5916 34.3698 44.9217C34.7893 45.0015 35.2076 45.0019 35.6249 44.9228C37.3582 44.5941 38.9085 43.93 40.276 42.9307C42.7587 41.1163 44 38.6033 44 35.3918L44 28.56C44 27.0055 43.2468 26.0365 41.7404 25.6528L35.9353 24.1743C35.3118 24.0155 34.6882 24.0155 34.0647 24.1743L28.2596 25.6528ZM23.5 44L10 44C6.68629 44 4 41.3137 4 38L4 34C4 29.5817 7.58172 26 12 26L22 26C23.1046 26 24 26.8954 24 28C24 29.1046 23.1046 30 22 30L12 30C9.79086 30 8 31.7909 8 34L8 38C8 39.1046 8.89543 40 10 40L23.5 40C24.6046 40 25.5 40.8954 25.5 42C25.5 43.1046 24.6046 44 23.5 44ZM30 29.3372L30 35.3918C30 38.4407 31.6667 40.2999 35.0001 40.9693C38.3334 40.301 40 38.4419 40 35.3918L40 29.3372L35 28.0638L30 29.3372Z" fill-rule="evenodd"  fill="#000000" >
</path>
</svg>
