<svg xmlns="http://www.w3.org/2000/svg" xmlns:xlink="http://www.w3.org/1999/xlink" width="48" height="48" viewBox="0 0 48 48" fill="none">
<path d="M8.71 7.09768C8.16 7.45768 7.68 7.89768 7.27 8.41768C6.87 8.93768 6.55 9.50768 6.34 10.1277C6.11 10.7677 6 11.4277 6 12.1077L6 25.9877C6 29.6877 6.88 32.9477 8.63 35.7577C10.04 38.0377 11.99 39.9577 14.46 41.5277C16.23 42.6477 18.2 43.5377 20.36 44.1977C21.55 44.5677 22.63 44.8177 23.61 44.9677C23.87 45.0077 24.13 45.0077 24.39 44.9677C25.37 44.8177 26.45 44.5677 27.64 44.1977C29.8 43.5377 31.77 42.6477 33.54 41.5277C36.01 39.9577 37.96 38.0377 39.37 35.7577C41.12 32.9477 42 29.6877 42 25.9877L42 12.1077C42 11.4277 41.89 10.7677 41.66 10.1277C41.45 9.50768 41.13 8.93768 40.73 8.41768C40.32 7.89768 39.84 7.45768 39.29 7.09768C38.73 6.72768 38.12 6.45768 37.46 6.28768L25.45 3.29768C24.48 3.05768 23.51 3.05768 22.54 3.29768L10.55 6.28768C9.89 6.45768 9.27 6.72768 8.71 7.09768ZM36.48 10.1677L24.49 7.17768C24.16 7.09768 23.84 7.09768 23.52 7.17768L11.51 10.1677C11.07 10.2877 10.71 10.5177 10.42 10.8777C10.14 11.2377 10 11.6477 10 12.1077L10 25.9877C10 28.9277 10.67 31.4777 12.02 33.6477C13.12 35.4077 14.64 36.9077 16.6 38.1477C18.07 39.0777 19.71 39.8177 21.53 40.3777C22.14 40.5677 22.74 40.7177 23.33 40.8477C23.58 40.8977 23.8 40.9377 24 40.9777C24.2 40.9377 24.42 40.8977 24.67 40.8477C25.26 40.7177 25.86 40.5677 26.47 40.3777C28.29 39.8177 29.93 39.0777 31.4 38.1477C33.36 36.9077 34.88 35.4077 35.98 33.6477C37.33 31.4777 38 28.9277 38 25.9877L38 12.1077C38 11.6477 37.86 11.2377 37.58 10.8777C37.29 10.5177 36.93 10.2777 36.48 10.1677Z" fill-rule="evenodd"  fill="#000000" >
</path>
</svg>
