<svg xmlns="http://www.w3.org/2000/svg" xmlns:xlink="http://www.w3.org/1999/xlink" width="48" height="48" viewBox="0 0 48 48" fill="none">
<path d="M35.98 33.6477C37.33 31.4777 38 28.9277 38 25.9877L38 12.1077C38 11.6477 37.86 11.2377 37.58 10.8777C37.29 10.5177 36.93 10.2777 36.48 10.1677L24.49 7.17768C24.16 7.09768 23.84 7.09768 23.52 7.17768L11.51 10.1677C11.07 10.2877 10.71 10.5177 10.42 10.8777C10.14 11.2377 10 11.6477 10 12.1077L10 25.9877C10 28.9277 10.67 31.4777 12.02 33.6477C13.12 35.4077 14.64 36.9077 16.6 38.1477C18.07 39.0777 19.71 39.8177 21.53 40.3777C22.14 40.5677 22.74 40.7177 23.33 40.8477C23.58 40.8977 23.8 40.9377 24 40.9777C24.2 40.9377 24.42 40.8977 24.67 40.8477C25.26 40.7177 25.86 40.5677 26.47 40.3777C28.29 39.8177 29.93 39.0777 31.4 38.1477C33.36 36.9077 34.88 35.4077 35.98 33.6477ZM7.27 8.41768C6.87 8.93768 6.55 9.50768 6.34 10.1277C6.11 10.7677 6 11.4277 6 12.1077L6 25.9877C6 29.6877 6.88 32.9477 8.63 35.7577C10.04 38.0377 11.99 39.9577 14.46 41.5277C16.23 42.6477 18.2 43.5377 20.36 44.1977C21.55 44.5677 22.63 44.8177 23.61 44.9677C23.87 45.0077 24.13 45.0077 24.39 44.9677C25.37 44.8177 26.45 44.5677 27.64 44.1977C29.8 43.5377 31.77 42.6477 33.54 41.5277C36.01 39.9577 37.96 38.0377 39.37 35.7577C41.12 32.9477 42 29.6877 42 25.9877L42 12.1077C42 11.4277 41.89 10.7677 41.66 10.1277C41.45 9.50768 41.13 8.93768 40.73 8.41768C40.32 7.89768 39.84 7.45768 39.29 7.09768C38.73 6.72768 38.12 6.45768 37.46 6.28768L25.45 3.29768C24.48 3.05768 23.51 3.05768 22.54 3.29768L10.55 6.28768C9.89 6.45768 9.27 6.72768 8.71 7.09768C8.16 7.45768 7.68 7.89768 7.27 8.41768ZM33.43 20.3977C33.48 20.3477 33.52 20.2977 33.56 20.2477C33.6 20.1977 33.64 20.1477 33.68 20.0877C33.71 20.0377 33.74 19.9777 33.77 19.9177C33.8 19.8677 33.83 19.8077 33.86 19.7377L33.92 19.5577C33.94 19.4977 33.95 19.4277 33.97 19.3677C33.98 19.2977 33.99 19.2377 33.99 19.1677C34 19.1077 34 19.0377 34 18.9777C34 18.9077 34 18.8477 33.99 18.7777C33.98 18.7177 33.97 18.6477 33.96 18.5877C33.94 18.5177 33.93 18.4577 33.91 18.3977C33.89 18.3377 33.86 18.2677 33.84 18.2077C33.81 18.1477 33.78 18.0977 33.75 18.0377C33.72 17.9777 33.69 17.9177 33.65 17.8677C33.61 17.8177 33.57 17.7577 33.53 17.7077C33.49 17.6577 33.45 17.6177 33.4 17.5677C33.35 17.5177 33.3 17.4777 33.25 17.4377C33.2 17.3977 33.15 17.3577 33.09 17.3177C33.04 17.2877 32.98 17.2577 32.92 17.2277C32.87 17.1977 32.81 17.1677 32.74 17.1377L32.56 17.0777C32.5 17.0577 32.43 17.0477 32.37 17.0277C32.3 17.0177 32.24 17.0077 32.17 17.0077C32.11 16.9977 32.04 16.9977 31.98 16.9977C31.91 16.9977 31.85 16.9977 31.78 17.0077C31.72 17.0177 31.65 17.0277 31.59 17.0377C31.52 17.0577 31.46 17.0677 31.4 17.0877C31.34 17.1077 31.27 17.1377 31.21 17.1577C31.15 17.1877 31.1 17.2177 31.04 17.2477C30.98 17.2777 30.92 17.3077 30.87 17.3477C30.82 17.3877 30.76 17.4277 30.71 17.4677C30.66 17.5077 30.62 17.5477 30.57 17.5977L21.23 27.1477L17.42 23.3177C17.37 23.2677 17.32 23.2277 17.27 23.1877C17.22 23.1477 17.17 23.1077 17.11 23.0677C17.06 23.0377 17 22.9977 16.95 22.9677C16.89 22.9377 16.83 22.9077 16.77 22.8877C16.71 22.8577 16.65 22.8377 16.58 22.8177C16.52 22.7977 16.46 22.7777 16.39 22.7677C16.33 22.7577 16.27 22.7477 16.2 22.7377C16.13 22.7377 16.07 22.7277 16 22.7277C15.94 22.7277 15.87 22.7377 15.81 22.7377C15.74 22.7477 15.68 22.7577 15.61 22.7677C15.55 22.7777 15.49 22.7977 15.42 22.8177L15.24 22.8777L15.06 22.9677C15 22.9977 14.95 23.0277 14.89 23.0677C14.84 23.0977 14.79 23.1377 14.74 23.1777C14.68 23.2177 14.64 23.2677 14.59 23.3077C14.5 23.4077 14.41 23.5077 14.34 23.6177C14.27 23.7277 14.2 23.8377 14.15 23.9577C14.1 24.0777 14.07 24.2077 14.04 24.3377C14.01 24.4677 14 24.5977 14 24.7277C14 24.8577 14.01 24.9877 14.04 25.1177C14.06 25.2477 14.1 25.3677 14.15 25.4877C14.2 25.6077 14.26 25.7277 14.33 25.8377C14.41 25.9477 14.49 26.0477 14.58 26.1377L18.39 29.9677C18.77 30.3477 19.21 30.6377 19.7 30.8477C20.19 31.0477 20.71 31.1477 21.24 31.1477C21.78 31.1477 22.29 31.0377 22.79 30.8277C23.29 30.6177 23.72 30.3277 24.09 29.9477L33.43 20.3977Z" fill-rule="evenodd"  fill="#000000" >
</path>
</svg>
