<svg xmlns="http://www.w3.org/2000/svg" xmlns:xlink="http://www.w3.org/1999/xlink" width="48" height="48" viewBox="0 0 48 48" fill="none">
<path d="M31.57 29.1677C31.55 29.1077 31.53 29.0477 31.5 28.9877C31.48 28.9277 31.45 28.8677 31.42 28.8077C31.39 28.7477 31.35 28.6977 31.32 28.6377L31.2 28.4877C31.16 28.4277 31.11 28.3877 31.07 28.3377L28.24 31.1677C28.29 31.2077 28.33 31.2577 28.38 31.2977C28.44 31.3377 28.49 31.3777 28.54 31.4177C28.6 31.4477 28.65 31.4877 28.71 31.5177C28.77 31.5477 28.83 31.5777 28.89 31.5977C28.95 31.6277 29.01 31.6477 29.07 31.6677C29.14 31.6877 29.2 31.6977 29.26 31.7177C29.33 31.7277 29.39 31.7377 29.46 31.7377C29.52 31.7477 29.59 31.7477 29.65 31.7477C29.72 31.7477 29.78 31.7477 29.85 31.7377C29.91 31.7377 29.98 31.7277 30.04 31.7177C30.11 31.6977 30.17 31.6877 30.23 31.6677C30.3 31.6477 30.36 31.6277 30.42 31.5977C30.48 31.5777 30.54 31.5477 30.6 31.5177C30.65 31.4877 30.71 31.4477 30.76 31.4177C30.82 31.3777 30.87 31.3377 30.92 31.2977C30.97 31.2577 31.02 31.2077 31.07 31.1677C31.11 31.1177 31.16 31.0677 31.2 31.0177C31.24 30.9677 31.28 30.9177 31.32 30.8577C31.35 30.8077 31.39 30.7477 31.42 30.6977C31.45 30.6377 31.48 30.5777 31.5 30.5177C31.53 30.4577 31.55 30.3977 31.57 30.3277C31.59 30.2677 31.6 30.2077 31.62 30.1377C31.63 30.0777 31.64 30.0177 31.64 29.9477C31.65 29.8777 31.65 29.8177 31.65 29.7477C31.65 29.6877 31.65 29.6177 31.64 29.5577C31.64 29.4877 31.63 29.4277 31.62 29.3577C31.6 29.2977 31.59 29.2377 31.57 29.1677ZM29.07 16.5277L28.89 16.5877L28.71 16.6777C28.65 16.7077 28.6 16.7377 28.54 16.7777C28.49 16.8077 28.43 16.8477 28.38 16.8877C28.33 16.9377 28.28 16.9777 28.24 17.0277L31.07 19.8477C31.16 19.7577 31.24 19.6577 31.32 19.5477C31.39 19.4377 31.45 19.3277 31.5 19.2077C31.55 19.0777 31.59 18.9577 31.61 18.8277C31.64 18.6977 31.65 18.5677 31.65 18.4377C31.65 18.3077 31.64 18.1777 31.61 18.0477C31.59 17.9177 31.55 17.7977 31.5 17.6677C31.45 17.5477 31.39 17.4377 31.32 17.3277C31.24 17.2177 31.16 17.1177 31.07 17.0277C31.02 16.9777 30.97 16.9377 30.92 16.8877C30.87 16.8477 30.82 16.8077 30.76 16.7777C30.71 16.7377 30.65 16.7077 30.6 16.6777L30.42 16.5877C30.36 16.5677 30.3 16.5477 30.23 16.5277C30.17 16.5077 30.11 16.4877 30.04 16.4777C29.98 16.4677 29.91 16.4577 29.85 16.4477C29.78 16.4377 29.72 16.4377 29.65 16.4377C29.59 16.4377 29.52 16.4377 29.46 16.4477C29.39 16.4577 29.33 16.4677 29.26 16.4777C29.2 16.4877 29.13 16.5077 29.07 16.5277ZM19.45 16.7777C19.34 16.6977 19.23 16.6377 19.11 16.5877C18.98 16.5377 18.86 16.4977 18.73 16.4777C18.6 16.4477 18.47 16.4377 18.34 16.4377C18.21 16.4377 18.08 16.4477 17.95 16.4777C17.82 16.4977 17.7 16.5377 17.57 16.5877C17.45 16.6377 17.34 16.6977 17.23 16.7777C17.12 16.8477 17.02 16.9277 16.93 17.0277C16.83 17.1177 16.75 17.2177 16.68 17.3277C16.6 17.4377 16.54 17.5477 16.49 17.6677C16.44 17.7977 16.4 17.9177 16.38 18.0477C16.35 18.1777 16.34 18.3077 16.34 18.4377C16.34 18.5677 16.35 18.6977 16.38 18.8277C16.4 18.9577 16.44 19.0777 16.49 19.2077C16.54 19.3277 16.6 19.4377 16.68 19.5477C16.75 19.6577 16.83 19.7577 16.93 19.8477L21.18 24.0877L16.93 28.3377L19.75 31.1577L24 26.9077L28.24 31.1577L31.06 28.3377L26.82 24.0877L31.06 19.8477L28.24 17.0277L24 21.2677L19.75 17.0277C19.66 16.9277 19.56 16.8477 19.45 16.7777ZM42 12.1077C42 11.4277 41.89 10.7677 41.66 10.1277C41.45 9.50768 41.13 8.93768 40.73 8.41768C40.32 7.89768 39.84 7.45768 39.29 7.09768C38.73 6.72768 38.12 6.45768 37.46 6.28768L25.45 3.29768C24.48 3.05768 23.51 3.05768 22.54 3.29768L10.55 6.28768C9.89 6.45768 9.27 6.72768 8.71 7.09768C8.16 7.45768 7.68 7.89768 7.27 8.41768C6.87 8.93768 6.55 9.50768 6.34 10.1277C6.11 10.7677 6 11.4277 6 12.1077L6 25.9877C6 29.6877 6.88 32.9477 8.63 35.7577C10.04 38.0377 11.99 39.9577 14.46 41.5277C16.23 42.6477 18.2 43.5377 20.36 44.1977C21.55 44.5677 22.63 44.8177 23.61 44.9677C23.87 45.0077 24.13 45.0077 24.39 44.9677C25.37 44.8177 26.45 44.5677 27.64 44.1977C29.8 43.5377 31.77 42.6477 33.54 41.5277C36.01 39.9577 37.96 38.0377 39.37 35.7577C41.12 32.9477 42 29.6877 42 25.9877L42 12.1077ZM38 12.1077C38 11.6477 37.86 11.2377 37.58 10.8777C37.29 10.5177 36.93 10.2777 36.48 10.1677L24.49 7.17768C24.16 7.09768 23.84 7.09768 23.52 7.17768L11.51 10.1677C11.07 10.2877 10.71 10.5177 10.42 10.8777C10.14 11.2377 10 11.6477 10 12.1077L10 25.9877C10 28.9277 10.67 31.4777 12.02 33.6477C13.12 35.4077 14.64 36.9077 16.6 38.1477C18.07 39.0777 19.71 39.8177 21.53 40.3777C22.14 40.5677 22.74 40.7177 23.33 40.8477C23.58 40.8977 23.8 40.9377 24 40.9777C24.2 40.9377 24.42 40.8977 24.67 40.8477C25.26 40.7177 25.86 40.5677 26.47 40.3777C28.29 39.8177 29.93 39.0777 31.4 38.1477C33.36 36.9077 34.88 35.4077 35.98 33.6477C37.33 31.4777 38 28.9277 38 25.9877L38 12.1077ZM18.54 31.7477C18.6 31.7377 18.67 31.7277 18.73 31.7177C18.79 31.6977 18.86 31.6877 18.92 31.6677C18.98 31.6477 19.05 31.6277 19.11 31.5977C19.17 31.5777 19.23 31.5477 19.28 31.5177C19.34 31.4877 19.4 31.4477 19.45 31.4177C19.51 31.3777 19.56 31.3377 19.61 31.2977C19.66 31.2577 19.71 31.2177 19.75 31.1677L16.93 28.3377C16.88 28.3877 16.84 28.4377 16.79 28.4877C16.75 28.5377 16.71 28.5877 16.68 28.6377C16.64 28.6977 16.61 28.7477 16.58 28.8077L16.49 28.9877L16.43 29.1677C16.41 29.2377 16.39 29.2977 16.38 29.3577C16.37 29.4277 16.36 29.4877 16.35 29.5577C16.34 29.6177 16.34 29.6877 16.34 29.7577C16.34 29.8177 16.34 29.8877 16.35 29.9477C16.36 30.0177 16.37 30.0777 16.38 30.1477C16.39 30.2077 16.41 30.2677 16.43 30.3377L16.49 30.5177L16.58 30.6977C16.61 30.7577 16.64 30.8077 16.68 30.8677C16.71 30.9177 16.75 30.9677 16.79 31.0177C16.84 31.0677 16.88 31.1177 16.93 31.1677C16.97 31.2177 17.02 31.2577 17.07 31.2977C17.12 31.3377 17.17 31.3777 17.23 31.4177C17.28 31.4477 17.34 31.4877 17.4 31.5177C17.46 31.5477 17.51 31.5777 17.57 31.5977C17.64 31.6277 17.7 31.6477 17.76 31.6677C17.82 31.6877 17.89 31.6977 17.95 31.7177C18.01 31.7277 18.08 31.7377 18.14 31.7477L18.54 31.7477Z" fill-rule="evenodd"  fill="#000000" >
</path>
</svg>
