<svg xmlns="http://www.w3.org/2000/svg" xmlns:xlink="http://www.w3.org/1999/xlink" width="48" height="48" viewBox="0 0 48 48" fill="none">
<path d="M44 36L44 12C44 7.58 40.42 4 36 4L12 4C7.58 4 4 7.58 4 12L4 36C4 40.42 7.58 44 12 44L36 44C40.42 44 44 40.42 44 36ZM40 12C40 9.79 38.21 8 36 8L12 8C9.79 8 8 9.79 8 12L8 36C8 38.21 9.79 40 12 40L36 40C38.21 40 40 38.21 40 36L40 12ZM12 14C13.1 14 14 13.1 14 12C14 10.9 13.1 10 12 10C10.9 10 10 10.9 10 12C10 13.1 10.9 14 12 14ZM36 14C37.1 14 38 13.1 38 12C38 10.9 37.1 10 36 10C34.9 10 34 10.9 34 12C34 13.1 34.9 14 36 14ZM22 22.29C19.11 23.15 17 25.83 17 29C17 32.87 20.13 36 24 36C27.87 36 31 32.87 31 29C31 25.83 28.89 23.15 26 22.29L26 14C26 12.9 25.1 12 24 12C22.9 12 22 12.9 22 14L22 22.29ZM27 29C27 27.34 25.66 26 24 26C22.34 26 21 27.34 21 29C21 30.66 22.34 32 24 32C25.66 32 27 30.66 27 29ZM12 38C13.1 38 14 37.1 14 36C14 34.9 13.1 34 12 34C10.9 34 10 34.9 10 36C10 37.1 10.9 38 12 38ZM34 36C34 37.1 34.9 38 36 38C37.1 38 38 37.1 38 36C38 34.9 37.1 34 36 34C34.9 34 34 34.9 34 36Z" fill-rule="evenodd"  fill="#000000" >
</path>
</svg>
