<svg xmlns="http://www.w3.org/2000/svg" xmlns:xlink="http://www.w3.org/1999/xlink" width="48" height="48" viewBox="0 0 48 48" fill="none">
<path d="M23.26 45.87C23.75 46.01 24.25 46.01 24.74 45.87C25.72 45.62 26.77 45.26 27.89 44.8C29.76 44.03 31.44 43.1 32.95 42.02C35.01 40.54 36.63 38.84 37.8 36.92C39.27 34.53 40 31.89 40 28.99L40 23.29C40 22.71 39.92 22.14 39.75 21.58C39.59 21.03 39.35 20.52 39.04 20.04C38.73 19.56 38.36 19.13 37.93 18.76C37.49 18.38 37.01 18.07 36.48 17.83L36.47 17.83L32.82 16.18L26.4 13.37C25.64 13.03 24.84 12.86 24 12.86C23.16 12.86 22.36 13.03 21.59 13.37L18 14.94L18 12C18 11.18 18.16 10.41 18.47 9.66C18.77 8.95 19.2 8.31 19.76 7.76C20.31 7.2 20.95 6.77 21.66 6.47C22.41 6.16 23.18 6 24 6C24.8 6 25.6 6.16 26.42 6.49C27.09 6.76 27.67 7.09 28.16 7.48C28.52 7.8 28.99 8 29.5 8C30.6 8 31.5 7.1 31.5 6C31.5 5.34 31.18 4.76 30.69 4.39C29.89 3.74 28.96 3.19 27.9 2.78C26.61 2.26 25.31 2 24 2C22.64 2 21.35 2.26 20.11 2.79C18.91 3.29 17.85 4.01 16.93 4.93C16.01 5.85 15.29 6.91 14.79 8.11C14.26 9.35 14 10.64 14 12L14 16.71L11.53 17.83C10.99 18.07 10.51 18.38 10.07 18.76C9.64 19.13 9.27 19.56 8.96 20.04C8.65 20.52 8.41 21.03 8.25 21.58C8.08 22.14 8 22.71 8 23.29L8 28.99C8 31.89 8.73 34.53 10.2 36.92C11.37 38.84 12.99 40.54 15.05 42.02C16.56 43.1 18.24 44.03 20.11 44.8C21.23 45.26 22.28 45.62 23.26 45.87ZM23.21 17.03L16.8 19.83L13.17 21.47C12.82 21.63 12.53 21.88 12.32 22.21C12.11 22.54 12 22.9 12 23.29L12 28.99C12 32.93 13.8 36.19 17.39 38.77C18.64 39.67 20.06 40.45 21.64 41.1C22.48 41.45 23.27 41.73 24 41.93C24.73 41.73 25.52 41.45 26.36 41.1C27.94 40.45 29.36 39.67 30.61 38.77C34.2 36.19 36 32.93 36 28.99L36 23.29C36 22.9 35.89 22.54 35.68 22.21C35.47 21.88 35.18 21.64 34.83 21.47L34.82 21.47L31.18 19.82L24.8 17.03C24.54 16.92 24.28 16.86 24 16.86C23.72 16.86 23.46 16.92 23.21 17.03Z" fill-rule="evenodd"  fill="#000000" >
</path>
</svg>
