<svg xmlns="http://www.w3.org/2000/svg" xmlns:xlink="http://www.w3.org/1999/xlink" width="48" height="48" viewBox="0 0 48 48" fill="none">
<path d="M23.61 44.9606C23.87 45.0106 24.13 45.0106 24.39 44.9606C27.61 44.4906 30.66 43.3406 33.54 41.5206C39.18 37.9606 42 32.7806 42 25.9906L42 12.1106C42 9.36061 40.13 6.97061 37.46 6.29061L25.45 3.30061C24.5 3.06061 23.5 3.06061 22.54 3.30061L10.55 6.29061C7.88 6.96061 6 9.36061 6 12.1106L6 25.9906C6 32.7806 8.82 37.9606 14.46 41.5206C17.34 43.3406 20.39 44.4906 23.61 44.9606ZM38 25.9906L38 12.1106C38 11.1906 37.37 10.3906 36.48 10.1706L24.49 7.18061C24.17 7.10061 23.83 7.10061 23.52 7.18061L11.51 10.1706C10.63 10.3906 10 11.1906 10 12.1106L10 25.9906C10 31.3106 12.2 35.3606 16.6 38.1406C18.94 39.6206 21.41 40.5706 24 40.9806C26.59 40.5706 29.06 39.6206 31.4 38.1406C35.8 35.3606 38 31.3106 38 25.9906ZM24 37.0006C31.18 37.0006 37 31.1806 37 24.0006C37 16.8206 31.18 11.0006 24 11.0006C16.82 11.0006 11 16.8206 11 24.0006C11 31.1806 16.82 37.0006 24 37.0006ZM32.78 26.0006L29.94 26.0006C29.83 28.0106 29.52 29.8306 29.04 31.4606C30.9 30.2006 32.26 28.2606 32.78 26.0006ZM29.04 16.5406C29.52 18.1706 29.83 19.9906 29.94 22.0006L32.78 22.0006C32.26 19.7406 30.9 17.8006 29.04 16.5406ZM18.06 26.0006L15.22 26.0006C15.74 28.2606 17.1 30.2006 18.96 31.4606C18.48 29.8306 18.17 28.0106 18.06 26.0006ZM18.06 22.0006C18.17 19.9906 18.48 18.1706 18.96 16.5406C17.1 17.8006 15.74 19.7406 15.22 22.0006L18.06 22.0006ZM24.95 16.9006C24.66 16.1206 24.36 15.5406 24.04 15.1706C24.03 15.1506 24.01 15.1406 24 15.1206C23.99 15.1406 23.97 15.1506 23.96 15.1706C23.64 15.5406 23.34 16.1206 23.05 16.9006C22.73 17.7906 22.47 18.8306 22.29 20.0206C22.19 20.6606 22.12 21.3206 22.07 22.0006L25.93 22.0006C25.88 21.3206 25.81 20.6606 25.71 20.0206C25.53 18.8306 25.27 17.7906 24.95 16.9006ZM23.05 31.1006C23.34 31.8806 23.64 32.4606 23.96 32.8306C23.97 32.8506 23.99 32.8606 24 32.8806C24.01 32.8606 24.03 32.8506 24.04 32.8306C24.36 32.4606 24.66 31.8806 24.95 31.1006C25.27 30.2106 25.53 29.1706 25.71 27.9806C25.81 27.3406 25.88 26.6806 25.93 26.0006L22.07 26.0006C22.12 26.6806 22.19 27.3406 22.29 27.9806C22.47 29.1706 22.73 30.2106 23.05 31.1006Z" fill-rule="evenodd"  fill="#000000" >
</path>
</svg>
