<svg xmlns="http://www.w3.org/2000/svg" xmlns:xlink="http://www.w3.org/1999/xlink" width="48" height="48" viewBox="0 0 48 48" fill="none">
<path d="M37 37L37 21L31.5 21C30.42 21 29.38 20.79 28.39 20.37C27.55 20.02 26.8 19.53 26.13 18.92C26.03 18.84 25.94 18.75 25.84 18.66C25.15 17.96 24.61 17.18 24.21 16.29C24.18 16.23 24.16 16.17 24.13 16.11C23.74 15.18 23.53 14.21 23.5 13.2L23.5 7L15 7C14.46 7 13.94 7.1 13.45 7.31C12.97 7.52 12.54 7.8 12.17 8.17C11.8 8.54 11.52 8.97 11.31 9.45C11.1 9.94 11 10.46 11 11L11 37C11 37.54 11.1 38.06 11.31 38.55C11.52 39.03 11.8 39.46 12.17 39.83C12.54 40.2 12.97 40.48 13.45 40.69C13.94 40.9 14.46 41 15 41L33 41C33.54 41 34.06 40.9 34.55 40.69C35.03 40.48 35.46 40.2 35.83 39.83C36.2 39.46 36.48 39.03 36.69 38.55C36.9 38.06 37 37.54 37 37ZM33 45C34.08 45 35.12 44.79 36.11 44.37C37.07 43.96 37.92 43.39 38.66 42.66C39.39 41.92 39.96 41.07 40.37 40.11C40.79 39.12 41 38.08 41 37L41 17L40.97 17C40.91 16.44 40.78 15.89 40.57 15.36C40.28 14.65 39.87 14.01 39.33 13.46L31.13 4.86C30.57 4.27 29.91 3.81 29.15 3.49C28.62 3.26 28.07 3.11 27.5 3.04L27.5 3L15 3C13.92 3 12.88 3.21 11.89 3.63C10.93 4.04 10.08 4.61 9.34 5.34C8.61 6.08 8.04 6.93 7.63 7.89C7.21 8.88 7 9.92 7 11L7 37C7 38.08 7.21 39.12 7.63 40.11C8.04 41.07 8.61 41.92 9.34 42.66C10.08 43.39 10.93 43.96 11.89 44.37C12.88 44.79 13.92 45 15 45L33 45ZM31.11 29.04C31.05 29.05 30.98 29.07 30.92 29.09C30.86 29.11 30.8 29.13 30.73 29.15C30.67 29.18 30.61 29.21 30.56 29.24C30.5 29.27 30.44 29.3 30.39 29.34C30.33 29.37 30.28 29.41 30.23 29.45C30.18 29.5 30.13 29.54 30.09 29.59C30.04 29.63 30 29.68 29.95 29.73C29.91 29.78 29.87 29.83 29.84 29.89C29.8 29.94 29.77 30 29.74 30.06C29.71 30.11 29.68 30.17 29.65 30.23C29.63 30.3 29.61 30.36 29.59 30.42C29.57 30.48 29.55 30.55 29.54 30.61C29.53 30.67 29.52 30.74 29.51 30.8C29.5 30.87 29.5 30.93 29.5 31L29.5 37C29.5 37.07 29.5 37.13 29.51 37.2C29.52 37.26 29.53 37.33 29.54 37.39C29.55 37.45 29.57 37.52 29.59 37.58C29.61 37.64 29.63 37.7 29.65 37.77C29.68 37.83 29.71 37.89 29.74 37.94C29.77 38 29.8 38.06 29.84 38.11C29.87 38.17 29.91 38.22 29.95 38.27C30 38.32 30.04 38.37 30.09 38.41C30.13 38.46 30.18 38.5 30.23 38.55C30.28 38.59 30.33 38.63 30.39 38.66C30.44 38.7 30.5 38.73 30.56 38.76C30.61 38.79 30.67 38.82 30.73 38.85C30.8 38.87 30.86 38.89 30.92 38.91C30.98 38.93 31.05 38.95 31.11 38.96C31.17 38.97 31.24 38.98 31.3 38.99C31.37 39 31.43 39 31.5 39C31.57 39 31.63 39 31.7 38.99C31.76 38.98 31.83 38.97 31.89 38.96C31.95 38.95 32.02 38.93 32.08 38.91C32.14 38.89 32.2 38.87 32.27 38.85C32.33 38.82 32.39 38.79 32.44 38.76C32.5 38.73 32.56 38.7 32.61 38.66C32.67 38.63 32.72 38.59 32.77 38.55C32.82 38.5 32.87 38.46 32.91 38.41C32.96 38.37 33 38.32 33.05 38.27C33.09 38.22 33.13 38.17 33.16 38.11C33.2 38.06 33.23 38 33.26 37.94C33.29 37.89 33.32 37.83 33.35 37.77C33.37 37.7 33.39 37.64 33.41 37.58C33.43 37.52 33.45 37.45 33.46 37.39C33.47 37.33 33.48 37.26 33.49 37.2C33.5 37.13 33.5 37.07 33.5 37L33.5 31C33.5 30.93 33.5 30.87 33.49 30.8C33.48 30.74 33.47 30.67 33.46 30.61C33.45 30.55 33.43 30.48 33.41 30.42C33.39 30.36 33.37 30.3 33.35 30.23C33.32 30.17 33.29 30.11 33.26 30.06C33.23 30 33.2 29.94 33.16 29.89C33.13 29.83 33.09 29.78 33.05 29.73C33 29.68 32.96 29.63 32.91 29.59C32.87 29.54 32.82 29.5 32.77 29.45C32.72 29.41 32.67 29.37 32.61 29.34C32.56 29.3 32.5 29.27 32.44 29.24C32.39 29.21 32.33 29.18 32.27 29.15C32.2 29.13 32.14 29.11 32.08 29.09C32.02 29.07 31.95 29.05 31.89 29.04C31.83 29.03 31.76 29.02 31.7 29.01C31.63 29 31.57 29 31.5 29C31.43 29 31.37 29 31.3 29.01C31.24 29.02 31.17 29.03 31.11 29.04ZM22.08 31L20.5 25.85L18.92 31L22.08 31ZM16.54 38.27C16.58 38.22 16.62 38.17 16.66 38.11C16.7 38.06 16.73 38 16.76 37.95L16.85 37.77C16.87 37.71 16.89 37.65 16.91 37.58L17.7 35L23.3 35L24.09 37.58C24.13 37.71 24.18 37.83 24.24 37.95C24.3 38.06 24.37 38.17 24.46 38.27C24.54 38.37 24.63 38.47 24.73 38.55C24.84 38.63 24.94 38.7 25.06 38.77C25.18 38.83 25.3 38.88 25.42 38.92C25.55 38.95 25.68 38.98 25.81 38.99C25.94 39 26.07 39 26.2 38.99C26.33 38.98 26.46 38.95 26.58 38.91C26.71 38.87 26.83 38.82 26.95 38.76C27.06 38.7 27.17 38.63 27.27 38.54C27.37 38.46 27.47 38.37 27.55 38.27C27.63 38.16 27.7 38.06 27.77 37.94C27.83 37.82 27.88 37.7 27.92 37.58C27.95 37.45 27.98 37.32 27.99 37.19C28 37.06 28 36.93 27.99 36.8C27.98 36.67 27.95 36.54 27.91 36.42L24.32 24.68C24.19 24.26 24 23.87 23.75 23.52C23.51 23.18 23.22 22.88 22.88 22.63C22.54 22.38 22.17 22.19 21.76 22.05C21.36 21.92 20.93 21.85 20.5 21.85C20.07 21.85 19.65 21.92 19.24 22.05C18.83 22.19 18.46 22.38 18.12 22.63C17.78 22.88 17.49 23.18 17.25 23.52C17 23.87 16.81 24.26 16.68 24.67L13.09 36.42C13.07 36.48 13.05 36.54 13.04 36.61C13.03 36.67 13.02 36.73 13.01 36.8C13 36.87 13 36.93 13 37C13 37.06 13 37.13 13.01 37.19C13.02 37.26 13.02 37.32 13.04 37.39C13.05 37.45 13.07 37.51 13.08 37.58C13.1 37.64 13.13 37.7 13.15 37.76C13.18 37.82 13.2 37.88 13.23 37.94C13.27 38 13.3 38.05 13.33 38.11C13.37 38.16 13.41 38.21 13.45 38.27C13.49 38.32 13.54 38.36 13.58 38.41C13.63 38.46 13.68 38.5 13.73 38.54C13.78 38.59 13.83 38.62 13.89 38.66C13.94 38.7 14 38.73 14.05 38.76L14.23 38.85C14.29 38.87 14.35 38.89 14.42 38.91C14.48 38.93 14.54 38.95 14.61 38.96C14.67 38.97 14.73 38.98 14.8 38.99C14.87 39 14.93 39 15 39C15.06 39 15.13 39 15.19 38.99C15.26 38.98 15.32 38.98 15.39 38.96C15.45 38.95 15.51 38.93 15.58 38.92C15.64 38.9 15.7 38.87 15.76 38.85C15.82 38.82 15.88 38.8 15.94 38.77C16 38.74 16.05 38.7 16.11 38.67C16.16 38.63 16.21 38.59 16.27 38.55C16.32 38.51 16.36 38.46 16.41 38.42C16.46 38.37 16.5 38.32 16.54 38.27ZM36.45 16.22L28.23 7.62C28.05 7.42 27.83 7.27 27.57 7.16C27.55 7.15 27.52 7.14 27.5 7.13L27.5 13C27.5 13.54 27.6 14.06 27.81 14.55C28.02 15.03 28.3 15.46 28.67 15.83C29.04 16.2 29.47 16.48 29.95 16.69C30.44 16.9 30.96 17 31.5 17L36.91 17C36.89 16.95 36.87 16.91 36.86 16.86C36.76 16.62 36.62 16.41 36.45 16.22ZM31.5 27.5C32.88 27.5 34 26.38 34 25C34 23.62 32.88 22.5 31.5 22.5C30.12 22.5 29 23.62 29 25C29 26.38 30.12 27.5 31.5 27.5Z" fill-rule="evenodd"  fill="#000000" >
</path>
</svg>
