<svg xmlns="http://www.w3.org/2000/svg" xmlns:xlink="http://www.w3.org/1999/xlink" width="48" height="48" viewBox="0 0 48 48" fill="none">
<path d="M21.58 4.7C20.54 4.23 19.45 4 18.31 4L11 4C9.92 4 8.88 4.21 7.89 4.63C6.93 5.04 6.08 5.61 5.34 6.34C4.61 7.08 4.04 7.93 3.63 8.89C3.21 9.88 3 10.92 3 12L3 37L3.06 37C3.15 37.72 3.34 38.43 3.63 39.11C4.04 40.07 4.61 40.92 5.34 41.66C6.08 42.39 6.93 42.96 7.89 43.37C8.88 43.79 9.92 44 11 44L37 44C38.08 44 39.12 43.79 40.11 43.37C41.07 42.96 41.92 42.39 42.66 41.66C43.39 40.92 43.96 40.07 44.37 39.11C44.66 38.43 44.85 37.72 44.94 37L45 37L45 20L44.94 20C44.85 19.28 44.66 18.57 44.37 17.89C43.96 16.93 43.39 16.08 42.66 15.34C41.92 14.61 41.07 14.04 40.11 13.63C39.12 13.21 38.08 13 37 13L29.9 13L24.29 6.68C23.52 5.83 22.62 5.17 21.58 4.7ZM7 33L14 33L14 30C14 29.93 14 29.87 14.01 29.8C14.02 29.74 14.03 29.67 14.04 29.61C14.05 29.55 14.07 29.48 14.09 29.42C14.11 29.36 14.13 29.3 14.15 29.23C14.18 29.17 14.21 29.11 14.24 29.06C14.27 29 14.3 28.94 14.34 28.89C14.37 28.83 14.41 28.78 14.45 28.73C14.5 28.68 14.54 28.63 14.59 28.59C14.63 28.54 14.68 28.5 14.73 28.45C14.78 28.41 14.83 28.37 14.89 28.34C14.94 28.3 15 28.27 15.06 28.24C15.11 28.21 15.17 28.18 15.23 28.15C15.3 28.13 15.36 28.11 15.42 28.09C15.48 28.07 15.55 28.05 15.61 28.04C15.67 28.03 15.74 28.02 15.8 28.01C15.87 28 15.93 28 16 28C16.07 28 16.13 28 16.2 28.01C16.26 28.02 16.33 28.03 16.39 28.04C16.45 28.05 16.52 28.07 16.58 28.09C16.64 28.11 16.7 28.13 16.77 28.15C16.83 28.18 16.89 28.21 16.94 28.24C17 28.27 17.06 28.3 17.11 28.34C17.17 28.37 17.22 28.41 17.27 28.45C17.32 28.5 17.37 28.54 17.41 28.59C17.46 28.63 17.5 28.68 17.55 28.73C17.59 28.78 17.63 28.83 17.66 28.89C17.7 28.94 17.73 29 17.76 29.06C17.79 29.11 17.82 29.17 17.85 29.23C17.87 29.3 17.89 29.36 17.91 29.42C17.93 29.48 17.95 29.55 17.96 29.61C17.97 29.67 17.98 29.74 17.99 29.8C18 29.87 18 29.93 18 30L18 33L22 33L22 30C22 29.93 22 29.87 22.01 29.8C22.02 29.74 22.03 29.67 22.04 29.61C22.05 29.55 22.07 29.48 22.09 29.42C22.11 29.36 22.13 29.3 22.15 29.23C22.18 29.17 22.21 29.11 22.24 29.06C22.27 29 22.3 28.94 22.34 28.89C22.37 28.83 22.41 28.78 22.45 28.73C22.5 28.68 22.54 28.63 22.59 28.59C22.63 28.54 22.68 28.5 22.73 28.45C22.78 28.41 22.83 28.37 22.89 28.34C22.94 28.3 23 28.27 23.06 28.24C23.11 28.21 23.17 28.18 23.23 28.15C23.3 28.13 23.36 28.11 23.42 28.09C23.48 28.07 23.55 28.05 23.61 28.04C23.67 28.03 23.74 28.02 23.8 28.01C23.87 28 23.93 28 24 28C24.07 28 24.13 28 24.2 28.01C24.26 28.02 24.33 28.03 24.39 28.04C24.45 28.05 24.52 28.07 24.58 28.09C24.64 28.11 24.7 28.13 24.77 28.15C24.83 28.18 24.89 28.21 24.94 28.24C25 28.27 25.06 28.3 25.11 28.34C25.17 28.37 25.22 28.41 25.27 28.45C25.32 28.5 25.37 28.54 25.41 28.59C25.46 28.63 25.5 28.68 25.55 28.73C25.59 28.78 25.63 28.83 25.66 28.89C25.7 28.94 25.73 29 25.76 29.06C25.79 29.11 25.82 29.17 25.85 29.23C25.87 29.3 25.89 29.36 25.91 29.42C25.93 29.48 25.95 29.55 25.96 29.61C25.97 29.67 25.98 29.74 25.99 29.8C26 29.87 26 29.93 26 30L26 33L30 33L30 30C30 29.93 30 29.87 30.01 29.8C30.02 29.74 30.03 29.67 30.04 29.61C30.05 29.55 30.07 29.48 30.09 29.42C30.11 29.36 30.13 29.3 30.15 29.23C30.18 29.17 30.21 29.11 30.24 29.06C30.27 29 30.3 28.94 30.34 28.89C30.37 28.83 30.41 28.78 30.45 28.73C30.5 28.68 30.54 28.63 30.59 28.59C30.63 28.54 30.68 28.5 30.73 28.45C30.78 28.41 30.83 28.37 30.89 28.34C30.94 28.3 31 28.27 31.06 28.24C31.11 28.21 31.17 28.18 31.23 28.15C31.3 28.13 31.36 28.11 31.42 28.09C31.48 28.07 31.55 28.05 31.61 28.04C31.67 28.03 31.74 28.02 31.8 28.01C31.87 28 31.93 28 32 28C32.07 28 32.13 28 32.2 28.01C32.26 28.02 32.33 28.03 32.39 28.04C32.45 28.05 32.52 28.07 32.58 28.09C32.64 28.11 32.7 28.13 32.77 28.15C32.83 28.18 32.89 28.21 32.94 28.24C33 28.27 33.06 28.3 33.11 28.34C33.17 28.37 33.22 28.41 33.27 28.45C33.32 28.5 33.37 28.54 33.41 28.59C33.46 28.63 33.5 28.68 33.55 28.73C33.59 28.78 33.63 28.83 33.66 28.89C33.7 28.94 33.73 29 33.76 29.06C33.79 29.11 33.82 29.17 33.85 29.23C33.87 29.3 33.89 29.36 33.91 29.42C33.93 29.48 33.95 29.55 33.96 29.61C33.97 29.67 33.98 29.74 33.99 29.8C34 29.87 34 29.93 34 30L34 33L41 33L41 24L38 24L38 27C38 27.07 38 27.13 37.99 27.2C37.98 27.26 37.97 27.33 37.96 27.39C37.95 27.45 37.93 27.52 37.91 27.58C37.89 27.64 37.87 27.7 37.85 27.77C37.82 27.83 37.79 27.88 37.76 27.94C37.73 28 37.7 28.06 37.66 28.11C37.63 28.17 37.59 28.22 37.55 28.27C37.5 28.32 37.46 28.37 37.41 28.41C37.37 28.46 37.32 28.5 37.27 28.55C37.22 28.59 37.17 28.63 37.11 28.66C37.06 28.7 37 28.73 36.94 28.76C36.89 28.79 36.83 28.82 36.77 28.85C36.7 28.87 36.64 28.89 36.58 28.91C36.52 28.93 36.45 28.95 36.39 28.96C36.33 28.97 36.26 28.98 36.2 28.99C36.13 29 36.07 29 36 29C35.93 29 35.87 29 35.8 28.99C35.74 28.98 35.67 28.97 35.61 28.96C35.55 28.95 35.48 28.93 35.42 28.91C35.36 28.89 35.3 28.87 35.23 28.85C35.17 28.82 35.11 28.79 35.06 28.76C35 28.73 34.94 28.7 34.89 28.66C34.83 28.63 34.78 28.59 34.73 28.55C34.68 28.5 34.63 28.46 34.59 28.41C34.54 28.37 34.5 28.32 34.45 28.27C34.41 28.22 34.37 28.17 34.34 28.11C34.3 28.06 34.27 28 34.24 27.94C34.21 27.88 34.18 27.83 34.15 27.77C34.13 27.7 34.11 27.64 34.09 27.58C34.07 27.52 34.05 27.45 34.04 27.39C34.03 27.33 34.02 27.26 34.01 27.2C34 27.13 34 27.07 34 27L34 24L30 24L30 27C30 27.07 30 27.13 29.99 27.2C29.98 27.26 29.97 27.33 29.96 27.39C29.95 27.45 29.93 27.52 29.91 27.58C29.89 27.64 29.87 27.7 29.85 27.77C29.82 27.83 29.79 27.88 29.76 27.94C29.73 28 29.7 28.06 29.66 28.11C29.63 28.17 29.59 28.22 29.55 28.27C29.5 28.32 29.46 28.37 29.41 28.41C29.37 28.46 29.32 28.5 29.27 28.55C29.22 28.59 29.17 28.63 29.11 28.66C29.06 28.7 29 28.73 28.94 28.76C28.89 28.79 28.83 28.82 28.77 28.85C28.7 28.87 28.64 28.89 28.58 28.91C28.52 28.93 28.45 28.95 28.39 28.96C28.33 28.97 28.26 28.98 28.2 28.99C28.13 29 28.07 29 28 29C27.93 29 27.87 29 27.8 28.99C27.74 28.98 27.67 28.97 27.61 28.96C27.55 28.95 27.48 28.93 27.42 28.91C27.36 28.89 27.3 28.87 27.23 28.85C27.17 28.82 27.11 28.79 27.06 28.76C27 28.73 26.94 28.7 26.89 28.66C26.83 28.63 26.78 28.59 26.73 28.55C26.68 28.5 26.63 28.46 26.59 28.41C26.54 28.37 26.5 28.32 26.45 28.27C26.41 28.22 26.37 28.17 26.34 28.11C26.3 28.06 26.27 28 26.24 27.94C26.21 27.88 26.18 27.83 26.15 27.77C26.13 27.7 26.11 27.64 26.09 27.58C26.07 27.52 26.05 27.45 26.04 27.39C26.03 27.33 26.02 27.26 26.01 27.2C26 27.13 26 27.07 26 27L26 24L22 24L22 27C22 27.07 22 27.13 21.99 27.2C21.98 27.26 21.97 27.33 21.96 27.39C21.95 27.45 21.93 27.52 21.91 27.58C21.89 27.64 21.87 27.7 21.85 27.77C21.82 27.83 21.79 27.88 21.76 27.94C21.73 28 21.7 28.06 21.66 28.11C21.63 28.17 21.59 28.22 21.55 28.27C21.5 28.32 21.46 28.37 21.41 28.41C21.37 28.46 21.32 28.5 21.27 28.55C21.22 28.59 21.17 28.63 21.11 28.66C21.06 28.7 21 28.73 20.94 28.76C20.89 28.79 20.83 28.82 20.77 28.85C20.7 28.87 20.64 28.89 20.58 28.91C20.52 28.93 20.45 28.95 20.39 28.96C20.33 28.97 20.26 28.98 20.2 28.99C20.13 29 20.07 29 20 29C19.93 29 19.87 29 19.8 28.99C19.74 28.98 19.67 28.97 19.61 28.96C19.55 28.95 19.48 28.93 19.42 28.91C19.36 28.89 19.3 28.87 19.23 28.85C19.17 28.82 19.11 28.79 19.06 28.76C19 28.73 18.94 28.7 18.89 28.66C18.83 28.63 18.78 28.59 18.73 28.55C18.68 28.5 18.63 28.46 18.59 28.41C18.54 28.37 18.5 28.32 18.45 28.27C18.41 28.22 18.37 28.17 18.34 28.11C18.3 28.06 18.27 28 18.24 27.94C18.21 27.88 18.18 27.83 18.15 27.77C18.13 27.7 18.11 27.64 18.09 27.58C18.07 27.52 18.05 27.45 18.04 27.39C18.03 27.33 18.02 27.26 18.01 27.2C18 27.13 18 27.07 18 27L18 24L14 24L14 27C14 27.07 14 27.13 13.99 27.2C13.98 27.26 13.97 27.33 13.96 27.39C13.95 27.45 13.93 27.52 13.91 27.58C13.89 27.64 13.87 27.7 13.85 27.77C13.82 27.83 13.79 27.88 13.76 27.94C13.73 28 13.7 28.06 13.66 28.11C13.63 28.17 13.59 28.22 13.55 28.27C13.5 28.32 13.46 28.37 13.41 28.41C13.37 28.46 13.32 28.5 13.27 28.55C13.22 28.59 13.17 28.63 13.11 28.66C13.06 28.7 13 28.73 12.94 28.76C12.89 28.79 12.83 28.82 12.77 28.85C12.7 28.87 12.64 28.89 12.58 28.91C12.52 28.93 12.45 28.95 12.39 28.96C12.33 28.97 12.26 28.98 12.2 28.99C12.13 29 12.07 29 12 29C11.93 29 11.87 29 11.8 28.99C11.74 28.98 11.67 28.97 11.61 28.96C11.55 28.95 11.48 28.93 11.42 28.91C11.36 28.89 11.3 28.87 11.23 28.85C11.17 28.82 11.11 28.79 11.06 28.76C11 28.73 10.94 28.7 10.89 28.66C10.83 28.63 10.78 28.59 10.73 28.55C10.68 28.5 10.63 28.46 10.59 28.41C10.54 28.37 10.5 28.32 10.45 28.27C10.41 28.22 10.37 28.17 10.34 28.11C10.3 28.06 10.27 28 10.24 27.94C10.21 27.88 10.18 27.83 10.15 27.77C10.13 27.7 10.11 27.64 10.09 27.58C10.07 27.52 10.05 27.45 10.04 27.39C10.03 27.33 10.02 27.26 10.01 27.2C10 27.13 10 27.07 10 27L10 24L7 24L7 33ZM40.69 19.45C40.48 18.97 40.2 18.54 39.83 18.17C39.46 17.8 39.03 17.52 38.55 17.31C38.06 17.1 37.54 17 37 17L7 17L7 20L40.88 20C40.83 19.81 40.77 19.63 40.69 19.45ZM7.12 37C7.17 37.19 7.23 37.37 7.31 37.55C7.52 38.03 7.8 38.46 8.17 38.83C8.54 39.2 8.97 39.48 9.45 39.69C9.94 39.9 10.46 40 11 40L37 40C37.54 40 38.06 39.9 38.55 39.69C39.03 39.48 39.46 39.2 39.83 38.83C40.2 38.46 40.48 38.03 40.69 37.55C40.77 37.37 40.83 37.19 40.88 37L7.12 37ZM19.95 8.35C19.43 8.12 18.88 8 18.31 8L11 8C10.46 8 9.94 8.1 9.45 8.31C8.97 8.52 8.54 8.8 8.17 9.17C7.8 9.54 7.52 9.97 7.31 10.45C7.1 10.94 7 11.46 7 12L7 13L24.55 13L21.29 9.34C20.92 8.91 20.47 8.58 19.95 8.35Z" fill-rule="evenodd"  fill="#000000" >
</path>
</svg>
