<svg xmlns="http://www.w3.org/2000/svg" xmlns:xlink="http://www.w3.org/1999/xlink" width="48" height="48" viewBox="0 0 48 48" fill="none">
<path d="M11 44.5L37 44.5C38.08 44.5 39.12 44.29 40.11 43.87C41.07 43.46 41.92 42.89 42.66 42.16C43.39 41.42 43.96 40.57 44.37 39.61C44.79 38.62 45 37.58 45 36.5L45 19.5C45 18.42 44.79 17.38 44.37 16.39C43.96 15.43 43.39 14.58 42.66 13.84C41.92 13.11 41.07 12.54 40.11 12.13C39.12 11.71 38.08 11.5 37 11.5L29.9 11.5L24.29 5.18C23.52 4.33 22.62 3.67 21.58 3.2C20.54 2.73 19.45 2.5 18.31 2.5L11 2.5C9.92 2.5 8.88 2.71 7.89 3.13C6.93 3.54 6.08 4.11 5.34 4.84C4.61 5.58 4.04 6.43 3.63 7.39C3.21 8.38 3 9.42 3 10.5L3 36.5C3 37.58 3.21 38.62 3.63 39.61C4.04 40.57 4.61 41.42 5.34 42.16C6.08 42.89 6.93 43.46 7.89 43.87C8.88 44.29 9.92 44.5 11 44.5ZM27.32 35.56C27.52 36.04 27.81 36.46 28.17 36.83C28.54 37.19 28.96 37.48 29.44 37.68C29.94 37.89 30.46 38 31 38L34 38C34.54 38 35.06 37.89 35.56 37.68C36.04 37.48 36.46 37.19 36.83 36.83C37.19 36.46 37.48 36.04 37.68 35.56C37.89 35.06 38 34.54 38 34L38 31C38 30.46 37.89 29.94 37.68 29.44C37.48 28.96 37.19 28.54 36.83 28.17C36.46 27.81 36.04 27.52 35.56 27.32C35.06 27.11 34.54 27 34 27L31 27C30.46 27 29.94 27.11 29.44 27.32C28.96 27.52 28.54 27.81 28.17 28.17C27.81 28.54 27.52 28.96 27.32 29.44C27.11 29.94 27 30.46 27 31L27 34C27 34.54 27.11 35.06 27.32 35.56ZM24.55 11.5L21.29 7.84C20.92 7.41 20.47 7.08 19.95 6.85C19.43 6.62 18.88 6.5 18.31 6.5L11 6.5C10.46 6.5 9.94 6.6 9.45 6.81C8.97 7.02 8.54 7.3 8.17 7.67C7.8 8.04 7.52 8.47 7.31 8.95C7.1 9.44 7 9.96 7 10.5L7 11.5L24.55 11.5ZM24.55 34.73C24.5 34.68 24.46 34.63 24.41 34.59C24.37 34.54 24.32 34.5 24.27 34.45C24.22 34.41 24.17 34.37 24.11 34.34C24.06 34.3 24 34.27 23.94 34.24C23.88 34.21 23.83 34.18 23.77 34.15C23.7 34.13 23.64 34.11 23.58 34.09C23.52 34.07 23.45 34.05 23.39 34.04C23.33 34.03 23.26 34.02 23.2 34.01C23.13 34 23.07 34 23 34L12 34C11.93 34 11.87 34 11.8 34.01C11.74 34.02 11.67 34.03 11.61 34.04C11.55 34.05 11.48 34.07 11.42 34.09C11.36 34.11 11.29 34.13 11.23 34.15C11.17 34.18 11.11 34.21 11.06 34.24C11 34.27 10.94 34.3 10.89 34.34C10.83 34.37 10.78 34.41 10.73 34.46C10.68 34.5 10.63 34.54 10.59 34.59C10.54 34.63 10.5 34.68 10.45 34.73C10.41 34.78 10.37 34.84 10.34 34.89C10.3 34.94 10.27 35 10.24 35.06L10.15 35.24L10.09 35.42C10.07 35.48 10.05 35.55 10.04 35.61C10.03 35.68 10.02 35.74 10.01 35.81C10 35.87 10 35.94 10 36C10 36.13 10.01 36.26 10.04 36.39C10.06 36.52 10.1 36.65 10.15 36.77C10.2 36.89 10.26 37 10.34 37.11C10.41 37.22 10.49 37.32 10.59 37.42C10.68 37.51 10.78 37.59 10.89 37.66C11 37.74 11.11 37.8 11.23 37.85C11.36 37.9 11.48 37.94 11.61 37.96C11.74 37.99 11.87 38 12 38L23 38C23.13 38 23.26 37.99 23.39 37.96C23.52 37.94 23.64 37.9 23.77 37.85C23.89 37.8 24 37.74 24.11 37.66C24.22 37.59 24.32 37.51 24.41 37.41C24.51 37.32 24.59 37.22 24.66 37.11C24.74 37 24.8 36.89 24.85 36.77C24.9 36.64 24.94 36.52 24.96 36.39C24.99 36.26 25 36.13 25 36C25 35.93 25 35.87 24.99 35.8C24.98 35.74 24.97 35.67 24.96 35.61C24.95 35.55 24.93 35.48 24.91 35.42C24.89 35.36 24.87 35.3 24.85 35.23C24.82 35.17 24.79 35.11 24.76 35.06C24.73 35 24.7 34.94 24.66 34.89C24.63 34.83 24.59 34.78 24.55 34.73ZM38.55 15.81C38.06 15.6 37.54 15.5 37 15.5L33.45 15.5L7 15.5L7 36.5C7 37.04 7.1 37.56 7.31 38.05C7.52 38.53 7.8 38.96 8.17 39.33C8.54 39.7 8.97 39.98 9.45 40.19C9.94 40.4 10.46 40.5 11 40.5L37 40.5C37.54 40.5 38.06 40.4 38.55 40.19C39.03 39.98 39.46 39.7 39.83 39.33C40.2 38.96 40.48 38.53 40.69 38.05C40.9 37.56 41 37.04 41 36.5L41 19.5C41 18.96 40.9 18.44 40.69 17.95C40.48 17.47 40.2 17.04 39.83 16.67C39.46 16.3 39.03 16.02 38.55 15.81ZM20.75 31.41C20.84 31.32 20.92 31.22 21 31.11C21.07 31 21.13 30.89 21.18 30.77C21.23 30.64 21.27 30.52 21.29 30.39C21.32 30.26 21.33 30.13 21.33 30C21.33 29.87 21.32 29.74 21.29 29.61C21.27 29.48 21.23 29.36 21.18 29.23C21.13 29.11 21.07 29 21 28.89C20.92 28.78 20.84 28.68 20.75 28.59C20.65 28.49 20.55 28.41 20.44 28.34C20.34 28.26 20.22 28.2 20.1 28.15C19.98 28.1 19.85 28.06 19.72 28.04C19.59 28.01 19.46 28 19.33 28L12 28C11.93 28 11.87 28 11.8 28.01C11.74 28.02 11.67 28.03 11.61 28.04C11.55 28.05 11.48 28.07 11.42 28.09C11.36 28.11 11.29 28.13 11.23 28.15C11.17 28.18 11.11 28.21 11.06 28.24C11 28.27 10.94 28.3 10.89 28.34C10.83 28.37 10.78 28.41 10.73 28.46C10.68 28.5 10.63 28.54 10.59 28.59C10.54 28.63 10.5 28.68 10.45 28.73C10.41 28.78 10.37 28.84 10.34 28.89C10.3 28.94 10.27 29 10.24 29.06L10.15 29.24L10.09 29.42C10.07 29.48 10.05 29.55 10.04 29.61C10.03 29.68 10.02 29.74 10.01 29.81C10 29.87 10 29.94 10 30C10 30.07 10 30.13 10.01 30.2C10.02 30.26 10.03 30.33 10.04 30.39C10.05 30.46 10.07 30.52 10.09 30.58C10.11 30.64 10.13 30.71 10.15 30.77C10.18 30.83 10.21 30.89 10.24 30.94C10.27 31 10.3 31.06 10.34 31.11C10.37 31.17 10.41 31.22 10.45 31.27C10.5 31.32 10.54 31.37 10.59 31.42C10.63 31.46 10.68 31.51 10.73 31.55C10.78 31.59 10.83 31.63 10.89 31.66C10.94 31.7 11 31.73 11.06 31.76C11.12 31.8 11.17 31.82 11.23 31.85C11.3 31.87 11.36 31.9 11.42 31.91C11.48 31.93 11.55 31.95 11.61 31.96C11.67 31.98 11.74 31.98 11.8 31.99C11.87 32 11.93 32 12 32L19.33 32C19.46 32 19.59 31.99 19.72 31.96C19.85 31.94 19.98 31.9 20.1 31.85C20.22 31.8 20.34 31.74 20.44 31.66C20.55 31.59 20.65 31.51 20.75 31.41ZM31 34L34 34L34 31L31 31L31 34Z" fill-rule="evenodd"  fill="#000000" >
</path>
</svg>
