<svg xmlns="http://www.w3.org/2000/svg" xmlns:xlink="http://www.w3.org/1999/xlink" width="48" height="48" viewBox="0 0 48 48" fill="none">
<path d="M16.44 18.32C15.96 18.52 15.54 18.81 15.17 19.17C14.81 19.54 14.52 19.96 14.32 20.44C14.11 20.94 14 21.46 14 22C14 22.54 14.11 23.06 14.32 23.56C14.52 24.04 14.81 24.46 15.17 24.83C15.42 25.08 15.7 25.29 16 25.46L16 30.54C15.7 30.71 15.42 30.92 15.17 31.17C14.81 31.54 14.52 31.96 14.32 32.44C14.11 32.94 14 33.46 14 34C14 34.54 14.11 35.06 14.32 35.56C14.52 36.04 14.81 36.46 15.17 36.83C15.54 37.19 15.96 37.48 16.44 37.68C16.94 37.89 17.46 38 18 38C18.54 38 19.06 37.89 19.56 37.68C20.04 37.48 20.46 37.19 20.83 36.83C21.08 36.58 21.29 36.3 21.46 36L26.54 36C26.71 36.3 26.92 36.58 27.17 36.83C27.54 37.19 27.96 37.48 28.44 37.68C28.94 37.89 29.46 38 30 38C30.54 38 31.06 37.89 31.56 37.68C32.04 37.48 32.46 37.19 32.83 36.83C33.19 36.46 33.48 36.04 33.68 35.56C33.89 35.06 34 34.54 34 34C34 33.46 33.89 32.94 33.68 32.44C33.48 31.96 33.19 31.54 32.83 31.17C32.46 30.81 32.04 30.52 31.56 30.32C31.06 30.11 30.54 30 30 30C29.46 30 28.94 30.11 28.44 30.32C27.96 30.52 27.54 30.81 27.17 31.17C26.92 31.42 26.71 31.7 26.54 32L21.46 32C21.29 31.7 21.08 31.42 20.83 31.17C20.58 30.92 20.3 30.71 20 30.54L20 25.46C20.3 25.29 20.58 25.08 20.83 24.83C21.19 24.46 21.48 24.04 21.68 23.56C21.89 23.06 22 22.54 22 22C22 21.46 21.89 20.94 21.68 20.44C21.48 19.96 21.19 19.54 20.83 19.17C20.46 18.81 20.04 18.52 19.56 18.32C19.06 18.11 18.54 18 18 18C17.46 18 16.94 18.11 16.44 18.32ZM15 3C13.92 3 12.88 3.21 11.89 3.63C10.93 4.04 10.08 4.61 9.34 5.34C8.61 6.08 8.04 6.93 7.63 7.89C7.21 8.88 7 9.92 7 11L7 37C7 38.08 7.21 39.12 7.63 40.11C8.04 41.07 8.61 41.92 9.34 42.66C10.08 43.39 10.93 43.96 11.89 44.37C12.88 44.79 13.92 45 15 45L33 45C34.08 45 35.12 44.79 36.11 44.37C37.07 43.96 37.92 43.39 38.66 42.66C39.39 41.92 39.96 41.07 40.37 40.11C40.79 39.12 41 38.08 41 37L41 17L40.97 17C40.91 16.44 40.78 15.89 40.57 15.36C40.28 14.65 39.87 14.01 39.33 13.46L31.13 4.86C30.57 4.27 29.91 3.81 29.15 3.49C28.62 3.26 28.07 3.11 27.5 3.04L27.5 3L15 3ZM12.17 8.17C11.8 8.54 11.52 8.97 11.31 9.45C11.1 9.94 11 10.46 11 11L11 37C11 37.54 11.1 38.06 11.31 38.55C11.52 39.03 11.8 39.46 12.17 39.83C12.54 40.2 12.97 40.48 13.45 40.69C13.94 40.9 14.46 41 15 41L33 41C33.54 41 34.06 40.9 34.55 40.69C35.03 40.48 35.46 40.2 35.83 39.83C36.2 39.46 36.48 39.03 36.69 38.55C36.9 38.06 37 37.54 37 37L37 21L31.5 21C30.42 21 29.38 20.79 28.39 20.37C27.55 20.02 26.8 19.53 26.13 18.92C26.03 18.84 25.94 18.75 25.84 18.66C25.15 17.96 24.61 17.18 24.21 16.29C24.18 16.23 24.16 16.17 24.13 16.11C23.74 15.18 23.53 14.21 23.5 13.2L23.5 7L15 7C14.46 7 13.94 7.1 13.45 7.31C12.97 7.52 12.54 7.8 12.17 8.17ZM36.91 17C36.89 16.95 36.87 16.91 36.86 16.86C36.76 16.62 36.62 16.41 36.45 16.22L28.23 7.62C28.05 7.42 27.83 7.27 27.57 7.16C27.55 7.15 27.52 7.14 27.5 7.13L27.5 13C27.5 13.54 27.6 14.06 27.81 14.55C28.02 15.03 28.3 15.46 28.67 15.83C29.04 16.2 29.47 16.48 29.95 16.69C30.44 16.9 30.96 17 31.5 17L36.91 17Z" fill-rule="evenodd"  fill="#000000" >
</path>
</svg>
