<svg xmlns="http://www.w3.org/2000/svg" xmlns:xlink="http://www.w3.org/1999/xlink" width="48" height="48" viewBox="0 0 48 48" fill="none">
<path d="M30.7841 10.7379C30.4941 10.3079 30.1441 9.95787 29.7241 9.66787L18.5341 2.01787C18.0741 1.70787 17.5841 1.49787 17.0441 1.38787C16.5041 1.28787 15.9741 1.28787 15.4341 1.40787L6.49414 3.30787C5.70414 3.47787 4.97414 3.79787 4.30414 4.24787C3.67414 4.70787 3.13414 5.24787 2.71414 5.90787C2.28414 6.56787 2.00414 7.27787 1.85414 8.03787C1.70414 8.83787 1.70414 9.62787 1.87414 10.4179L6.55414 32.4279C6.72414 33.2279 7.04414 33.9479 7.50414 34.6179C7.95414 35.2479 8.49414 35.7879 9.15414 36.2079C9.81414 36.6479 10.5241 36.9279 11.2841 37.0779C12.0841 37.2279 12.8741 37.2179 13.6741 37.0479L17.0341 36.3379C17.0541 35.4779 17.1941 34.6379 17.4641 33.8079L18.0241 32.0379L12.8341 33.1379C12.5741 33.1979 12.3141 33.1979 12.0441 33.1479C11.7841 33.0979 11.5541 33.0079 11.3341 32.8579C11.1141 32.7179 10.9341 32.5379 10.7841 32.3279C10.6241 32.1079 10.5241 31.8679 10.4641 31.5979L5.78414 9.58787C5.73414 9.32787 5.72414 9.05787 5.78414 8.79787C5.83414 8.53787 5.92414 8.30787 6.07414 8.08787C6.21414 7.86787 6.38414 7.68787 6.60414 7.53787C6.82414 7.37787 7.06414 7.27787 7.33414 7.21787L12.2241 6.17787L13.9141 14.1479C14.0941 14.8879 14.4041 15.5679 14.8341 16.1979C14.8541 16.2279 14.8841 16.2779 14.9141 16.3079C15.3441 16.8979 15.8741 17.3879 16.4841 17.7879C17.1441 18.2179 17.8541 18.4979 18.6141 18.6479C18.7241 18.6679 18.8141 18.6779 18.9141 18.6979C19.6041 18.7979 20.3041 18.7779 21.0041 18.6279L22.4241 18.3279L22.6341 17.6479C23.0141 16.4879 23.5941 15.4479 24.3841 14.5179C24.6641 14.1979 24.9541 13.9079 25.2641 13.6279L20.1641 14.7179C19.9041 14.7679 19.6441 14.7779 19.3741 14.7179C19.3641 14.7179 19.3441 14.7179 19.3241 14.7079C19.0941 14.6579 18.8741 14.5679 18.6641 14.4279C18.4441 14.2879 18.2641 14.1179 18.1141 13.8979C17.9541 13.6779 17.8541 13.4379 17.7941 13.1679L16.1341 5.34787L16.2741 5.31787L26.8441 12.5279C26.9241 12.4779 27.0141 12.4279 27.0941 12.3879C28.1341 11.8479 29.2441 11.5279 30.4041 11.4279C30.6541 11.4079 30.8941 11.3979 31.1441 11.3879C31.0441 11.1679 30.9241 10.9479 30.7841 10.7379Z" fill-rule="evenodd"  fill="#000000" >
</path>
<path d="M42.3465 40.9258L46.1371 29.0984C46.247 28.7556 46.2997 28.3944 46.2797 28.031C46.2596 27.6675 46.1733 27.3143 46.0207 26.9714L42.5216 18.9508C42.3526 18.5606 42.1082 18.2093 41.7822 17.9158C41.4627 17.6349 41.0997 17.424 40.6902 17.2928L32.8719 14.7871C32.1006 14.5399 31.309 14.4542 30.5001 14.5205C29.7294 14.599 28.9918 14.8037 28.2971 15.1691C27.5959 15.522 27.0007 16.0032 26.4888 16.5848C25.9647 17.2044 25.5742 17.8983 25.327 18.6697L20.4439 33.9063C20.1967 34.6777 20.111 35.4693 20.1773 36.2781C20.2558 37.0489 20.4604 37.7865 20.8259 38.4812C21.1787 39.1823 21.66 39.7776 22.2415 40.2895C22.8611 40.8136 23.5551 41.204 24.3264 41.4512L34.8016 44.8084C35.573 45.0556 36.3646 45.1413 37.1734 45.075C37.9442 44.9965 38.6818 44.7918 39.3765 44.4264C40.0776 44.0736 40.6729 43.5923 41.1848 43.0108C41.7089 42.3912 42.0993 41.6972 42.3465 40.9258ZM31.6512 18.5963C31.394 18.5139 31.1312 18.4821 30.8595 18.5106C30.6005 18.5326 30.3578 18.6018 30.1284 18.7278C29.8925 18.8412 29.6951 18.9985 29.5266 19.1965C29.3456 19.401 29.2186 19.6333 29.1362 19.8905L24.253 35.1271C24.1706 35.3842 24.1389 35.6471 24.1673 35.9187C24.1893 36.1778 24.2586 36.4205 24.3846 36.6499C24.498 36.8858 24.6552 37.0832 24.8533 37.2517C25.0578 37.4327 25.2901 37.5597 25.5472 37.6421L36.0224 40.9992C36.2795 41.0816 36.5424 41.1134 36.814 41.0849C37.0731 41.0629 37.3158 40.9937 37.5452 40.8677C37.7811 40.7543 37.9785 40.597 38.147 40.399C38.328 40.1945 38.455 39.9622 38.5374 39.7051L41.0705 31.801L38.366 30.9343C37.6899 30.7176 37.0694 30.3927 36.5142 29.9628C36.4407 29.8972 36.3641 29.8412 36.2811 29.7725C35.6996 29.2607 35.2183 28.6654 34.8654 27.9642C34.529 27.3103 34.3186 26.6233 34.2343 25.9033C34.2275 25.8591 34.2237 25.8054 34.2169 25.7612C34.1506 24.9523 34.2362 24.1607 34.4835 23.3894L35.6127 19.8659L31.6512 18.5963ZM38.2926 24.6102C38.2194 24.8387 38.1873 25.0699 38.1963 25.3039C38.1967 25.3355 38.197 25.3671 38.2069 25.4018C38.2289 25.6608 38.2981 25.9035 38.4241 26.1329C38.5311 26.3562 38.6819 26.5411 38.8609 26.7035C38.8673 26.716 38.8833 26.7317 38.8928 26.7347C39.0973 26.9158 39.3297 27.0427 39.5868 27.1251L42.0723 27.9217L39.2814 21.5247L38.2926 24.6102Z" fill-rule="evenodd"  fill="#000000" >
</path>
</svg>
