<svg xmlns="http://www.w3.org/2000/svg" xmlns:xlink="http://www.w3.org/1999/xlink" width="48" height="48" viewBox="0 0 48 48" fill="none">
<path d="M11 2.5C6.58172 2.5 3 6.08172 3 10.5L3 36.5C3 40.9183 6.58172 44.5 11 44.5L37 44.5C41.4183 44.5 45 40.9183 45 36.5L45 19.5C45 15.0817 41.4183 11.5 37 11.5L29.8981 11.5L24.2849 5.18509C22.6937 3.39503 20.7006 2.5 18.3056 2.5L11 2.5ZM33.4537 15.5L7 15.5L7 36.5C7 38.7091 8.79086 40.5 11 40.5L37 40.5C39.2091 40.5 41 38.7091 41 36.5L41 19.5C41 17.2909 39.2091 15.5 37 15.5L33.4537 15.5ZM24.5463 11.5L21.2952 7.84254C20.4997 6.94751 19.5031 6.5 18.3056 6.5L11 6.5C8.79086 6.5 7 8.29086 7 10.5L7 11.5L24.5463 11.5Z" fill-rule="evenodd"  fill="#000000" >
</path>
</svg>
