<svg xmlns="http://www.w3.org/2000/svg" xmlns:xlink="http://www.w3.org/1999/xlink" width="48" height="48" viewBox="0 0 48 48" fill="none">
<path d="M41 17.6026L41 37C41 41.4183 37.4183 45 33 45L15 45C10.5817 45 7 41.4183 7 37L7 11C7 6.58172 10.5817 3 15 3L26.7884 3C28.5 3 29.9467 3.61905 31.1285 4.85714L39.3401 13.4598C40.4467 14.6191 41 16 41 17.6026ZM15 7L23.5 7L23.5 13C23.5 17.4183 27.0817 21 31.5 21L37 21L37 37C37 39.2091 35.2091 41 33 41L15 41C12.7909 41 11 39.2091 11 37L11 11C11 8.79086 12.7909 7 15 7ZM36.4467 16.2217C36.6688 16.4544 36.824 16.7138 36.9124 17L31.5 17C29.2909 17 27.5 15.2091 27.5 13L27.5 7.12348C27.7721 7.22548 28.0171 7.39067 28.2351 7.61905L36.4467 16.2217ZM20.5244 27.9655L20.5252 22.7151C20.5255 20.905 21.4306 20 23.2407 20L23.4999 20C23.9946 20 24.4593 20.1822 24.8165 20.4945C24.818 20.4829 24.8299 20.4846 24.8496 20.4979C24.941 20.5595 25.1995 20.8703 25.3525 21.2465L25.3538 21.2498C26.0957 23.0833 27.3114 24 29.0009 24C30.1051 24.0005 31 24.8957 31 26C31 27.1043 30.1051 27.9995 29.0009 28L28.9993 28C27.2458 27.9997 25.7543 27.5569 24.5246 26.6716L24.5244 27.9658L24.5244 33.6935C24.5244 36.6242 22.1929 39 19.2622 39C16.356 39 14 36.5997 14 33.6935C14 30.7628 16.3315 28.387 19.2622 28.387C19.6973 28.387 20.12 28.4408 20.5244 28.542L20.5244 27.9658L22.5244 27.9658L20.5244 27.9655ZM19.2622 32.387C19.9593 32.387 20.5244 32.9964 20.5244 33.6935C20.5244 34.4151 19.9838 35 19.2622 35C18.5651 35 18 34.3906 18 33.6935C18 32.9719 18.5406 32.387 19.2622 32.387Z" fill-rule="evenodd"  fill="#000000" >
</path>
</svg>
