<svg xmlns="http://www.w3.org/2000/svg" xmlns:xlink="http://www.w3.org/1999/xlink" width="48" height="48" viewBox="0 0 48 48" fill="none">
<path d="M2.63 39.11C3.04 40.07 3.61 40.92 4.34 41.66C5.08 42.39 5.93 42.96 6.89 43.37C7.88 43.79 8.92 44 10 44L36.5 44C37.38 44 38.23 43.86 39.05 43.58C39.86 43.31 40.61 42.92 41.29 42.41C41.98 41.9 42.57 41.29 43.06 40.59C43.56 39.87 43.93 39.09 44.18 38.25L46.67 29.75C47.04 28.51 47.1 27.25 46.85 25.99C46.62 24.79 46.14 23.69 45.4 22.71C44.99 22.16 44.52 21.67 44 21.25L44 21C44 19.92 43.79 18.88 43.37 17.89C42.96 16.93 42.39 16.08 41.66 15.34C40.92 14.61 40.07 14.04 39.11 13.63C38.12 13.21 37.08 13 36 13L28.9 13L23.28 6.68C22.52 5.83 21.62 5.17 20.58 4.7C19.54 4.23 18.45 4 17.31 4L10 4C8.92 4 7.88 4.21 6.89 4.63C5.93 5.04 5.08 5.61 4.34 6.34C3.61 7.08 3.04 7.93 2.63 8.89C2.21 9.88 2 10.92 2 12L2 36C2 37.08 2.21 38.12 2.63 39.11ZM7.73 21.16C8.42 20.63 9.18 20.22 10 19.94C10.84 19.65 11.71 19.5 12.6 19.5L38.99 19.5C39.24 19.5 39.48 19.51 39.72 19.53C39.71 19.5 39.7 19.47 39.69 19.45C39.48 18.97 39.2 18.54 38.83 18.17C38.46 17.8 38.03 17.52 37.55 17.31C37.06 17.1 36.54 17 36 17L28 17C27.86 17 27.72 16.99 27.58 16.96C27.44 16.93 27.31 16.88 27.18 16.82C27.05 16.77 26.93 16.7 26.82 16.61C26.7 16.53 26.6 16.43 26.5 16.33L20.3 9.34C19.92 8.91 19.47 8.58 18.95 8.35C18.43 8.12 17.88 8 17.31 8L10 8C9.46 8 8.94 8.1 8.45 8.31C7.97 8.52 7.54 8.8 7.17 9.17C6.8 9.54 6.52 9.97 6.31 10.45C6.1 10.94 6 11.46 6 12L6 15L6 22.99C6.48 22.29 7.05 21.68 7.73 21.16ZM42.2 25.1C41.82 24.61 41.37 24.22 40.82 23.94C40.26 23.65 39.64 23.5 38.99 23.5L12.6 23.5C12.15 23.5 11.72 23.57 11.3 23.72C10.89 23.86 10.52 24.06 10.17 24.33C9.82 24.59 9.53 24.91 9.29 25.27C9.04 25.64 8.86 26.04 8.74 26.47L6.46 34.97C6.3 35.59 6.28 36.21 6.41 36.82C6.53 37.41 6.78 37.95 7.15 38.44C7.52 38.92 7.98 39.3 8.52 39.57C9.08 39.86 9.68 40 10.32 40L36.5 40C36.94 40 37.36 39.93 37.78 39.79C38.18 39.65 38.56 39.46 38.9 39.2C39.24 38.95 39.54 38.64 39.78 38.3C40.03 37.94 40.22 37.55 40.34 37.13L42.83 28.63C43.02 28 43.05 27.37 42.93 26.75C42.81 26.15 42.57 25.6 42.2 25.1Z" fill-rule="evenodd"  fill="#000000" >
</path>
</svg>
