<svg xmlns="http://www.w3.org/2000/svg" xmlns:xlink="http://www.w3.org/1999/xlink" width="48" height="48" viewBox="0 0 48 48" fill="none">
<path d="M22.57 24.64C22.86 23.96 23 23.24 23 22.5C23 21.76 22.86 21.04 22.57 20.36C22.29 19.7 21.89 19.12 21.39 18.61C20.88 18.11 20.3 17.71 19.64 17.43C18.96 17.14 18.24 17 17.5 17C16.76 17 16.04 17.14 15.36 17.43C14.7 17.71 14.12 18.11 13.61 18.61C13.11 19.12 12.71 19.7 12.43 20.36C12.14 21.04 12 21.76 12 22.5C12 23.24 12.14 23.96 12.43 24.64C12.71 25.3 13.11 25.88 13.61 26.39C14.12 26.89 14.7 27.29 15.36 27.57C16.04 27.86 16.76 28 17.5 28C18.24 28 18.96 27.86 19.64 27.57C20.3 27.29 20.88 26.89 21.39 26.39C21.89 25.88 22.29 25.3 22.57 24.64ZM16 22.5C16 22.91 16.15 23.27 16.44 23.56C16.73 23.85 17.09 24 17.5 24C17.91 24 18.27 23.85 18.56 23.56C18.85 23.27 19 22.91 19 22.5C19 22.09 18.85 21.73 18.56 21.44C18.27 21.15 17.91 21 17.5 21C17.09 21 16.73 21.15 16.44 21.44C16.15 21.73 16 22.09 16 22.5ZM7.54 29.58C8.66 29.19 9.89 29 11.25 29C12.69 29 14.13 29.4 15.56 30.19C16.09 30.48 16.65 30.84 17.25 31.28C17.6 31.53 18.09 31.92 18.74 32.43C19.35 32.92 19.81 33.27 20.11 33.49C20.57 33.83 21 34.1 21.38 34.31C22.2 34.77 23 35 23.75 35C24.66 35 25.46 34.88 26.16 34.64C26.67 34.46 27.11 34.23 27.48 33.93C27.73 33.74 27.93 33.53 28.09 33.31C28.13 33.25 28.16 33.2 28.18 33.16C28.19 33.16 28.19 33.16 28.19 33.15C28.24 33.04 28.31 32.93 28.38 32.83C28.46 32.72 28.54 32.63 28.63 32.54C28.72 32.45 28.83 32.38 28.93 32.31C29.04 32.24 29.15 32.18 29.27 32.14C29.39 32.09 29.52 32.05 29.65 32.03C29.78 32.01 29.91 32 30.04 32C30.17 32 30.3 32.02 30.43 32.05C30.56 32.07 30.68 32.12 30.8 32.17C30.86 32.19 30.92 32.22 30.98 32.26C31.03 32.29 31.09 32.32 31.14 32.36C31.2 32.4 31.25 32.44 31.3 32.48C31.35 32.52 31.4 32.57 31.44 32.61C31.49 32.66 31.53 32.71 31.57 32.76C31.61 32.81 31.65 32.87 31.68 32.92C31.72 32.98 31.75 33.03 31.78 33.09C31.81 33.15 31.84 33.21 31.86 33.27C31.89 33.33 31.91 33.39 31.92 33.46C31.94 33.52 31.96 33.58 31.97 33.65C31.98 33.71 31.99 33.78 31.99 33.84C32 33.91 32 33.97 32 34.04C32 34.1 31.99 34.17 31.99 34.23C31.98 34.3 31.97 34.36 31.95 34.43C31.94 34.49 31.92 34.55 31.9 34.62C31.88 34.68 31.86 34.74 31.83 34.8C31.72 35.05 31.56 35.33 31.35 35.63C30.97 36.16 30.51 36.64 29.97 37.07C29.24 37.65 28.4 38.1 27.46 38.42C26.34 38.81 25.11 39 23.75 39C22.31 39 20.87 38.6 19.44 37.81C18.91 37.52 18.35 37.16 17.75 36.72C17.4 36.47 16.91 36.08 16.26 35.57C15.65 35.08 15.19 34.73 14.89 34.51C14.43 34.17 14 33.9 13.62 33.69C12.8 33.23 12 33 11.25 33C10.34 33 9.54 33.12 8.84 33.36C8.33 33.54 7.89 33.77 7.52 34.07C7.31 34.23 7.14 34.4 7 34.57L7 36.5C7 37.04 7.1 37.56 7.31 38.05C7.52 38.53 7.8 38.96 8.17 39.33C8.54 39.7 8.97 39.98 9.45 40.19C9.94 40.4 10.46 40.5 11 40.5L37 40.5C37.54 40.5 38.06 40.4 38.55 40.19C39.03 39.98 39.46 39.7 39.83 39.33C40.2 38.96 40.48 38.53 40.69 38.05C40.9 37.56 41 37.04 41 36.5L41 19.5C41 18.96 40.9 18.44 40.69 17.95C40.48 17.47 40.2 17.04 39.83 16.67C39.46 16.3 39.03 16.02 38.55 15.81C38.06 15.6 37.54 15.5 37 15.5L7 15.5L7 29.78C7.18 29.71 7.36 29.64 7.54 29.58ZM11 44.5L37 44.5C38.08 44.5 39.12 44.29 40.11 43.87C41.07 43.46 41.92 42.89 42.66 42.16C43.39 41.42 43.96 40.57 44.37 39.61C44.79 38.62 45 37.58 45 36.5L45 19.5C45 18.42 44.79 17.38 44.37 16.39C43.96 15.43 43.39 14.58 42.66 13.84C41.92 13.11 41.07 12.54 40.11 12.13C39.12 11.71 38.08 11.5 37 11.5L29.9 11.5L24.29 5.18C23.52 4.33 22.62 3.67 21.58 3.2C20.54 2.73 19.45 2.5 18.31 2.5L11 2.5C9.92 2.5 8.88 2.71 7.89 3.13C6.93 3.54 6.08 4.11 5.34 4.84C4.61 5.58 4.04 6.43 3.63 7.39C3.21 8.38 3 9.42 3 10.5L3 36.5C3 37.58 3.21 38.62 3.63 39.61C4.04 40.57 4.61 41.42 5.34 42.16C6.08 42.89 6.93 43.46 7.89 43.87C8.88 44.29 9.92 44.5 11 44.5ZM8.17 7.67C7.8 8.04 7.52 8.47 7.31 8.95C7.1 9.44 7 9.96 7 10.5L7 11.5L24.55 11.5L21.29 7.84C20.92 7.41 20.47 7.08 19.95 6.85C19.43 6.62 18.88 6.5 18.31 6.5L11 6.5C10.46 6.5 9.94 6.6 9.45 6.81C8.97 7.02 8.54 7.3 8.17 7.67Z" fill-rule="evenodd"  fill="#000000" >
</path>
</svg>
