<svg xmlns="http://www.w3.org/2000/svg" xmlns:xlink="http://www.w3.org/1999/xlink" width="48" height="48" viewBox="0 0 48 48" fill="none">
<path d="M23.44 36.81C22.91 36.52 22.35 36.16 21.75 35.72C21.4 35.47 20.91 35.08 20.26 34.57C19.65 34.08 19.19 33.73 18.89 33.51C18.43 33.17 18 32.9 17.62 32.69C16.8 32.23 16 32 15.25 32C14.34 32 13.54 32.12 12.84 32.36C12.33 32.54 11.89 32.77 11.52 33.07C11.31 33.23 11.14 33.4 11 33.57L11 37C11 37.54 11.1 38.06 11.31 38.55C11.52 39.03 11.8 39.46 12.17 39.83C12.54 40.2 12.97 40.48 13.45 40.69C13.94 40.9 14.46 41 15 41L33 41C33.54 41 34.06 40.9 34.55 40.69C35.03 40.48 35.46 40.2 35.83 39.83C36.2 39.46 36.48 39.03 36.69 38.55C36.9 38.06 37 37.54 37 37L37 21L31.5 21C30.42 21 29.38 20.79 28.39 20.37C27.55 20.02 26.8 19.53 26.13 18.92C26.03 18.84 25.94 18.75 25.84 18.66C25.15 17.96 24.61 17.18 24.21 16.29C24.18 16.23 24.16 16.17 24.13 16.11C23.74 15.18 23.53 14.21 23.5 13.2L23.5 7L15 7C14.46 7 13.94 7.1 13.45 7.31C12.97 7.52 12.54 7.8 12.17 8.17C11.8 8.54 11.52 8.97 11.31 9.45C11.1 9.94 11 10.46 11 11L11 28.78C11.18 28.71 11.36 28.64 11.54 28.58C12.66 28.19 13.89 28 15.25 28C16.69 28 18.13 28.4 19.56 29.19C20.09 29.48 20.65 29.84 21.25 30.28C21.6 30.53 22.09 30.92 22.74 31.43C23.35 31.92 23.81 32.27 24.11 32.49C24.57 32.83 25 33.1 25.38 33.31C26.2 33.77 27 34 27.75 34C28.66 34 29.46 33.88 30.16 33.64C30.67 33.46 31.11 33.23 31.48 32.93C31.73 32.74 31.93 32.53 32.09 32.31C32.13 32.25 32.16 32.2 32.18 32.16C32.19 32.16 32.19 32.16 32.19 32.15C32.24 32.04 32.31 31.93 32.38 31.83C32.46 31.72 32.54 31.63 32.63 31.54C32.72 31.45 32.83 31.38 32.93 31.31C33.04 31.24 33.15 31.18 33.27 31.14C33.39 31.09 33.52 31.05 33.65 31.03C33.78 31.01 33.91 31 34.04 31C34.17 31 34.3 31.02 34.43 31.05C34.56 31.07 34.68 31.12 34.8 31.17C34.86 31.19 34.92 31.22 34.98 31.26C35.03 31.29 35.09 31.32 35.14 31.36C35.2 31.4 35.25 31.44 35.3 31.48C35.35 31.52 35.4 31.57 35.44 31.61C35.49 31.66 35.53 31.71 35.57 31.76C35.61 31.81 35.65 31.87 35.68 31.92C35.72 31.98 35.75 32.03 35.78 32.09C35.81 32.15 35.84 32.21 35.86 32.27C35.89 32.33 35.91 32.39 35.92 32.46C35.94 32.52 35.96 32.58 35.97 32.65C35.98 32.71 35.99 32.78 35.99 32.84C36 32.91 36 32.97 36 33.04C36 33.1 35.99 33.17 35.99 33.23C35.98 33.3 35.97 33.36 35.95 33.43C35.94 33.49 35.92 33.55 35.9 33.62C35.88 33.68 35.86 33.74 35.83 33.8C35.72 34.05 35.56 34.33 35.35 34.63C34.97 35.16 34.51 35.64 33.97 36.07C33.24 36.65 32.4 37.1 31.46 37.42C30.34 37.81 29.11 38 27.75 38C26.31 38 24.87 37.6 23.44 36.81ZM38.66 42.66C39.39 41.92 39.96 41.07 40.37 40.11C40.79 39.12 41 38.08 41 37L41 17L40.97 17C40.91 16.44 40.78 15.89 40.57 15.36C40.28 14.65 39.87 14.01 39.33 13.46L31.13 4.86C30.57 4.27 29.91 3.81 29.15 3.49C28.62 3.26 28.07 3.11 27.5 3.04L27.5 3L15 3C13.92 3 12.88 3.21 11.89 3.63C10.93 4.04 10.08 4.61 9.34 5.34C8.61 6.08 8.04 6.93 7.63 7.89C7.21 8.88 7 9.92 7 11L7 37C7 38.08 7.21 39.12 7.63 40.11C8.04 41.07 8.61 41.92 9.34 42.66C10.08 43.39 10.93 43.96 11.89 44.37C12.88 44.79 13.92 45 15 45L33 45C34.08 45 35.12 44.79 36.11 44.37C37.07 43.96 37.92 43.39 38.66 42.66ZM22.39 25.39C22.89 24.88 23.29 24.3 23.57 23.64C23.86 22.96 24 22.24 24 21.5C24 20.76 23.86 20.04 23.57 19.36C23.29 18.7 22.89 18.12 22.39 17.61C21.88 17.11 21.3 16.71 20.64 16.43C19.96 16.14 19.24 16 18.5 16C17.76 16 17.04 16.14 16.36 16.43C15.7 16.71 15.12 17.11 14.61 17.61C14.11 18.12 13.71 18.7 13.43 19.36C13.14 20.04 13 20.76 13 21.5C13 22.24 13.14 22.96 13.43 23.64C13.71 24.3 14.11 24.88 14.61 25.39C15.12 25.89 15.7 26.29 16.36 26.57C17.04 26.86 17.76 27 18.5 27C19.24 27 19.96 26.86 20.64 26.57C21.3 26.29 21.88 25.89 22.39 25.39ZM36.91 17C36.89 16.95 36.87 16.91 36.86 16.86C36.76 16.62 36.62 16.41 36.45 16.22L28.23 7.62C28.05 7.42 27.83 7.27 27.57 7.16C27.55 7.15 27.52 7.14 27.5 7.13L27.5 13C27.5 13.54 27.6 14.06 27.81 14.55C28.02 15.03 28.3 15.46 28.67 15.83C29.04 16.2 29.47 16.48 29.95 16.69C30.44 16.9 30.96 17 31.5 17L36.91 17ZM18.5 20C18.09 20 17.73 20.15 17.44 20.44C17.15 20.73 17 21.09 17 21.5C17 21.91 17.15 22.27 17.44 22.56C17.73 22.85 18.09 23 18.5 23C18.91 23 19.27 22.85 19.56 22.56C19.85 22.27 20 21.91 20 21.5C20 21.09 19.85 20.73 19.56 20.44C19.27 20.15 18.91 20 18.5 20Z" fill-rule="evenodd"  fill="#000000" >
</path>
</svg>
