<svg xmlns="http://www.w3.org/2000/svg" xmlns:xlink="http://www.w3.org/1999/xlink" width="48" height="48" viewBox="0 0 48 48" fill="none">
<path d="M41 37L41 17.6C41 16.06 40.4 14.57 39.33 13.46L31.13 4.86C30 3.67 28.43 3 26.79 3L15 3C10.58 3 7 6.58 7 11L7 37C7 41.42 10.58 45 15 45L33 45C37.42 45 41 41.42 41 37ZM11 37C11 39.21 12.79 41 15 41L33 41C35.21 41 37 39.21 37 37L37 21L31.5 21C27.08 21 23.5 17.42 23.5 13L23.5 7L15 7C12.79 7 11 8.79 11 11L11 37ZM27.5 7.13L27.5 13C27.5 15.21 29.29 17 31.5 17L36.91 17C36.82 16.71 36.66 16.45 36.45 16.22L28.23 7.62C28.03 7.4 27.77 7.24 27.5 7.13ZM22 39C26.97 39 31 34.97 31 30C31 29.89 31 29.77 30.99 29.66C31 29.61 31 29.55 31 29.5C31 29.35 30.98 29.21 30.95 29.06C30.52 24.84 27.16 21.48 22.94 21.05C22.8 21.02 22.65 21 22.5 21C22.45 21 22.39 21 22.34 21.01C22.23 21 22.11 21 22 21C17.03 21 13 25.03 13 30C13 34.97 17.03 39 22 39ZM17 30C17 32.76 19.24 35 22 35C24.24 35 26.13 33.53 26.77 31.5L23 31.5C21.62 31.5 20.5 30.38 20.5 29L20.5 25.23C18.47 25.87 17 27.76 17 30Z" fill-rule="evenodd"  fill="#000000" >
</path>
</svg>
