<svg xmlns="http://www.w3.org/2000/svg" xmlns:xlink="http://www.w3.org/1999/xlink" width="48" height="48" viewBox="0 0 48 48" fill="none">
<path d="M41 37L41 17.6C41 16.06 40.4 14.57 39.33 13.46L31.13 4.86C30 3.67 28.43 3 26.79 3L15 3C10.58 3 7 6.58 7 11L7 37C7 41.42 10.58 45 15 45L33 45C37.42 45 41 41.42 41 37ZM11 37C11 39.21 12.79 41 15 41L33 41C35.21 41 37 39.21 37 37L37 21L31.5 21C27.08 21 23.5 17.42 23.5 13L23.5 7L15 7C12.79 7 11 8.79 11 11L11 37ZM27.5 7.13L27.5 13C27.5 15.21 29.29 17 31.5 17L36.91 17C36.82 16.71 36.66 16.45 36.45 16.22L28.23 7.62C28.03 7.4 27.77 7.24 27.5 7.13ZM17 37L17 34L19.5 34C22.54 34 25 31.54 25 28.5C25 25.46 22.54 23 19.5 23L16 23C14.34 23 13 24.34 13 26L13 37C13 38.1 13.9 39 15 39C16.1 39 17 38.1 17 37ZM33.5 25L30 25C27.51 25 25.5 27.01 25.5 29.5C25.5 31.99 27.51 34 30 34L30.98 34C31 34 31.01 34 31.03 34L31.5 34C31.78 34 32 34.22 32 34.5C32 34.78 31.78 35 31.5 35L28 35C26.9 35 26 35.9 26 37C26 38.1 26.9 39 28 39L31.5 39C33.99 39 36 36.99 36 34.5C36 32.01 33.99 30 31.5 30L31.02 30C31 30 30.99 30 30.97 30L30 30C29.72 30 29.5 29.78 29.5 29.5C29.5 29.22 29.72 29 30 29L33.5 29C34.6 29 35.5 28.1 35.5 27C35.5 25.9 34.6 25 33.5 25ZM19.5 27L17 27L17 30L19.5 30C20.33 30 21 29.33 21 28.5C21 27.67 20.33 27 19.5 27Z" fill-rule="evenodd"  fill="#000000" >
</path>
</svg>
