<svg xmlns="http://www.w3.org/2000/svg" xmlns:xlink="http://www.w3.org/1999/xlink" width="48" height="48" viewBox="0 0 48 48" fill="none">
<path d="M7.89 43.87C8.88 44.29 9.92 44.5 11 44.5L37 44.5C38.08 44.5 39.12 44.29 40.11 43.87C41.07 43.46 41.92 42.89 42.66 42.16C43.39 41.42 43.96 40.57 44.37 39.61C44.79 38.62 45 37.58 45 36.5L45 19.5C45 18.42 44.79 17.38 44.37 16.39C43.96 15.43 43.39 14.58 42.66 13.84C41.92 13.11 41.07 12.54 40.11 12.13C39.12 11.71 38.08 11.5 37 11.5L29.9 11.5L24.29 5.18C23.52 4.33 22.62 3.67 21.58 3.2C20.54 2.73 19.45 2.5 18.31 2.5L11 2.5C9.92 2.5 8.88 2.71 7.89 3.13C6.93 3.54 6.08 4.11 5.34 4.84C4.61 5.58 4.04 6.43 3.63 7.39C3.21 8.38 3 9.42 3 10.5L3 36.5C3 37.58 3.21 38.62 3.63 39.61C4.04 40.57 4.61 41.42 5.34 42.16C6.08 42.89 6.93 43.46 7.89 43.87ZM21.29 7.84C20.92 7.41 20.47 7.08 19.95 6.85C19.43 6.62 18.88 6.5 18.31 6.5L11 6.5C10.46 6.5 9.94 6.6 9.45 6.81C8.97 7.02 8.54 7.3 8.17 7.67C7.8 8.04 7.52 8.47 7.31 8.95C7.1 9.44 7 9.96 7 10.5L7 11.5L24.55 11.5L21.29 7.84ZM20.69 17.3C20.07 17.26 19.5 17.4 18.97 17.72C18.46 18 18.07 18.42 17.8 18.97C17.53 19.53 17.43 20.11 17.53 20.73L17.82 22.82C15.61 24.26 13.77 26.13 12.3 28.46C11.09 30.37 10.18 32.47 9.59 34.78C9.4 35.34 9.4 35.91 9.59 36.49C9.78 37.08 10.12 37.56 10.62 37.92L10.65 37.94L10.68 37.97C11.2 38.32 11.77 38.48 12.39 38.46C13.05 38.43 13.62 38.21 14.12 37.79L14.14 37.77L14.17 37.74C15.56 36.47 16.84 35.4 18 34.55C18.47 34.2 18.91 33.9 19.32 33.64L19.46 34.44C19.57 35.05 19.84 35.58 20.27 36.02C20.7 36.46 21.21 36.74 21.81 36.87C22.42 37 23.02 36.94 23.59 36.7C24.17 36.45 24.62 36.06 24.96 35.53L29.18 29C29.53 28.46 29.77 27.88 29.89 27.25C30.01 26.65 30.02 26.04 29.91 25.43C29.81 24.82 29.6 24.25 29.28 23.72C28.96 23.17 28.54 22.7 28.03 22.31L22.33 17.92C21.85 17.54 21.3 17.34 20.69 17.3ZM8.17 39.33C8.54 39.7 8.97 39.98 9.45 40.19C9.94 40.4 10.46 40.5 11 40.5L37 40.5C37.54 40.5 38.06 40.4 38.55 40.19C39.03 39.98 39.46 39.7 39.83 39.33C40.2 38.96 40.48 38.53 40.69 38.05C40.9 37.56 41 37.04 41 36.5L41 19.5C41 18.96 40.9 18.44 40.69 17.95C40.48 17.47 40.2 17.04 39.83 16.67C39.46 16.3 39.03 16.02 38.55 15.81C38.06 15.6 37.54 15.5 37 15.5L7 15.5L7 36.5C7 37.04 7.1 37.56 7.31 38.05C7.52 38.53 7.8 38.96 8.17 39.33ZM22.97 31.24L25.82 26.82C25.97 26.6 26.02 26.37 25.97 26.11C25.93 25.85 25.8 25.64 25.6 25.49L21.82 22.58L22.16 24.95L20.94 25.62C18.8 26.78 17.04 28.45 15.68 30.6C15.43 30.99 15.2 31.4 14.98 31.81C17.21 30.1 19.03 29.09 20.45 28.8L22.47 28.39L22.82 30.42L22.97 31.24ZM21.59 33.38C21.58 33.39 21.58 33.39 21.58 33.4L21.59 33.38ZM21.57 33.41C21.57 33.4 21.57 33.4 21.58 33.4L21.57 33.41ZM21.49 20.16L21.48 20.13C21.48 20.14 21.48 20.15 21.49 20.16Z" fill-rule="evenodd"  fill="#000000" >
</path>
</svg>
