<svg xmlns="http://www.w3.org/2000/svg" xmlns:xlink="http://www.w3.org/1999/xlink" width="48" height="48" viewBox="0 0 48 48" fill="none">
<path d="M23.8148 42.5732C24.3448 42.8032 24.8848 42.8932 25.4548 42.8132C26.0348 42.7432 26.5448 42.5232 26.9948 42.1432L42.6848 28.8932C43.2348 28.4332 43.6648 27.8732 43.9748 27.2232C44.2848 26.5732 44.4448 25.8832 44.4548 25.1532C44.4648 24.4432 44.3348 23.7632 44.0448 23.0932C43.7548 22.4332 43.3448 21.8632 42.8148 21.3732L27.0848 7.04318C26.6448 6.64318 26.1248 6.39318 25.5448 6.30318C24.9648 6.21318 24.4048 6.28318 23.8648 6.51318C23.3148 6.76318 22.8748 7.13318 22.5548 7.63318C22.2348 8.13318 22.0748 8.67318 22.0748 9.26318L22.0748 16.3332C19.5948 17.0332 17.2748 18.1432 15.1048 19.6532C12.8948 21.1932 10.8748 23.1232 9.04484 25.4432C7.57484 27.3032 6.26484 29.3832 5.10484 31.6732C4.25484 33.3332 3.52484 35.0432 2.90484 36.8032C2.69484 37.3632 2.65484 37.9332 2.80484 38.5132C2.95484 39.1132 3.25484 39.6132 3.72484 40.0132C4.19484 40.4132 4.73484 40.6432 5.34484 40.7032C5.95484 40.7632 6.53484 40.6432 7.06484 40.3332L7.11484 40.3032L7.16484 40.2732C9.94484 38.4532 12.6148 36.9332 15.1748 35.7232C16.9048 34.9032 18.4848 34.2832 19.9248 33.8432C20.6848 33.6032 21.4048 33.4332 22.0748 33.3132L22.0748 39.8532C22.0748 40.4432 22.2348 40.9832 22.5548 41.4732C22.8648 41.9632 23.2848 42.3232 23.8148 42.5732ZM24.0748 29.1132L26.0748 29.1132L26.0748 37.6932L40.1048 25.8432C40.3348 25.6432 40.4448 25.4032 40.4548 25.1032C40.4548 24.8032 40.3548 24.5432 40.1248 24.3432L26.0748 11.5232L26.0748 19.5132L24.4848 19.8432C21.9448 20.3932 19.5748 21.4232 17.3948 22.9332C15.5048 24.2532 13.7748 25.9132 12.1848 27.9232C10.8848 29.5732 9.71484 31.4332 8.66484 33.4832C8.39484 34.0132 8.14484 34.5532 7.89484 35.0932C9.79484 33.9632 11.6548 32.9632 13.4648 32.1032C17.6848 30.1132 21.2248 29.1132 24.0748 29.1132Z" fill-rule="evenodd"  fill="#000000" >
</path>
</svg>
