<svg xmlns="http://www.w3.org/2000/svg" xmlns:xlink="http://www.w3.org/1999/xlink" width="48" height="48" viewBox="0 0 48 48" fill="none">
<path d="M16.54 23.48C15.95 23.8 15.47 24.24 15.1 24.8L13.21 27.68C12.96 28.06 12.78 28.47 12.67 28.91C12.56 29.34 12.53 29.78 12.56 30.22C12.6 30.66 12.71 31.08 12.89 31.49C13.07 31.9 13.31 32.28 13.62 32.61L18.6 37.85C18.98 38.25 19.42 38.55 19.93 38.77C20.43 38.98 20.95 39.09 21.5 39.09C22.05 39.09 22.57 38.98 23.07 38.77C23.58 38.55 24.02 38.25 24.4 37.85L29.36 32.63C29.68 32.28 29.93 31.9 30.11 31.49C30.29 31.08 30.4 30.66 30.44 30.22C30.47 29.78 30.44 29.34 30.33 28.91C30.22 28.47 30.04 28.06 29.79 27.68L27.9 24.8C27.53 24.24 27.05 23.8 26.46 23.48C25.86 23.16 25.23 23 24.56 23L18.44 23C17.77 23 17.14 23.16 16.54 23.48ZM36.11 44.37C37.07 43.96 37.92 43.39 38.66 42.66C39.39 41.92 39.96 41.07 40.37 40.11C40.79 39.12 41 38.08 41 37L41 17L40.97 17C40.91 16.44 40.78 15.89 40.57 15.36C40.28 14.65 39.87 14.01 39.33 13.46L31.13 4.86C30.57 4.27 29.91 3.81 29.15 3.49C28.62 3.26 28.07 3.11 27.5 3.04L27.5 3L15 3C13.92 3 12.88 3.21 11.89 3.63C10.93 4.04 10.08 4.61 9.34 5.34C8.61 6.08 8.04 6.93 7.63 7.89C7.21 8.88 7 9.92 7 11L7 37C7 38.08 7.21 39.12 7.63 40.11C8.04 41.07 8.61 41.92 9.34 42.66C10.08 43.39 10.93 43.96 11.89 44.37C12.88 44.79 13.92 45 15 45L33 45C34.08 45 35.12 44.79 36.11 44.37ZM21.5 35.09L26.45 29.88L24.56 27L18.44 27L16.55 29.88C16.55 29.88 16.55 29.89 16.56 29.89L21.5 35.09ZM28.39 20.37C27.55 20.02 26.8 19.53 26.13 18.92C26.03 18.84 25.94 18.75 25.84 18.66C25.15 17.96 24.61 17.18 24.21 16.29C24.18 16.23 24.16 16.17 24.13 16.11C23.74 15.18 23.53 14.21 23.5 13.2L23.5 7L15 7C14.46 7 13.94 7.1 13.45 7.31C12.97 7.52 12.54 7.8 12.17 8.17C11.8 8.54 11.52 8.97 11.31 9.45C11.1 9.94 11 10.46 11 11L11 37C11 37.54 11.1 38.06 11.31 38.55C11.52 39.03 11.8 39.46 12.17 39.83C12.54 40.2 12.97 40.48 13.45 40.69C13.94 40.9 14.46 41 15 41L33 41C33.54 41 34.06 40.9 34.55 40.69C35.03 40.48 35.46 40.2 35.83 39.83C36.2 39.46 36.48 39.03 36.69 38.55C36.9 38.06 37 37.54 37 37L37 21L31.5 21C30.42 21 29.38 20.79 28.39 20.37ZM27.5 7.13L27.5 13C27.5 13.54 27.6 14.06 27.81 14.55C28.02 15.03 28.3 15.46 28.67 15.83C29.04 16.2 29.47 16.48 29.95 16.69C30.44 16.9 30.96 17 31.5 17L36.91 17C36.89 16.95 36.87 16.91 36.86 16.86C36.76 16.62 36.62 16.41 36.45 16.22L28.23 7.62C28.05 7.42 27.83 7.27 27.57 7.16C27.55 7.15 27.52 7.14 27.5 7.13Z" fill-rule="evenodd"  fill="#000000" >
</path>
</svg>
