<svg xmlns="http://www.w3.org/2000/svg" xmlns:xlink="http://www.w3.org/1999/xlink" width="48" height="48" viewBox="0 0 48 48" fill="none">
<path d="M19.04 37.39C19.05 37.45 19.07 37.52 19.09 37.58C19.11 37.64 19.13 37.7 19.15 37.77C19.18 37.83 19.21 37.89 19.24 37.94C19.27 38 19.3 38.06 19.34 38.11C19.37 38.17 19.41 38.22 19.45 38.27C19.5 38.32 19.54 38.37 19.59 38.41C19.63 38.46 19.68 38.5 19.73 38.55C19.78 38.59 19.83 38.63 19.89 38.66C19.94 38.7 20 38.73 20.06 38.76C20.11 38.79 20.17 38.82 20.23 38.85C20.3 38.87 20.36 38.89 20.42 38.91C20.48 38.93 20.55 38.95 20.61 38.96C20.67 38.97 20.74 38.98 20.8 38.99C20.87 39 20.93 39 21 39C21.13 39 21.26 38.99 21.39 38.96C21.52 38.94 21.64 38.9 21.77 38.85C21.89 38.8 22 38.74 22.11 38.66C22.22 38.59 22.32 38.51 22.41 38.41C22.51 38.32 22.59 38.22 22.66 38.11C22.74 38 22.8 37.89 22.85 37.77C22.9 37.64 22.94 37.52 22.96 37.39C22.99 37.26 23 37.13 23 37L23 23C23 22.93 23 22.87 22.99 22.8C22.98 22.74 22.98 22.67 22.96 22.61C22.95 22.55 22.93 22.48 22.91 22.42C22.9 22.36 22.87 22.3 22.85 22.23C22.82 22.17 22.8 22.12 22.76 22.06C22.73 22 22.7 21.94 22.66 21.89C22.63 21.83 22.59 21.78 22.55 21.73C22.51 21.68 22.46 21.63 22.42 21.59C22.37 21.54 22.32 21.5 22.27 21.45C22.22 21.41 22.17 21.37 22.11 21.34C22.06 21.3 22 21.27 21.94 21.24C21.89 21.21 21.83 21.18 21.77 21.15C21.71 21.13 21.64 21.11 21.58 21.09C21.52 21.07 21.46 21.05 21.39 21.04C21.33 21.03 21.26 21.02 21.2 21.01C21.13 21 21.07 21 21 21C20.87 21 20.74 21.01 20.61 21.04C20.48 21.06 20.36 21.1 20.24 21.15C20.11 21.2 20 21.26 19.89 21.34C19.78 21.41 19.68 21.49 19.59 21.59C19.49 21.68 19.41 21.78 19.34 21.89C19.27 22 19.2 22.11 19.15 22.23C19.1 22.36 19.07 22.48 19.04 22.61C19.01 22.74 19 22.87 19 23L19 37C19 37.07 19 37.13 19.01 37.2C19.02 37.26 19.03 37.33 19.04 37.39ZM35 25.5C35 25.43 35 25.37 34.99 25.3C34.98 25.24 34.98 25.17 34.96 25.11C34.95 25.05 34.93 24.98 34.91 24.92C34.9 24.86 34.87 24.8 34.85 24.73C34.82 24.67 34.8 24.62 34.76 24.56C34.73 24.5 34.7 24.44 34.66 24.39C34.63 24.33 34.59 24.28 34.55 24.23C34.51 24.18 34.46 24.13 34.41 24.09C34.37 24.04 34.32 24 34.27 23.95C34.22 23.91 34.17 23.87 34.11 23.84C34.06 23.8 34 23.77 33.94 23.74C33.89 23.71 33.83 23.68 33.77 23.65C33.71 23.63 33.64 23.61 33.58 23.59C33.52 23.57 33.46 23.55 33.39 23.54C33.33 23.53 33.26 23.52 33.2 23.51C33.13 23.5 33.07 23.5 33 23.5C32.94 23.5 32.87 23.5 32.8 23.51C32.74 23.52 32.67 23.53 32.61 23.54C32.55 23.55 32.48 23.57 32.42 23.59L32.24 23.65C32.17 23.68 32.12 23.71 32.06 23.74C32 23.77 31.94 23.8 31.89 23.84C31.84 23.87 31.78 23.91 31.73 23.95C31.68 24 31.63 24.04 31.59 24.09C31.54 24.13 31.5 24.18 31.45 24.23C31.41 24.28 31.37 24.33 31.34 24.39C31.3 24.44 31.27 24.5 31.24 24.56C31.21 24.61 31.18 24.67 31.15 24.73C31.13 24.8 31.11 24.86 31.09 24.92C31.07 24.98 31.05 25.05 31.04 25.11C31.03 25.17 31.02 25.24 31.01 25.3C31 25.37 31 25.43 31 25.5L31 34.5C31 34.57 31 34.63 31.01 34.7C31.02 34.76 31.03 34.83 31.04 34.89C31.05 34.95 31.07 35.02 31.09 35.08C31.11 35.14 31.13 35.2 31.15 35.27C31.18 35.33 31.21 35.38 31.24 35.44C31.27 35.5 31.3 35.56 31.34 35.61C31.37 35.67 31.41 35.72 31.45 35.77C31.5 35.82 31.54 35.87 31.59 35.91C31.63 35.96 31.68 36 31.73 36.05C31.78 36.09 31.83 36.13 31.89 36.16C31.94 36.2 32 36.23 32.06 36.26C32.11 36.29 32.17 36.32 32.23 36.35C32.3 36.37 32.36 36.39 32.42 36.41C32.48 36.43 32.55 36.45 32.61 36.46C32.67 36.47 32.74 36.48 32.8 36.49C32.87 36.5 32.93 36.5 33 36.5C33.07 36.5 33.13 36.5 33.2 36.49C33.26 36.48 33.33 36.47 33.39 36.46C33.45 36.45 33.52 36.43 33.58 36.41C33.64 36.39 33.7 36.37 33.77 36.35C33.83 36.32 33.88 36.29 33.94 36.26C34 36.23 34.06 36.2 34.11 36.16C34.17 36.13 34.22 36.09 34.27 36.05C34.32 36 34.37 35.96 34.41 35.91C34.46 35.87 34.5 35.82 34.55 35.77C34.59 35.72 34.63 35.67 34.66 35.61C34.7 35.56 34.73 35.5 34.76 35.44C34.79 35.39 34.82 35.33 34.85 35.27C34.87 35.2 34.89 35.14 34.91 35.08C34.93 35.02 34.95 34.95 34.96 34.89C34.97 34.83 34.98 34.76 34.99 34.7C35 34.63 35 34.57 35 34.5L35 25.5ZM27.5 3L15 3C13.92 3 12.88 3.21 11.89 3.63C10.93 4.04 10.08 4.61 9.34 5.34C8.61 6.08 8.04 6.93 7.63 7.89C7.21 8.88 7 9.92 7 11L7 37C7 38.08 7.21 39.12 7.63 40.11C8.04 41.07 8.61 41.92 9.34 42.66C10.08 43.39 10.93 43.96 11.89 44.37C12.88 44.79 13.92 45 15 45L33 45C34.08 45 35.12 44.79 36.11 44.37C37.07 43.96 37.92 43.39 38.66 42.66C39.39 41.92 39.96 41.07 40.37 40.11C40.79 39.12 41 38.08 41 37L41 17L40.97 17C40.91 16.44 40.78 15.89 40.57 15.36C40.28 14.65 39.87 14.01 39.33 13.46L31.13 4.86C30.57 4.27 29.91 3.81 29.15 3.49C28.62 3.26 28.07 3.11 27.5 3.04L27.5 3ZM16.27 35.55C16.32 35.5 16.37 35.46 16.41 35.41C16.46 35.37 16.5 35.32 16.55 35.27C16.59 35.22 16.63 35.17 16.66 35.11C16.7 35.06 16.73 35 16.76 34.94C16.79 34.89 16.82 34.83 16.85 34.77C16.87 34.7 16.89 34.64 16.91 34.58C16.93 34.52 16.95 34.45 16.96 34.39C16.97 34.33 16.98 34.26 16.99 34.2C17 34.13 17 34.07 17 34L17 26C17 25.87 16.99 25.74 16.96 25.61C16.94 25.48 16.9 25.36 16.85 25.23C16.8 25.11 16.74 25 16.66 24.89C16.59 24.78 16.51 24.68 16.41 24.59C16.32 24.49 16.22 24.41 16.11 24.34C16 24.26 15.89 24.2 15.77 24.15C15.64 24.1 15.52 24.06 15.39 24.04C15.26 24.01 15.13 24 15 24C14.94 24 14.87 24 14.8 24.01C14.74 24.02 14.67 24.03 14.61 24.04C14.55 24.05 14.48 24.07 14.42 24.09L14.24 24.15C14.17 24.18 14.12 24.21 14.06 24.24C14 24.27 13.94 24.3 13.89 24.34C13.84 24.37 13.78 24.41 13.73 24.45C13.68 24.5 13.63 24.54 13.59 24.59C13.54 24.63 13.5 24.68 13.45 24.73C13.41 24.78 13.37 24.83 13.34 24.89C13.3 24.94 13.27 25 13.24 25.06C13.21 25.11 13.18 25.17 13.15 25.23C13.13 25.3 13.11 25.36 13.09 25.42C13.07 25.48 13.05 25.55 13.04 25.61C13.03 25.67 13.02 25.74 13.01 25.8C13 25.87 13 25.93 13 26L13 34C13 34.13 13.01 34.26 13.04 34.39C13.06 34.52 13.1 34.64 13.15 34.77C13.2 34.89 13.26 35 13.34 35.11C13.41 35.22 13.49 35.32 13.59 35.41C13.68 35.51 13.78 35.59 13.89 35.66C14 35.74 14.11 35.8 14.23 35.85C14.36 35.9 14.48 35.94 14.61 35.96C14.74 35.99 14.87 36 15 36C15.07 36 15.13 36 15.2 35.99C15.26 35.98 15.33 35.97 15.39 35.96C15.45 35.95 15.52 35.93 15.58 35.91C15.64 35.89 15.7 35.87 15.77 35.85C15.83 35.82 15.88 35.79 15.94 35.76C16 35.73 16.06 35.7 16.11 35.66C16.17 35.63 16.22 35.59 16.27 35.55ZM28.85 33.77C28.9 33.64 28.94 33.52 28.96 33.39C28.99 33.26 29 33.13 29 33L29 27C29 26.87 28.99 26.74 28.96 26.61C28.94 26.48 28.9 26.36 28.85 26.23C28.8 26.11 28.74 26 28.66 25.89C28.59 25.78 28.51 25.68 28.41 25.59C28.32 25.49 28.22 25.41 28.11 25.34C28 25.26 27.89 25.2 27.77 25.15C27.64 25.1 27.52 25.06 27.39 25.04C27.26 25.01 27.13 25 27 25C26.94 25 26.87 25 26.8 25.01C26.74 25.02 26.67 25.03 26.61 25.04C26.55 25.05 26.48 25.07 26.42 25.09L26.24 25.15C26.17 25.18 26.12 25.21 26.06 25.24C26 25.27 25.94 25.3 25.89 25.34C25.83 25.37 25.78 25.41 25.73 25.45C25.68 25.5 25.63 25.54 25.59 25.59C25.54 25.63 25.5 25.68 25.45 25.73C25.41 25.78 25.37 25.83 25.34 25.89C25.3 25.94 25.27 26 25.24 26.06C25.21 26.11 25.18 26.17 25.15 26.23C25.13 26.3 25.11 26.36 25.09 26.42C25.07 26.48 25.05 26.55 25.04 26.61C25.03 26.67 25.02 26.74 25.01 26.8C25 26.87 25 26.93 25 27L25 33C25 33.07 25 33.13 25.01 33.2C25.02 33.26 25.03 33.33 25.04 33.39C25.05 33.45 25.07 33.52 25.09 33.58C25.11 33.64 25.13 33.7 25.15 33.77C25.18 33.83 25.21 33.88 25.24 33.94C25.27 34 25.3 34.06 25.34 34.11C25.37 34.17 25.41 34.22 25.45 34.27C25.5 34.32 25.54 34.37 25.59 34.41C25.63 34.46 25.68 34.5 25.73 34.55C25.78 34.59 25.83 34.63 25.89 34.66C25.94 34.7 26 34.73 26.06 34.76C26.11 34.79 26.17 34.82 26.23 34.85C26.3 34.87 26.36 34.89 26.42 34.91C26.48 34.93 26.55 34.95 26.61 34.96C26.67 34.97 26.74 34.98 26.8 34.99C26.87 35 26.93 35 27 35C27.13 35 27.26 34.99 27.39 34.96C27.52 34.94 27.64 34.9 27.77 34.85C27.89 34.8 28 34.74 28.11 34.66C28.22 34.59 28.32 34.51 28.41 34.41C28.51 34.32 28.59 34.22 28.66 34.11C28.74 34 28.8 33.89 28.85 33.77ZM27.5 7.13L27.5 13C27.5 13.54 27.6 14.06 27.81 14.55C28.02 15.03 28.3 15.46 28.67 15.83C29.04 16.2 29.47 16.48 29.95 16.69C30.44 16.9 30.96 17 31.5 17L36.91 17C36.89 16.95 36.87 16.91 36.86 16.86C36.76 16.62 36.62 16.41 36.45 16.22L28.23 7.62C28.05 7.42 27.83 7.27 27.57 7.16C27.55 7.15 27.52 7.14 27.5 7.13ZM11.31 9.45C11.1 9.94 11 10.46 11 11L11 37C11 37.54 11.1 38.06 11.31 38.55C11.52 39.03 11.8 39.46 12.17 39.83C12.54 40.2 12.97 40.48 13.45 40.69C13.94 40.9 14.46 41 15 41L33 41C33.54 41 34.06 40.9 34.55 40.69C35.03 40.48 35.46 40.2 35.83 39.83C36.2 39.46 36.48 39.03 36.69 38.55C36.9 38.06 37 37.54 37 37L37 21L31.5 21C30.42 21 29.38 20.79 28.39 20.37C27.55 20.02 26.8 19.53 26.13 18.92C26.03 18.84 25.94 18.75 25.84 18.66C25.15 17.96 24.61 17.18 24.21 16.29C24.18 16.23 24.16 16.17 24.13 16.11C23.74 15.18 23.53 14.21 23.5 13.2L23.5 7L15 7C14.46 7 13.94 7.1 13.45 7.31C12.97 7.52 12.54 7.8 12.17 8.17C11.8 8.54 11.52 8.97 11.31 9.45Z" fill-rule="evenodd"  fill="#000000" >
</path>
</svg>
