<svg xmlns="http://www.w3.org/2000/svg" xmlns:xlink="http://www.w3.org/1999/xlink" width="48" height="48" viewBox="0 0 48 48" fill="none">
<path d="M14.25 23.6L14.25 31.4C14.25 31.76 14.34 32.09 14.52 32.4C14.69 32.71 14.94 32.95 15.24 33.13C15.56 33.31 15.89 33.39 16.25 33.39C16.61 33.39 16.94 33.31 17.26 33.13L24 29.23C24.3 29.05 24.55 28.81 24.72 28.5C24.9 28.19 24.99 27.86 24.99 27.5C24.99 27.15 24.9 26.81 24.72 26.51C24.55 26.2 24.3 25.95 23.99 25.77L17.25 21.87C16.94 21.7 16.61 21.61 16.25 21.61C15.89 21.61 15.56 21.7 15.24 21.88C14.94 22.05 14.69 22.3 14.52 22.6C14.34 22.91 14.25 23.24 14.25 23.6ZM40.69 17.95C40.48 17.47 40.2 17.04 39.83 16.67C39.46 16.3 39.03 16.02 38.55 15.81C38.06 15.6 37.54 15.5 37 15.5L7 15.5L7 36.5C7 37.04 7.1 37.56 7.31 38.05C7.52 38.53 7.8 38.96 8.17 39.33C8.54 39.7 8.97 39.98 9.45 40.19C9.94 40.4 10.46 40.5 11 40.5L37 40.5C37.54 40.5 38.06 40.4 38.55 40.19C39.03 39.98 39.46 39.7 39.83 39.33C40.2 38.96 40.48 38.53 40.69 38.05C40.9 37.56 41 37.04 41 36.5L41 19.5C41 18.96 40.9 18.44 40.69 17.95ZM10.25 31.4C10.25 32.48 10.52 33.48 11.05 34.4C11.59 35.33 12.32 36.06 13.26 36.6C14.18 37.13 15.18 37.39 16.25 37.39C17.32 37.39 18.32 37.13 19.24 36.6L26 32.69C26.93 32.15 27.66 31.42 28.19 30.5C28.72 29.57 28.99 28.57 28.99 27.5C28.99 26.43 28.72 25.43 28.19 24.51C27.66 23.59 26.93 22.86 26.01 22.32L19.25 18.41C18.32 17.88 17.32 17.61 16.25 17.61C15.18 17.61 14.18 17.88 13.26 18.41C12.32 18.94 11.59 19.67 11.05 20.6C10.52 21.53 10.25 22.53 10.25 23.6L10.25 31.4ZM40.11 12.13C39.12 11.71 38.08 11.5 37 11.5L29.9 11.5L24.29 5.18C23.52 4.33 22.62 3.67 21.58 3.2C20.54 2.73 19.45 2.5 18.31 2.5L11 2.5C9.92 2.5 8.88 2.71 7.89 3.13C6.93 3.54 6.08 4.11 5.34 4.84C4.61 5.58 4.04 6.43 3.63 7.39C3.21 8.38 3 9.42 3 10.5L3 36.5C3 37.58 3.21 38.62 3.63 39.61C4.04 40.57 4.61 41.42 5.34 42.16C6.08 42.89 6.93 43.46 7.89 43.87C8.88 44.29 9.92 44.5 11 44.5L37 44.5C38.08 44.5 39.12 44.29 40.11 43.87C41.07 43.46 41.92 42.89 42.66 42.16C43.39 41.42 43.96 40.57 44.37 39.61C44.79 38.62 45 37.58 45 36.5L45 19.5C45 18.42 44.79 17.38 44.37 16.39C43.96 15.43 43.39 14.58 42.66 13.84C41.92 13.11 41.07 12.54 40.11 12.13ZM9.45 6.81C8.97 7.02 8.54 7.3 8.17 7.67C7.8 8.04 7.52 8.47 7.31 8.95C7.1 9.44 7 9.96 7 10.5L7 11.5L24.55 11.5L21.29 7.84C20.92 7.41 20.47 7.08 19.95 6.85C19.43 6.62 18.88 6.5 18.31 6.5L11 6.5C10.46 6.5 9.94 6.6 9.45 6.81Z" fill-rule="evenodd"  fill="#000000" >
</path>
</svg>
