<svg xmlns="http://www.w3.org/2000/svg" xmlns:xlink="http://www.w3.org/1999/xlink" width="48" height="48" viewBox="0 0 48 48" fill="none">
<path d="M7 37C7 38.08 7.21 39.12 7.63 40.11C8.04 41.07 8.61 41.92 9.34 42.66C10.08 43.39 10.93 43.96 11.89 44.37C12.88 44.79 13.92 45 15 45L33 45C34.08 45 35.12 44.79 36.11 44.37C37.07 43.96 37.92 43.39 38.66 42.66C39.39 41.92 39.96 41.07 40.37 40.11C40.79 39.12 41 38.08 41 37L41 17L40.97 17C40.91 16.44 40.78 15.89 40.57 15.36C40.28 14.65 39.87 14.01 39.33 13.46L31.13 4.86C30.57 4.27 29.91 3.81 29.15 3.49C28.62 3.26 28.07 3.11 27.5 3.04L27.5 3L15 3C13.92 3 12.88 3.21 11.89 3.63C10.93 4.04 10.08 4.61 9.34 5.34C8.61 6.08 8.04 6.93 7.63 7.89C7.21 8.88 7 9.92 7 11L7 37ZM11.31 9.45C11.1 9.94 11 10.46 11 11L11 37C11 37.54 11.1 38.06 11.31 38.55C11.52 39.03 11.8 39.46 12.17 39.83C12.54 40.2 12.97 40.48 13.45 40.69C13.94 40.9 14.46 41 15 41L33 41C33.54 41 34.06 40.9 34.55 40.69C35.03 40.48 35.46 40.2 35.83 39.83C36.2 39.46 36.48 39.03 36.69 38.55C36.9 38.06 37 37.54 37 37L37 21L31.5 21C30.42 21 29.38 20.79 28.39 20.37C27.55 20.02 26.8 19.53 26.13 18.92C26.03 18.84 25.94 18.75 25.84 18.66C25.15 17.96 24.61 17.18 24.21 16.29C24.18 16.23 24.16 16.17 24.13 16.11C23.74 15.18 23.53 14.21 23.5 13.2L23.5 7L15 7C14.46 7 13.94 7.1 13.45 7.31C12.97 7.52 12.54 7.8 12.17 8.17C11.8 8.54 11.52 8.97 11.31 9.45ZM27.99 29.5C27.99 29.15 27.9 28.81 27.72 28.51C27.55 28.2 27.3 27.95 26.99 27.77L20.25 23.87C19.94 23.7 19.61 23.61 19.25 23.61C18.89 23.61 18.56 23.7 18.24 23.88C17.94 24.05 17.69 24.3 17.52 24.6C17.34 24.91 17.25 25.24 17.25 25.6L17.25 33.4C17.25 33.76 17.34 34.09 17.52 34.4C17.69 34.71 17.94 34.95 18.24 35.13C18.56 35.31 18.89 35.39 19.25 35.39C19.61 35.39 19.94 35.31 20.26 35.13L27 31.23C27.3 31.05 27.55 30.81 27.72 30.5C27.9 30.19 27.99 29.86 27.99 29.5ZM36.86 16.86C36.76 16.62 36.62 16.41 36.45 16.22L28.23 7.62C28.05 7.42 27.83 7.27 27.57 7.16C27.55 7.15 27.52 7.14 27.5 7.13L27.5 13C27.5 13.54 27.6 14.06 27.81 14.55C28.02 15.03 28.3 15.46 28.67 15.83C29.04 16.2 29.47 16.48 29.95 16.69C30.44 16.9 30.96 17 31.5 17L36.91 17C36.89 16.95 36.87 16.91 36.86 16.86ZM29 34.69C29.93 34.15 30.66 33.42 31.19 32.5C31.72 31.57 31.99 30.57 31.99 29.5C31.99 28.43 31.72 27.43 31.19 26.51C30.66 25.59 29.93 24.86 29.01 24.32L22.25 20.41C21.32 19.88 20.32 19.61 19.25 19.61C18.18 19.61 17.18 19.88 16.26 20.41C15.32 20.94 14.59 21.67 14.05 22.6C13.52 23.53 13.25 24.53 13.25 25.6L13.25 33.4C13.25 34.48 13.52 35.48 14.05 36.4C14.59 37.33 15.32 38.06 16.26 38.6C17.18 39.13 18.18 39.39 19.25 39.39C20.32 39.39 21.32 39.13 22.24 38.6L29 34.69Z" fill-rule="evenodd"  fill="#000000" >
</path>
</svg>
