<svg xmlns="http://www.w3.org/2000/svg" xmlns:xlink="http://www.w3.org/1999/xlink" width="48" height="48" viewBox="0 0 48 48" fill="none">
<path d="M24.0898 11.4265C24.1747 9.167 24.8241 7.1823 26.0224 5.52322C27.2268 3.85573 29.2179 2.6712 31.9434 2C31.9615 2.08206 31.9804 2.16416 32 2.24596L32 2.67527C32 3.64877 31.7584 4.76505 31.2817 5.9929C30.7822 7.18176 30.0014 8.30069 28.9644 9.31053C27.9945 10.2003 27.0973 10.7894 26.3043 11.0557C26.0425 11.1322 25.6835 11.2074 25.25 11.2751C24.8645 11.3339 24.4776 11.3844 24.0898 11.4265ZM27.6445 12.4896C26.201 13.1631 25.1576 13.4998 24.5143 13.4998C23.8662 13.4998 22.8659 13.1541 21.5136 12.4627C19.6061 11.4876 18.0171 11 16.7466 11C14.2492 11 11.9738 11.9802 9.92037 13.9407C7.30679 16.436 6 19.9258 6 24.41C6 30.6787 8.08965 36.1739 12.269 40.8955C12.2896 40.9188 12.3038 40.9348 12.3115 40.9435C12.331 40.9658 12.3646 41.0044 12.4123 41.0595C14.1107 43.0198 15.9221 44 17.8466 44C18.7649 44 20.0574 43.6976 21.724 43.0929C23.0434 42.6142 23.9735 42.3748 24.5143 42.3748C25.0969 42.3748 26.1691 42.6321 27.7308 43.1467C29.4573 43.7156 30.7242 44 31.5316 44C33.3557 44 35.1343 43.1268 36.8672 41.3804C38.9887 39.2423 40.66 36.4811 41.8813 33.0969C42.0792 32.5484 42.0234 31.9618 41.7644 31.4761C41.7778 31.4745 41.7792 31.4589 41.7697 31.4327C41.7237 31.3065 41.4249 30.9345 41.0098 30.6917C41.0079 30.6906 41.0061 30.6895 41.0043 30.6885C38.2663 29.0987 36.8973 27.0059 36.8973 24.41C36.8973 21.6828 37.9189 19.4173 39.9621 17.6136C40.44 17.1917 40.67 16.5896 40.635 15.9954C40.6497 15.9979 40.6585 15.9822 40.6613 15.952C40.6747 15.8027 40.5393 15.299 40.215 14.8836C40.2131 14.8812 40.2112 14.8787 40.2093 14.8763C38.1726 12.2921 35.7513 11 32.9454 11C31.54 11 29.773 11.4965 27.6445 12.4896ZM19.6927 16.0243C21.6168 17.008 23.224 17.4998 24.5143 17.4998C25.7491 17.4998 27.3562 17.038 29.3357 16.1145C30.9282 15.3715 32.1315 15 32.9454 15C33.9795 15 34.9489 15.3666 35.8538 16.0998C33.8828 18.4247 32.8973 21.1948 32.8973 24.41C32.8973 28.0142 34.4446 30.9446 37.5393 33.2011C36.6 35.363 35.4295 37.1503 34.0278 38.563C33.0772 39.521 32.2451 40 31.5316 40C31.1522 40 30.3025 39.7825 28.9825 39.3476C27.0143 38.6991 25.5249 38.3748 24.5143 38.3748C23.5047 38.3748 22.1198 38.6941 20.3597 39.3328C19.1338 39.7776 18.2961 40 17.8466 40C17.1401 40 16.3364 39.4801 15.4355 38.4403C15.3819 38.3784 15.3421 38.3327 15.3162 38.3032C15.3057 38.2912 15.2883 38.2716 15.2642 38.2443C11.7547 34.2795 10 29.6681 10 24.41C10 21.0667 10.8942 18.5413 12.6826 16.8338C13.9631 15.6113 15.3178 15 16.7466 15C17.375 15 18.357 15.3414 19.6927 16.0243Z" fill-rule="evenodd"  fill="#000000" >
</path>
</svg>
