<svg xmlns="http://www.w3.org/2000/svg" xmlns:xlink="http://www.w3.org/1999/xlink" width="48" height="48" viewBox="0 0 48 48" fill="none">
<path d="M15.178 5.58L21.258 25.8L16.288 25.8C15.098 25.8 13.938 26 12.808 26.38C11.708 26.75 10.688 27.29 9.74805 27.99C8.80805 28.69 7.99805 29.52 7.30805 30.47C6.60805 31.45 6.05805 32.51 5.66805 33.67L3.09805 41.37C2.66805 42.66 3.63805 44 4.99805 44L43.998 44C45.238 44 46.148 42.91 45.978 41.74C45.968 41.61 45.938 41.49 45.888 41.36L44.698 37.67L43.738 34.73L41.308 27.15L36.178 11.05C35.428 8.67 34.088 6.74 32.168 5.26C30.208 3.75 28.018 3 25.588 3L17.098 3C15.758 3 14.798 4.29 15.178 5.58ZM32.368 12.27C31.258 8.76 28.988 7 25.588 7L19.788 7L25.438 25.8L36.678 25.8L32.368 12.27ZM22.458 29.8L16.288 29.8C14.768 29.8 13.378 30.27 12.138 31.2C10.878 32.14 9.98805 33.39 9.46805 34.93L7.77805 40L25.498 40L23.068 31.87L22.458 29.8ZM41.238 40L37.888 29.8L26.638 29.8L27.658 33.22L29.688 40L41.238 40Z" fill-rule="evenodd"  fill="#000000" >
</path>
</svg>
