<svg xmlns="http://www.w3.org/2000/svg" xmlns:xlink="http://www.w3.org/1999/xlink" width="48" height="48" viewBox="0 0 48 48" fill="none">
<path   fill-rule="evenodd"  fill="#000000"  d="M20.194 5.16861L15.454 1.96861C14.854 1.53861 14.184 1.32861 13.434 1.32861C11.064 1.32861 9.87402 2.52861 9.87402 4.93861L9.87402 33.0986C9.87402 33.3586 9.88402 33.6186 9.91402 33.8886C9.92402 34.0086 9.94402 34.1186 9.95402 34.2186L9.95402 34.2286C10.164 36.1386 10.774 37.9186 11.784 39.5886C14.154 43.4186 17.524 45.4286 21.904 45.6086C22.034 45.6186 22.204 45.6186 22.414 45.6186C22.564 45.6186 22.704 45.6186 22.814 45.6086C24.874 45.5486 27.054 44.7786 29.354 43.3186L31.764 41.7886C31.924 41.6886 32.204 41.5086 32.604 41.2486C34.734 39.8986 36.154 38.8686 36.874 38.1786C36.934 38.1286 36.994 38.0686 37.054 38.0086L37.114 37.9486C38.994 35.8486 40.084 33.3986 40.374 30.5986C40.424 30.1386 40.444 29.6686 40.444 29.1986C40.444 28.8886 40.434 28.5886 40.404 28.2886C40.184 24.8986 38.844 22.0386 36.414 19.7286C35.784 19.1286 35.084 18.5786 34.324 18.1286C34.294 18.1086 34.264 18.0886 34.234 18.0786L33.054 17.4486L27.074 14.2686C27.034 14.2486 26.984 14.2286 26.944 14.2086C26.504 14.0186 26.034 13.9186 25.554 13.9186C24.654 13.9186 23.834 14.2586 23.214 14.8286L23.214 10.8886C23.214 8.49861 22.254 6.61861 20.324 5.25861C20.314 5.24861 20.294 5.23861 20.284 5.22861L20.194 5.16861ZM23.204 32.2986L28.574 29.0186L28.164 28.8786C28.084 28.8586 27.994 28.8286 27.914 28.7886L27.784 28.7386C26.704 28.2986 25.814 27.4886 25.254 26.4686C25.204 26.3886 25.164 26.3086 25.134 26.2186L23.964 23.1286L23.214 21.1286L23.204 32.2986ZM22.244 37.6186L22.124 37.6886L21.024 38.3686L20.044 38.9686L19.914 39.0386L19.844 39.0886C19.834 39.0986 19.824 39.1086 19.814 39.1086L19.804 39.1186C19.054 39.5686 18.234 39.8486 17.334 39.9486C18.654 40.9786 20.244 41.5386 22.084 41.6086L22.124 41.6086C22.124 41.6086 22.134 41.6086 22.154 41.6186L22.504 41.6186C22.544 41.6186 22.574 41.6086 22.604 41.6086L22.664 41.6086C23.994 41.5786 25.514 41.0186 27.204 39.9386L29.624 38.4086C29.754 38.3186 30.034 38.1486 30.454 37.8786C32.554 36.5386 33.784 35.6786 34.114 35.2886C34.224 35.1686 34.324 35.0286 34.424 34.8686C34.484 34.7586 34.534 34.6686 34.564 34.6086C34.564 34.6086 34.564 34.5986 34.564 34.5986C34.574 34.5786 34.574 34.5686 34.584 34.5486C34.584 34.5486 34.584 34.5486 34.584 34.5386C34.594 34.5386 34.594 34.5386 34.594 34.5286L34.594 34.5186L34.634 34.4386C34.634 34.4386 34.634 34.4286 34.634 34.4286C34.644 34.4086 34.654 34.3986 34.664 34.3786C34.664 34.3586 34.674 34.3386 34.674 34.3186L34.674 34.3386C34.674 34.3286 34.674 34.3186 34.684 34.3186C34.684 34.2986 34.684 34.2786 34.694 34.2586L34.694 34.2586L34.694 34.2586C34.704 34.2286 34.714 34.2086 34.714 34.2086C34.714 34.1986 34.724 34.1986 34.724 34.1986C34.724 34.1786 34.734 34.1386 34.744 34.0886L34.744 34.0886C34.754 34.0686 34.754 34.0486 34.764 34.0186C34.764 34.0086 34.764 34.0086 34.774 33.9986C34.774 33.9686 34.784 33.9386 34.784 33.9186C34.784 33.9086 34.794 33.8986 34.794 33.8886C34.794 33.8886 34.794 33.8786 34.794 33.8786L34.794 33.8786L34.794 33.8586L34.814 33.7486L34.814 33.7386L34.824 33.6986C34.834 33.5686 34.844 33.4386 34.844 33.3186C34.844 32.7786 34.714 32.2786 34.444 31.7986L34.444 31.7886C34.374 31.6986 34.324 31.6186 34.284 31.5686L34.264 31.5486C34.254 31.5286 34.244 31.5186 34.234 31.5086C34.164 31.4086 34.074 31.3086 33.964 31.1986C33.804 31.0186 33.604 30.8786 33.394 30.7586L33.394 30.7686L22.524 37.4086C22.474 37.4586 22.414 37.4986 22.354 37.5486C22.314 37.5686 22.284 37.5986 22.244 37.6186ZM19.214 10.8886C19.214 9.87861 18.824 9.09861 18.034 8.53861L17.974 8.48861L13.874 5.72861L13.874 33.0986C13.874 33.2286 13.884 33.3586 13.894 33.4886C13.904 33.5786 13.904 33.6286 13.914 33.6486C14.184 35.1986 15.054 35.9786 16.544 35.9786C16.974 35.9786 17.384 35.8786 17.764 35.6686L17.984 35.5386L18.074 35.4786L18.934 34.9486L19.204 34.7786L19.214 10.8886ZM32.304 21.5786L31.174 20.9686L26.484 18.4886L27.704 21.7086L28.814 24.6386C28.924 24.8086 29.084 24.9486 29.264 25.0186L29.304 25.0386C29.404 25.0686 29.494 25.0986 29.594 25.1386L32.634 26.2286L33.854 26.6486L33.854 26.6486C34.144 26.7286 34.464 26.8386 34.794 26.9886L34.814 26.9886C34.814 26.9986 34.824 26.9986 34.834 26.9986C35.384 27.2486 35.904 27.5686 36.364 27.9586C36.094 25.8686 35.194 24.0886 33.654 22.6286C33.234 22.2286 32.784 21.8786 32.304 21.5786ZM38.624 35.0686C38.624 35.0686 38.634 35.0586 38.634 35.0486C38.634 35.0386 38.644 35.0286 38.644 35.0286C38.634 35.0386 38.634 35.0486 38.624 35.0686Z">
</path>
</svg>
