<svg xmlns="http://www.w3.org/2000/svg" xmlns:xlink="http://www.w3.org/1999/xlink" width="48" height="48" viewBox="0 0 48 48" fill="none">
<path d="M26.3378 4.42732C25.6378 3.86732 24.8678 3.46732 24.0278 3.24732C23.2278 3.01732 22.3978 2.95732 21.5678 3.04732C21.4878 3.05732 21.3978 3.06732 21.3178 3.07732C20.5678 3.19732 19.8478 3.43732 19.1778 3.79732C18.4078 4.21732 17.7578 4.76732 17.2178 5.43732L7.61777 17.4973L4.37777 21.5673C3.83777 22.2373 3.44777 22.9973 3.20777 23.8373C2.97777 24.6473 2.91777 25.4773 3.00777 26.3073C3.05777 26.7573 3.15777 27.1973 3.29777 27.6273C3.41777 27.9873 3.57777 28.3373 3.75777 28.6873C4.16777 29.4473 4.71777 30.1073 5.39777 30.6473L21.5478 43.4873C22.2378 44.0273 22.9978 44.4173 23.8278 44.6473C24.6378 44.8673 25.4578 44.9373 26.2978 44.8473C27.1278 44.7473 27.9178 44.4973 28.6578 44.0973C29.4178 43.6873 30.0678 43.1373 30.6078 42.4473L43.4478 26.3073C43.9878 25.6273 44.3778 24.8673 44.6178 24.0373C44.8378 23.2273 44.8978 22.3973 44.8078 21.5673C44.7078 20.7373 44.4578 19.9473 44.0678 19.2073C43.6478 18.4473 43.0978 17.7973 42.4178 17.2473L26.8378 4.85732C26.8178 4.83732 26.7978 4.81732 26.7778 4.78732L26.7078 4.72732L26.6278 4.66732L26.3378 4.42732ZM21.1078 7.30732C20.8178 7.45732 20.5678 7.66732 20.3578 7.93732L10.7478 19.9973L7.49777 24.0773C7.29777 24.3373 7.14777 24.6173 7.06777 24.9473C6.97777 25.2473 6.95777 25.5573 6.98777 25.8773C7.00777 26.0473 7.04777 26.2073 7.09777 26.3673C7.14777 26.4973 7.19777 26.6273 7.26777 26.7473C7.41777 27.0373 7.62777 27.2873 7.89777 27.4973L21.7778 38.3673L24.6278 9.42732C24.6478 9.07732 24.5978 8.74732 24.4778 8.42732C24.3778 8.18732 24.2578 7.98732 24.1078 7.79732L23.7978 7.54732C23.7978 7.53732 23.7878 7.53732 23.7878 7.53732C23.5278 7.33732 23.2378 7.18732 22.9278 7.09732C22.6178 7.01732 22.2978 6.99732 21.9878 7.02732C21.9578 7.02732 21.9278 7.03732 21.8978 7.03732C21.6178 7.08732 21.3578 7.17732 21.1078 7.30732ZM25.8378 40.8673C26.1578 40.8373 26.4578 40.7373 26.7378 40.5873C27.0278 40.4273 27.2778 40.2273 27.4778 39.9573L40.3178 23.8173C40.5278 23.5673 40.6778 23.2773 40.7578 22.9573C40.8478 22.6573 40.8678 22.3373 40.8378 22.0173C40.7978 21.7073 40.6978 21.3973 40.5478 21.1273C40.3978 20.8373 40.1878 20.5973 39.9378 20.3873L28.4578 11.2573L25.5378 40.8873C25.6378 40.8873 25.7378 40.8773 25.8378 40.8673Z" fill-rule="evenodd"  fill="#000000" >
</path>
</svg>
