<svg xmlns="http://www.w3.org/2000/svg" xmlns:xlink="http://www.w3.org/1999/xlink" width="48" height="48" viewBox="0 0 48 48" fill="none">
<path d="M21.9868 7.02684C21.9568 7.02684 21.9268 7.03684 21.9068 7.03684C21.6168 7.08684 21.3568 7.17684 21.1068 7.30684C20.8168 7.46684 20.5768 7.66684 20.3568 7.93684L10.7268 20.0168L7.4968 24.0768C7.2968 24.3368 7.1468 24.6268 7.0668 24.9468C6.9768 25.2468 6.9568 25.5568 6.9968 25.8768C7.0068 26.0468 7.0468 26.2068 7.0968 26.3668C7.1468 26.4968 7.1968 26.6268 7.2668 26.7468C7.4168 27.0368 7.6268 27.2868 7.8968 27.4968L8.7468 28.1768L8.7568 28.1668C8.8468 28.2368 8.9868 28.3068 9.1668 28.3568C9.4268 28.4468 9.7468 28.4868 10.1168 28.5068C10.9268 28.5468 11.8768 28.4468 12.9668 28.2068C14.0368 27.9768 15.0968 27.6368 16.1468 27.2068C17.1568 26.7768 17.9968 26.3168 18.6568 25.8368C19.8768 24.9568 21.1268 24.1268 22.3868 23.3568L24.6268 9.37684C24.6468 9.03684 24.5868 8.72684 24.4768 8.42684C24.3768 8.19684 24.2568 7.98684 24.1068 7.79684L23.7968 7.54684C23.7968 7.53684 23.7868 7.53684 23.7868 7.53684C23.5268 7.33684 23.2368 7.18684 22.9268 7.10684C22.6168 7.01684 22.2968 6.99684 21.9868 7.02684ZM24.9068 40.7968C25.2068 40.8768 25.5268 40.9068 25.8368 40.8668C26.1568 40.8368 26.4568 40.7368 26.7368 40.5868C27.0268 40.4368 27.2768 40.2268 27.4768 39.9568L40.3168 23.8168C40.5268 23.5668 40.6768 23.2768 40.7568 22.9568C40.8468 22.6568 40.8668 22.3368 40.8368 22.0168C40.7968 21.7468 40.7268 21.4868 40.6168 21.2468C40.5968 21.2268 40.5768 21.2168 40.5468 21.1968C40.2968 21.0368 39.9068 20.9868 39.3768 21.0368C39.0468 21.0568 38.5868 21.1368 37.9968 21.2468C36.7568 21.4968 35.4468 21.8468 34.0668 22.2968C32.1068 22.9268 30.1468 23.7468 28.1768 24.7168C25.7268 25.9368 23.3268 27.3968 20.9968 29.0768C20.0868 29.7468 18.9868 30.3468 17.6968 30.8968C16.4268 31.4168 15.1268 31.8268 13.8168 32.1168C13.7868 32.1268 13.7468 32.1368 13.7168 32.1368L24.0368 40.3468C24.3068 40.5568 24.5968 40.7068 24.9068 40.7968ZM26.8268 20.9268C28.8168 19.9568 30.8268 19.1468 32.8268 18.4868C34.0368 18.0968 35.1968 17.7768 36.3168 17.5168L28.3868 11.1968L26.8268 20.9268ZM26.8668 45.1068C27.6568 44.9468 28.4168 44.6268 29.1268 44.1468C29.7768 43.7168 30.3568 43.1768 30.8768 42.5268L43.6168 26.5068C44.2168 25.7568 44.6368 24.8468 44.8568 23.7668C45.0668 22.6968 45.0468 21.6668 44.7568 20.6768C44.6068 20.1168 44.3668 19.6068 44.0668 19.1568C44.0168 19.0968 43.9768 19.0368 43.9368 18.9768C43.5368 18.3168 43.0268 17.7368 42.4168 17.2468L26.8368 4.85684C26.8168 4.83684 26.7968 4.81684 26.7768 4.78684L26.7068 4.72684L26.6268 4.66684L26.3468 4.42684C25.6368 3.86684 24.8668 3.46684 24.0268 3.24684C23.2268 3.01684 22.3968 2.95684 21.5668 3.04684C21.4868 3.05684 21.4068 3.06684 21.3268 3.07684C20.5668 3.19684 19.8468 3.43684 19.1768 3.79684C18.4068 4.21684 17.7568 4.76684 17.2168 5.43684L7.5968 17.5268L4.3768 21.5668C3.8368 22.2368 3.4468 22.9968 3.2068 23.8368C2.9768 24.6568 2.9168 25.4768 3.0068 26.3068C3.0568 26.7568 3.1568 27.1968 3.2968 27.6168C3.4168 27.9868 3.5768 28.3368 3.7568 28.6868C4.1668 29.4468 4.7168 30.1068 5.4068 30.6468L10.5968 34.7768L21.7268 43.7168C22.1268 44.0268 22.5368 44.2968 22.9468 44.5068L23.0368 44.5768L23.0368 44.5568C23.4368 44.7568 23.8368 44.9068 24.2568 45.0168C25.1268 45.2568 25.9968 45.2768 26.8668 45.1068Z" fill-rule="evenodd"  fill="#000000" >
</path>
</svg>
