<svg xmlns="http://www.w3.org/2000/svg" xmlns:xlink="http://www.w3.org/1999/xlink" width="48" height="48" viewBox="0 0 48 48" fill="none">
<path d="M36.64 29.71C37.16 29.15 37.58 28.52 37.9 27.81C38.25 27.03 38.45 26.23 38.49 25.4C38.54 24.42 38.37 23.49 37.98 22.6C37.56 21.66 36.92 20.86 36.07 20.18C34.13 18.63 31.82 16.67 29.15 14.3C27.52 12.85 24.95 10.51 21.44 7.29999C20.18 6.13999 19.23 5.26999 18.59 4.68999C18.09 4.22999 17.54 3.89999 16.94 3.69999C16.1 3.42999 15.27 3.41999 14.44 3.68999C13.7 3.92999 13.08 4.34999 12.56 4.95999C12.22 5.36999 11.94 5.84999 11.74 6.38999C11.26 7.69999 10.99 9.00999 10.94 10.34C10.89 11.61 11.03 12.84 11.37 14.05C11.38 14.09 11.39 14.12 11.4 14.16C11.26 14.34 11.14 14.53 11.03 14.73C10.74 15.27 10.58 15.85 10.54 16.47C10.43 17.78 10.55 19.07 10.88 20.32C11.19 21.5 11.68 22.59 12.34 23.61C12.49 23.83 12.64 24.05 12.8 24.26C12.73 24.77 12.75 25.27 12.87 25.78C13.05 26.56 13.38 27.33 13.85 28.11C14.31 28.87 14.87 29.56 15.53 30.2C16.26 30.89 17.06 31.48 17.94 31.94C18.03 31.99 18.12 32.04 18.22 32.09C18.02 32.46 17.9 32.85 17.84 33.26C17.73 34.01 17.85 34.72 18.18 35.39C18.37 35.77 18.62 36.11 18.93 36.4L18.94 36.41L17.51 38.87C17.15 39.47 16.96 40.11 16.95 40.79C16.94 41.26 17.02 41.7 17.18 42.14C17.38 42.67 17.69 43.13 18.1 43.52C18.54 43.92 19.04 44.21 19.61 44.36C20.09 44.5 20.57 44.53 21.07 44.47C21.74 44.38 22.35 44.13 22.91 43.71L29 39.12L35.11 34.51L35.15 34.47C35.6 34.12 35.95 33.68 36.19 33.18C36.37 32.82 36.48 32.44 36.53 32.05C36.59 31.56 36.56 31.07 36.42 30.6C36.38 30.44 36.32 30.28 36.25 30.13C36.4 29.97 36.53 29.83 36.64 29.72L36.64 29.71ZM32.97 31.74C32.64 31.99 21.09 40.7 20.81 40.91C20.53 41.12 20.36 40.92 20.51 40.67C20.68 40.37 24.29 34.2 24.36 34.09C24.42 33.97 24.34 33.89 24.22 33.89L21.46 33.89C21.31 33.89 21.27 33.79 21.34 33.67C21.43 33.51 23.52 29.82 23.52 29.82C23.56 29.72 23.53 29.65 23.4 29.65C22.85 29.67 22.24 29.66 21.67 29.56C18.59 29.04 16.66 26.58 16.28 24.97C16.25 24.82 16.27 24.65 16.35 24.54C16.27 24.65 16.25 24.82 16.28 24.97C16.66 26.58 18.59 29.04 21.67 29.56C22.24 29.66 22.85 29.67 23.4 29.65C23.53 29.65 23.56 29.72 23.52 29.82C23.52 29.82 21.43 33.51 21.34 33.67C21.27 33.79 21.31 33.89 21.46 33.89L24.22 33.89C24.34 33.89 24.42 33.97 24.36 34.09C24.29 34.2 20.68 40.37 20.51 40.67C20.36 40.92 20.53 41.12 20.81 40.91C21.09 40.7 32.64 31.99 32.97 31.74C32.99 31.72 33.01 31.7 33.03 31.68C33.01 31.7 32.99 31.72 32.97 31.74ZM30.32 31.24C30.43 31.13 33.12 28.36 34.08 27.33C34.14 27.26 34.2 27.19 34.26 27.12C34.2 27.19 34.14 27.26 34.08 27.33C33.12 28.36 30.43 31.13 30.32 31.24C30.31 31.25 30.3 31.26 30.3 31.26C30.3 31.26 30.31 31.25 30.32 31.24ZM15.03 7.59999C13.56 11.58 14.98 15.12 17.27 17.16C19.58 19.21 23 21.09 25.1 22.09C25.14 22.11 25.14 22.16 25.12 22.19C25.14 22.16 25.14 22.11 25.1 22.09C23 21.09 19.58 19.21 17.27 17.16C14.98 15.12 13.56 11.58 15.03 7.59999C15.08 7.45999 15.14 7.34999 15.21 7.25999C15.14 7.34999 15.08 7.45999 15.03 7.59999ZM14.03 16.74C13.73 20.55 16.09 23.54 18.73 24.55C20.37 25.17 22.15 25.52 23.81 25.73C23.87 25.73 23.88 25.8 23.85 25.84C23.88 25.8 23.87 25.73 23.81 25.73C22.15 25.52 20.37 25.17 18.73 24.55C16.09 23.54 13.73 20.55 14.03 16.74C14.04 16.55 14.09 16.4 14.16 16.31C14.09 16.4 14.04 16.55 14.03 16.74ZM34.25 26.17C34.4 25.85 34.48 25.52 34.5 25.2C34.53 24.45 34.23 23.83 33.58 23.31C31.58 21.72 29.22 19.71 26.49 17.29C24.84 15.83 22.26 13.48 18.74 10.25C17.47 9.08999 16.52 8.21999 15.88 7.62999C15.81 7.55999 15.74 7.51999 15.69 7.49999L15.67 7.49999C15.66 7.49999 15.64 7.51999 15.62 7.53999C15.57 7.59999 15.53 7.66999 15.49 7.77999C15.16 8.68999 14.97 9.59999 14.93 10.51C14.9 11.35 14.99 12.17 15.22 12.97C15.43 13.73 15.74 14.43 16.17 15.1C16.57 15.73 17.04 16.29 17.6 16.79C18.62 17.69 19.92 18.63 21.52 19.59C22.77 20.35 24.03 21.03 25.32 21.64C25.49 21.73 25.59 21.86 25.62 22.04C25.65 22.18 25.62 22.31 25.55 22.44C25.48 22.55 25.39 22.64 25.26 22.69C25.11 22.75 24.96 22.74 24.81 22.68C23.63 22.14 22.73 21.72 22.1 21.42C21.17 20.97 20.35 20.55 19.61 20.14C17.91 19.19 16.22 18.04 14.54 16.71L14.53 16.7C14.53 16.73 14.53 16.75 14.52 16.78C14.46 17.65 14.53 18.49 14.75 19.3C14.95 20.06 15.26 20.77 15.69 21.42C16.1 22.05 16.59 22.59 17.15 23.05C17.7 23.5 18.28 23.85 18.9 24.08C20.29 24.61 21.94 24.99 23.86 25.24C24.03 25.25 24.17 25.33 24.26 25.47C24.35 25.6 24.38 25.73 24.36 25.88C24.34 26.01 24.28 26.12 24.18 26.22C24.07 26.32 23.94 26.37 23.79 26.37C22.69 26.38 21.51 26.25 20.24 25.99C19.05 25.75 17.9 25.41 16.8 24.98C16.89 25.32 17.05 25.67 17.27 26.04C17.55 26.49 17.9 26.92 18.31 27.32C18.76 27.75 19.26 28.12 19.81 28.41C20.42 28.73 21.07 28.95 21.75 29.07C22.2 29.15 22.74 29.18 23.38 29.15L23.4 29.15C23.64 29.15 23.83 29.25 23.94 29.43C24.05 29.61 24.06 29.8 23.98 30.01L23.97 30.04L22.86 32L22.07 33.39L24.22 33.39C24.44 33.39 24.62 33.47 24.75 33.64C24.83 33.74 24.87 33.86 24.88 33.99C24.88 34.1 24.86 34.21 24.8 34.32L24.8 34.33L22.86 37.64L21.71 39.61L26.59 35.93L31.83 31.97L30.4 31.97C30.28 31.97 30.17 31.95 30.07 31.9C29.93 31.82 29.83 31.71 29.78 31.56C29.74 31.42 29.74 31.29 29.79 31.15C29.82 31.06 29.88 30.98 29.95 30.9L29.96 30.89C30.09 30.76 30.61 30.23 31.52 29.28C32.57 28.19 33.3 27.43 33.71 26.99C33.93 26.75 34.11 26.48 34.25 26.17ZM23.51 42.47L23.55 42.41C23.53 42.43 23.52 42.45 23.51 42.47Z" fill-rule="evenodd"  fill="#000000" >
</path>
</svg>
