<svg xmlns="http://www.w3.org/2000/svg" xmlns:xlink="http://www.w3.org/1999/xlink" width="48" height="48" viewBox="0 0 48 48" fill="none">
<path d="M27.6917 10.25C28.5622 11.1017 29.2607 11.9461 29.787 12.783C30.1373 13.3627 30.7734 13.7502 31.5 13.7502C32.6046 13.7502 33.5 12.8547 33.5 11.7502C33.5 11.3491 33.382 10.9756 33.1787 10.6625C32.4684 9.53127 31.5471 8.41657 30.4147 7.31839C29.6973 6.62268 28.7373 6.25 27.738 6.25L13.791 6.25C12.538 6.25 11.8085 7.23398 11.789 8.23282C11.7628 8.25999 11.7444 8.3013 11.7343 8.35374C11.6619 8.72914 12.0173 9.67528 13.0123 10.0922C13.0241 10.0972 13.036 10.102 13.048 10.1068C15.9139 11.2537 19.0641 14.4716 22.4986 19.7604C22.8523 20.3241 23.4794 20.6989 24.194 20.6989C25.2986 20.6989 26.194 19.8035 26.194 18.6989C26.194 18.2869 26.0694 17.904 25.8559 17.5859C23.8948 14.5656 21.9646 12.1203 20.0654 10.25L27.6917 10.25ZM21.7463 42.2502C27.9564 42.2502 33.3816 39.1584 38.022 32.9747C38.9558 31.7721 40.0249 29.6543 41.2294 26.6214C42.8989 22.4175 44.5724 19.6442 46.2498 18.3015C46.8826 17.795 47.1101 17.0093 46.9512 16.2994C46.9697 16.2917 46.9778 16.267 46.9758 16.2289C46.9649 16.023 46.6567 15.4284 46.0835 15.059L46.0784 15.0558C41.6469 12.2184 37.0889 12.3143 32.4045 15.3437C31.3133 15.9921 29.9143 17.4809 28.2076 19.8102C26.6919 21.8788 25.5051 23.2256 24.6472 23.8507C24.1345 24.2128 23.7997 24.81 23.7997 25.4854C23.7997 26.5899 24.6951 27.4854 25.7997 27.4854C26.246 27.4854 26.6581 27.3392 26.9908 27.0921C28.1884 26.2219 29.6695 24.5827 31.4341 22.1744C32.8191 20.2843 33.8171 19.1574 34.4281 18.7939C34.4762 18.7671 34.5231 18.7383 34.5686 18.7077C37.0038 17.1316 39.3659 16.6842 41.6551 17.3657C40.205 19.248 38.8239 21.8411 37.5118 25.145C36.5447 27.5802 35.7281 29.2814 35.0618 30.2485C33.4909 31.0998 31.2095 31.1974 28.2176 30.5413C21.2363 29.0104 13.6862 23.125 5.56719 12.8851C4.97854 12.1427 4.08675 11.9796 3.78802 12.0836C3.74195 12.0997 3.70999 12.1221 3.69541 12.1497C2.79594 12.2944 2.00002 13.0341 2.00002 14.1276L2 33.7193C2 34.2179 2.18622 34.6985 2.52216 35.0669C3.66327 36.3183 5.31794 37.5415 7.48618 38.7364C11.7369 41.0789 16.4903 42.2502 21.7463 42.2502ZM21.7463 38.2502C24.9526 38.2502 27.9348 37.1443 30.693 34.9326C29.6494 34.8682 28.5387 34.7068 27.3608 34.4485C20.5382 32.9524 13.4179 28.0148 6.00001 19.6359L6 32.8935C6.8288 33.6547 7.96773 34.4346 9.4168 35.2331C13.0666 37.2445 17.1764 38.2502 21.7463 38.2502Z" fill-rule="evenodd"  fill="#000000" >
</path>
</svg>
