<svg xmlns="http://www.w3.org/2000/svg" xmlns:xlink="http://www.w3.org/1999/xlink" width="48" height="48" viewBox="0 0 48 48" fill="none">
<path d="M2.95 17.6127C1.47 22.4827 1.72 27.7127 3.67 32.4127C5.62 37.1227 9.14 41.0027 13.63 43.4027C18.12 45.8027 23.3 46.5727 28.29 45.5827C33.28 44.5827 37.77 41.8927 41 37.9627C43.28 35.1927 44.84 31.9127 45.56 28.4027C45.85 26.9427 46 25.4827 46 24.0027C46 22.9227 45.92 21.8627 45.77 20.8227C45.52 19.1727 44.1 17.9727 42.44 18.0027L26 18.0027C23.79 18.0027 22 19.7927 22 22.0027L22 26.0027C22 28.2127 23.79 30.0027 26 30.0027L32 30.0027C31.92 30.1127 31.83 30.2327 31.74 30.3427C30.26 32.1227 28.22 33.3627 25.95 33.8127C23.68 34.2627 21.32 33.9127 19.28 32.8127C17.24 31.7227 15.65 29.9627 14.76 27.8227C13.87 25.6927 13.76 23.3127 14.43 21.1027C14.65 20.3727 14.95 19.6827 15.32 19.0327C15.33 19.0227 15.33 19.0127 15.34 19.0027C15.35 18.9927 15.35 18.9827 15.36 18.9727C16.12 17.6627 17.17 16.5327 18.44 15.6827C20.37 14.4027 22.68 13.8227 24.99 14.0527C26.95 14.2427 28.81 15.0127 30.33 16.2527C31.6 17.3427 33.49 17.2827 34.7 16.1227L38.37 12.4527C39.85 11.0227 39.8 8.60269 38.23 7.22269L38.2 7.19269C34.79 4.32269 30.59 2.54269 26.16 2.11269L26.15 2.11269C21.09 1.60269 16.01 2.88269 11.78 5.71269C7.55 8.53269 4.42 12.7427 2.95 17.6127ZM16.22 12.3527C18.92 10.5627 22.15 9.75269 25.37 10.0727C27.92 10.3227 30.35 11.2627 32.39 12.7827L35.24 9.93269C32.52 7.77269 29.23 6.42269 25.77 6.09269L25.76 6.09269C21.62 5.67269 17.46 6.72269 14 9.03269C12.25 10.2027 10.74 11.6527 9.5 13.3227L13 15.3327C13.9 14.1827 14.98 13.1727 16.22 12.3527ZM6.77 18.7727C5.57 22.7527 5.77 27.0427 7.37 30.8827C8.02 32.4627 8.89 33.9227 9.94 35.2327L12.79 32.3827C12.09 31.4627 11.51 30.4427 11.06 29.3627C9.82 26.3627 9.66 23.0327 10.61 19.9327C10.73 19.5527 10.86 19.1727 11 18.8027L7.5 16.7827C7.22 17.4327 6.98 18.0927 6.77 18.7727ZM15.51 39.8727C19.19 41.8427 23.43 42.4727 27.51 41.6627C31.59 40.8427 35.27 38.6327 37.92 35.4227C38.12 35.1827 38.31 34.9327 38.5 34.6827L35 32.6627C34.94 32.7327 34.88 32.8127 34.82 32.8827C32.77 35.3827 29.91 37.1027 26.73 37.7327C23.55 38.3627 20.25 37.8727 17.4 36.3427C16.77 36.0127 16.18 35.6327 15.62 35.2127L12.76 38.0627C13.62 38.7427 14.54 39.3527 15.51 39.8727ZM41.64 27.6027C41.88 26.4127 42 25.2127 42 24.0027C42 23.3227 41.96 22.6627 41.89 22.0027L26 22.0027L26 26.0027L35.32 26.0027C36.7 26.0027 37.67 27.3627 37.21 28.6727C37.15 28.8527 37.08 29.0227 37.01 29.2027L40.49 31.2127C41 30.0527 41.38 28.8527 41.64 27.6027Z" fill-rule="evenodd"  fill="#000000" >
</path>
</svg>
