<svg xmlns="http://www.w3.org/2000/svg" xmlns:xlink="http://www.w3.org/1999/xlink" width="48" height="48" viewBox="0 0 48 48" fill="none">
<path d="M39.32 19.48C39.32 17.39 39.07 15.41 38.58 13.53C38.03 11.42 37.2 9.56 36.09 7.95C34.81 6.09 33.22 4.65 31.33 3.64C29.3 2.55 27.02 2 24.5 2C21.98 2 19.71 2.55 17.67 3.64C15.78 4.65 14.2 6.09 12.92 7.95C11.8 9.56 10.97 11.42 10.42 13.52C9.93 15.41 9.68 17.39 9.68 19.48C9.68 19.61 9.68 19.77 9.69 19.98L8.43 23.14C7.93 24.49 7.51 25.68 7.19 26.72C6.43 29.2 6.03 31.31 6 33.04C5.99 33.93 6.07 34.7 6.25 35.37C6.39 35.91 6.61 36.4 6.89 36.83C7.15 37.23 7.47 37.57 7.83 37.86C8.44 38.34 9.13 38.62 9.89 38.71C9.85 38.85 9.81 38.99 9.78 39.13C9.65 39.72 9.64 40.32 9.74 40.91C9.82 41.43 9.99 41.92 10.24 42.38L10.28 42.44L10.31 42.5C10.93 43.53 11.9 44.23 13.24 44.58C13.7 44.7 14.26 44.8 14.92 44.86C15.85 44.96 17.03 45 18.46 45C19.63 44.99 20.85 44.96 22.12 44.9C23.07 44.85 23.86 44.8 24.5 44.74C25.14 44.8 25.94 44.85 26.89 44.9C28.16 44.96 29.38 44.99 30.55 45C31.98 45 33.16 44.96 34.09 44.86C34.74 44.8 35.3 44.7 35.77 44.58C37.1 44.23 38.08 43.53 38.7 42.5L38.73 42.44L38.76 42.38C39.02 41.92 39.19 41.43 39.27 40.91C39.37 40.3 39.35 39.7 39.22 39.1C39.19 38.97 39.15 38.84 39.11 38.71C39.12 38.71 39.13 38.71 39.14 38.71C39.87 38.63 40.54 38.34 41.16 37.86C41.53 37.57 41.84 37.23 42.1 36.84C42.39 36.41 42.6 35.92 42.75 35.38C42.93 34.71 43.01 33.93 43 33.04C42.97 31.31 42.58 29.21 41.82 26.75C41.59 25.98 41.18 24.8 40.6 23.23L39.63 20.62L39.57 20.62L39.31 19.97C39.32 19.77 39.32 19.6 39.32 19.48ZM35.29 18.35L35.29 16.7C35.24 16.7 35.19 16.7 35.13 16.7C34.36 11.02 31.12 6 24.5 6C16.82 6 13.68 12.76 13.68 19.48C13.68 19.88 13.71 20.65 13.71 20.69L12.15 24.62C11.73 25.75 11.32 26.92 11 27.93C9.54 32.71 10.01 34.7 10.37 34.74C11.15 34.84 13.39 31.13 13.39 31.13C13.39 33.28 14.48 36.08 16.83 38.1C15.95 38.37 14.88 38.8 14.18 39.32C13.56 39.78 13.64 40.25 13.75 40.45C14.25 41.29 22.21 40.98 24.5 40.72C26.8 40.98 34.76 41.29 35.26 40.45C35.37 40.25 35.45 39.78 34.82 39.32C34.13 38.8 33.05 38.37 32.17 38.09C34.52 36.08 35.61 33.28 35.61 31.13C35.61 31.13 37.85 34.84 38.63 34.74C38.99 34.7 39.47 32.71 38 27.93C37.7 26.92 37.27 25.75 36.85 24.62L36.84 24.62L35.3 20.69C35.3 20.69 35.3 20.7 35.29 20.7L35.3 20.69C35.3 20.65 35.32 19.88 35.32 19.48C35.32 19.1 35.31 18.72 35.29 18.35Z" fill-rule="evenodd"  fill="#000000" >
</path>
</svg>
