<svg xmlns="http://www.w3.org/2000/svg" xmlns:xlink="http://www.w3.org/1999/xlink" width="48" height="48" viewBox="0 0 48 48" fill="none">
<path d="M16.5502 9.55005L18.7006 9.55005C19.8051 9.55005 20.7006 8.65462 20.7006 7.55005C20.7006 6.44548 19.8051 5.55005 18.7006 5.55005L16.5502 5.55005C11.4415 5.55005 7.30018 9.69142 7.30018 14.8L7.30018 20.6031L5.09207 23.6605C4.84582 23.9929 4.7002 24.4044 4.7002 24.8498C4.7002 25.9544 5.59563 26.8498 6.7002 26.8498C7.37675 26.8498 7.97483 26.5139 8.33676 25.9997L10.6376 22.8139C11.0683 22.2174 11.3002 21.5005 11.3002 20.7647L11.3002 14.8C11.3002 11.9006 13.6507 9.55005 16.5502 9.55005ZM32.9984 13.0076C33.1898 12.7009 33.3003 12.3386 33.3003 11.9504C33.3003 10.8459 32.4049 9.95045 31.3003 9.95045C30.5591 9.95045 29.912 10.3537 29.5665 10.9529L15.2021 34.8932C15.0108 35.2 14.9002 35.5622 14.9002 35.9504C14.9002 37.055 15.7956 37.9504 16.9002 37.9504C17.6415 37.9504 18.2886 37.5471 18.634 36.9481L32.9984 13.0076ZM31.65 38.4504L29.4996 38.4504C28.395 38.4504 27.4996 39.3458 27.4996 40.4504C27.4996 41.555 28.395 42.4504 29.4996 42.4504L31.65 42.4504C36.7586 42.4504 40.9 38.309 40.9 33.2004L40.9 27.3974L43.1082 24.3399C43.3545 24.0075 43.5001 23.596 43.5001 23.1506C43.5001 22.046 42.6047 21.1507 41.5001 21.1507C40.8236 21.1507 40.2255 21.4865 39.8636 22.0006L37.5626 25.1865C37.1319 25.7829 36.9 26.5 36.9 27.2357L36.9 33.2004C36.9 36.0999 34.5495 38.4504 31.65 38.4504Z" fill-rule="evenodd"  fill="#000000" >
</path>
</svg>
