<svg xmlns="http://www.w3.org/2000/svg" xmlns:xlink="http://www.w3.org/1999/xlink" width="48" height="48" viewBox="0 0 48 48" fill="none">
<path d="M26 5C26 3.9 25.1 3 24 3C22.9 3 22 3.9 22 5L22 8C22 9.1 22.9 10 24 10C25.1 10 26 9.1 26 8L26 5ZM8.71 13.54C9.48 14.31 10.76 14.31 11.54 13.54C12.31 12.76 12.31 11.48 11.54 10.71L9.41 8.59C8.64 7.81 7.36 7.81 6.59 8.59C5.81 9.36 5.81 10.64 6.59 11.41L8.71 13.54ZM41.54 8.59C40.76 7.81 39.48 7.81 38.71 8.59L36.59 10.71C35.81 11.48 35.81 12.76 36.59 13.54C37.36 14.31 38.64 14.31 39.41 13.54L41.54 11.41C42.31 10.64 42.31 9.36 41.54 8.59ZM31.5 37.46L31.5 34.77C35.17 32.28 37 28.71 37 24.08C37 16.9 31.18 11 24 11C16.78 11 11 16.86 11 24.08C11 28.71 12.83 32.28 16.5 34.77L16.5 37.46C16.5 41.6 19.86 45 24 45C28.16 45 31.5 41.62 31.5 37.46ZM28.49 31.94L28.5 31.94C31.5 30.2 33 27.58 33 24.08C33 19.11 28.97 15 24 15C18.99 15 15 19.07 15 24.08C15 27.58 16.5 30.2 19.5 31.94C20.09 32.28 20.46 32.9 20.5 33.57L27.5 33.57C27.52 33.17 27.66 32.8 27.89 32.48C27.88 32.48 27.88 32.47 27.89 32.46C27.94 32.37 28.19 32.12 28.49 31.94ZM27.3 24C27.3 25.1 28.2 26 29.3 26C30.4 26 31.3 25.1 31.3 24L31.3 23.97C31.3 22.95 31.07 21.98 30.62 21.07C30.2 20.23 29.63 19.5 28.9 18.86C28.21 18.27 27.45 17.82 26.6 17.49C25.74 17.16 24.87 17 24 17C22.9 17 22 17.9 22 19C22 20.1 22.9 21 24 21C24.38 21 24.77 21.08 25.17 21.23C25.58 21.39 25.95 21.61 26.28 21.89C26.96 22.48 27.3 23.18 27.3 24ZM8 25C9.1 25 10 24.1 10 23C10 21.9 9.1 21 8 21L5 21C3.9 21 3 21.9 3 23C3 24.1 3.9 25 5 25L8 25ZM43.12 25C44.22 25 45.12 24.1 45.12 23C45.12 21.9 44.22 21 43.12 21L40.12 21C39.02 21 38.12 21.9 38.12 23C38.12 24.1 39.02 25 40.12 25L43.12 25ZM5.77 34.75C6.15 35.79 7.3 36.33 8.33 35.95L11.15 34.92C12.19 34.55 12.72 33.39 12.35 32.36C11.97 31.33 10.82 30.79 9.79 31.16L6.97 32.19C5.93 32.57 5.39 33.72 5.77 34.75ZM39.79 35.96C40.82 36.33 41.97 35.79 42.35 34.76C42.72 33.73 42.19 32.57 41.15 32.2L38.33 31.17C37.3 30.79 36.15 31.33 35.77 32.37C35.39 33.4 35.93 34.55 36.97 34.93L39.79 35.96ZM20.5 37.57C20.56 39.45 22.1 41 24 41C25.92 41 27.44 39.47 27.5 37.57L20.5 37.57Z" fill-rule="evenodd"  fill="#000000" >
</path>
</svg>
