<svg xmlns="http://www.w3.org/2000/svg" xmlns:xlink="http://www.w3.org/1999/xlink" width="48" height="48" viewBox="0 0 48 48" fill="none">
<path d="M4.48842 14.5946C4.16281 15.1915 4 15.83 4 16.51L4 39C4 42.3137 6.68629 45 10 45L38 45C41.3137 45 44 42.3137 44 39L44 16.51C44 15.83 43.8372 15.1915 43.5116 14.5946L38.8928 6.12689C37.7558 4.0423 36 3 33.6255 3L14.3745 3C12 3 10.2442 4.0423 9.10716 6.12689L4.48842 14.5946ZM8 18L8 39C8 40.1046 8.89543 41 10 41L38 41C39.1046 41 40 40.1046 40 39L40 18L8 18ZM38.6309 14L35.3813 8.0423C35.0022 7.34743 34.417 7 33.6255 7L14.3745 7C13.583 7 12.9978 7.34743 12.6187 8.0423L9.36908 14L38.6309 14ZM26 25L26.0001 25L26.0001 30L28.0001 30C29.7819 30 30.6742 32.1543 29.4143 33.4142L25.8857 36.9428C24.6286 38.1999 23.3716 38.1999 22.1145 36.9428L18.5859 33.4142C17.326 32.1543 18.2183 30 20.0001 30L22.0001 30L22.0001 25.0209C22 25.0139 22 25.007 22 25C22 23.8954 22.8954 23 24 23C25.1046 23 26 23.8954 26 25Z" fill-rule="evenodd"  fill="#000000" >
</path>
</svg>
