<svg xmlns="http://www.w3.org/2000/svg" xmlns:xlink="http://www.w3.org/1999/xlink" width="48" height="48" viewBox="0 0 48 48" fill="none">
<path d="M34.04 15.25C33.98 15.28 33.92 15.31 33.87 15.35C33.82 15.39 33.76 15.43 33.71 15.47C33.66 15.51 33.62 15.55 33.57 15.6L21.76 27.67C21.57 27.86 21.36 28.01 21.11 28.11C20.86 28.22 20.6 28.27 20.33 28.27C20.06 28.27 19.8 28.22 19.55 28.11C19.3 28.01 19.09 27.86 18.9 27.67L14.43 23.1C14.38 23.05 14.34 23.01 14.29 22.97C14.24 22.93 14.18 22.89 14.13 22.85C14.08 22.81 14.02 22.78 13.96 22.75C13.9 22.72 13.85 22.69 13.79 22.66C13.73 22.64 13.66 22.61 13.6 22.59C13.54 22.57 13.48 22.56 13.41 22.54C13.35 22.53 13.28 22.52 13.22 22.51C13.15 22.5 13.09 22.5 13.02 22.5C12.96 22.5 12.89 22.5 12.83 22.51C12.76 22.51 12.7 22.52 12.63 22.53C12.57 22.55 12.5 22.56 12.44 22.58L12.26 22.64C12.19 22.67 12.14 22.7 12.08 22.73C12.02 22.76 11.96 22.79 11.91 22.82C11.85 22.86 11.8 22.9 11.75 22.94C11.7 22.98 11.65 23.02 11.6 23.07C11.55 23.12 11.51 23.16 11.47 23.21C11.43 23.26 11.39 23.32 11.35 23.37C11.31 23.42 11.28 23.48 11.25 23.54C11.22 23.59 11.19 23.65 11.16 23.71C11.14 23.77 11.11 23.84 11.09 23.9C11.07 23.96 11.06 24.02 11.04 24.09C11.03 24.15 11.02 24.22 11.01 24.28C11 24.35 11 24.41 11 24.48C11 24.54 11 24.61 11.01 24.67C11.01 24.74 11.02 24.8 11.03 24.87C11.05 24.93 11.06 25 11.08 25.06L11.14 25.24C11.17 25.31 11.2 25.36 11.23 25.42C11.26 25.48 11.29 25.54 11.32 25.59C11.36 25.65 11.4 25.7 11.44 25.75C11.48 25.8 11.52 25.85 11.57 25.9L16.04 30.47C16.6 31.05 17.26 31.49 18 31.8C18.75 32.11 19.52 32.27 20.33 32.27C21.14 32.27 21.91 32.11 22.66 31.8C23.4 31.49 24.06 31.04 24.62 30.47L36.43 18.4C36.48 18.35 36.52 18.3 36.56 18.25C36.6 18.2 36.64 18.15 36.68 18.09C36.71 18.04 36.74 17.98 36.77 17.92C36.8 17.86 36.83 17.81 36.86 17.74L36.92 17.56C36.94 17.5 36.95 17.43 36.97 17.37C36.98 17.3 36.99 17.24 36.99 17.17C37 17.11 37 17.04 37 16.98C37 16.91 37 16.85 36.99 16.78C36.98 16.72 36.97 16.65 36.96 16.59C36.94 16.52 36.93 16.46 36.91 16.4C36.89 16.34 36.86 16.27 36.84 16.21C36.81 16.15 36.78 16.09 36.75 16.04C36.72 15.98 36.69 15.92 36.65 15.87C36.61 15.82 36.57 15.76 36.53 15.71C36.49 15.66 36.45 15.62 36.4 15.57C36.35 15.52 36.3 15.48 36.25 15.44C36.2 15.4 36.15 15.36 36.09 15.32C36.04 15.29 35.98 15.26 35.92 15.23C35.86 15.2 35.81 15.17 35.74 15.14L35.56 15.08C35.5 15.06 35.43 15.05 35.37 15.03C35.3 15.02 35.24 15.01 35.17 15.01C35.11 15 35.04 15 34.98 15C34.91 15 34.85 15 34.78 15.01C34.72 15.02 34.65 15.03 34.59 15.04C34.52 15.06 34.46 15.07 34.4 15.09C34.34 15.11 34.27 15.14 34.21 15.16C34.15 15.19 34.1 15.22 34.04 15.25ZM9.45 7.31C8.97 7.52 8.54 7.8 8.17 8.17C7.8 8.54 7.52 8.97 7.31 9.45C7.1 9.94 7 10.46 7 11L7 37C7 37.54 7.1 38.06 7.31 38.55C7.52 39.03 7.8 39.46 8.17 39.83C8.54 40.2 8.97 40.48 9.45 40.69C9.94 40.9 10.46 41 11 41L37 41C37.54 41 38.06 40.9 38.55 40.69C39.03 40.48 39.46 40.2 39.83 39.83C40.2 39.46 40.48 39.03 40.69 38.55C40.9 38.06 41 37.54 41 37L41 11C41 10.46 40.9 9.94 40.69 9.45C40.48 8.97 40.2 8.54 39.83 8.17C39.46 7.8 39.03 7.52 38.55 7.31C38.06 7.1 37.54 7 37 7L11 7C10.46 7 9.94 7.1 9.45 7.31ZM3 11L3 37C3 38.08 3.21 39.12 3.63 40.11C4.04 41.07 4.61 41.92 5.34 42.66C6.08 43.39 6.93 43.96 7.89 44.37C8.88 44.79 9.92 45 11 45L37 45C38.08 45 39.12 44.79 40.11 44.37C41.07 43.96 41.92 43.39 42.66 42.66C43.39 41.92 43.96 41.07 44.37 40.11C44.79 39.12 45 38.08 45 37L45 11C45 9.92 44.79 8.88 44.37 7.89C43.96 6.93 43.39 6.08 42.66 5.34C41.92 4.61 41.07 4.04 40.11 3.63C39.12 3.21 38.08 3 37 3L11 3C9.92 3 8.88 3.21 7.89 3.63C6.93 4.04 6.08 4.61 5.34 5.34C4.61 6.08 4.04 6.93 3.63 7.89C3.21 8.88 3 9.92 3 11Z" fill-rule="evenodd"  fill="#000000" >
</path>
</svg>
