<svg xmlns="http://www.w3.org/2000/svg" xmlns:xlink="http://www.w3.org/1999/xlink" width="48" height="48" viewBox="0 0 48 48" fill="none">
<path d="M14.6224 25C14.3024 25.02 14.0024 25.09 13.7024 25.21C13.4124 25.33 13.1424 25.5 12.9024 25.72C12.4124 26.17 12.1224 26.73 12.0424 27.4L12.0324 27.5L12.0124 27.6C11.7124 28.92 11.1524 30.7 10.3224 32.92C9.50242 35.12 8.68242 37.08 7.85242 38.78C7.75242 39.04 7.71242 39.3 7.74242 39.57C7.77242 39.84 7.87242 40.08 8.03242 40.31C8.19242 40.54 8.39242 40.71 8.63242 40.84C8.87242 40.96 9.15242 41.02 9.44242 41L27.0024 41C27.5524 41 28.0924 40.79 28.6224 40.38C29.2224 39.9 29.7624 39.2 30.2624 38.28C30.7624 37.33 31.1624 36.26 31.4524 35.06C31.7324 33.86 31.8724 32.67 31.8724 31.5C31.8724 31.43 31.8724 31.37 31.8824 31.3C31.8924 31.24 31.9024 31.17 31.9124 31.11C31.9224 31.05 31.9424 30.98 31.9624 30.92C31.9824 30.86 32.0024 30.8 32.0224 30.73C32.0524 30.67 32.0824 30.61 32.1124 30.56C32.1424 30.5 32.1724 30.44 32.2124 30.39C32.2424 30.33 32.2824 30.28 32.3324 30.23C32.3724 30.18 32.4124 30.13 32.4624 30.09C32.5024 30.04 32.5524 30 32.6024 29.95C32.6524 29.91 32.7124 29.87 32.7624 29.84C32.8124 29.8 32.8724 29.77 32.9324 29.74L33.1124 29.65L33.2924 29.59C33.3524 29.57 33.4224 29.55 33.4824 29.54C33.5524 29.53 33.6124 29.52 33.6824 29.51C33.7424 29.5 33.8124 29.5 33.8724 29.5C33.9424 29.5 34.0024 29.5 34.0724 29.51C34.1324 29.52 34.2024 29.53 34.2624 29.54C34.3324 29.55 34.3924 29.57 34.4524 29.59C34.5124 29.61 34.5824 29.63 34.6424 29.65C34.7024 29.68 34.7624 29.71 34.8124 29.74C34.8724 29.77 34.9324 29.8 34.9824 29.84C35.0424 29.87 35.0924 29.91 35.1424 29.95C35.1924 30 35.2424 30.04 35.2924 30.09C35.3324 30.13 35.3824 30.18 35.4224 30.23C35.4624 30.28 35.5024 30.33 35.5324 30.39C35.5724 30.44 35.6024 30.5 35.6424 30.56C35.6724 30.61 35.6924 30.67 35.7224 30.73C35.7424 30.8 35.7724 30.86 35.7924 30.92C35.8024 30.98 35.8224 31.05 35.8324 31.11C35.8524 31.17 35.8624 31.24 35.8624 31.3C35.8724 31.37 35.8724 31.43 35.8724 31.5L35.8724 31.58C35.8624 33.04 35.6924 34.5 35.3424 35.98C34.9724 37.52 34.4524 38.92 33.7824 40.17C33.6224 40.46 33.4624 40.74 33.3024 41L34.8224 41C35.0624 41 35.2324 41 35.3424 40.99L35.4424 40.99C35.9924 40.99 36.5224 40.83 37.0224 40.5C37.5624 40.14 38.0524 39.61 38.4924 38.91C38.9624 38.16 39.3324 37.28 39.5924 36.28C39.8624 35.23 40.0024 34.14 40.0024 33C40.0024 31.31 39.9724 30.1 39.9224 29.35C39.8524 28.22 39.7024 27.32 39.4824 26.67C39.2824 26.08 39.0224 25.67 38.6924 25.42C38.3124 25.14 37.7524 25 37.0024 25L19.5024 25L14.6224 25ZM14.5024 21C13.6924 21.03 12.9124 21.21 12.1624 21.52C11.4324 21.82 10.7824 22.24 10.2024 22.78C9.62242 23.31 9.14242 23.93 8.78242 24.62C8.42242 25.31 8.19242 26.04 8.09242 26.81C7.82242 27.95 7.32242 29.52 6.57242 31.52C5.79242 33.63 5.01242 35.48 4.23242 37.09L4.21242 37.13L4.19242 37.17C3.79242 38.1 3.65242 39.06 3.77242 40.04C3.88242 40.97 4.21242 41.82 4.75242 42.6C5.29242 43.37 5.98242 43.97 6.81242 44.4C7.68242 44.84 8.61242 45.04 9.59242 45L34.8224 45C35.0924 45 35.3124 45 35.4824 44.99C36.8224 44.98 38.0624 44.6 39.2124 43.84C40.2424 43.17 41.1324 42.23 41.8824 41.03C42.5724 39.93 43.0924 38.69 43.4624 37.29C43.8224 35.91 44.0024 34.48 44.0024 33C44.0024 32.12 43.9924 31.46 43.9924 31.03C43.9724 30.29 43.9524 29.65 43.9124 29.09C43.8224 27.61 43.6024 26.37 43.2724 25.39C42.8024 24.02 42.0724 22.96 41.0924 22.22C40.0024 21.41 38.6324 21 37.0024 21L31.5024 21L31.5024 7C31.5024 6.46 31.3924 5.94 31.1824 5.44C30.9824 4.96 30.6924 4.54 30.3324 4.17C29.9624 3.81 29.5424 3.52 29.0624 3.32C28.5624 3.11 28.0424 3 27.5024 3L23.5024 3C22.9624 3 22.4424 3.11 21.9424 3.32C21.4624 3.52 21.0424 3.81 20.6724 4.17C20.3124 4.54 20.0224 4.96 19.8224 5.44C19.6124 5.94 19.5024 6.46 19.5024 7L19.5024 21L14.5024 21ZM27.5024 21L27.5024 7L23.5024 7L23.5024 21L27.5024 21Z" fill-rule="evenodd"  fill="#000000" >
</path>
</svg>
