<svg xmlns="http://www.w3.org/2000/svg" xmlns:xlink="http://www.w3.org/1999/xlink" width="48" height="48" viewBox="0 0 48 48" fill="none">
<path d="M22 31.17L11.42 20.59L11.41 20.59C11.05 20.22 10.55 20 10 20C8.9 20 8 20.9 8 22C8 22.55 8.22 23.05 8.59 23.41L8.59 23.42L21.18 36C22.74 37.56 25.26 37.56 26.82 36L39.41 23.41C39.78 23.05 40 22.55 40 22C40 20.9 39.1 20 38 20C37.45 20 36.95 20.22 36.59 20.59L26 31.17L26 6C26 4.9 25.1 4 24 4C22.9 4 22 4.9 22 6L22 31.17ZM38 40L10 40C8.9 40 8 40.9 8 42C8 43.1 8.9 44 10 44L38 44C39.1 44 40 43.1 40 42C40 40.9 39.1 40 38 40Z" fill-rule="evenodd"  fill="#000000" >
</path>
</svg>
