<svg xmlns="http://www.w3.org/2000/svg" xmlns:xlink="http://www.w3.org/1999/xlink" width="48" height="48" viewBox="0 0 48 48" fill="none">
<path d="M9.15 9.15C7.21 11.09 5.71 13.31 4.65 15.83C3.55 18.43 3 21.15 3 24C3 26.85 3.55 29.57 4.65 32.17C5.71 34.69 7.21 36.91 9.15 38.85C11.09 40.79 13.31 42.29 15.83 43.35C18.43 44.45 21.15 45 24 45C26.85 45 29.57 44.45 32.17 43.35C34.69 42.29 36.91 40.79 38.85 38.85C40.79 36.91 42.29 34.69 43.35 32.17C44.45 29.57 45 26.85 45 24C45 21.15 44.45 18.43 43.35 15.83C42.29 13.31 40.79 11.09 38.85 9.15C36.91 7.21 34.69 5.71 32.17 4.65C29.57 3.55 26.85 3 24 3C21.15 3 18.43 3.55 15.83 4.65C13.31 5.71 11.09 7.21 9.15 9.15ZM7 24C7 26.31 7.45 28.51 8.34 30.61C9.2 32.65 10.41 34.45 11.98 36.02C13.55 37.59 15.35 38.8 17.39 39.66C19.49 40.55 21.69 41 24 41C26.31 41 28.51 40.55 30.61 39.66C32.65 38.8 34.45 37.59 36.02 36.02C37.59 34.45 38.8 32.65 39.66 30.61C40.55 28.51 41 26.31 41 24C41 21.69 40.55 19.49 39.66 17.39C38.8 15.35 37.59 13.55 36.02 11.98C34.45 10.41 32.65 9.2 30.61 8.34C28.51 7.45 26.31 7 24 7C21.69 7 19.49 7.45 17.39 8.34C15.35 9.2 13.55 10.41 11.98 11.98C10.41 13.55 9.2 15.35 8.34 17.39C7.45 19.49 7 21.69 7 24ZM19.96 15.42C19.94 15.36 19.91 15.3 19.89 15.23C19.86 15.17 19.83 15.11 19.8 15.06C19.77 15 19.74 14.94 19.7 14.89C19.67 14.83 19.63 14.78 19.59 14.73C19.54 14.68 19.49 14.63 19.44 14.59C19.4 14.54 19.35 14.5 19.3 14.45C19.25 14.41 19.2 14.37 19.14 14.34C19.09 14.3 19.02 14.27 18.96 14.24C18.91 14.21 18.85 14.18 18.79 14.15C18.72 14.13 18.66 14.11 18.59 14.09C18.53 14.07 18.46 14.05 18.4 14.04C18.34 14.03 18.27 14.02 18.2 14.01C18.13 14 18.07 14 18 14C17.93 14 17.87 14 17.8 14.01C17.73 14.02 17.66 14.03 17.6 14.04C17.54 14.05 17.47 14.07 17.41 14.09C17.34 14.11 17.28 14.13 17.21 14.15C17.15 14.18 17.09 14.21 17.04 14.24C16.98 14.27 16.91 14.3 16.86 14.34C16.8 14.37 16.75 14.41 16.7 14.45C16.65 14.5 16.6 14.54 16.56 14.59C16.51 14.63 16.46 14.68 16.41 14.73C16.37 14.78 16.33 14.83 16.3 14.89C16.26 14.94 16.23 15 16.2 15.06C16.17 15.11 16.14 15.17 16.11 15.23C16.09 15.3 16.06 15.36 16.04 15.42C16.02 15.48 16 15.55 15.99 15.61C15.98 15.67 15.97 15.74 15.96 15.8C15.95 15.87 15.95 15.93 15.95 16L15.95 22C15.95 22.07 15.95 22.13 15.96 22.2C15.97 22.26 15.98 22.33 15.99 22.39C16 22.45 16.02 22.52 16.04 22.58C16.06 22.64 16.09 22.7 16.11 22.77C16.14 22.83 16.17 22.88 16.2 22.94C16.23 23 16.26 23.06 16.3 23.11C16.33 23.17 16.37 23.22 16.41 23.27C16.46 23.32 16.51 23.37 16.56 23.41C16.6 23.46 16.65 23.5 16.7 23.55C16.75 23.59 16.8 23.63 16.86 23.66C16.91 23.7 16.98 23.73 17.04 23.76C17.09 23.79 17.15 23.82 17.21 23.85C17.28 23.87 17.34 23.89 17.41 23.91C17.47 23.93 17.54 23.95 17.6 23.96C17.66 23.97 17.73 23.98 17.8 23.99C17.87 24 17.93 24 18 24C18.07 24 18.13 24 18.2 23.99C18.27 23.98 18.34 23.97 18.4 23.96C18.46 23.95 18.53 23.93 18.59 23.91C18.66 23.89 18.72 23.87 18.79 23.85C18.85 23.82 18.91 23.79 18.96 23.76C19.02 23.73 19.09 23.7 19.14 23.66C19.2 23.63 19.25 23.59 19.3 23.55C19.35 23.5 19.4 23.46 19.44 23.41C19.49 23.37 19.54 23.32 19.59 23.27C19.63 23.22 19.67 23.17 19.7 23.11C19.74 23.06 19.77 23 19.8 22.94C19.83 22.88 19.86 22.83 19.89 22.77C19.91 22.7 19.94 22.64 19.96 22.58C19.98 22.52 20 22.45 20.01 22.39C20.02 22.33 20.03 22.26 20.04 22.2C20.05 22.13 20.05 22.07 20.05 22L20.05 16C20.05 15.93 20.05 15.87 20.04 15.8C20.03 15.74 20.02 15.67 20.01 15.61C20 15.55 19.98 15.48 19.96 15.42ZM31.95 15.42C31.93 15.36 31.91 15.3 31.89 15.23C31.86 15.17 31.83 15.11 31.8 15.06C31.77 15 31.74 14.94 31.7 14.89C31.67 14.83 31.63 14.78 31.59 14.73C31.53 14.68 31.49 14.63 31.44 14.59C31.4 14.54 31.35 14.5 31.3 14.45C31.25 14.41 31.2 14.37 31.14 14.34C31.08 14.3 31.02 14.27 30.96 14.24C30.91 14.21 30.85 14.18 30.79 14.15C30.72 14.13 30.65 14.11 30.59 14.09C30.53 14.07 30.46 14.05 30.4 14.04C30.34 14.03 30.27 14.02 30.2 14.01C30.13 14 30.07 14 30 14C29.93 14 29.87 14 29.79 14.01C29.73 14.02 29.66 14.03 29.6 14.04C29.54 14.05 29.47 14.07 29.41 14.09C29.34 14.11 29.28 14.13 29.21 14.15C29.15 14.18 29.09 14.21 29.04 14.24C28.98 14.27 28.91 14.3 28.86 14.34C28.8 14.37 28.75 14.41 28.7 14.45C28.65 14.5 28.6 14.54 28.56 14.59C28.5 14.63 28.46 14.68 28.41 14.73C28.37 14.78 28.33 14.83 28.3 14.89C28.26 14.94 28.23 15 28.2 15.06C28.17 15.11 28.14 15.17 28.1 15.23C28.08 15.3 28.06 15.36 28.04 15.42C28.02 15.48 28 15.55 27.99 15.61C27.98 15.67 27.97 15.74 27.96 15.8C27.95 15.87 27.95 15.93 27.95 16L27.95 22C27.95 22.07 27.95 22.13 27.96 22.2C27.97 22.26 27.98 22.33 27.99 22.39C28 22.45 28.02 22.52 28.04 22.58C28.06 22.64 28.08 22.7 28.1 22.77C28.14 22.83 28.17 22.88 28.2 22.94C28.23 23 28.26 23.06 28.3 23.11C28.33 23.17 28.37 23.22 28.41 23.27C28.46 23.32 28.5 23.37 28.56 23.41C28.6 23.46 28.65 23.5 28.7 23.55C28.75 23.59 28.8 23.63 28.86 23.66C28.91 23.7 28.98 23.73 29.04 23.76C29.09 23.79 29.15 23.82 29.21 23.85C29.28 23.87 29.34 23.89 29.41 23.91C29.47 23.93 29.54 23.95 29.6 23.96C29.66 23.97 29.73 23.98 29.79 23.99C29.87 24 29.93 24 30 24C30.07 24 30.13 24 30.2 23.99C30.27 23.98 30.34 23.97 30.4 23.96C30.46 23.95 30.53 23.93 30.59 23.91C30.65 23.89 30.72 23.87 30.79 23.85C30.85 23.82 30.91 23.79 30.96 23.76C31.02 23.73 31.08 23.7 31.14 23.66C31.2 23.63 31.25 23.59 31.3 23.55C31.35 23.5 31.4 23.46 31.44 23.41C31.49 23.37 31.53 23.32 31.59 23.27C31.63 23.22 31.67 23.17 31.7 23.11C31.74 23.06 31.77 23 31.8 22.94C31.83 22.88 31.86 22.83 31.89 22.77C31.91 22.7 31.93 22.64 31.95 22.58C31.98 22.52 32 22.45 32.01 22.39C32.02 22.33 32.03 22.26 32.04 22.2C32.05 22.13 32.05 22.07 32.05 22L32.05 16C32.05 15.93 32.05 15.87 32.04 15.8C32.03 15.74 32.02 15.67 32.01 15.61C32 15.55 31.98 15.48 31.95 15.42ZM14.84 30.61C14.91 30.72 14.99 30.82 15.09 30.91C15.45 31.28 15.92 31.66 16.47 32.04C17.09 32.46 17.75 32.85 18.45 33.18C20.3 34.06 22.15 34.5 24 34.5C25.85 34.5 27.7 34.06 29.55 33.18C30.25 32.85 30.91 32.46 31.53 32.04C32.08 31.66 32.55 31.28 32.91 30.91C33.01 30.82 33.09 30.72 33.16 30.61C33.24 30.5 33.3 30.39 33.35 30.27C33.4 30.14 33.44 30.02 33.46 29.89C33.49 29.76 33.5 29.63 33.5 29.5C33.5 29.43 33.5 29.37 33.49 29.3C33.48 29.24 33.47 29.17 33.46 29.11C33.45 29.05 33.43 28.98 33.41 28.92C33.39 28.86 33.37 28.8 33.35 28.73C33.32 28.67 33.29 28.61 33.26 28.56C33.23 28.5 33.2 28.44 33.16 28.39C33.13 28.33 33.09 28.28 33.05 28.23C33 28.18 32.96 28.13 32.91 28.09C32.87 28.04 32.82 28 32.77 27.95C32.72 27.91 32.67 27.87 32.61 27.84C32.56 27.8 32.5 27.77 32.44 27.74C32.38 27.71 32.33 27.68 32.27 27.65C32.2 27.63 32.14 27.61 32.08 27.59C32.02 27.57 31.95 27.55 31.89 27.54C31.83 27.53 31.76 27.52 31.7 27.51C31.63 27.5 31.57 27.5 31.5 27.5C31.37 27.5 31.24 27.51 31.11 27.54C30.98 27.56 30.86 27.6 30.73 27.65C30.61 27.7 30.5 27.76 30.39 27.84C30.28 27.91 30.18 27.99 30.09 28.09C29.89 28.28 29.62 28.5 29.26 28.74C28.82 29.05 28.34 29.33 27.83 29.57C26.52 30.19 25.25 30.5 24 30.5C22.75 30.5 21.48 30.19 20.17 29.57C19.66 29.33 19.18 29.05 18.74 28.74C18.38 28.5 18.11 28.28 17.91 28.09C17.82 27.99 17.72 27.91 17.61 27.84C17.5 27.76 17.39 27.7 17.27 27.65C17.14 27.6 17.02 27.56 16.89 27.54C16.76 27.51 16.63 27.5 16.5 27.5C16.43 27.5 16.37 27.5 16.3 27.51C16.24 27.52 16.17 27.53 16.11 27.54C16.05 27.55 15.98 27.57 15.92 27.59C15.86 27.61 15.8 27.63 15.73 27.65C15.67 27.68 15.61 27.71 15.56 27.74C15.5 27.77 15.44 27.8 15.39 27.84C15.33 27.87 15.28 27.91 15.23 27.95C15.18 28 15.13 28.04 15.09 28.09C15.04 28.13 15 28.18 14.95 28.23C14.91 28.28 14.87 28.33 14.84 28.39C14.8 28.44 14.77 28.5 14.74 28.56C14.71 28.61 14.68 28.67 14.65 28.73C14.63 28.8 14.61 28.86 14.59 28.92C14.57 28.98 14.55 29.05 14.54 29.11C14.53 29.17 14.52 29.24 14.51 29.3C14.5 29.37 14.5 29.43 14.5 29.5C14.5 29.63 14.51 29.76 14.54 29.89C14.56 30.02 14.6 30.14 14.65 30.27C14.7 30.39 14.76 30.5 14.84 30.61Z" fill-rule="evenodd"  fill="#000000" >
</path>
</svg>
