<svg xmlns="http://www.w3.org/2000/svg" xmlns:xlink="http://www.w3.org/1999/xlink" width="48" height="48" viewBox="0 0 48 48" fill="none">
<path d="M22 33.9959C22 35.0959 22.9 35.9959 24 35.9959C25.1 35.9959 26 35.0959 26 33.9959L26 10.0859L34.58 18.6559L34.59 18.6559C34.95 19.0259 35.45 19.2459 36 19.2459C37.1 19.2459 38 18.3459 38 17.2459C38 16.6959 37.78 16.1959 37.41 15.8359L37.41 15.8259L26.82 5.24593C25.26 3.68593 22.74 3.68593 21.18 5.24593L10.59 15.8359C10.22 16.1959 10 16.6959 10 17.2459C10 18.3459 10.9 19.2459 12 19.2459C12.55 19.2459 13.05 19.0259 13.41 18.6559L22 10.0759L22 33.9959ZM36 43.9959C40.42 43.9959 44 40.4159 44 35.9959L44 25.9959C44 24.8959 43.1 23.9959 42 23.9959C40.9 23.9959 40 24.8959 40 25.9959L40 35.9959C40 38.2059 38.21 39.9959 36 39.9959L12 39.9959C9.79 39.9959 8 38.2059 8 35.9959L8 25.9959C8 24.8959 7.1 23.9959 6 23.9959C4.9 23.9959 4 24.8959 4 25.9959L4 35.9959C4 40.4159 7.58 43.9959 12 43.9959L36 43.9959Z" fill-rule="evenodd"  fill="#000000" >
</path>
</svg>
