<svg xmlns="http://www.w3.org/2000/svg" xmlns:xlink="http://www.w3.org/1999/xlink" width="48" height="48" viewBox="0 0 48 48" fill="none">
<path d="M17.08 44.58L22.93 40.84C23.25 40.63 23.61 40.52 24 40.52C24.39 40.52 24.74 40.62 25.07 40.83L30.92 44.58C32.03 45.28 33.24 45.66 34.56 45.7C35.87 45.75 37.1 45.46 38.26 44.83C39.41 44.19 40.32 43.31 40.99 42.18C41.66 41.05 42 39.82 42 38.51L42 9C42 8.19 41.84 7.41 41.53 6.66C41.22 5.95 40.8 5.31 40.24 4.76C39.69 4.2 39.05 3.78 38.34 3.47C37.59 3.16 36.81 3 36 3L12 3C11.19 3 10.41 3.16 9.66 3.47C8.95 3.78 8.31 4.2 7.76 4.76C7.2 5.31 6.78 5.95 6.47 6.66C6.16 7.41 6 8.19 6 9L6 38.51C6 39.82 6.34 41.05 7.01 42.18C7.68 43.31 8.59 44.19 9.74 44.82C10.9 45.45 12.13 45.75 13.44 45.7C14.76 45.66 15.97 45.28 17.08 44.58ZM22.45 12.73C22.41 12.78 22.37 12.83 22.34 12.89C22.3 12.94 22.27 13 22.24 13.06C22.21 13.11 22.18 13.17 22.15 13.23C22.13 13.3 22.11 13.36 22.09 13.42C22.07 13.48 22.05 13.55 22.04 13.61C22.03 13.67 22.02 13.74 22.01 13.8C22 13.87 22 13.93 22 14L22 20L16 20C15.93 20 15.87 20 15.8 20.01C15.74 20.02 15.67 20.03 15.61 20.04C15.55 20.05 15.48 20.07 15.42 20.09C15.36 20.11 15.3 20.13 15.23 20.15C15.17 20.18 15.11 20.21 15.06 20.24C15 20.27 14.94 20.3 14.89 20.34C14.83 20.37 14.78 20.41 14.73 20.45C14.68 20.5 14.63 20.54 14.59 20.59C14.54 20.63 14.5 20.68 14.45 20.73C14.41 20.78 14.37 20.83 14.34 20.89C14.3 20.94 14.27 21 14.24 21.06C14.21 21.11 14.18 21.17 14.15 21.23C14.13 21.3 14.11 21.36 14.09 21.42C14.07 21.48 14.05 21.55 14.04 21.61C14.03 21.67 14.02 21.74 14.01 21.8C14 21.87 14 21.93 14 22C14 22.07 14 22.13 14.01 22.2C14.02 22.26 14.03 22.33 14.04 22.39C14.05 22.45 14.07 22.52 14.09 22.58C14.11 22.64 14.13 22.7 14.15 22.77C14.18 22.83 14.21 22.89 14.24 22.94C14.27 23 14.3 23.06 14.34 23.11C14.37 23.17 14.41 23.22 14.45 23.27C14.5 23.32 14.54 23.37 14.59 23.41C14.63 23.46 14.68 23.5 14.73 23.55C14.78 23.59 14.83 23.63 14.89 23.66C14.94 23.7 15 23.73 15.06 23.76C15.11 23.79 15.17 23.82 15.23 23.85C15.3 23.87 15.36 23.89 15.42 23.91C15.48 23.93 15.55 23.95 15.61 23.96C15.67 23.97 15.74 23.98 15.8 23.99C15.87 24 15.93 24 16 24L22 24L22 30C22 30.07 22 30.13 22.01 30.2C22.02 30.26 22.03 30.33 22.04 30.39C22.05 30.45 22.07 30.52 22.09 30.58C22.11 30.64 22.13 30.7 22.15 30.77C22.18 30.83 22.21 30.89 22.24 30.94C22.27 31 22.3 31.06 22.34 31.11C22.37 31.17 22.41 31.22 22.45 31.27C22.5 31.32 22.54 31.37 22.59 31.41C22.63 31.46 22.68 31.5 22.73 31.55C22.78 31.59 22.83 31.63 22.89 31.66C22.94 31.7 23 31.73 23.06 31.76C23.11 31.79 23.17 31.82 23.23 31.85C23.3 31.87 23.36 31.89 23.42 31.91C23.48 31.93 23.55 31.95 23.61 31.96C23.67 31.97 23.74 31.98 23.8 31.99C23.87 32 23.93 32 24 32C24.07 32 24.13 32 24.2 31.99C24.26 31.98 24.33 31.97 24.39 31.96C24.45 31.95 24.52 31.93 24.58 31.91C24.64 31.89 24.7 31.87 24.77 31.85C24.83 31.82 24.89 31.79 24.94 31.76C25 31.73 25.06 31.7 25.11 31.66C25.17 31.63 25.22 31.59 25.27 31.55C25.32 31.5 25.37 31.46 25.41 31.41C25.46 31.37 25.5 31.32 25.55 31.27C25.59 31.22 25.63 31.17 25.66 31.11C25.7 31.06 25.73 31 25.76 30.94C25.79 30.89 25.82 30.83 25.85 30.77C25.87 30.7 25.89 30.64 25.91 30.58C25.93 30.52 25.95 30.45 25.96 30.39C25.97 30.33 25.98 30.26 25.99 30.2C26 30.13 26 30.07 26 30L26 24L32 24C32.07 24 32.13 24 32.2 23.99C32.26 23.98 32.33 23.97 32.39 23.96C32.45 23.95 32.52 23.93 32.58 23.91C32.64 23.89 32.7 23.87 32.77 23.85C32.83 23.82 32.89 23.79 32.94 23.76C33 23.73 33.06 23.7 33.11 23.66C33.17 23.63 33.22 23.59 33.27 23.55C33.32 23.5 33.37 23.46 33.41 23.41C33.46 23.37 33.5 23.32 33.55 23.27C33.59 23.22 33.63 23.17 33.66 23.11C33.7 23.06 33.73 23 33.76 22.94C33.79 22.89 33.82 22.83 33.85 22.77C33.87 22.7 33.89 22.64 33.91 22.58C33.93 22.52 33.95 22.45 33.96 22.39C33.97 22.33 33.98 22.26 33.99 22.2C34 22.13 34 22.07 34 22C34 21.93 34 21.87 33.99 21.8C33.98 21.74 33.97 21.67 33.96 21.61C33.95 21.55 33.93 21.48 33.91 21.42C33.89 21.36 33.87 21.3 33.85 21.23C33.82 21.17 33.79 21.11 33.76 21.06C33.73 21 33.7 20.94 33.66 20.89C33.63 20.83 33.59 20.78 33.55 20.73C33.5 20.68 33.46 20.63 33.41 20.59C33.37 20.54 33.32 20.5 33.27 20.45C33.22 20.41 33.17 20.37 33.11 20.34C33.06 20.3 33 20.27 32.94 20.24C32.89 20.21 32.83 20.18 32.77 20.15C32.7 20.13 32.64 20.11 32.58 20.09C32.52 20.07 32.45 20.05 32.39 20.04C32.33 20.03 32.26 20.02 32.2 20.01C32.13 20 32.07 20 32 20L26 20L26 14C26 13.93 26 13.87 25.99 13.8C25.98 13.74 25.97 13.67 25.96 13.61C25.95 13.55 25.93 13.48 25.91 13.42C25.89 13.36 25.87 13.3 25.85 13.23C25.82 13.17 25.79 13.11 25.76 13.06C25.73 13 25.7 12.94 25.66 12.89C25.63 12.83 25.59 12.78 25.55 12.73C25.5 12.68 25.46 12.63 25.41 12.59C25.37 12.54 25.32 12.5 25.27 12.45C25.22 12.41 25.17 12.37 25.11 12.34C25.06 12.3 25 12.27 24.94 12.24C24.89 12.21 24.83 12.18 24.77 12.15C24.7 12.13 24.64 12.11 24.58 12.09C24.52 12.07 24.45 12.05 24.39 12.04C24.33 12.03 24.26 12.02 24.2 12.01C24.13 12 24.07 12 24 12C23.93 12 23.87 12 23.8 12.01C23.74 12.02 23.67 12.03 23.61 12.04C23.55 12.05 23.48 12.07 23.42 12.09C23.36 12.11 23.3 12.13 23.23 12.15C23.17 12.18 23.11 12.21 23.06 12.24C23 12.27 22.94 12.3 22.89 12.34C22.83 12.37 22.78 12.41 22.73 12.45C22.68 12.5 22.63 12.54 22.59 12.59C22.54 12.63 22.5 12.68 22.45 12.73ZM33.08 41.2C33.57 41.52 34.11 41.68 34.69 41.7C35.28 41.72 35.83 41.59 36.34 41.31C36.85 41.04 37.25 40.64 37.55 40.14C37.85 39.64 38 39.09 38 38.51L38 9C38 8.73 37.95 8.47 37.84 8.22C37.74 7.98 37.6 7.77 37.41 7.59C37.23 7.4 37.02 7.26 36.78 7.16C36.53 7.05 36.27 7 36 7L12 7C11.73 7 11.47 7.05 11.22 7.16C10.98 7.26 10.77 7.4 10.59 7.59C10.4 7.77 10.26 7.98 10.16 8.22C10.05 8.47 10 8.73 10 9L10 38.51C10 39.09 10.15 39.64 10.45 40.14C10.75 40.64 11.15 41.04 11.66 41.32C12.17 41.6 12.72 41.72 13.31 41.7C13.89 41.68 14.43 41.52 14.92 41.2L20.77 37.46C21.76 36.83 22.83 36.52 24 36.52C25.17 36.52 26.25 36.84 27.23 37.47L33.08 41.2Z" fill-rule="evenodd"  fill="#000000" >
</path>
</svg>
