<svg xmlns="http://www.w3.org/2000/svg" xmlns:xlink="http://www.w3.org/1999/xlink" width="48" height="48" viewBox="0 0 48 48" fill="none">
<path d="M22.93 40.84C23.58 40.42 24.42 40.42 25.07 40.83L30.92 44.58C35.71 47.64 42 44.19 42 38.51L42 9C42 5.69 39.31 3 36 3L12 3C8.69 3 6 5.69 6 9L6 38.51C6 44.2 12.28 47.64 17.08 44.58L22.93 40.84ZM27.23 37.47L33.08 41.2C35.2 42.56 38 41.04 38 38.51L38 9C38 7.9 37.1 7 36 7L12 7C10.9 7 10 7.9 10 9L10 38.51C10 41.04 12.79 42.57 14.92 41.2L20.77 37.46C22.74 36.2 25.26 36.2 27.23 37.47ZM21.23 26.02L17.48 21.9L17.48 21.91C17.11 21.51 16.59 21.25 16 21.25C14.9 21.25 14 22.15 14 23.25C14 23.81 14.23 24.31 14.59 24.67L18.27 28.72C19.87 30.47 22.64 30.46 24.22 28.68L33.48 18.34L33.49 18.34C33.81 17.98 34 17.51 34 17C34 15.9 33.1 15 32 15C31.41 15 30.88 15.26 30.51 15.66L30.5 15.67L21.23 26.02Z" fill-rule="evenodd"  fill="#000000" >
</path>
</svg>
