<svg xmlns="http://www.w3.org/2000/svg" xmlns:xlink="http://www.w3.org/1999/xlink" width="48" height="48" viewBox="0 0 48 48" fill="none">
<path d="M22.4133 28.4151L17.7083 33.1201L8.29739 42.531L8.29653 42.5319C7.9346 42.8938 7.43461 43.1176 6.88232 43.1176C5.77775 43.1176 4.88232 42.2222 4.88232 41.1176C4.88232 40.5654 5.10618 40.0654 5.46811 39.7034L5.46897 39.7026L14.8799 30.2917L19.5849 25.5867L19.5857 25.5858C19.9477 25.2239 20.4477 25 20.9999 25C22.1045 25 22.9999 25.8954 22.9999 27C22.9999 27.5523 22.7761 28.0523 22.4142 28.4142L22.4133 28.4151Z" fill-rule="evenodd"  fill="#787878" >
</path>
<path d="M7 27.9412C7 26.8366 6.10457 25.9412 5 25.9412C3.89543 25.9412 3 26.8366 3 27.9412L3 40C3 42.7614 5.23858 45 8 45L20.0588 45C21.1634 45 22.0588 44.1046 22.0588 43C22.0588 41.8955 21.1634 41 20.0588 41L8 41C7.44772 41 7 40.5523 7 40L7 27.9412Z" fill-rule="evenodd"  fill="#424242" >
</path>
<path d="M42.531 8.29739L33.1201 17.7083L28.4151 22.4133L28.4142 22.4142C28.0523 22.7761 27.5523 22.9999 27 22.9999C25.8954 22.9999 25 22.1045 25 20.9999C25 20.4477 25.2239 19.9477 25.5858 19.5857L25.5867 19.5849L30.2917 14.8799L39.7026 5.46897L39.7034 5.46811C40.0654 5.10618 40.5654 4.88232 41.1176 4.88232C42.2222 4.88232 43.1176 5.77775 43.1176 6.88232C43.1176 7.43461 42.8938 7.9346 42.5319 8.29653L42.531 8.29739Z" fill-rule="evenodd"  fill="#787878" >
</path>
<path d="M25.9412 5C25.9412 6.10457 26.8366 7 27.9412 7L40 7C40.5523 7 41 7.44772 41 8L41 20.0588C41 21.1634 41.8955 22.0588 43 22.0588C44.1046 22.0588 45 21.1634 45 20.0588L45 8C45 5.23858 42.7614 3 40 3L27.9412 3C26.8366 3 25.9412 3.89543 25.9412 5Z" fill-rule="evenodd"  fill="#424242" >
</path>
</svg>
