<svg xmlns="http://www.w3.org/2000/svg" xmlns:xlink="http://www.w3.org/1999/xlink" width="48" height="48" viewBox="0 0 48 48" fill="none">
<path d="M25.24 21.94C25.27 22 25.3 22.05 25.34 22.11C25.37 22.16 25.41 22.22 25.45 22.27C25.5 22.32 25.54 22.37 25.59 22.41C25.63 22.46 25.68 22.5 25.73 22.54C25.78 22.59 25.83 22.62 25.89 22.66C25.94 22.7 26 22.73 26.06 22.76C26.11 22.79 26.17 22.82 26.23 22.85C26.29 22.87 26.36 22.89 26.42 22.91C26.48 22.93 26.55 22.95 26.61 22.96C26.67 22.97 26.74 22.98 26.8 22.99C26.87 22.99 26.93 23 27 23C27.06 23 27.13 22.99 27.2 22.99C27.26 22.98 27.32 22.97 27.39 22.96C27.45 22.95 27.52 22.93 27.58 22.91L27.76 22.85L27.94 22.76C28 22.73 28.06 22.7 28.11 22.66C28.16 22.63 28.22 22.59 28.27 22.54C28.32 22.5 28.37 22.46 28.41 22.41L41 9.82L41 20.06C41 20.12 41 20.19 41.01 20.25C41.01 20.32 41.02 20.38 41.04 20.45C41.05 20.51 41.07 20.58 41.08 20.64C41.1 20.7 41.13 20.76 41.15 20.82C41.18 20.88 41.2 20.94 41.23 21C41.27 21.06 41.3 21.12 41.34 21.17C41.37 21.22 41.41 21.28 41.45 21.33C41.49 21.38 41.54 21.43 41.58 21.47C41.63 21.52 41.68 21.56 41.73 21.6C41.78 21.65 41.83 21.69 41.89 21.72C41.94 21.76 42 21.79 42.06 21.82C42.11 21.85 42.17 21.88 42.23 21.91C42.29 21.93 42.36 21.95 42.42 21.97C42.48 21.99 42.54 22.01 42.61 22.02C42.67 22.03 42.74 22.04 42.8 22.05C42.87 22.06 42.93 22.06 43 22.06C43.06 22.06 43.13 22.06 43.19 22.05C43.26 22.04 43.32 22.03 43.39 22.02C43.45 22.01 43.52 21.99 43.58 21.97L43.76 21.91L43.94 21.82C44 21.79 44.06 21.76 44.11 21.72C44.16 21.69 44.22 21.65 44.27 21.61C44.32 21.56 44.37 21.52 44.41 21.47C44.46 21.43 44.5 21.38 44.54 21.33C44.59 21.28 44.62 21.22 44.66 21.17C44.7 21.12 44.73 21.06 44.76 21C44.79 20.94 44.82 20.89 44.85 20.83C44.87 20.76 44.89 20.7 44.91 20.64C44.93 20.58 44.95 20.51 44.96 20.45C44.97 20.39 44.98 20.32 44.99 20.26C45 20.19 45 20.13 45 20.06L45 8C45 7.32 44.87 6.67 44.61 6.05C44.35 5.45 44 4.92 43.54 4.46C43.08 4 42.55 3.65 41.95 3.39C41.33 3.13 40.68 3 40 3L27.94 3C27.87 3 27.81 3 27.74 3.01C27.68 3.02 27.61 3.03 27.55 3.04C27.49 3.05 27.42 3.07 27.36 3.09C27.3 3.11 27.24 3.13 27.17 3.15C27.11 3.18 27.05 3.21 27 3.24C26.94 3.27 26.88 3.3 26.83 3.34C26.77 3.37 26.72 3.41 26.67 3.45C26.62 3.5 26.57 3.54 26.53 3.59C26.48 3.63 26.44 3.68 26.39 3.73C26.35 3.78 26.31 3.83 26.28 3.89C26.24 3.94 26.21 4 26.18 4.06C26.15 4.11 26.12 4.17 26.09 4.23C26.07 4.3 26.05 4.36 26.03 4.42C26.01 4.48 25.99 4.55 25.98 4.61C25.97 4.67 25.96 4.74 25.95 4.8C25.94 4.87 25.94 4.93 25.94 5C25.94 5.07 25.94 5.13 25.95 5.2C25.96 5.26 25.97 5.33 25.98 5.39C25.99 5.45 26.01 5.52 26.03 5.58C26.05 5.64 26.07 5.7 26.09 5.77C26.12 5.83 26.15 5.89 26.18 5.94C26.21 6 26.24 6.06 26.28 6.11C26.31 6.17 26.35 6.22 26.39 6.27C26.44 6.32 26.48 6.37 26.53 6.41C26.57 6.46 26.62 6.5 26.67 6.55C26.72 6.59 26.77 6.63 26.83 6.66C26.88 6.7 26.94 6.73 27 6.76C27.05 6.79 27.11 6.82 27.17 6.85C27.24 6.87 27.3 6.89 27.36 6.91C27.42 6.93 27.49 6.95 27.55 6.96C27.61 6.97 27.68 6.98 27.74 6.99C27.81 7 27.87 7 27.94 7L38.17 7L30.3 14.88L25.59 19.58C25.54 19.63 25.5 19.68 25.45 19.73C25.41 19.78 25.37 19.83 25.34 19.89C25.3 19.94 25.27 20 25.24 20.05L25.15 20.23C25.13 20.29 25.11 20.35 25.09 20.42C25.07 20.48 25.05 20.54 25.04 20.61C25.03 20.67 25.02 20.74 25.01 20.8C25 20.87 25 20.93 25 21C25 21.06 25 21.13 25.01 21.19C25.02 21.26 25.03 21.32 25.04 21.39C25.05 21.45 25.07 21.52 25.09 21.58L25.15 21.76L25.24 21.94ZM20.23 25.15L20.05 25.24C20 25.27 19.94 25.3 19.89 25.34C19.83 25.37 19.78 25.41 19.73 25.45C19.68 25.5 19.63 25.54 19.58 25.59L14.88 30.3L7 38.17L7 27.94C7 27.87 7 27.81 6.99 27.74C6.98 27.68 6.97 27.61 6.96 27.55C6.95 27.49 6.93 27.42 6.91 27.36C6.89 27.3 6.87 27.24 6.85 27.17C6.82 27.11 6.79 27.05 6.76 27C6.73 26.94 6.7 26.88 6.66 26.83C6.63 26.77 6.59 26.72 6.55 26.67C6.5 26.62 6.46 26.57 6.41 26.53C6.37 26.48 6.32 26.44 6.27 26.39C6.22 26.35 6.17 26.31 6.11 26.28C6.06 26.24 6 26.21 5.94 26.18C5.89 26.15 5.83 26.12 5.77 26.09C5.7 26.07 5.64 26.05 5.58 26.03C5.52 26.01 5.45 25.99 5.39 25.98C5.33 25.97 5.26 25.96 5.2 25.95C5.13 25.94 5.07 25.94 5 25.94C4.93 25.94 4.87 25.94 4.8 25.95C4.74 25.96 4.67 25.97 4.61 25.98C4.55 25.99 4.48 26.01 4.42 26.03C4.36 26.05 4.3 26.07 4.23 26.09C4.17 26.12 4.11 26.15 4.06 26.18C4 26.21 3.94 26.24 3.89 26.28C3.83 26.31 3.78 26.35 3.73 26.39C3.68 26.44 3.63 26.48 3.59 26.53C3.54 26.57 3.5 26.62 3.45 26.67C3.41 26.72 3.37 26.77 3.34 26.83C3.3 26.88 3.27 26.94 3.24 27C3.21 27.05 3.18 27.11 3.15 27.17C3.13 27.24 3.11 27.3 3.09 27.36C3.07 27.42 3.05 27.49 3.04 27.55C3.03 27.61 3.02 27.68 3.01 27.74C3 27.81 3 27.87 3 27.94L3 40C3 40.68 3.13 41.33 3.39 41.95C3.65 42.55 4 43.08 4.46 43.54C4.92 44 5.45 44.35 6.05 44.61C6.67 44.87 7.32 45 8 45L20.06 45C20.13 45 20.19 45 20.26 44.99C20.32 44.98 20.39 44.97 20.45 44.96C20.51 44.95 20.58 44.93 20.64 44.91C20.7 44.89 20.76 44.87 20.83 44.85C20.89 44.82 20.94 44.79 21 44.76C21.06 44.73 21.12 44.7 21.17 44.66C21.22 44.62 21.28 44.59 21.33 44.54C21.38 44.5 21.43 44.46 21.47 44.41C21.52 44.37 21.56 44.32 21.61 44.27C21.65 44.22 21.69 44.16 21.72 44.11C21.76 44.06 21.79 44 21.82 43.94L21.91 43.76L21.97 43.58C21.99 43.52 22.01 43.45 22.02 43.39C22.03 43.32 22.04 43.26 22.05 43.19C22.06 43.13 22.06 43.06 22.06 43C22.06 42.93 22.06 42.87 22.05 42.8C22.04 42.74 22.03 42.67 22.02 42.61C22.01 42.54 21.99 42.48 21.97 42.42C21.95 42.36 21.93 42.29 21.91 42.23C21.88 42.17 21.85 42.11 21.82 42.06C21.79 42 21.76 41.94 21.72 41.89C21.69 41.83 21.65 41.78 21.6 41.73C21.56 41.68 21.52 41.63 21.47 41.58C21.43 41.54 21.38 41.49 21.33 41.45C21.28 41.41 21.22 41.37 21.17 41.34C21.12 41.3 21.06 41.27 21 41.23C20.94 41.2 20.88 41.18 20.82 41.15C20.76 41.13 20.7 41.1 20.64 41.08C20.58 41.07 20.51 41.05 20.45 41.04C20.38 41.02 20.32 41.01 20.25 41.01C20.19 41 20.12 41 20.06 41L9.82 41L22.41 28.41C22.46 28.37 22.5 28.32 22.54 28.27C22.59 28.22 22.63 28.16 22.66 28.11C22.7 28.06 22.73 28 22.76 27.94L22.85 27.76L22.91 27.58C22.93 27.52 22.95 27.45 22.96 27.39C22.97 27.32 22.98 27.26 22.99 27.2C22.99 27.13 23 27.06 23 27C23 26.93 22.99 26.87 22.99 26.8C22.98 26.74 22.97 26.67 22.96 26.61C22.95 26.55 22.93 26.48 22.91 26.42C22.89 26.36 22.87 26.29 22.85 26.23C22.82 26.17 22.79 26.11 22.76 26.06C22.73 26 22.7 25.94 22.66 25.89C22.62 25.83 22.59 25.78 22.54 25.73C22.5 25.68 22.46 25.63 22.41 25.59C22.37 25.54 22.32 25.5 22.27 25.45C22.22 25.41 22.16 25.37 22.11 25.34C22.05 25.3 22 25.27 21.94 25.24L21.76 25.15L21.58 25.09C21.52 25.07 21.45 25.05 21.39 25.04C21.32 25.03 21.26 25.02 21.19 25.01C21.13 25 21.06 25 21 25C20.93 25 20.87 25 20.8 25.01C20.74 25.02 20.67 25.03 20.61 25.04C20.54 25.05 20.48 25.07 20.42 25.09C20.35 25.11 20.29 25.13 20.23 25.15Z" fill-rule="evenodd"  fill="#000000" >
</path>
</svg>
