<svg xmlns="http://www.w3.org/2000/svg" xmlns:xlink="http://www.w3.org/1999/xlink" width="48" height="48" viewBox="0 0 48 48" fill="none">
<path d="M9 3C12.3137 3 15 5.68629 15 9L15 39C15 42.3137 12.3137 45 9 45C5.68629 45 3 42.3137 3 39L3 9C3 5.68629 5.68629 3 9 3ZM23 3C26.3137 3 29 5.68629 29 9L29 39C29 42.3137 26.3137 45 23 45C19.6863 45 17 42.3137 17 39L17 9C17 5.68629 19.6863 3 23 3ZM9 7C7.89543 7 7 7.89543 7 9L7 39C7 40.1046 7.89543 41 9 41C10.1046 41 11 40.1046 11 39L11 9C11 7.89543 10.1046 7 9 7ZM23 7C21.8954 7 21 7.89543 21 9L21 39C21 40.1046 21.8954 41 23 41C24.1046 41 25 40.1046 25 39L25 9C25 7.89543 24.1046 7 23 7ZM30.3503 14.5102C30.004 11.2148 32.3948 8.26257 35.6903 7.91629C38.9857 7.57001 41.9379 9.96079 42.2842 13.2562L44.8866 38.023C45.2329 41.3185 42.8421 44.2707 39.5467 44.617C36.2513 44.9633 33.299 42.5725 32.9528 39.277L30.3503 14.5102ZM38.3062 13.6742C38.1908 12.5758 37.2067 11.7789 36.1083 11.8943C35.0098 12.0097 34.2129 12.9938 34.3283 14.0922L36.9308 38.859C37.0462 39.9574 38.0302 40.7544 39.1287 40.639C40.2272 40.5236 41.0241 39.5395 40.9086 38.441L38.3062 13.6742Z" fill-rule="evenodd"  fill="#000000" >
</path>
</svg>
