<svg xmlns="http://www.w3.org/2000/svg" xmlns:xlink="http://www.w3.org/1999/xlink" width="48" height="48" viewBox="0 0 48 48" fill="none">
<path d="M8.4213 7.26661L22.4213 3.44845C25.8271 2.51961 29.1891 4.70732 29.8737 8.00004L30 8.00004C33.3137 8.00004 36 10.6863 36 14L36 19L32 19L32 14C32 12.8955 31.1046 12 30 12L30 21.9999L38 21.9999L38 19.9999C38 18.2181 40.1543 17.3258 41.4142 18.5857L44.9428 22.1143C46.1999 23.3714 46.1999 24.6285 44.9428 25.8855L41.4142 29.4141C40.1543 30.674 38 29.7817 38 27.9999L38 25.9999L30 25.9999L30 36C31.1046 36 32 35.1046 32 34L32 29L36 29L36 34C36 37.3137 33.3137 40 30 40L29.8737 40C29.189 43.2927 25.827 45.4804 22.4213 44.5516L8.4213 40.7334C5.47377 39.9296 4 38 4 34.9448L4 13.0552C4 10 5.47376 8.07049 8.42129 7.26661L8.66215 8.14974L8.4213 7.26661ZM9.47377 11.1257C8.49126 11.3936 8 12.0368 8 13.0552L8 34.9448C8 35.9632 8.49126 36.6063 9.47377 36.8743L23.4738 40.6925C24.746 41.0395 26 40.0817 26 38.763L26 9.23701C26 7.91829 24.746 6.96053 23.4738 7.30751L9.47377 11.1257ZM23 24C23 25.3807 21.8807 26.5 20.5 26.5C19.1193 26.5 18 25.3807 18 24C18 22.6193 19.1193 21.5 20.5 21.5C21.8807 21.5 23 22.6193 23 24Z" fill-rule="evenodd"  fill="#000000" >
</path>
</svg>
