<svg xmlns="http://www.w3.org/2000/svg" xmlns:xlink="http://www.w3.org/1999/xlink" width="48" height="48" viewBox="0 0 48 48" fill="none">
<path d="M19.34 4.47C18.59 4.16 17.81 4 17 4L12 4C10.92 4 9.88 4.21 8.89 4.63C7.93 5.04 7.08 5.61 6.34 6.34C5.61 7.08 5.04 7.93 4.63 8.89C4.21 9.88 4 10.92 4 12L4 17C4 17.81 4.16 18.59 4.47 19.34C4.78 20.05 5.2 20.69 5.76 21.24C6.31 21.8 6.95 22.22 7.66 22.53C8.41 22.84 9.19 23 10 23L17 23C17.81 23 18.59 22.84 19.34 22.53C20.05 22.22 20.69 21.8 21.24 21.24C21.8 20.69 22.22 20.05 22.53 19.34C22.84 18.59 23 17.81 23 17L23 10C23 9.19 22.84 8.41 22.53 7.66C22.22 6.95 21.8 6.31 21.24 5.76C20.69 5.2 20.05 4.78 19.34 4.47ZM29.59 18.41C29.77 18.6 29.98 18.74 30.22 18.84C30.47 18.95 30.73 19 31 19L38 19C38.27 19 38.53 18.95 38.78 18.84C39.02 18.74 39.23 18.6 39.41 18.41C39.6 18.23 39.74 18.02 39.84 17.78C39.95 17.53 40 17.27 40 17L40 12C40 11.46 39.9 10.94 39.69 10.45C39.48 9.97 39.2 9.54 38.83 9.17C38.46 8.8 38.03 8.52 37.55 8.31C37.06 8.1 36.54 8 36 8L31 8C30.73 8 30.47 8.05 30.22 8.16C29.98 8.26 29.77 8.4 29.59 8.59C29.4 8.77 29.26 8.98 29.16 9.22C29.05 9.47 29 9.73 29 10L29 17C29 17.27 29.05 17.53 29.16 17.78C29.26 18.02 29.4 18.23 29.59 18.41ZM18.41 18.41C18.6 18.23 18.74 18.02 18.84 17.78C18.95 17.53 19 17.27 19 17L19 10C19 9.73 18.95 9.47 18.84 9.22C18.74 8.98 18.6 8.77 18.41 8.59C18.23 8.4 18.02 8.26 17.78 8.16C17.53 8.05 17.27 8 17 8L12 8C11.46 8 10.94 8.1 10.45 8.31C9.97 8.52 9.54 8.8 9.17 9.17C8.8 9.54 8.52 9.97 8.31 10.45C8.1 10.94 8 11.46 8 12L8 17C8 17.27 8.05 17.53 8.16 17.78C8.26 18.02 8.4 18.23 8.59 18.41C8.77 18.6 8.98 18.74 9.22 18.84C9.47 18.95 9.73 19 10 19L17 19C17.27 19 17.53 18.95 17.78 18.84C18.02 18.74 18.23 18.6 18.41 18.41ZM39.84 30.22C39.74 29.98 39.6 29.77 39.41 29.59C39.23 29.4 39.02 29.26 38.78 29.16C38.53 29.05 38.27 29 38 29L31 29C30.73 29 30.47 29.05 30.22 29.16C29.98 29.26 29.77 29.4 29.59 29.59C29.4 29.77 29.26 29.98 29.16 30.22C29.05 30.47 29 30.73 29 31L29 38C29 38.27 29.05 38.53 29.16 38.78C29.26 39.02 29.4 39.23 29.59 39.41C29.77 39.6 29.98 39.74 30.22 39.84C30.47 39.95 30.73 40 31 40L36 40C36.54 40 37.06 39.9 37.55 39.69C38.03 39.48 38.46 39.2 38.83 38.83C39.2 38.46 39.48 38.03 39.69 37.55C39.9 37.06 40 36.54 40 36L40 31C40 30.73 39.95 30.47 39.84 30.22ZM10 29C9.73 29 9.47 29.05 9.22 29.16C8.98 29.26 8.77 29.4 8.59 29.59C8.4 29.77 8.26 29.98 8.16 30.22C8.05 30.47 8 30.73 8 31L8 36C8 36.54 8.1 37.06 8.31 37.55C8.52 38.03 8.8 38.46 9.17 38.83C9.54 39.2 9.97 39.48 10.45 39.69C10.94 39.9 11.46 40 12 40L17 40C17.27 40 17.53 39.95 17.78 39.84C18.02 39.74 18.23 39.6 18.41 39.41C18.6 39.23 18.74 39.02 18.84 38.78C18.95 38.53 19 38.27 19 38L19 31C19 30.73 18.95 30.47 18.84 30.22C18.74 29.98 18.6 29.77 18.41 29.59C18.23 29.4 18.02 29.26 17.78 29.16C17.53 29.05 17.27 29 17 29L10 29ZM42.24 21.24C42.8 20.69 43.22 20.05 43.53 19.34C43.84 18.59 44 17.81 44 17L44 12C44 10.92 43.79 9.88 43.37 8.89C42.96 7.93 42.39 7.08 41.66 6.34C40.92 5.61 40.07 5.04 39.11 4.63C38.12 4.21 37.08 4 36 4L31 4C30.19 4 29.41 4.16 28.66 4.47C27.95 4.78 27.31 5.2 26.76 5.76C26.2 6.31 25.78 6.95 25.47 7.66C25.16 8.41 25 9.19 25 10L25 17C25 17.81 25.16 18.59 25.47 19.34C25.78 20.05 26.2 20.69 26.76 21.24C27.31 21.8 27.95 22.22 28.66 22.53C29.41 22.84 30.19 23 31 23L38 23C38.81 23 39.59 22.84 40.34 22.53C41.05 22.22 41.69 21.8 42.24 21.24ZM19.34 25.47C18.59 25.16 17.81 25 17 25L10 25C9.19 25 8.41 25.16 7.66 25.47C6.95 25.78 6.31 26.2 5.76 26.76C5.2 27.31 4.78 27.95 4.47 28.66C4.16 29.41 4 30.19 4 31L4 36C4 37.08 4.21 38.12 4.63 39.11C5.04 40.07 5.61 40.92 6.34 41.66C7.08 42.39 7.93 42.96 8.89 43.37C9.88 43.79 10.92 44 12 44L17 44C17.81 44 18.59 43.84 19.34 43.53C20.05 43.22 20.69 42.8 21.24 42.24C21.8 41.69 22.22 41.05 22.53 40.34C22.84 39.59 23 38.81 23 38L23 31C23 30.19 22.84 29.41 22.53 28.66C22.22 27.95 21.8 27.31 21.24 26.76C20.69 26.2 20.05 25.78 19.34 25.47ZM28.66 25.47C27.95 25.78 27.31 26.2 26.76 26.76C26.2 27.31 25.78 27.95 25.47 28.66C25.16 29.41 25 30.19 25 31L25 38C25 38.81 25.16 39.59 25.47 40.34C25.78 41.05 26.2 41.69 26.76 42.24C27.31 42.8 27.95 43.22 28.66 43.53C29.41 43.84 30.19 44 31 44L36 44C37.08 44 38.12 43.79 39.11 43.37C40.07 42.96 40.92 42.39 41.66 41.66C42.39 40.92 42.96 40.07 43.37 39.11C43.79 38.12 44 37.08 44 36L44 31C44 30.19 43.84 29.41 43.53 28.66C43.22 27.95 42.8 27.31 42.24 26.76C41.69 26.2 41.05 25.78 40.34 25.47C39.59 25.16 38.81 25 38 25L31 25C30.19 25 29.41 25.16 28.66 25.47Z" fill-rule="evenodd"  fill="#000000" >
</path>
</svg>
