<svg xmlns="http://www.w3.org/2000/svg" xmlns:xlink="http://www.w3.org/1999/xlink" width="48" height="48" viewBox="0 0 48 48" fill="none">
<path d="M39.5857 4.83582L39.5846 4.83686L27.7919 16.6301L27.7919 11.5123C27.7919 6.30606 21.6156 3.57036 17.76 7.06876L12.0071 12.2889C11.8269 12.4525 11.5931 12.5447 11.3497 12.5482L8.8745 12.5843C5.59523 12.6321 2.96191 15.304 2.96191 18.5836L2.96191 29.4515C2.96191 32.7652 5.6482 35.4515 8.96191 35.4515L8.97128 35.4515L4.58577 39.8372C4.22386 40.1991 4.00001 40.6991 4.00001 41.2514C4.00001 42.3559 4.89544 43.2514 6.00001 43.2514C6.55231 43.2514 7.05232 43.0275 7.41425 42.6656L13.2452 36.8343L13.2463 36.8353L16.0781 34.0035L16.077 34.0025L23.7919 26.2872L23.7919 26.2897L27.7919 22.2897L27.7919 22.2871L30.5668 19.512L30.5674 19.5142L33.0149 17.0667L33.0126 17.0661L35.9055 14.1731L35.9073 14.1743L38.7823 11.2993C38.7817 11.2988 38.7811 11.2984 38.7805 11.2979L42.4131 7.66522L42.4142 7.66418C42.7761 7.30226 42.9999 6.80227 42.9999 6.25C42.9999 5.14543 42.1045 4.25 40.9999 4.25C40.4476 4.25 39.9476 4.47387 39.5857 4.83582ZM23.7919 20.6302L23.7919 11.5123C23.7919 9.77686 21.7331 8.86496 20.4479 10.0311L14.695 15.2512C13.7937 16.069 12.625 16.5301 11.408 16.5478L8.93277 16.5839C7.83968 16.5998 6.96191 17.4904 6.96191 18.5836L6.96191 29.4515C6.96191 30.5561 7.85734 31.4515 8.96191 31.4515L12.9711 31.4515L23.7919 20.6302ZM38.7432 16.9952C40.2477 19.071 41 21.4059 41 24C41 26.7686 40.1428 29.2421 38.4284 31.4204C37.5813 32.4967 36.7603 33.2859 35.9656 33.7879C35.3868 34.1384 35 34.774 35 35.5C35 36.6046 35.8954 37.5 37 37.5C37.4015 37.5 37.7754 37.3817 38.0887 37.178C39.276 36.4305 40.4369 35.336 41.5716 33.8943C43.8572 30.9902 45 27.6921 45 24C45 20.3222 43.8663 17.0353 41.599 14.1394L38.7432 16.9952ZM32.8837 22.8547C32.9612 23.206 33 23.5878 33 24C33 25.5143 32.4765 26.6177 31.4296 27.3102C30.8709 27.6649 30.5 28.2891 30.5 29C30.5 30.1046 31.3954 31 32.5 31C32.9145 31 33.2996 30.8739 33.6189 30.6579C35.873 29.1773 37 26.958 37 24C37 22.3647 36.6556 20.9552 35.9669 19.7715L32.8837 22.8547ZM27.7919 36.4848C27.7919 41.69 21.6175 44.4261 17.7615 40.9296L16.213 39.5254L19.0448 36.6936L20.4484 37.9664C21.7338 39.1319 23.7919 38.2199 23.7919 36.4848L23.7919 31.9465L27.7919 27.9465L27.7919 36.4848Z" fill-rule="evenodd"  fill="#000000" >
</path>
</svg>
