<svg xmlns="http://www.w3.org/2000/svg" xmlns:xlink="http://www.w3.org/1999/xlink" width="48" height="48" viewBox="0 0 48 48" fill="none">
<path d="M27.7919 36.4848C27.7919 41.69 21.6175 44.4261 17.7615 40.9296L11.7202 35.4515L8.96191 35.4515C5.6482 35.4515 2.96191 32.7652 2.96191 29.4515L2.96191 18.5836C2.96191 15.3039 5.59523 12.632 8.8745 12.5842L11.3497 12.5481C11.5931 12.5446 11.8269 12.4524 12.0071 12.2888L17.76 7.06873C21.6156 3.57033 27.7919 6.30603 27.7919 11.5122L27.7919 36.4848ZM23.7919 36.4848L23.7919 11.5122C23.7919 9.77683 21.7331 8.86493 20.4479 10.031L14.695 15.2511C13.7937 16.069 12.625 16.5301 11.408 16.5478L8.93277 16.5839C7.83968 16.5998 6.96191 17.4904 6.96191 18.5836L6.96191 29.4515C6.96191 30.5561 7.85734 31.4515 8.96191 31.4515L13.2637 31.4515L20.4484 37.9664C21.7338 39.1319 23.7919 38.2199 23.7919 36.4848ZM30.5858 30.6645C31.367 31.4455 32.6334 31.4455 33.4144 30.6643L37.0004 27.0778L40.5855 30.664C41.3664 31.4452 42.6327 31.4453 43.4139 30.6644C44.1951 29.8835 44.1952 28.6172 43.4143 27.836L39.8286 24.2492L43.4136 20.6637C44.1946 19.8825 44.1945 18.6162 43.4134 17.8351C42.6322 17.0541 41.3658 17.0541 40.5848 17.8353L37.0004 21.4202L33.4177 17.8365C32.6368 17.0554 31.3704 17.0552 30.5893 17.8361C29.8081 18.6171 29.808 19.8834 30.5889 20.6645L34.1722 24.2488L30.5856 27.8359C29.8046 28.6171 29.8046 29.8835 30.5858 30.6645Z" fill-rule="evenodd"  fill="#000000" >
</path>
</svg>
