<svg xmlns="http://www.w3.org/2000/svg" xmlns:xlink="http://www.w3.org/1999/xlink" width="48" height="48" viewBox="0 0 48 48" fill="none">
<path d="M9.495 4.94744C8.255 5.65744 7.27499 6.63744 6.565 7.87744C5.855 9.11744 5.495 10.4474 5.495 11.8774L5.495 36.1174C5.495 37.5474 5.855 38.8774 6.565 40.1174C7.27499 41.3574 8.255 42.3374 9.495 43.0574C10.725 43.7674 12.065 44.1274 13.495 44.1274C14.915 44.1274 16.255 43.7674 17.495 43.0574L38.495 30.9274L38.495 41.2474C38.495 41.3174 38.495 41.3774 38.505 41.4474C38.515 41.5074 38.525 41.5774 38.535 41.6374C38.545 41.6974 38.565 41.7674 38.585 41.8274C38.605 41.8874 38.625 41.9474 38.645 42.0174C38.675 42.0774 38.705 42.1374 38.735 42.1874C38.765 42.2474 38.795 42.3074 38.835 42.3574C38.865 42.4174 38.905 42.4674 38.955 42.5174C38.995 42.5674 39.035 42.6174 39.085 42.6574C39.125 42.7074 39.175 42.7474 39.225 42.7974C39.275 42.8374 39.335 42.8774 39.385 42.9074C39.435 42.9474 39.495 42.9774 39.555 43.0074L39.735 43.0974L39.915 43.1574C39.975 43.1774 40.045 43.1974 40.105 43.2074C40.175 43.2174 40.235 43.2274 40.305 43.2374C40.365 43.2474 40.435 43.2474 40.495 43.2474C40.565 43.2474 40.625 43.2474 40.695 43.2374C40.755 43.2274 40.825 43.2174 40.885 43.2074C40.955 43.1974 41.015 43.1774 41.075 43.1574C41.135 43.1374 41.205 43.1174 41.265 43.0974C41.325 43.0674 41.385 43.0374 41.435 43.0074C41.495 42.9774 41.555 42.9474 41.605 42.9074C41.665 42.8774 41.715 42.8374 41.765 42.7974C41.815 42.7474 41.865 42.7074 41.915 42.6574C41.955 42.6174 42.005 42.5674 42.045 42.5174C42.085 42.4674 42.125 42.4174 42.155 42.3574C42.195 42.3074 42.225 42.2474 42.255 42.1874C42.295 42.1274 42.315 42.0774 42.345 42.0174C42.365 41.9474 42.395 41.8874 42.405 41.8274C42.425 41.7674 42.445 41.6974 42.455 41.6374C42.475 41.5774 42.475 41.5074 42.485 41.4474C42.495 41.3774 42.495 41.3174 42.495 41.2474L42.495 24.4074C42.505 24.2774 42.505 24.1374 42.505 23.9974C42.505 23.8574 42.505 23.7274 42.495 23.5874L42.495 6.74744C42.495 6.67744 42.495 6.61744 42.485 6.54744C42.475 6.48744 42.465 6.41744 42.455 6.35744C42.445 6.29744 42.425 6.22744 42.405 6.16744C42.385 6.10744 42.365 6.04744 42.345 5.97744C42.315 5.91744 42.285 5.85744 42.255 5.80744C42.225 5.74744 42.195 5.68744 42.155 5.63744C42.125 5.57744 42.085 5.52744 42.045 5.47744C41.995 5.42744 41.955 5.37744 41.905 5.33744C41.865 5.28744 41.815 5.24744 41.765 5.19744C41.715 5.15744 41.665 5.11744 41.605 5.08744C41.555 5.04744 41.495 5.01744 41.435 4.98744C41.375 4.95744 41.325 4.92744 41.265 4.89744C41.195 4.87744 41.135 4.85744 41.075 4.83744C41.015 4.81744 40.945 4.79744 40.885 4.78744C40.825 4.77744 40.755 4.76744 40.695 4.75744C40.625 4.74744 40.565 4.74744 40.495 4.74744C40.425 4.74744 40.365 4.74744 40.295 4.75744C40.235 4.76744 40.165 4.77744 40.105 4.78744C40.045 4.79744 39.975 4.81744 39.915 4.83744C39.855 4.85744 39.795 4.87744 39.725 4.89744C39.665 4.92744 39.605 4.95744 39.555 4.98744C39.495 5.01744 39.435 5.04744 39.385 5.08744C39.325 5.11744 39.275 5.15744 39.225 5.19744C39.175 5.24744 39.125 5.28744 39.085 5.33744C39.035 5.37744 38.995 5.42744 38.945 5.47744C38.905 5.52744 38.865 5.57744 38.835 5.63744C38.795 5.68744 38.765 5.74744 38.735 5.80744C38.705 5.85744 38.675 5.91744 38.645 5.97744C38.625 6.04744 38.605 6.10744 38.585 6.16744C38.565 6.22744 38.545 6.29744 38.535 6.35744C38.525 6.41744 38.515 6.48744 38.505 6.54744C38.495 6.61744 38.495 6.67744 38.495 6.74744L38.495 17.0674L17.495 4.94744C16.255 4.23744 14.915 3.87744 13.495 3.87744C12.065 3.87744 10.725 4.23744 9.495 4.94744ZM37.965 21.9974C37.605 21.3774 37.115 20.8874 36.495 20.5374L15.495 8.40744C14.875 8.05744 14.205 7.87744 13.495 7.87744C12.775 7.87744 12.115 8.05744 11.495 8.40744C10.875 8.76744 10.385 9.25744 10.035 9.87744C9.675 10.4974 9.495 11.1674 9.495 11.8774L9.495 36.1174C9.495 36.8374 9.675 37.5074 10.035 38.1274C10.385 38.7474 10.875 39.2274 11.495 39.5874C12.115 39.9474 12.775 40.1174 13.495 40.1174C14.205 40.1174 14.875 39.9474 15.495 39.5874L36.495 27.4674C37.115 27.1074 37.605 26.6174 37.965 25.9974C38.275 25.4674 38.455 24.8974 38.495 24.2874L38.495 23.7074C38.455 23.1074 38.275 22.5374 37.965 21.9974Z" fill-rule="evenodd"  fill="#000000" >
</path>
</svg>
