<svg xmlns="http://www.w3.org/2000/svg" xmlns:xlink="http://www.w3.org/1999/xlink" width="48" height="48" viewBox="0 0 48 48" fill="none">
<path d="M26 2L22 2C16.48 2 12 6.48 12 12L12 16L10 16C6.69 16 4 18.69 4 22L4 38.84C4 42.15 6.69 44.84 10 44.84L38 44.84C41.31 44.84 44 42.15 44 38.84L44 22C44 18.69 41.31 16 38 16L36 16L36 12C36 6.48 31.52 2 26 2ZM26 6L22 6C18.69 6 16 8.69 16 12L16 16L32 16L32 12C32 8.69 29.31 6 26 6ZM8 22L8 38.84C8 39.94 8.9 40.84 10 40.84L38 40.84C39.1 40.84 40 39.94 40 38.84L40 22C40 20.9 39.1 20 38 20L10 20C8.9 20 8 20.9 8 22ZM26 26C26 24.9 25.1 24 24 24C22.9 24 22 24.9 22 26L22 34C22 35.1 22.9 36 24 36C25.1 36 26 35.1 26 34L26 26Z" fill-rule="evenodd"  fill="#000000" >
</path>
</svg>
