<svg xmlns="http://www.w3.org/2000/svg" xmlns:xlink="http://www.w3.org/1999/xlink" width="48" height="48" viewBox="0 0 48 48" fill="none">
<path d="M24 6C26.27 6 27.97 6.28 29.11 6.85C29.56 7.08 29.96 7.37 30.31 7.72C30.63 8.05 30.93 8.45 31.25 8.96C31.59 9.58 32.25 10 33 10C34.1 10 35 9.1 35 8C35 7.63 34.9 7.27 34.71 6.97L34.72 6.97C34.23 6.16 33.71 5.48 33.16 4.92C32.5 4.25 31.74 3.7 30.89 3.27C29.2 2.42 26.9 2 24 2L22 2C16.48 2 12 6.48 12 12L12 16L10 16C6.69 16 4 18.69 4 22L4 38.84C4 42.15 6.69 44.84 10 44.84L38 44.84C41.31 44.84 44 42.15 44 38.84L44 22C44 18.69 41.31 16 38 16L16 16L16 12C16 8.69 18.69 6 22 6L24 6ZM38 40.84C39.1 40.84 40 39.94 40 38.84L40 22C40 20.9 39.1 20 38 20L10 20C8.9 20 8 20.9 8 22L8 38.84C8 39.94 8.9 40.84 10 40.84L38 40.84ZM26 26C26 24.9 25.1 24 24 24C22.9 24 22 24.9 22 26L22 34C22 35.1 22.9 36 24 36C25.1 36 26 35.1 26 34L26 26Z" fill-rule="evenodd"  fill="#000000" >
</path>
</svg>
