<svg xmlns="http://www.w3.org/2000/svg" xmlns:xlink="http://www.w3.org/1999/xlink" width="48" height="48" viewBox="0 0 48 48" fill="none">
<path d="M14.59 30.58L14.59 30.59C14.22 30.95 14 31.45 14 32C14 33.1 14.9 34 16 34C16.55 34 17.05 33.78 17.41 33.41L17.42 33.41L40 10.83L40 24C40 25.1 40.9 26 42 26C43.1 26 44 25.1 44 24L44 8C44 5.79 42.21 4 40 4L24 4C22.9 4 22 4.9 22 6C22 7.1 22.9 8 24 8L37.17 8L14.59 30.58ZM18 12C18 10.9 17.1 10 16 10L12 10C7.58 10 4 13.58 4 18L4 36C4 40.42 7.58 44 12 44L30 44C34.42 44 38 40.42 38 36L38 32C38 30.9 37.1 30 36 30C34.9 30 34 30.9 34 32L34 36C34 38.21 32.21 40 30 40L12 40C9.79 40 8 38.21 8 36L8 18C8 15.79 9.79 14 12 14L16 14C17.1 14 18 13.1 18 12Z" fill-rule="evenodd"  fill="#000000" >
</path>
</svg>
