<svg xmlns="http://www.w3.org/2000/svg" xmlns:xlink="http://www.w3.org/1999/xlink" width="48" height="48" viewBox="0 0 48 48" fill="none">
<path d="M39.59 40.93C39.65 40.88 39.71 40.83 39.77 40.77C39.83 40.71 39.88 40.65 39.93 40.59C39.98 40.52 40.03 40.46 40.08 40.39C40.12 40.32 40.17 40.25 40.2 40.18C40.24 40.11 40.28 40.03 40.31 39.96C40.34 39.88 40.37 39.8 40.39 39.73C40.42 39.65 40.44 39.57 40.45 39.49C40.47 39.41 40.48 39.33 40.49 39.25C40.5 39.16 40.5 39.08 40.5 39L40.5 9C40.5 8.84 40.48 8.67 40.45 8.51C40.42 8.35 40.37 8.2 40.31 8.04C40.25 7.89 40.17 7.75 40.08 7.61C39.99 7.47 39.88 7.35 39.77 7.23C39.65 7.12 39.53 7.01 39.39 6.92C39.25 6.83 39.11 6.75 38.96 6.69C38.81 6.63 38.65 6.58 38.49 6.55C38.33 6.52 38.17 6.5 38 6.5C37.84 6.5 37.67 6.52 37.51 6.55C37.35 6.58 37.2 6.63 37.04 6.69C36.89 6.75 36.75 6.83 36.61 6.92C36.48 7.01 36.35 7.12 36.23 7.23C36.12 7.35 36.01 7.47 35.92 7.61C35.83 7.75 35.75 7.89 35.69 8.04C35.63 8.19 35.58 8.35 35.55 8.51C35.52 8.67 35.5 8.84 35.5 9L35.5 39C35.5 39.08 35.5 39.16 35.51 39.25C35.52 39.33 35.53 39.41 35.55 39.49C35.56 39.57 35.58 39.65 35.61 39.73C35.63 39.8 35.66 39.88 35.69 39.96C35.72 40.03 35.76 40.11 35.8 40.18C35.83 40.25 35.88 40.32 35.92 40.39C35.97 40.46 36.02 40.52 36.07 40.59C36.12 40.65 36.17 40.71 36.23 40.77C36.29 40.83 36.35 40.88 36.41 40.93C36.48 40.98 36.54 41.03 36.61 41.08C36.68 41.12 36.75 41.17 36.82 41.2C36.89 41.24 36.97 41.28 37.04 41.31C37.12 41.34 37.2 41.37 37.27 41.39C37.35 41.42 37.43 41.44 37.51 41.45C37.59 41.47 37.67 41.48 37.75 41.49C37.84 41.5 37.92 41.5 38 41.5C38.08 41.5 38.16 41.5 38.24 41.49C38.33 41.48 38.41 41.47 38.49 41.45C38.57 41.44 38.65 41.42 38.73 41.39C38.8 41.37 38.88 41.34 38.96 41.31C39.03 41.28 39.11 41.24 39.18 41.2C39.25 41.17 39.32 41.12 39.39 41.08C39.46 41.03 39.52 40.98 39.59 40.93ZM12.45 8.51C12.42 8.35 12.37 8.2 12.31 8.04C12.25 7.89 12.17 7.75 12.08 7.61C11.99 7.47 11.88 7.35 11.77 7.23C11.65 7.12 11.53 7.01 11.39 6.92C11.25 6.83 11.11 6.75 10.96 6.69C10.81 6.63 10.65 6.58 10.49 6.55C10.33 6.52 10.17 6.5 10 6.5C9.84 6.5 9.67 6.52 9.51 6.55C9.35 6.58 9.2 6.63 9.04 6.69C8.89 6.75 8.75 6.83 8.61 6.92C8.48 7.01 8.35 7.12 8.23 7.23C8.12 7.35 8.01 7.47 7.92 7.61C7.83 7.75 7.75 7.89 7.69 8.04C7.63 8.19 7.58 8.35 7.55 8.51C7.52 8.67 7.5 8.84 7.5 9L7.5 39C7.5 39.08 7.5 39.16 7.51 39.25C7.52 39.33 7.53 39.41 7.55 39.49C7.56 39.57 7.58 39.65 7.61 39.73C7.63 39.8 7.66 39.88 7.69 39.96C7.72 40.03 7.76 40.11 7.8 40.18C7.83 40.25 7.88 40.32 7.92 40.39C7.97 40.46 8.02 40.52 8.07 40.59C8.12 40.65 8.17 40.71 8.23 40.77C8.29 40.83 8.35 40.88 8.41 40.93C8.48 40.98 8.54 41.03 8.61 41.08C8.68 41.12 8.75 41.17 8.82 41.2C8.89 41.24 8.97 41.28 9.04 41.31C9.12 41.34 9.2 41.37 9.27 41.39C9.35 41.42 9.43 41.44 9.51 41.45C9.59 41.47 9.67 41.48 9.75 41.49C9.84 41.5 9.92 41.5 10 41.5C10.08 41.5 10.16 41.5 10.24 41.49C10.33 41.48 10.41 41.47 10.49 41.45C10.57 41.44 10.65 41.42 10.73 41.39C10.8 41.37 10.88 41.34 10.96 41.31C11.03 41.28 11.11 41.24 11.18 41.2C11.25 41.17 11.32 41.12 11.39 41.08C11.46 41.03 11.52 40.98 11.59 40.93C11.65 40.88 11.71 40.83 11.77 40.77C11.83 40.71 11.88 40.65 11.93 40.59C11.98 40.52 12.03 40.46 12.08 40.39C12.12 40.32 12.17 40.25 12.2 40.18C12.24 40.11 12.28 40.03 12.31 39.96C12.34 39.88 12.37 39.8 12.39 39.73C12.42 39.65 12.44 39.57 12.45 39.49C12.47 39.41 12.48 39.33 12.49 39.25C12.5 39.16 12.5 39.08 12.5 39L12.5 9C12.5 8.84 12.48 8.67 12.45 8.51Z" fill-rule="evenodd"  fill="#000000" >
</path>
</svg>
