<svg xmlns="http://www.w3.org/2000/svg" xmlns:xlink="http://www.w3.org/1999/xlink" width="48" height="48" viewBox="0 0 48 48" fill="none">
<path d="M42 21C43.1 21 44 20.1 44 19C44 18.45 43.78 17.95 43.41 17.59L43.41 17.58L30.41 4.59C30.05 4.22 29.55 4 29 4C27.9 4 27 4.9 27 6C27 6.55 27.22 7.05 27.59 7.41L29.42 9.24L21.48 16.28C21.48 16.28 21.48 16.27 21.49 16.27L7.63 18.35C4.38 18.83 3.06 22.81 5.39 25.13L12.72 32.46L4.59 40.59C4.22 40.95 4 41.45 4 42C4 43.1 4.9 44 6 44C6.55 44 7.05 43.78 7.41 43.41L15.54 35.28L22.87 42.61C25.19 44.94 29.17 43.62 29.65 40.38L31.73 26.52L31.72 26.52C31.72 26.52 31.72 26.51 31.73 26.51L38.76 18.58L40.59 20.41C40.95 20.78 41.45 21 42 21ZM32.25 12.07L24.15 19.26C23.58 19.77 22.86 20.11 22.09 20.23L8.22 22.31L25.69 39.78L27.77 25.9C27.89 25.13 28.22 24.42 28.73 23.85L35.93 15.75L32.25 12.07Z" fill-rule="evenodd"  fill="#000000" >
</path>
</svg>
