<svg xmlns="http://www.w3.org/2000/svg" xmlns:xlink="http://www.w3.org/1999/xlink" width="48" height="48" viewBox="0 0 48 48" fill="none">
<path d="M6.00001 36.1174C6.00001 37.5474 6.36001 38.8774 7.07001 40.1174C7.78001 41.3574 8.76001 42.3374 10 43.0574C11.23 43.7674 12.57 44.1274 14 44.1274C15.42 44.1274 16.76 43.7674 18 43.0574L39 30.9274C40.24 30.2174 41.22 29.2474 41.93 28.0074C42.65 26.7674 43.01 25.4374 43.01 23.9974C43.01 22.5674 42.65 21.2274 41.93 19.9874C41.22 18.7574 40.24 17.7774 39 17.0674L18 4.94744C16.76 4.23744 15.42 3.87744 14 3.87744C12.57 3.87744 11.23 4.23744 10 4.94744C8.76001 5.65744 7.78001 6.63744 7.07001 7.87744C6.36001 9.11744 6.00001 10.4474 6.00001 11.8774L6.00001 36.1174ZM39.01 23.9974C39.01 23.2874 38.83 22.6174 38.47 21.9974C38.11 21.3774 37.62 20.8874 37 20.5374L16 8.40744C15.38 8.05744 14.71 7.87744 14 7.87744C13.28 7.87744 12.62 8.05744 12 8.40744C11.38 8.76744 10.89 9.25744 10.54 9.87744C10.18 10.4974 10 11.1674 10 11.8774L10 36.1174C10 36.8374 10.18 37.5074 10.54 38.1274C10.89 38.7474 11.38 39.2274 12 39.5874C12.62 39.9474 13.28 40.1174 14 40.1174C14.71 40.1174 15.38 39.9474 16 39.5874L37 27.4674C37.62 27.1074 38.11 26.6174 38.47 25.9974C38.83 25.3874 39.01 24.7174 39.01 23.9974Z" fill-rule="evenodd"  fill="#000000" >
</path>
</svg>
