<svg xmlns="http://www.w3.org/2000/svg" xmlns:xlink="http://www.w3.org/1999/xlink" width="48" height="48" viewBox="0 0 48 48" fill="none">
<path d="M28.37 26.43C28.43 26.45 28.5 26.47 28.56 26.48C28.62 26.49 28.69 26.5 28.75 26.51C28.82 26.52 28.88 26.52 28.95 26.52L42.29 26.52C42.43 26.52 42.56 26.51 42.68 26.48C42.81 26.46 42.94 26.42 43.06 26.37C43.18 26.32 43.3 26.26 43.41 26.18C43.51 26.11 43.62 26.03 43.71 25.94C43.8 25.84 43.88 25.74 43.96 25.63C44.03 25.52 44.09 25.41 44.14 25.29C44.19 25.17 44.23 25.04 44.26 24.91C44.28 24.78 44.29 24.65 44.29 24.52C44.29 24.46 44.29 24.39 44.28 24.33C44.28 24.26 44.27 24.2 44.26 24.13C44.24 24.07 44.23 24 44.21 23.94C44.19 23.88 44.17 23.82 44.14 23.76C44.12 23.7 44.09 23.64 44.06 23.58C44.03 23.52 43.99 23.46 43.96 23.41C43.92 23.36 43.88 23.3 43.84 23.25C43.8 23.2 43.75 23.15 43.71 23.11C43.66 23.06 43.61 23.02 43.56 22.98C43.51 22.93 43.46 22.89 43.41 22.86C43.35 22.82 43.29 22.79 43.24 22.76L43.06 22.67C43 22.65 42.94 22.63 42.87 22.61C42.81 22.59 42.75 22.57 42.68 22.56C42.62 22.55 42.56 22.54 42.49 22.53C42.43 22.52 42.36 22.52 42.29 22.52L28.95 22.52C28.88 22.52 28.82 22.52 28.75 22.53C28.69 22.54 28.62 22.55 28.56 22.56C28.5 22.57 28.43 22.59 28.37 22.61C28.31 22.63 28.25 22.65 28.18 22.67C28.12 22.7 28.07 22.73 28.01 22.76C27.95 22.79 27.89 22.82 27.84 22.86C27.78 22.89 27.73 22.93 27.68 22.97C27.63 23.02 27.58 23.06 27.54 23.11C27.49 23.15 27.45 23.2 27.4 23.25C27.36 23.3 27.32 23.35 27.29 23.41C27.25 23.46 27.22 23.52 27.19 23.58C27.16 23.63 27.13 23.69 27.1 23.75C27.08 23.82 27.06 23.88 27.04 23.94C27.02 24 27 24.07 26.99 24.13C26.98 24.19 26.97 24.26 26.96 24.32C26.95 24.39 26.95 24.45 26.95 24.52C26.95 24.59 26.95 24.65 26.96 24.72C26.97 24.78 26.98 24.85 26.99 24.91C27 24.97 27.02 25.04 27.04 25.1C27.06 25.16 27.08 25.22 27.1 25.29C27.13 25.35 27.16 25.4 27.19 25.46C27.22 25.52 27.25 25.58 27.29 25.63C27.32 25.69 27.36 25.74 27.4 25.79C27.45 25.84 27.49 25.89 27.54 25.93C27.58 25.98 27.63 26.02 27.68 26.07C27.73 26.11 27.78 26.15 27.84 26.18C27.89 26.22 27.95 26.25 28.01 26.28C28.06 26.31 28.12 26.34 28.18 26.37C28.24 26.39 28.31 26.41 28.37 26.43ZM27.1 10.72C27.08 10.79 27.06 10.85 27.04 10.91C27.02 10.97 27 11.04 26.99 11.1C26.98 11.16 26.97 11.23 26.96 11.29C26.95 11.36 26.95 11.42 26.95 11.49C26.95 11.56 26.95 11.62 26.96 11.69C26.97 11.75 26.98 11.82 26.99 11.88C27 11.94 27.02 12.01 27.04 12.07C27.06 12.13 27.08 12.19 27.1 12.26C27.13 12.32 27.16 12.37 27.19 12.43C27.22 12.49 27.25 12.55 27.29 12.6C27.32 12.66 27.36 12.71 27.4 12.76C27.45 12.81 27.49 12.86 27.54 12.9C27.58 12.95 27.63 12.99 27.68 13.04C27.73 13.08 27.78 13.12 27.84 13.15C27.89 13.19 27.95 13.22 28.01 13.25C28.06 13.28 28.12 13.31 28.18 13.34C28.24 13.36 28.31 13.38 28.37 13.4C28.43 13.42 28.5 13.44 28.56 13.45C28.62 13.46 28.69 13.47 28.75 13.48C28.82 13.49 28.88 13.49 28.95 13.49L42.29 13.49C42.43 13.49 42.56 13.48 42.68 13.45C42.81 13.43 42.94 13.39 43.06 13.34C43.18 13.29 43.3 13.23 43.41 13.15C43.51 13.08 43.62 13 43.71 12.91C43.8 12.81 43.88 12.71 43.96 12.6C44.03 12.49 44.09 12.38 44.14 12.26C44.19 12.14 44.23 12.01 44.26 11.88C44.28 11.75 44.29 11.62 44.29 11.49C44.29 11.43 44.29 11.36 44.28 11.3C44.28 11.23 44.27 11.17 44.26 11.1C44.24 11.04 44.23 10.97 44.21 10.91C44.19 10.85 44.17 10.79 44.14 10.73C44.12 10.67 44.09 10.61 44.06 10.55C44.03 10.49 43.99 10.43 43.96 10.38C43.92 10.33 43.88 10.27 43.84 10.22C43.8 10.17 43.75 10.12 43.71 10.08C43.66 10.03 43.61 9.99 43.56 9.95C43.51 9.9 43.46 9.86 43.41 9.83C43.35 9.79 43.29 9.76 43.24 9.73L43.06 9.64C43 9.62 42.94 9.6 42.87 9.58C42.81 9.56 42.75 9.54 42.68 9.53C42.62 9.52 42.56 9.51 42.49 9.5C42.43 9.49 42.36 9.49 42.29 9.49L28.95 9.49C28.88 9.49 28.82 9.49 28.75 9.5C28.69 9.51 28.62 9.52 28.56 9.53C28.5 9.54 28.43 9.56 28.37 9.58C28.31 9.6 28.25 9.62 28.18 9.64C28.12 9.67 28.07 9.7 28.01 9.73C27.95 9.76 27.89 9.79 27.84 9.83C27.78 9.86 27.73 9.9 27.68 9.94C27.63 9.99 27.58 10.03 27.54 10.08C27.49 10.12 27.45 10.17 27.4 10.22C27.36 10.27 27.32 10.32 27.29 10.38C27.25 10.43 27.22 10.49 27.19 10.55C27.16 10.6 27.13 10.66 27.1 10.72ZM43.85 38.83C43.89 38.78 43.93 38.73 43.96 38.67C44 38.62 44.03 38.56 44.06 38.5C44.09 38.45 44.12 38.39 44.15 38.33C44.17 38.27 44.19 38.2 44.21 38.14C44.23 38.08 44.25 38.02 44.26 37.95C44.27 37.89 44.28 37.82 44.29 37.76C44.3 37.69 44.3 37.63 44.3 37.56C44.3 37.43 44.29 37.3 44.26 37.17C44.24 37.04 44.2 36.92 44.15 36.8C44.1 36.67 44.04 36.56 43.96 36.45C43.89 36.34 43.81 36.24 43.71 36.15C43.62 36.05 43.52 35.97 43.41 35.9C43.3 35.83 43.19 35.76 43.07 35.71C42.94 35.66 42.82 35.63 42.69 35.6C42.56 35.57 42.43 35.56 42.3 35.56L6.23 35.56C6.16 35.56 6.1 35.56 6.03 35.57C5.97 35.58 5.9 35.59 5.84 35.6C5.78 35.61 5.71 35.63 5.65 35.65C5.59 35.67 5.53 35.69 5.46 35.71C5.4 35.74 5.34 35.77 5.29 35.8C5.23 35.83 5.17 35.86 5.12 35.9C5.06 35.93 5.01 35.97 4.96 36.01C4.91 36.06 4.86 36.1 4.82 36.15C4.77 36.19 4.73 36.24 4.68 36.29C4.64 36.34 4.6 36.39 4.57 36.45C4.53 36.5 4.5 36.56 4.47 36.62C4.44 36.67 4.41 36.73 4.38 36.79C4.36 36.86 4.34 36.92 4.32 36.98C4.3 37.04 4.28 37.11 4.27 37.17C4.26 37.23 4.25 37.3 4.24 37.36C4.23 37.43 4.23 37.49 4.23 37.56C4.23 37.63 4.23 37.69 4.24 37.76C4.25 37.82 4.26 37.89 4.27 37.95C4.28 38.01 4.3 38.08 4.32 38.14C4.34 38.2 4.36 38.26 4.38 38.33C4.41 38.39 4.44 38.44 4.47 38.5C4.5 38.56 4.53 38.62 4.57 38.67C4.6 38.73 4.64 38.78 4.68 38.83C4.73 38.88 4.77 38.93 4.82 38.97C4.86 39.02 4.91 39.06 4.96 39.11C5.01 39.15 5.06 39.19 5.12 39.22C5.17 39.26 5.23 39.29 5.29 39.32C5.34 39.35 5.4 39.38 5.46 39.41C5.53 39.43 5.59 39.45 5.65 39.47C5.71 39.49 5.78 39.51 5.84 39.52C5.9 39.53 5.97 39.54 6.03 39.55C6.1 39.56 6.16 39.56 6.23 39.56L42.3 39.56C42.36 39.56 42.43 39.56 42.5 39.55C42.56 39.55 42.63 39.54 42.69 39.52C42.75 39.51 42.82 39.49 42.88 39.48C42.94 39.46 43 39.43 43.06 39.41C43.13 39.38 43.18 39.36 43.24 39.33C43.3 39.29 43.36 39.26 43.41 39.22C43.47 39.19 43.52 39.15 43.57 39.11C43.62 39.07 43.67 39.02 43.71 38.98C43.76 38.93 43.8 38.88 43.85 38.83ZM6 8.54C5.38 8.9 4.89 9.39 4.54 10C4.18 10.62 4 11.29 4 12L4 24.14C4 24.85 4.18 25.52 4.54 26.14C4.89 26.75 5.38 27.24 6 27.6C6.62 27.96 7.28 28.14 8 28.14C8.72 28.14 9.38 27.96 10 27.6L20.5 21.53C21.12 21.17 21.61 20.68 21.96 20.07C22.32 19.45 22.5 18.78 22.5 18.07C22.5 17.36 22.32 16.69 21.96 16.07C21.61 15.46 21.12 14.97 20.5 14.61L10 8.54C9.38 8.18 8.72 8 8 8C7.28 8 6.62 8.18 6 8.54ZM8 12L8 24.14L18.5 18.07L8 12Z" fill-rule="evenodd"  fill="#000000" >
</path>
</svg>
