<svg xmlns="http://www.w3.org/2000/svg" xmlns:xlink="http://www.w3.org/1999/xlink" width="48" height="48" viewBox="0 0 48 48" fill="none">
<path d="M32.505 8.40744L11.505 20.5374C10.885 20.8974 10.395 21.3874 10.035 22.0074C9.72499 22.5274 9.545 23.0974 9.505 23.7074L9.505 24.2874C9.545 24.8974 9.72499 25.4674 10.035 26.0074C10.395 26.6274 10.885 27.1174 11.505 27.4674L32.505 39.5874C33.125 39.9374 33.795 40.1174 34.505 40.1174C35.225 40.1174 35.885 39.9374 36.505 39.5874C37.125 39.2274 37.615 38.7474 37.965 38.1174C38.325 37.5074 38.505 36.8374 38.505 36.1174L38.505 11.8874C38.505 11.1674 38.325 10.4874 37.965 9.86744C37.615 9.25744 37.125 8.76744 36.505 8.40744C35.885 8.04744 35.225 7.88744 34.505 7.88744C33.795 7.88744 33.125 8.04744 32.505 8.40744ZM5.745 5.80744C5.71499 5.85744 5.685 5.91744 5.65499 5.97744C5.63499 6.04744 5.615 6.10744 5.595 6.16744C5.575 6.22744 5.555 6.29744 5.545 6.35744C5.535 6.41744 5.525 6.48744 5.515 6.54744C5.505 6.61744 5.505 6.67744 5.505 6.74744L5.505 23.5874C5.495 23.7274 5.495 23.8674 5.495 23.9974C5.495 24.1374 5.495 24.2774 5.505 24.4174L5.505 41.2474C5.505 41.3174 5.505 41.3774 5.515 41.4474C5.525 41.5074 5.535 41.5774 5.545 41.6374C5.555 41.6974 5.575 41.7674 5.595 41.8274C5.615 41.8874 5.63499 41.9474 5.65499 42.0174C5.685 42.0774 5.71499 42.1274 5.745 42.1874C5.775 42.2474 5.805 42.3074 5.845 42.3574C5.875 42.4174 5.915 42.4674 5.955 42.5174C6.005 42.5674 6.045 42.6174 6.095 42.6574C6.13499 42.7074 6.185 42.7474 6.23499 42.7974C6.285 42.8374 6.335 42.8774 6.395 42.9074C6.44499 42.9474 6.505 42.9774 6.565 43.0074C6.615 43.0374 6.67499 43.0674 6.73499 43.0974C6.805 43.1174 6.865 43.1374 6.92499 43.1574C6.98499 43.1774 7.055 43.1974 7.115 43.2074C7.17499 43.2174 7.245 43.2274 7.305 43.2374C7.375 43.2474 7.435 43.2474 7.505 43.2474C7.635 43.2474 7.765 43.2374 7.895 43.2074C8.02499 43.1874 8.14499 43.1474 8.27499 43.0974C8.39499 43.0474 8.505 42.9874 8.615 42.9074C8.72499 42.8374 8.825 42.7574 8.915 42.6574C9.015 42.5674 9.095 42.4674 9.165 42.3574C9.245 42.2474 9.30499 42.1374 9.35499 42.0174C9.40499 41.8874 9.44499 41.7674 9.465 41.6374C9.495 41.5074 9.505 41.3774 9.505 41.2474L9.505 30.9374L30.505 43.0474C31.745 43.7674 33.085 44.1174 34.505 44.1174C35.935 44.1174 37.275 43.7674 38.505 43.0474C39.745 42.3474 40.725 41.3674 41.435 40.1174C42.145 38.8774 42.505 37.5574 42.505 36.1174L42.505 11.8874C42.505 10.4574 42.145 9.12744 41.435 7.88744C40.725 6.63744 39.745 5.65744 38.505 4.93744C37.275 4.22744 35.935 3.86744 34.505 3.86744C33.085 3.86744 31.745 4.22744 30.505 4.93744L9.505 17.0774L9.505 6.74744C9.505 6.61744 9.495 6.48744 9.465 6.35744C9.44499 6.22744 9.40499 6.10744 9.35499 5.97744C9.30499 5.85744 9.245 5.74744 9.165 5.63744C9.095 5.52744 9.015 5.42744 8.925 5.33744C8.825 5.23744 8.72499 5.15744 8.615 5.08744C8.505 5.00744 8.39499 4.94744 8.27499 4.89744C8.15499 4.84744 8.02499 4.80744 7.895 4.78744C7.765 4.75744 7.635 4.74744 7.505 4.74744C7.44499 4.74744 7.375 4.74744 7.315 4.75744C7.245 4.76744 7.185 4.77744 7.115 4.78744C7.055 4.79744 6.98499 4.81744 6.92499 4.83744L6.745 4.89744L6.565 4.98744C6.505 5.01744 6.44499 5.04744 6.395 5.08744C6.345 5.11744 6.285 5.15744 6.23499 5.19744C6.185 5.24744 6.13499 5.28744 6.095 5.33744C6.045 5.37744 6.005 5.42744 5.96499 5.47744C5.915 5.52744 5.875 5.57744 5.845 5.63744C5.805 5.68744 5.775 5.74744 5.745 5.80744Z" fill-rule="evenodd"  fill="#000000" >
</path>
</svg>
