<svg xmlns="http://www.w3.org/2000/svg" xmlns:xlink="http://www.w3.org/1999/xlink" width="48" height="48" viewBox="0 0 48 48" fill="none">
<path d="M18.0025 16C18.0025 16.98 18.1025 17.93 18.2925 18.88L4.58253 32.59C3.85253 33.32 3.29253 34.16 2.90253 35.12C2.53253 36.04 2.34253 37 2.34253 38C2.34253 39 2.53253 39.96 2.90253 40.88C3.29253 41.84 3.85253 42.68 4.58253 43.41C5.32253 44.15 6.16253 44.71 7.12253 45.1C8.04253 45.47 9.00253 45.66 10.0025 45.66C11.0025 45.66 11.9625 45.47 12.8825 45.1C13.8325 44.71 14.6825 44.15 15.4125 43.41L29.1225 29.7C30.0625 29.9 31.0225 30 32.0025 30C33.9025 30 35.7125 29.63 37.4525 28.9C39.1225 28.19 40.6125 27.19 41.9025 25.9C43.1925 24.61 44.1925 23.13 44.9025 21.45C45.6325 19.72 46.0025 17.9 46.0025 16C46.0025 13.78 45.5025 11.68 44.5125 9.7C44.3825 9.45 44.2125 9.24 43.9925 9.06C43.9425 9.02 43.8925 8.98 43.8325 8.94C43.7825 8.91 43.7225 8.87 43.6625 8.84C43.6125 8.81 43.5525 8.78 43.4925 8.76C43.4325 8.73 43.3625 8.71 43.3025 8.69C43.2425 8.67 43.1725 8.66 43.1125 8.64C43.0525 8.63 42.9825 8.62 42.9225 8.61C42.8525 8.61 42.7925 8.6 42.7225 8.6C42.6625 8.6 42.5925 8.61 42.5225 8.61C42.4625 8.62 42.3925 8.63 42.3325 8.64C42.2725 8.66 42.2025 8.67 42.1425 8.69C42.0825 8.71 42.0225 8.73 41.9625 8.76C41.8925 8.78 41.8425 8.81 41.7825 8.84C41.7225 8.87 41.6625 8.9 41.6125 8.94C41.5525 8.98 41.5025 9.02 41.4525 9.06C41.4025 9.1 41.3525 9.14 41.3125 9.19C41.2625 9.24 41.2225 9.28 41.1725 9.33L41.1725 9.34L33.3325 17.18L33.3325 17.18L33.3325 17.18L30.8225 14.67C30.8225 14.67 30.8225 14.66 30.8225 14.66L38.6625 6.82L38.6625 6.82C38.8825 6.64 39.0525 6.43 39.1825 6.18C39.2425 6.06 39.2925 5.94 39.3225 5.81C39.3625 5.69 39.3825 5.56 39.3925 5.43C39.4025 5.29 39.3925 5.16 39.3825 5.03C39.3625 4.9 39.3325 4.78 39.2925 4.65C39.2525 4.53 39.2025 4.41 39.1325 4.29C39.0725 4.18 38.9925 4.07 38.9125 3.97C38.8225 3.87 38.7325 3.78 38.6225 3.7C38.5225 3.62 38.4125 3.55 38.2925 3.49C36.3225 2.5 34.2225 2 32.0025 2C30.1025 2 28.2825 2.37 26.5525 3.1C24.8725 3.81 23.3925 4.81 22.1025 6.1C20.8125 7.39 19.8125 8.87 19.1025 10.55C18.3625 12.28 18.0025 14.1 18.0025 16ZM22.4925 19.17C22.5025 19.26 22.5125 19.35 22.5125 19.44C22.5125 19.53 22.5125 19.62 22.5025 19.71C22.4925 19.8 22.4725 19.89 22.4525 19.97C22.4325 20.06 22.4025 20.15 22.3725 20.23C22.3325 20.31 22.3025 20.39 22.2525 20.47C22.2125 20.55 22.1625 20.63 22.1025 20.7C22.0525 20.77 21.9925 20.84 21.9325 20.9L7.41253 35.41C7.06253 35.77 6.79253 36.17 6.61253 36.62C6.43253 37.06 6.34253 37.52 6.34253 38C6.34253 38.48 6.43253 38.94 6.61253 39.38C6.79253 39.83 7.06253 40.23 7.41253 40.59C7.76253 40.94 8.17253 41.21 8.62253 41.39C9.06253 41.57 9.52253 41.66 10.0025 41.66C10.4825 41.66 10.9325 41.57 11.3725 41.39C11.8325 41.21 12.2325 40.94 12.5825 40.59L27.1025 26.07C27.1625 26.01 27.2325 25.95 27.3025 25.89C27.3725 25.84 27.4525 25.79 27.5325 25.75C27.6025 25.7 27.6825 25.66 27.7725 25.63C27.8525 25.6 27.9425 25.57 28.0225 25.55C28.1125 25.52 28.2025 25.51 28.2925 25.5C28.3825 25.49 28.4725 25.48 28.5625 25.49C28.6525 25.49 28.7425 25.5 28.8325 25.51C28.9225 25.53 29.0025 25.55 29.0925 25.57C30.0325 25.86 31.0025 26 32.0025 26C33.3625 26 34.6525 25.74 35.8925 25.22C37.0925 24.71 38.1525 24 39.0725 23.07C39.9925 22.15 40.7125 21.09 41.2125 19.89C41.7425 18.66 42.0025 17.36 42.0025 16C42.0025 15.42 41.9525 14.86 41.8625 14.31L36.1625 20C35.7825 20.39 35.3425 20.68 34.8425 20.88C34.3525 21.08 33.8525 21.18 33.3325 21.18C32.8125 21.18 32.3125 21.08 31.8325 20.88C31.3325 20.68 30.8925 20.39 30.5025 20L27.9925 17.49C27.6125 17.11 27.3225 16.67 27.1125 16.17C26.9225 15.69 26.8225 15.19 26.8225 14.67C26.8225 14.14 26.9225 13.64 27.1125 13.16C27.3225 12.66 27.6125 12.22 27.9925 11.84L33.6925 6.14C33.1425 6.05 32.5725 6 32.0025 6C30.6425 6 29.3425 6.26 28.1025 6.78C26.9125 7.29 25.8525 8 24.9325 8.93C24.0025 9.85 23.2925 10.91 22.7825 12.11C22.2625 13.34 22.0025 14.64 22.0025 16C22.0025 17 22.1425 17.96 22.4325 18.91C22.4525 18.99 22.4725 19.08 22.4925 19.17Z" fill-rule="evenodd"  fill="#000000" >
</path>
</svg>
