<svg xmlns="http://www.w3.org/2000/svg" xmlns:xlink="http://www.w3.org/1999/xlink" width="48" height="48" viewBox="0 0 48 48" fill="none">
<path d="M9.15 9.15C7.21 11.09 5.71 13.31 4.65 15.83C3.55 18.43 3 21.15 3 24C3 26.85 3.55 29.57 4.65 32.17C5.71 34.69 7.21 36.91 9.15 38.85C11.09 40.79 13.31 42.29 15.83 43.35C18.43 44.45 21.15 45 24 45C26.85 45 29.57 44.45 32.17 43.35C34.69 42.29 36.91 40.79 38.85 38.85C40.79 36.91 42.29 34.69 43.35 32.17C44.45 29.57 45 26.85 45 24C45 21.15 44.45 18.43 43.35 15.83C42.29 13.31 40.79 11.09 38.85 9.15C36.91 7.21 34.69 5.71 32.17 4.65C29.57 3.55 26.85 3 24 3C21.15 3 18.43 3.55 15.83 4.65C13.31 5.71 11.09 7.21 9.15 9.15ZM7 24C7 26.31 7.45 28.51 8.34 30.61C9.2 32.65 10.41 34.45 11.98 36.02C13.55 37.59 15.35 38.8 17.39 39.66C19.49 40.55 21.69 41 24 41C26.31 41 28.51 40.55 30.61 39.66C32.65 38.8 34.45 37.59 36.02 36.02C37.59 34.45 38.8 32.65 39.66 30.61C40.55 28.51 41 26.31 41 24C41 21.69 40.55 19.49 39.66 17.39C38.8 15.35 37.59 13.55 36.02 11.98C34.45 10.41 32.65 9.2 30.61 8.34C28.51 7.45 26.31 7 24 7C21.69 7 19.49 7.45 17.39 8.34C15.35 9.2 13.55 10.41 11.98 11.98C10.41 13.55 9.2 15.35 8.34 17.39C7.45 19.49 7 21.69 7 24ZM18.55 11.1C16.87 11.81 15.39 12.81 14.1 14.1C12.81 15.39 11.81 16.87 11.1 18.55C10.37 20.28 10 22.1 10 24C10 25.9 10.37 27.72 11.1 29.45C11.81 31.13 12.81 32.61 14.1 33.9C15.39 35.19 16.87 36.19 18.55 36.9C20.28 37.63 22.1 38 24 38C25.9 38 27.72 37.63 29.45 36.9C31.13 36.19 32.61 35.19 33.9 33.9C35.19 32.61 36.19 31.13 36.9 29.45C37.63 27.72 38 25.9 38 24C38 22.1 37.63 20.28 36.9 18.55C36.19 16.87 35.19 15.39 33.9 14.1C32.61 12.81 31.13 11.81 29.45 11.1C27.72 10.37 25.9 10 24 10C22.1 10 20.28 10.37 18.55 11.1Z" fill-rule="evenodd"  fill="#000000" >
</path>
</svg>
