<svg xmlns="http://www.w3.org/2000/svg" xmlns:xlink="http://www.w3.org/1999/xlink" width="48" height="48" viewBox="0 0 48 48" fill="none">
<path d="M24.1739 39.8095C24.2039 42.3895 21.1439 43.7895 19.1939 42.0695L3.23392 28.2695C0.963924 26.3195 0.913925 22.8295 3.11393 20.8095L19.1339 6.06952C21.0539 4.26952 24.2039 5.65952 24.1739 8.29952L24.1739 15.4395C29.0839 16.0095 33.6739 18.6695 37.9339 23.4395C40.9339 26.7795 43.5339 30.8495 45.7439 35.6495L45.7739 35.7095L45.7939 35.7695C46.2939 37.0595 45.9739 38.0995 44.8339 38.8795C43.7339 39.6395 42.6839 39.5895 41.6639 38.7495C36.8339 35.0495 30.9939 33.0395 24.1739 32.7195L24.1739 39.8095ZM5.84393 25.2495C5.39392 24.8495 5.38393 24.1595 5.82393 23.7495L20.1739 10.5495L20.1739 19.3295L22.1739 19.3295C28.8939 19.3295 34.7739 23.8195 39.8239 32.8095C34.7139 30.0495 28.8239 28.6695 22.1739 28.6695L20.1739 28.6695L20.1739 37.6295L5.84393 25.2495ZM20.1739 39.8095C20.1739 39.7995 20.1739 39.7895 20.1739 39.7895L20.1739 39.8095ZM20.1739 8.25952L20.1739 8.27952C20.1739 8.26952 20.1739 8.26952 20.1739 8.25952ZM44.1539 35.6095L44.1339 35.5995C44.1339 35.5995 44.1239 35.5895 44.1239 35.5895C44.1339 35.5995 44.1439 35.6095 44.1539 35.6095Z" fill-rule="evenodd"  fill="#000000" >
</path>
</svg>
