<svg xmlns="http://www.w3.org/2000/svg" xmlns:xlink="http://www.w3.org/1999/xlink" width="48" height="48" viewBox="0 0 48 48" fill="none">
<path d="M39.11 4.63C38.12 4.21 37.08 4 36 4L30 4C28.9 4 28 4.9 28 6C28 7.1 28.9 8 30 8L36 8C36.54 8 37.06 8.1 37.55 8.31C38.03 8.52 38.46 8.8 38.83 9.17C39.2 9.54 39.48 9.97 39.69 10.45C39.9 10.94 40 11.46 40 12L40 17C40 18.1 40.9 19 42 19C43.1 19 44 18.1 44 17L44 12C44 10.92 43.79 9.88 43.37 8.89C42.96 7.93 42.39 7.08 41.66 6.34C40.92 5.61 40.07 5.04 39.11 4.63ZM4.06 22.24C4 22.27 3.94 22.3 3.89 22.34C3.83 22.37 3.78 22.41 3.73 22.45C3.68 22.5 3.63 22.54 3.59 22.59C3.54 22.63 3.5 22.68 3.45 22.73C3.41 22.78 3.37 22.83 3.34 22.89C3.3 22.94 3.27 23 3.24 23.06C3.21 23.11 3.18 23.17 3.15 23.23C3.13 23.3 3.11 23.36 3.09 23.42C3.07 23.48 3.05 23.55 3.04 23.61C3.03 23.67 3.02 23.74 3.01 23.8C3 23.87 3 23.93 3 24C3 24.07 3 24.13 3.01 24.2C3.02 24.26 3.03 24.33 3.04 24.39C3.05 24.45 3.07 24.52 3.09 24.58C3.11 24.64 3.13 24.7 3.15 24.77C3.18 24.83 3.21 24.88 3.24 24.94C3.27 25 3.3 25.06 3.34 25.11C3.37 25.17 3.41 25.22 3.45 25.27C3.5 25.32 3.54 25.37 3.59 25.41C3.63 25.46 3.68 25.5 3.73 25.55C3.78 25.59 3.83 25.63 3.89 25.66C3.94 25.7 4 25.73 4.06 25.76C4.11 25.79 4.17 25.82 4.23 25.85C4.3 25.87 4.36 25.89 4.42 25.91C4.48 25.93 4.55 25.95 4.61 25.96C4.67 25.97 4.74 25.98 4.8 25.99C4.87 26 4.93 26 5 26L43 26C43.07 26 43.13 26 43.2 25.99C43.26 25.99 43.33 25.98 43.39 25.96C43.45 25.95 43.52 25.93 43.58 25.92C43.64 25.9 43.7 25.87 43.77 25.85C43.83 25.82 43.88 25.8 43.94 25.77C44 25.73 44.06 25.7 44.11 25.66C44.17 25.63 44.22 25.59 44.27 25.55C44.32 25.51 44.37 25.46 44.41 25.42C44.46 25.37 44.5 25.32 44.55 25.27C44.59 25.22 44.63 25.17 44.66 25.11C44.7 25.06 44.73 25 44.76 24.94C44.79 24.89 44.82 24.83 44.85 24.77C44.87 24.71 44.89 24.64 44.91 24.58C44.93 24.52 44.95 24.46 44.96 24.39C44.97 24.33 44.98 24.26 44.99 24.2C45 24.13 45 24.07 45 24C45 23.87 44.99 23.74 44.96 23.61C44.94 23.48 44.9 23.36 44.85 23.24C44.8 23.11 44.74 23 44.66 22.89C44.59 22.78 44.51 22.68 44.41 22.59C44.32 22.49 44.22 22.41 44.11 22.34C44 22.27 43.89 22.2 43.77 22.15C43.64 22.1 43.52 22.07 43.39 22.04C43.26 22.01 43.13 22 43 22L5 22C4.93 22 4.87 22 4.8 22.01C4.74 22.02 4.67 22.03 4.61 22.04C4.55 22.05 4.48 22.07 4.42 22.09C4.36 22.11 4.3 22.13 4.23 22.15C4.17 22.18 4.11 22.21 4.06 22.24ZM42 29C40.9 29 40 29.9 40 31L40 36C40 36.54 39.9 37.06 39.69 37.55C39.48 38.03 39.2 38.46 38.83 38.83C38.46 39.2 38.03 39.48 37.55 39.69C37.06 39.9 36.54 40 36 40L30 40C28.9 40 28 40.9 28 42C28 43.1 28.9 44 30 44L36 44C37.08 44 38.12 43.79 39.11 43.37C40.07 42.96 40.92 42.39 41.66 41.66C42.39 40.92 42.96 40.07 43.37 39.11C43.79 38.12 44 37.08 44 36L44 31C44 29.9 43.1 29 42 29ZM8.89 43.37C9.88 43.79 10.92 44 12 44L18 44C19.1 44 20 43.1 20 42C20 40.9 19.1 40 18 40L12 40C11.46 40 10.94 39.9 10.45 39.69C9.97 39.48 9.54 39.2 9.17 38.83C8.8 38.46 8.52 38.03 8.31 37.55C8.1 37.06 8 36.54 8 36L8 31C8 29.9 7.1 29 6 29C4.9 29 4 29.9 4 31L4 36C4 37.08 4.21 38.12 4.63 39.11C5.04 40.07 5.61 40.92 6.34 41.66C7.08 42.39 7.93 42.96 8.89 43.37ZM8 12C8 11.46 8.1 10.94 8.31 10.45C8.52 9.97 8.8 9.54 9.17 9.17C9.54 8.8 9.97 8.52 10.45 8.31C10.94 8.1 11.46 8 12 8L18 8C19.1 8 20 7.1 20 6C20 4.9 19.1 4 18 4L12 4C10.92 4 9.88 4.21 8.89 4.63C7.93 5.04 7.08 5.61 6.34 6.34C5.61 7.08 5.04 7.93 4.63 8.89C4.21 9.88 4 10.92 4 12L4 17C4 18.1 4.9 19 6 19C7.1 19 8 18.1 8 17L8 12Z" fill-rule="evenodd"  fill="#000000" >
</path>
</svg>
