<svg xmlns="http://www.w3.org/2000/svg" xmlns:xlink="http://www.w3.org/1999/xlink" width="48" height="48" viewBox="0 0 48 48" fill="none">
<path d="M7 17L7 11C7 8.79 8.79 7 11 7L17 7C18.1 7 19 6.1 19 5C19 3.9 18.1 3 17 3L11 3C6.58 3 3 6.58 3 11L3 17C3 18.1 3.9 19 5 19C6.1 19 7 18.1 7 17ZM45 17L45 11C45 6.58 41.42 3 37 3L31 3C29.9 3 29 3.9 29 5C29 6.1 29.9 7 31 7L37 7C39.21 7 41 8.79 41 11L41 17C41 18.1 41.9 19 43 19C44.1 19 45 18.1 45 17ZM13 14C13 14.52 13.2 15 13.54 15.36L13.54 15.36L21.26 23.64L18.96 26.12C18.31 25.87 17.61 25.74 16.88 25.74C13.63 25.74 11 28.37 11 31.62C11 34.87 13.63 37.5 16.88 37.5C20.13 37.5 22.76 34.87 22.76 31.62C22.76 30.57 22.48 29.58 22 28.72L24 26.57L26 28.72C25.52 29.58 25.24 30.56 25.24 31.62C25.24 34.87 27.87 37.5 31.12 37.5C34.37 37.5 37 34.87 37 31.62C37 28.37 34.37 25.74 31.12 25.74C30.39 25.74 29.69 25.87 29.04 26.12L26.74 23.64L34.46 15.36L34.46 15.36C34.79 15.01 35 14.53 35 14C35 12.9 34.1 12 33 12C32.43 12 31.91 12.25 31.54 12.64L31.54 12.64L24 20.71L16.46 12.63L16.46 12.64C16.09 12.25 15.57 12 15 12C13.9 12 13 12.9 13 14ZM3 31L3 37C3 41.42 6.58 45 11 45L17 45C18.1 45 19 44.1 19 43C19 41.9 18.1 41 17 41L11 41C8.79 41 7 39.21 7 37L7 31C7 29.9 6.1 29 5 29C3.9 29 3 29.9 3 31ZM43 29C41.9 29 41 29.9 41 31L41 37C41 39.21 39.21 41 37 41L31 41C29.9 41 29 41.9 29 43C29 44.1 29.9 45 31 45L37 45C41.42 45 45 41.42 45 37L45 31C45 29.9 44.1 29 43 29ZM18.76 31.62C18.76 30.58 17.92 29.74 16.88 29.74C15.84 29.74 15 30.58 15 31.62C15 32.66 15.84 33.5 16.88 33.5C17.92 33.5 18.76 32.66 18.76 31.62ZM31.12 33.5C32.16 33.5 33 32.66 33 31.62C33 30.58 32.16 29.74 31.12 29.74C30.08 29.74 29.24 30.58 29.24 31.62C29.24 32.66 30.08 33.5 31.12 33.5Z" fill-rule="evenodd"  fill="#000000" >
</path>
</svg>
