<svg xmlns="http://www.w3.org/2000/svg" xmlns:xlink="http://www.w3.org/1999/xlink" width="48" height="48" viewBox="0 0 48 48" fill="none">
<path d="M10.5049 24.72L4.12486 35.36C1.06486 40.46 6.47486 46.42 11.8549 43.87L40.7549 30.15C45.3249 27.98 45.3149 21.47 40.7349 19.3L11.8449 5.61C6.48486 3.07 1.08486 9.02 4.13486 14.11L10.5049 24.72ZM13.9349 22.66C13.9449 22.68 13.9649 22.7 13.9749 22.72L25.0249 22.72C26.1149 22.73 26.9949 23.65 26.9949 24.74C26.9949 25.84 26.1249 26.72 25.0249 26.72L24.6949 26.72L24.6949 26.72L13.9749 26.72C13.9549 26.74 13.9449 26.76 13.9349 26.79L7.55486 37.42C6.53486 39.13 8.33486 41.11 10.1349 40.26L39.0349 26.54C40.5549 25.81 40.5549 23.64 39.0249 22.92L10.1349 9.22C8.34486 8.37 6.55486 10.36 7.56486 12.05L7.56486 12.06L13.9349 22.66Z" fill-rule="evenodd"  fill="#000000" >
</path>
</svg>
