<svg xmlns="http://www.w3.org/2000/svg" xmlns:xlink="http://www.w3.org/1999/xlink" width="48" height="48" viewBox="0 0 48 48" fill="none">
<path d="M9.21999 32.5375C9.57999 33.1575 10.06 33.6375 10.68 33.9975L22 40.5375C22.62 40.8975 23.29 41.0675 24 41.0675C24.71 41.0675 25.38 40.8975 26 40.5375L37.32 33.9975C37.94 33.6375 38.42 33.1575 38.78 32.5375C39.14 31.9175 39.32 31.2475 39.32 30.5375L39.32 17.4575C39.32 16.7475 39.14 16.0875 38.78 15.4675C38.42 14.8475 37.94 14.3575 37.32 13.9975L26 7.45749C25.38 7.10749 24.71 6.92749 24 6.92749C23.29 6.92749 22.62 7.10749 22 7.45749L22 7.46749L10.68 13.9975C10.06 14.3575 9.57999 14.8475 9.21999 15.4675C8.85999 16.0875 8.67999 16.7475 8.67999 17.4575L8.67999 30.5375C8.67999 31.2475 8.85999 31.9175 9.21999 32.5375ZM24 28.9975C24.68 28.9975 25.33 28.8675 25.95 28.6075C26.55 28.3575 27.08 27.9975 27.54 27.5375C28 27.0775 28.36 26.5475 28.61 25.9475C28.87 25.3275 29 24.6775 29 23.9975C29 23.3175 28.87 22.6675 28.61 22.0475C28.36 21.4475 28 20.9175 27.54 20.4575C27.08 19.9975 26.55 19.6375 25.95 19.3875C25.33 19.1275 24.68 18.9975 24 18.9975C23.32 18.9975 22.67 19.1275 22.05 19.3875C21.45 19.6375 20.92 19.9975 20.46 20.4575C20 20.9175 19.64 21.4475 19.39 22.0475C19.13 22.6675 19 23.3175 19 23.9975C19 24.6775 19.13 25.3275 19.39 25.9475C19.64 26.5475 20 27.0775 20.46 27.5375C20.92 27.9975 21.45 28.3575 22.05 28.6075C22.67 28.8675 23.32 28.9975 24 28.9975ZM24 45.0775C25.43 45.0775 26.76 44.7175 28 44.0075L39.32 37.4575C40.56 36.7475 41.53 35.7775 42.24 34.5375C42.96 33.2975 43.32 31.9675 43.32 30.5375L43.32 17.4575C43.32 16.0375 42.96 14.6975 42.24 13.4575C41.53 12.2275 40.56 11.2575 39.32 10.5375L28 3.99749C26.76 3.28749 25.43 2.92749 24 2.92749C22.57 2.92749 21.24 3.28749 20 3.99749L8.67999 10.5375C7.43999 11.2475 6.46999 12.2275 5.75999 13.4575C5.03999 14.6975 4.67999 16.0375 4.67999 17.4575L4.67999 30.5375C4.67999 31.9675 5.03999 33.2975 5.75999 34.5375C6.46999 35.7775 7.43999 36.7475 8.67999 37.4575L20 43.9975C21.24 44.7175 22.57 45.0775 24 45.0775ZM30.37 17.6275C29.54 16.7975 28.58 16.1575 27.5 15.7075C26.39 15.2375 25.22 14.9975 24 14.9975C22.78 14.9975 21.61 15.2375 20.5 15.7075C19.42 16.1575 18.46 16.7975 17.63 17.6275C16.8 18.4575 16.16 19.4175 15.71 20.4975C15.24 21.6075 15 22.7775 15 23.9975C15 25.2175 15.24 26.3875 15.71 27.4975C16.16 28.5775 16.8 29.5375 17.63 30.3675C18.46 31.1975 19.42 31.8375 20.5 32.2875C21.61 32.7575 22.78 32.9975 24 32.9975C25.22 32.9975 26.39 32.7575 27.5 32.2875C28.58 31.8375 29.54 31.1975 30.37 30.3675C31.2 29.5375 31.84 28.5775 32.29 27.4975C32.76 26.3875 33 25.2175 33 23.9975C33 22.7775 32.76 21.6075 32.29 20.4975C31.84 19.4175 31.2 18.4575 30.37 17.6275Z" fill-rule="evenodd"  fill="#000000" >
</path>
</svg>
