<svg xmlns="http://www.w3.org/2000/svg" xmlns:xlink="http://www.w3.org/1999/xlink" width="48" height="48" viewBox="0 0 48 48" fill="none">
<path d="M8.36 8L3.5 8L3.5 7.93631C2.63988 7.71284 2 6.92752 2 6C2 5.07248 2.63988 4.28716 3.5 4.06369L3.5 4L8.36 4C10.26 4 11.9 5.35 12.28 7.22L12.64 9L39.7 9C43.68 9 46.56 12.82 45.46 16.65L42.16 28.2C41.18 31.63 38.04 34 34.47 34L20.35 34C16.57 34 13.31 31.37 12.52 27.68L9.04 11.42L9.04 11.39L8.36 8ZM38.32 27.1C37.82 28.82 36.26 30 34.47 30L20.35 30C18.46 30 16.83 28.69 16.44 26.84L13.47 13L39.7 13C41.03 13 41.98 14.28 41.62 15.55L38.32 27.1ZM9 40C9 37.24 11.24 35 14 35C16.76 35 19 37.24 19 40C19 42.76 16.76 45 14 45C11.24 45 9 42.76 9 40ZM36 40C36 37.24 38.24 35 41 35C43.76 35 46 37.24 46 40C46 42.76 43.76 45 41 45C38.24 45 36 42.76 36 40ZM15 40C15 40.55 14.55 41 14 41C13.45 41 13 40.55 13 40C13 39.45 13.45 39 14 39C14.55 39 15 39.45 15 40ZM42 40C42 40.55 41.55 41 41 41C40.45 41 40 40.55 40 40C40 39.45 40.45 39 41 39C41.55 39 42 39.45 42 40Z" fill-rule="evenodd"  fill="#000000" >
</path>
</svg>
