<svg xmlns="http://www.w3.org/2000/svg" xmlns:xlink="http://www.w3.org/1999/xlink" width="48" height="48" viewBox="0 0 48 48" fill="none">
<path d="M26.9037 20.0738C26.9237 20.0138 26.9437 19.9438 26.9537 19.8838C26.9637 19.8238 26.9737 19.7538 26.9837 19.6938C26.9937 19.6238 26.9937 19.5638 26.9937 19.4938C26.9937 19.4238 26.9937 19.3638 26.9837 19.2938C26.9737 19.2338 26.9637 19.1638 26.9537 19.1038C26.9437 19.0438 26.9237 18.9738 26.9037 18.9138C26.8837 18.8538 26.8637 18.7938 26.8437 18.7238C26.8137 18.6638 26.7837 18.6038 26.7537 18.5538C26.7237 18.4938 26.6937 18.4338 26.6537 18.3838C26.6237 18.3238 26.5837 18.2738 26.5437 18.2238C26.4937 18.1738 26.4537 18.1238 26.4037 18.0838C26.3637 18.0338 26.3137 17.9938 26.2637 17.9438C26.2137 17.9038 26.1637 17.8638 26.1037 17.8338C26.0537 17.7938 25.9937 17.7638 25.9337 17.7338C25.8837 17.7038 25.8237 17.6738 25.7637 17.6438C25.6937 17.6238 25.6337 17.6038 25.5737 17.5838C25.5137 17.5638 25.4437 17.5438 25.3837 17.5338C25.3237 17.5238 25.2537 17.5138 25.1937 17.5038C25.1237 17.4938 25.0637 17.4938 24.9937 17.4938L13.9937 17.4938C13.9237 17.4938 13.8637 17.4938 13.7937 17.5038C13.7337 17.5138 13.6637 17.5238 13.6037 17.5338C13.5437 17.5438 13.4737 17.5638 13.4137 17.5838C13.3537 17.6038 13.2937 17.6238 13.2237 17.6438C13.1637 17.6738 13.1037 17.7038 13.0537 17.7338C12.9937 17.7638 12.9337 17.7938 12.8837 17.8338C12.8237 17.8638 12.7737 17.9038 12.7237 17.9438C12.6737 17.9938 12.6237 18.0338 12.5837 18.0838C12.5337 18.1238 12.4937 18.1738 12.4437 18.2238C12.4037 18.2738 12.3637 18.3238 12.3337 18.3838C12.2937 18.4338 12.2637 18.4938 12.2337 18.5538C12.2037 18.6038 12.1737 18.6638 12.1437 18.7238C12.1237 18.7938 12.1037 18.8538 12.0837 18.9138C12.0637 18.9738 12.0437 19.0438 12.0337 19.1038C12.0237 19.1638 12.0137 19.2338 12.0037 19.2938C11.9937 19.3638 11.9937 19.4238 11.9937 19.4938C11.9937 19.5638 11.9937 19.6238 12.0037 19.6938C12.0137 19.7538 12.0237 19.8238 12.0337 19.8838C12.0437 19.9438 12.0637 20.0138 12.0837 20.0738C12.1037 20.1338 12.1237 20.1938 12.1437 20.2638C12.1737 20.3238 12.2037 20.3838 12.2337 20.4338C12.2637 20.4938 12.2937 20.5538 12.3337 20.6038C12.3637 20.6638 12.4037 20.7138 12.4437 20.7638C12.4937 20.8138 12.5337 20.8638 12.5837 20.9038C12.6237 20.9538 12.6737 20.9938 12.7237 21.0438C12.7737 21.0838 12.8237 21.1238 12.8837 21.1538C12.9337 21.1938 12.9937 21.2238 13.0537 21.2538C13.1037 21.2838 13.1637 21.3138 13.2237 21.3438C13.2937 21.3638 13.3537 21.3838 13.4137 21.4038C13.4737 21.4238 13.5437 21.4438 13.6037 21.4538C13.6637 21.4638 13.7337 21.4738 13.7937 21.4838C13.8637 21.4938 13.9237 21.4938 13.9937 21.4938L24.9937 21.4938C25.0637 21.4938 25.1237 21.4938 25.1937 21.4838C25.2537 21.4738 25.3237 21.4638 25.3837 21.4538C25.4437 21.4438 25.5137 21.4238 25.5737 21.4038C25.6337 21.3838 25.6937 21.3638 25.7637 21.3438C25.8237 21.3138 25.8837 21.2838 25.9337 21.2538C25.9937 21.2238 26.0537 21.1938 26.1037 21.1538C26.1637 21.1238 26.2137 21.0838 26.2637 21.0438C26.3137 20.9938 26.3637 20.9538 26.4037 20.9038C26.4537 20.8638 26.4937 20.8138 26.5437 20.7638C26.5837 20.7138 26.6237 20.6638 26.6537 20.6038C26.6937 20.5538 26.7237 20.4938 26.7537 20.4338C26.7837 20.3838 26.8137 20.3238 26.8437 20.2638C26.8637 20.1938 26.8837 20.1338 26.9037 20.0738ZM30.1037 8.88377C28.7137 7.50377 27.1237 6.43377 25.3337 5.67377C23.4737 4.88377 21.5237 4.49377 19.4937 4.49377C17.4637 4.49377 15.5137 4.88377 13.6537 5.67377C11.8637 6.43377 10.2737 7.50377 8.88365 8.88377C7.50365 10.2738 6.43365 11.8638 5.67365 13.6538C4.88365 15.5138 4.49365 17.4638 4.49365 19.4938C4.49365 21.5238 4.88365 23.4738 5.67365 25.3338C6.43365 27.1238 7.50365 28.7138 8.88365 30.1038C10.2737 31.4838 11.8637 32.5538 13.6537 33.3138C15.5137 34.1038 17.4637 34.4938 19.4937 34.4938C21.5237 34.4938 23.4737 34.1038 25.3337 33.3138C26.5037 32.8138 27.5937 32.1838 28.5937 31.4138L40.0937 42.9138L42.9137 40.0938L31.4137 28.5938C32.1837 27.5938 32.8137 26.5038 33.3137 25.3338C34.1037 23.4738 34.4937 21.5238 34.4937 19.4938C34.4937 17.4638 34.1037 15.5138 33.3137 13.6538C32.5536 11.8638 31.4837 10.2738 30.1037 8.88377ZM43.1737 42.6138C43.2437 42.5038 43.3037 42.3938 43.3537 42.2738C43.4037 42.1538 43.4437 42.0238 43.4637 41.8938C43.4937 41.7638 43.5037 41.6338 43.5037 41.5038C43.5037 41.3738 43.4937 41.2438 43.4637 41.1138C43.4437 40.9838 43.4037 40.8638 43.3537 40.7438C43.3037 40.6238 43.2437 40.5038 43.1737 40.3938C43.0937 40.2838 43.0137 40.1838 42.9237 40.0938L40.0937 42.9238C40.1837 43.0138 40.2837 43.0938 40.3937 43.1738C40.5037 43.2438 40.6237 43.3038 40.7437 43.3538C40.8637 43.4038 40.9837 43.4438 41.1137 43.4638C41.2437 43.4938 41.3737 43.5038 41.5037 43.5038C41.6337 43.5038 41.7637 43.4938 41.8937 43.4638C42.0237 43.4438 42.1537 43.4038 42.2737 43.3538C42.3937 43.3038 42.5037 43.2438 42.6137 43.1738C42.7237 43.0938 42.8237 43.0138 42.9237 42.9238C43.0137 42.8238 43.0937 42.7238 43.1737 42.6138ZM23.7737 9.35378C22.4137 8.78377 20.9837 8.49377 19.4937 8.49377C18.0037 8.49377 16.5737 8.78377 15.2137 9.35378C13.8937 9.91377 12.7337 10.7038 11.7137 11.7138C10.7037 12.7338 9.91365 13.8938 9.35365 15.2138C8.78365 16.5738 8.49365 18.0038 8.49365 19.4938C8.49365 20.9838 8.78365 22.4138 9.35365 23.7738C9.91365 25.0938 10.7037 26.2538 11.7137 27.2738C12.7337 28.2838 13.8937 29.0738 15.2137 29.6338C16.5737 30.2038 18.0037 30.4938 19.4937 30.4938C20.9837 30.4938 22.4137 30.2038 23.7737 29.6338C25.0937 29.0738 26.2537 28.2838 27.2737 27.2738C28.2837 26.2538 29.0737 25.0938 29.6337 23.7738C30.2037 22.4138 30.4937 20.9838 30.4937 19.4938C30.4937 18.0038 30.2037 16.5738 29.6337 15.2138C29.0737 13.8938 28.2837 12.7338 27.2737 11.7138C26.2537 10.7038 25.0937 9.91377 23.7737 9.35378Z" fill-rule="evenodd"  fill="#000000" >
</path>
</svg>
