<svg xmlns="http://www.w3.org/2000/svg" xmlns:xlink="http://www.w3.org/1999/xlink" width="48" height="48" viewBox="0 0 48 48" fill="none">
<path d="M18.66 41.66C19.39 40.92 19.96 40.07 20.37 39.11C20.79 38.12 21 37.08 21 36L21 12C21 10.92 20.79 9.88 20.37 8.89C19.96 7.93 19.39 7.08 18.66 6.34C17.92 5.61 17.07 5.04 16.11 4.63C15.12 4.21 14.08 4 13 4L12 4C10.92 4 9.88 4.21 8.89 4.63C7.93 5.04 7.08 5.61 6.34 6.34C5.61 7.08 5.04 7.93 4.63 8.89C4.21 9.88 4 10.92 4 12L4 36C4 37.08 4.21 38.12 4.63 39.11C5.04 40.07 5.61 40.92 6.34 41.66C7.08 42.39 7.93 42.96 8.89 43.37C9.88 43.79 10.92 44 12 44L13 44C14.08 44 15.12 43.79 16.11 43.37C17.07 42.96 17.92 42.39 18.66 41.66ZM8.31 37.55C8.52 38.03 8.8 38.46 9.17 38.83C9.54 39.2 9.97 39.48 10.45 39.69C10.94 39.9 11.46 40 12 40L13 40C13.54 40 14.06 39.9 14.55 39.69C15.03 39.48 15.46 39.2 15.83 38.83C16.2 38.46 16.48 38.03 16.69 37.55C16.9 37.06 17 36.54 17 36L17 12C17 11.46 16.9 10.94 16.69 10.45C16.48 9.97 16.2 9.54 15.83 9.17C15.46 8.8 15.03 8.52 14.55 8.31C14.06 8.1 13.54 8 13 8L12 8C11.46 8 10.94 8.1 10.45 8.31C9.97 8.52 9.54 8.8 9.17 9.17C8.8 9.54 8.52 9.97 8.31 10.45C8.1 10.94 8 11.46 8 12L8 36C8 36.54 8.1 37.06 8.31 37.55ZM31 36C31 36.54 31.1 37.06 31.31 37.55C31.52 38.03 31.8 38.46 32.17 38.83C32.54 39.2 32.97 39.48 33.45 39.69C33.94 39.9 34.46 40 35 40L36 40C36.54 40 37.06 39.9 37.55 39.69C38.03 39.48 38.46 39.2 38.83 38.83C39.2 38.46 39.48 38.03 39.69 37.55C39.9 37.06 40 36.54 40 36L40 12C40 11.46 39.9 10.94 39.69 10.45C39.48 9.97 39.2 9.54 38.83 9.17C38.46 8.8 38.03 8.52 37.55 8.31C37.06 8.1 36.54 8 36 8L35 8C34.46 8 33.94 8.1 33.45 8.31C32.97 8.52 32.54 8.8 32.17 9.17C31.8 9.54 31.52 9.97 31.31 10.45C31.1 10.94 31 11.46 31 12L31 36ZM39.11 43.37C40.07 42.96 40.92 42.39 41.66 41.66C42.39 40.92 42.96 40.07 43.37 39.11C43.79 38.12 44 37.08 44 36L44 12C44 10.92 43.79 9.88 43.37 8.89C42.96 7.93 42.39 7.08 41.66 6.34C40.92 5.61 40.07 5.04 39.11 4.63C38.12 4.21 37.08 4 36 4L35 4C33.92 4 32.88 4.21 31.89 4.63C30.93 5.04 30.08 5.61 29.34 6.34C28.61 7.08 28.04 7.93 27.63 8.89C27.21 9.88 27 10.92 27 12L27 36C27 37.08 27.21 38.12 27.63 39.11C28.04 40.07 28.61 40.92 29.34 41.66C30.08 42.39 30.93 42.96 31.89 43.37C32.88 43.79 33.92 44 35 44L36 44C37.08 44 38.12 43.79 39.11 43.37Z" fill-rule="evenodd"  fill="#000000" >
</path>
</svg>
