<svg xmlns="http://www.w3.org/2000/svg" xmlns:xlink="http://www.w3.org/1999/xlink" width="48" height="48" viewBox="0 0 48 48" fill="none">
<path d="M44 9C44 5.69 41.31 3 38 3L10 3C6.69 3 4 5.69 4 9L4 21C4 25.42 7.58 29 12 29L17 29L17 41C17 43.21 18.79 45 21 45L27 45C29.21 45 31 43.21 31 41L31 29L36 29C40.42 29 44 25.42 44 21L44 9ZM21 29L21 41L27 41L27 29L21 29ZM36 25C38.21 25 40 23.21 40 21L40 9C40 7.9 39.1 7 38 7L35.87 7L35.87 16C35.87 17.1 34.97 18 33.87 18C32.77 18 31.87 17.1 31.87 16L31.87 7L10 7C8.9 7 8 7.9 8 9L8 21C8 23.21 9.79 25 12 25L31 25L36 25Z" fill-rule="evenodd"  fill="#000000" >
</path>
</svg>
