<svg xmlns="http://www.w3.org/2000/svg" xmlns:xlink="http://www.w3.org/1999/xlink" width="48" height="48" viewBox="0 0 48 48" fill="none">
<path   fill-rule="evenodd"  fill="#000000"  d="M11.94 7.02C10.38 7.68 9 8.61 7.81 9.81C6.61 11 5.68 12.38 5.02 13.94C4.34 15.55 4 17.24 4 19C4 20.76 4.34 22.45 5.02 24.06C5.68 25.62 6.61 27 7.81 28.19C9 29.39 10.38 30.32 11.94 30.98C13.55 31.66 15.24 32 17 32C18.76 32 20.45 31.66 22.06 30.98C23.62 30.32 25 29.39 26.19 28.19C27.39 27 28.32 25.62 28.98 24.06C29.66 22.45 30 20.76 30 19C30 17.24 29.66 15.55 28.98 13.94C28.32 12.38 27.39 11 26.19 9.81C25 8.61 23.62 7.68 22.06 7.02C20.45 6.34 18.76 6 17 6C15.24 6 13.55 6.34 11.94 7.02ZM8.71 15.49C8.24 16.61 8 17.78 8 19C8 20.22 8.24 21.39 8.71 22.51C9.16 23.58 9.8 24.54 10.63 25.37C11.46 26.2 12.42 26.84 13.49 27.29C14.61 27.76 15.78 28 17 28C18.22 28 19.39 27.76 20.51 27.29C21.58 26.84 22.54 26.2 23.37 25.37C24.2 24.54 24.84 23.58 25.29 22.51C25.76 21.39 26 20.22 26 19C26 17.78 25.76 16.61 25.29 15.49C24.84 14.42 24.2 13.46 23.37 12.63C22.54 11.8 21.58 11.16 20.51 10.71C19.39 10.24 18.22 10 17 10C15.78 10 14.61 10.24 13.49 10.71C12.42 11.16 11.46 11.8 10.63 12.63C9.8 13.46 9.16 14.42 8.71 15.49ZM18.96 13.61C18.95 13.55 18.93 13.48 18.91 13.42C18.9 13.36 18.87 13.3 18.85 13.23C18.82 13.17 18.8 13.11 18.76 13.06C18.73 13 18.7 12.94 18.66 12.89C18.63 12.83 18.59 12.78 18.55 12.73C18.5 12.68 18.46 12.63 18.41 12.59C18.37 12.54 18.32 12.5 18.27 12.45C18.22 12.41 18.17 12.37 18.11 12.34C18.06 12.3 18 12.27 17.94 12.24C17.89 12.21 17.83 12.18 17.77 12.15C17.71 12.13 17.64 12.11 17.58 12.09C17.52 12.07 17.45 12.05 17.39 12.04C17.33 12.03 17.26 12.02 17.2 12.01C17.13 12 17.07 12 17 12C16.94 12 16.87 12 16.8 12.01C16.74 12.02 16.67 12.03 16.61 12.04C16.55 12.05 16.48 12.07 16.42 12.09L16.24 12.15C16.17 12.18 16.12 12.21 16.06 12.24C16 12.27 15.94 12.3 15.89 12.34C15.83 12.37 15.78 12.41 15.73 12.45C15.68 12.5 15.63 12.54 15.59 12.59C15.54 12.63 15.5 12.68 15.45 12.73C15.41 12.78 15.37 12.83 15.34 12.89C15.3 12.94 15.27 13 15.24 13.06C15.21 13.11 15.18 13.17 15.15 13.23C15.13 13.3 15.11 13.36 15.09 13.42C15.07 13.48 15.05 13.55 15.04 13.61C15.03 13.67 15.02 13.74 15.01 13.8C15 13.87 15 13.93 15 14L15 20.85C15 21.15 15.06 21.44 15.18 21.71C15.29 21.96 15.44 22.18 15.63 22.37C15.82 22.56 16.04 22.71 16.29 22.82C16.56 22.94 16.85 23 17.15 23L17.19 23C17.43 23 17.67 22.97 17.91 22.91L21.33 22.13C21.38 22.12 21.44 22.11 21.5 22.09C21.56 22.08 21.61 22.06 21.67 22.04C21.72 22.02 21.78 22 21.83 21.97C21.88 21.95 21.94 21.92 21.99 21.89L22.14 21.8C22.18 21.77 22.23 21.73 22.28 21.69C22.32 21.66 22.36 21.62 22.41 21.58C22.45 21.54 22.49 21.49 22.53 21.45C22.56 21.4 22.6 21.36 22.63 21.31C22.67 21.26 22.7 21.21 22.73 21.16C22.76 21.11 22.78 21.06 22.81 21.01C22.83 20.95 22.86 20.9 22.88 20.84C22.9 20.79 22.92 20.73 22.93 20.68C22.95 20.62 22.96 20.56 22.97 20.5C22.98 20.45 22.99 20.39 22.99 20.33C23 20.27 23 20.21 23 20.15C23 20.09 23 20.02 22.99 19.96C22.98 19.89 22.97 19.83 22.96 19.76C22.95 19.7 22.93 19.64 22.91 19.57L22.85 19.39L22.76 19.21C22.73 19.15 22.7 19.1 22.66 19.04C22.63 18.99 22.59 18.94 22.55 18.89C22.5 18.83 22.46 18.79 22.41 18.74C22.37 18.69 22.32 18.65 22.27 18.61C22.22 18.57 22.17 18.53 22.11 18.49C22.06 18.45 22 18.42 21.94 18.39C21.89 18.36 21.83 18.33 21.77 18.31C21.7 18.28 21.64 18.26 21.58 18.24C21.52 18.22 21.45 18.21 21.39 18.19C21.33 18.18 21.26 18.17 21.2 18.16C21.13 18.16 21.07 18.15 21 18.15C20.85 18.15 20.7 18.17 20.55 18.2L19 18.56L19 14C19 13.93 19 13.87 18.99 13.8C18.98 13.74 18.97 13.67 18.96 13.61ZM16.96 19.02L16.97 19.02C16.97 19.02 16.96 19.02 16.96 19.02ZM3.8 39.99C3.87 40 3.93 40 4 40L42 40C42.34 40 42.66 39.94 42.97 39.81C43.27 39.68 43.54 39.5 43.77 39.27C44 39.04 44.18 38.77 44.31 38.47C44.44 38.16 44.5 37.84 44.5 37.5L44.5 37.37C44.5 37.01 44.44 36.66 44.31 36.32C44.19 36 44.02 35.7 43.8 35.44L38.02 28.7C37.92 28.59 37.82 28.49 37.71 28.4C37.59 28.32 37.47 28.24 37.34 28.18C37.2 28.12 37.07 28.08 36.93 28.05C36.79 28.02 36.64 28 36.5 28C36.43 28 36.37 28 36.3 28.01C36.24 28.02 36.17 28.03 36.11 28.04C36.05 28.05 35.98 28.07 35.92 28.09C35.86 28.11 35.8 28.13 35.73 28.15C35.67 28.18 35.62 28.21 35.56 28.24C35.5 28.27 35.44 28.3 35.39 28.34C35.33 28.37 35.28 28.41 35.23 28.45C35.18 28.5 35.13 28.54 35.09 28.59C35.04 28.63 35 28.68 34.95 28.73C34.91 28.78 34.87 28.83 34.84 28.89C34.8 28.94 34.77 29 34.74 29.06C34.71 29.11 34.68 29.17 34.65 29.23C34.63 29.3 34.61 29.36 34.59 29.42C34.57 29.48 34.55 29.55 34.54 29.61C34.53 29.67 34.52 29.74 34.51 29.8C34.5 29.87 34.5 29.93 34.5 30C34.5 30.12 34.51 30.24 34.53 30.35C34.55 30.47 34.58 30.58 34.62 30.69C34.67 30.8 34.72 30.91 34.78 31.01C34.84 31.12 34.9 31.21 34.98 31.3L39.01 36L4 36C3.93 36 3.87 36 3.8 36.01C3.74 36.02 3.67 36.02 3.61 36.04C3.55 36.05 3.48 36.07 3.42 36.09C3.36 36.1 3.3 36.13 3.23 36.15C3.17 36.18 3.11 36.2 3.06 36.24C3 36.27 2.94 36.3 2.89 36.34C2.83 36.37 2.78 36.41 2.73 36.45C2.68 36.49 2.63 36.54 2.59 36.58C2.54 36.63 2.5 36.68 2.45 36.73C2.41 36.78 2.37 36.83 2.34 36.89C2.3 36.94 2.27 37 2.24 37.06C2.21 37.11 2.18 37.17 2.15 37.23C2.13 37.29 2.11 37.36 2.09 37.42C2.07 37.48 2.05 37.54 2.04 37.61C2.03 37.67 2.02 37.74 2.01 37.8C2 37.87 2 37.93 2 38C2 38.06 2 38.13 2.01 38.2C2.02 38.26 2.03 38.33 2.04 38.39C2.05 38.45 2.07 38.52 2.09 38.58L2.15 38.76C2.18 38.83 2.21 38.88 2.24 38.94C2.27 39 2.3 39.06 2.34 39.11C2.37 39.16 2.41 39.22 2.45 39.27C2.5 39.32 2.54 39.37 2.59 39.41C2.63 39.46 2.68 39.5 2.73 39.55C2.78 39.59 2.83 39.63 2.89 39.66C2.94 39.7 3 39.73 3.06 39.76C3.11 39.79 3.17 39.82 3.23 39.85C3.3 39.87 3.36 39.89 3.42 39.91C3.48 39.93 3.55 39.95 3.61 39.96C3.67 39.97 3.74 39.98 3.8 39.99Z">
</path>
</svg>
