<svg xmlns="http://www.w3.org/2000/svg" xmlns:xlink="http://www.w3.org/1999/xlink" width="48" height="48" viewBox="0 0 48 48" fill="none">
<path d="M29.23 13.15C29.11 13.2 29 13.26 28.89 13.34C28.78 13.41 28.68 13.49 28.59 13.59L18 24.17L13.41 19.59C13.37 19.54 13.32 19.5 13.27 19.45C13.22 19.41 13.17 19.37 13.11 19.34C13.06 19.3 13 19.27 12.94 19.24C12.89 19.21 12.83 19.18 12.77 19.15C12.7 19.13 12.64 19.11 12.58 19.09C12.52 19.07 12.45 19.05 12.39 19.04C12.33 19.03 12.26 19.02 12.2 19.01C12.13 19 12.07 19 12 19C11.93 19 11.87 19 11.8 19.01C11.74 19.02 11.67 19.03 11.61 19.04C11.55 19.05 11.48 19.07 11.42 19.09C11.36 19.11 11.3 19.13 11.23 19.15C11.17 19.18 11.11 19.21 11.06 19.24C11 19.27 10.94 19.3 10.89 19.34C10.83 19.37 10.78 19.41 10.73 19.45C10.68 19.5 10.63 19.54 10.59 19.59C10.54 19.63 10.5 19.68 10.45 19.73C10.41 19.78 10.37 19.83 10.34 19.89C10.3 19.94 10.27 20 10.24 20.06C10.21 20.11 10.18 20.17 10.15 20.23C10.13 20.3 10.11 20.36 10.09 20.42C10.07 20.48 10.05 20.55 10.04 20.61C10.03 20.67 10.02 20.74 10.01 20.8C10 20.87 10 20.93 10 21C10 21.07 10 21.13 10.01 21.2C10.02 21.26 10.03 21.33 10.04 21.39C10.05 21.45 10.07 21.52 10.09 21.58C10.11 21.64 10.13 21.7 10.15 21.77C10.18 21.83 10.21 21.89 10.24 21.94C10.27 22 10.3 22.06 10.34 22.11C10.37 22.17 10.41 22.22 10.45 22.27C10.5 22.32 10.54 22.37 10.59 22.41L15.18 27C15.56 27.39 16 27.68 16.5 27.88C16.98 28.08 17.48 28.18 18 28.18C18.52 28.18 19.02 28.08 19.5 27.88C20 27.68 20.44 27.39 20.82 27L31.41 16.41C31.46 16.37 31.5 16.32 31.55 16.27C31.59 16.22 31.63 16.17 31.66 16.11C31.7 16.06 31.73 16 31.76 15.94C31.79 15.89 31.82 15.83 31.85 15.77C31.87 15.7 31.89 15.64 31.91 15.58C31.93 15.52 31.95 15.45 31.96 15.39C31.97 15.33 31.98 15.26 31.99 15.2C32 15.13 32 15.07 32 15C32 14.93 32 14.87 31.99 14.8C31.98 14.74 31.97 14.67 31.96 14.61C31.95 14.55 31.93 14.48 31.91 14.42C31.89 14.36 31.87 14.3 31.85 14.23C31.82 14.17 31.79 14.11 31.76 14.06C31.73 14 31.7 13.94 31.66 13.89C31.63 13.83 31.59 13.78 31.55 13.73C31.5 13.68 31.46 13.63 31.41 13.59C31.32 13.49 31.22 13.41 31.11 13.34C31 13.26 30.89 13.2 30.77 13.15C30.64 13.1 30.52 13.06 30.39 13.04C30.26 13.01 30.13 13 30 13C29.87 13 29.74 13.01 29.61 13.04C29.48 13.06 29.36 13.1 29.23 13.15ZM5.34 4.84C4.61 5.58 4.04 6.43 3.63 7.39C3.21 8.38 3 9.42 3 10.5L3 30.5C3 31.58 3.21 32.62 3.63 33.61C4.04 34.57 4.61 35.42 5.34 36.16C6.08 36.89 6.93 37.46 7.89 37.87C8.88 38.29 9.92 38.5 11 38.5L31 38.5C32.08 38.5 33.12 38.29 34.11 37.87C35.07 37.46 35.92 36.89 36.66 36.16C37.39 35.42 37.96 34.57 38.37 33.61C38.79 32.62 39 31.58 39 30.5L39 10.5C39 9.42 38.79 8.38 38.37 7.39C37.96 6.43 37.39 5.58 36.66 4.84C35.92 4.11 35.07 3.54 34.11 3.13C33.12 2.71 32.08 2.5 31 2.5L11 2.5C9.92 2.5 8.88 2.71 7.89 3.13C6.93 3.54 6.08 4.11 5.34 4.84ZM21 45L33 45C34.63 45 36.18 44.69 37.67 44.06C39.11 43.45 40.38 42.59 41.48 41.48C42.59 40.38 43.45 39.11 44.06 37.67C44.69 36.18 45 34.63 45 33L45 21C45 19.92 44.79 18.88 44.37 17.89C43.96 16.93 43.39 16.08 42.66 15.34C42.16 14.84 41.6 14.42 41 14.07L41 33C41 34.09 40.79 35.12 40.37 36.11C39.97 37.07 39.39 37.92 38.66 38.66C37.92 39.39 37.07 39.97 36.11 40.37C35.12 40.79 34.09 41 33 41L14.07 41C14.42 41.6 14.84 42.16 15.34 42.66C16.08 43.39 16.93 43.96 17.89 44.37C18.88 44.79 19.92 45 21 45ZM32.55 6.81C32.06 6.6 31.54 6.5 31 6.5L11 6.5C10.46 6.5 9.94 6.6 9.45 6.81C8.97 7.02 8.54 7.3 8.17 7.67C7.8 8.04 7.52 8.47 7.31 8.95C7.1 9.44 7 9.96 7 10.5L7 30.5C7 31.04 7.1 31.56 7.31 32.05C7.52 32.53 7.8 32.96 8.17 33.33C8.54 33.7 8.97 33.98 9.45 34.19C9.94 34.4 10.46 34.5 11 34.5L31 34.5C31.54 34.5 32.06 34.4 32.55 34.19C33.03 33.98 33.46 33.7 33.83 33.33C34.2 32.96 34.48 32.53 34.69 32.05C34.9 31.56 35 31.04 35 30.5L35 10.5C35 9.96 34.9 9.44 34.69 8.95C34.48 8.47 34.2 8.04 33.83 7.67C33.46 7.3 33.03 7.02 32.55 6.81Z" fill-rule="evenodd"  fill="#000000" >
</path>
</svg>
