<svg xmlns="http://www.w3.org/2000/svg" xmlns:xlink="http://www.w3.org/1999/xlink" width="48" height="48" viewBox="0 0 48 48" fill="none">
<path d="M25.74 40.98C25.77 40.93 25.8 40.87 25.83 40.81C25.86 40.75 25.88 40.69 25.9 40.62C25.92 40.56 25.94 40.5 25.95 40.44L28.61 28.5L38.67 28.5L41.04 40.39C41.05 40.46 41.07 40.52 41.09 40.58C41.11 40.64 41.13 40.71 41.15 40.77C41.18 40.83 41.21 40.89 41.24 40.94C41.27 41 41.3 41.06 41.34 41.11C41.37 41.17 41.41 41.22 41.45 41.27C41.5 41.32 41.54 41.37 41.59 41.42C41.63 41.46 41.68 41.51 41.73 41.55C41.78 41.59 41.84 41.63 41.89 41.66C41.94 41.7 42 41.73 42.06 41.76C42.12 41.8 42.17 41.82 42.24 41.85C42.3 41.87 42.36 41.9 42.42 41.91C42.48 41.93 42.55 41.95 42.61 41.96C42.67 41.97 42.74 41.98 42.8 41.99C42.87 42 42.94 42 43 42C43.07 42 43.13 42 43.2 41.99C43.26 41.98 43.33 41.97 43.39 41.96C43.52 41.94 43.64 41.9 43.77 41.85C43.89 41.8 44 41.74 44.11 41.66C44.22 41.59 44.32 41.51 44.41 41.41C44.51 41.32 44.59 41.22 44.66 41.11C44.74 41 44.8 40.89 44.85 40.76C44.9 40.64 44.94 40.52 44.96 40.39C44.99 40.26 45 40.13 45 40C45 39.87 44.99 39.74 44.96 39.61L38.77 8.55C38.66 7.98 38.45 7.44 38.15 6.95C37.86 6.46 37.49 6.04 37.06 5.68C36.62 5.32 36.14 5.04 35.61 4.84C35.06 4.64 34.5 4.53 33.93 4.53C33.35 4.52 32.78 4.61 32.23 4.8C31.7 4.99 31.21 5.26 30.77 5.61C30.32 5.96 29.95 6.37 29.65 6.85C29.34 7.34 29.12 7.87 28.99 8.44L25.41 24.5C24.43 24.49 23.37 24.33 22.24 24.01C21.16 23.71 20.05 23.28 18.9 22.72C18.72 22.63 18.54 22.54 18.35 22.45C18.58 22.23 18.79 22 19 21.77C21.29 19.22 22.6 15.96 22.92 12L25 12C25.07 12 25.13 12 25.2 11.99C25.26 11.98 25.33 11.97 25.39 11.96C25.45 11.95 25.52 11.93 25.58 11.91C25.64 11.89 25.7 11.87 25.77 11.85C25.83 11.82 25.89 11.79 25.94 11.76C26 11.73 26.06 11.7 26.11 11.66C26.17 11.63 26.22 11.59 26.27 11.55C26.32 11.5 26.37 11.46 26.41 11.41C26.46 11.37 26.5 11.32 26.55 11.27C26.59 11.22 26.63 11.17 26.66 11.11C26.7 11.06 26.73 11 26.76 10.94C26.79 10.89 26.82 10.83 26.85 10.77C26.87 10.7 26.89 10.64 26.91 10.58C26.93 10.52 26.95 10.45 26.96 10.39C26.97 10.33 26.98 10.26 26.99 10.2C27 10.13 27 10.07 27 10C27 9.93 27 9.87 26.99 9.8C26.98 9.74 26.97 9.67 26.96 9.61C26.95 9.55 26.93 9.48 26.91 9.42C26.89 9.36 26.87 9.3 26.85 9.23C26.82 9.17 26.79 9.11 26.76 9.06C26.73 9 26.7 8.94 26.66 8.89C26.63 8.83 26.59 8.78 26.55 8.73C26.5 8.68 26.46 8.63 26.41 8.59C26.37 8.54 26.32 8.5 26.27 8.45C26.22 8.41 26.17 8.37 26.11 8.34C26.06 8.3 26 8.27 25.94 8.24C25.89 8.21 25.83 8.18 25.77 8.15C25.7 8.13 25.64 8.11 25.58 8.09C25.52 8.07 25.45 8.05 25.39 8.04C25.33 8.03 25.26 8.02 25.2 8.01C25.13 8 25.07 8 25 8L16.24 8L14.79 5.11C14.76 5.05 14.73 4.99 14.69 4.93C14.66 4.88 14.62 4.83 14.58 4.77C14.54 4.72 14.5 4.67 14.45 4.62C14.41 4.58 14.36 4.53 14.31 4.49L14.16 4.37C14.1 4.33 14.05 4.29 13.99 4.26C13.93 4.23 13.88 4.2 13.82 4.17C13.76 4.15 13.69 4.12 13.63 4.1C13.57 4.08 13.51 4.06 13.44 4.05C13.38 4.04 13.32 4.02 13.25 4.02C13.19 4.01 13.12 4 13.05 4C12.99 4 12.92 4 12.86 4.01C12.79 4.01 12.73 4.02 12.66 4.03C12.6 4.04 12.53 4.05 12.47 4.07L12.29 4.13C12.22 4.16 12.16 4.18 12.11 4.21C12.05 4.24 11.99 4.27 11.93 4.31C11.88 4.34 11.83 4.38 11.77 4.42C11.72 4.46 11.67 4.5 11.62 4.55C11.58 4.59 11.53 4.64 11.49 4.69L11.37 4.84C11.33 4.9 11.29 4.95 11.26 5.01C11.23 5.07 11.2 5.12 11.17 5.18C11.15 5.24 11.12 5.31 11.1 5.37C11.08 5.43 11.06 5.49 11.05 5.56C11.04 5.62 11.02 5.68 11.02 5.75C11.01 5.81 11 5.88 11 5.95C11 6.01 11 6.08 11.01 6.14C11.01 6.21 11.02 6.27 11.03 6.34C11.04 6.4 11.05 6.47 11.07 6.53L11.13 6.71C11.16 6.78 11.18 6.84 11.21 6.89L11.77 8L5 8C4.93 8 4.87 8 4.8 8.01C4.74 8.02 4.67 8.03 4.61 8.04C4.55 8.05 4.48 8.07 4.42 8.09C4.36 8.11 4.3 8.13 4.23 8.15C4.17 8.18 4.11 8.21 4.06 8.24C4 8.27 3.94 8.3 3.89 8.34C3.83 8.37 3.78 8.41 3.73 8.45C3.68 8.5 3.63 8.54 3.59 8.59C3.54 8.63 3.5 8.68 3.45 8.73C3.41 8.78 3.37 8.83 3.34 8.89C3.3 8.94 3.27 9 3.24 9.06C3.21 9.11 3.18 9.17 3.15 9.23C3.13 9.3 3.11 9.36 3.09 9.42C3.07 9.48 3.05 9.55 3.04 9.61C3.03 9.67 3.02 9.74 3.01 9.8C3 9.87 3 9.93 3 10C3 10.07 3 10.13 3.01 10.2C3.02 10.26 3.03 10.33 3.04 10.39C3.05 10.45 3.07 10.52 3.09 10.58C3.11 10.64 3.13 10.7 3.15 10.77C3.18 10.83 3.21 10.89 3.24 10.94C3.27 11 3.3 11.06 3.34 11.11C3.37 11.17 3.41 11.22 3.45 11.27C3.5 11.32 3.54 11.37 3.59 11.41C3.63 11.46 3.68 11.5 3.73 11.55C3.78 11.59 3.83 11.63 3.89 11.66C3.94 11.7 4 11.73 4.06 11.76C4.11 11.79 4.17 11.82 4.23 11.85C4.3 11.87 4.36 11.89 4.42 11.91C4.48 11.93 4.55 11.95 4.61 11.96C4.67 11.97 4.74 11.98 4.8 11.99C4.87 12 4.93 12 5 12L18.91 12C18.79 13.15 18.58 14.21 18.26 15.18C17.77 16.68 17.03 17.99 16.03 19.1C15.67 19.5 15.27 19.88 14.84 20.24C14.4 19.91 13.99 19.58 13.62 19.25C12.59 18.33 11.71 17.33 10.98 16.24C10.58 15.64 10.19 14.94 9.8 14.13C9.77 14.08 9.74 14.02 9.71 13.96C9.68 13.91 9.64 13.85 9.6 13.8C9.56 13.75 9.52 13.7 9.47 13.65C9.43 13.6 9.38 13.55 9.33 13.51C9.29 13.47 9.23 13.43 9.18 13.39C9.13 13.35 9.07 13.31 9.02 13.28C8.96 13.25 8.9 13.21 8.84 13.19C8.79 13.16 8.72 13.13 8.66 13.11C8.6 13.09 8.54 13.07 8.47 13.06C8.41 13.04 8.35 13.03 8.28 13.02C8.22 13.01 8.15 13 8.09 13L7.89 13C7.82 13.01 7.76 13.01 7.7 13.02C7.63 13.03 7.57 13.05 7.5 13.06L7.32 13.12C7.25 13.14 7.19 13.17 7.13 13.2C7.08 13.23 7.02 13.26 6.96 13.29C6.91 13.32 6.85 13.36 6.8 13.4C6.75 13.44 6.7 13.48 6.65 13.53C6.6 13.57 6.55 13.62 6.51 13.67C6.47 13.71 6.43 13.77 6.39 13.82C6.35 13.87 6.31 13.93 6.28 13.98C6.25 14.04 6.21 14.1 6.19 14.16C6.16 14.21 6.13 14.28 6.11 14.34C6.09 14.4 6.07 14.46 6.06 14.53C6.04 14.59 6.03 14.65 6.02 14.72C6.01 14.78 6 14.85 6 14.91L6 15.11C6.01 15.18 6.01 15.24 6.02 15.3C6.03 15.37 6.05 15.43 6.06 15.5L6.12 15.68C6.14 15.75 6.17 15.81 6.2 15.87C6.4 16.28 6.58 16.64 6.74 16.93C7.02 17.46 7.33 17.97 7.66 18.46C8.58 19.83 9.68 21.09 10.96 22.23C11.03 22.29 11.1 22.36 11.17 22.42C9.58 23.1 7.73 23.64 5.63 24.03C5.5 24.06 5.38 24.09 5.26 24.14C5.13 24.19 5.02 24.25 4.91 24.32C4.8 24.4 4.7 24.48 4.6 24.57C4.51 24.66 4.42 24.76 4.35 24.87C4.28 24.98 4.21 25.09 4.16 25.21C4.11 25.33 4.07 25.46 4.04 25.59C4.02 25.72 4 25.85 4 25.98C4 26.11 4.01 26.24 4.03 26.37C4.06 26.5 4.09 26.62 4.14 26.74C4.19 26.87 4.25 26.98 4.32 27.09C4.4 27.2 4.48 27.3 4.57 27.4C4.66 27.49 4.76 27.58 4.87 27.65C4.98 27.72 5.09 27.79 5.21 27.84C5.33 27.89 5.46 27.93 5.59 27.96C5.72 27.98 5.85 28 5.98 28C6.11 28 6.24 27.99 6.37 27.97C9.7 27.35 12.52 26.38 14.85 25.06C15.6 25.51 16.37 25.93 17.15 26.31C18.51 26.98 19.85 27.5 21.16 27.86C22.33 28.19 23.45 28.39 24.53 28.47L22.05 39.57C22.03 39.63 22.02 39.69 22.01 39.76C22.01 39.82 22 39.89 22 39.95C22 40.02 22 40.09 22.01 40.15C22.01 40.22 22.02 40.28 22.03 40.35C22.04 40.41 22.06 40.47 22.07 40.54C22.09 40.6 22.11 40.66 22.14 40.72C22.16 40.78 22.19 40.84 22.22 40.9C22.24 40.96 22.28 41.02 22.31 41.07C22.35 41.13 22.38 41.18 22.43 41.23L22.55 41.38C22.6 41.43 22.65 41.47 22.7 41.52L22.85 41.64C22.9 41.68 22.96 41.71 23.02 41.74C23.07 41.77 23.13 41.8 23.19 41.83C23.25 41.86 23.31 41.88 23.38 41.9C23.44 41.92 23.5 41.94 23.56 41.95C23.63 41.97 23.69 41.98 23.76 41.99C23.82 41.99 23.89 42 23.95 42C24.02 42 24.09 42 24.15 41.99C24.22 41.99 24.28 41.98 24.35 41.97C24.41 41.96 24.47 41.94 24.54 41.93L24.72 41.87C24.78 41.84 24.84 41.81 24.9 41.79C24.96 41.76 25.02 41.72 25.07 41.69C25.13 41.65 25.18 41.62 25.23 41.58C25.28 41.53 25.33 41.49 25.38 41.45C25.43 41.4 25.47 41.35 25.52 41.3L25.64 41.15C25.67 41.1 25.71 41.04 25.74 40.98ZM8.84 30.7C8.79 30.65 8.75 30.6 8.7 30.55C8.66 30.51 8.61 30.47 8.56 30.42C8.5 30.39 8.45 30.35 8.4 30.31C8.34 30.28 8.28 30.24 8.23 30.21C8.17 30.18 8.11 30.16 8.05 30.13C7.99 30.11 7.93 30.09 7.86 30.07C7.8 30.05 7.74 30.04 7.67 30.02C7.61 30.01 7.54 29.99 7.48 29.99C7.41 29.99 7.35 29.99 7.28 29.99C7.22 29.99 7.15 29.99 7.09 29.99C7.02 30.01 6.96 30.02 6.89 30.03C6.83 30.05 6.76 30.06 6.7 30.08C6.64 30.1 6.58 30.13 6.52 30.15C6.4 30.2 6.28 30.26 6.17 30.33C6.07 30.42 5.97 30.5 5.87 30.59C5.78 30.69 5.7 30.79 5.63 30.9C5.56 31.01 5.5 31.12 5.45 31.25C5.4 31.37 5.36 31.5 5.34 31.63C5.32 31.75 5.31 31.88 5.31 32.02C5.31 32.15 5.32 32.28 5.35 32.4C5.38 32.53 5.42 32.66 5.47 32.78C6.16 34.37 7.01 35.67 8.04 36.69C8.75 37.39 9.52 37.94 10.36 38.32C10.89 38.56 11.43 38.74 12 38.85L12 39.65C12 40.04 12.1 40.41 12.3 40.76C12.5 41.1 12.76 41.36 13.09 41.55C13.43 41.75 13.8 41.85 14.2 41.85C14.62 41.85 15 41.74 15.35 41.52L19.32 39.13C19.7 38.91 20 38.6 20.21 38.22C20.42 37.84 20.53 37.43 20.53 36.99C20.53 36.55 20.42 36.14 20.21 35.76C20 35.38 19.7 35.07 19.32 34.85L19.32 34.84L15.36 32.48C15.01 32.26 14.63 32.15 14.21 32.15C13.81 32.15 13.44 32.25 13.1 32.45C12.77 32.64 12.51 32.9 12.31 33.24C12.11 33.59 12.01 33.95 12.01 34.35L12.01 34.67C11.6 34.48 11.22 34.21 10.85 33.85C10.2 33.2 9.62 32.32 9.14 31.2C9.12 31.13 9.09 31.08 9.06 31.01C9.03 30.96 8.99 30.91 8.96 30.85C8.92 30.8 8.88 30.75 8.84 30.7ZM34.51 8.76C34.33 8.61 34.11 8.53 33.87 8.53C33.64 8.53 33.43 8.6 33.25 8.74C33.06 8.89 32.94 9.08 32.89 9.31L29.5 24.5L37.87 24.5L34.85 9.34C34.8 9.1 34.69 8.91 34.51 8.76Z" fill-rule="evenodd"  fill="#000000" >
</path>
</svg>
