<svg xmlns="http://www.w3.org/2000/svg" xmlns:xlink="http://www.w3.org/1999/xlink" width="48" height="48" viewBox="0 0 48 48" fill="none">
<path d="M23.7918 11.5122L23.7918 36.4848C23.7918 38.2199 21.7337 39.1319 20.4483 37.9664L14.6928 32.7474C14.2329 32.3304 13.7134 32.0102 13.1342 31.7866C12.555 31.5632 11.955 31.4514 11.3342 31.4514L8.96179 31.4514C7.85722 31.4514 6.96179 30.556 6.96179 29.4514L6.96179 18.5835C6.96179 18.3141 7.01294 18.0572 7.11524 17.8127C7.21452 17.5755 7.35521 17.3645 7.53731 17.1797C7.71942 16.9949 7.92836 16.8512 8.16414 16.7484C8.40711 16.6426 8.66328 16.5877 8.93265 16.5838L11.4079 16.5477C12.0164 16.5389 12.6037 16.4228 13.1698 16.1994C13.7359 15.9762 14.2443 15.6601 14.6949 15.2511L20.4478 10.031C21.733 8.86494 23.7918 9.77684 23.7918 11.5122ZM17.7614 40.9296C21.6174 44.4261 27.7918 41.69 27.7918 36.4848L27.7918 11.5122C27.7918 6.30604 21.6155 3.57034 17.7599 7.06874L12.007 12.2888C11.8205 12.458 11.6014 12.5445 11.3496 12.5481L8.87438 12.5842C8.06964 12.596 7.30035 12.7617 6.56652 13.0813C5.85827 13.3899 5.23221 13.8201 4.68836 14.3719C4.1445 14.9238 3.72347 15.5561 3.42526 16.2687C3.11628 17.0071 2.96179 17.7787 2.96179 18.5835L2.96179 29.4514C2.96179 32.7651 5.64808 35.4514 8.96179 35.4514L11.3342 35.4514C11.5914 35.4514 11.8153 35.5378 12.0059 35.7106L17.7614 40.9296Z" fill-rule="evenodd"  fill="#787878" >
</path>
<path d="M35.9631 14.2095C35.3867 13.8586 35.0017 13.2242 35.0017 12.5C35.0017 11.3954 35.8971 10.5 37.0017 10.5C37.4045 10.5 37.7795 10.6191 38.0934 10.824C38.4159 11.0284 38.7932 11.3122 39.2254 11.6753C40.0804 12.3936 40.8629 13.2038 41.5727 14.106C42.5698 15.3733 43.3542 16.7398 43.926 18.2055C44.642 20.0409 45 21.9724 45 24C45 26.0276 44.6419 27.9592 43.9257 29.7947C43.3537 31.2604 42.569 32.627 41.5716 33.8943C40.8616 34.7964 40.079 35.6066 39.2238 36.3249C38.7915 36.688 38.4141 36.9717 38.0915 37.1761C37.7777 37.381 37.4027 37.5 37 37.5C35.8954 37.5 35 36.6046 35 35.5C35 34.7757 35.3851 34.1412 35.9617 33.7903C36.1304 33.6824 36.3603 33.5062 36.6512 33.2619C37.296 32.7204 37.8884 32.1065 38.4284 31.4204C39.181 30.4642 39.7713 29.4376 40.1993 28.3406C40.7331 26.9727 41 25.5258 41 24C41 22.4742 40.7332 21.0272 40.1995 19.6592C39.7716 18.5622 39.1814 17.5356 38.4291 16.5794C37.8892 15.8933 37.297 15.2794 36.6525 14.7379C36.3616 14.4936 36.1318 14.3174 35.9631 14.2095Z" fill-rule="evenodd"  fill="#424242" >
</path>
<path d="M31.4088 20.6759C30.862 20.3189 30.5007 19.7017 30.5007 19C30.5007 17.8954 31.3961 17 32.5007 17C32.9191 17 33.3075 17.1285 33.6286 17.3481C33.803 17.4649 33.9967 17.6166 34.2096 17.8033C34.6252 18.1676 35.0044 18.5771 35.3473 19.0318C35.8283 19.6698 36.2068 20.3579 36.4829 21.0963C36.8276 22.0186 37 22.9864 37 24C37 25.0136 36.8276 25.9816 36.4827 26.9038C36.2065 27.6423 35.8279 28.3305 35.3467 28.9684C35.0038 29.4231 34.6244 29.8326 34.2088 30.1969C33.9959 30.3835 33.8021 30.5352 33.6277 30.652C33.3066 30.8716 32.9183 31 32.5 31C31.3954 31 30.5 30.1046 30.5 29C30.5 28.2982 30.8614 27.6809 31.4083 27.3239L31.4095 27.3219C31.4593 27.2846 31.5136 27.2402 31.5724 27.1887C31.7818 27.0052 31.9754 26.7955 32.1533 26.5597C32.7178 25.8113 33 24.9581 33 24C33 23.0418 32.7178 22.1885 32.1535 21.4401C31.9757 21.2043 31.7821 20.9946 31.5728 20.8112C31.514 20.7596 31.4597 20.7152 31.41 20.678L31.4088 20.6759Z" fill-rule="evenodd"  fill="#424242" >
</path>
</svg>
