<svg xmlns="http://www.w3.org/2000/svg" xmlns:xlink="http://www.w3.org/1999/xlink" width="48" height="48" viewBox="0 0 48 48" fill="none">
<path d="M17.8018 7.02826L12.0118 12.2983C11.8218 12.4683 11.6018 12.5483 11.3418 12.5583L8.70179 12.5983C7.92179 12.6083 7.17179 12.7683 6.46179 13.0783C5.77179 13.3783 5.17179 13.7883 4.64179 14.3283C4.11179 14.8583 3.70179 15.4783 3.41179 16.1683C3.11179 16.8883 2.96179 17.6383 2.96179 18.4183L2.96179 29.6883C2.96179 30.4483 3.11179 31.1883 3.40179 31.8883C3.69179 32.5983 4.10179 33.2183 4.64179 33.7583C5.19179 34.3083 5.82179 34.7283 6.52179 35.0183C7.23179 35.3083 7.97179 35.4583 8.73179 35.4583L11.3418 35.4583C11.5918 35.4583 11.8118 35.5383 12.0018 35.7183L17.8018 40.9683C18.2318 41.3583 18.7118 41.6883 19.2418 41.9383C19.7618 42.1783 20.3018 42.3483 20.8718 42.4383C21.4318 42.5283 22.0018 42.5383 22.5718 42.4683C23.1518 42.3983 23.7118 42.2383 24.2418 41.9983C24.7818 41.7683 25.2718 41.4583 25.7118 41.0783C26.1418 40.6983 26.5218 40.2783 26.8318 39.7983C27.1418 39.3183 27.3818 38.7983 27.5418 38.2483C27.7118 37.6883 27.7918 37.1183 27.7918 36.5383L27.7918 11.4483C27.7918 10.8583 27.7118 10.2883 27.5418 9.72826C27.3718 9.17826 27.1318 8.66826 26.8218 8.18826C26.5118 7.70826 26.1418 7.28826 25.7118 6.91826C25.2618 6.53826 24.7818 6.22826 24.2518 5.98826C23.7118 5.74826 23.1518 5.59826 22.5718 5.51826C22.0018 5.44826 21.4318 5.45826 20.8718 5.54826C20.3018 5.63826 19.7618 5.80826 19.2418 6.05826C18.7218 6.30826 18.2418 6.62826 17.8118 7.02826L17.8018 7.02826ZM36.7418 10.5183C36.6818 10.5183 36.6218 10.5383 36.5518 10.5483C36.4918 10.5683 36.4218 10.5783 36.3618 10.5983C36.3018 10.6283 36.2418 10.6483 36.1818 10.6783C36.1218 10.6983 36.0618 10.7283 36.0118 10.7683C35.9518 10.7983 35.8918 10.8283 35.8418 10.8683L35.6918 10.9883C35.6418 11.0383 35.5918 11.0783 35.5418 11.1283L35.4218 11.2783C35.3818 11.3283 35.3418 11.3783 35.3118 11.4383C35.2718 11.4983 35.2418 11.5483 35.2118 11.6083C35.1818 11.6683 35.1518 11.7283 35.1318 11.7883C35.1118 11.8483 35.0918 11.9083 35.0718 11.9783C35.0518 12.0383 35.0418 12.1083 35.0318 12.1683C35.0218 12.2283 35.0118 12.2983 35.0118 12.3583C35.0018 12.4283 35.0018 12.4983 35.0018 12.5583C35.0018 12.6283 35.0118 12.6883 35.0218 12.7583C35.0318 12.8183 35.0418 12.8883 35.0518 12.9483C35.0718 13.0083 35.0918 13.0783 35.1118 13.1383C35.1318 13.1983 35.1518 13.2583 35.1818 13.3183C35.2018 13.3783 35.2318 13.4383 35.2718 13.4983C35.3018 13.5483 35.3318 13.6083 35.3718 13.6583C35.4118 13.7083 35.4518 13.7683 35.4918 13.8083C35.5418 13.8583 35.5818 13.9083 35.6318 13.9583L35.7818 14.0783C35.8318 14.1183 35.8818 14.1583 35.9418 14.1983C36.1118 14.2983 36.3518 14.4783 36.6518 14.7383C37.3018 15.2783 37.8918 15.8883 38.4318 16.5783C39.1818 17.5383 39.7718 18.5583 40.2018 19.6583C40.7318 21.0283 41.0018 22.4683 41.0018 23.9983C41.0018 25.5283 40.7318 26.9683 40.2018 28.3383C39.7718 29.4383 39.1818 30.4583 38.4318 31.4183C37.8918 32.1083 37.3018 32.7183 36.6518 33.2583C36.3518 33.5183 36.1118 33.6983 35.9418 33.7983C35.8318 33.8683 35.7318 33.9483 35.6318 34.0383C35.5318 34.1283 35.4518 34.2283 35.3718 34.3383C35.3018 34.4483 35.2318 34.5583 35.1818 34.6783C35.1218 34.7983 35.0818 34.9183 35.0518 35.0483C35.0218 35.1783 35.0018 35.3083 35.0018 35.4383C35.0018 35.5683 35.0118 35.6983 35.0318 35.8283C35.0518 35.9583 35.0818 36.0883 35.1318 36.2083C35.1818 36.3283 35.2318 36.4483 35.3018 36.5583C35.3718 36.6683 35.4518 36.7683 35.5418 36.8683C35.6318 36.9683 35.7318 37.0483 35.8418 37.1283C35.9518 37.1983 36.0618 37.2683 36.1818 37.3183C36.3018 37.3783 36.4218 37.4183 36.5518 37.4483C36.6818 37.4783 36.8118 37.4983 36.9418 37.4983C37.0718 37.4983 37.2018 37.4883 37.3318 37.4683C37.4618 37.4483 37.5918 37.4183 37.7118 37.3683C37.8318 37.3183 37.9518 37.2683 38.0618 37.1983C38.3918 36.9883 38.7818 36.6983 39.2218 36.3183C40.0818 35.6083 40.8618 34.7983 41.5718 33.8883C42.5718 32.6283 43.3518 31.2583 43.9318 29.7883C44.6418 27.9583 45.0018 26.0283 45.0018 23.9983C45.0018 21.9683 44.6418 20.0383 43.9318 18.2083C43.3518 16.7383 42.5718 15.3683 41.5718 14.1083C40.8618 13.1983 40.0818 12.3883 39.2218 11.6783C38.7818 11.2983 38.3918 11.0083 38.0618 10.7983C38.0118 10.7683 37.9518 10.7383 37.8918 10.7083C37.8318 10.6783 37.7718 10.6483 37.7118 10.6283C37.6518 10.6083 37.5918 10.5883 37.5218 10.5683C37.4618 10.5483 37.4018 10.5383 37.3318 10.5283C37.2718 10.5183 37.2018 10.5083 37.1418 10.4983L36.9418 10.4983C36.8718 10.4983 36.8118 10.5083 36.7418 10.5183ZM30.6618 28.2083C30.6118 28.3283 30.5718 28.4583 30.5418 28.5883C30.5218 28.7183 30.5018 28.8483 30.5018 28.9783C30.5018 29.1083 30.5118 29.2383 30.5318 29.3683C30.5618 29.4983 30.5918 29.6183 30.6418 29.7383C30.6918 29.8683 30.7518 29.9783 30.8218 30.0883C30.9018 30.1983 30.9818 30.2983 31.0718 30.3983C31.1618 30.4883 31.2618 30.5783 31.3718 30.6483C31.4818 30.7183 31.5918 30.7883 31.7118 30.8383C31.8318 30.8883 31.9618 30.9283 32.0918 30.9583C32.2218 30.9783 32.3518 30.9983 32.4818 30.9983C32.6118 30.9983 32.7418 30.9883 32.8718 30.9683C33.0018 30.9383 33.1218 30.9083 33.2418 30.8583C33.3718 30.8083 33.4818 30.7483 33.5918 30.6783C33.7818 30.5583 33.9818 30.3983 34.2118 30.1983C34.6218 29.8283 35.0018 29.4183 35.3518 28.9683C35.8318 28.3283 36.2118 27.6383 36.4818 26.8983C36.8318 25.9783 37.0018 25.0083 37.0018 23.9983C37.0018 22.9883 36.8318 22.0183 36.4818 21.0983C36.2118 20.3583 35.8318 19.6683 35.3518 19.0283C35.0018 18.5783 34.6218 18.1683 34.2118 17.7983C33.9818 17.5983 33.7818 17.4383 33.5918 17.3183C33.4818 17.2483 33.3718 17.1883 33.2518 17.1383C33.1218 17.0883 33.0018 17.0583 32.8718 17.0283C32.7418 17.0083 32.6118 16.9983 32.4818 16.9983C32.3518 16.9983 32.2218 17.0183 32.0918 17.0383C31.9618 17.0683 31.8418 17.1083 31.7118 17.1583C31.5918 17.2083 31.4818 17.2783 31.3718 17.3483C31.2618 17.4183 31.1618 17.5083 31.0718 17.5983C30.9818 17.6983 30.9018 17.7983 30.8318 17.9083C30.7518 18.0183 30.6918 18.1283 30.6418 18.2583C30.6018 18.3783 30.5618 18.4983 30.5318 18.6283C30.5118 18.7583 30.5018 18.8883 30.5018 19.0183C30.5018 19.1483 30.5218 19.2783 30.5418 19.4083C30.5718 19.5383 30.6118 19.6683 30.6618 19.7883C30.7118 19.9083 30.7818 20.0183 30.8518 20.1283C30.9218 20.2383 31.0118 20.3383 31.1018 20.4283C31.2018 20.5183 31.3018 20.5983 31.4118 20.6783C31.4618 20.7183 31.5118 20.7583 31.5718 20.8083C31.7818 20.9883 31.9818 21.1983 32.1518 21.4383C32.7218 22.1883 33.0018 23.0383 33.0018 23.9983C33.0018 24.9583 32.7218 25.8083 32.1518 26.5583C31.9818 26.7983 31.7818 27.0083 31.5718 27.1883C31.5118 27.2383 31.4618 27.2783 31.4118 27.3183C31.3018 27.3983 31.2018 27.4783 31.1018 27.5683C31.0118 27.6583 30.9218 27.7583 30.8518 27.8683C30.7818 27.9783 30.7118 28.0883 30.6618 28.2083ZM22.6118 9.63826C22.2618 9.47826 21.8918 9.43826 21.5018 9.49826C21.1218 9.55826 20.7818 9.71826 20.5018 9.97826L20.4918 9.98826L14.6918 15.2583C14.2418 15.6683 13.7318 15.9783 13.1618 16.2083C12.6018 16.4283 12.0118 16.5483 11.4018 16.5583L8.76179 16.5983C8.26179 16.5983 7.83179 16.7783 7.48179 17.1383C7.13179 17.4883 6.96179 17.9183 6.96179 18.4183L6.96179 29.6883C6.96179 29.9183 7.01179 30.1483 7.10179 30.3683C7.19179 30.5883 7.32179 30.7783 7.48179 30.9483C7.64179 31.1083 7.83179 31.2283 8.05179 31.3183C8.27179 31.4083 8.50179 31.4583 8.73179 31.4583L11.3418 31.4583C11.9618 31.4583 12.5618 31.5683 13.1418 31.7883C13.7218 32.0183 14.2418 32.3383 14.7018 32.7583L20.4818 38.0083C20.7718 38.2683 21.1118 38.4283 21.5018 38.4883C21.8918 38.5583 22.2618 38.5083 22.6218 38.3483C22.9818 38.1883 23.2618 37.9483 23.4718 37.6183C23.6818 37.2883 23.7918 36.9283 23.7918 36.5383L23.7918 11.4483C23.7918 11.0583 23.6818 10.6983 23.4718 10.3683C23.2618 10.0483 22.9718 9.79826 22.6118 9.63826Z" fill-rule="evenodd"  fill="#000000" >
</path>
</svg>
