<svg xmlns="http://www.w3.org/2000/svg" xmlns:xlink="http://www.w3.org/1999/xlink" width="48" height="48" viewBox="0 0 48 48" fill="none">
<path d="M17.4937 24.9938C17.4937 25.0638 17.4937 25.1238 17.5037 25.1938C17.5137 25.2538 17.5237 25.3238 17.5337 25.3838C17.5437 25.4438 17.5637 25.5138 17.5837 25.5738C17.6037 25.6338 17.6237 25.6938 17.6437 25.7638C17.6737 25.8238 17.7037 25.8838 17.7337 25.9338C17.7637 25.9938 17.7937 26.0538 17.8337 26.1038C17.8637 26.1638 17.9037 26.2138 17.9437 26.2638C17.9937 26.3138 18.0337 26.3638 18.0837 26.4038C18.1237 26.4538 18.1737 26.4938 18.2237 26.5438C18.2737 26.5838 18.3237 26.6238 18.3837 26.6538C18.4337 26.6938 18.4937 26.7238 18.5537 26.7538C18.6037 26.7838 18.6637 26.8138 18.7237 26.8438C18.7937 26.8638 18.8537 26.8838 18.9137 26.9038C18.9737 26.9238 19.0437 26.9438 19.1037 26.9538C19.1637 26.9638 19.2337 26.9738 19.2937 26.9838C19.3637 26.9938 19.4237 26.9938 19.4937 26.9938C19.5637 26.9938 19.6237 26.9938 19.6937 26.9838C19.7537 26.9738 19.8237 26.9638 19.8837 26.9538C19.9437 26.9438 20.0137 26.9238 20.0737 26.9038C20.1337 26.8838 20.1937 26.8638 20.2637 26.8438C20.3237 26.8138 20.3837 26.7838 20.4337 26.7538C20.4937 26.7238 20.5537 26.6938 20.6037 26.6538C20.6637 26.6238 20.7137 26.5838 20.7637 26.5438C20.8137 26.4938 20.8637 26.4538 20.9037 26.4038C20.9537 26.3638 20.9937 26.3138 21.0437 26.2638C21.0837 26.2138 21.1237 26.1638 21.1537 26.1038C21.1937 26.0538 21.2237 25.9938 21.2537 25.9338C21.2837 25.8838 21.3137 25.8238 21.3437 25.7638C21.3637 25.6938 21.3837 25.6338 21.4037 25.5738C21.4237 25.5138 21.4437 25.4438 21.4537 25.3838C21.4637 25.3238 21.4737 25.2538 21.4837 25.1938C21.4937 25.1238 21.4937 25.0638 21.4937 24.9938L21.4937 21.4938L24.9937 21.4938C25.0637 21.4938 25.1237 21.4938 25.1937 21.4838C25.2537 21.4738 25.3237 21.4638 25.3837 21.4538C25.4437 21.4438 25.5137 21.4238 25.5737 21.4038C25.6337 21.3838 25.6937 21.3638 25.7637 21.3438C25.8237 21.3138 25.8837 21.2838 25.9337 21.2538C25.9937 21.2238 26.0537 21.1938 26.1037 21.1538C26.1637 21.1238 26.2137 21.0838 26.2637 21.0438C26.3137 20.9938 26.3637 20.9538 26.4037 20.9038C26.4537 20.8638 26.4937 20.8138 26.5437 20.7638C26.5837 20.7138 26.6237 20.6638 26.6537 20.6038C26.6937 20.5538 26.7237 20.4938 26.7537 20.4338C26.7837 20.3838 26.8137 20.3238 26.8437 20.2638C26.8637 20.1938 26.8837 20.1338 26.9037 20.0738C26.9237 20.0138 26.9437 19.9438 26.9537 19.8838C26.9637 19.8238 26.9737 19.7538 26.9837 19.6938C26.9937 19.6238 26.9937 19.5638 26.9937 19.4938C26.9937 19.4238 26.9937 19.3638 26.9837 19.2938C26.9737 19.2338 26.9637 19.1638 26.9537 19.1038C26.9437 19.0438 26.9237 18.9738 26.9037 18.9138C26.8837 18.8538 26.8637 18.7938 26.8437 18.7238C26.8137 18.6638 26.7837 18.6038 26.7537 18.5538C26.7237 18.4938 26.6937 18.4338 26.6537 18.3838C26.6237 18.3238 26.5837 18.2738 26.5437 18.2238C26.4937 18.1738 26.4537 18.1238 26.4037 18.0838C26.3637 18.0338 26.3137 17.9938 26.2637 17.9438C26.2137 17.9038 26.1637 17.8638 26.1037 17.8338C26.0537 17.7938 25.9937 17.7638 25.9337 17.7338C25.8837 17.7038 25.8237 17.6738 25.7637 17.6438C25.6937 17.6238 25.6337 17.6038 25.5737 17.5838C25.5137 17.5638 25.4437 17.5438 25.3837 17.5338C25.3237 17.5238 25.2537 17.5138 25.1937 17.5038C25.1237 17.4938 25.0637 17.4938 24.9937 17.4938L21.4937 17.4938L21.4937 13.9938C21.4937 13.9238 21.4937 13.8638 21.4837 13.7938C21.4737 13.7338 21.4637 13.6638 21.4537 13.6038C21.4437 13.5438 21.4237 13.4738 21.4037 13.4138C21.3837 13.3538 21.3637 13.2938 21.3437 13.2238C21.3137 13.1638 21.2837 13.1038 21.2537 13.0538C21.2237 12.9938 21.1937 12.9338 21.1537 12.8838C21.1237 12.8238 21.0837 12.7738 21.0437 12.7238C20.9937 12.6738 20.9537 12.6238 20.9037 12.5838C20.8637 12.5338 20.8137 12.4938 20.7637 12.4438C20.7137 12.4038 20.6637 12.3638 20.6037 12.3338C20.5537 12.2938 20.4937 12.2638 20.4337 12.2338C20.3837 12.2038 20.3237 12.1738 20.2637 12.1438C20.1937 12.1238 20.1337 12.1038 20.0737 12.0838C20.0137 12.0638 19.9437 12.0438 19.8837 12.0338C19.8237 12.0238 19.7537 12.0138 19.6937 12.0038C19.6237 11.9938 19.5637 11.9938 19.4937 11.9938C19.4237 11.9938 19.3637 11.9938 19.2937 12.0038C19.2337 12.0138 19.1637 12.0238 19.1037 12.0338C19.0437 12.0438 18.9737 12.0638 18.9137 12.0838C18.8537 12.1038 18.7937 12.1238 18.7237 12.1438C18.6637 12.1738 18.6037 12.2038 18.5537 12.2338C18.4937 12.2638 18.4337 12.2938 18.3837 12.3338C18.3237 12.3638 18.2737 12.4038 18.2237 12.4438C18.1737 12.4938 18.1237 12.5338 18.0837 12.5838C18.0337 12.6238 17.9937 12.6738 17.9437 12.7238C17.9037 12.7738 17.8637 12.8238 17.8337 12.8838C17.7937 12.9338 17.7637 12.9938 17.7337 13.0538C17.7037 13.1038 17.6737 13.1638 17.6437 13.2238C17.6237 13.2938 17.6037 13.3538 17.5837 13.4138C17.5637 13.4738 17.5437 13.5438 17.5337 13.6038C17.5237 13.6638 17.5137 13.7338 17.5037 13.7938C17.4937 13.8638 17.4937 13.9238 17.4937 13.9938L17.4937 17.4938L13.9937 17.4938C13.9237 17.4938 13.8637 17.4938 13.7937 17.5038C13.7337 17.5138 13.6637 17.5238 13.6037 17.5338C13.5437 17.5438 13.4737 17.5638 13.4137 17.5838C13.3537 17.6038 13.2937 17.6238 13.2237 17.6438C13.1637 17.6738 13.1037 17.7038 13.0537 17.7338C12.9937 17.7638 12.9337 17.7938 12.8837 17.8338C12.8237 17.8638 12.7737 17.9038 12.7237 17.9438C12.6737 17.9938 12.6237 18.0338 12.5837 18.0838C12.5337 18.1238 12.4937 18.1738 12.4437 18.2238C12.4037 18.2738 12.3637 18.3238 12.3337 18.3838C12.2937 18.4338 12.2637 18.4938 12.2337 18.5538C12.2037 18.6038 12.1737 18.6638 12.1437 18.7238C12.1237 18.7938 12.1037 18.8538 12.0837 18.9138C12.0637 18.9738 12.0437 19.0438 12.0337 19.1038C12.0237 19.1638 12.0137 19.2338 12.0037 19.2938C11.9937 19.3638 11.9937 19.4238 11.9937 19.4938C11.9937 19.5638 11.9937 19.6238 12.0037 19.6938C12.0137 19.7538 12.0237 19.8238 12.0337 19.8838C12.0437 19.9438 12.0637 20.0138 12.0837 20.0738C12.1037 20.1338 12.1237 20.1938 12.1437 20.2638C12.1737 20.3238 12.2037 20.3838 12.2337 20.4338C12.2637 20.4938 12.2937 20.5538 12.3337 20.6038C12.3637 20.6638 12.4037 20.7138 12.4437 20.7638C12.4937 20.8138 12.5337 20.8638 12.5837 20.9038C12.6237 20.9538 12.6737 20.9938 12.7237 21.0438C12.7737 21.0838 12.8237 21.1238 12.8837 21.1538C12.9337 21.1938 12.9937 21.2238 13.0537 21.2538C13.1037 21.2838 13.1637 21.3138 13.2237 21.3438C13.2937 21.3638 13.3537 21.3838 13.4137 21.4038C13.4737 21.4238 13.5437 21.4438 13.6037 21.4538C13.6637 21.4638 13.7337 21.4738 13.7937 21.4838C13.8637 21.4938 13.9237 21.4938 13.9937 21.4938L17.4937 21.4938L17.4937 24.9938ZM42.9137 40.0938L31.4137 28.5938C32.1837 27.5938 32.8137 26.5038 33.3137 25.3338C34.1037 23.4738 34.4937 21.5238 34.4937 19.4938C34.4937 17.4638 34.1037 15.5138 33.3137 13.6538C32.5536 11.8638 31.4837 10.2738 30.1037 8.88377C28.7137 7.50377 27.1237 6.43377 25.3337 5.67377C23.4737 4.88377 21.5237 4.49377 19.4937 4.49377C17.4637 4.49377 15.5137 4.88377 13.6537 5.67377C11.8637 6.43377 10.2737 7.50377 8.88365 8.88377C7.50365 10.2738 6.43365 11.8638 5.67365 13.6538C4.88365 15.5138 4.49365 17.4638 4.49365 19.4938C4.49365 21.5238 4.88365 23.4738 5.67365 25.3338C6.43365 27.1238 7.50365 28.7138 8.88365 30.1038C10.2737 31.4838 11.8637 32.5538 13.6537 33.3138C15.5137 34.1038 17.4637 34.4938 19.4937 34.4938C21.5237 34.4938 23.4737 34.1038 25.3337 33.3138C26.5037 32.8138 27.5937 32.1838 28.5937 31.4138L40.0937 42.9238C40.1837 43.0138 40.2837 43.0938 40.3937 43.1738C40.5037 43.2438 40.6237 43.3038 40.7437 43.3538C40.8637 43.4038 40.9837 43.4438 41.1137 43.4638C41.2437 43.4938 41.3737 43.5038 41.5037 43.5038C41.6337 43.5038 41.7637 43.4938 41.8937 43.4638C42.0237 43.4438 42.1537 43.4038 42.2737 43.3538C42.3937 43.3038 42.5037 43.2438 42.6137 43.1738C42.7237 43.0938 42.8237 43.0138 42.9237 42.9238C43.0137 42.8238 43.0937 42.7238 43.1737 42.6138C43.2437 42.5038 43.3037 42.3938 43.3537 42.2738C43.4037 42.1538 43.4437 42.0238 43.4637 41.8938C43.4937 41.7638 43.5037 41.6338 43.5037 41.5038C43.5037 41.3738 43.4937 41.2438 43.4637 41.1138C43.4437 40.9838 43.4037 40.8638 43.3537 40.7438C43.3037 40.6238 43.2437 40.5038 43.1737 40.3938C43.0937 40.2838 43.0037 40.1838 42.9137 40.0938ZM15.2137 29.6338C16.5737 30.2038 18.0037 30.4938 19.4937 30.4938C20.9837 30.4938 22.4137 30.2038 23.7737 29.6338C25.0937 29.0738 26.2537 28.2838 27.2737 27.2738C28.2837 26.2538 29.0737 25.0938 29.6337 23.7738C30.2037 22.4138 30.4937 20.9838 30.4937 19.4938C30.4937 18.0038 30.2037 16.5738 29.6337 15.2138C29.0737 13.8938 28.2837 12.7338 27.2737 11.7138C26.2537 10.7038 25.0937 9.91377 23.7737 9.35378C22.4137 8.78377 20.9837 8.49377 19.4937 8.49377C18.0037 8.49377 16.5737 8.78377 15.2137 9.35378C13.8937 9.91377 12.7337 10.7038 11.7137 11.7138C10.7037 12.7338 9.91365 13.8938 9.35365 15.2138C8.78365 16.5738 8.49365 18.0038 8.49365 19.4938C8.49365 20.9838 8.78365 22.4138 9.35365 23.7738C9.91365 25.0938 10.7037 26.2538 11.7137 27.2738C12.7337 28.2838 13.8937 29.0738 15.2137 29.6338Z" fill-rule="evenodd"  fill="#000000" >
</path>
</svg>
