<svg xmlns="http://www.w3.org/2000/svg" xmlns:xlink="http://www.w3.org/1999/xlink" width="48" height="48" viewBox="0 0 48 48" fill="none">
<path d="M20 32.9954C20 30.7954 21.79 28.9954 24 28.9954C26.21 28.9954 28 30.7954 28 32.9954L28 39.9954C28 42.2054 29.79 43.9954 32 43.9954L36.5 43.9954C39.81 43.9954 42.5 41.3154 42.5 37.9954L42.5 19.9054C42.5 17.4554 41.37 15.1554 39.45 13.6354L27.72 4.37545C25.54 2.65545 22.46 2.65545 20.28 4.38545L8.55 13.6254C6.63 15.1554 5.5 17.4655 5.5 19.9054L5.5 37.9954C5.5 41.3154 8.19 43.9954 11.5 43.9954L16 43.9954C18.21 43.9954 20 42.2054 20 39.9954L20 32.9954Z" fill-rule="evenodd"  fill="#000000" >
</path>
</svg>
