<svg xmlns="http://www.w3.org/2000/svg" xmlns:xlink="http://www.w3.org/1999/xlink" width="48" height="48" viewBox="0 0 48 48" fill="none">
<path d="M36.5 8.28C33.26 4.76 29.09 3 24 3C18.85 3 14.69 4.67 11.52 8C8.51 11.18 7 15.18 7 20C7 27.87 11.29 35.88 19.86 44.02C22.12 46.21 25.75 46.14 27.95 43.87C36.65 34.68 41 26.72 41 20C41 15.44 39.5 11.53 36.5 8.28ZM24 27C28.42 27 32 23.42 32 19C32 14.58 28.42 11 24 11C19.58 11 16 14.58 16 19C16 23.42 19.58 27 24 27Z" fill-rule="evenodd"  fill="#000000" >
</path>
</svg>
