<svg xmlns="http://www.w3.org/2000/svg" xmlns:xlink="http://www.w3.org/1999/xlink" width="48" height="48" viewBox="0 0 48 48" fill="none">
<path d="M24 45C25.08 45 26.12 44.79 27.11 44.37C28.07 43.96 28.92 43.39 29.66 42.66C30.39 41.92 30.96 41.07 31.37 40.11C31.52 39.75 31.65 39.38 31.75 39L43 39C44.1 39 45 38.1 45 37C45 35.9 44.1 35 43 35L40 35L40 19C40 16.88 39.59 14.84 38.78 12.88C37.97 10.92 36.82 9.19 35.31 7.69C33.81 6.18 32.08 5.03 30.12 4.22C28.16 3.41 26.12 3 24 3C21.88 3 19.84 3.41 17.88 4.22C15.92 5.03 14.19 6.18 12.69 7.69C11.18 9.19 10.03 10.92 9.22 12.88C8.41 14.84 8 16.88 8 19L8 35L5 35C3.9 35 3 35.9 3 37C3 38.1 3.9 39 5 39L16.25 39C16.35 39.38 16.48 39.75 16.63 40.11C17.04 41.07 17.61 41.92 18.34 42.66C19.08 43.39 19.93 43.96 20.89 44.37C21.88 44.79 22.92 45 24 45ZM21.17 39.83C21.54 40.2 21.97 40.48 22.45 40.69C22.94 40.9 23.46 41 24 41C24.54 41 25.06 40.9 25.55 40.69C26.03 40.48 26.46 40.2 26.83 39.83C27.08 39.58 27.29 39.3 27.46 39L20.54 39C20.71 39.3 20.92 39.58 21.17 39.83Z" fill-rule="evenodd"  fill="#000000" >
</path>
</svg>
