<svg xmlns="http://www.w3.org/2000/svg" xmlns:xlink="http://www.w3.org/1999/xlink" width="48" height="48" viewBox="0 0 48 48" fill="none">
<path d="M38 3L10 3C5.58172 3 2 6.58172 2 11L2 37C2 41.4183 5.58172 45 10 45L38 45C42.4183 45 46 41.4183 46 37L46 11C46 6.58172 42.4183 3 38 3ZM42 27L42 11C42 8.79086 40.2091 7 38 7L10 7C7.79086 7 6 8.79086 6 11L6 27L42 27ZM9 36C9 37.1046 9.89543 38 11 38L20 38C21.1046 38 22 37.1046 22 36C22 34.8954 21.1046 34 20 34L11 34C9.89543 34 9 34.8954 9 36ZM29.5 36C29.5 37.1046 28.6046 38 27.5 38L26 38C24.8954 38 24 37.1046 24 36C24 34.8954 24.8954 34 26 34L27.5 34C28.6046 34 29.5 34.8954 29.5 36ZM31.5 36C31.5 37.1046 32.3954 38 33.5 38L37 38C38.1046 38 39 37.1046 39 36C39 34.8954 38.1046 34 37 34L33.5 34C32.3954 34 31.5 34.8954 31.5 36Z" fill-rule="evenodd"  fill="#000000" >
</path>
</svg>
