<svg xmlns="http://www.w3.org/2000/svg" xmlns:xlink="http://www.w3.org/1999/xlink" width="48" height="48" viewBox="0 0 48 48" fill="none">
<path d="M10 3L38 3C42.4183 3 46 6.58172 46 11L46 37C46 41.4183 42.4183 45 38 45L10 45C5.58172 45 2 41.4183 2 37L2 11C2 6.58172 5.58172 3 10 3ZM25 41L38 41C40.2091 41 42 39.2091 42 37L42 11C42 8.79086 40.2091 7 38 7L25 7L25 41ZM11 14C9.89543 14 9 13.1046 9 12C9 10.8954 9.89543 10 11 10L16 10C17.1046 10 18 10.8954 18 12C18 13.1046 17.1046 14 16 14L11 14ZM11 20C9.89543 20 9 19.1046 9 18C9 16.8954 9.89543 16 11 16L14 16C15.1046 16 16 16.8954 16 18C16 19.1046 15.1046 20 14 20L11 20Z" fill-rule="evenodd"  fill="#000000" >
</path>
</svg>
