<svg xmlns="http://www.w3.org/2000/svg" xmlns:xlink="http://www.w3.org/1999/xlink" width="48" height="48" viewBox="0 0 48 48" fill="none">
<path d="M38 3C42.4183 3 46 6.58172 46 11L46 37C46 41.4183 42.4183 45 38 45L10 45C5.58172 45 2 41.4183 2 37L2 11C2 6.58172 5.58172 3 10 3L38 3ZM6 21L6 37C6 39.2091 7.79086 41 10 41L38 41C40.2091 41 42 39.2091 42 37L42 21L6 21ZM11 14C9.89543 14 9 13.1046 9 12C9 10.8954 9.89543 10 11 10L20 10C21.1046 10 22 10.8954 22 12C22 13.1046 21.1046 14 20 14L11 14ZM27.5 14C28.6046 14 29.5 13.1046 29.5 12C29.5 10.8954 28.6046 10 27.5 10L26 10C24.8954 10 24 10.8954 24 12C24 13.1046 24.8954 14 26 14L27.5 14ZM33.5 14C32.3954 14 31.5 13.1046 31.5 12C31.5 10.8954 32.3954 10 33.5 10L37 10C38.1046 10 39 10.8954 39 12C39 13.1046 38.1046 14 37 14L33.5 14Z" fill-rule="evenodd"  fill="#000000" >
</path>
</svg>
