<svg xmlns="http://www.w3.org/2000/svg" xmlns:xlink="http://www.w3.org/1999/xlink" width="48" height="48" viewBox="0 0 48 48" fill="none">
<path d="M22 4C22 5.1 22.9 6 24 6C25.1 6 26 5.1 26 4C26 2.9 25.1 2 24 2C22.9 2 22 2.9 22 4ZM6 8C6 9.1 6.9 10 8 10C9.1 10 10 9.1 10 8C10 6.9 9.1 6 8 6C6.9 6 6 6.9 6 8ZM37 9C37 10.1 37.9 11 39 11C40.1 11 41 10.1 41 9C41 7.9 40.1 7 39 7C37.9 7 37 7.9 37 9ZM24 40C32.84 40 40 32.84 40 24C40 15.16 32.84 8 24 8C15.16 8 8 15.16 8 24C8 32.84 15.16 40 24 40ZM2 24C2 25.1 2.9 26 4 26C5.1 26 6 25.1 6 24C6 22.9 5.1 22 4 22C2.9 22 2 22.9 2 24ZM42 24C42 25.1 42.9 26 44 26C45.1 26 46 25.1 46 24C46 22.9 45.1 22 44 22C42.9 22 42 22.9 42 24ZM6 40C6 41.1 6.9 42 8 42C9.1 42 10 41.1 10 40C10 38.9 9.1 38 8 38C6.9 38 6 38.9 6 40ZM38 40C38 41.1 38.9 42 40 42C41.1 42 42 41.1 42 40C42 38.9 41.1 38 40 38C38.9 38 38 38.9 38 40ZM22 44C22 45.1 22.9 46 24 46C25.1 46 26 45.1 26 44C26 42.9 25.1 42 24 42C22.9 42 22 42.9 22 44Z" fill-rule="evenodd"  fill="#000000" >
</path>
</svg>
