<svg xmlns="http://www.w3.org/2000/svg" xmlns:xlink="http://www.w3.org/1999/xlink" width="48" height="48" viewBox="0 0 48 48" fill="none">
<path d="M8 30C8 30.81 8.16 31.59 8.47 32.34C8.78 33.05 9.2 33.69 9.76 34.24C10.31 34.8 10.95 35.22 11.66 35.53C12.41 35.84 13.19 36 14 36L16 36C16.81 36 17.59 35.84 18.34 35.53C19.05 35.22 19.69 34.8 20.24 34.24C20.8 33.69 21.22 33.05 21.53 32.34C21.84 31.59 22 30.81 22 30L22 10C22 9.19 21.84 8.41 21.53 7.66C21.22 6.95 20.8 6.31 20.24 5.76C19.69 5.2 19.05 4.78 18.34 4.47C17.59 4.16 16.81 4 16 4L14 4C13.19 4 12.41 4.16 11.66 4.47C10.95 4.78 10.31 5.2 9.76 5.76C9.2 6.31 8.78 6.95 8.47 7.66C8.16 8.41 8 9.19 8 10L8 30ZM26 30C26 30.81 26.16 31.59 26.47 32.34C26.78 33.05 27.2 33.69 27.76 34.24C28.31 34.8 28.95 35.22 29.66 35.53C30.41 35.84 31.19 36 32 36L34 36C34.81 36 35.59 35.84 36.34 35.53C37.05 35.22 37.69 34.8 38.24 34.24C38.8 33.69 39.22 33.05 39.53 32.34C39.84 31.59 40 30.81 40 30L40 16C40 15.19 39.84 14.41 39.53 13.66C39.22 12.95 38.8 12.31 38.24 11.76C37.69 11.2 37.05 10.78 36.34 10.47C35.59 10.16 34.81 10 34 10L32 10C31.19 10 30.41 10.16 29.66 10.47C28.95 10.78 28.31 11.2 27.76 11.76C27.2 12.31 26.78 12.95 26.47 13.66C26.16 14.41 26 15.19 26 16L26 30ZM43.96 41.61C43.95 41.55 43.93 41.48 43.91 41.42C43.89 41.36 43.87 41.3 43.85 41.23C43.82 41.17 43.79 41.11 43.76 41.06C43.73 41 43.7 40.94 43.66 40.89C43.63 40.83 43.59 40.78 43.55 40.73C43.5 40.68 43.46 40.63 43.41 40.59C43.37 40.54 43.32 40.5 43.27 40.45C43.22 40.41 43.17 40.37 43.11 40.34C43.06 40.3 43 40.27 42.94 40.24C42.89 40.21 42.83 40.18 42.77 40.15C42.7 40.13 42.64 40.11 42.58 40.09C42.52 40.07 42.45 40.05 42.39 40.04C42.33 40.03 42.26 40.02 42.2 40.01C42.13 40 42.07 40 42 40L6 40C5.93 40 5.87 40 5.8 40.01C5.74 40.02 5.67 40.03 5.61 40.04C5.55 40.05 5.48 40.07 5.42 40.09C5.36 40.11 5.3 40.13 5.23 40.15C5.17 40.18 5.12 40.21 5.06 40.24C5 40.27 4.94 40.3 4.89 40.34C4.83 40.37 4.78 40.41 4.73 40.45C4.68 40.5 4.63 40.54 4.59 40.59C4.54 40.63 4.5 40.68 4.45 40.73C4.41 40.78 4.37 40.83 4.34 40.89C4.3 40.94 4.27 41 4.24 41.06C4.21 41.11 4.18 41.17 4.15 41.23C4.13 41.3 4.11 41.36 4.09 41.42C4.07 41.48 4.05 41.55 4.04 41.61C4.03 41.67 4.02 41.74 4.01 41.8C4 41.87 4 41.93 4 42C4 42.07 4 42.13 4.01 42.2C4.02 42.26 4.03 42.33 4.04 42.39C4.05 42.45 4.07 42.52 4.09 42.58C4.11 42.64 4.13 42.7 4.15 42.77C4.18 42.83 4.21 42.89 4.24 42.94C4.27 43 4.3 43.06 4.34 43.11C4.37 43.17 4.41 43.22 4.45 43.27C4.5 43.32 4.54 43.37 4.59 43.41C4.63 43.46 4.68 43.5 4.73 43.55C4.78 43.59 4.83 43.63 4.89 43.66C4.94 43.7 5 43.73 5.06 43.76C5.12 43.79 5.17 43.82 5.23 43.85C5.3 43.87 5.36 43.89 5.42 43.91C5.48 43.93 5.55 43.95 5.61 43.96C5.67 43.97 5.74 43.98 5.8 43.99C5.87 44 5.93 44 6 44L42 44C42.07 44 42.13 44 42.2 43.99C42.26 43.98 42.33 43.97 42.39 43.96C42.45 43.95 42.52 43.93 42.58 43.91C42.64 43.89 42.7 43.87 42.77 43.85C42.83 43.82 42.89 43.79 42.94 43.76C43 43.73 43.06 43.7 43.11 43.66C43.17 43.63 43.22 43.59 43.27 43.55C43.32 43.5 43.37 43.46 43.41 43.41C43.46 43.37 43.5 43.32 43.55 43.27C43.59 43.22 43.63 43.17 43.66 43.11C43.7 43.06 43.73 43 43.76 42.94C43.79 42.89 43.82 42.83 43.85 42.77C43.87 42.7 43.89 42.64 43.91 42.58C43.93 42.52 43.95 42.45 43.96 42.39C43.97 42.33 43.98 42.26 43.99 42.2C44 42.13 44 42.07 44 42C44 41.93 44 41.87 43.99 41.8C43.98 41.74 43.97 41.67 43.96 41.61Z" fill-rule="evenodd"  fill="#000000" >
</path>
</svg>
