<svg xmlns="http://www.w3.org/2000/svg" xmlns:xlink="http://www.w3.org/1999/xlink" width="48" height="48" viewBox="0 0 48 48" fill="none">
<path d="M41.61 4.04C41.55 4.05 41.48 4.07 41.42 4.09C41.36 4.11 41.3 4.13 41.23 4.15C41.17 4.18 41.11 4.21 41.06 4.24C41 4.27 40.94 4.3 40.89 4.34C40.83 4.37 40.78 4.41 40.73 4.45C40.68 4.5 40.63 4.54 40.59 4.59C40.54 4.63 40.5 4.68 40.45 4.73C40.41 4.78 40.37 4.83 40.34 4.89C40.3 4.94 40.27 5 40.24 5.06C40.21 5.11 40.18 5.17 40.15 5.23C40.13 5.3 40.11 5.36 40.09 5.42C40.07 5.48 40.05 5.55 40.04 5.61C40.03 5.67 40.02 5.74 40.01 5.8C40 5.87 40 5.93 40 6L40 42C40 42.07 40 42.13 40.01 42.2C40.02 42.26 40.03 42.33 40.04 42.39C40.05 42.45 40.07 42.52 40.09 42.58C40.11 42.64 40.13 42.7 40.15 42.77C40.18 42.83 40.21 42.88 40.24 42.94C40.27 43 40.3 43.06 40.34 43.11C40.37 43.17 40.41 43.22 40.45 43.27C40.5 43.32 40.54 43.37 40.59 43.41C40.63 43.46 40.68 43.5 40.73 43.55C40.78 43.59 40.83 43.63 40.89 43.66C40.94 43.7 41 43.73 41.06 43.76C41.11 43.79 41.17 43.82 41.23 43.85C41.3 43.87 41.36 43.89 41.42 43.91C41.48 43.93 41.55 43.95 41.61 43.96C41.67 43.97 41.74 43.98 41.8 43.99C41.87 44 41.93 44 42 44C42.07 44 42.13 44 42.2 43.99C42.26 43.98 42.33 43.97 42.39 43.96C42.45 43.95 42.52 43.93 42.58 43.91C42.64 43.89 42.7 43.87 42.77 43.85C42.83 43.82 42.89 43.79 42.94 43.76C43 43.73 43.06 43.7 43.11 43.66C43.17 43.63 43.22 43.59 43.27 43.55C43.32 43.5 43.37 43.46 43.41 43.41C43.46 43.37 43.5 43.32 43.55 43.27C43.59 43.22 43.63 43.17 43.66 43.11C43.7 43.06 43.73 43 43.76 42.94C43.79 42.88 43.82 42.83 43.85 42.77C43.87 42.7 43.89 42.64 43.91 42.58C43.93 42.52 43.95 42.45 43.96 42.39C43.97 42.33 43.98 42.26 43.99 42.2C44 42.13 44 42.07 44 42L44 6C44 5.93 44 5.87 43.99 5.8C43.98 5.74 43.97 5.67 43.96 5.61C43.95 5.55 43.93 5.48 43.91 5.42C43.89 5.36 43.87 5.3 43.85 5.23C43.82 5.17 43.79 5.11 43.76 5.06C43.73 5 43.7 4.94 43.66 4.89C43.63 4.83 43.59 4.78 43.55 4.73C43.5 4.68 43.46 4.63 43.41 4.59C43.37 4.54 43.32 4.5 43.27 4.45C43.22 4.41 43.17 4.37 43.11 4.34C43.06 4.3 43 4.27 42.94 4.24C42.89 4.21 42.83 4.18 42.77 4.15C42.7 4.13 42.64 4.11 42.58 4.09C42.52 4.07 42.45 4.05 42.39 4.04C42.33 4.03 42.26 4.02 42.2 4.01C42.13 4 42.07 4 42 4C41.93 4 41.87 4 41.8 4.01C41.74 4.02 41.67 4.03 41.61 4.04ZM30 22C30.81 22 31.59 21.84 32.34 21.53C33.05 21.22 33.69 20.8 34.24 20.24C34.8 19.69 35.22 19.05 35.53 18.34C35.84 17.59 36 16.81 36 16L36 14C36 13.19 35.84 12.41 35.53 11.66C35.22 10.95 34.8 10.31 34.24 9.76C33.69 9.2 33.05 8.78 32.34 8.47C31.59 8.16 30.81 8 30 8L16 8C15.19 8 14.41 8.16 13.66 8.47C12.95 8.78 12.31 9.2 11.76 9.76C11.2 10.31 10.78 10.95 10.47 11.66C10.16 12.41 10 13.19 10 14L10 16C10 16.81 10.16 17.59 10.47 18.34C10.78 19.05 11.2 19.69 11.76 20.24C12.31 20.8 12.95 21.22 13.66 21.53C14.41 21.84 15.19 22 16 22L30 22ZM30 40C30.81 40 31.59 39.84 32.34 39.53C33.05 39.22 33.69 38.8 34.24 38.24C34.8 37.69 35.22 37.05 35.53 36.34C35.84 35.59 36 34.81 36 34L36 32C36 31.19 35.84 30.41 35.53 29.66C35.22 28.95 34.8 28.31 34.24 27.76C33.69 27.2 33.05 26.78 32.34 26.47C31.59 26.16 30.81 26 30 26L10 26C9.19 26 8.41 26.16 7.66 26.47C6.95 26.78 6.31 27.2 5.76 27.76C5.2 28.31 4.78 28.95 4.47 29.66C4.16 30.41 4 31.19 4 32L4 34C4 34.81 4.16 35.59 4.47 36.34C4.78 37.05 5.2 37.69 5.76 38.24C6.31 38.8 6.95 39.22 7.66 39.53C8.41 39.84 9.19 40 10 40L30 40Z" fill-rule="evenodd"  fill="#000000" >
</path>
</svg>
