<svg xmlns="http://www.w3.org/2000/svg" xmlns:xlink="http://www.w3.org/1999/xlink" width="48" height="48" viewBox="0 0 48 48" fill="none">
<path d="M23.61 4.04C23.55 4.05 23.48 4.07 23.42 4.09C23.36 4.11 23.3 4.13 23.23 4.15C23.17 4.18 23.11 4.21 23.06 4.24C23 4.27 22.94 4.3 22.89 4.34C22.83 4.37 22.78 4.41 22.73 4.45C22.68 4.5 22.63 4.54 22.59 4.59C22.54 4.63 22.5 4.68 22.45 4.73C22.41 4.78 22.37 4.83 22.34 4.89C22.3 4.94 22.27 5 22.24 5.06C22.21 5.11 22.18 5.17 22.15 5.23C22.13 5.3 22.11 5.36 22.09 5.42C22.07 5.48 22.05 5.55 22.04 5.61C22.03 5.67 22.02 5.74 22.01 5.8C22 5.87 22 5.93 22 6L22 8L17 8C16.19 8 15.41 8.16 14.66 8.47C13.95 8.78 13.31 9.2 12.76 9.76C12.2 10.31 11.78 10.95 11.47 11.66C11.16 12.41 11 13.19 11 14L11 16C11 16.81 11.16 17.59 11.47 18.34C11.78 19.05 12.2 19.69 12.76 20.24C13.31 20.8 13.95 21.22 14.66 21.53C15.41 21.84 16.19 22 17 22L22 22L22 26L14 26C13.19 26 12.41 26.16 11.66 26.47C10.95 26.78 10.31 27.2 9.76 27.76C9.2 28.31 8.78 28.95 8.47 29.66C8.16 30.41 8 31.19 8 32L8 34C8 34.81 8.16 35.59 8.47 36.34C8.78 37.05 9.2 37.69 9.76 38.24C10.31 38.8 10.95 39.22 11.66 39.53C12.41 39.84 13.19 40 14 40L22 40L22 42C22 42.07 22 42.13 22.01 42.2C22.02 42.26 22.03 42.33 22.04 42.39C22.05 42.45 22.07 42.52 22.09 42.58C22.11 42.64 22.13 42.7 22.15 42.77C22.18 42.83 22.21 42.88 22.24 42.94C22.27 43 22.3 43.06 22.34 43.11C22.37 43.17 22.41 43.22 22.45 43.27C22.5 43.32 22.54 43.37 22.59 43.41C22.63 43.46 22.68 43.5 22.73 43.55C22.78 43.59 22.83 43.63 22.89 43.66C22.94 43.7 23 43.73 23.06 43.76C23.11 43.79 23.17 43.82 23.23 43.85C23.3 43.87 23.36 43.89 23.42 43.91C23.48 43.93 23.55 43.95 23.61 43.96C23.67 43.97 23.74 43.98 23.8 43.99C23.87 44 23.93 44 24 44C24.07 44 24.13 44 24.2 43.99C24.26 43.98 24.33 43.97 24.39 43.96C24.45 43.95 24.52 43.93 24.58 43.91C24.64 43.89 24.7 43.87 24.77 43.85C24.83 43.82 24.89 43.79 24.94 43.76C25 43.73 25.06 43.7 25.11 43.66C25.17 43.63 25.22 43.59 25.27 43.55C25.32 43.5 25.37 43.46 25.41 43.41C25.46 43.37 25.5 43.32 25.55 43.27C25.59 43.22 25.63 43.17 25.66 43.11C25.7 43.06 25.73 43 25.76 42.94C25.79 42.88 25.82 42.83 25.85 42.77C25.87 42.7 25.89 42.64 25.91 42.58C25.93 42.52 25.95 42.45 25.96 42.39C25.97 42.33 25.98 42.26 25.99 42.2C26 42.13 26 42.07 26 42L26 40L34 40C34.81 40 35.59 39.84 36.34 39.53C37.05 39.22 37.69 38.8 38.24 38.24C38.8 37.69 39.22 37.05 39.53 36.34C39.84 35.59 40 34.81 40 34L40 32C40 31.19 39.84 30.41 39.53 29.66C39.22 28.95 38.8 28.31 38.24 27.76C37.69 27.2 37.05 26.78 36.34 26.47C35.59 26.16 34.81 26 34 26L26 26L26 22L31 22C31.81 22 32.59 21.84 33.34 21.53C34.05 21.22 34.69 20.8 35.24 20.24C35.8 19.69 36.22 19.05 36.53 18.34C36.84 17.59 37 16.81 37 16L37 14C37 13.19 36.84 12.41 36.53 11.66C36.22 10.95 35.8 10.31 35.24 9.76C34.69 9.2 34.05 8.78 33.34 8.47C32.59 8.16 31.81 8 31 8L26 8L26 6C26 5.93 26 5.87 25.99 5.8C25.98 5.74 25.97 5.67 25.96 5.61C25.95 5.55 25.93 5.48 25.91 5.42C25.89 5.36 25.87 5.3 25.85 5.23C25.82 5.17 25.79 5.11 25.76 5.06C25.73 5 25.7 4.94 25.66 4.89C25.63 4.83 25.59 4.78 25.55 4.73C25.5 4.68 25.46 4.63 25.41 4.59C25.37 4.54 25.32 4.5 25.27 4.45C25.22 4.41 25.17 4.37 25.11 4.34C25.06 4.3 25 4.27 24.94 4.24C24.89 4.21 24.83 4.18 24.77 4.15C24.7 4.13 24.64 4.11 24.58 4.09C24.52 4.07 24.45 4.05 24.39 4.04C24.33 4.03 24.26 4.02 24.2 4.01C24.13 4 24.07 4 24 4C23.93 4 23.87 4 23.8 4.01C23.74 4.02 23.67 4.03 23.61 4.04Z" fill-rule="evenodd"  fill="#000000" >
</path>
</svg>
