<svg xmlns="http://www.w3.org/2000/svg" xmlns:xlink="http://www.w3.org/1999/xlink" width="48" height="48" viewBox="0 0 48 48" fill="none">
<path d="M7.75982 22.8373L29.2998 33.4273L36.5398 17.9073C37.9402 14.9041 36.633 11.3277 33.6298 9.92729L22.7598 4.85728C19.7566 3.45691 16.1802 4.76407 14.7798 7.76729L7.75982 22.8373ZM5.70982 27.2173C3.84265 31.2216 5.57553 35.9901 9.57982 37.8573L16.8298 41.2373C17.9481 41.7588 19.1253 41.9994 20.2819 41.9882C20.3535 41.996 20.4263 42 20.5 42L41 42C42.1046 42 43 41.1046 43 40C43 38.8954 42.1046 38 41 38L27.1303 38C27.2483 37.796 27.3583 37.585 27.4598 37.3673L27.6198 37.0673L6.05982 26.4673L5.70982 27.2173Z" fill-rule="evenodd"  fill="#000000" >
</path>
</svg>
