<svg xmlns="http://www.w3.org/2000/svg" xmlns:xlink="http://www.w3.org/1999/xlink" width="48" height="48" viewBox="0 0 48 48" fill="none">
<path d="M18.3454 43.1749C19.1154 43.9449 19.9954 44.5249 20.9954 44.9249C21.9554 45.3149 22.9554 45.5149 24.0054 45.5149C25.0454 45.5149 26.0454 45.3149 27.0054 44.9249C28.0054 44.5249 28.8854 43.9449 29.6554 43.1749L43.1754 29.6549C43.9454 28.8849 44.5254 28.0049 44.9254 27.0049C45.3154 26.0449 45.5154 25.0449 45.5154 24.0049C45.5154 22.9549 45.3154 21.9549 44.9254 20.9949C44.5254 19.9949 43.9454 19.1149 43.1754 18.3449L29.6554 4.82486C28.8854 4.05486 28.0054 3.47486 27.0054 3.07486C26.0454 2.68486 25.0454 2.48486 24.0054 2.48486C22.9554 2.48486 21.9554 2.68486 20.9954 3.07486C19.9954 3.47486 19.1154 4.05486 18.3454 4.82486L4.82535 18.3449C4.05535 19.1149 3.47535 19.9949 3.07535 20.9949C2.68535 21.9549 2.48535 22.9549 2.48535 24.0049C2.48535 25.0449 2.68535 26.0449 3.07535 27.0049C3.47535 28.0049 4.05535 28.8849 4.82535 29.6549L18.3454 43.1749ZM20.4954 15.7149C19.4154 16.1649 18.4554 16.8049 17.6254 17.6349C16.7954 18.4649 16.1554 19.4249 15.7054 20.5049C15.2354 21.6149 14.9954 22.7849 14.9954 24.0049C14.9954 25.2249 15.2354 26.3949 15.7054 27.5049C16.1554 28.5849 16.7954 29.5449 17.6254 30.3749C18.4554 31.2049 19.4154 31.8449 20.4954 32.2949C21.6054 32.7649 22.7754 33.0049 23.9954 33.0049C25.2154 33.0049 26.3854 32.7649 27.4954 32.2949C28.5754 31.8449 29.5354 31.2049 30.3654 30.3749C31.1954 29.5449 31.8354 28.5849 32.2854 27.5049C32.7554 26.3949 32.9954 25.2249 32.9954 24.0049C32.9954 22.7849 32.7554 21.6149 32.2854 20.5049C31.8354 19.4249 31.1954 18.4649 30.3654 17.6349C29.5354 16.8049 28.5754 16.1649 27.4954 15.7149C26.3854 15.2449 25.2154 15.0049 23.9954 15.0049C22.7754 15.0049 21.6054 15.2449 20.4954 15.7149Z" fill-rule="evenodd"  fill="#000000" >
</path>
</svg>
