<svg xmlns="http://www.w3.org/2000/svg" xmlns:xlink="http://www.w3.org/1999/xlink" width="48" height="48" viewBox="0 0 48 48" fill="none">
<path d="M21 39C16.5817 39 13 35.4183 13 31L13 11C13 6.58172 16.5817 3 21 3L33 3C37.4183 3 41 6.58172 41 11L41 31C41 35.4183 37.4183 39 33 39L21 39ZM7 15L7 33C7 39.6274 12.3726 45 19 45L31 45C32.1046 45 33 44.1046 33 43C33 41.8954 32.1046 41 31 41L19 41C14.5817 41 11 37.4183 11 33L11 15C11 13.8954 10.1046 13 9 13C7.89543 13 7 13.8954 7 15Z" fill-rule="evenodd"  fill="#000000" >
</path>
</svg>
