<svg xmlns="http://www.w3.org/2000/svg" xmlns:xlink="http://www.w3.org/1999/xlink" width="48" height="48" viewBox="0 0 48 48" fill="none">
<path d="M40 13L40 37C40 41.4183 36.4183 45 32 45L16 45C11.5817 45 8 41.4183 8 37L8 13L5 13C3.89543 13 3 12.1046 3 11C3 9.89543 3.89543 9 5 9L16 9C16 5.68629 18.6863 3 22 3L26 3C29.3137 3 32 5.68629 32 9L43 9C44.1046 9 45 9.89543 45 11C45 12.1046 44.1046 13 43 13L40 13ZM28 9C28 7.89543 27.1046 7 26 7L22 7C20.8954 7 20 7.89543 20 9L28 9Z" fill-rule="evenodd"  fill="#000000" >
</path>
</svg>
