<svg xmlns="http://www.w3.org/2000/svg" xmlns:xlink="http://www.w3.org/1999/xlink" width="48" height="48" viewBox="0 0 48 48" fill="none">
<path d="M19.5315 38.9414C19.5915 38.9614 19.6515 38.9714 19.7215 38.9814C19.7815 38.9914 19.8515 39.0014 19.9115 39.0014L20.1115 39.0014C20.1815 38.9914 20.2415 38.9914 20.3115 38.9814C20.3715 38.9714 20.4315 38.9514 20.5015 38.9414C20.5615 38.9214 20.6215 38.9014 20.6915 38.8814C20.7515 38.8614 20.8115 38.8314 20.8715 38.8014C20.9315 38.7714 20.9815 38.7414 21.0415 38.7114C21.1015 38.6714 21.1515 38.6414 21.2015 38.6014C21.2515 38.5614 21.3015 38.5214 21.3515 38.4714C21.4015 38.4314 21.4515 38.3814 21.4915 38.3314C21.5315 38.2814 21.5815 38.2314 21.6115 38.1814C21.6515 38.1314 21.6915 38.0714 21.7215 38.0214C21.7615 37.9614 21.7915 37.9014 21.8115 37.8414C21.8415 37.7814 21.8715 37.7214 21.8915 37.6614C21.9115 37.6014 21.9315 37.5414 21.9415 37.4714C21.9615 37.4114 21.9715 37.3514 21.9815 37.2814C21.9915 37.2214 22.0015 37.1514 22.0015 37.0914L22.0015 36.8914C21.9915 36.8214 21.9915 36.7614 21.9815 36.6914C21.9715 36.6314 21.9515 36.5714 21.9415 36.5014C21.9215 36.4414 21.9015 36.3814 21.8815 36.3114C21.8615 36.2514 21.8315 36.1914 21.8015 36.1314C21.7715 36.0714 21.7415 36.0214 21.7115 35.9614C21.6715 35.9014 21.6415 35.8514 21.6015 35.8014C21.5615 35.7514 21.5215 35.7014 21.4715 35.6514C21.4315 35.6014 21.3815 35.5514 21.3315 35.5114L11.8315 27.0114C11.7415 26.9214 11.6315 26.8414 11.5215 26.7814C11.4015 26.7114 11.2915 26.6614 11.1615 26.6114C11.0415 26.5714 10.9115 26.5414 10.7815 26.5214C10.6515 26.5014 10.5215 26.5014 10.3915 26.5014C10.2615 26.5114 10.1315 26.5314 10.0015 26.5614C9.87152 26.6014 9.75152 26.6414 9.63152 26.7014C9.51152 26.7514 9.40152 26.8214 9.30152 26.9014C9.19152 26.9814 9.10152 27.0714 9.01152 27.1714C8.92152 27.2614 8.84152 27.3714 8.78152 27.4814C8.71152 27.6014 8.66152 27.7114 8.61152 27.8414C8.57152 27.9614 8.54152 28.0914 8.52152 28.2214C8.50152 28.3514 8.50152 28.4814 8.50152 28.6114C8.51152 28.7414 8.53152 28.8714 8.56152 29.0014C8.60152 29.1314 8.64152 29.2514 8.70152 29.3714C8.75152 29.4914 8.82152 29.6014 8.90152 29.7014C8.98152 29.8114 9.07152 29.9014 9.17152 29.9914L18.6715 38.4914C18.7215 38.5314 18.7715 38.5814 18.8215 38.6114C18.8715 38.6514 18.9315 38.6914 18.9815 38.7214C19.0415 38.7614 19.1015 38.7914 19.1615 38.8114C19.2215 38.8414 19.2815 38.8714 19.3415 38.8914C19.4015 38.9114 19.4615 38.9314 19.5315 38.9414ZM23.4115 6.20141L6.32152 23.2914C5.76152 23.8514 5.32152 24.5014 5.03152 25.2314C4.71152 25.9714 4.56152 26.7314 4.57152 27.5314L4.57152 40.0014C4.56152 40.4114 4.64152 40.8014 4.80152 41.1714C4.95152 41.5314 5.16152 41.8414 5.44152 42.1314C5.72152 42.4014 6.03152 42.6114 6.39152 42.7614C6.77152 42.9214 7.15152 43.0014 7.55152 43.0014L7.56152 43.0014L22.8615 43.0414L23.6915 43.0414L39.9015 43.0014C39.9315 43.0014 39.9615 43.0014 40.0015 43.0014C41.1015 43.0014 42.0015 42.1014 42.0015 41.0014C42.0015 39.9014 41.1015 39.0014 40.0015 39.0014L39.9815 39.0014L39.9815 38.9914L27.6315 39.0314L41.8515 24.5714C42.4215 23.9914 42.8515 23.3314 43.1515 22.5814C43.4415 21.8714 43.5815 21.1214 43.5815 20.3414C43.5715 19.5614 43.4215 18.8114 43.1315 18.1014C42.8215 17.3514 42.3915 16.6914 41.8215 16.1214L31.9015 6.20141C31.3215 5.63141 30.6615 5.19141 29.9115 4.88141C29.1915 4.59141 28.4415 4.44141 27.6515 4.44141C26.8715 4.44141 26.1215 4.59141 25.4015 4.88141C24.6515 5.19141 23.9815 5.63141 23.4115 6.20141Z" fill-rule="evenodd"  fill="#000000" >
</path>
</svg>
