<svg xmlns="http://www.w3.org/2000/svg" xmlns:xlink="http://www.w3.org/1999/xlink" width="48" height="48" viewBox="0 0 48 48" fill="none">
<path d="M38.0124 28.213C38.0224 27.953 37.9924 27.703 37.9024 27.443L37.9024 27.433L31.1024 8.38297C31.0124 8.12297 30.8724 7.90297 30.6924 7.70297C30.5224 7.50297 30.3124 7.35297 30.0624 7.22297C29.8224 7.12297 29.5824 7.06297 29.3024 7.04297C29.0424 7.03297 28.7824 7.07297 28.5324 7.16297L9.93241 13.933L14.7724 16.953C15.0524 17.123 15.3024 17.333 15.5124 17.593C15.7324 17.853 15.9124 18.153 16.0224 18.473L21.3824 33.183C21.4724 33.433 21.6024 33.653 21.7824 33.853C21.9524 34.033 22.1624 34.193 22.3924 34.303C22.6324 34.413 22.8724 34.483 23.1324 34.493C23.3924 34.513 23.6624 34.483 23.9124 34.383L36.6724 30.003C36.9224 29.923 37.1424 29.783 37.3524 29.603C37.5424 29.433 37.7024 29.223 37.8124 28.983C37.9324 28.733 38.0024 28.483 38.0124 28.213ZM37.9624 33.783C38.7324 33.513 39.4024 33.123 40.0124 32.593C40.6024 32.063 41.0724 31.433 41.4124 30.703C41.7724 29.993 41.9624 29.233 42.0024 28.433C42.0524 27.633 41.9324 26.863 41.6724 26.103L41.6724 26.093L34.8724 7.03297C34.6024 6.28297 34.2024 5.60297 33.6624 5.01297C33.1324 4.42297 32.5024 3.95297 31.7724 3.62297C31.0424 3.28297 30.2824 3.09297 29.4924 3.05297C28.6924 3.01297 27.9124 3.13297 27.1624 3.40297L7.19241 10.673C6.81241 10.813 6.47241 11.023 6.18241 11.303C5.89241 11.563 5.67241 11.873 5.50241 12.223C5.33241 12.583 5.24241 12.953 5.23241 13.343C5.20241 13.743 5.26241 14.133 5.40241 14.523L5.66241 15.223C5.89241 15.873 6.30241 16.383 6.88241 16.753L12.3924 20.183L17.6224 34.553C17.8924 35.303 18.2924 35.973 18.8424 36.563C19.3624 37.123 19.9724 37.573 20.6724 37.913C21.3724 38.253 22.1124 38.443 22.8724 38.493C23.6724 38.543 24.4524 38.433 25.2024 38.173L37.9624 33.783ZM8.61241 44.963C8.67241 44.983 8.74241 44.993 8.80241 44.993C8.87241 45.003 8.93241 45.003 9.00241 45.003L39.0024 45.003C39.0724 45.003 39.1324 45.003 39.2024 44.993C39.2624 44.983 39.3324 44.973 39.3924 44.963C39.4524 44.953 39.5224 44.933 39.5824 44.913C39.6424 44.893 39.7024 44.873 39.7724 44.853C39.8324 44.823 39.8924 44.793 39.9424 44.763C40.0024 44.733 40.0624 44.703 40.1124 44.663C40.1724 44.633 40.2224 44.593 40.2724 44.553C40.3224 44.503 40.3724 44.463 40.4124 44.413C40.4624 44.373 40.5024 44.323 40.5524 44.273C40.5924 44.223 40.6324 44.173 40.6624 44.113C40.7024 44.063 40.7324 44.003 40.7624 43.943C40.7924 43.883 40.8224 43.833 40.8524 43.773C40.8724 43.703 40.8924 43.643 40.9124 43.583C40.9324 43.523 40.9524 43.453 40.9624 43.393C40.9724 43.333 40.9824 43.263 40.9924 43.203C41.0024 43.133 41.0024 43.073 41.0024 43.003C41.0024 42.933 41.0024 42.873 40.9924 42.803C40.9824 42.743 40.9724 42.673 40.9624 42.613C40.9524 42.553 40.9324 42.483 40.9124 42.423C40.8924 42.363 40.8724 42.303 40.8524 42.233C40.8224 42.173 40.7924 42.113 40.7624 42.063C40.7324 42.003 40.7024 41.943 40.6624 41.893C40.6324 41.833 40.5924 41.783 40.5524 41.733C40.5024 41.683 40.4624 41.633 40.4124 41.593C40.3724 41.543 40.3224 41.503 40.2724 41.453C40.2224 41.413 40.1724 41.373 40.1124 41.343C40.0624 41.303 40.0024 41.273 39.9424 41.243C39.8924 41.213 39.8324 41.183 39.7724 41.153C39.7024 41.133 39.6424 41.113 39.5824 41.093C39.5224 41.073 39.4524 41.053 39.3924 41.043C39.3324 41.033 39.2624 41.023 39.2024 41.013C39.1324 41.003 39.0724 41.003 39.0024 41.003L9.00241 41.003C8.93241 41.003 8.87241 41.013 8.80241 41.013C8.74241 41.023 8.67241 41.033 8.61241 41.043C8.55241 41.053 8.48241 41.073 8.42241 41.093C8.36241 41.113 8.30241 41.133 8.23241 41.153C8.17241 41.183 8.11241 41.213 8.06241 41.243C8.00241 41.273 7.94241 41.303 7.89241 41.343C7.83241 41.383 7.78241 41.413 7.73241 41.463C7.68241 41.503 7.63241 41.543 7.59241 41.593C7.54241 41.633 7.50241 41.683 7.45241 41.733C7.41241 41.783 7.37241 41.843 7.34241 41.893C7.30241 41.953 7.27241 42.003 7.24241 42.063L7.15241 42.243L7.09241 42.423C7.07241 42.483 7.05241 42.553 7.04241 42.613C7.03241 42.683 7.02241 42.743 7.01241 42.813C7.00241 42.873 7.00241 42.943 7.00241 43.003C7.00241 43.073 7.00241 43.133 7.01241 43.203C7.02241 43.263 7.03241 43.333 7.04241 43.393C7.05241 43.463 7.07241 43.523 7.09241 43.583C7.11241 43.653 7.13241 43.713 7.15241 43.773L7.24241 43.953C7.27241 44.003 7.30241 44.063 7.34241 44.113C7.37241 44.173 7.41241 44.223 7.45241 44.273C7.50241 44.323 7.54241 44.373 7.59241 44.423C7.63241 44.463 7.68241 44.513 7.73241 44.553C7.78241 44.593 7.83241 44.633 7.89241 44.673C7.94241 44.703 8.00241 44.743 8.06241 44.773C8.12241 44.803 8.17241 44.833 8.23241 44.853C8.30241 44.883 8.36241 44.903 8.42241 44.923C8.48241 44.943 8.55241 44.953 8.61241 44.963Z" fill-rule="evenodd"  fill="#000000" >
</path>
</svg>
