<svg xmlns="http://www.w3.org/2000/svg" xmlns:xlink="http://www.w3.org/1999/xlink" width="48" height="48" viewBox="0 0 48 48" fill="none">
<path d="M40.9914 43.1959C41.0014 43.1259 41.0014 43.0659 41.0014 42.9959C41.0014 42.9259 41.0014 42.8659 40.9914 42.7959C40.9814 42.7359 40.9714 42.6659 40.9614 42.6059C40.9514 42.5459 40.9314 42.4759 40.9114 42.4159C40.8914 42.3559 40.8714 42.2959 40.8514 42.2259C40.8214 42.1659 40.7914 42.1059 40.7614 42.0559C40.7314 41.9959 40.7014 41.9359 40.6614 41.8859C40.6314 41.8259 40.5914 41.7759 40.5514 41.7259C40.5014 41.6759 40.4614 41.6259 40.4114 41.5859C40.3714 41.5359 40.3214 41.4959 40.2714 41.4459C40.2214 41.4059 40.1714 41.3659 40.1114 41.3359C40.0614 41.2959 40.0014 41.2659 39.9414 41.2359C39.8914 41.2059 39.8314 41.1759 39.7714 41.1459C39.7014 41.1259 39.6414 41.1059 39.5814 41.0859C39.5214 41.0659 39.4514 41.0459 39.3914 41.0359C39.3314 41.0259 39.2614 41.0159 39.2014 41.0059C39.1314 40.9959 39.0714 40.9959 39.0014 40.9959L9.00144 40.9959C8.93144 40.9959 8.87144 41.0059 8.80144 41.0059C8.74144 41.0159 8.67144 41.0259 8.61144 41.0359C8.55144 41.0459 8.48144 41.0659 8.42144 41.0859C8.36144 41.1059 8.30144 41.1259 8.23144 41.1459C8.17144 41.1759 8.11144 41.2059 8.06144 41.2359C8.00144 41.2659 7.94144 41.2959 7.89144 41.3359C7.83144 41.3759 7.78144 41.4059 7.73144 41.4559C7.68144 41.4959 7.63144 41.5359 7.59144 41.5859C7.54144 41.6259 7.50144 41.6759 7.45144 41.7259C7.41144 41.7759 7.37144 41.8359 7.34144 41.8859C7.30144 41.9459 7.27144 41.9959 7.24144 42.0559L7.15144 42.2359L7.09144 42.4159C7.07144 42.4759 7.05144 42.5459 7.04144 42.6059C7.03144 42.6759 7.02144 42.7359 7.01144 42.8059C7.00144 42.8659 7.00144 42.9359 7.00144 42.9959C7.00144 43.0659 7.00144 43.1259 7.01144 43.1959C7.02144 43.2559 7.03144 43.3259 7.04144 43.3859C7.05144 43.4559 7.07144 43.5159 7.09144 43.5759C7.11144 43.6459 7.13144 43.7059 7.15144 43.7659L7.24144 43.9459C7.27144 43.9959 7.30144 44.0559 7.34144 44.1059C7.37144 44.1659 7.41144 44.2159 7.45144 44.2659C7.50144 44.3159 7.54144 44.3659 7.59144 44.4159C7.63144 44.4559 7.68144 44.5059 7.73144 44.5459C7.78144 44.5859 7.83144 44.6259 7.89144 44.6659C7.94144 44.6959 8.00144 44.7359 8.06144 44.7659C8.12144 44.7959 8.17144 44.8259 8.23144 44.8459C8.30144 44.8759 8.36144 44.8959 8.42144 44.9159C8.48144 44.9359 8.55144 44.9459 8.61144 44.9559C8.67144 44.9759 8.74144 44.9859 8.80144 44.9859C8.87144 44.9959 8.93144 44.9959 9.00144 44.9959L39.0014 44.9959C39.0714 44.9959 39.1314 44.9959 39.2014 44.9859C39.2614 44.9759 39.3314 44.9659 39.3914 44.9559C39.4514 44.9459 39.5214 44.9259 39.5814 44.9059C39.6414 44.8859 39.7014 44.8659 39.7714 44.8459C39.8314 44.8159 39.8914 44.7859 39.9414 44.7559C40.0014 44.7259 40.0614 44.6959 40.1114 44.6559C40.1714 44.6259 40.2214 44.5859 40.2714 44.5459C40.3214 44.4959 40.3714 44.4559 40.4114 44.4059C40.4614 44.3659 40.5014 44.3159 40.5514 44.2659C40.5914 44.2159 40.6314 44.1659 40.6614 44.1059C40.7014 44.0559 40.7314 43.9959 40.7614 43.9359C40.7914 43.8759 40.8214 43.8259 40.8514 43.7659C40.8714 43.6959 40.8914 43.6359 40.9114 43.5759C40.9314 43.5159 40.9514 43.4459 40.9614 43.3859C40.9714 43.3259 40.9814 43.2559 40.9914 43.1959ZM5.40144 14.5159L5.66144 15.2259C5.89144 15.8759 6.30144 16.3859 6.88144 16.7459L12.3914 20.1859L17.6214 34.5459C17.8914 35.3059 18.3014 35.9759 18.8414 36.5659C19.3714 37.1259 19.9814 37.5759 20.6714 37.9059C21.3714 38.2459 22.1114 38.4359 22.8714 38.4859C23.6714 38.5459 24.4514 38.4259 25.2014 38.1759L37.9614 33.7859C38.7314 33.5159 39.4014 33.1259 40.0114 32.5959C40.6014 32.0559 41.0814 31.4259 41.4214 30.6959C41.7714 29.9959 41.9614 29.2359 42.0114 28.4259C42.0514 27.6359 41.9314 26.8559 41.6714 26.1059L41.6714 26.0959L34.8714 7.0359C34.6114 6.2859 34.2014 5.6059 33.6614 5.0159C33.1314 4.4259 32.5014 3.9559 31.7714 3.6259C31.0414 3.2859 30.2814 3.0959 29.4914 3.0459C28.6914 3.0159 27.9114 3.1359 27.1614 3.4059L7.19144 10.6759C6.81144 10.8159 6.47144 11.0259 6.18144 11.3059C5.89144 11.5659 5.67144 11.8659 5.50144 12.2259C5.34144 12.5859 5.24144 12.9459 5.23144 13.3359C5.20144 13.7459 5.26144 14.1359 5.40144 14.5159Z" fill-rule="evenodd"  fill="#000000" >
</path>
</svg>
