<svg xmlns="http://www.w3.org/2000/svg" xmlns:xlink="http://www.w3.org/1999/xlink" width="48" height="48" viewBox="0 0 48 48" fill="none">
<path d="M11.46 8.42C10.92 8.85 10.41 9.31 9.92 9.8C9.8 9.91 9.69 10.03 9.58 10.15C7.86 11.92 6.53 13.94 5.57 16.21C4.54 18.65 4.02 21.21 4 23.88C4 23.92 4 23.96 4 24L4 24C4 26.71 4.52 29.31 5.57 31.79C6.58 34.18 8.01 36.3 9.86 38.14C11.7 39.99 13.82 41.42 16.21 42.43C18.69 43.48 21.29 44 24 44C26.71 44 29.31 43.48 31.79 42.43C34.18 41.42 36.3 39.99 38.14 38.14C39.99 36.3 41.42 34.18 42.43 31.79C43.48 29.31 44 26.71 44 24C44 21.29 43.48 18.69 42.43 16.21C41.42 13.82 39.99 11.7 38.14 9.86C36.3 8.01 34.18 6.58 31.79 5.57C29.31 4.52 26.71 4 24 4C21.29 4 18.69 4.52 16.21 5.57C14.48 6.3 12.9 7.25 11.46 8.42ZM24 40C26.17 40 28.25 39.58 30.23 38.74C32.14 37.93 33.84 36.79 35.31 35.31C36.79 33.84 37.93 32.14 38.74 30.23C39.58 28.25 40 26.17 40 24C40 21.83 39.58 19.75 38.74 17.77C37.93 15.86 36.79 14.16 35.31 12.69C33.84 11.21 32.14 10.07 30.23 9.26C28.25 8.42 26.17 8 24 8C22.27 8 20.61 8.27 19 8.8C19.37 9.12 19.73 9.45 20.08 9.8C21.31 11.02 22.36 12.37 23.24 13.86C24.13 15.37 24.81 16.97 25.28 18.66C25.76 20.4 26 22.18 26 24C26 25.82 25.76 27.6 25.28 29.34C24.81 31.03 24.13 32.63 23.24 34.14C22.36 35.63 21.31 36.98 20.08 38.2C19.73 38.55 19.37 38.88 19 39.2C20.6 39.73 22.27 40 24 40Z" fill-rule="evenodd"  fill="#000000" >
</path>
</svg>
