<svg xmlns="http://www.w3.org/2000/svg" xmlns:xlink="http://www.w3.org/1999/xlink" width="48" height="48" viewBox="0 0 48 48" fill="none">
<path d="M13 8C8.58172 8 5 11.5817 5 16L5 33C5 37.4183 8.58172 41 13 41L29 41C33.4183 41 37 37.4183 37 33L37 16C37 11.5817 33.4183 8 29 8L29 7C29 3.68629 26.3137 1 23 1L19 1C15.6863 1 13 3.68629 13 7L13 8ZM25 8L25 7C25 5.89543 24.1046 5 23 5L19 5C17.8954 5 17 5.89543 17 7L17 8L25 8ZM12 17.0012C12.0001 18.1058 12.8956 19.0011 14.0002 19.001L24.0002 19C25.1048 18.9999 26.0001 18.1044 26 16.9998C25.9999 15.8952 25.1044 14.9999 23.9998 15L13.9998 15.001C12.8952 15.0011 11.9999 15.8966 12 17.0012ZM44 20C44 18.8954 43.1046 18 42 18C40.8954 18 40 18.8954 40 20L40 33C40 38.5228 35.5228 43 30 43L22 43C20.8954 43 20 43.8954 20 45C20 46.1046 20.8954 47 22 47L30 47C37.732 47 44 40.732 44 33L44 20ZM12.0002 23.0012C12.0004 24.1058 12.896 25.001 14.0006 25.0008L20.0006 24.9996C21.1052 24.9994 22.0004 24.1038 22.0002 22.9992C22 21.8946 21.1044 20.9994 19.9998 20.9996L13.9998 21.0008C12.8952 21.001 12 21.8966 12.0002 23.0012Z" fill-rule="evenodd"  fill="#000000" >
</path>
</svg>
