<svg xmlns="http://www.w3.org/2000/svg" xmlns:xlink="http://www.w3.org/1999/xlink" width="48" height="48" viewBox="0 0 48 48" fill="none">
<path d="M29 2C28.01 2 27.05 2.19 26.13 2.57C25.21 2.95 24.4 3.49 23.7 4.2C22.99 4.9 22.45 5.71 22.07 6.63C21.69 7.55 21.5 8.51 21.5 9.5C21.5 9.61 21.5 9.72 21.51 9.82C21.5 9.88 21.5 9.94 21.5 10L21.5 12.25C21.5 13.69 21.75 15.06 22.26 16.38C22.76 17.66 23.46 18.79 24.37 19.79C25.29 20.79 26.34 21.57 27.55 22.13C28.8 22.71 30.12 23 31.5 23C31.57 23 31.63 23 31.7 22.99C31.76 22.98 31.83 22.97 31.89 22.96C31.95 22.95 32.02 22.93 32.08 22.91C32.14 22.89 32.2 22.87 32.27 22.85C32.33 22.82 32.39 22.79 32.44 22.76C32.5 22.73 32.56 22.7 32.61 22.66C32.67 22.63 32.72 22.59 32.77 22.55C32.82 22.5 32.87 22.46 32.91 22.41C32.96 22.37 33 22.32 33.05 22.27C33.09 22.22 33.13 22.17 33.16 22.11C33.2 22.06 33.23 22 33.26 21.94C33.29 21.88 33.32 21.83 33.35 21.77C33.37 21.7 33.39 21.64 33.41 21.58C33.43 21.52 33.45 21.45 33.46 21.39C33.47 21.33 33.48 21.26 33.49 21.2C33.5 21.13 33.5 21.07 33.5 21C33.5 20.93 33.5 20.87 33.49 20.8C33.48 20.74 33.47 20.67 33.46 20.61C33.45 20.55 33.43 20.48 33.41 20.42C33.39 20.36 33.37 20.3 33.35 20.23C33.32 20.17 33.29 20.11 33.26 20.06C33.23 20 33.2 19.94 33.16 19.89C33.13 19.83 33.09 19.78 33.05 19.73C33 19.68 32.96 19.63 32.91 19.59C32.87 19.54 32.82 19.5 32.77 19.45C32.72 19.41 32.67 19.37 32.61 19.34C32.56 19.3 32.5 19.27 32.44 19.24C32.39 19.21 32.33 19.18 32.27 19.15C32.2 19.13 32.14 19.11 32.08 19.09C32.02 19.07 31.95 19.05 31.89 19.04C31.83 19.03 31.76 19.02 31.7 19.01C31.63 19 31.57 19 31.5 19C30.71 19 29.95 18.83 29.23 18.5C28.51 18.17 27.88 17.7 27.32 17.09C27.22 16.97 27.12 16.86 27.02 16.73C27.66 16.91 28.32 17 29 17C29.99 17 30.95 16.81 31.87 16.43C32.79 16.05 33.6 15.51 34.3 14.8C35.01 14.1 35.55 13.29 35.93 12.37C36.31 11.45 36.5 10.49 36.5 9.5C36.5 8.51 36.31 7.55 35.93 6.63C35.55 5.71 35.01 4.9 34.3 4.2C33.6 3.49 32.79 2.95 31.87 2.57C30.95 2.19 29.99 2 29 2ZM38.87 24.57C37.95 24.19 36.99 24 36 24C35.01 24 34.05 24.19 33.13 24.57C32.21 24.95 31.4 25.49 30.7 26.2C29.99 26.9 29.45 27.71 29.07 28.63C28.69 29.55 28.5 30.51 28.5 31.5C28.5 32.49 28.69 33.45 29.07 34.37C29.45 35.29 29.99 36.1 30.7 36.8C31.4 37.51 32.21 38.05 33.13 38.43C34.05 38.81 35.01 39 36 39C36.68 39 37.34 38.91 37.98 38.73C37.88 38.86 37.78 38.97 37.68 39.09C37.12 39.7 36.49 40.17 35.77 40.5C35.05 40.83 34.29 41 33.5 41C33.43 41 33.37 41 33.3 41.01C33.24 41.02 33.17 41.03 33.11 41.04C33.05 41.05 32.98 41.07 32.92 41.09C32.86 41.11 32.8 41.13 32.73 41.15C32.67 41.18 32.61 41.21 32.56 41.24C32.5 41.27 32.44 41.3 32.39 41.34C32.33 41.37 32.28 41.41 32.23 41.45C32.18 41.5 32.13 41.54 32.09 41.59C32.04 41.63 32 41.68 31.95 41.73C31.91 41.78 31.87 41.83 31.84 41.89C31.8 41.94 31.77 42 31.74 42.06C31.71 42.11 31.68 42.17 31.65 42.23C31.63 42.3 31.61 42.36 31.59 42.42C31.57 42.48 31.55 42.55 31.54 42.61C31.53 42.67 31.52 42.74 31.51 42.8C31.5 42.87 31.5 42.93 31.5 43C31.5 43.07 31.5 43.13 31.51 43.2C31.52 43.26 31.53 43.33 31.54 43.39C31.55 43.45 31.57 43.52 31.59 43.58C31.61 43.64 31.63 43.7 31.65 43.77C31.68 43.83 31.71 43.88 31.74 43.94C31.77 44 31.8 44.06 31.84 44.11C31.87 44.17 31.91 44.22 31.95 44.27C32 44.32 32.04 44.37 32.09 44.41C32.13 44.46 32.18 44.5 32.23 44.55C32.28 44.59 32.33 44.63 32.39 44.66C32.44 44.7 32.5 44.73 32.56 44.76C32.61 44.79 32.67 44.82 32.73 44.85C32.8 44.87 32.86 44.89 32.92 44.91C32.98 44.93 33.05 44.95 33.11 44.96C33.17 44.97 33.24 44.98 33.3 44.99C33.37 45 33.43 45 33.5 45C34.88 45 36.2 44.71 37.45 44.13C38.66 43.57 39.71 42.79 40.63 41.79C41.54 40.79 42.24 39.66 42.74 38.38C43.25 37.06 43.5 35.69 43.5 34.25L43.5 32C43.5 31.94 43.5 31.88 43.49 31.82C43.5 31.72 43.5 31.61 43.5 31.5C43.5 30.51 43.31 29.55 42.93 28.63C42.55 27.71 42.01 26.9 41.3 26.2C40.6 25.49 39.79 24.95 38.87 24.57ZM10.55 22.13C11.8 22.71 13.12 23 14.5 23C14.57 23 14.63 23 14.7 22.99C14.76 22.98 14.83 22.97 14.89 22.96C14.95 22.95 15.02 22.93 15.08 22.91C15.14 22.89 15.2 22.87 15.27 22.85C15.33 22.82 15.39 22.79 15.44 22.76C15.5 22.73 15.56 22.7 15.61 22.66C15.67 22.63 15.72 22.59 15.77 22.55C15.82 22.5 15.87 22.46 15.91 22.41C15.96 22.37 16 22.32 16.05 22.27C16.09 22.22 16.13 22.17 16.16 22.11C16.2 22.06 16.23 22 16.26 21.94C16.29 21.88 16.32 21.83 16.35 21.77C16.37 21.7 16.39 21.64 16.41 21.58C16.43 21.52 16.45 21.45 16.46 21.39C16.47 21.33 16.48 21.26 16.49 21.2C16.5 21.13 16.5 21.07 16.5 21C16.5 20.93 16.5 20.87 16.49 20.8C16.48 20.74 16.47 20.67 16.46 20.61C16.45 20.55 16.43 20.48 16.41 20.42C16.39 20.36 16.37 20.3 16.35 20.23C16.32 20.17 16.29 20.11 16.26 20.06C16.23 20 16.2 19.94 16.16 19.89C16.13 19.83 16.09 19.78 16.05 19.73C16 19.68 15.96 19.63 15.91 19.59C15.87 19.54 15.82 19.5 15.77 19.45C15.72 19.41 15.67 19.37 15.61 19.34C15.56 19.3 15.5 19.27 15.44 19.24C15.39 19.21 15.33 19.18 15.27 19.15C15.2 19.13 15.14 19.11 15.08 19.09C15.02 19.07 14.95 19.05 14.89 19.04C14.83 19.03 14.76 19.02 14.7 19.01C14.63 19 14.57 19 14.5 19C13.71 19 12.95 18.83 12.23 18.5C11.51 18.17 10.88 17.7 10.32 17.09C10.22 16.97 10.12 16.86 10.02 16.73C10.66 16.91 11.32 17 12 17C12.99 17 13.95 16.81 14.87 16.43C15.79 16.05 16.6 15.51 17.3 14.8C18.01 14.1 18.55 13.29 18.93 12.37C19.31 11.45 19.5 10.49 19.5 9.5C19.5 8.51 19.31 7.55 18.93 6.63C18.55 5.71 18.01 4.9 17.3 4.2C16.6 3.49 15.79 2.95 14.87 2.57C13.95 2.19 12.99 2 12 2C11.01 2 10.05 2.19 9.13 2.57C8.21 2.95 7.4 3.49 6.7 4.2C5.99 4.9 5.45 5.71 5.07 6.63C4.69 7.55 4.5 8.51 4.5 9.5C4.5 9.61 4.5 9.72 4.51 9.82C4.5 9.88 4.5 9.94 4.5 10L4.5 12.25C4.5 13.69 4.75 15.06 5.26 16.38C5.76 17.66 6.46 18.79 7.37 19.79C8.29 20.79 9.34 21.57 10.55 22.13ZM26.5 32C26.5 31.94 26.5 31.88 26.49 31.82C26.5 31.72 26.5 31.61 26.5 31.5C26.5 30.51 26.31 29.55 25.93 28.63C25.55 27.71 25.01 26.9 24.3 26.2C23.6 25.49 22.79 24.95 21.87 24.57C20.95 24.19 19.99 24 19 24C18.01 24 17.05 24.19 16.13 24.57C15.21 24.95 14.4 25.49 13.7 26.2C12.99 26.9 12.45 27.71 12.07 28.63C11.69 29.55 11.5 30.51 11.5 31.5C11.5 32.49 11.69 33.45 12.07 34.37C12.45 35.29 12.99 36.1 13.7 36.8C14.4 37.51 15.21 38.05 16.13 38.43C17.05 38.81 18.01 39 19 39C19.68 39 20.34 38.91 20.98 38.73C20.88 38.86 20.78 38.97 20.68 39.09C20.12 39.7 19.49 40.17 18.77 40.5C18.05 40.83 17.29 41 16.5 41C16.43 41 16.37 41 16.3 41.01C16.24 41.02 16.17 41.03 16.11 41.04C16.05 41.05 15.98 41.07 15.92 41.09C15.86 41.11 15.8 41.13 15.73 41.15C15.67 41.18 15.61 41.21 15.56 41.24C15.5 41.27 15.44 41.3 15.39 41.34C15.33 41.37 15.28 41.41 15.23 41.45C15.18 41.5 15.13 41.54 15.09 41.59C15.04 41.63 15 41.68 14.95 41.73C14.91 41.78 14.87 41.83 14.84 41.89C14.8 41.94 14.77 42 14.74 42.06C14.71 42.11 14.68 42.17 14.65 42.23C14.63 42.3 14.61 42.36 14.59 42.42C14.57 42.48 14.55 42.55 14.54 42.61C14.53 42.67 14.52 42.74 14.51 42.8C14.5 42.87 14.5 42.93 14.5 43C14.5 43.07 14.5 43.13 14.51 43.2C14.52 43.26 14.53 43.33 14.54 43.39C14.55 43.45 14.57 43.52 14.59 43.58C14.61 43.64 14.63 43.7 14.65 43.77C14.68 43.83 14.71 43.88 14.74 43.94C14.77 44 14.8 44.06 14.84 44.11C14.87 44.17 14.91 44.22 14.95 44.27C15 44.32 15.04 44.37 15.09 44.41C15.13 44.46 15.18 44.5 15.23 44.55C15.28 44.59 15.33 44.63 15.39 44.66C15.44 44.7 15.5 44.73 15.56 44.76C15.61 44.79 15.67 44.82 15.73 44.85C15.8 44.87 15.86 44.89 15.92 44.91C15.98 44.93 16.05 44.95 16.11 44.96C16.17 44.97 16.24 44.98 16.3 44.99C16.37 45 16.43 45 16.5 45C17.88 45 19.2 44.71 20.45 44.13C21.66 43.57 22.71 42.79 23.63 41.79C24.54 40.79 25.24 39.66 25.74 38.38C26.25 37.06 26.5 35.69 26.5 34.25L26.5 32Z" fill-rule="evenodd"  fill="#000000" >
</path>
</svg>
