<svg xmlns="http://www.w3.org/2000/svg" xmlns:xlink="http://www.w3.org/1999/xlink" width="48" height="48" viewBox="0 0 48 48" fill="none">
<path d="M13 45C8.58172 45 5 41.4183 5 37L5 11C5 6.58172 8.58172 3 13 3L13 17C13 20.3137 15.6863 23 19 23L29 23C32.3137 23 35 20.3137 35 17L35 3C39.4183 3 43 6.58172 43 11L43 37C43 41.4183 39.4183 45 35 45L13 45ZM31 3L17 3L17 17C17 18.1046 17.8954 19 19 19L29 19C30.1046 19 31 18.1046 31 17L31 3ZM21 7C19.8954 7 19 7.89543 19 9L19 13C19 14.1046 19.8954 15 21 15C22.1046 15 23 14.1046 23 13L23 9C23 7.89543 22.1046 7 21 7ZM17 38C15.8954 38 15 37.1046 15 36C15 34.8954 15.8954 34 17 34L31 34C32.1046 34 33 34.8954 33 36C33 37.1046 32.1046 38 31 38L17 38Z" fill-rule="evenodd"  fill="#000000" >
</path>
</svg>
