<svg xmlns="http://www.w3.org/2000/svg" xmlns:xlink="http://www.w3.org/1999/xlink" width="48" height="48" viewBox="0 0 48 48" fill="none">
<path   fill-rule="evenodd"  fill="#000000"  d="M12.7278 8L12 8C11.247 8 10.5515 8.19609 9.91334 8.58828C9.80146 8.65704 9.68395 8.71423 9.5608 8.75984C9.43765 8.80545 9.31124 8.83861 9.18156 8.85932C9.05188 8.88003 8.92143 8.88789 8.7902 8.8829C8.65897 8.87791 8.52949 8.86017 8.40176 8.82968C8.27403 8.79919 8.1505 8.75654 8.03117 8.70171C7.91184 8.64688 7.799 8.58094 7.69266 8.50389C7.58632 8.42684 7.48852 8.34015 7.39925 8.24384C7.30998 8.14752 7.23097 8.04342 7.16221 7.93154C7.12792 7.87573 7.09644 7.81838 7.06778 7.75948C7.03911 7.70058 7.01341 7.64042 6.99066 7.57899C6.96791 7.51757 6.94822 7.45518 6.9316 7.39182C6.91498 7.32846 6.90151 7.26444 6.89118 7.19976C6.88085 7.13507 6.87371 7.07004 6.86977 7.00466C6.86583 6.93927 6.8651 6.87385 6.86759 6.8084C6.87008 6.74294 6.87577 6.67777 6.88466 6.61287C6.89355 6.54797 6.9056 6.48367 6.92081 6.41996C6.93602 6.35625 6.95431 6.29343 6.97569 6.23152C6.99708 6.1696 7.02144 6.10888 7.04879 6.04936C7.07614 5.98984 7.10633 5.9318 7.13938 5.87525C7.17243 5.8187 7.20817 5.7639 7.2466 5.71086C7.28503 5.65782 7.32597 5.60679 7.36942 5.55777C7.41287 5.50875 7.45861 5.46197 7.50666 5.41745C7.5547 5.37292 7.60481 5.33086 7.65699 5.29126C7.70916 5.25166 7.76315 5.21471 7.81896 5.18041C9.09943 4.39347 10.4931 4 12 4L12.7278 4C12.7933 4 12.8586 4.00321 12.9238 4.00963C12.989 4.01605 13.0537 4.02565 13.118 4.03843C13.1822 4.05121 13.2457 4.06711 13.3083 4.08612C13.371 4.10513 13.4326 4.12717 13.4931 4.15224C13.5537 4.17731 13.6128 4.20528 13.6706 4.23616C13.7283 4.26703 13.7844 4.30067 13.8389 4.33706C13.8934 4.37345 13.9459 4.41243 13.9966 4.45398C14.0472 4.49553 14.0957 4.53947 14.142 4.58579C14.1883 4.6321 14.2323 4.68058 14.2738 4.73121C14.3153 4.78184 14.3543 4.83439 14.3907 4.88886C14.4271 4.94332 14.4607 4.99944 14.4916 5.05721C14.5225 5.11497 14.5505 5.17412 14.5755 5.23463C14.6006 5.29515 14.6226 5.35675 14.6417 5.41943C14.6607 5.48211 14.6766 5.54558 14.6894 5.60982C14.7021 5.67406 14.7117 5.73878 14.7182 5.80397C14.7246 5.86915 14.7278 5.9345 14.7278 6C14.7278 6.0655 14.7246 6.13085 14.7182 6.19603C14.7117 6.26122 14.7021 6.32594 14.6894 6.39018C14.6766 6.45442 14.6607 6.51789 14.6417 6.58057C14.6226 6.64325 14.6006 6.70485 14.5755 6.76537C14.5505 6.82588 14.5225 6.88503 14.4916 6.94279C14.4607 7.00056 14.4271 7.05668 14.3907 7.11114C14.3543 7.16561 14.3154 7.21816 14.2738 7.26879C14.2322 7.31942 14.1883 7.3679 14.142 7.41421C14.0957 7.46053 14.0472 7.50447 13.9966 7.54602C13.9459 7.58757 13.8934 7.62655 13.8389 7.66294C13.7844 7.69933 13.7283 7.73297 13.6706 7.76384C13.6128 7.79472 13.5537 7.82269 13.4931 7.84776C13.4326 7.87283 13.371 7.89487 13.3083 7.91388C13.2457 7.93289 13.1822 7.94879 13.118 7.96157C13.0537 7.97435 12.989 7.98395 12.9238 7.99037C12.8586 7.99679 12.7933 8 12.7278 8ZM22.7278 8L18.7278 8C18.6623 8 18.5969 7.99679 18.5317 7.99037C18.4666 7.98395 18.4019 7.97435 18.3376 7.96157C18.2733 7.94879 18.2099 7.93289 18.1472 7.91388C18.0845 7.89487 18.0229 7.87283 17.9624 7.84776C17.9019 7.82269 17.8427 7.79472 17.785 7.76384C17.7272 7.73297 17.6711 7.69933 17.6166 7.66294C17.5621 7.62655 17.5096 7.58757 17.459 7.54602C17.4083 7.50447 17.3599 7.46053 17.3136 7.41421C17.2673 7.3679 17.2233 7.31942 17.1818 7.26879C17.1402 7.21816 17.1012 7.16561 17.0648 7.11114C17.0284 7.05668 16.9948 7.00056 16.9639 6.94279C16.933 6.88503 16.9051 6.82588 16.88 6.76537C16.8549 6.70485 16.8329 6.64325 16.8139 6.58057C16.7949 6.51789 16.779 6.45442 16.7662 6.39018C16.7534 6.32594 16.7438 6.26122 16.7374 6.19603C16.731 6.13085 16.7278 6.0655 16.7278 6C16.7278 5.9345 16.731 5.86915 16.7374 5.80397C16.7438 5.73878 16.7534 5.67406 16.7662 5.60982C16.779 5.54558 16.7949 5.48211 16.8139 5.41943C16.8329 5.35675 16.8549 5.29515 16.88 5.23463C16.9051 5.17412 16.933 5.11498 16.9639 5.05721C16.9948 4.99944 17.0284 4.94332 17.0648 4.88886C17.1012 4.83439 17.1402 4.78184 17.1818 4.73121C17.2233 4.68058 17.2673 4.6321 17.3136 4.58579C17.3599 4.53947 17.4083 4.49553 17.459 4.45398C17.5096 4.41243 17.5621 4.37345 17.6166 4.33706C17.6711 4.30067 17.7272 4.26703 17.785 4.23616C17.8427 4.20528 17.9019 4.17731 17.9624 4.15224C18.0229 4.12717 18.0845 4.10513 18.1472 4.08612C18.2099 4.06711 18.2733 4.05121 18.3376 4.03843C18.4019 4.02565 18.4666 4.01605 18.5317 4.00963C18.5969 4.00321 18.6623 4 18.7278 4L22.7278 4C22.7933 4 22.8586 4.00321 22.9238 4.00963C22.989 4.01605 23.0537 4.02565 23.118 4.03843C23.1822 4.05121 23.2456 4.06711 23.3083 4.08612C23.371 4.10513 23.4326 4.12717 23.4931 4.15224C23.5536 4.17731 23.6128 4.20528 23.6706 4.23616C23.7283 4.26703 23.7844 4.30067 23.8389 4.33706C23.8934 4.37345 23.9459 4.41243 23.9966 4.45398C24.0472 4.49553 24.0957 4.53947 24.142 4.58579C24.1883 4.6321 24.2323 4.68058 24.2738 4.73121C24.3153 4.78184 24.3543 4.83439 24.3907 4.88886C24.4271 4.94332 24.4607 4.99944 24.4916 5.05721C24.5225 5.11497 24.5504 5.17412 24.5755 5.23463C24.6006 5.29515 24.6226 5.35675 24.6417 5.41943C24.6607 5.48211 24.6766 5.54558 24.6893 5.60982C24.7021 5.67406 24.7117 5.73878 24.7181 5.80397C24.7246 5.86915 24.7278 5.9345 24.7278 6C24.7278 6.0655 24.7246 6.13085 24.7181 6.19603C24.7117 6.26122 24.7021 6.32594 24.6893 6.39018C24.6766 6.45442 24.6607 6.51789 24.6417 6.58057C24.6226 6.64325 24.6006 6.70485 24.5755 6.76537C24.5504 6.82588 24.5225 6.88503 24.4916 6.94279C24.4607 7.00056 24.4271 7.05668 24.3907 7.11114C24.3543 7.16561 24.3153 7.21816 24.2738 7.26879C24.2323 7.31942 24.1883 7.3679 24.142 7.41421C24.0957 7.46053 24.0472 7.50447 23.9966 7.54602C23.9459 7.58757 23.8934 7.62655 23.8389 7.66294C23.7844 7.69933 23.7283 7.73297 23.6706 7.76384C23.6128 7.79472 23.5536 7.82269 23.4931 7.84776C23.4326 7.87283 23.371 7.89487 23.3083 7.91388C23.2456 7.93289 23.1822 7.94879 23.118 7.96157C23.0537 7.97435 22.989 7.98395 22.9238 7.99037C22.8586 7.99679 22.7933 8 22.7278 8ZM32.7278 8L28.7278 8C28.6623 8 28.5969 7.99679 28.5317 7.99037C28.4666 7.98395 28.4019 7.97435 28.3376 7.96157C28.2733 7.94879 28.2099 7.93289 28.1472 7.91388C28.0845 7.89487 28.0229 7.87283 27.9624 7.84776C27.9019 7.82269 27.8427 7.79472 27.785 7.76384C27.7272 7.73297 27.6711 7.69933 27.6166 7.66294C27.5621 7.62655 27.5096 7.58757 27.459 7.54602C27.4083 7.50447 27.3599 7.46053 27.3136 7.41421C27.2673 7.3679 27.2233 7.31942 27.1818 7.26879C27.1402 7.21816 27.1012 7.16561 27.0648 7.11114C27.0284 7.05668 26.9948 7.00056 26.9639 6.94279C26.933 6.88503 26.9051 6.82588 26.88 6.76537C26.8549 6.70485 26.8329 6.64325 26.8139 6.58057C26.7949 6.51789 26.779 6.45442 26.7662 6.39018C26.7534 6.32594 26.7438 6.26122 26.7374 6.19603C26.731 6.13085 26.7278 6.0655 26.7278 6C26.7278 5.9345 26.731 5.86915 26.7374 5.80397C26.7438 5.73878 26.7534 5.67406 26.7662 5.60982C26.779 5.54558 26.7949 5.48211 26.8139 5.41943C26.8329 5.35675 26.8549 5.29515 26.88 5.23463C26.9051 5.17412 26.933 5.11497 26.9639 5.05721C26.9948 4.99944 27.0284 4.94332 27.0648 4.88886C27.1012 4.83439 27.1402 4.78184 27.1818 4.73121C27.2233 4.68058 27.2673 4.6321 27.3136 4.58579C27.3599 4.53947 27.4083 4.49553 27.459 4.45398C27.5096 4.41243 27.5621 4.37345 27.6166 4.33706C27.6711 4.30067 27.7272 4.26703 27.785 4.23616C27.8427 4.20528 27.9019 4.17731 27.9624 4.15224C28.0229 4.12717 28.0845 4.10513 28.1472 4.08612C28.2099 4.06711 28.2733 4.05121 28.3376 4.03843C28.4019 4.02565 28.4666 4.01605 28.5317 4.00963C28.5969 4.00321 28.6623 4 28.7278 4L32.7278 4C32.7933 4 32.8586 4.00321 32.9238 4.00963C32.989 4.01605 33.0537 4.02565 33.118 4.03843C33.1822 4.05121 33.2456 4.06711 33.3083 4.08612C33.371 4.10513 33.4326 4.12717 33.4931 4.15224C33.5536 4.17731 33.6128 4.20528 33.6706 4.23616C33.7283 4.26703 33.7844 4.30067 33.8389 4.33706C33.8934 4.37345 33.9459 4.41243 33.9966 4.45398C34.0472 4.49553 34.0957 4.53947 34.142 4.58579C34.1883 4.6321 34.2323 4.68058 34.2738 4.73121C34.3153 4.78184 34.3543 4.83439 34.3907 4.88886C34.4271 4.94332 34.4607 4.99944 34.4916 5.05721C34.5225 5.11497 34.5504 5.17412 34.5755 5.23463C34.6006 5.29515 34.6226 5.35675 34.6417 5.41943C34.6607 5.48211 34.6766 5.54558 34.6893 5.60982C34.7021 5.67406 34.7117 5.73878 34.7181 5.80397C34.7246 5.86915 34.7278 5.9345 34.7278 6C34.7278 6.0655 34.7246 6.13085 34.7181 6.19603C34.7117 6.26122 34.7021 6.32594 34.6893 6.39018C34.6766 6.45442 34.6607 6.51789 34.6417 6.58057C34.6226 6.64325 34.6006 6.70485 34.5755 6.76537C34.5504 6.82588 34.5225 6.88503 34.4916 6.94279C34.4607 7.00056 34.4271 7.05668 34.3907 7.11114C34.3543 7.16561 34.3153 7.21816 34.2738 7.26879C34.2323 7.31942 34.1883 7.3679 34.142 7.41421C34.0957 7.46053 34.0472 7.50447 33.9966 7.54602C33.9459 7.58757 33.8934 7.62655 33.8389 7.66294C33.7844 7.69933 33.7283 7.73297 33.6706 7.76384C33.6128 7.79472 33.5536 7.82269 33.4931 7.84776C33.4326 7.87283 33.371 7.89487 33.3083 7.91388C33.2456 7.93289 33.1822 7.94879 33.118 7.96157C33.0537 7.97435 32.989 7.98395 32.9238 7.99037C32.8586 7.99679 32.7933 8 32.7278 8ZM39.6158 10.2891C39.2165 9.44957 38.6001 8.82357 37.7664 8.41114C37.6487 8.35291 37.5379 8.28375 37.4338 8.20368C37.3297 8.1236 37.2344 8.03414 37.1479 7.9353C37.0615 7.83645 36.9855 7.73012 36.92 7.61631C36.8545 7.5025 36.8007 7.3834 36.7586 7.25899C36.7165 7.13458 36.687 7.00727 36.6701 6.87705C36.6531 6.74683 36.649 6.6162 36.6578 6.48517C36.6665 6.35414 36.688 6.22523 36.7221 6.09842C36.7562 5.97162 36.8024 5.84937 36.8607 5.73166C36.8898 5.67295 36.9216 5.6158 36.9562 5.56022C36.9909 5.50464 37.0282 5.45089 37.0681 5.39898C37.1081 5.34707 37.1505 5.29723 37.1953 5.24948C37.2402 5.20173 37.2872 5.15629 37.3365 5.11316C37.3858 5.07003 37.4371 5.02943 37.4904 4.99135C37.5437 4.95326 37.5988 4.91788 37.6555 4.8852C37.7123 4.85252 37.7705 4.8227 37.8302 4.79574C37.8899 4.76879 37.9508 4.74482 38.0128 4.72384C38.0749 4.70287 38.1378 4.68498 38.2016 4.67019C38.2654 4.6554 38.3298 4.64377 38.3948 4.6353C38.4597 4.62683 38.5249 4.62157 38.5904 4.61951C38.6559 4.61745 38.7213 4.6186 38.7866 4.62297C38.852 4.62734 38.917 4.6349 38.9816 4.64565C39.0462 4.6564 39.1101 4.6703 39.1734 4.68733C39.2367 4.70436 39.2989 4.72445 39.3602 4.7476C39.4215 4.77075 39.4815 4.79685 39.5402 4.8259C41.2025 5.64831 42.4319 6.89676 43.2282 8.57126C43.2845 8.68985 43.3288 8.81281 43.361 8.94013C43.3932 9.06745 43.4127 9.19668 43.4194 9.32783C43.4261 9.45898 43.4199 9.58953 43.401 9.71947C43.382 9.84941 43.3505 9.97625 43.3065 10.1C43.2625 10.2237 43.2069 10.342 43.1396 10.4548C43.0723 10.5676 42.9947 10.6727 42.9067 10.7702C42.8187 10.8677 42.7221 10.9556 42.6168 11.0341C42.5115 11.1125 42.3995 11.18 42.2809 11.2364C42.2218 11.2645 42.1614 11.2896 42.0997 11.3118C42.0381 11.334 41.9755 11.3532 41.912 11.3692C41.8485 11.3853 41.7844 11.3982 41.7196 11.4079C41.6549 11.4177 41.5898 11.4242 41.5243 11.4276C41.4589 11.4309 41.3935 11.4311 41.3281 11.428C41.2626 11.4249 41.1975 11.4186 41.1327 11.4092C41.0679 11.3997 41.0037 11.3871 40.9401 11.3713C40.8766 11.3555 40.8139 11.3366 40.7522 11.3147C40.6905 11.2928 40.63 11.2678 40.5707 11.24C40.5114 11.2121 40.4537 11.1814 40.3974 11.1478C40.3411 11.1143 40.2867 11.078 40.234 11.0391C40.1813 11.0002 40.1306 10.9588 40.082 10.9149C40.0334 10.871 39.987 10.8249 39.9429 10.7764C39.8988 10.728 39.8572 10.6775 39.8181 10.625C39.779 10.5725 39.7425 10.5181 39.7087 10.462C39.6749 10.4059 39.6439 10.3483 39.6158 10.2891ZM8.00068 11.9202L7.99994 12.0156L8 15.9083C8 15.9738 7.99679 16.0392 7.99037 16.1044C7.98395 16.1695 7.97435 16.2342 7.96157 16.2985C7.94879 16.3628 7.93289 16.4262 7.91388 16.4889C7.89487 16.5516 7.87283 16.6132 7.84776 16.6737C7.82269 16.7342 7.79472 16.7934 7.76384 16.8511C7.73297 16.9089 7.69933 16.965 7.66294 17.0195C7.62655 17.074 7.58757 17.1265 7.54602 17.1771C7.50447 17.2278 7.46053 17.2762 7.41421 17.3225C7.3679 17.3688 7.31942 17.4128 7.26879 17.4544C7.21816 17.4959 7.16561 17.5349 7.11114 17.5713C7.05668 17.6077 7.00056 17.6413 6.94279 17.6722C6.88503 17.7031 6.82588 17.731 6.76537 17.7561C6.70485 17.7812 6.64325 17.8032 6.58057 17.8222C6.51789 17.8412 6.45442 17.8571 6.39018 17.8699C6.32594 17.8827 6.26122 17.8923 6.19603 17.8987C6.13085 17.9051 6.0655 17.9083 6 17.9083C5.9345 17.9083 5.86915 17.9051 5.80397 17.8987C5.73878 17.8923 5.67406 17.8827 5.60982 17.8699C5.54558 17.8571 5.48211 17.8412 5.41943 17.8222C5.35675 17.8032 5.29515 17.7812 5.23463 17.7561C5.17412 17.731 5.11498 17.7031 5.05721 17.6722C4.99944 17.6413 4.94332 17.6077 4.88886 17.5713C4.83439 17.5349 4.78184 17.4959 4.73121 17.4544C4.68058 17.4128 4.6321 17.3688 4.58579 17.3225C4.53947 17.2762 4.49553 17.2278 4.45398 17.1771C4.41243 17.1265 4.37345 17.074 4.33706 17.0195C4.30067 16.965 4.26703 16.9089 4.23616 16.8511C4.20528 16.7934 4.17731 16.7342 4.15224 16.6737C4.12717 16.6132 4.10513 16.5516 4.08612 16.4889C4.06711 16.4262 4.05121 16.3628 4.03843 16.2985C4.02565 16.2342 4.01605 16.1695 4.00963 16.1044C4.00321 16.0392 4 15.9738 4 15.9083L4.00006 11.9844L4.00081 11.889C4.00132 11.8235 4.00504 11.7582 4.01197 11.693C4.0189 11.6279 4.029 11.5633 4.04228 11.4991C4.05556 11.435 4.07195 11.3716 4.09146 11.3091C4.11096 11.2466 4.13348 11.1852 4.15902 11.1248C4.18456 11.0645 4.21299 11.0056 4.24432 10.9481C4.27565 10.8905 4.30972 10.8347 4.34653 10.7805C4.38334 10.7263 4.42273 10.6741 4.46468 10.6238C4.50663 10.5735 4.55094 10.5254 4.59762 10.4794C4.64429 10.4334 4.69311 10.3899 4.74407 10.3487C4.79502 10.3076 4.84787 10.269 4.90262 10.233C4.95737 10.1971 5.01374 10.1639 5.07175 10.1335C5.12976 10.103 5.18912 10.0755 5.24983 10.0509C5.31054 10.0263 5.37231 10.0048 5.43514 9.98625C5.49797 9.96772 5.56155 9.95232 5.62589 9.94005C5.69023 9.92777 5.75502 9.91868 5.82026 9.91277C5.88549 9.90686 5.95086 9.90416 6.01636 9.90467C6.14768 9.9057 6.27763 9.91952 6.40623 9.94614C6.53482 9.97277 6.65959 10.0117 6.78051 10.0629C6.90144 10.1141 7.01622 10.1766 7.12484 10.2504C7.23345 10.3242 7.33383 10.4079 7.42596 10.5015C7.51809 10.5951 7.6002 10.6967 7.67231 10.8065C7.74441 10.9162 7.80511 11.032 7.85442 11.1537C7.90373 11.2754 7.94069 11.4008 7.9653 11.5297C7.98991 11.6587 8.00171 11.7889 8.00068 11.9202ZM14 23C11.7909 23 10 21.2091 10 19L10 16C10 12.6863 12.6863 10 16 10L19 10C21.2091 10 23 11.7909 23 14L23 19C23 21.2091 21.2091 23 19 23L14 23ZM34 23C36.2091 23 38 21.2091 38 19L38 16C38 12.6863 35.3137 10 32 10L29 10C26.7909 10 25 11.7909 25 14L25 19C25 21.2091 26.7909 23 29 23L34 23ZM40 19.3639L40 15.3639C40 15.2984 40.0032 15.233 40.0096 15.1679C40.0161 15.1027 40.0257 15.038 40.0384 14.9737C40.0512 14.9095 40.0671 14.846 40.0861 14.7833C40.1051 14.7206 40.1271 14.659 40.1522 14.5985C40.1773 14.538 40.2053 14.4788 40.2362 14.4211C40.2671 14.3633 40.3007 14.3072 40.3371 14.2528C40.3734 14.1983 40.4124 14.1457 40.454 14.0951C40.4955 14.0445 40.5395 13.996 40.5858 13.9497C40.6321 13.9034 40.6806 13.8594 40.7312 13.8179C40.7819 13.7763 40.8344 13.7373 40.8889 13.7009C40.9434 13.6646 40.9995 13.6309 41.0572 13.6C41.115 13.5692 41.1741 13.5412 41.2346 13.5161C41.2951 13.4911 41.3567 13.469 41.4194 13.45C41.4821 13.431 41.5456 13.4151 41.6098 13.4023C41.6741 13.3895 41.7388 13.3799 41.804 13.3735C41.8691 13.3671 41.9345 13.3639 42 13.3639C42.0655 13.3639 42.1309 13.3671 42.196 13.3735C42.2612 13.3799 42.3259 13.3895 42.3902 13.4023C42.4544 13.4151 42.5179 13.431 42.5806 13.45C42.6433 13.469 42.7049 13.4911 42.7654 13.5161C42.8259 13.5412 42.885 13.5692 42.9428 13.6C43.0005 13.6309 43.0566 13.6646 43.1111 13.7009C43.1656 13.7373 43.2181 13.7763 43.2688 13.8179C43.3194 13.8594 43.3679 13.9034 43.4142 13.9497C43.4605 13.996 43.5045 14.0445 43.546 14.0951C43.5876 14.1457 43.6266 14.1983 43.6629 14.2528C43.6993 14.3072 43.7329 14.3633 43.7638 14.4211C43.7947 14.4788 43.8227 14.538 43.8478 14.5985C43.8729 14.659 43.8949 14.7206 43.9139 14.7833C43.9329 14.846 43.9488 14.9095 43.9616 14.9737C43.9743 15.038 43.9839 15.1027 43.9904 15.1679C43.9968 15.233 44 15.2984 44 15.3639L44 19.3639C44 19.4294 43.9968 19.4947 43.9904 19.5599C43.9839 19.6251 43.9743 19.6898 43.9616 19.7541C43.9488 19.8183 43.9329 19.8818 43.9139 19.9445C43.8949 20.0072 43.8729 20.0688 43.8478 20.1293C43.8227 20.1898 43.7947 20.2489 43.7638 20.3067C43.7329 20.3644 43.6993 20.4205 43.6629 20.475C43.6266 20.5295 43.5876 20.582 43.546 20.6327C43.5045 20.6833 43.4605 20.7318 43.4142 20.7781C43.3679 20.8244 43.3194 20.8684 43.2688 20.9099C43.2181 20.9514 43.1656 20.9904 43.1111 21.0268C43.0566 21.0632 43.0005 21.0968 42.9428 21.1277C42.885 21.1586 42.8259 21.1866 42.7654 21.2116C42.7049 21.2367 42.6433 21.2588 42.5806 21.2778C42.5179 21.2968 42.4544 21.3127 42.3902 21.3255C42.3259 21.3382 42.2612 21.3478 42.196 21.3543C42.1309 21.3607 42.0655 21.3639 42 21.3639C41.9345 21.3639 41.8691 21.3607 41.804 21.3543C41.7388 21.3478 41.6741 21.3382 41.6098 21.3255C41.5456 21.3127 41.4821 21.2968 41.4194 21.2778C41.3567 21.2588 41.2951 21.2367 41.2346 21.2116C41.1741 21.1865 41.115 21.1586 41.0572 21.1277C40.9995 21.0968 40.9434 21.0632 40.8889 21.0268C40.8344 20.9904 40.7819 20.9514 40.7312 20.9099C40.6806 20.8684 40.6321 20.8244 40.5858 20.7781C40.5395 20.7318 40.4955 20.6833 40.454 20.6327C40.4124 20.582 40.3734 20.5295 40.3371 20.475C40.3007 20.4205 40.2671 20.3644 40.2362 20.3067C40.2053 20.2489 40.1773 20.1898 40.1522 20.1293C40.1271 20.0688 40.1051 20.0072 40.0861 19.9445C40.0671 19.8818 40.0512 19.8183 40.0384 19.7541C40.0257 19.6898 40.0161 19.6251 40.0096 19.5599C40.0032 19.4947 40 19.4294 40 19.3639ZM8 21.9083L8 25.9083C8 25.9738 7.99679 26.0392 7.99037 26.1044C7.98395 26.1695 7.97435 26.2342 7.96157 26.2985C7.94879 26.3628 7.93289 26.4262 7.91388 26.4889C7.89487 26.5516 7.87283 26.6132 7.84776 26.6737C7.82269 26.7342 7.79472 26.7934 7.76384 26.8511C7.73297 26.9089 7.69933 26.965 7.66294 27.0195C7.62655 27.074 7.58757 27.1265 7.54602 27.1771C7.50447 27.2278 7.46053 27.2762 7.41421 27.3225C7.3679 27.3688 7.31942 27.4128 7.26879 27.4544C7.21816 27.4959 7.16561 27.5349 7.11114 27.5713C7.05668 27.6077 7.00056 27.6413 6.94279 27.6722C6.88503 27.7031 6.82588 27.731 6.76537 27.7561C6.70485 27.7812 6.64325 27.8032 6.58057 27.8222C6.51789 27.8412 6.45442 27.8571 6.39018 27.8699C6.32594 27.8827 6.26122 27.8923 6.19603 27.8987C6.13085 27.9051 6.0655 27.9083 6 27.9083C5.9345 27.9083 5.86915 27.9051 5.80397 27.8987C5.73878 27.8923 5.67406 27.8827 5.60982 27.8699C5.54558 27.8571 5.48211 27.8412 5.41943 27.8222C5.35675 27.8032 5.29515 27.7812 5.23463 27.7561C5.17412 27.731 5.11497 27.7031 5.05721 27.6722C4.99944 27.6413 4.94332 27.6077 4.88886 27.5713C4.83439 27.5349 4.78184 27.4959 4.73121 27.4544C4.68058 27.4128 4.6321 27.3688 4.58579 27.3225C4.53947 27.2762 4.49553 27.2278 4.45398 27.1771C4.41243 27.1265 4.37345 27.074 4.33706 27.0195C4.30067 26.965 4.26703 26.9089 4.23616 26.8511C4.20528 26.7934 4.17731 26.7342 4.15224 26.6737C4.12717 26.6132 4.10513 26.5516 4.08612 26.4889C4.06711 26.4262 4.05121 26.3628 4.03843 26.2985C4.02565 26.2342 4.01605 26.1695 4.00963 26.1044C4.00321 26.0392 4 25.9738 4 25.9083L4 21.9083C4 21.8428 4.00321 21.7775 4.00963 21.7123C4.01605 21.6471 4.02565 21.5824 4.03843 21.5182C4.05121 21.4539 4.06711 21.3905 4.08612 21.3278C4.10513 21.2651 4.12717 21.2035 4.15224 21.143C4.17731 21.0825 4.20528 21.0233 4.23616 20.9655C4.26703 20.9078 4.30067 20.8517 4.33706 20.7972C4.37345 20.7427 4.41243 20.6902 4.45398 20.6395C4.49553 20.5889 4.53947 20.5404 4.58579 20.4941C4.6321 20.4478 4.68058 20.4038 4.73121 20.3623C4.78184 20.3208 4.83439 20.2818 4.88886 20.2454C4.94332 20.209 4.99944 20.1754 5.05721 20.1445C5.11497 20.1136 5.17412 20.0857 5.23463 20.0606C5.29515 20.0355 5.35675 20.0135 5.41943 19.9945C5.48211 19.9754 5.54558 19.9595 5.60982 19.9468C5.67406 19.934 5.73878 19.9244 5.80397 19.918C5.86915 19.9115 5.9345 19.9083 6 19.9083C6.0655 19.9083 6.13085 19.9115 6.19603 19.918C6.26122 19.9244 6.32594 19.934 6.39018 19.9468C6.45442 19.9595 6.51789 19.9754 6.58057 19.9945C6.64325 20.0135 6.70485 20.0355 6.76537 20.0606C6.82588 20.0857 6.88503 20.1136 6.94279 20.1445C7.00056 20.1754 7.05668 20.209 7.11114 20.2454C7.16561 20.2818 7.21816 20.3208 7.26879 20.3623C7.31942 20.4038 7.3679 20.4478 7.41421 20.4941C7.46053 20.5404 7.50447 20.5889 7.54602 20.6395C7.58757 20.6902 7.62655 20.7427 7.66294 20.7972C7.69933 20.8517 7.73297 20.9078 7.76384 20.9655C7.79472 21.0233 7.82269 21.0825 7.84776 21.143C7.87283 21.2035 7.89487 21.2651 7.91388 21.3278C7.93289 21.3905 7.94879 21.4539 7.96157 21.5182C7.97435 21.5824 7.98395 21.6471 7.99037 21.7123C7.99679 21.7775 8 21.8428 8 21.9083ZM40 29.3639L40 25.3639C40 25.2984 40.0032 25.233 40.0096 25.1679C40.0161 25.1027 40.0257 25.038 40.0384 24.9737C40.0512 24.9094 40.0671 24.846 40.0861 24.7833C40.1051 24.7206 40.1271 24.659 40.1522 24.5985C40.1773 24.538 40.2053 24.4788 40.2362 24.4211C40.2671 24.3633 40.3007 24.3072 40.3371 24.2528C40.3734 24.1983 40.4124 24.1458 40.454 24.0951C40.4955 24.0445 40.5395 23.996 40.5858 23.9497C40.6321 23.9034 40.6806 23.8594 40.7312 23.8179C40.7819 23.7763 40.8344 23.7373 40.8889 23.701C40.9434 23.6646 40.9995 23.6309 41.0572 23.6C41.115 23.5691 41.1741 23.5412 41.2346 23.5161C41.2951 23.491 41.3567 23.469 41.4194 23.45C41.4821 23.431 41.5456 23.4151 41.6098 23.4023C41.6741 23.3896 41.7388 23.38 41.804 23.3735C41.8691 23.3671 41.9345 23.3639 42 23.3639C42.0655 23.3639 42.1309 23.3671 42.196 23.3735C42.2612 23.38 42.3259 23.3896 42.3902 23.4023C42.4544 23.4151 42.5179 23.431 42.5806 23.45C42.6433 23.469 42.7049 23.491 42.7654 23.5161C42.8259 23.5412 42.885 23.5691 42.9428 23.6C43.0005 23.6309 43.0566 23.6646 43.1111 23.701C43.1656 23.7373 43.2181 23.7763 43.2688 23.8179C43.3194 23.8594 43.3679 23.9034 43.4142 23.9497C43.4605 23.996 43.5045 24.0445 43.546 24.0951C43.5876 24.1458 43.6266 24.1983 43.6629 24.2528C43.6993 24.3072 43.7329 24.3633 43.7638 24.4211C43.7947 24.4788 43.8227 24.538 43.8478 24.5985C43.8729 24.659 43.8949 24.7206 43.9139 24.7833C43.9329 24.846 43.9488 24.9094 43.9616 24.9737C43.9743 25.038 43.9839 25.1027 43.9904 25.1679C43.9968 25.233 44 25.2984 44 25.3639L44 29.3639C44 29.4294 43.9968 29.4947 43.9904 29.5599C43.9839 29.6251 43.9743 29.6898 43.9616 29.7541C43.9488 29.8183 43.9329 29.8818 43.9139 29.9445C43.8949 30.0072 43.8729 30.0688 43.8478 30.1293C43.8227 30.1898 43.7947 30.2489 43.7638 30.3067C43.7329 30.3644 43.6993 30.4205 43.6629 30.475C43.6266 30.5295 43.5876 30.582 43.546 30.6327C43.5045 30.6833 43.4605 30.7318 43.4142 30.7781C43.3679 30.8244 43.3194 30.8684 43.2688 30.9099C43.2181 30.9514 43.1656 30.9904 43.1111 31.0268C43.0566 31.0632 43.0005 31.0968 42.9428 31.1277C42.885 31.1586 42.8259 31.1865 42.7654 31.2116C42.7049 31.2367 42.6433 31.2587 42.5806 31.2778C42.5179 31.2968 42.4544 31.3127 42.3902 31.3255C42.3259 31.3382 42.2612 31.3478 42.196 31.3543C42.1309 31.3607 42.0655 31.3639 42 31.3639C41.9345 31.3639 41.8691 31.3607 41.804 31.3543C41.7388 31.3478 41.6741 31.3382 41.6098 31.3255C41.5456 31.3127 41.4821 31.2968 41.4194 31.2778C41.3567 31.2587 41.2951 31.2367 41.2346 31.2116C41.1741 31.1865 41.115 31.1586 41.0572 31.1277C40.9995 31.0968 40.9434 31.0632 40.8889 31.0268C40.8344 30.9904 40.7819 30.9514 40.7312 30.9099C40.6806 30.8684 40.6321 30.8244 40.5858 30.7781C40.5395 30.7318 40.4955 30.6833 40.454 30.6327C40.4124 30.582 40.3734 30.5295 40.3371 30.475C40.3007 30.4205 40.2671 30.3644 40.2362 30.3067C40.2053 30.2489 40.1773 30.1898 40.1522 30.1293C40.1271 30.0688 40.1051 30.0072 40.0861 29.9445C40.0671 29.8818 40.0512 29.8183 40.0384 29.7541C40.0257 29.6898 40.0161 29.6251 40.0096 29.5599C40.0032 29.4947 40 29.4294 40 29.3639ZM14 25C11.7909 25 10 26.7909 10 29L10 32C10 35.3137 12.6863 38 16 38L19 38C21.2091 38 23 36.2091 23 34L23 29C23 26.7909 21.2091 25 19 25L14 25ZM38 29C38 26.7909 36.2091 25 34 25L29 25C26.7909 25 25 26.7909 25 29L25 34C25 36.2091 26.7909 38 29 38L32 38C35.3137 38 38 35.3137 38 32L38 29ZM8 31.9083L8 35.9083C8 35.9738 7.99679 36.0392 7.99037 36.1044C7.98395 36.1695 7.97435 36.2342 7.96157 36.2985C7.94879 36.3628 7.93289 36.4262 7.91388 36.4889C7.89487 36.5516 7.87283 36.6132 7.84776 36.6737C7.82269 36.7342 7.79472 36.7934 7.76384 36.8511C7.73297 36.9089 7.69933 36.965 7.66294 37.0195C7.62655 37.074 7.58757 37.1265 7.54602 37.1771C7.50447 37.2278 7.46053 37.2762 7.41421 37.3225C7.3679 37.3688 7.31942 37.4128 7.26879 37.4544C7.21816 37.4959 7.16561 37.5349 7.11114 37.5713C7.05668 37.6077 7.00056 37.6413 6.94279 37.6722C6.88503 37.7031 6.82588 37.731 6.76537 37.7561C6.70485 37.7812 6.64325 37.8032 6.58057 37.8222C6.51789 37.8412 6.45442 37.8571 6.39018 37.8699C6.32594 37.8827 6.26122 37.8923 6.19603 37.8987C6.13085 37.9051 6.0655 37.9083 6 37.9083C5.9345 37.9083 5.86915 37.9051 5.80397 37.8987C5.73878 37.8923 5.67406 37.8827 5.60982 37.8699C5.54558 37.8571 5.48211 37.8412 5.41943 37.8222C5.35675 37.8032 5.29515 37.7812 5.23463 37.7561C5.17412 37.731 5.11497 37.7031 5.05721 37.6722C4.99944 37.6413 4.94332 37.6077 4.88886 37.5713C4.83439 37.5349 4.78184 37.4959 4.73121 37.4544C4.68058 37.4128 4.6321 37.3688 4.58579 37.3225C4.53947 37.2762 4.49553 37.2278 4.45398 37.1771C4.41243 37.1265 4.37345 37.074 4.33706 37.0195C4.30067 36.965 4.26703 36.9089 4.23616 36.8511C4.20528 36.7934 4.17731 36.7342 4.15224 36.6737C4.12717 36.6132 4.10513 36.5516 4.08612 36.4889C4.06711 36.4262 4.05121 36.3628 4.03843 36.2985C4.02565 36.2342 4.01605 36.1695 4.00963 36.1044C4.00321 36.0392 4 35.9738 4 35.9083L4 31.9083C4 31.8428 4.00321 31.7775 4.00963 31.7123C4.01605 31.6471 4.02565 31.5824 4.03843 31.5182C4.05121 31.4539 4.06711 31.3905 4.08612 31.3278C4.10513 31.2651 4.12717 31.2035 4.15224 31.143C4.17731 31.0825 4.20528 31.0233 4.23616 30.9655C4.26703 30.9078 4.30067 30.8517 4.33706 30.7972C4.37345 30.7427 4.41243 30.6902 4.45398 30.6395C4.49553 30.5889 4.53947 30.5404 4.58579 30.4941C4.6321 30.4478 4.68058 30.4038 4.73121 30.3623C4.78184 30.3208 4.83439 30.2818 4.88886 30.2454C4.94332 30.209 4.99944 30.1754 5.05721 30.1445C5.11497 30.1136 5.17412 30.0857 5.23463 30.0606C5.29515 30.0355 5.35675 30.0135 5.41943 29.9945C5.48211 29.9754 5.54558 29.9595 5.60982 29.9468C5.67406 29.934 5.73878 29.9244 5.80397 29.918C5.86915 29.9115 5.9345 29.9083 6 29.9083C6.0655 29.9083 6.13085 29.9115 6.19603 29.918C6.26122 29.9244 6.32594 29.934 6.39018 29.9468C6.45442 29.9595 6.51789 29.9754 6.58057 29.9945C6.64325 30.0135 6.70485 30.0355 6.76537 30.0606C6.82588 30.0857 6.88503 30.1136 6.94279 30.1445C7.00056 30.1754 7.05668 30.209 7.11114 30.2454C7.16561 30.2818 7.21816 30.3208 7.26879 30.3623C7.31942 30.4038 7.3679 30.4478 7.41421 30.4941C7.46053 30.5404 7.50447 30.5889 7.54602 30.6395C7.58757 30.6902 7.62655 30.7427 7.66294 30.7972C7.69933 30.8517 7.73297 30.9078 7.76384 30.9655C7.79472 31.0233 7.82269 31.0825 7.84776 31.143C7.87283 31.2035 7.89487 31.2651 7.91388 31.3278C7.93289 31.3905 7.94879 31.4539 7.96157 31.5182C7.97435 31.5824 7.98395 31.6471 7.99037 31.7123C7.99679 31.7775 8 31.8428 8 31.9083ZM39.3791 38.1389C39.793 37.488 40 36.775 40 36L40 35.3639C40 35.2984 40.0032 35.233 40.0096 35.1679C40.0161 35.1027 40.0257 35.038 40.0384 34.9737C40.0512 34.9094 40.0671 34.846 40.0861 34.7833C40.1051 34.7206 40.1271 34.659 40.1522 34.5985C40.1773 34.538 40.2053 34.4788 40.2362 34.4211C40.2671 34.3633 40.3007 34.3072 40.3371 34.2527C40.3734 34.1983 40.4124 34.1458 40.454 34.0951C40.4955 34.0445 40.5395 33.996 40.5858 33.9497C40.6321 33.9034 40.6806 33.8594 40.7312 33.8179C40.7819 33.7763 40.8344 33.7373 40.8889 33.701C40.9434 33.6646 40.9995 33.6309 41.0572 33.6C41.115 33.5691 41.1741 33.5412 41.2346 33.5161C41.2951 33.491 41.3567 33.469 41.4194 33.45C41.4821 33.431 41.5456 33.4151 41.6098 33.4023C41.6741 33.3896 41.7388 33.38 41.804 33.3735C41.8691 33.3671 41.9345 33.3639 42 33.3639C42.0655 33.3639 42.1309 33.3671 42.196 33.3735C42.2612 33.38 42.3259 33.3896 42.3902 33.4023C42.4544 33.4151 42.5179 33.431 42.5806 33.45C42.6433 33.469 42.7049 33.491 42.7654 33.5161C42.8259 33.5412 42.885 33.5691 42.9428 33.6C43.0005 33.6309 43.0566 33.6646 43.1111 33.701C43.1656 33.7373 43.2181 33.7763 43.2688 33.8179C43.3194 33.8594 43.3679 33.9034 43.4142 33.9497C43.4605 33.996 43.5045 34.0445 43.546 34.0951C43.5876 34.1458 43.6266 34.1983 43.6629 34.2527C43.6993 34.3072 43.7329 34.3633 43.7638 34.4211C43.7947 34.4788 43.8227 34.538 43.8478 34.5985C43.8729 34.659 43.8949 34.7206 43.9139 34.7833C43.9329 34.846 43.9488 34.9094 43.9616 34.9737C43.9743 35.038 43.9839 35.1027 43.9904 35.1679C43.9968 35.233 44 35.2984 44 35.3639L44 36C44 37.5511 43.5848 38.9795 42.7544 40.2853C42.6839 40.3961 42.6033 40.499 42.5126 40.5939C42.4219 40.6888 42.3227 40.774 42.2152 40.8494C42.1077 40.9248 41.9939 40.989 41.8737 41.042C41.7536 41.095 41.6294 41.1358 41.5012 41.1643C41.3731 41.1928 41.2433 41.2086 41.112 41.2116C40.9807 41.2145 40.8504 41.2047 40.7211 41.182C40.5918 41.1593 40.4659 41.1242 40.3434 41.0767C40.221 41.0292 40.1044 40.9702 39.9935 40.8997C39.9382 40.8646 39.8848 40.8268 39.8333 40.7864C39.7817 40.746 39.7322 40.7032 39.6849 40.6579C39.6376 40.6126 39.5925 40.5652 39.5498 40.5155C39.5071 40.4658 39.467 40.4142 39.4294 40.3606C39.3918 40.3069 39.3569 40.2516 39.3247 40.1945C39.2925 40.1375 39.2632 40.079 39.2368 40.0191C39.2104 39.9592 39.187 39.8981 39.1665 39.8358C39.1461 39.7736 39.1288 39.7105 39.1145 39.6465C39.1003 39.5826 39.0892 39.5181 39.0813 39.4531C39.0734 39.3881 39.0688 39.3228 39.0673 39.2573C39.0658 39.1918 39.0675 39.1264 39.0725 39.0611C39.0774 38.9958 39.0856 38.9309 39.0969 38.8664C39.1082 38.8019 39.1226 38.7381 39.1402 38.675C39.1578 38.6119 39.1784 38.5498 39.2021 38.4887C39.2258 38.4276 39.2525 38.3679 39.282 38.3094C39.3116 38.251 39.344 38.1942 39.3791 38.1389ZM9.80948 39.3457C10.4728 39.7819 11.2029 40 12 40L16 40C16.0655 40 16.1309 40.0032 16.196 40.0096C16.2612 40.0161 16.3259 40.0257 16.3902 40.0384C16.4544 40.0512 16.5179 40.0671 16.5806 40.0861C16.6433 40.1051 16.7049 40.1271 16.7654 40.1522C16.8259 40.1773 16.885 40.2053 16.9428 40.2362C17.0005 40.2671 17.0566 40.3007 17.1111 40.3371C17.1656 40.3734 17.2181 40.4124 17.2688 40.454C17.3194 40.4955 17.3679 40.5395 17.4142 40.5858C17.4605 40.6321 17.5045 40.6806 17.546 40.7312C17.5876 40.7819 17.6266 40.8344 17.6629 40.8889C17.6993 40.9434 17.7329 40.9995 17.7638 41.0572C17.7947 41.115 17.8227 41.1741 17.8478 41.2346C17.8729 41.2951 17.8949 41.3567 17.9139 41.4194C17.9329 41.4821 17.9488 41.5456 17.9616 41.6098C17.9743 41.6741 17.9839 41.7388 17.9904 41.804C17.9968 41.8691 18 41.9345 18 42C18 42.0655 17.9968 42.1309 17.9904 42.196C17.9839 42.2612 17.9743 42.3259 17.9616 42.3902C17.9488 42.4544 17.9329 42.5179 17.9139 42.5806C17.8949 42.6433 17.8729 42.7049 17.8478 42.7654C17.8227 42.8259 17.7947 42.885 17.7638 42.9428C17.7329 43.0005 17.6993 43.0566 17.6629 43.1111C17.6266 43.1656 17.5876 43.2181 17.546 43.2688C17.5045 43.3194 17.4605 43.3679 17.4142 43.4142C17.3679 43.4605 17.3194 43.5045 17.2688 43.546C17.2181 43.5876 17.1656 43.6266 17.1111 43.6629C17.0566 43.6993 17.0005 43.7329 16.9428 43.7638C16.885 43.7947 16.8259 43.8227 16.7654 43.8478C16.7049 43.8729 16.6433 43.8949 16.5806 43.9139C16.5179 43.9329 16.4544 43.9488 16.3902 43.9616C16.3259 43.9743 16.2612 43.9839 16.196 43.9904C16.1309 43.9968 16.0655 44 16 44L12 44C10.4046 44 8.94185 43.5626 7.61158 42.6877C7.55685 42.6517 7.50402 42.6131 7.45308 42.572C7.40215 42.5308 7.35335 42.4872 7.3067 42.4412C7.26004 42.3952 7.21575 42.347 7.17383 42.2967C7.1319 42.2464 7.09255 42.1942 7.05576 42.14C7.01897 42.0858 6.98493 42.0299 6.95363 41.9724C6.92233 41.9148 6.89393 41.8558 6.86842 41.7955C6.84291 41.7352 6.82042 41.6738 6.80095 41.6112C6.78148 41.5487 6.76511 41.4853 6.75187 41.4212C6.73862 41.3571 6.72855 41.2924 6.72165 41.2273C6.71475 41.1622 6.71106 41.0968 6.71059 41.0313C6.71011 40.9658 6.71284 40.9005 6.71878 40.8352C6.72473 40.77 6.73385 40.7052 6.74616 40.6409C6.75847 40.5766 6.7739 40.513 6.79246 40.4501C6.81101 40.3873 6.8326 40.3256 6.85723 40.2649C6.88185 40.2042 6.90939 40.1448 6.93984 40.0868C6.9703 40.0288 7.00352 39.9724 7.03951 39.9177C7.11167 39.808 7.19384 39.7064 7.28602 39.6129C7.37819 39.5194 7.47861 39.4357 7.58726 39.3619C7.69591 39.2882 7.81072 39.2257 7.93167 39.1746C8.05263 39.1235 8.17741 39.0846 8.30602 39.058C8.43463 39.0315 8.56459 39.0177 8.69591 39.0167C8.82723 39.0158 8.95738 39.0276 9.08636 39.0523C9.21534 39.077 9.34068 39.114 9.46237 39.1634C9.58406 39.2127 9.69976 39.2735 9.80948 39.3457ZM22 40L26 40C26.0655 40 26.1309 40.0032 26.196 40.0096C26.2612 40.0161 26.3259 40.0257 26.3902 40.0384C26.4544 40.0512 26.5179 40.0671 26.5806 40.0861C26.6433 40.1051 26.7049 40.1271 26.7654 40.1522C26.8259 40.1773 26.885 40.2053 26.9428 40.2362C27.0005 40.2671 27.0566 40.3007 27.1111 40.3371C27.1656 40.3734 27.2181 40.4124 27.2688 40.454C27.3194 40.4955 27.3679 40.5395 27.4142 40.5858C27.4605 40.6321 27.5045 40.6806 27.546 40.7312C27.5875 40.7819 27.6265 40.8344 27.6629 40.8889C27.6993 40.9434 27.7329 40.9995 27.7638 41.0572C27.7947 41.115 27.8227 41.1741 27.8478 41.2346C27.8729 41.2951 27.8949 41.3567 27.9139 41.4194C27.9329 41.4821 27.9488 41.5456 27.9616 41.6098C27.9743 41.6741 27.9839 41.7388 27.9904 41.804C27.9968 41.8691 28 41.9345 28 42C28 42.0655 27.9968 42.1309 27.9904 42.196C27.9839 42.2612 27.9743 42.3259 27.9616 42.3902C27.9488 42.4544 27.9329 42.5179 27.9139 42.5806C27.8949 42.6433 27.8729 42.7049 27.8478 42.7654C27.8227 42.8259 27.7947 42.885 27.7638 42.9428C27.7329 43.0005 27.6993 43.0566 27.6629 43.1111C27.6266 43.1656 27.5876 43.2181 27.546 43.2688C27.5045 43.3194 27.4605 43.3679 27.4142 43.4142C27.3679 43.4605 27.3194 43.5045 27.2688 43.546C27.2181 43.5876 27.1656 43.6266 27.1111 43.6629C27.0566 43.6993 27.0005 43.7329 26.9428 43.7638C26.885 43.7947 26.8259 43.8227 26.7654 43.8478C26.7049 43.8729 26.6433 43.8949 26.5806 43.9139C26.5179 43.9329 26.4544 43.9488 26.3902 43.9616C26.3259 43.9743 26.2612 43.9839 26.196 43.9904C26.1309 43.9968 26.0655 44 26 44L22 44C21.9345 44 21.8691 43.9968 21.804 43.9904C21.7388 43.9839 21.6741 43.9743 21.6098 43.9616C21.5456 43.9488 21.4821 43.9329 21.4194 43.9139C21.3567 43.8949 21.2951 43.8729 21.2346 43.8478C21.1741 43.8227 21.115 43.7947 21.0572 43.7638C20.9995 43.7329 20.9434 43.6993 20.8889 43.6629C20.8344 43.6266 20.7819 43.5876 20.7312 43.546C20.6806 43.5045 20.6321 43.4605 20.5858 43.4142C20.5395 43.3679 20.4955 43.3194 20.454 43.2688C20.4124 43.2181 20.3734 43.1656 20.3371 43.1111C20.3007 43.0566 20.2671 43.0005 20.2362 42.9428C20.2053 42.885 20.1773 42.8259 20.1522 42.7654C20.1271 42.7049 20.1051 42.6433 20.0861 42.5806C20.0671 42.5179 20.0512 42.4544 20.0384 42.3902C20.0257 42.3259 20.0161 42.2612 20.0096 42.196C20.0032 42.1309 20 42.0655 20 42C20 41.9345 20.0032 41.8691 20.0096 41.804C20.0161 41.7388 20.0257 41.6741 20.0384 41.6098C20.0512 41.5456 20.0671 41.4821 20.0861 41.4194C20.1051 41.3567 20.1271 41.2951 20.1522 41.2346C20.1773 41.1741 20.2053 41.115 20.2362 41.0572C20.2671 40.9995 20.3007 40.9434 20.3371 40.8889C20.3734 40.8344 20.4124 40.7819 20.454 40.7312C20.4955 40.6806 20.5395 40.6321 20.5858 40.5858C20.6321 40.5395 20.6806 40.4955 20.7312 40.454C20.7819 40.4124 20.8344 40.3734 20.8889 40.3371C20.9434 40.3007 20.9995 40.2671 21.0572 40.2362C21.115 40.2053 21.1741 40.1773 21.2346 40.1522C21.2951 40.1271 21.3567 40.1051 21.4194 40.0861C21.4821 40.0671 21.5456 40.0512 21.6098 40.0384C21.6741 40.0257 21.7388 40.0161 21.804 40.0096C21.8691 40.0032 21.9345 40 22 40ZM36 40C36.0655 40 36.1309 40.0032 36.196 40.0096C36.2612 40.0161 36.3259 40.0257 36.3902 40.0384C36.4544 40.0512 36.5179 40.0671 36.5806 40.0861C36.6433 40.1051 36.7049 40.1271 36.7654 40.1522C36.8259 40.1773 36.885 40.2053 36.9428 40.2362C37.0005 40.2671 37.0566 40.3007 37.1111 40.3371C37.1656 40.3734 37.2181 40.4124 37.2688 40.454C37.3194 40.4955 37.3679 40.5395 37.4142 40.5858C37.4605 40.6321 37.5045 40.6806 37.546 40.7312C37.5876 40.7819 37.6266 40.8344 37.6629 40.8889C37.6993 40.9434 37.7329 40.9995 37.7638 41.0572C37.7947 41.115 37.8227 41.1741 37.8478 41.2346C37.8729 41.2951 37.8949 41.3567 37.9139 41.4194C37.9329 41.4821 37.9488 41.5456 37.9616 41.6098C37.9743 41.6741 37.9839 41.7388 37.9904 41.804C37.9968 41.8691 38 41.9345 38 42C38 42.0655 37.9968 42.1309 37.9904 42.196C37.9839 42.2612 37.9743 42.3259 37.9616 42.3902C37.9488 42.4544 37.9329 42.5179 37.9139 42.5806C37.8949 42.6433 37.8729 42.7049 37.8478 42.7654C37.8227 42.8259 37.7947 42.885 37.7638 42.9428C37.7329 43.0005 37.6993 43.0566 37.6629 43.1111C37.6266 43.1656 37.5876 43.2181 37.546 43.2688C37.5045 43.3194 37.4605 43.3679 37.4142 43.4142C37.3679 43.4605 37.3194 43.5045 37.2688 43.546C37.2181 43.5876 37.1656 43.6266 37.1111 43.6629C37.0566 43.6993 37.0005 43.7329 36.9428 43.7638C36.885 43.7947 36.8259 43.8227 36.7654 43.8478C36.7049 43.8729 36.6433 43.8949 36.5806 43.9139C36.5179 43.9329 36.4544 43.9488 36.3902 43.9616C36.3259 43.9743 36.2612 43.9839 36.196 43.9904C36.1309 43.9968 36.0655 44 36 44L32 44C31.9345 44 31.8691 43.9968 31.804 43.9904C31.7388 43.9839 31.6741 43.9743 31.6098 43.9616C31.5456 43.9488 31.4821 43.9329 31.4194 43.9139C31.3567 43.8949 31.2951 43.8729 31.2346 43.8478C31.1741 43.8227 31.115 43.7947 31.0572 43.7638C30.9995 43.7329 30.9434 43.6993 30.8889 43.6629C30.8344 43.6266 30.7819 43.5876 30.7312 43.546C30.6806 43.5045 30.6321 43.4605 30.5858 43.4142C30.5395 43.3679 30.4955 43.3194 30.454 43.2688C30.4124 43.2181 30.3734 43.1656 30.3371 43.1111C30.3007 43.0566 30.2671 43.0005 30.2362 42.9428C30.2053 42.885 30.1773 42.8259 30.1522 42.7654C30.1271 42.7049 30.1051 42.6433 30.0861 42.5806C30.0671 42.5179 30.0512 42.4544 30.0384 42.3902C30.0257 42.3259 30.0161 42.2612 30.0096 42.196C30.0032 42.1309 30 42.0655 30 42C30 41.9345 30.0032 41.8691 30.0096 41.804C30.0161 41.7388 30.0257 41.6741 30.0384 41.6098C30.0512 41.5456 30.0671 41.4821 30.0861 41.4194C30.1051 41.3567 30.1271 41.2951 30.1522 41.2346C30.1773 41.1741 30.2053 41.115 30.2362 41.0572C30.2671 40.9995 30.3007 40.9434 30.3371 40.8889C30.3734 40.8344 30.4124 40.7819 30.454 40.7312C30.4955 40.6806 30.5395 40.6321 30.5858 40.5858C30.6321 40.5395 30.6806 40.4955 30.7312 40.454C30.7819 40.4124 30.8344 40.3734 30.8889 40.3371C30.9434 40.3007 30.9995 40.2671 31.0572 40.2362C31.115 40.2053 31.1741 40.1773 31.2346 40.1522C31.2951 40.1271 31.3567 40.1051 31.4194 40.0861C31.4821 40.0671 31.5456 40.0512 31.6098 40.0384C31.6741 40.0257 31.7388 40.0161 31.804 40.0096C31.8691 40.0032 31.9345 40 32 40L36 40Z">
</path>
</svg>
