<svg xmlns="http://www.w3.org/2000/svg" xmlns:xlink="http://www.w3.org/1999/xlink" width="48" height="48" viewBox="0 0 48 48" fill="none">
<path d="M24.4846 41.1462L41.3035 24.3273C42.4768 23.154 43.0626 21.7377 43.0609 20.0784L43.0479 7.79084C43.0458 5.79949 42.0491 4.80053 40.0579 4.79396L26.6367 4.7496C24.9527 4.74403 23.5202 5.34152 22.3394 6.54208L6.20936 22.9412C5.05431 24.1155 4.48021 25.5263 4.48706 27.1734C4.49391 28.8205 5.07968 30.2264 6.2444 31.3911L15.9994 41.1462C18.3425 43.4893 22.1415 43.4893 24.4846 41.1462ZM34 17.5C34 19.9853 31.9853 22 29.5 22C27.0147 22 25 19.9853 25 17.5C25 15.0147 27.0147 13 29.5 13C31.9853 13 34 15.0147 34 17.5Z" fill-rule="evenodd"  fill="#000000" >
</path>
</svg>
