<svg xmlns="http://www.w3.org/2000/svg" xmlns:xlink="http://www.w3.org/1999/xlink" width="48" height="48" viewBox="0 0 48 48" fill="none">
<path d="M3 36C3 40.4183 6.58172 44 11 44L17 44C20.3137 44 23 41.3137 23 38L23 10C23 6.68629 20.3137 4 17 4L11 4C6.58172 4 3 7.58172 3 12L3 36ZM26 18C26 21.3137 28.6863 24 32 24L39 24C42.3137 24 45 21.3137 45 18L45 12C45 7.58172 41.4183 4 37 4L32 4C28.6863 4 26 6.68629 26 10L26 18ZM32 44C28.6863 44 26 41.3137 26 38L26 32C26 28.6863 28.6863 26 32 26L39 26C42.3137 26 45 28.6863 45 32L45 36C45 40.4183 41.4183 44 37 44L32 44Z" fill-rule="evenodd"  fill="#000000" >
</path>
</svg>
