<svg xmlns="http://www.w3.org/2000/svg" xmlns:xlink="http://www.w3.org/1999/xlink" width="48" height="48" viewBox="0 0 48 48" fill="none">
<path d="M35.9168 14.9167C35.9168 8.33527 30.5816 3 24.0002 3C17.4188 3 12.0835 8.33527 12.0835 14.9167L12.0835 25.0227C12.0835 31.6041 17.4188 36.9394 24.0002 36.9394C30.5816 36.9394 35.9168 31.6041 35.9168 25.0227L35.9168 14.9167ZM8.5 25.5014L8.5 25.1514C8.5 24.0468 7.60457 23.1514 6.5 23.1514C5.39543 23.1514 4.5 24.0468 4.5 25.1514L4.5 25.5014C4.5 36.271 13.2304 45.0014 24 45.0014C34.7696 45.0014 43.5 36.271 43.5 25.5014L43.5 25.1514C43.5 24.0468 42.6046 23.1514 41.5 23.1514C40.3954 23.1514 39.5 24.0468 39.5 25.1514L39.5 25.5014C39.5 34.0618 32.5604 41.0014 24 41.0014C15.4396 41.0014 8.5 34.0618 8.5 25.5014Z" fill-rule="evenodd"  fill="#000000" >
</path>
</svg>
