<svg xmlns="http://www.w3.org/2000/svg" xmlns:xlink="http://www.w3.org/1999/xlink" width="48" height="48" viewBox="0 0 48 48" fill="none">
<path d="M22.09 34.58C22.11 34.64 22.13 34.7 22.15 34.77C22.18 34.83 22.21 34.89 22.24 34.94C22.27 35 22.3 35.06 22.34 35.11C22.37 35.17 22.41 35.22 22.45 35.27C22.5 35.32 22.54 35.37 22.59 35.41C22.63 35.46 22.68 35.5 22.73 35.55C22.78 35.59 22.83 35.63 22.89 35.66C22.94 35.7 23 35.73 23.06 35.76C23.11 35.79 23.17 35.82 23.23 35.85C23.3 35.87 23.36 35.89 23.42 35.91C23.48 35.93 23.55 35.95 23.61 35.96C23.67 35.97 23.74 35.98 23.8 35.99C23.87 36 23.93 36 24 36C24.07 36 24.13 36 24.2 35.99C24.26 35.98 24.33 35.97 24.39 35.96C24.45 35.95 24.52 35.93 24.58 35.91C24.64 35.89 24.7 35.87 24.77 35.85C24.83 35.82 24.89 35.79 24.94 35.76C25 35.73 25.06 35.7 25.11 35.66C25.17 35.63 25.22 35.59 25.27 35.55C25.32 35.5 25.37 35.46 25.41 35.41C25.46 35.37 25.5 35.32 25.55 35.27C25.59 35.22 25.63 35.17 25.66 35.11C25.7 35.06 25.73 35 25.76 34.94C25.79 34.89 25.82 34.83 25.85 34.77C25.87 34.7 25.89 34.64 25.91 34.58C25.93 34.52 25.95 34.45 25.96 34.39C25.97 34.33 25.98 34.26 25.99 34.2C26 34.13 26 34.07 26 34L26 26L34 26C34.07 26 34.13 26 34.2 25.99C34.26 25.98 34.33 25.97 34.39 25.96C34.45 25.95 34.52 25.93 34.58 25.91C34.64 25.89 34.7 25.87 34.77 25.85C34.83 25.82 34.89 25.79 34.94 25.76C35 25.73 35.06 25.7 35.11 25.66C35.17 25.63 35.22 25.59 35.27 25.55C35.32 25.5 35.37 25.46 35.41 25.41C35.46 25.37 35.5 25.32 35.55 25.27C35.59 25.22 35.63 25.17 35.66 25.11C35.7 25.06 35.73 25 35.76 24.94C35.79 24.89 35.82 24.83 35.85 24.77C35.87 24.7 35.89 24.64 35.91 24.58C35.93 24.52 35.95 24.45 35.96 24.39C35.97 24.33 35.98 24.26 35.99 24.2C36 24.13 36 24.07 36 24C36 23.93 36 23.87 35.99 23.8C35.98 23.74 35.97 23.67 35.96 23.61C35.95 23.55 35.93 23.48 35.91 23.42C35.89 23.36 35.87 23.3 35.85 23.23C35.82 23.17 35.79 23.11 35.76 23.06C35.73 23 35.7 22.94 35.66 22.89C35.63 22.83 35.59 22.78 35.55 22.73C35.5 22.68 35.46 22.63 35.41 22.59C35.37 22.54 35.32 22.5 35.27 22.45C35.22 22.41 35.17 22.37 35.11 22.34C35.06 22.3 35 22.27 34.94 22.24C34.89 22.21 34.83 22.18 34.77 22.15C34.7 22.13 34.64 22.11 34.58 22.09C34.52 22.07 34.45 22.05 34.39 22.04C34.33 22.03 34.26 22.02 34.2 22.01C34.13 22 34.07 22 34 22L26 22L26 14C26 13.93 26 13.87 25.99 13.8C25.98 13.74 25.97 13.67 25.96 13.61C25.95 13.55 25.93 13.48 25.91 13.42C25.89 13.36 25.87 13.3 25.85 13.23C25.82 13.17 25.79 13.11 25.76 13.06C25.73 13 25.7 12.94 25.66 12.89C25.63 12.83 25.59 12.78 25.55 12.73C25.5 12.68 25.46 12.63 25.41 12.59C25.37 12.54 25.32 12.5 25.27 12.45C25.22 12.41 25.17 12.37 25.11 12.34C25.06 12.3 25 12.27 24.94 12.24C24.89 12.21 24.83 12.18 24.77 12.15C24.7 12.13 24.64 12.11 24.58 12.09C24.52 12.07 24.45 12.05 24.39 12.04C24.33 12.03 24.26 12.02 24.2 12.01C24.13 12 24.07 12 24 12C23.93 12 23.87 12 23.8 12.01C23.74 12.02 23.67 12.03 23.61 12.04C23.55 12.05 23.48 12.07 23.42 12.09C23.36 12.11 23.3 12.13 23.23 12.15C23.17 12.18 23.11 12.21 23.06 12.24C23 12.27 22.94 12.3 22.89 12.34C22.83 12.37 22.78 12.41 22.73 12.45C22.68 12.5 22.63 12.54 22.59 12.59C22.54 12.63 22.5 12.68 22.45 12.73C22.41 12.78 22.37 12.83 22.34 12.89C22.3 12.94 22.27 13 22.24 13.06C22.21 13.11 22.18 13.17 22.15 13.23C22.13 13.3 22.11 13.36 22.09 13.42C22.07 13.48 22.05 13.55 22.04 13.61C22.03 13.67 22.02 13.74 22.01 13.8C22 13.87 22 13.93 22 14L22 22L14 22C13.93 22 13.87 22 13.8 22.01C13.74 22.02 13.67 22.03 13.61 22.04C13.55 22.05 13.48 22.07 13.42 22.09C13.36 22.11 13.3 22.13 13.23 22.15C13.17 22.18 13.11 22.21 13.06 22.24C13 22.27 12.94 22.3 12.89 22.34C12.83 22.37 12.78 22.41 12.73 22.45C12.68 22.5 12.63 22.54 12.59 22.59C12.54 22.63 12.5 22.68 12.45 22.73C12.41 22.78 12.37 22.83 12.34 22.89C12.3 22.94 12.27 23 12.24 23.06C12.21 23.11 12.18 23.17 12.15 23.23C12.13 23.3 12.11 23.36 12.09 23.42C12.07 23.48 12.05 23.55 12.04 23.61C12.03 23.67 12.02 23.74 12.01 23.8C12 23.87 12 23.93 12 24C12 24.07 12 24.13 12.01 24.2C12.02 24.26 12.03 24.33 12.04 24.39C12.05 24.45 12.07 24.52 12.09 24.58C12.11 24.64 12.13 24.7 12.15 24.77C12.18 24.83 12.21 24.89 12.24 24.94C12.27 25 12.3 25.06 12.34 25.11C12.37 25.17 12.41 25.22 12.45 25.27C12.5 25.32 12.54 25.37 12.59 25.41C12.63 25.46 12.68 25.5 12.73 25.55C12.78 25.59 12.83 25.63 12.89 25.66C12.94 25.7 13 25.73 13.06 25.76C13.11 25.79 13.17 25.82 13.23 25.85C13.3 25.87 13.36 25.89 13.42 25.91C13.48 25.93 13.55 25.95 13.61 25.96C13.67 25.97 13.74 25.98 13.8 25.99C13.87 26 13.93 26 14 26L22 26L22 34C22 34.07 22 34.13 22.01 34.2C22.02 34.26 22.03 34.33 22.04 34.39C22.05 34.45 22.07 34.52 22.09 34.58ZM45 24C45 21.15 44.45 18.43 43.35 15.83C42.29 13.31 40.79 11.09 38.85 9.15C36.91 7.21 34.69 5.71 32.17 4.65C29.57 3.55 26.85 3 24 3C21.15 3 18.43 3.55 15.83 4.65C13.31 5.71 11.09 7.21 9.15 9.15C7.21 11.09 5.71 13.31 4.65 15.83C3.55 18.43 3 21.15 3 24C3 26.85 3.55 29.57 4.65 32.17C5.71 34.69 7.21 36.91 9.15 38.85C11.09 40.79 13.31 42.29 15.83 43.35C18.43 44.45 21.15 45 24 45C26.85 45 29.57 44.45 32.17 43.35C34.69 42.29 36.91 40.79 38.85 38.85C40.79 36.91 42.29 34.69 43.35 32.17C44.45 29.57 45 26.85 45 24Z" fill-rule="evenodd"  fill="#000000" >
</path>
</svg>
