<svg xmlns="http://www.w3.org/2000/svg" xmlns:xlink="http://www.w3.org/1999/xlink" width="48" height="48" viewBox="0 0 48 48" fill="none">
<path d="M3 24.0003C3 12.4021 12.4021 3 24.0003 3C35.5984 3 45.0005 12.4021 45.0005 24.0003C45.0005 30.6897 41.8728 36.6486 37 40.4943L37 36.9C37 32.4817 33.4183 28.9 29 28.9L18 28.9C13.5817 28.9 10 32.4817 10 36.9L10 39.6531C5.70374 35.8079 3 30.2198 3 24.0003ZM14 42.4712C16.9733 44.0843 20.3798 45.0005 24.0003 45.0005C27.221 45.0005 30.2723 44.2755 33 42.9798L33 36.9C33 34.6909 31.2091 32.9 29 32.9L18 32.9C15.7909 32.9 14 34.6909 14 36.9L14 42.4712ZM24 26C28.4183 26 32 22.4183 32 18C32 13.5817 28.4183 10 24 10C19.5817 10 16 13.5817 16 18C16 22.4183 19.5817 26 24 26ZM24 14C26.2091 14 28 15.7909 28 18C28 20.2091 26.2091 22 24 22C21.7909 22 20 20.2091 20 18C20 15.7909 21.7909 14 24 14Z" fill-rule="evenodd"  fill="#000000" >
</path>
</svg>
