<svg xmlns="http://www.w3.org/2000/svg" xmlns:xlink="http://www.w3.org/1999/xlink" width="48" height="48" viewBox="0 0 48 48" fill="none">
<path d="M24.0003 3C12.4021 3 3 12.4021 3 24.0003C3 35.5984 12.4021 45.0005 24.0003 45.0005C35.5984 45.0005 45.0005 35.5984 45.0005 24.0003C45.0005 12.4021 35.5984 3 24.0003 3ZM17.5946 17C18.4753 17 19.1892 17.7139 19.1892 18.5946C19.1892 19.6992 20.0846 20.5946 21.1892 20.5946C22.2938 20.5946 23.1892 19.6992 23.1892 18.5946C23.1892 15.5048 20.6844 13 17.5946 13C14.5048 13 12 15.5048 12 18.5946C12 18.6122 12.0002 18.6298 12.0007 18.6473C12.0002 18.6648 12 18.6824 12 18.7L12 30.7C12 30.8482 12.0161 30.9927 12.0467 31.1317C12.4028 33.8784 14.7509 36 17.5946 36C20.6844 36 23.1892 33.4952 23.1892 30.4054C23.1892 29.3008 22.2938 28.4054 21.1892 28.4054C20.0846 28.4054 19.1892 29.3008 19.1892 30.4054C19.1892 31.2861 18.4753 32 17.5946 32C16.7139 32 16 31.2861 16 30.4054L16 18.7C16 18.6824 15.9998 18.6648 15.9993 18.6473C15.9998 18.6298 16 18.6122 16 18.5946C16 17.7139 16.7139 17 17.5946 17ZM30.5946 17C31.4753 17 32.1892 17.7139 32.1892 18.5946C32.1892 19.6992 33.0846 20.5946 34.1892 20.5946C35.2938 20.5946 36.1892 19.6992 36.1892 18.5946C36.1892 15.5048 33.6844 13 30.5946 13C27.5048 13 25 15.5048 25 18.5946C25 18.6291 25.0009 18.6633 25.0026 18.6973C25.0009 18.7314 25 18.7656 25 18.8001L25 30.8001C25 30.9995 25.0292 31.1921 25.0835 31.3739C25.5422 34.0021 27.8351 36 30.5946 36C33.6844 36 36.1892 33.4952 36.1892 30.4054C36.1892 29.3008 35.2938 28.4054 34.1892 28.4054C33.0846 28.4054 32.1892 29.3008 32.1892 30.4054C32.1892 31.2861 31.4753 32 30.5946 32C29.7139 32 29 31.2861 29 30.4054L29 18.8001C29 18.7656 28.9991 18.7314 28.9974 18.6973C28.9991 18.6633 29 18.6291 29 18.5946C29 17.7139 29.7139 17 30.5946 17Z" fill-rule="evenodd"  fill="#000000" >
</path>
</svg>
