<svg xmlns="http://www.w3.org/2000/svg" xmlns:xlink="http://www.w3.org/1999/xlink" width="48" height="48" viewBox="0 0 48 48" fill="none">
<path d="M2.75233 16.4081L5.40686 34.9899C5.65318 36.7142 6.43426 38.147 7.75009 39.2882C9.06592 40.4294 10.5947 41 12.3365 41L35.6634 41C37.4052 41 38.934 40.4294 40.2498 39.2882C41.5656 38.147 42.3467 36.7143 42.5931 34.99L45.2477 16.4081C45.5655 14.1835 43.4148 12.4121 41.2923 13.1503L32.7757 16.1127L26.4627 7.03791C25.2692 5.32216 22.7308 5.32216 21.5373 7.03791L15.2244 16.1127L6.70772 13.1503C4.58527 12.4121 2.43453 14.1835 2.75233 16.4081ZM28.9998 26.9998C28.9998 29.7612 26.7612 31.9998 23.9998 31.9998C21.2384 31.9998 18.9998 29.7612 18.9998 26.9998C18.9998 24.2384 21.2384 21.9998 23.9998 21.9998C26.7612 21.9998 28.9998 24.2384 28.9998 26.9998Z" fill-rule="evenodd"  fill="#000000" >
</path>
</svg>
