<svg xmlns="http://www.w3.org/2000/svg" xmlns:xlink="http://www.w3.org/1999/xlink" width="48" height="48" viewBox="0 0 48 48" fill="none">
<path d="M24 46.0035C15.16 46.0035 8 38.8335 8 30.0035C8 26.3535 8.7 23.1735 10.11 20.4735C10.97 18.8235 12.62 16.6235 15.06 13.8735C17.99 10.5635 20.2 7.61346 21.7 5.03346C22.07 4.20346 22.72 3.71346 23.65 3.57346C24.63 3.43346 25.43 3.74346 26.05 4.52346L26.13 4.62346L26.2 4.72346C28.99 9.29346 31.07 14.2935 32.45 19.7435C32.71 19.2035 32.94 18.7835 33.14 18.5135C33.98 17.3735 34.98 17.0035 36.12 17.3935C36.98 17.6935 37.63 18.4535 38.07 19.6935C39.36 23.0535 40 26.4835 40 30.0035C40 38.8335 32.84 46.0035 24 46.0035ZM17.0626 39.7949C17.1376 39.8481 17.2133 39.9006 17.2896 39.9521C19.2047 41.2469 21.5138 42.0035 24 42.0035C26.5853 42.0035 28.979 41.1855 30.9374 39.7949C30.9791 39.3696 31 38.9378 31 38.4999C31 37.2499 30.83 36.0499 30.49 34.9099C30.15 33.7899 29.68 32.7899 29.06 31.9099C28.42 31.0199 27.69 30.3099 26.85 29.8099C25.95 29.2699 25 28.9999 24 28.9999C23 28.9999 22.05 29.2699 21.15 29.8099C20.31 30.3099 19.58 31.0199 18.94 31.9099C18.33 32.7899 17.85 33.7899 17.51 34.9099C17.17 36.0499 17 37.2499 17 38.4999C17 38.9378 17.0209 39.3696 17.0626 39.7949Z" fill-rule="evenodd"  fill="#000000" >
</path>
</svg>
