<svg xmlns="http://www.w3.org/2000/svg" xmlns:xlink="http://www.w3.org/1999/xlink" width="48" height="48" viewBox="0 0 48 48" fill="none">
<path d="M24 45C35.6 45 45 35.6 45 24C45 12.4 35.6 3 24 3C12.4 3 3 12.4 3 24C3 35.6 12.4 45 24 45ZM24 16C25.38 16 26.5 14.88 26.5 13.5C26.5 12.12 25.38 11 24 11C22.62 11 21.5 12.12 21.5 13.5C21.5 14.88 22.62 16 24 16ZM20.5 22L22.5 22L22.5 33L20 33C18.9 33 18 33.9 18 35C18 36.1 18.9 37 20 37L28 37C29.1 37 30 36.1 30 35C30 33.9 29.1 33 28 33L26.5 33L26.5 20C26.5 18.9 25.6 18 24.5 18L20.5 18C19.4 18 18.5 18.9 18.5 20C18.5 21.1 19.4 22 20.5 22Z" fill-rule="evenodd"  fill="#000000" >
</path>
</svg>
