<svg xmlns="http://www.w3.org/2000/svg" xmlns:xlink="http://www.w3.org/1999/xlink" width="48" height="48" viewBox="0 0 48 48" fill="none">
<path d="M24.0003 3C12.4021 3 3 12.4021 3 24.0003C3 35.5984 12.4021 45.0005 24.0003 45.0005C35.5984 45.0005 45.0005 35.5984 45.0005 24.0003C45.0005 12.4021 35.5984 3 24.0003 3ZM16 20C14.8954 20 14 19.1046 14 18C14 16.8954 14.8954 16 16 16L32 16C33.1046 16 34 16.8954 34 18C34 19.1046 33.1046 20 32 20L16 20ZM16 32C14.8954 32 14 31.1046 14 30C14 28.8954 14.8954 28 16 28L32 28C33.1046 28 34 28.8954 34 30C34 31.1046 33.1046 32 32 32L16 32Z" fill-rule="evenodd"  fill="#000000" >
</path>
</svg>
