<svg xmlns="http://www.w3.org/2000/svg" xmlns:xlink="http://www.w3.org/1999/xlink" width="48" height="48" viewBox="0 0 48 48" fill="none">
<path d="M38.5 10.5L38.5 8C38.5 6.89543 37.6046 6 36.5 6C35.3954 6 34.5 6.89543 34.5 8L34.5 10.5L32 10.5C30.8954 10.5 30 11.3954 30 12.5C30 13.6046 30.8954 14.5 32 14.5L34.5 14.5L34.5 17.0048C34.5 18.1094 35.3954 19.0048 36.5 19.0048C37.6046 19.0048 38.5 18.1094 38.5 17.0048L38.5 14.5L41.0049 14.5C42.1095 14.5 43.0049 13.6046 43.0049 12.5C43.0049 11.3954 42.1095 10.5 41.0049 10.5L38.5 10.5ZM26.633 30.633L34.0164 27.721C37.3929 26.3893 37.3929 21.6107 34.0164 20.279L26.633 17.367L23.721 9.98359C22.3893 6.60707 17.6107 6.60707 16.279 9.9836L13.367 17.367L5.98356 20.279C2.60704 21.6107 2.60704 26.3893 5.98357 27.721L13.367 30.633L16.279 38.0164C17.6107 41.3929 22.3893 41.3929 23.721 38.0164L26.633 30.633ZM36.5 28C35.3954 28 34.5 28.8954 34.5 30L34.5 33.5L31 33.5C29.8954 33.5 29 34.3954 29 35.5C29 36.6046 29.8954 37.5 31 37.5L34.5 37.5L34.5 41C34.5 42.1046 35.3954 43 36.5 43C37.6046 43 38.5 42.1046 38.5 41L38.5 37.5L42 37.5C43.1046 37.5 44 36.6046 44 35.5C44 34.3954 43.1046 33.5 42 33.5L38.5 33.5L38.5 30C38.5 28.8954 37.6046 28 36.5 28Z" fill-rule="evenodd"  fill="#000000" >
</path>
</svg>
