<svg xmlns="http://www.w3.org/2000/svg" xmlns:xlink="http://www.w3.org/1999/xlink" width="48" height="48" viewBox="0 0 48 48" fill="none">
<path   fill-rule="evenodd"  fill="#000000"  d="M24 3C21.15 3 18.43 3.55 15.83 4.65C13.31 5.71 11.09 7.21 9.15 9.15C7.21 11.09 5.71 13.31 4.65 15.83C3.55 18.43 3 21.15 3 24C3 26.85 3.55 29.57 4.65 32.17C5.71 34.69 7.21 36.91 9.15 38.85C11.09 40.79 13.31 42.29 15.83 43.35C18.43 44.45 21.15 45 24 45C26.85 45 29.57 44.45 32.17 43.35C34.69 42.29 36.91 40.79 38.85 38.85C40.79 36.91 42.29 34.69 43.35 32.17C44.45 29.57 45 26.85 45 24C45 21.15 44.45 18.43 43.35 15.83C42.29 13.31 40.79 11.09 38.85 9.15C36.91 7.21 34.69 5.71 32.17 4.65C29.57 3.55 26.85 3 24 3ZM12.2 26.17C12.23 26.23 12.26 26.29 12.3 26.34C12.33 26.4 12.37 26.45 12.41 26.51L12.53 26.66L17.27 31.77C17.65 32.18 18.1 32.5 18.61 32.72C19.14 32.95 19.69 33.06 20.26 33.05C20.79 33.05 21.32 32.94 21.83 32.71C22.34 32.49 22.79 32.16 23.17 31.74L34.48 19.35L34.6 19.2C34.64 19.14 34.68 19.09 34.71 19.03C34.75 18.98 34.78 18.92 34.81 18.86C34.83 18.8 34.86 18.74 34.88 18.68C34.9 18.62 34.92 18.56 34.94 18.49C34.95 18.43 34.97 18.36 34.98 18.3C34.99 18.24 34.99 18.17 35 18.1L35 17.91C34.99 17.84 34.99 17.78 34.98 17.71C34.97 17.65 34.96 17.58 34.94 17.52C34.93 17.46 34.91 17.39 34.89 17.33C34.86 17.27 34.84 17.21 34.81 17.15C34.78 17.09 34.75 17.03 34.72 16.98C34.69 16.92 34.65 16.87 34.61 16.81L34.49 16.66L34.35 16.52L34.2 16.4C34.14 16.36 34.09 16.32 34.03 16.29C33.98 16.25 33.92 16.22 33.86 16.2C33.8 16.17 33.74 16.14 33.68 16.12C33.62 16.1 33.56 16.08 33.49 16.06C33.43 16.05 33.37 16.03 33.3 16.02C33.24 16.01 33.17 16.01 33.11 16L32.91 16C32.84 16.01 32.78 16.01 32.71 16.02C32.65 16.03 32.58 16.04 32.52 16.06C32.46 16.07 32.39 16.09 32.33 16.11C32.27 16.14 32.21 16.16 32.15 16.19C32.09 16.22 32.03 16.25 31.98 16.28C31.92 16.31 31.87 16.35 31.81 16.39L31.66 16.51L31.52 16.65L20.21 29.05L15.47 23.94L15.33 23.8C15.28 23.76 15.23 23.71 15.17 23.68C15.12 23.64 15.06 23.6 15.01 23.57L14.83 23.48C14.77 23.45 14.71 23.43 14.65 23.41C14.59 23.38 14.53 23.37 14.46 23.35C14.4 23.34 14.33 23.32 14.27 23.31C14.21 23.31 14.14 23.3 14.07 23.3L13.88 23.3C13.81 23.3 13.75 23.31 13.68 23.32C13.62 23.33 13.55 23.35 13.49 23.36C13.43 23.38 13.37 23.4 13.3 23.42C13.24 23.44 13.18 23.47 13.12 23.5C13.06 23.53 13.01 23.56 12.95 23.59C12.9 23.63 12.84 23.66 12.79 23.7C12.74 23.74 12.69 23.79 12.64 23.83C12.59 23.87 12.55 23.92 12.5 23.97L12.38 24.12C12.34 24.18 12.31 24.23 12.27 24.29C12.24 24.35 12.21 24.4 12.18 24.46C12.15 24.52 12.13 24.58 12.11 24.64C12.09 24.71 12.07 24.77 12.05 24.83C12.04 24.9 12.03 24.96 12.02 25.03C12.01 25.09 12 25.16 12 25.22L12 25.42C12.01 25.48 12.01 25.55 12.03 25.61C12.04 25.68 12.05 25.74 12.07 25.81C12.08 25.87 12.1 25.93 12.13 25.99C12.15 26.05 12.17 26.11 12.2 26.17Z">
</path>
</svg>
