<svg xmlns="http://www.w3.org/2000/svg" xmlns:xlink="http://www.w3.org/1999/xlink" width="48" height="48" viewBox="0 0 48 48" fill="none">
<path d="M40.6053 15.3096C44.8427 15.8109 46.5454 21.048 43.4131 23.9454L37.5508 29.3682C37.4232 29.4862 37.3325 29.6279 37.2788 29.7933C37.225 29.9586 37.2151 30.1266 37.249 30.2971L38.8049 38.1309C39.6361 42.3158 35.181 45.552 31.4581 43.4677L24.4888 39.5657C24.337 39.4807 24.1742 39.4382 24.0003 39.4382C23.8263 39.4382 23.6635 39.4807 23.5118 39.5657L16.5425 43.4676C12.8195 45.552 8.3644 42.3158 9.19558 38.1309L10.7515 30.2971C10.7854 30.1266 10.7754 29.9586 10.7217 29.7933C10.668 29.6279 10.5773 29.4862 10.4497 29.3682L4.5874 23.9454C1.45508 21.048 3.15783 15.8109 7.39521 15.3096L15.327 14.3712C15.4998 14.3508 15.6565 14.2895 15.7973 14.1872C15.938 14.085 16.0448 13.9549 16.1176 13.7969L19.4599 6.54964C21.2468 2.67486 26.7538 2.67486 28.5407 6.54964L31.883 13.7969C31.9558 13.9549 32.0625 14.085 32.2033 14.1872C32.344 14.2895 32.5008 14.3508 32.6736 14.3712L40.6053 15.3096Z" fill-rule="evenodd"  fill="#000000" >
</path>
</svg>
