<svg xmlns="http://www.w3.org/2000/svg" xmlns:xlink="http://www.w3.org/1999/xlink" width="48" height="48" viewBox="0 0 48 48" fill="none">
<path d="M24 45C35.6 45 45 35.6 45 24C45 12.4 35.6 3 24 3C12.4 3 3 12.4 3 24C3 35.6 12.4 45 24 45ZM16.61 15.04C16.55 15.05 16.48 15.07 16.42 15.09C16.36 15.11 16.3 15.13 16.23 15.15C16.17 15.18 16.11 15.21 16.06 15.24C16 15.27 15.94 15.3 15.89 15.34C15.83 15.37 15.78 15.41 15.73 15.45C15.68 15.5 15.63 15.54 15.59 15.59C15.54 15.63 15.5 15.68 15.45 15.73C15.41 15.78 15.37 15.83 15.34 15.89C15.3 15.94 15.27 16 15.24 16.06C15.21 16.11 15.18 16.17 15.15 16.23C15.13 16.3 15.11 16.36 15.09 16.42C15.07 16.48 15.05 16.55 15.04 16.61C15.03 16.67 15.02 16.74 15.01 16.8C15 16.87 15 16.93 15 17C15 17.07 15 17.13 15.01 17.2C15.02 17.26 15.03 17.33 15.04 17.39C15.05 17.45 15.07 17.52 15.09 17.58C15.11 17.64 15.13 17.7 15.15 17.77C15.18 17.83 15.21 17.89 15.24 17.94C15.27 18 15.3 18.06 15.34 18.11C15.37 18.17 15.41 18.22 15.45 18.27C15.5 18.32 15.54 18.37 15.59 18.41C15.63 18.46 15.68 18.5 15.73 18.55C15.78 18.59 15.83 18.63 15.89 18.66C15.94 18.7 16 18.73 16.06 18.76C16.11 18.79 16.17 18.82 16.23 18.85C16.3 18.87 16.36 18.89 16.42 18.91C16.48 18.93 16.55 18.95 16.61 18.96C16.67 18.97 16.74 18.98 16.8 18.99C16.87 19 16.93 19 17 19L27.17 19L15.59 30.59C15.49 30.68 15.41 30.78 15.34 30.89C15.26 31 15.2 31.11 15.15 31.23C15.1 31.36 15.06 31.48 15.04 31.61C15.01 31.74 15 31.87 15 32C15 32.13 15.01 32.26 15.04 32.39C15.06 32.52 15.1 32.64 15.15 32.77C15.2 32.89 15.26 33 15.34 33.11C15.41 33.22 15.49 33.32 15.59 33.41C15.68 33.51 15.78 33.59 15.89 33.66C16 33.74 16.11 33.8 16.23 33.85C16.36 33.9 16.48 33.94 16.61 33.96C16.74 33.99 16.87 34 17 34L32 34C32.07 34 32.13 34 32.2 33.99C32.26 33.98 32.33 33.97 32.39 33.96C32.45 33.95 32.52 33.93 32.58 33.91C32.64 33.89 32.7 33.87 32.77 33.85C32.83 33.82 32.88 33.79 32.94 33.76C33 33.73 33.06 33.7 33.11 33.66C33.17 33.63 33.22 33.59 33.27 33.55C33.32 33.5 33.37 33.46 33.41 33.41C33.46 33.37 33.5 33.32 33.55 33.27C33.59 33.22 33.63 33.17 33.66 33.11C33.7 33.06 33.73 33 33.76 32.94C33.79 32.88 33.82 32.83 33.85 32.77C33.87 32.7 33.89 32.64 33.91 32.58C33.93 32.52 33.95 32.45 33.96 32.39C33.97 32.33 33.98 32.26 33.99 32.2C34 32.13 34 32.07 34 32C34 31.93 34 31.87 33.99 31.8C33.98 31.74 33.97 31.67 33.96 31.61C33.95 31.55 33.93 31.48 33.91 31.42C33.89 31.36 33.87 31.3 33.85 31.23C33.82 31.17 33.79 31.12 33.76 31.06C33.73 31 33.7 30.94 33.66 30.89C33.63 30.83 33.59 30.78 33.55 30.73C33.5 30.68 33.46 30.63 33.41 30.59C33.37 30.54 33.32 30.5 33.27 30.45C33.22 30.41 33.17 30.37 33.11 30.34C33.06 30.3 33 30.27 32.94 30.24C32.88 30.21 32.83 30.18 32.77 30.15C32.7 30.13 32.64 30.11 32.58 30.09C32.52 30.07 32.45 30.05 32.39 30.04C32.33 30.03 32.26 30.02 32.2 30.01C32.13 30 32.07 30 32 30L21.83 30L33.41 18.41C33.51 18.32 33.59 18.22 33.66 18.11C33.74 18 33.8 17.89 33.85 17.77C33.9 17.64 33.94 17.52 33.96 17.39C33.99 17.26 34 17.13 34 17C34 16.93 34 16.87 33.99 16.8C33.98 16.74 33.97 16.67 33.96 16.61C33.95 16.55 33.93 16.48 33.91 16.42C33.89 16.36 33.87 16.3 33.85 16.23C33.82 16.17 33.79 16.11 33.76 16.06C33.73 16 33.7 15.94 33.66 15.89C33.63 15.83 33.59 15.78 33.55 15.73C33.5 15.68 33.46 15.63 33.41 15.59C33.37 15.54 33.32 15.5 33.27 15.45C33.22 15.41 33.17 15.37 33.11 15.34C33.06 15.3 33 15.27 32.94 15.24C32.88 15.21 32.83 15.18 32.77 15.15C32.7 15.13 32.64 15.11 32.58 15.09C32.52 15.07 32.45 15.05 32.39 15.04C32.33 15.03 32.26 15.02 32.2 15.01C32.13 15 32.07 15 32 15L17 15C16.93 15 16.87 15 16.8 15.01C16.74 15.02 16.67 15.03 16.61 15.04Z" fill-rule="evenodd"  fill="#000000" >
</path>
</svg>
