<svg xmlns="http://www.w3.org/2000/svg" xmlns:xlink="http://www.w3.org/1999/xlink" width="48" height="48" viewBox="0 0 48 48" fill="none">
<path d="M22.52 43.1002C23.28 43.5302 24.08 43.7502 24.95 43.7602C25.86 43.7702 26.73 43.5402 27.53 43.0702L34.15 39.1702C35.11 38.6102 35.85 37.8502 36.37 36.9002C36.87 36.0002 37.11 35.0302 37.11 34.0002C37.11 32.9702 36.87 32.0002 36.37 31.1002C35.85 30.1502 35.11 29.3902 34.16 28.8302L25.95 24.0002L34.15 19.1702C35.11 18.6102 35.85 17.8502 36.37 16.9002C36.87 16.0002 37.11 15.0302 37.11 14.0002C37.11 12.9702 36.87 12.0002 36.37 11.1002C35.85 10.1502 35.11 9.39023 34.16 8.83023L27.53 4.94023C26.73 4.46023 25.87 4.23023 24.95 4.24023C24.08 4.25023 23.27 4.47023 22.51 4.91023C21.76 5.34023 21.16 5.93023 20.71 6.67023C20.24 7.46023 20 8.32023 20 9.25023L20 20.3602L12.08 15.3102L12.07 15.3202C11.76 15.1202 11.39 15.0002 11 15.0002C9.9 15.0002 9 15.9002 9 17.0002C9 17.7402 9.41 18.3902 10.01 18.7402L18.28 24.0002L9.93 29.3102L9.93 29.3102C9.37 29.6702 9 30.2902 9 31.0002C9 32.1002 9.9 33.0002 11 33.0002C11.41 33.0002 11.79 32.8702 12.11 32.6602L20 27.6402L20 38.7602C20 39.6902 20.24 40.5602 20.71 41.3402C21.16 42.0802 21.76 42.6602 22.52 43.1002ZM33.11 14.0002C33.11 13.6502 33.03 13.3302 32.87 13.0302C32.69 12.7102 32.45 12.4602 32.12 12.2702L25.51 8.38023C25.34 8.29023 25.17 8.24023 24.99 8.24023C24.82 8.24023 24.66 8.29023 24.51 8.38023C24.35 8.47023 24.23 8.58023 24.14 8.73023C24.05 8.89023 24 9.06023 24 9.25023L24 20.5002L32.13 15.7302C32.45 15.5402 32.69 15.2802 32.87 14.9702C33.03 14.6702 33.11 14.3502 33.11 14.0002ZM24.5 39.6202C24.66 39.7102 24.82 39.7502 24.99 39.7602C25.17 39.7602 25.34 39.7102 25.51 39.6102L32.13 35.7302C32.45 35.5402 32.69 35.2802 32.87 34.9702C33.03 34.6702 33.11 34.3502 33.11 34.0002C33.11 33.6502 33.03 33.3302 32.87 33.0302C32.69 32.7102 32.45 32.4602 32.12 32.2702L24 27.5002L24 38.7602C24 38.9502 24.05 39.1202 24.14 39.2702C24.22 39.4202 24.35 39.5302 24.5 39.6202Z" fill-rule="evenodd"  fill="#000000" >
</path>
</svg>
