<svg xmlns="http://www.w3.org/2000/svg" xmlns:xlink="http://www.w3.org/1999/xlink" width="48" height="48" viewBox="0 0 48 48" fill="none">
<path d="M30.5 24.5C30.5 23.4 29.6 22.5 28.5 22.5C27.4 22.5 26.5 23.4 26.5 24.5C26.5 29.75 22.25 34 17 34C11.75 34 7.5 29.75 7.5 24.5C7.5 19.25 11.75 15 17 15C18.1 15 19 14.1 19 13C19 11.9 18.1 11 17 11C9.54 11 3.5 17.04 3.5 24.5C3.5 31.96 9.54 38 17 38C24.46 38 30.5 31.96 30.5 24.5ZM17.7 24.5C17.7 25.6 18.6 26.5 19.7 26.5C20.8 26.5 21.7 25.6 21.7 24.5C21.7 19.25 25.95 15 31.2 15C36.45 15 40.7 19.25 40.7 24.5C40.7 29.75 36.45 34 31.2 34C30.1 34 29.2 34.9 29.2 36C29.2 37.1 30.1 38 31.2 38C38.66 38 44.7 31.96 44.7 24.5C44.7 17.04 38.66 11 31.2 11C23.74 11 17.7 17.04 17.7 24.5Z" fill-rule="evenodd"  fill="#000000" >
</path>
</svg>
