<svg xmlns="http://www.w3.org/2000/svg" xmlns:xlink="http://www.w3.org/1999/xlink" width="48" height="48" viewBox="0 0 48 48" fill="none">
<path d="M6.37 3.89C5.64 4.97 5.03 6.13 4.52 7.35C3.51 9.79 3 12.34 3 15C3 17.66 3.51 20.21 4.52 22.66C5.03 23.88 5.64 25.03 6.37 26.11C6.73 26.65 7.34 27 8.03 27C9.14 27 10.03 26.1 10.03 25C10.03 24.56 9.89 24.16 9.65 23.83C9.09 22.98 8.61 22.08 8.22 21.12C7.41 19.17 7 17.13 7 15C7 12.87 7.41 10.83 8.22 8.87C8.61 7.92 9.09 7.02 9.65 6.17C9.89 5.84 10.03 5.44 10.03 5C10.03 3.9 9.14 3 8.03 3C7.34 3 6.73 3.35 6.37 3.89ZM38.35 6.13C38.92 6.98 39.41 7.9 39.83 8.89C40.63 10.82 41.03 12.86 41.03 15C41.03 17.14 40.63 19.18 39.82 21.12C39.41 22.1 38.92 23.02 38.35 23.87C38.13 24.19 38 24.58 38 25C38 26.1 38.9 27 40 27C40.7 27 41.32 26.64 41.68 26.09C42.39 25.03 43 23.88 43.52 22.66C44.53 20.23 45.03 17.67 45.03 15C45.03 12.33 44.52 9.77 43.51 7.33C43 6.11 42.39 4.97 41.68 3.91C41.32 3.36 40.7 3 40 3C38.9 3 38 3.9 38 5C38 5.42 38.13 5.81 38.35 6.13ZM11.04 9.45C10.35 11.22 10 13.07 10 15C10 16.93 10.35 18.78 11.04 20.55C11.38 21.42 11.79 22.25 12.29 23.04C12.64 23.61 13.28 24 14 24C15.1 24 16 23.1 16 22C16 21.6 15.88 21.22 15.68 20.91C15.32 20.33 15.01 19.73 14.76 19.09C14.25 17.79 14 16.43 14 15C14 13.57 14.25 12.2 14.76 10.91C15.01 10.27 15.32 9.67 15.68 9.09C15.88 8.78 16 8.4 16 8C16 6.9 15.1 6 14 6C13.28 6 12.64 6.39 12.29 6.96C11.79 7.75 11.38 8.58 11.04 9.45ZM32.32 9.09C32.68 9.67 32.99 10.27 33.24 10.91C33.75 12.2 34 13.57 34 15C34 16.43 33.75 17.79 33.24 19.09C32.99 19.73 32.68 20.33 32.32 20.91C32.12 21.22 32 21.6 32 22C32 23.1 32.9 24 34 24C34.72 24 35.36 23.61 35.71 23.04C36.21 22.25 36.62 21.42 36.96 20.55C37.65 18.78 38 16.93 38 15C38 13.07 37.65 11.22 36.96 9.45C36.62 8.58 36.21 7.75 35.71 6.96C35.36 6.39 34.72 6 34 6C32.9 6 32 6.9 32 8C32 8.4 32.12 8.78 32.32 9.09ZM16 15C16 18.73 18.55 21.86 22 22.75L22 32L12.35 32C10.17 32 8.16 33.19 7.1 35.09L5.75 37.53C3.89 40.88 6.31 45 10.15 45L37.85 45C41.68 45 44.1 40.88 42.25 37.53L42.24 37.53L40.88 35.09C39.84 33.18 37.83 32 35.65 32L26 32L26 22.75C29.45 21.86 32 18.73 32 15C32 10.58 28.42 7 24 7C19.58 7 16 10.58 16 15ZM28 15C28 12.79 26.21 11 24 11C21.79 11 20 12.79 20 15C20 17.21 21.79 19 24 19C26.21 19 28 17.21 28 15ZM12.35 36C11.62 36 10.96 36.39 10.61 37.03L9.24 39.47C8.86 40.16 9.36 41 10.15 41L37.85 41C38.63 41 39.13 40.16 38.75 39.47L37.39 37.03C37.04 36.39 36.37 36 35.65 36L12.35 36Z" fill-rule="evenodd"  fill="#000000" >
</path>
</svg>
