<svg xmlns="http://www.w3.org/2000/svg" xmlns:xlink="http://www.w3.org/1999/xlink" width="48" height="48" viewBox="0 0 48 48" fill="none">
<path d="M40 11C40 6.58 36.42 3 32 3L16 3C11.58 3 8 6.58 8 11L8 22.5C8 26.92 11.58 30.5 16 30.5L22 30.5L22 38L18 38C16.9 38 16 38.9 16 40L7 40C5.9 40 5 40.9 5 42C5 43.1 5.9 44 7 44L16 44C16 45.1 16.9 46 18 46L30 46C31.1 46 32 45.1 32 44L41 44C42.1 44 43 43.1 43 42C43 40.9 42.1 40 41 40L32 40C32 38.9 31.1 38 30 38L26 38L26 30.5L32 30.5C36.42 30.5 40 26.92 40 22.5L40 11ZM32 26.5C34.21 26.5 36 24.71 36 22.5L36 11C36 8.79 34.21 7 32 7L16 7C13.79 7 12 8.79 12 11L12 22.5C12 24.71 13.79 26.5 16 26.5L24 26.5L32 26.5Z" fill-rule="evenodd"  fill="#000000" >
</path>
</svg>
