<svg xmlns="http://www.w3.org/2000/svg" xmlns:xlink="http://www.w3.org/1999/xlink" width="48" height="48" viewBox="0 0 48 48" fill="none">
<path d="M38.9526 5L38.9526 43C38.9526 44.1 39.8726 45 41.0026 45C42.1226 45 43.0526 44.1 43.0526 43L43.0526 5C43.0526 3.9 42.1226 3 41.0026 3C39.8726 3 38.9526 3.9 38.9526 5ZM31.7126 43L31.7126 13C31.7126 11.9 30.7926 11 29.6626 11C28.5426 11 27.6226 11.9 27.6226 13L27.6226 43C27.6226 44.1 28.5426 45 29.6626 45C30.7926 45 31.7126 44.1 31.7126 43ZM20.3826 43L20.3826 21C20.3826 19.9 19.4626 19 18.3326 19C17.2026 19 16.2826 19.9 16.2826 21L16.2826 43C16.2826 44.1 17.2026 45 18.3326 45C19.4626 45 20.3826 44.1 20.3826 43ZM9.05264 43L9.05264 28C9.05264 26.9 8.12264 26 7.00264 26C5.87264 26 4.95264 26.9 4.95264 28L4.95264 43C4.95264 44.1 5.87264 45 7.00264 45C8.12264 45 9.05264 44.1 9.05264 43Z" fill-rule="evenodd"  fill="#000000" >
</path>
</svg>
