<svg xmlns="http://www.w3.org/2000/svg" xmlns:xlink="http://www.w3.org/1999/xlink" width="48" height="48" viewBox="0 0 48 48" fill="none">
<path d="M24 7.99994C16.8 7.99994 10.65 10.6199 5.56 15.8599C4.37 17.0699 3.3 18.4099 2.34 19.8799C2.13 20.1999 2 20.5899 2 20.9999C2 22.0999 2.9 22.9999 4 22.9999C4.71 22.9999 5.34 22.6299 5.69 22.0699C6.51 20.8199 7.42 19.6699 8.42 18.6399C12.73 14.2099 17.93 11.9999 24 11.9999C26.69 11.9999 29.2 12.4299 31.55 13.2999L27.54 17.3099C26.41 17.0999 25.22 16.9999 24 16.9999C18.97 16.9999 14.68 18.7299 11.13 22.1799C10.29 22.9899 9.53 23.8799 8.87 24.8499C8.64 25.1699 8.5 25.5699 8.5 25.9999C8.5 27.0999 9.4 27.9999 10.5 27.9999C11.19 27.9999 11.81 27.6499 12.16 27.1099C12.67 26.3699 13.26 25.6799 13.91 25.0599C16.65 22.3799 19.96 21.0299 23.85 20.9999L5.32 39.5299C4.95 39.8899 4.73 40.3899 4.73 40.9399C4.73 42.0499 5.63 42.9399 6.73 42.9399C7.3 42.9399 7.82 42.6999 8.19 42.3099L17.68 32.8199C17.68 32.8199 17.68 32.8199 17.68 32.8299L24.5 26.0099C24.49 26.0099 24.49 26.0099 24.48 26.0099L28.75 21.7399C28.76 21.7399 28.76 21.7499 28.76 21.7499L31.84 18.6699C31.84 18.6699 31.83 18.6599 31.83 18.6599L35.32 15.1699C35.32 15.1699 35.33 15.1799 35.33 15.1799L38.23 12.2799C38.22 12.2799 38.22 12.2799 38.22 12.2699L43.14 7.34994C43.51 6.98994 43.73 6.48994 43.73 5.93994C43.73 4.83994 42.83 3.93994 41.73 3.93994C41.18 3.93994 40.68 4.15994 40.32 4.52994L40.31 4.53994L34.62 10.2299C31.38 8.73994 27.84 7.99994 24 7.99994ZM39.58 18.6499C40.58 19.6799 41.49 20.8199 42.31 22.0699C42.66 22.6299 43.29 22.9999 44 22.9999C45.1 22.9999 46 22.0999 46 20.9999C46 20.5899 45.87 20.1999 45.66 19.8799C44.7 18.4099 43.63 17.0699 42.44 15.8499C42.08 15.4799 41.72 15.1299 41.36 14.7899L38.52 17.6299C38.88 17.9499 39.23 18.2899 39.58 18.6499ZM34.09 25.0499C34.74 25.6799 35.33 26.3699 35.84 27.1099C36.19 27.6499 36.81 27.9999 37.5 27.9999C38.6 27.9999 39.5 27.0999 39.5 25.9999C39.5 25.5699 39.36 25.1699 39.13 24.8499C38.47 23.8799 37.71 22.9899 36.87 22.1899C36.37 21.6999 35.85 21.2499 35.32 20.8299L32.47 23.6799C33.03 24.0899 33.57 24.5499 34.09 25.0499ZM27.24 31.3699C27.46 31.5999 27.65 31.8299 27.81 32.0699C28.16 32.6299 28.79 32.9999 29.5 32.9999C30.6 32.9999 31.5 32.0999 31.5 30.9999C31.5 30.5899 31.37 30.1999 31.16 29.8799C30.87 29.4399 30.51 28.9999 30.1 28.5699C29.67 28.1299 29.21 27.7399 28.73 27.4199L25.79 30.3599C26.32 30.5899 26.8 30.9199 27.24 31.3699ZM21.5 37.4999C21.5 38.8799 22.62 39.9999 24 39.9999C25.38 39.9999 26.5 38.8799 26.5 37.4999C26.5 36.1199 25.38 34.9999 24 34.9999C22.62 34.9999 21.5 36.1199 21.5 37.4999Z" fill-rule="evenodd"  fill="#000000" >
</path>
</svg>
