<svg xmlns="http://www.w3.org/2000/svg" xmlns:xlink="http://www.w3.org/1999/xlink" width="48" height="48" viewBox="0 0 48 48" fill="none">
<path d="M8.59357 13.0455C7.13604 14.102 5.78502 15.2977 4.54053 16.6325C4.20529 16.9902 4 17.4711 4 18C4 19.1046 4.89543 20 6 20C6.57964 20 7.10168 19.7534 7.46696 19.3594C9.63315 17.0362 12.1168 15.2389 14.918 13.9677C17.8084 12.6559 20.8357 12 24 12C27.1643 12 30.1916 12.6559 33.082 13.9677C35.8831 15.2389 38.3668 17.0362 40.533 19.3594C40.5343 19.3608 40.5356 19.3622 40.5369 19.3636C40.902 19.7551 41.4224 20 42 20C43.1046 20 44 19.1046 44 18C44 17.473 43.7962 16.9937 43.4631 16.6364C43.4618 16.6351 43.4606 16.6338 43.4594 16.6324C42.2149 15.2976 40.8639 14.102 39.4064 13.0455C37.9302 11.9753 36.3731 11.0686 34.7351 10.3252C31.3194 8.77508 27.7411 8 24 8C20.2589 8 16.6806 8.77508 13.2649 10.3252C11.6269 11.0686 10.0698 11.9753 8.59357 13.0455ZM29.8225 23.1828C31.6123 23.9447 33.1988 25.0205 34.5819 26.4104L34.5823 26.4108C34.9445 26.7747 35.446 27 36 27C37.1046 27 38 26.1046 38 25C38 24.4495 37.7776 23.9509 37.4177 23.5892L37.4159 23.5875C35.666 21.8295 33.6571 20.4678 31.3891 19.5024C29.0362 18.5008 26.5731 18 24 18C21.4269 18 18.9638 18.5008 16.6109 19.5024C14.3429 20.4678 12.334 21.8295 10.5841 23.5875C10.5835 23.588 10.5829 23.5886 10.5823 23.5892C10.2224 23.9509 10 24.4495 10 25C10 26.1046 10.8954 27 12 27C12.554 27 13.0555 26.7747 13.4177 26.4108C14.801 25.0207 16.3876 23.9447 18.1775 23.1828C20.03 22.3943 21.9709 22 24 22C26.0292 22 27.97 22.3943 29.8225 23.1828ZM27.6093 32.3611L27.6107 32.3625C27.9705 32.71 28.4603 32.9238 29 32.9238C30.1046 32.9238 31 32.0284 31 30.9238C31 30.359 30.7658 29.8488 30.3893 29.4851C30.3886 29.4844 30.3878 29.4836 30.387 29.4829C29.5505 28.6757 28.5911 28.051 27.5086 27.6089C26.3904 27.1522 25.2209 26.9238 24 26.9238C22.7791 26.9238 21.6096 27.1522 20.4914 27.6089C19.409 28.051 18.4496 28.6756 17.6132 29.4827C17.2352 29.8466 17 30.3577 17 30.9238C17 32.0284 17.8954 32.9238 19 32.9238C19.5405 32.9238 20.0309 32.7094 20.3909 32.361C20.8584 31.9099 21.3961 31.5602 22.0039 31.3119C22.6374 31.0532 23.3027 30.9238 24 30.9238C24.6973 30.9238 25.3626 31.0532 25.9961 31.3119C26.604 31.5602 27.1417 31.9099 27.6093 32.3611ZM24 35C22.62 35 21.5 36.12 21.5 37.5C21.5 38.88 22.62 40 24 40C25.38 40 26.5 38.88 26.5 37.5C26.5 36.12 25.38 35 24 35Z" fill-rule="evenodd"  fill="#000000" >
</path>
</svg>
