<svg xmlns="http://www.w3.org/2000/svg" xmlns:xlink="http://www.w3.org/1999/xlink" width="48" height="48" viewBox="0 0 48 48" fill="none">
<path d="M14 45C9.58172 45 6 41.4183 6 37L6 11C6 6.58172 9.58172 3 14 3L34 3C38.4183 3 42 6.58172 42 11L42 37C42 41.4183 38.4183 45 34 45L14 45ZM14 9L14 16.7338C14 19.0657 16.5439 20.506 18.5435 19.3063L21 17.8324L23.4565 19.3063C25.4561 20.506 28 19.0657 28 16.7338L28 9C28 7.89543 27.1046 7 26 7C24.8954 7 24 7.89543 24 9L24 14.9676L22.5435 14.0937C21.5145 13.4763 20.4855 13.4763 19.4565 14.0937L18 14.9676L18 9C18 7.89543 17.1046 7 16 7C14.8954 7 14 7.89543 14 9ZM31.5858 27.5858L31.585 27.5865L25 34.1716L22.4142 31.5858C22.0523 31.2239 21.5523 31 21 31C19.8954 31 19 31.8954 19 33C19 33.5523 19.2239 34.0523 19.5858 34.4142L22.643 37.4714C23.9447 38.7732 26.0553 38.7732 27.357 37.4714L34.4135 30.415L34.4142 30.4142C34.7761 30.0523 35 29.5523 35 29C35 27.8954 34.1046 27 33 27C32.4477 27 31.9477 27.2239 31.5858 27.5858Z" fill-rule="evenodd"  fill="#000000" >
</path>
</svg>
