<svg xmlns="http://www.w3.org/2000/svg" xmlns:xlink="http://www.w3.org/1999/xlink" width="48" height="48" viewBox="0 0 48 48" fill="none">
<path d="M9.07363 28.45C9.02363 28.56 8.97363 28.66 8.93363 28.77L7.26363 33.13C5.25363 38.37 9.11363 44 14.7336 44L33.2636 44C38.8736 44 42.7436 38.37 40.7236 33.13L34.2636 16.32C34.0936 15.87 34.0036 15.38 34.0036 14.89L34.0036 8L36.0036 8C37.1036 8 38.0036 7.1 38.0036 6C38.0036 4.9 37.1036 4 36.0036 4L12.0036 4C10.9036 4 10.0036 4.9 10.0036 6C10.0036 7.1 10.9036 8 12.0036 8L14.0036 8L14.0036 14.89C14.0036 15.38 13.9036 15.87 13.7336 16.33L9.07363 28.45ZM30.5336 17.76C30.1836 16.83 30.0036 15.87 30.0036 14.89L30.0036 8L18.0036 8L18.0036 14.89C18.0036 15.87 17.8136 16.83 17.4736 17.75L14.9836 24.21C15.7136 24.07 16.4836 24 17.3036 24C19.5136 24 22.1236 25.34 25.1336 28.01C27.3736 30 29.0936 31 30.3036 31C32.6936 31 34.2036 30.33 34.8436 28.98L30.5336 17.76Z" fill-rule="evenodd"  fill="#000000" >
</path>
</svg>
