<svg xmlns="http://www.w3.org/2000/svg" xmlns:xlink="http://www.w3.org/1999/xlink" width="48" height="48" viewBox="0 0 48 48" fill="none">
<path d="M14 9C14 10.1046 14.8954 11 16 11L32 11C33.1046 11 34 10.1046 34 9C34 7.89543 33.1046 7 32 7L16 7C14.8954 7 14 7.89543 14 9ZM11 13L37 13C41.4183 13 45 16.5817 45 21L45 33C45 37.4183 41.4183 41 37 41L11 41C6.58172 41 3 37.4183 3 33L3 21C3 16.5817 6.58172 13 11 13ZM11 17C8.79086 17 7 18.7909 7 21L7 33C7 35.2091 8.79086 37 11 37L37 37C39.2091 37 41 35.2091 41 33L41 21C41 18.7909 39.2091 17 37 17L11 17ZM20 25L20 29C20 30.1046 19.1046 31 18 31C16.8954 31 16 30.1046 16 29L16 25C16 23.8954 16.8954 23 18 23C19.1046 23 20 23.8954 20 25ZM32 25L32 29C32 30.1046 31.1046 31 30 31C28.8954 31 28 30.1046 28 29L28 25C28 23.8954 28.8954 23 30 23C31.1046 23 32 23.8954 32 25Z" fill-rule="evenodd"  fill="#000000" >
</path>
</svg>
