<svg xmlns="http://www.w3.org/2000/svg" xmlns:xlink="http://www.w3.org/1999/xlink" width="48" height="48" viewBox="0 0 48 48" fill="none">
<path d="M32.777 26C31.8675 30.008 28.2832 33 24 33C19.7168 33 16.1325 30.008 15.223 26L5 26C3.89543 26 3 25.1046 3 24C3 22.8954 3.89543 22 5 22L15.223 22C16.1325 17.992 19.7168 15 24 15C28.2832 15 31.8675 17.992 32.777 22L43 22C44.1046 22 45 22.8954 45 24C45 25.1046 44.1046 26 43 26L32.777 26ZM24 29C21.2386 29 19 26.7614 19 24C19 21.2386 21.2386 19 24 19C26.7614 19 29 21.2386 29 24C29 26.7614 26.7614 29 24 29Z" fill-rule="evenodd"  fill="#000000" >
</path>
</svg>
