<svg xmlns="http://www.w3.org/2000/svg" xmlns:xlink="http://www.w3.org/1999/xlink" width="48" height="48" viewBox="0 0 48 48" fill="none">
<path d="M16 21.523L16 30.2899C18.8915 31.1504 21 33.829 21 37C21 40.866 17.866 44 14 44C10.134 44 7 40.866 7 37C7 33.829 9.10851 31.1504 12 30.2899L12 17.7101C9.10851 16.8496 7 14.171 7 11C7 7.13401 10.134 4 14 4C17.866 4 21 7.13401 21 11C21 13.7361 19.4302 16.1055 17.1422 17.2568C18.4185 18.5883 20.4665 19.7204 23.2864 20.6531C26.8505 21.8319 29.5079 23.3085 31.2585 25.0828C32.3407 24.397 33.624 24 35 24C38.866 24 42 27.134 42 31C42 34.866 38.866 38 35 38C31.134 38 28 34.866 28 31C28 29.969 28.2229 28.99 28.6231 28.1087C27.3889 26.7156 25.1913 25.4963 22.0303 24.4508C19.5978 23.6463 17.5877 22.6703 16 21.523ZM13.9844 14C12.3347 13.9916 11 12.6517 11 11C11 9.34315 12.3432 8 14 8C15.6568 8 17 9.34315 17 11C17 12.6517 15.6653 13.9916 14.0156 14L14 13.9999L13.9844 14L13.9844 14ZM32.5839 29.2214C32.2169 29.7191 32 30.3342 32 31C32 32.6568 33.3432 34 35 34C36.6568 34 38 32.6568 38 31C38 29.3432 36.6568 28 35 28C34.0282 28 33.1643 28.4621 32.616 29.1786C32.6055 29.193 32.5948 29.2073 32.5839 29.2214ZM14 34C15.6568 34 17 35.3432 17 37C17 38.6568 15.6568 40 14 40C12.3432 40 11 38.6568 11 37C11 35.3432 12.3432 34 14 34Z" fill-rule="evenodd"  fill="#000000" >
</path>
</svg>
