<svg xmlns="http://www.w3.org/2000/svg" xmlns:xlink="http://www.w3.org/1999/xlink" width="48" height="48" viewBox="0 0 48 48" fill="none">
<path d="M19 10.5C19 13.671 16.8915 16.3496 14 17.2101L14 30.2899C16.8915 31.1504 19 33.829 19 37C19 40.866 15.866 44 12 44C8.13401 44 5 40.866 5 37C5 33.829 7.10851 31.1504 10 30.2899L10 17.2101C7.10851 16.3496 5 13.671 5 10.5C5 6.63401 8.13401 3.5 12 3.5C15.866 3.5 19 6.63401 19 10.5ZM30.5 6.50011L30.5 8.5L31.9998 8.5C36.4181 8.5 39.9998 12.0817 39.9998 16.5L39.9998 30.2898C42.8914 31.1503 45 33.8289 45 37C45 40.866 41.866 44 38 44C34.134 44 31 40.866 31 37C31 33.829 33.1084 31.1505 35.9999 30.2899L35.9999 16.5C35.9999 14.2909 34.209 12.5 31.9998 12.5L30.5 12.5L30.5 14.5001C30.5 16.2819 28.3457 17.1742 27.0858 15.9143L23.5572 12.3857C22.5158 11.3443 22.5158 9.65589 23.5572 8.61449L27.0858 5.0859C28.3457 3.82597 30.5 4.7183 30.5 6.50011ZM12 7.5C13.6568 7.5 15 8.84315 15 10.5C15 12.1568 13.6568 13.5 12 13.5C10.3432 13.5 9 12.1568 9 10.5C9 8.84315 10.3432 7.5 12 7.5ZM12 34C13.6568 34 15 35.3432 15 37C15 38.6568 13.6568 40 12 40C10.3432 40 9 38.6568 9 37C9 35.3432 10.3432 34 12 34ZM35 37C35 38.6568 36.3432 40 38 40C39.6568 40 41 38.6568 41 37C41 35.3432 39.6568 34 38 34C36.3432 34 35 35.3432 35 37Z" fill-rule="evenodd"  fill="#000000" >
</path>
</svg>
