<svg xmlns="http://www.w3.org/2000/svg" xmlns:xlink="http://www.w3.org/1999/xlink" width="48" height="48" viewBox="0 0 48 48" fill="none">
<path d="M14 3C9.58 3 6 6.58 6 11L6 40C6 41.05 6.31 42.07 6.93 43.06C8.15 45.02 10.18 46 13 46L38 46C40.21 46 42 44.21 42 42L42 7C42 4.79 40.21 3 38 3L16 3L14 3ZM10 11L10 34.47C10.87 34.16 11.87 34 13 34L38 34L38 7L28 7L28 19.2C28 21.56 25.41 23 23.42 21.75L21 20.25L18.59 21.74C16.6 23 14 21.56 14 19.2L14 7C11.79 7 10 8.79 10 11ZM18 7L18 17.41L19.42 16.53C20.38 15.93 21.62 15.93 22.59 16.53L24 17.41L24 7L18 7ZM38 42L38 38L13 38C11 38 10 38.67 10 40C10 41.33 11 42 13 42L38 42Z" fill-rule="evenodd"  fill="#000000" >
</path>
</svg>
