<svg xmlns="http://www.w3.org/2000/svg" xmlns:xlink="http://www.w3.org/1999/xlink" width="48" height="48" viewBox="0 0 48 48" fill="none">
<path d="M23 1L25 1C27.7614 1 30 3.23858 30 6L30 9.77894C33.0102 11.7416 35 15.1385 35 19L35 29C35 32.8615 33.0102 36.2583 30 38.2211L30 42C30 44.7614 27.7614 47 25 47L23 47C20.2386 47 18 44.7614 18 42L18 38.2211C14.9898 36.2584 13 32.8615 13 29L13 19C13 15.1384 14.9898 11.7416 18 9.77893L18 6C18 3.23858 20.2386 1 23 1ZM26 8.18138C25.3514 8.06225 24.683 8 24 8C23.317 8 22.6486 8.06225 22 8.18138L22 6C22 5.44772 22.4477 5 23 5L25 5C25.5523 5 26 5.44772 26 6L26 8.18138ZM22 39.8186L22 42C22 42.5523 22.4477 43 23 43L25 43C25.5523 43 26 42.5523 26 42L26 39.8186C25.3514 39.9378 24.683 40 24 40C23.317 40 22.6486 39.9378 22 39.8186Z" fill-rule="evenodd"  fill="#000000" >
</path>
</svg>
