<svg xmlns="http://www.w3.org/2000/svg" xmlns:xlink="http://www.w3.org/1999/xlink" width="48" height="48" viewBox="0 0 48 48" fill="none">
<path d="M40 29L40 19C40 14.58 36.42 11 32 11L10 11C5.58 11 2 14.58 2 19L2 29C2 33.42 5.58 37 10 37L32 37C36.42 37 40 33.42 40 29ZM32 15L10 15C7.79 15 6 16.79 6 19L6 29C6 31.21 7.79 33 10 33L32 33C34.21 33 36 31.21 36 29L36 19C36 16.79 34.21 15 32 15ZM34 28L34 20C34 18.34 32.66 17 31 17L11 17C9.34 17 8 18.34 8 20L8 28C8 29.66 9.34 31 11 31L31 31C32.66 31 34 29.66 34 28ZM46 29L46 19C46 17.9 45.1 17 44 17C42.9 17 42 17.9 42 19L42 29C42 30.1 42.9 31 44 31C45.1 31 46 30.1 46 29Z" fill-rule="evenodd"  fill="#000000" >
</path>
</svg>
