<svg xmlns="http://www.w3.org/2000/svg" xmlns:xlink="http://www.w3.org/1999/xlink" width="48" height="48" viewBox="0 0 48 48" fill="none">
<path d="M46 17.5C46 13.91 43.09 11 39.5 11L37.32 11C36.6 11 35.94 10.62 35.59 9.99L34.47 8.03C33.04 5.54 30.39 4 27.52 4L20.48 4C17.61 4 14.96 5.54 13.53 8.03L12.41 9.99C12.06 10.61 11.4 11 10.68 11L8.5 11C4.91 11 2 13.91 2 17.5L2 35C2 39.42 5.58 43 10 43L38 43C42.42 43 46 39.42 46 35L46 17.5ZM14 25C14 30.52 18.48 35 24 35C29.52 35 34 30.52 34 25C34 19.48 29.52 15 24 15C18.48 15 14 19.48 14 25ZM30 25C30 21.69 27.31 19 24 19C20.69 19 18 21.69 18 25C18 28.31 20.69 31 24 31C27.31 31 30 28.31 30 25Z" fill-rule="evenodd"  fill="#000000" >
</path>
</svg>
