<svg xmlns="http://www.w3.org/2000/svg" xmlns:xlink="http://www.w3.org/1999/xlink" width="48" height="48" viewBox="0 0 48 48" fill="none">
<path d="M18.8 39.01C18.74 39.02 18.67 39.03 18.61 39.04C18.55 39.05 18.48 39.07 18.42 39.09C18.36 39.11 18.29 39.13 18.23 39.15C18.17 39.18 18.11 39.21 18.06 39.24C18 39.27 17.94 39.3 17.89 39.34C17.83 39.37 17.78 39.41 17.73 39.46C17.68 39.5 17.63 39.54 17.59 39.59C17.54 39.63 17.5 39.68 17.45 39.73C17.41 39.78 17.37 39.84 17.34 39.89C17.3 39.94 17.27 40 17.24 40.06L17.15 40.24L17.09 40.42C17.07 40.48 17.05 40.55 17.04 40.61C17.03 40.68 17.02 40.74 17.01 40.81C17 40.87 17 40.94 17 41C17 41.07 17 41.13 17.01 41.2C17.02 41.26 17.03 41.33 17.04 41.39C17.05 41.46 17.07 41.52 17.09 41.58C17.11 41.64 17.13 41.71 17.15 41.77C17.18 41.83 17.21 41.89 17.24 41.94C17.27 42 17.3 42.06 17.34 42.11C17.37 42.17 17.41 42.22 17.45 42.27C17.5 42.32 17.54 42.37 17.59 42.42C17.63 42.46 17.68 42.51 17.73 42.55C17.78 42.59 17.83 42.63 17.89 42.66C17.94 42.7 18 42.73 18.06 42.76C18.12 42.8 18.17 42.82 18.23 42.85C18.3 42.87 18.36 42.9 18.42 42.91C18.48 42.93 18.55 42.95 18.61 42.96C18.67 42.98 18.74 42.98 18.8 42.99C18.87 43 18.93 43 19 43L29 43C29.13 43 29.26 42.99 29.39 42.96C29.52 42.94 29.64 42.9 29.77 42.85C29.89 42.8 30 42.74 30.11 42.66C30.22 42.59 30.32 42.51 30.41 42.41C30.51 42.32 30.59 42.22 30.66 42.11C30.74 42 30.8 41.89 30.85 41.77C30.9 41.64 30.94 41.52 30.96 41.39C30.99 41.26 31 41.13 31 41C31 40.93 31 40.87 30.99 40.8C30.98 40.74 30.97 40.67 30.96 40.61C30.95 40.55 30.93 40.48 30.91 40.42C30.89 40.36 30.87 40.3 30.85 40.23C30.82 40.17 30.79 40.11 30.76 40.06C30.73 40 30.7 39.94 30.66 39.89C30.63 39.83 30.59 39.78 30.55 39.73C30.5 39.68 30.46 39.63 30.41 39.59C30.37 39.54 30.32 39.5 30.27 39.45C30.22 39.41 30.17 39.37 30.11 39.34C30.06 39.3 30 39.27 29.94 39.24C29.88 39.21 29.83 39.18 29.77 39.15C29.7 39.13 29.64 39.11 29.58 39.09C29.52 39.07 29.45 39.05 29.39 39.04C29.33 39.03 29.26 39.02 29.2 39.01C29.13 39 29.07 39 29 39L19 39C18.93 39 18.87 39 18.8 39.01ZM5.34 7.34C4.61 8.08 4.04 8.93 3.63 9.89C3.21 10.88 3 11.92 3 13L3 29C3 30.08 3.21 31.12 3.63 32.11C4.04 33.07 4.61 33.92 5.34 34.66C6.08 35.39 6.93 35.96 7.89 36.37C8.88 36.79 9.92 37 11 37L37 37C38.08 37 39.12 36.79 40.11 36.37C41.07 35.96 41.92 35.39 42.66 34.66C43.39 33.92 43.96 33.07 44.37 32.11C44.79 31.12 45 30.08 45 29L45 13C45 11.92 44.79 10.88 44.37 9.89C43.96 8.93 43.39 8.08 42.66 7.34C41.92 6.61 41.07 6.04 40.11 5.63C39.12 5.21 38.08 5 37 5L11 5C9.92 5 8.88 5.21 7.89 5.63C6.93 6.04 6.08 6.61 5.34 7.34Z" fill-rule="evenodd"  fill="#000000" >
</path>
</svg>
