<svg xmlns="http://www.w3.org/2000/svg" xmlns:xlink="http://www.w3.org/1999/xlink" width="48" height="48" viewBox="0 0 48 48" fill="none">
<path d="M43 13C43 8.58 39.42 5 35 5L9 5C4.58 5 1 8.58 1 13L1 29C1 33.42 4.58 37 9 37L17.03 37C17.01 36.67 17 36.34 17 36L17 24C17 17 22 14 28 14L43 14L43 13ZM42.11 42.37C43.07 41.96 43.92 41.39 44.66 40.66C45.39 39.92 45.96 39.07 46.37 38.11C46.79 37.12 47 36.08 47 35L47 26C47 24.92 46.79 23.88 46.37 22.89C45.96 21.93 45.39 21.08 44.66 20.34C43.92 19.61 43.07 19.04 42.11 18.63C41.12 18.21 40.08 18 39 18L29 18C27.92 18 26.88 18.21 25.89 18.63C24.93 19.04 24.08 19.61 23.34 20.34C22.61 21.08 22.04 21.93 21.63 22.89C21.21 23.88 21 24.92 21 26L21 35C21 36.08 21.21 37.12 21.63 38.11C22.04 39.07 22.61 39.92 23.34 40.66C24.08 41.39 24.93 41.96 25.89 42.37C26.88 42.79 27.92 43 29 43L39 43C40.08 43 41.12 42.79 42.11 42.37ZM29.24 35.94C29.27 36 29.3 36.06 29.34 36.11C29.37 36.17 29.41 36.22 29.45 36.27C29.5 36.32 29.54 36.37 29.59 36.42C29.63 36.46 29.68 36.51 29.73 36.55C29.78 36.59 29.83 36.63 29.89 36.66C29.94 36.7 30 36.73 30.06 36.76C30.12 36.8 30.17 36.82 30.23 36.85C30.3 36.87 30.36 36.9 30.42 36.91C30.48 36.93 30.55 36.95 30.61 36.96C30.67 36.98 30.74 36.98 30.8 36.99C30.87 37 30.93 37 31 37L37 37C37.13 37 37.26 36.99 37.39 36.96C37.52 36.94 37.64 36.9 37.77 36.85C37.89 36.8 38 36.74 38.11 36.66C38.22 36.59 38.32 36.51 38.41 36.41C38.51 36.32 38.59 36.22 38.66 36.11C38.74 36 38.8 35.89 38.85 35.77C38.9 35.64 38.94 35.52 38.96 35.39C38.99 35.26 39 35.13 39 35C39 34.87 38.99 34.74 38.96 34.61C38.94 34.48 38.9 34.36 38.85 34.23C38.8 34.11 38.74 34 38.66 33.89C38.59 33.78 38.51 33.68 38.41 33.59C38.32 33.49 38.22 33.41 38.11 33.34C38 33.26 37.89 33.2 37.77 33.15C37.64 33.1 37.52 33.06 37.39 33.04C37.26 33.01 37.13 33 37 33L31 33C30.93 33 30.87 33 30.8 33.01C30.74 33.02 30.67 33.03 30.61 33.04C30.55 33.05 30.48 33.07 30.42 33.09C30.36 33.11 30.29 33.13 30.23 33.15C30.17 33.18 30.11 33.21 30.06 33.24C30 33.27 29.94 33.3 29.89 33.34C29.83 33.37 29.78 33.41 29.73 33.46C29.68 33.5 29.63 33.54 29.59 33.59C29.54 33.63 29.5 33.68 29.45 33.73C29.41 33.78 29.37 33.84 29.34 33.89C29.3 33.94 29.27 34 29.24 34.06L29.15 34.24L29.09 34.42C29.07 34.48 29.05 34.55 29.04 34.61C29.03 34.68 29.02 34.74 29.01 34.81C29 34.87 29 34.94 29 35C29 35.07 29 35.13 29.01 35.2C29.02 35.26 29.03 35.33 29.04 35.39C29.05 35.46 29.07 35.52 29.09 35.58C29.11 35.64 29.13 35.71 29.15 35.77C29.18 35.83 29.21 35.89 29.24 35.94ZM13 39C11.9 39 11 39.9 11 41C11 42.1 11.9 43 13 43L18.93 43C18.14 41.88 17.58 40.54 17.28 39L13 39Z" fill-rule="evenodd"  fill="#000000" >
</path>
</svg>
