<svg xmlns="http://www.w3.org/2000/svg" xmlns:xlink="http://www.w3.org/1999/xlink" width="48" height="48" viewBox="0 0 48 48" fill="none">
<path d="M36 8C37.1 8 38 7.1 38 6C38 4.9 37.1 4 36 4L12 4C10.9 4 10 4.9 10 6C10 7.1 10.9 8 12 8L36 8ZM16 42C16 44.21 17.79 46 20 46L28 46C30.21 46 32 44.21 32 42L32 22.7L36.96 16.5C39.06 13.88 37.19 10 33.84 10L14.16 10C10.8 10 8.94 13.88 11.04 16.5L16 22.7L16 42ZM22 30C22 31.1 22.9 32 24 32C25.1 32 26 31.1 26 30L26 26C26 24.9 25.1 24 24 24C22.9 24 22 24.9 22 26L22 30Z" fill-rule="evenodd"  fill="#000000" >
</path>
</svg>
