<svg xmlns="http://www.w3.org/2000/svg" xmlns:xlink="http://www.w3.org/1999/xlink" width="48" height="48" viewBox="0 0 48 48" fill="none">
<path d="M10 7L38 7C42.4183 7 46 10.5817 46 15L46 33C46 37.4183 42.4183 41 38 41L10 41C5.58172 41 2 37.4183 2 33L2 15C2 10.5817 5.58172 7 10 7ZM10.5 13C9.11929 13 8 14.1193 8 15.5C8 16.8807 9.11929 18 10.5 18C11.8807 18 13 16.8807 13 15.5C13 14.1193 11.8807 13 10.5 13ZM19.5 13C18.1193 13 17 14.1193 17 15.5C17 16.8807 18.1193 18 19.5 18C20.8807 18 22 16.8807 22 15.5C22 14.1193 20.8807 13 19.5 13ZM28.5 13C27.1193 13 26 14.1193 26 15.5C26 16.8807 27.1193 18 28.5 18C29.8807 18 31 16.8807 31 15.5C31 14.1193 29.8807 13 28.5 13ZM37.5 13C36.1193 13 35 14.1193 35 15.5C35 16.8807 36.1193 18 37.5 18C38.8807 18 40 16.8807 40 15.5C40 14.1193 38.8807 13 37.5 13ZM10.5 22C9.11929 22 8 23.1193 8 24.5C8 25.8807 9.11929 27 10.5 27C11.8807 27 13 25.8807 13 24.5C13 23.1193 11.8807 22 10.5 22ZM19.5 22C18.1193 22 17 23.1193 17 24.5C17 25.8807 18.1193 27 19.5 27C20.8807 27 22 25.8807 22 24.5C22 23.1193 20.8807 22 19.5 22ZM28.5 22C27.1193 22 26 23.1193 26 24.5C26 25.8807 27.1193 27 28.5 27C29.8807 27 31 25.8807 31 24.5C31 23.1193 29.8807 22 28.5 22ZM37.5 22C36.1193 22 35 23.1193 35 24.5C35 25.8807 36.1193 27 37.5 27C38.8807 27 40 25.8807 40 24.5C40 23.1193 38.8807 22 37.5 22ZM19.0002 36C17.8956 36.0001 17.0001 35.1048 17 34.0002C16.9999 32.8956 17.8952 32.0001 18.9998 32L28.9998 31.999C30.1044 31.9989 30.9999 32.8942 31 33.9988C31.0001 35.1034 30.1048 35.9989 29.0002 35.999L19.0002 36Z" fill-rule="evenodd"  fill="#000000" >
</path>
</svg>
