<svg xmlns="http://www.w3.org/2000/svg" xmlns:xlink="http://www.w3.org/1999/xlink" width="48" height="48" viewBox="0 0 48 48" fill="none">
<path d="M11.5883 6L36.4118 6C38.9458 6 41 8.05422 41 10.5882L41 29.4998C40.5822 29.186 40.0628 29 39.5 29L8.50003 29C7.88746 29 7.38746 29.1126 7.00003 29.3377L7.00003 10.5882C7.00003 8.05422 9.05425 6 11.5883 6ZM6.26349 32.5077L3.97337 36.5154C2.44958 39.1821 4.37505 42.5 7.44634 42.5L40.5536 42.5C43.6249 42.5 45.5504 39.1821 44.0266 36.5154L41.7365 32.5077C41.3804 31.8846 40.7177 31.5 40 31.5L7.99998 31.5C7.28227 31.5 6.61958 31.8846 6.26349 32.5077Z" fill-rule="evenodd"  fill="#000000" >
</path>
</svg>
