<svg xmlns="http://www.w3.org/2000/svg" xmlns:xlink="http://www.w3.org/1999/xlink" width="48" height="48" viewBox="0 0 48 48" fill="none">
<path d="M24 3C17.37 3 12 8.37 12 15L12 27C12 33.63 17.37 39 24 39C30.63 39 36 33.63 36 27L36 15C36 8.37 30.63 3 24 3ZM6 30C6 30.09 6.01 30.17 6.02 30.25C6.09 30.92 6.27 31.73 6.54 32.67C7.08 34.54 7.87 36.27 8.88 37.84C10.33 40.07 12.17 41.84 14.38 43.12C17.11 44.71 20.32 45.5 24 45.5C27.68 45.5 30.89 44.71 33.62 43.12C35.83 41.84 37.67 40.07 39.12 37.84C40.13 36.27 40.92 34.54 41.46 32.67C41.73 31.73 41.91 30.92 41.98 30.25C41.99 30.17 42 30.09 42 30C42 28.9 41.1 28 40 28C38.96 28 38.11 28.79 38.01 29.8C37.96 30.25 37.83 30.83 37.62 31.55C37.18 33.05 36.56 34.42 35.76 35.66C33.24 39.55 29.32 41.5 24 41.5C18.68 41.5 14.76 39.55 12.24 35.66C11.44 34.42 10.82 33.05 10.38 31.55C10.17 30.83 10.04 30.25 9.99 29.8C9.89 28.79 9.04 28 8 28C6.9 28 6 28.9 6 30Z" fill-rule="evenodd"  fill="#000000" >
</path>
</svg>
