<svg xmlns="http://www.w3.org/2000/svg" xmlns:xlink="http://www.w3.org/1999/xlink" width="48" height="48" viewBox="0 0 48 48" fill="none">
<path d="M17.45 32.73C17.41 32.78 17.37 32.84 17.34 32.89C17.3 32.94 17.27 33 17.24 33.06L17.15 33.24L17.09 33.42C17.07 33.48 17.05 33.55 17.04 33.61C17.03 33.68 17.02 33.74 17.01 33.81C17 33.87 17 33.94 17 34C17 34.07 17 34.13 17.01 34.2C17.02 34.26 17.03 34.33 17.04 34.39C17.05 34.46 17.07 34.52 17.09 34.58C17.11 34.64 17.13 34.71 17.15 34.77C17.18 34.83 17.21 34.89 17.24 34.94C17.27 35 17.3 35.06 17.34 35.11C17.37 35.17 17.41 35.22 17.45 35.27C17.5 35.32 17.54 35.37 17.59 35.42C17.63 35.46 17.68 35.51 17.73 35.55C17.78 35.59 17.83 35.63 17.89 35.66C17.94 35.7 18 35.73 18.06 35.76C18.12 35.8 18.17 35.82 18.23 35.85C18.3 35.87 18.36 35.9 18.42 35.91C18.48 35.93 18.55 35.95 18.61 35.96C18.67 35.98 18.74 35.98 18.8 35.99C18.87 36 18.93 36 19 36L29 36C29.13 36 29.26 35.99 29.39 35.96C29.52 35.94 29.64 35.9 29.77 35.85C29.89 35.8 30 35.74 30.11 35.66C30.22 35.59 30.32 35.51 30.41 35.41C30.51 35.32 30.59 35.22 30.66 35.11C30.74 35 30.8 34.89 30.85 34.77C30.9 34.64 30.94 34.52 30.96 34.39C30.99 34.26 31 34.13 31 34C31 33.93 31 33.87 30.99 33.8C30.98 33.74 30.97 33.67 30.96 33.61C30.95 33.55 30.93 33.48 30.91 33.42C30.89 33.36 30.87 33.3 30.85 33.23C30.82 33.17 30.79 33.11 30.76 33.06C30.73 33 30.7 32.94 30.66 32.89C30.63 32.83 30.59 32.78 30.55 32.73C30.5 32.68 30.46 32.63 30.41 32.59C30.37 32.54 30.32 32.5 30.27 32.45C30.22 32.41 30.17 32.37 30.11 32.34C30.06 32.3 30 32.27 29.94 32.24C29.88 32.21 29.83 32.18 29.77 32.15C29.7 32.13 29.64 32.11 29.58 32.09C29.52 32.07 29.45 32.05 29.39 32.04C29.33 32.03 29.26 32.02 29.2 32.01C29.13 32 29.07 32 29 32L19 32C18.93 32 18.87 32 18.8 32.01C18.74 32.02 18.67 32.03 18.61 32.04C18.55 32.05 18.48 32.07 18.42 32.09C18.36 32.11 18.29 32.13 18.23 32.15C18.17 32.18 18.11 32.21 18.06 32.24C18 32.27 17.94 32.3 17.89 32.34C17.83 32.37 17.78 32.41 17.73 32.46C17.68 32.5 17.63 32.54 17.59 32.59C17.54 32.63 17.5 32.68 17.45 32.73ZM40.11 6.63C39.12 6.21 38.08 6 37 6L11 6C9.92 6 8.88 6.21 7.89 6.63C6.93 7.04 6.08 7.61 5.34 8.34C4.61 9.08 4.04 9.93 3.63 10.89C3.21 11.88 3 12.92 3 14L3 34C3 35.08 3.21 36.12 3.63 37.11C4.04 38.07 4.61 38.92 5.34 39.66C6.08 40.39 6.93 40.96 7.89 41.37C8.88 41.79 9.92 42 11 42L37 42C38.08 42 39.12 41.79 40.11 41.37C41.07 40.96 41.92 40.39 42.66 39.66C43.39 38.92 43.96 38.07 44.37 37.11C44.79 36.12 45 35.08 45 34L45 14C45 12.92 44.79 11.88 44.37 10.89C43.96 9.93 43.39 9.08 42.66 8.34C41.92 7.61 41.07 7.04 40.11 6.63Z" fill-rule="evenodd"  fill="#000000" >
</path>
</svg>
