<svg xmlns="http://www.w3.org/2000/svg" xmlns:xlink="http://www.w3.org/1999/xlink" width="48" height="48" viewBox="0 0 48 48" fill="none">
<path d="M9 3C4.58 3 1 6.58 1 11L1 31C1 35.42 4.58 39 9 39L21.25 39C21.09 38.36 21 37.69 21 37L21 33L17 33C15.9 33 15 32.1 15 31C15 29.9 15.9 29 17 29L21 29L21 21C21 15.48 25.48 11 31 11L43 11C43 6.58 39.42 3 35 3L9 3ZM39 15L33 15C28.58 15 25 18.58 25 23L25 37C25 41.42 28.58 45 33 45L39 45C43.42 45 47 41.42 47 37L47 23C47 18.58 43.42 15 39 15ZM41 37C41 35.9 40.1 35 39 35L33 35C31.9 35 31 35.9 31 37C31 38.1 31.9 39 33 39L39 39C40.1 39 41 38.1 41 37Z" fill-rule="evenodd"  fill="#000000" >
</path>
</svg>
