<svg xmlns="http://www.w3.org/2000/svg" xmlns:xlink="http://www.w3.org/1999/xlink" width="48" height="48" viewBox="0 0 48 48" fill="none">
<path d="M30 3L18 3C13.5817 3 10 6.58172 10 11L10 37C10 41.4183 13.5817 45 18 45L30 45C34.4183 45 38 41.4183 38 37L38 11C38 6.58172 34.4183 3 30 3ZM19.0002 38C17.8956 38.0001 17.0001 37.1048 17 36.0002C16.9999 34.8956 17.8952 34.0001 18.9998 34L28.9998 33.999C30.1044 33.9989 30.9999 34.8942 31 35.9988C31.0001 37.1034 30.1048 37.9989 29.0002 37.999L19.0002 38Z" fill-rule="evenodd"  fill="#000000" >
</path>
</svg>
