<svg xmlns="http://www.w3.org/2000/svg" xmlns:xlink="http://www.w3.org/1999/xlink" width="48" height="48" viewBox="0 0 48 48" fill="none">
<path d="M15 30C14.73 30 14.47 30.05 14.22 30.16C13.98 30.26 13.77 30.4 13.59 30.59C13.4 30.77 13.26 30.98 13.16 31.22C13.05 31.47 13 31.73 13 32L13 38C13 38.54 13.1 39.06 13.31 39.55C13.52 40.03 13.8 40.46 14.17 40.83C14.54 41.2 14.97 41.48 15.45 41.69C15.94 41.9 16.46 42 17 42L32 42C32.54 42 33.06 41.9 33.55 41.69C34.03 41.48 34.46 41.2 34.83 40.83C35.2 40.46 35.48 40.03 35.69 39.55C35.9 39.06 36 38.54 36 38L36 32C36 31.73 35.95 31.47 35.84 31.22C35.74 30.98 35.6 30.77 35.41 30.59C35.23 30.4 35.02 30.26 34.78 30.16C34.53 30.05 34.27 30 34 30L15 30ZM39.37 41.11C39.79 40.12 40 39.08 40 38L40 32C40 31.19 39.84 30.41 39.53 29.66C39.22 28.95 38.8 28.31 38.24 27.76C37.69 27.2 37.05 26.78 36.34 26.47C35.59 26.16 34.81 26 34 26L15 26C14.19 26 13.41 26.16 12.66 26.47C11.95 26.78 11.31 27.2 10.76 27.76C10.2 28.31 9.78 28.95 9.47 29.66C9.16 30.41 9 31.19 9 32L9 38C9 39.08 9.21 40.12 9.63 41.11C10.04 42.07 10.61 42.92 11.34 43.66C12.08 44.39 12.93 44.96 13.89 45.37C14.88 45.79 15.92 46 17 46L32 46C33.08 46 34.12 45.79 35.11 45.37C36.07 44.96 36.92 44.39 37.66 43.66C38.39 42.92 38.96 42.07 39.37 41.11Z" fill-rule="evenodd"  fill="#000000" >
</path>
<path d="M37.39 22.96C37.52 22.94 37.64 22.9 37.77 22.85C37.89 22.8 38 22.74 38.11 22.66C38.22 22.59 38.32 22.51 38.41 22.41C38.51 22.32 38.59 22.22 38.66 22.11C38.74 22 38.8 21.89 38.85 21.77C38.9 21.64 38.94 21.52 38.96 21.39C38.99 21.26 39 21.13 39 21C39 20.87 38.99 20.74 38.96 20.61C38.94 20.48 38.9 20.36 38.85 20.23C38.8 20.11 38.74 20 38.66 19.89C38.59 19.78 38.51 19.68 38.41 19.59C38.32 19.49 38.22 19.41 38.11 19.34C38 19.26 37.89 19.2 37.77 19.15C37.64 19.1 37.52 19.06 37.39 19.04C37.26 19.01 37.13 19 37 19L31 19C30.93 19 30.87 19 30.8 19.01C30.74 19.02 30.67 19.03 30.61 19.04C30.55 19.05 30.48 19.07 30.42 19.09C30.36 19.11 30.29 19.13 30.23 19.15C30.17 19.18 30.11 19.21 30.06 19.24C30 19.27 29.94 19.3 29.89 19.34C29.83 19.37 29.78 19.41 29.73 19.46C29.68 19.5 29.63 19.54 29.59 19.59C29.54 19.63 29.5 19.68 29.45 19.73C29.41 19.78 29.37 19.84 29.34 19.89C29.3 19.94 29.27 20 29.24 20.06L29.15 20.24L29.09 20.42C29.07 20.48 29.05 20.55 29.04 20.61C29.03 20.68 29.02 20.74 29.01 20.81C29 20.87 29 20.94 29 21C29 21.07 29 21.13 29.01 21.2C29.02 21.26 29.03 21.33 29.04 21.39C29.05 21.46 29.07 21.52 29.09 21.58C29.11 21.64 29.13 21.71 29.15 21.77C29.18 21.83 29.21 21.89 29.24 21.94C29.27 22 29.3 22.06 29.34 22.11C29.37 22.17 29.41 22.22 29.45 22.27C29.5 22.32 29.54 22.37 29.59 22.42C29.63 22.46 29.68 22.51 29.73 22.55C29.78 22.59 29.83 22.63 29.89 22.66C29.94 22.7 30 22.73 30.06 22.76C30.12 22.8 30.17 22.82 30.23 22.85C30.3 22.87 30.36 22.9 30.42 22.91C30.48 22.93 30.55 22.95 30.61 22.96C30.67 22.98 30.74 22.98 30.8 22.99C30.87 23 30.93 23 31 23L37 23C37.13 23 37.26 22.99 37.39 22.96ZM43.66 14.34C42.92 13.61 42.07 13.04 41.11 12.63C40.12 12.21 39.08 12 38 12L10 12C8.92 12 7.88 12.21 6.89 12.63C5.93 13.04 5.08 13.61 4.34 14.34C3.61 15.08 3.04 15.93 2.63 16.89C2.21 17.88 2 18.92 2 20L2 31C2 32.08 2.21 33.12 2.63 34.11C3.04 35.07 3.61 35.92 4.34 36.66C5.08 37.39 5.93 37.96 6.89 38.37C7.88 38.79 8.92 39 10 39L11.08 39C11.03 38.67 11 38.34 11 38L11 32C11 29.79 12.79 28 15 28L34 28C36.21 28 38 29.79 38 32L38 38C38 38.34 37.97 38.67 37.92 39L38 39C39.08 39 40.12 38.79 41.11 38.37C42.07 37.96 42.92 37.39 43.66 36.66C44.39 35.92 44.96 35.07 45.37 34.11C45.79 33.12 46 32.08 46 31L46 20C46 18.92 45.79 17.88 45.37 16.89C44.96 15.93 44.39 15.08 43.66 14.34Z" fill-rule="evenodd"  fill="#000000" >
</path>
<path d="M13.3423 4.34C12.6123 5.08 12.0423 5.93 11.6323 6.89C11.4723 7.25 11.3523 7.62 11.2523 8L36.7523 8C36.6523 7.62 36.5223 7.25 36.3723 6.89C35.9623 5.93 35.3923 5.08 34.6623 4.34C33.9223 3.61 33.0723 3.04 32.1123 2.63C31.1223 2.21 30.0823 2 29.0023 2L19.0023 2C17.9223 2 16.8823 2.21 15.8923 2.63C14.9323 3.04 14.0823 3.61 13.3423 4.34Z"   fill="#000000" >
</path>
</svg>
