<svg xmlns="http://www.w3.org/2000/svg" xmlns:xlink="http://www.w3.org/1999/xlink" width="48" height="48" viewBox="0 0 48 48" fill="none">
<path d="M46 29.2L46 18.8C46 14.19 41 11.3 37 13.61L36.99 13.61C36.79 9.37 33.29 6 29 6L10.5 6C6.08 6 2.5 9.58 2.5 14L2.5 34C2.5 38.42 6.08 42 10.5 42L29 42C33.29 42 36.79 38.63 36.99 34.39L37 34.39C41 36.7 46 33.82 46 29.2ZM15.5 21C16.88 21 18 19.88 18 18.5C18 17.12 16.88 16 15.5 16C14.12 16 13 17.12 13 18.5C13 19.88 14.12 21 15.5 21Z" fill-rule="evenodd"  fill="#000000" >
</path>
</svg>
