<svg xmlns="http://www.w3.org/2000/svg" xmlns:xlink="http://www.w3.org/1999/xlink" width="48" height="48" viewBox="0 0 48 48" fill="none">
<path d="M10 21C8.92 21 7.88 21.21 6.89 21.63C5.93 22.04 5.08 22.61 4.34 23.34C3.61 24.08 3.04 24.93 2.63 25.89C2.21 26.88 2 27.92 2 29L2 33C2 34.08 2.21 35.12 2.63 36.11C3.04 37.07 3.61 37.92 4.34 38.66C5.08 39.39 5.93 39.96 6.89 40.37C7.88 40.79 8.92 41 10 41L38 41C39.08 41 40.12 40.79 41.11 40.37C42.07 39.96 42.92 39.39 43.66 38.66C44.39 37.92 44.96 37.07 45.37 36.11C45.79 35.12 46 34.08 46 33L46 29C46 27.92 45.79 26.88 45.37 25.89C44.96 24.93 44.39 24.08 43.66 23.34C42.92 22.61 42.07 22.04 41.11 21.63C40.12 21.21 39.08 21 38 21L36 21L36 7C36 6.87 35.99 6.74 35.96 6.61C35.94 6.48 35.9 6.36 35.85 6.23C35.8 6.11 35.74 6 35.66 5.89C35.59 5.78 35.51 5.68 35.42 5.59C35.32 5.49 35.22 5.41 35.11 5.34C35 5.26 34.89 5.2 34.77 5.15C34.65 5.1 34.52 5.06 34.39 5.04C34.26 5.01 34.13 5 34 5C33.87 5 33.74 5.01 33.61 5.04C33.48 5.06 33.36 5.1 33.24 5.15C33.11 5.2 33 5.26 32.89 5.34C32.78 5.41 32.68 5.49 32.59 5.59C32.49 5.68 32.41 5.78 32.34 5.89C32.27 6 32.2 6.11 32.15 6.23C32.1 6.36 32.07 6.48 32.04 6.61C32.01 6.74 32 6.87 32 7L32 21L16 21L16 7C16 6.87 15.99 6.74 15.96 6.61C15.94 6.48 15.9 6.36 15.85 6.23C15.8 6.11 15.74 6 15.66 5.89C15.59 5.78 15.51 5.68 15.42 5.59C15.32 5.49 15.22 5.41 15.11 5.34C15 5.26 14.89 5.2 14.77 5.15C14.65 5.1 14.52 5.06 14.39 5.04C14.26 5.01 14.13 5 14 5C13.87 5 13.74 5.01 13.61 5.04C13.48 5.06 13.36 5.1 13.24 5.15C13.11 5.2 13 5.26 12.89 5.34C12.78 5.41 12.68 5.49 12.59 5.59C12.49 5.68 12.41 5.78 12.34 5.89C12.27 6 12.2 6.11 12.15 6.23C12.1 6.36 12.07 6.48 12.04 6.61C12.01 6.74 12 6.87 12 7L12 21L10 21ZM36.39 32.96C36.52 32.94 36.64 32.9 36.77 32.85C36.89 32.8 37 32.74 37.11 32.66C37.22 32.59 37.32 32.51 37.41 32.41C37.51 32.32 37.59 32.22 37.66 32.11C37.74 32 37.8 31.89 37.85 31.77C37.9 31.64 37.94 31.52 37.96 31.39C37.99 31.26 38 31.13 38 31C38 30.87 37.99 30.74 37.96 30.61C37.94 30.48 37.9 30.36 37.85 30.23C37.8 30.11 37.74 30 37.66 29.89C37.59 29.78 37.51 29.68 37.41 29.59C37.32 29.49 37.22 29.41 37.11 29.34C37 29.26 36.89 29.2 36.77 29.15C36.64 29.1 36.52 29.06 36.39 29.04C36.26 29.01 36.13 29 36 29L30 29C29.93 29 29.87 29 29.8 29.01C29.74 29.02 29.67 29.03 29.61 29.04C29.55 29.05 29.48 29.07 29.42 29.09C29.36 29.11 29.29 29.13 29.23 29.15C29.17 29.18 29.11 29.21 29.06 29.24C29 29.27 28.94 29.3 28.89 29.34C28.83 29.37 28.78 29.41 28.73 29.46C28.68 29.5 28.63 29.54 28.59 29.59C28.54 29.63 28.5 29.68 28.45 29.73C28.41 29.78 28.37 29.84 28.34 29.89C28.3 29.94 28.27 30 28.24 30.06L28.15 30.24L28.09 30.42C28.07 30.48 28.05 30.55 28.04 30.61C28.03 30.68 28.02 30.74 28.01 30.81C28 30.87 28 30.94 28 31C28 31.07 28 31.13 28.01 31.2C28.02 31.26 28.03 31.33 28.04 31.39C28.05 31.46 28.07 31.52 28.09 31.58C28.11 31.64 28.13 31.71 28.15 31.77C28.18 31.83 28.21 31.89 28.24 31.94C28.27 32 28.3 32.06 28.34 32.11C28.37 32.17 28.41 32.22 28.45 32.27C28.5 32.32 28.54 32.37 28.59 32.42C28.63 32.46 28.68 32.51 28.73 32.55C28.78 32.59 28.83 32.63 28.89 32.66C28.94 32.7 29 32.73 29.06 32.76C29.12 32.8 29.17 32.82 29.23 32.85C29.3 32.87 29.36 32.9 29.42 32.91C29.48 32.93 29.55 32.95 29.61 32.96C29.67 32.98 29.74 32.98 29.8 32.99C29.87 33 29.93 33 30 33L36 33C36.13 33 36.26 32.99 36.39 32.96Z" fill-rule="evenodd"  fill="#000000" >
</path>
</svg>
