<svg xmlns="http://www.w3.org/2000/svg" xmlns:xlink="http://www.w3.org/1999/xlink" width="48" height="48" viewBox="0 0 48 48" fill="none">
<path d="M10 4L38 4C42.4183 4 46 7.58172 46 12L46 31C46 35.4183 42.4183 39 38 39L31.4464 39L33.7366 43.0077C34.4985 44.341 33.5357 46 32.0001 46L16.0001 46C14.4644 46 13.5017 44.341 14.2636 43.0077L16.5537 39L10 39C5.58172 39 2 35.4183 2 31L2 12C2 7.58172 5.58172 4 10 4ZM21.1607 39L19.4464 42L28.5537 42L26.8394 39L21.1607 39Z" fill-rule="evenodd"  fill="#000000" >
</path>
</svg>
