<svg xmlns="http://www.w3.org/2000/svg" xmlns:xlink="http://www.w3.org/1999/xlink" width="48" height="48" viewBox="0 0 48 48" fill="none">
<path d="M9 38C9 42.42 12.58 46 17 46L31 46C35.42 46 39 42.42 39 38L39 23C39 19.69 36.31 17 33 17L15 17C11.69 17 9 19.69 9 23L9 38ZM33 13L33 7C33 4.79 31.21 3 29 3L19 3C16.79 3 15 4.79 15 7L15 13L33 13ZM18 36C18 37.1 18.9 38 20 38C21.1 38 22 37.1 22 36L22 27C22 25.9 21.1 25 20 25C18.9 25 18 25.9 18 27L18 36ZM28 38C29.1 38 30 37.1 30 36L30 27C30 25.9 29.1 25 28 25C26.9 25 26 25.9 26 27L26 36C26 37.1 26.9 38 28 38Z" fill-rule="evenodd"  fill="#000000" >
</path>
</svg>
