<svg xmlns="http://www.w3.org/2000/svg" xmlns:xlink="http://www.w3.org/1999/xlink" width="48" height="48" viewBox="0 0 48 48" fill="none">
<path d="M21 1L27 1C30.3137 1 33 3.68629 33 7L33 11.9989C36.6433 14.7355 39 19.0925 39 24C39 28.9075 36.6433 33.2645 33 36.0011L33 41C33 44.3137 30.3137 47 27 47L21 47C17.6863 47 15 44.3137 15 41L15 36.0011C11.3567 33.2645 9 28.9075 9 24C9 19.8579 10.4645 16.3223 13.3934 13.3934C13.9101 12.8767 14.4456 12.4056 15 11.9801L15 7C15 3.68629 17.6863 1 21 1ZM29 9.85353C27.4361 9.30077 25.7532 9 24 9C22.2215 9 20.5549 9.26998 19 9.80995L19 7C19 5.89543 19.8954 5 21 5L27 5C28.1046 5 29 5.89543 29 7L29 9.85353ZM19 38.1465L19 41C19 42.1046 19.8954 43 21 43L27 43C28.1046 43 29 42.1046 29 41L29 38.1465C27.4361 38.6992 25.7532 39 24 39C22.2468 39 20.5639 38.6992 19 38.1465Z" fill-rule="evenodd"  fill="#000000" >
</path>
</svg>
