<svg xmlns="http://www.w3.org/2000/svg" xmlns:xlink="http://www.w3.org/1999/xlink" width="48" height="48" viewBox="0 0 48 48" fill="none">
<path d="M21 1L27 1C30.3137 1 33 3.68629 33 7L33 8.25203C36.4505 9.14012 39 12.2723 39 16L39 32C39 35.7277 36.4505 38.8599 33 39.748L33 41C33 44.3137 30.3137 47 27 47L21 47C17.6863 47 15 44.3137 15 41L15 39.748C11.5495 38.8599 9 35.7277 9 32L9 16C9 12.2723 11.5495 9.14012 15 8.25203L15 7C15 3.68629 17.6863 1 21 1ZM29 8L19 8L19 7C19 5.89543 19.8954 5 21 5L27 5C28.1046 5 29 5.89543 29 7L29 8ZM19 40L19 41C19 42.1046 19.8954 43 21 43L27 43C28.1046 43 29 42.1046 29 41L29 40L19 40Z" fill-rule="evenodd"  fill="#000000" >
</path>
</svg>
