<svg xmlns="http://www.w3.org/2000/svg" xmlns:xlink="http://www.w3.org/1999/xlink" width="48" height="48" viewBox="0 0 48 48" fill="none">
<path d="M36 4L12 4C7.58 4 4 7.58 4 12L4 36C4 40.42 7.58 44 12 44L36 44C40.42 44 44 40.42 44 36L44 12C44 7.58 40.42 4 36 4ZM40 12C40 9.79 38.21 8 36 8L12 8C9.79 8 8 9.79 8 12L8 13.95L40 14L40 12ZM12 40L36 40C38.21 40 40 38.21 40 36L40 18L8 17.95L8 36C8 38.21 9.79 40 12 40ZM33.15 27.09C33.15 27.09 33.5 26.6 33.68 26.03C33.68 26.03 33.86 25.45 33.86 24.91C33.86 24.91 33.86 23.99 33.5 23.21C33.5 23.21 33.14 22.43 32.45 21.84C32.45 21.84 31.77 21.26 30.75 20.93C30.75 20.93 29.74 20.61 28.4 20.61C28.4 20.61 27.07 20.61 26.06 20.93C26.06 20.93 25.04 21.26 24.35 21.84C24.35 21.84 23.65 22.43 23.29 23.21C23.29 23.21 22.93 23.99 22.93 24.91C22.93 24.91 22.93 25.45 23.09 26.03C23.09 26.03 23.26 26.6 23.59 27.09C23.59 27.09 23.92 27.58 24.44 27.94C24.44 27.94 24.97 28.3 25.67 28.42C25.67 28.42 24.79 28.57 24.13 28.93C24.13 28.93 23.47 29.29 23.02 29.79C23.02 29.79 22.57 30.29 22.35 30.9C22.35 30.9 22.12 31.5 22.12 32.15C22.12 32.15 22.12 33.12 22.55 33.95C22.55 33.95 22.99 34.78 23.8 35.38C23.8 35.38 24.61 35.98 25.78 36.33C25.78 36.33 26.95 36.68 28.42 36.68C28.42 36.68 29.9 36.68 31.07 36.33C31.07 36.33 32.24 35.98 33.05 35.38C33.05 35.38 33.86 34.78 34.28 33.95C34.28 33.95 34.7 33.12 34.7 32.15C34.7 32.15 34.7 31.5 34.48 30.89C34.48 30.89 34.25 30.28 33.8 29.77C33.8 29.77 33.34 29.27 32.64 28.91C32.64 28.91 31.95 28.55 31 28.42C31 28.42 31.72 28.3 32.26 27.94C32.26 27.94 32.8 27.58 33.15 27.09ZM16.75 21.2C16.75 21.2 16.68 21.4 16.56 21.75C16.56 21.75 16.44 22.1 16.18 22.45C16.18 22.45 15.92 22.79 15.45 23.04C15.45 23.04 14.98 23.29 14.23 23.29L13.13 23.29L13.13 26.03L16.35 26.03L16.35 36.63L19.68 36.63L19.68 21.2L16.75 21.2ZM28.4 26.87C29.43 26.87 30 26.28 30 26.28C30.56 25.69 30.56 24.82 30.56 24.82C30.56 23.99 30 23.4 30 23.4C29.43 22.81 28.4 22.81 28.4 22.81C27.92 22.81 27.53 22.97 27.53 22.97C27.14 23.13 26.87 23.4 26.87 23.4C26.59 23.67 26.43 24.04 26.43 24.04C26.28 24.41 26.28 24.82 26.28 24.82C26.28 25.69 26.84 26.28 26.84 26.28C27.4 26.87 28.4 26.87 28.4 26.87ZM28.42 29.56C26.95 29.56 26.26 30.25 26.26 30.25C25.58 30.94 25.58 32 25.58 32C25.58 33.05 26.26 33.74 26.26 33.74C26.95 34.43 28.42 34.43 28.42 34.43C29.86 34.43 30.56 33.74 30.56 33.74C31.27 33.05 31.27 32 31.27 32C31.27 30.94 30.56 30.25 30.56 30.25C29.86 29.56 28.42 29.56 28.42 29.56Z" fill-rule="evenodd"  fill="#000000" >
</path>
</svg>
