<svg xmlns="http://www.w3.org/2000/svg" xmlns:xlink="http://www.w3.org/1999/xlink" width="48" height="48" viewBox="0 0 48 48" fill="none">
<path d="M36 4L12 4C7.58 4 4 7.58 4 12L4 36C4 40.42 7.58 44 12 44L36 44C40.42 44 44 40.42 44 36L44 12C44 7.58 40.42 4 36 4ZM40 12C40 9.79 38.21 8 36 8L12 8C9.79 8 8 9.79 8 12L8 13.95L40 14L40 12ZM12 40L36 40C38.21 40 40 38.21 40 36L40 18L8 17.95L8 36C8 38.21 9.79 40 12 40ZM36.16 27.09C36.16 27.09 36.51 26.6 36.69 26.03C36.69 26.03 36.87 25.45 36.87 24.91C36.87 24.91 36.87 23.99 36.51 23.21C36.51 23.21 36.15 22.43 35.47 21.84C35.47 21.84 34.79 21.26 33.77 20.93C33.77 20.93 32.75 20.61 31.42 20.61C31.42 20.61 30.09 20.61 29.07 20.93C29.07 20.93 28.05 21.26 27.36 21.84C27.36 21.84 26.67 22.43 26.31 23.21C26.31 23.21 25.95 23.99 25.95 24.91C25.95 24.91 25.95 25.45 26.11 26.03C26.11 26.03 26.27 26.6 26.61 27.09C26.61 27.09 26.94 27.58 27.46 27.94C27.46 27.94 27.98 28.3 28.68 28.42C28.68 28.42 27.8 28.57 27.15 28.93C27.15 28.93 26.49 29.29 26.04 29.79C26.04 29.79 25.59 30.29 25.36 30.9C25.36 30.9 25.14 31.5 25.14 32.15C25.14 32.15 25.14 33.12 25.57 33.95C25.57 33.95 26 34.78 26.81 35.38C26.81 35.38 27.62 35.98 28.79 36.33C28.79 36.33 29.96 36.68 31.44 36.68C31.44 36.68 32.91 36.68 34.08 36.33C34.08 36.33 35.25 35.98 36.06 35.38C36.06 35.38 36.87 34.78 37.3 33.95C37.3 33.95 37.72 33.12 37.72 32.15C37.72 32.15 37.72 31.5 37.5 30.89C37.5 30.89 37.27 30.28 36.81 29.77C36.81 29.77 36.35 29.27 35.66 28.91C35.66 28.91 34.97 28.55 34.01 28.42C34.01 28.42 34.73 28.3 35.27 27.94C35.27 27.94 35.81 27.58 36.16 27.09ZM17.7 27.94C17.7 27.94 17.08 28.26 16.29 28.58C16.29 28.58 15.5 28.89 14.67 29.28C14.67 29.28 13.84 29.66 13.05 30.16C13.05 30.16 12.26 30.65 11.64 31.36C11.64 31.36 11.02 32.08 10.64 33.02C10.64 33.02 10.26 33.97 10.26 35.24L10.26 36.59L22.68 36.59L22.68 33.59L14.29 33.57C14.29 33.57 14.29 33.14 14.65 32.83C14.65 32.83 15.01 32.53 15.61 32.26C15.61 32.26 16.2 32 16.96 31.75C16.96 31.75 17.71 31.5 18.5 31.17C18.5 31.17 19.28 30.83 20.03 30.4C20.03 30.4 20.79 29.97 21.38 29.36C21.38 29.36 21.98 28.75 22.34 27.92C22.34 27.92 22.7 27.09 22.7 25.96C22.7 25.96 22.7 24.86 22.3 23.91C22.3 23.91 21.91 22.97 21.12 22.27C21.12 22.27 20.34 21.58 19.17 21.19C19.17 21.19 18 20.79 16.45 20.79C16.45 20.79 15.23 20.79 14.11 21.1C14.11 21.1 13 21.42 12.15 22.08C12.15 22.08 11.3 22.73 10.81 23.73C10.81 23.73 10.31 24.73 10.31 26.1L14.06 26.06C14.06 26.06 14.06 25.54 14.26 25.19C14.26 25.19 14.45 24.84 14.79 24.61C14.79 24.61 15.12 24.39 15.56 24.29C15.56 24.29 16 24.19 16.47 24.19C16.47 24.19 17.26 24.19 17.77 24.36C17.77 24.36 18.27 24.53 18.56 24.83C18.56 24.83 18.85 25.13 18.96 25.52C18.96 25.52 19.08 25.92 19.08 26.39C19.08 26.39 19.08 26.89 18.7 27.26C18.7 27.26 18.32 27.63 17.7 27.94ZM31.42 26.87C32.45 26.87 33.01 26.28 33.01 26.28C33.58 25.69 33.58 24.82 33.58 24.82C33.58 23.99 33.01 23.4 33.01 23.4C32.45 22.81 31.42 22.81 31.42 22.81C30.93 22.81 30.55 22.97 30.55 22.97C30.16 23.13 29.88 23.4 29.88 23.4C29.6 23.67 29.45 24.04 29.45 24.04C29.3 24.41 29.3 24.82 29.3 24.82C29.3 25.69 29.85 26.28 29.85 26.28C30.41 26.87 31.42 26.87 31.42 26.87ZM31.44 29.56C29.96 29.56 29.28 30.25 29.28 30.25C28.59 30.94 28.59 32 28.59 32C28.59 33.05 29.28 33.74 29.28 33.74C29.96 34.43 31.44 34.43 31.44 34.43C32.88 34.43 33.58 33.74 33.58 33.74C34.28 33.05 34.28 32 34.28 32C34.28 30.94 33.58 30.25 33.58 30.25C32.88 29.56 31.44 29.56 31.44 29.56Z" fill-rule="evenodd"  fill="#000000" >
</path>
</svg>
