<svg xmlns="http://www.w3.org/2000/svg" xmlns:xlink="http://www.w3.org/1999/xlink" width="48" height="48" viewBox="0 0 48 48" fill="none">
<path d="M36 4L12 4C7.58 4 4 7.58 4 12L4 36C4 40.42 7.58 44 12 44L36 44C40.42 44 44 40.42 44 36L44 12C44 7.58 40.42 4 36 4ZM40 12C40 9.79 38.21 8 36 8L12 8C9.79 8 8 9.79 8 12L8 13.95L40 14L40 12ZM12 40L36 40C38.21 40 40 38.21 40 36L40 18L8 17.95L8 36C8 38.21 9.79 40 12 40ZM17.02 29.83L19.16 29.83C19.16 29.83 19.72 29.83 20.2 29.91C20.2 29.91 20.68 29.99 21.02 30.19C21.02 30.19 21.36 30.38 21.56 30.72C21.56 30.72 21.76 31.05 21.76 31.57C21.76 31.57 21.76 31.84 21.68 32.21C21.68 32.21 21.59 32.58 21.33 32.91C21.33 32.91 21.07 33.25 20.58 33.49C20.58 33.49 20.08 33.73 19.25 33.73C19.25 33.73 18.61 33.73 18.08 33.62C18.08 33.62 17.54 33.52 17.17 33.25C17.17 33.25 16.79 32.98 16.58 32.54C16.58 32.54 16.37 32.09 16.37 31.45L12.63 31.43C12.63 31.43 12.63 32.89 13.16 33.88C13.16 33.88 13.69 34.88 14.56 35.51C14.56 35.51 15.44 36.13 16.6 36.4C16.6 36.4 17.76 36.68 19.02 36.68C19.02 36.68 20.57 36.68 21.75 36.31C21.75 36.31 22.93 35.95 23.74 35.3C23.74 35.3 24.55 34.65 24.96 33.74C24.96 33.74 25.37 32.83 25.37 31.75C25.37 31.75 25.37 31 25.11 30.38C25.11 30.38 24.85 29.77 24.45 29.32C24.45 29.32 24.04 28.87 23.57 28.61C23.57 28.61 23.11 28.35 22.67 28.28C22.67 28.28 23.09 28.28 23.54 28.11C23.54 28.11 23.99 27.94 24.36 27.57C24.36 27.57 24.73 27.2 24.96 26.61C24.96 26.61 25.19 26.03 25.19 25.2C25.19 25.2 25.19 24.23 24.8 23.38C24.8 23.38 24.4 22.54 23.62 21.92C23.62 21.92 22.84 21.31 21.68 20.96C21.68 20.96 20.51 20.61 18.97 20.61C18.97 20.61 17.85 20.61 16.75 20.86C16.75 20.86 15.65 21.11 14.77 21.67C14.77 21.67 13.89 22.23 13.35 23.13C13.35 23.13 12.81 24.03 12.81 25.33L16.55 25.31C16.55 25.31 16.55 24.84 16.75 24.52C16.75 24.52 16.95 24.21 17.28 24.01C17.28 24.01 17.62 23.81 18.06 23.72C18.06 23.72 18.5 23.63 18.97 23.63C18.97 23.63 19.76 23.63 20.26 23.82C20.26 23.82 20.77 24.01 21.05 24.31C21.05 24.31 21.34 24.61 21.46 24.94C21.46 24.94 21.58 25.27 21.58 25.58C21.58 25.58 21.58 26.57 20.93 26.92C20.93 26.92 20.28 27.27 19.16 27.25L17.02 27.25L17.02 29.83ZM31.29 21.2C31.29 21.2 31.22 21.4 31.1 21.75C31.1 21.75 30.98 22.1 30.72 22.45C30.72 22.45 30.46 22.79 29.99 23.04C29.99 23.04 29.52 23.29 28.77 23.29L27.67 23.29L27.67 26.03L30.89 26.03L30.89 36.63L34.22 36.63L34.22 21.2L31.29 21.2Z" fill-rule="evenodd"  fill="#000000" >
</path>
</svg>
