<svg xmlns="http://www.w3.org/2000/svg" xmlns:xlink="http://www.w3.org/1999/xlink" width="48" height="48" viewBox="0 0 48 48" fill="none">
<path d="M36 4L12 4C7.58 4 4 7.58 4 12L4 36C4 40.42 7.58 44 12 44L36 44C40.42 44 44 40.42 44 36L44 12C44 7.58 40.42 4 36 4ZM40 12C40 9.79 38.21 8 36 8L12 8C9.79 8 8 9.79 8 12L8 13.95L40 14L40 12ZM12 40L36 40C38.21 40 40 38.21 40 36L40 18L8 17.95L8 36C8 38.21 9.79 40 12 40ZM17.48 27.95C17.48 27.95 16.86 28.26 16.07 28.57C16.07 28.57 15.28 28.89 14.45 29.28C14.45 29.28 13.62 29.66 12.83 30.16C12.83 30.16 12.04 30.65 11.42 31.37C11.42 31.37 10.8 32.08 10.42 33.02C10.42 33.02 10.04 33.97 10.04 35.24L10.04 36.59L22.46 36.59L22.46 33.59L14.07 33.57C14.07 33.57 14.07 33.14 14.43 32.83C14.43 32.83 14.79 32.53 15.39 32.27C15.39 32.27 15.98 32 16.74 31.75C16.74 31.75 17.49 31.5 18.28 31.17C18.28 31.17 19.06 30.83 19.81 30.4C19.81 30.4 20.57 29.97 21.16 29.36C21.16 29.36 21.76 28.75 22.12 27.92C22.12 27.92 22.48 27.09 22.48 25.96C22.48 25.96 22.48 24.86 22.08 23.91C22.08 23.91 21.69 22.97 20.9 22.27C20.9 22.27 20.12 21.58 18.95 21.19C18.95 21.19 17.78 20.79 16.23 20.79C16.23 20.79 15.01 20.79 13.89 21.1C13.89 21.1 12.78 21.42 11.93 22.08C11.93 22.08 11.08 22.73 10.59 23.73C10.59 23.73 10.09 24.73 10.09 26.1L13.84 26.06C13.84 26.06 13.84 25.54 14.04 25.19C14.04 25.19 14.23 24.84 14.57 24.61C14.57 24.61 14.9 24.39 15.34 24.29C15.34 24.29 15.78 24.19 16.25 24.19C16.25 24.19 17.04 24.19 17.55 24.36C17.55 24.36 18.05 24.53 18.34 24.83C18.34 24.83 18.63 25.13 18.74 25.52C18.74 25.52 18.86 25.92 18.86 26.39C18.86 26.39 18.86 26.89 18.48 27.26C18.48 27.26 18.1 27.63 17.48 27.95ZM31.45 26.45C31.45 26.45 31.94 25.24 32.25 23.86C32.25 23.86 32.57 22.48 32.68 21.01L29.24 21.01C29.24 21.01 29.11 23.17 28.07 25.56C28.07 25.56 27.02 27.95 24.92 30.26L24.92 33.53L32.68 33.53L32.68 36.59L35.66 36.59L35.66 33.53L37.97 33.53L37.97 30.53L35.66 30.53L35.66 24.35L32.68 24.35L32.68 30.51L28.99 30.51C28.99 30.51 29.72 29.72 30.35 28.69C30.35 28.69 30.97 27.67 31.45 26.45Z" fill-rule="evenodd"  fill="#000000" >
</path>
</svg>
