<svg xmlns="http://www.w3.org/2000/svg" xmlns:xlink="http://www.w3.org/1999/xlink" width="48" height="48" viewBox="0 0 48 48" fill="none">
<path d="M36 4L12 4C7.58 4 4 7.58 4 12L4 36C4 40.42 7.58 44 12 44L36 44C40.42 44 44 40.42 44 36L44 12C44 7.58 40.42 4 36 4ZM40 12C40 9.79 38.21 8 36 8L12 8C9.79 8 8 9.79 8 12L8 13.95L40 14L40 12ZM12 40L36 40C38.21 40 40 38.21 40 36L40 18L8 17.95L8 36C8 38.21 9.79 40 12 40ZM26.37 29.83L28.51 29.83C28.51 29.83 29.07 29.83 29.55 29.91C29.55 29.91 30.02 29.99 30.37 30.19C30.37 30.19 30.71 30.38 30.91 30.72C30.91 30.72 31.1 31.05 31.1 31.57C31.1 31.57 31.1 31.84 31.02 32.21C31.02 32.21 30.94 32.58 30.68 32.91C30.68 32.91 30.42 33.25 29.92 33.49C29.92 33.49 29.43 33.73 28.6 33.73C28.6 33.73 27.95 33.73 27.42 33.62C27.42 33.62 26.89 33.52 26.51 33.25C26.51 33.25 26.14 32.98 25.93 32.54C25.93 32.54 25.72 32.09 25.72 31.45L21.98 31.43C21.98 31.43 21.98 32.89 22.51 33.88C22.51 33.88 23.04 34.88 23.91 35.51C23.91 35.51 24.79 36.13 25.95 36.4C25.95 36.4 27.11 36.68 28.37 36.68C28.37 36.68 29.92 36.68 31.1 36.31C31.1 36.31 32.27 35.95 33.08 35.3C33.08 35.3 33.89 34.65 34.31 33.74C34.31 33.74 34.72 32.83 34.72 31.75C34.72 31.75 34.72 31 34.46 30.38C34.46 30.38 34.2 29.77 33.8 29.32C33.8 29.32 33.39 28.87 32.92 28.61C32.92 28.61 32.45 28.35 32.02 28.28C32.02 28.28 32.44 28.28 32.89 28.11C32.89 28.11 33.34 27.94 33.71 27.57C33.71 27.57 34.07 27.2 34.31 26.61C34.31 26.61 34.54 26.03 34.54 25.2C34.54 25.2 34.54 24.23 34.15 23.38C34.15 23.38 33.75 22.54 32.97 21.92C32.97 21.92 32.18 21.31 31.02 20.96C31.02 20.96 29.86 20.61 28.31 20.61C28.31 20.61 27.2 20.61 26.1 20.86C26.1 20.86 25 21.11 24.12 21.67C24.12 21.67 23.24 22.23 22.7 23.13C22.7 23.13 22.16 24.03 22.16 25.33L25.9 25.31C25.9 25.31 25.9 24.84 26.1 24.52C26.1 24.52 26.3 24.21 26.63 24.01C26.63 24.01 26.96 23.81 27.41 23.72C27.41 23.72 27.85 23.63 28.31 23.63C28.31 23.63 29.11 23.63 29.61 23.82C29.61 23.82 30.11 24.01 30.4 24.31C30.4 24.31 30.69 24.61 30.81 24.94C30.81 24.94 30.92 25.27 30.92 25.58C30.92 25.58 30.92 26.57 30.28 26.92C30.28 26.92 29.63 27.27 28.51 27.25L26.37 27.25L26.37 29.83ZM16.75 21.2C16.75 21.2 16.68 21.4 16.56 21.75C16.56 21.75 16.44 22.1 16.18 22.45C16.18 22.45 15.92 22.79 15.45 23.04C15.45 23.04 14.98 23.29 14.23 23.29L13.13 23.29L13.13 26.03L16.35 26.03L16.35 36.63L19.68 36.63L19.68 21.2L16.75 21.2Z" fill-rule="evenodd"  fill="#000000" >
</path>
</svg>
