<svg xmlns="http://www.w3.org/2000/svg" xmlns:xlink="http://www.w3.org/1999/xlink" width="48" height="48" viewBox="0 0 48 48" fill="none">
<path d="M36 4L12 4C7.58 4 4 7.58 4 12L4 36C4 40.42 7.58 44 12 44L36 44C40.42 44 44 40.42 44 36L44 12C44 7.58 40.42 4 36 4ZM40 12C40 9.79 38.21 8 36 8L12 8C9.79 8 8 9.79 8 12L8 13.95L40 14L40 12ZM12 40L36 40C38.21 40 40 38.21 40 36L40 18L8 17.95L8 36C8 38.21 9.79 40 12 40ZM29.39 29.83L31.53 29.83C31.53 29.83 32.09 29.83 32.56 29.91C32.56 29.91 33.04 29.99 33.38 30.19C33.38 30.19 33.72 30.38 33.92 30.72C33.92 30.72 34.12 31.05 34.12 31.57C34.12 31.57 34.12 31.84 34.04 32.21C34.04 32.21 33.96 32.58 33.7 32.91C33.7 32.91 33.44 33.25 32.94 33.49C32.94 33.49 32.45 33.73 31.62 33.73C31.62 33.73 30.97 33.73 30.44 33.62C30.44 33.62 29.91 33.52 29.53 33.25C29.53 33.25 29.15 32.98 28.95 32.54C28.95 32.54 28.74 32.09 28.74 31.45L24.99 31.43C24.99 31.43 24.99 32.89 25.52 33.88C25.52 33.88 26.06 34.88 26.93 35.51C26.93 35.51 27.8 36.13 28.96 36.4C28.96 36.4 30.12 36.68 31.38 36.68C31.38 36.68 32.93 36.68 34.11 36.31C34.11 36.31 35.29 35.95 36.1 35.3C36.1 35.3 36.91 34.65 37.32 33.74C37.32 33.74 37.74 32.83 37.74 31.75C37.74 31.75 37.74 31 37.48 30.38C37.48 30.38 37.22 29.77 36.81 29.32C36.81 29.32 36.41 28.87 35.94 28.61C35.94 28.61 35.47 28.35 35.04 28.28C35.04 28.28 35.45 28.28 35.9 28.11C35.9 28.11 36.35 27.94 36.72 27.57C36.72 27.57 37.09 27.2 37.32 26.61C37.32 26.61 37.56 26.03 37.56 25.2C37.56 25.2 37.56 24.23 37.16 23.38C37.16 23.38 36.77 22.54 35.98 21.92C35.98 21.92 35.2 21.31 34.04 20.96C34.04 20.96 32.88 20.61 31.33 20.61C31.33 20.61 30.21 20.61 29.12 20.86C29.12 20.86 28.02 21.11 27.14 21.67C27.14 21.67 26.25 22.23 25.71 23.13C25.71 23.13 25.17 24.03 25.17 25.33L28.92 25.31C28.92 25.31 28.92 24.84 29.12 24.52C29.12 24.52 29.31 24.21 29.65 24.01C29.65 24.01 29.98 23.81 30.42 23.72C30.42 23.72 30.86 23.63 31.33 23.63C31.33 23.63 32.12 23.63 32.63 23.82C32.63 23.82 33.13 24.01 33.42 24.31C33.42 24.31 33.71 24.61 33.82 24.94C33.82 24.94 33.94 25.27 33.94 25.58C33.94 25.58 33.94 26.57 33.29 26.92C33.29 26.92 32.64 27.27 31.53 27.25L29.39 27.25L29.39 29.83ZM17.7 27.94C17.7 27.94 17.08 28.26 16.29 28.58C16.29 28.58 15.5 28.89 14.67 29.28C14.67 29.28 13.84 29.66 13.05 30.16C13.05 30.16 12.26 30.65 11.64 31.36C11.64 31.36 11.02 32.08 10.64 33.02C10.64 33.02 10.26 33.97 10.26 35.24L10.26 36.59L22.68 36.59L22.68 33.59L14.29 33.57C14.29 33.57 14.29 33.14 14.65 32.83C14.65 32.83 15.01 32.53 15.61 32.26C15.61 32.26 16.2 32 16.96 31.75C16.96 31.75 17.71 31.5 18.5 31.17C18.5 31.17 19.28 30.83 20.03 30.4C20.03 30.4 20.79 29.97 21.38 29.36C21.38 29.36 21.98 28.75 22.34 27.92C22.34 27.92 22.7 27.09 22.7 25.96C22.7 25.96 22.7 24.86 22.3 23.91C22.3 23.91 21.91 22.97 21.12 22.27C21.12 22.27 20.34 21.58 19.17 21.19C19.17 21.19 18 20.79 16.45 20.79C16.45 20.79 15.23 20.79 14.11 21.1C14.11 21.1 13 21.42 12.15 22.08C12.15 22.08 11.3 22.73 10.81 23.73C10.81 23.73 10.31 24.73 10.31 26.1L14.06 26.06C14.06 26.06 14.06 25.54 14.26 25.19C14.26 25.19 14.45 24.84 14.79 24.61C14.79 24.61 15.12 24.39 15.56 24.29C15.56 24.29 16 24.19 16.47 24.19C16.47 24.19 17.26 24.19 17.77 24.36C17.77 24.36 18.27 24.53 18.56 24.83C18.56 24.83 18.85 25.13 18.96 25.52C18.96 25.52 19.08 25.92 19.08 26.39C19.08 26.39 19.08 26.89 18.7 27.26C18.7 27.26 18.32 27.63 17.7 27.94Z" fill-rule="evenodd"  fill="#000000" >
</path>
</svg>
