<svg xmlns="http://www.w3.org/2000/svg" xmlns:xlink="http://www.w3.org/1999/xlink" width="48" height="48" viewBox="0 0 48 48" fill="none">
<path d="M36 4L12 4C7.58 4 4 7.58 4 12L4 36C4 40.42 7.58 44 12 44L36 44C40.42 44 44 40.42 44 36L44 12C44 7.58 40.42 4 36 4ZM40 12C40 9.79 38.21 8 36 8L12 8C9.79 8 8 9.79 8 12L8 13.95L40 14L40 12ZM12 40L36 40C38.21 40 40 38.21 40 36L40 18L8 17.95L8 36C8 38.21 9.79 40 12 40ZM17.63 27.94C17.63 27.94 17.01 28.26 16.22 28.58C16.22 28.58 15.43 28.89 14.6 29.28C14.6 29.28 13.77 29.66 12.98 30.16C12.98 30.16 12.19 30.65 11.57 31.37C11.57 31.37 10.95 32.08 10.57 33.02C10.57 33.02 10.19 33.97 10.19 35.24L10.19 36.59L22.61 36.59L22.61 33.59L14.22 33.57C14.22 33.57 14.22 33.14 14.58 32.83C14.58 32.83 14.94 32.53 15.54 32.26C15.54 32.26 16.13 32 16.89 31.75C16.89 31.75 17.64 31.5 18.43 31.17C18.43 31.17 19.21 30.83 19.96 30.4C19.96 30.4 20.72 29.97 21.31 29.36C21.31 29.36 21.91 28.75 22.27 27.92C22.27 27.92 22.63 27.09 22.63 25.96C22.63 25.96 22.63 24.86 22.23 23.91C22.23 23.91 21.84 22.97 21.05 22.27C21.05 22.27 20.27 21.58 19.1 21.19C19.1 21.19 17.93 20.79 16.38 20.79C16.38 20.79 15.16 20.79 14.04 21.1C14.04 21.1 12.93 21.42 12.08 22.08C12.08 22.08 11.23 22.73 10.74 23.73C10.74 23.73 10.24 24.73 10.24 26.1L13.99 26.06C13.99 26.06 13.99 25.54 14.19 25.19C14.19 25.19 14.38 24.84 14.72 24.61C14.72 24.61 15.05 24.39 15.49 24.29C15.49 24.29 15.93 24.19 16.4 24.19C16.4 24.19 17.19 24.19 17.7 24.36C17.7 24.36 18.2 24.53 18.49 24.83C18.49 24.83 18.78 25.13 18.89 25.52C18.89 25.52 19.01 25.92 19.01 26.39C19.01 26.39 19.01 26.89 18.63 27.26C18.63 27.26 18.25 27.63 17.63 27.94ZM37.04 24.43L37.04 21.17L25.68 21.17L25.14 29.16L28.31 29.7C28.31 29.7 29.17 29.12 29.95 28.88C29.95 28.88 30.72 28.64 31.6 28.64C31.6 28.64 32.16 28.64 32.63 28.83C32.63 28.83 33.1 29.02 33.45 29.35C33.45 29.35 33.8 29.68 34 30.15C34 30.15 34.19 30.62 34.19 31.18C34.19 31.18 34.19 31.45 34.13 31.89C34.13 31.89 34.07 32.33 33.83 32.75C33.83 32.75 33.58 33.17 33.11 33.48C33.11 33.48 32.63 33.79 31.8 33.79C31.8 33.79 31.21 33.79 30.7 33.67C30.7 33.67 30.2 33.55 29.83 33.27C29.83 33.27 29.46 32.99 29.26 32.55C29.26 32.55 29.06 32.11 29.06 31.46L25.07 31.46C25.07 31.46 25.07 32.92 25.61 33.92C25.61 33.92 26.15 34.92 27.05 35.55C27.05 35.55 27.95 36.18 29.12 36.46C29.12 36.46 30.29 36.74 31.55 36.74C31.55 36.74 33.1 36.74 34.27 36.31C34.27 36.31 35.44 35.89 36.23 35.16C36.23 35.16 37.02 34.43 37.42 33.47C37.42 33.47 37.81 32.51 37.81 31.43C37.81 31.43 37.81 30.42 37.52 29.45C37.52 29.45 37.24 28.48 36.58 27.72C36.58 27.72 35.92 26.96 34.86 26.5C34.86 26.5 33.8 26.03 32.25 26.03C32.25 26.03 31.85 26.03 31.34 26.08C31.34 26.08 30.83 26.14 30.3 26.33C30.3 26.33 29.77 26.51 29.26 26.88C29.26 26.88 28.76 27.25 28.36 27.88L28.72 24.43L37.04 24.43Z" fill-rule="evenodd"  fill="#000000" >
</path>
</svg>
