<svg xmlns="http://www.w3.org/2000/svg" xmlns:xlink="http://www.w3.org/1999/xlink" width="48" height="48" viewBox="0 0 48 48" fill="none">
<path d="M36 4L12 4C7.58 4 4 7.58 4 12L4 36C4 40.42 7.58 44 12 44L36 44C40.42 44 44 40.42 44 36L44 12C44 7.58 40.42 4 36 4ZM40 12C40 9.79 38.21 8 36 8L12 8C9.79 8 8 9.79 8 12L8 13.95L40 14L40 12ZM12 40L36 40C38.21 40 40 38.21 40 36L40 18L8 17.95L8 36C8 38.21 9.79 40 12 40ZM23.96 35.13C23.96 35.13 24.88 36.01 26.11 36.37C26.11 36.37 27.34 36.73 28.75 36.73C28.75 36.73 30.17 36.73 31.35 36.35C31.35 36.35 32.53 35.96 33.37 35.25C33.37 35.25 34.2 34.54 34.66 33.54C34.66 33.54 35.12 32.54 35.12 31.32C35.12 31.32 35.12 30.31 34.82 29.38C34.82 29.38 34.53 28.45 33.83 27.75C33.83 27.75 33.14 27.05 32.02 26.63C32.02 26.63 30.91 26.2 29.27 26.2C29.27 26.2 27.92 26.2 26.93 26.76C26.93 26.76 25.94 27.32 25.6 28.33C25.6 28.33 25.6 26.92 25.81 25.97C25.81 25.97 26.03 25.02 26.44 24.43C26.44 24.43 26.84 23.85 27.44 23.59C27.44 23.59 28.05 23.34 28.82 23.34C28.82 23.34 29.45 23.34 29.91 23.44C29.91 23.44 30.37 23.54 30.69 23.75C30.69 23.75 31.02 23.95 31.23 24.28C31.23 24.28 31.45 24.6 31.61 25.07L34.6 25.07C34.6 25.07 34.47 24.04 34.02 23.22C34.02 23.22 33.57 22.39 32.83 21.8C32.83 21.8 32.1 21.22 31.08 20.89C31.08 20.89 30.06 20.57 28.78 20.57C28.78 20.57 28.05 20.57 27.25 20.75C27.25 20.75 26.46 20.93 25.71 21.34C25.71 21.34 24.95 21.74 24.28 22.4C24.28 22.4 23.62 23.05 23.11 24C23.11 24 22.59 24.94 22.3 26.21C22.3 26.21 22 27.48 22 29.1C22 29.1 22 31.32 22.52 32.78C22.52 32.78 23.04 34.25 23.96 35.13ZM16.68 21.2C16.68 21.2 16.61 21.4 16.49 21.75C16.49 21.75 16.37 22.1 16.11 22.44C16.11 22.44 15.85 22.78 15.38 23.04C15.38 23.04 14.91 23.29 14.16 23.29L13.06 23.29L13.06 26.02L16.28 26.02L16.28 36.63L19.61 36.63L19.61 21.2L16.68 21.2ZM26.49 33.15C26.91 33.51 27.48 33.71 27.48 33.71C28.05 33.91 28.69 33.91 28.69 33.91C29.43 33.91 30.04 33.71 30.04 33.71C30.64 33.51 31.07 33.15 31.07 33.15C31.5 32.79 31.75 32.3 31.75 32.3C31.99 31.8 31.99 31.21 31.99 31.21C31.99 30.47 31.75 29.94 31.75 29.94C31.5 29.41 31.07 29.07 31.07 29.07C30.64 28.74 30.04 28.58 30.04 28.58C29.43 28.42 28.69 28.42 28.69 28.42C28.05 28.42 27.48 28.58 27.48 28.58C26.91 28.74 26.5 29.07 26.5 29.07C26.08 29.41 25.84 29.94 25.84 29.94C25.6 30.47 25.6 31.21 25.6 31.21C25.6 31.8 25.83 32.3 25.83 32.3C26.07 32.79 26.49 33.15 26.49 33.15Z" fill-rule="evenodd"  fill="#000000" >
</path>
</svg>
