<svg xmlns="http://www.w3.org/2000/svg" xmlns:xlink="http://www.w3.org/1999/xlink" width="48" height="48" viewBox="0 0 48 48" fill="none">
<path d="M36 4L12 4C7.58 4 4 7.58 4 12L4 36C4 40.42 7.58 44 12 44L36 44C40.42 44 44 40.42 44 36L44 12C44 7.58 40.42 4 36 4ZM40 12C40 9.79 38.21 8 36 8L12 8C9.79 8 8 9.79 8 12L8 13.95L40 14L40 12ZM12 40L36 40C38.21 40 40 38.21 40 36L40 18L8 17.95L8 36C8 38.21 9.79 40 12 40ZM28.61 22.41C28.61 22.41 27.73 21.52 26.53 21.14C26.53 21.14 25.32 20.76 23.92 20.76C23.92 20.76 22.49 20.76 21.33 21.15C21.33 21.15 20.17 21.53 19.34 22.24C19.34 22.24 18.5 22.94 18.04 23.93C18.04 23.93 17.58 24.92 17.58 26.14C17.58 26.14 17.58 27.13 17.84 28.1C17.84 28.1 18.1 29.08 18.8 29.85C18.8 29.85 19.51 30.62 20.72 31.09C20.72 31.09 21.94 31.56 23.83 31.56C23.83 31.56 24.62 31.56 25.19 31.43C25.19 31.43 25.77 31.29 26.18 31.04C26.18 31.04 26.6 30.79 26.89 30.43C26.89 30.43 27.17 30.08 27.37 29.63C27.37 29.63 27.35 30.75 27.16 31.58C27.16 31.58 26.96 32.41 26.53 32.96C26.53 32.96 26.09 33.5 25.42 33.78C25.42 33.78 24.74 34.06 23.77 34.06C23.77 34.06 23.14 34.06 22.59 33.96C22.59 33.96 22.04 33.86 21.63 33.66C21.63 33.66 21.22 33.45 20.96 33.13C20.96 33.13 20.71 32.8 20.68 32.33L17.65 32.33C17.65 32.33 17.74 34.57 19.36 35.71C19.36 35.71 20.98 36.85 23.81 36.83C23.81 36.83 25.32 36.83 26.55 36.4C26.55 36.4 27.79 35.97 28.67 34.99C28.67 34.99 29.55 34.01 30.03 32.41C30.03 32.41 30.5 30.8 30.5 28.43C30.5 28.43 30.5 26.23 30 24.76C30 24.76 29.5 23.3 28.61 22.41ZM26.16 24.07C25.73 23.71 25.18 23.51 25.18 23.51C24.62 23.32 23.97 23.32 23.97 23.32C23.25 23.32 22.65 23.51 22.65 23.51C22.04 23.71 21.61 24.07 21.61 24.07C21.18 24.43 20.94 24.92 20.94 24.92C20.69 25.4 20.69 26 20.69 26C20.69 27.46 21.6 28.1 21.6 28.1C22.51 28.75 23.97 28.75 23.97 28.75C24.62 28.75 25.18 28.6 25.18 28.6C25.73 28.45 26.15 28.1 26.15 28.1C26.56 27.76 26.81 27.24 26.81 27.24C27.05 26.72 27.05 26 27.05 26C27.05 25.4 26.81 24.92 26.81 24.92C26.58 24.43 26.16 24.07 26.16 24.07Z" fill-rule="evenodd"  fill="#000000" >
</path>
</svg>
