<svg xmlns="http://www.w3.org/2000/svg" xmlns:xlink="http://www.w3.org/1999/xlink" width="48" height="48" viewBox="0 0 48 48" fill="none">
<path d="M36 4L12 4C7.58 4 4 7.58 4 12L4 36C4 40.42 7.58 44 12 44L36 44C40.42 44 44 40.42 44 36L44 12C44 7.58 40.42 4 36 4ZM40 12C40 9.79 38.21 8 36 8L12 8C9.79 8 8 9.79 8 12L8 13.95L40 14L40 12ZM12 40L36 40C38.21 40 40 38.21 40 36L40 18L8 17.95L8 36C8 38.21 9.79 40 12 40ZM33.04 22.31C33.04 22.31 32.16 21.42 30.96 21.04C30.96 21.04 29.75 20.66 28.35 20.66C28.35 20.66 26.92 20.66 25.76 21.05C25.76 21.05 24.6 21.43 23.77 22.14C23.77 22.14 22.93 22.84 22.47 23.83C22.47 23.83 22.01 24.82 22.01 26.04C22.01 26.04 22.01 27.03 22.27 28C22.27 28 22.53 28.98 23.23 29.75C23.23 29.75 23.94 30.52 25.15 30.99C25.15 30.99 26.37 31.46 28.26 31.46C28.26 31.46 29.05 31.46 29.62 31.33C29.62 31.33 30.2 31.19 30.61 30.94C30.61 30.94 31.03 30.69 31.32 30.33C31.32 30.33 31.6 29.98 31.8 29.53C31.8 29.53 31.78 30.65 31.59 31.48C31.59 31.48 31.39 32.31 30.96 32.85C30.96 32.85 30.52 33.4 29.85 33.68C29.85 33.68 29.17 33.96 28.2 33.96C28.2 33.96 27.57 33.96 27.02 33.86C27.02 33.86 26.47 33.76 26.06 33.56C26.06 33.56 25.65 33.35 25.39 33.03C25.39 33.03 25.14 32.7 25.11 32.23L22.08 32.23C22.08 32.23 22.17 34.47 23.79 35.61C23.79 35.61 25.41 36.75 28.24 36.73C28.24 36.73 29.75 36.73 30.98 36.3C30.98 36.3 32.22 35.87 33.1 34.89C33.1 34.89 33.98 33.91 34.46 32.31C34.46 32.31 34.93 30.7 34.93 28.33C34.93 28.33 34.93 26.13 34.43 24.66C34.43 24.66 33.93 23.2 33.04 22.31ZM16.62 21.2C16.62 21.2 16.55 21.4 16.43 21.75C16.43 21.75 16.31 22.1 16.05 22.44C16.05 22.44 15.79 22.78 15.32 23.04C15.32 23.04 14.85 23.29 14.1 23.29L13 23.29L13 26.02L16.22 26.02L16.22 36.63L19.55 36.63L19.55 21.2L16.62 21.2ZM30.59 23.97C30.16 23.61 29.61 23.41 29.61 23.41C29.05 23.22 28.4 23.22 28.4 23.22C27.68 23.22 27.08 23.41 27.08 23.41C26.47 23.61 26.04 23.97 26.04 23.97C25.61 24.33 25.37 24.82 25.37 24.82C25.12 25.3 25.12 25.9 25.12 25.9C25.12 27.36 26.03 28 26.03 28C26.94 28.65 28.4 28.65 28.4 28.65C29.05 28.65 29.61 28.5 29.61 28.5C30.16 28.35 30.58 28 30.58 28C30.99 27.66 31.24 27.14 31.24 27.14C31.48 26.62 31.48 25.9 31.48 25.9C31.48 25.3 31.24 24.82 31.24 24.82C31.01 24.33 30.59 23.97 30.59 23.97Z" fill-rule="evenodd"  fill="#000000" >
</path>
</svg>
