<svg xmlns="http://www.w3.org/2000/svg" xmlns:xlink="http://www.w3.org/1999/xlink" width="48" height="48" viewBox="0 0 48 48" fill="none">
<path d="M36 4L12 4C7.58 4 4 7.58 4 12L4 36C4 40.42 7.58 44 12 44L36 44C40.42 44 44 40.42 44 36L44 12C44 7.58 40.42 4 36 4ZM40 12C40 9.79 38.21 8 36 8L12 8C9.79 8 8 9.79 8 12L8 13.95L40 14L40 12ZM12 40L36 40C38.21 40 40 38.21 40 36L40 18L8 17.95L8 36C8 38.21 9.79 40 12 40ZM29.1 24.52L29.1 21.26L17.74 21.26L17.2 29.25L20.37 29.79C20.37 29.79 21.23 29.22 22.01 28.97C22.01 28.97 22.78 28.73 23.66 28.73C23.66 28.73 24.22 28.73 24.69 28.92C24.69 28.92 25.16 29.11 25.51 29.44C25.51 29.44 25.86 29.77 26.06 30.24C26.06 30.24 26.26 30.71 26.26 31.27C26.26 31.27 26.26 31.54 26.19 31.98C26.19 31.98 26.13 32.42 25.89 32.84C25.89 32.84 25.64 33.27 25.17 33.57C25.17 33.57 24.69 33.88 23.86 33.88C23.86 33.88 23.27 33.88 22.76 33.76C22.76 33.76 22.26 33.64 21.89 33.36C21.89 33.36 21.52 33.09 21.32 32.65C21.32 32.65 21.13 32.2 21.13 31.56L17.13 31.56C17.13 31.56 17.13 33.01 17.67 34.01C17.67 34.01 18.21 35.01 19.11 35.64C19.11 35.64 20.01 36.27 21.18 36.55C21.18 36.55 22.35 36.83 23.61 36.83C23.61 36.83 25.16 36.83 26.33 36.41C26.33 36.41 27.5 35.98 28.29 35.26C28.29 35.26 29.08 34.53 29.48 33.56C29.48 33.56 29.87 32.6 29.87 31.52C29.87 31.52 29.87 30.51 29.59 29.54C29.59 29.54 29.3 28.57 28.64 27.81C28.64 27.81 27.98 27.06 26.92 26.59C26.92 26.59 25.86 26.12 24.31 26.12C24.31 26.12 23.92 26.12 23.4 26.17C23.4 26.17 22.89 26.23 22.36 26.42C22.36 26.42 21.83 26.61 21.32 26.98C21.32 26.98 20.82 27.34 20.42 27.97L20.78 24.52L29.1 24.52Z" fill-rule="evenodd"  fill="#000000" >
</path>
</svg>
