<svg xmlns="http://www.w3.org/2000/svg" xmlns:xlink="http://www.w3.org/1999/xlink" width="48" height="48" viewBox="0 0 48 48" fill="none">
<path d="M36 4L12 4C7.58 4 4 7.58 4 12L4 36C4 40.42 7.58 44 12 44L36 44C40.42 44 44 40.42 44 36L44 12C44 7.58 40.42 4 36 4ZM40 12C40 9.79 38.21 8 36 8L12 8C9.79 8 8 9.79 8 12L8 13.95L40 14L40 12ZM12 40L36 40C38.21 40 40 38.21 40 36L40 18L8 17.95L8 36C8 38.21 9.79 40 12 40ZM28.73 27.19C28.73 27.19 29.08 26.7 29.26 26.13C29.26 26.13 29.44 25.55 29.44 25.01C29.44 25.01 29.44 24.09 29.08 23.31C29.08 23.31 28.72 22.53 28.03 21.94C28.03 21.94 27.35 21.36 26.33 21.03C26.33 21.03 25.31 20.71 23.98 20.71C23.98 20.71 22.65 20.71 21.63 21.03C21.63 21.03 20.62 21.36 19.92 21.94C19.92 21.94 19.23 22.53 18.87 23.31C18.87 23.31 18.51 24.09 18.51 25.01C18.51 25.01 18.51 25.55 18.67 26.13C18.67 26.13 18.83 26.7 19.17 27.19C19.17 27.19 19.5 27.68 20.02 28.04C20.02 28.04 20.54 28.4 21.25 28.52C21.25 28.52 20.36 28.67 19.71 29.03C19.71 29.03 19.05 29.39 18.6 29.89C18.6 29.89 18.15 30.39 17.92 31C17.92 31 17.7 31.6 17.7 32.25C17.7 32.25 17.7 33.22 18.13 34.05C18.13 34.05 18.56 34.88 19.37 35.48C19.37 35.48 20.18 36.08 21.35 36.43C21.35 36.43 22.52 36.78 24 36.78C24 36.78 25.48 36.78 26.65 36.43C26.65 36.43 27.82 36.08 28.63 35.48C28.63 35.48 29.44 34.88 29.86 34.05C29.86 34.05 30.28 33.22 30.28 32.25C30.28 32.25 30.28 31.6 30.06 30.99C30.06 30.99 29.83 30.38 29.37 29.87C29.37 29.87 28.91 29.37 28.22 29.01C28.22 29.01 27.53 28.65 26.57 28.52C26.57 28.52 27.29 28.4 27.83 28.04C27.83 28.04 28.37 27.68 28.73 27.19ZM23.98 26.97C25.01 26.97 25.58 26.38 25.58 26.38C26.14 25.79 26.14 24.92 26.14 24.92C26.14 24.09 25.58 23.5 25.58 23.5C25.01 22.91 23.98 22.91 23.98 22.91C23.5 22.91 23.11 23.07 23.11 23.07C22.72 23.23 22.44 23.5 22.44 23.5C22.16 23.77 22.01 24.14 22.01 24.14C21.86 24.51 21.86 24.92 21.86 24.92C21.86 25.79 22.42 26.38 22.42 26.38C22.97 26.97 23.98 26.97 23.98 26.97ZM24 29.66C22.52 29.66 21.84 30.35 21.84 30.35C21.16 31.04 21.16 32.1 21.16 32.1C21.16 33.15 21.84 33.84 21.84 33.84C22.52 34.53 24 34.53 24 34.53C25.44 34.53 26.14 33.84 26.14 33.84C26.84 33.15 26.84 32.1 26.84 32.1C26.84 31.04 26.14 30.35 26.14 30.35C25.44 29.66 24 29.66 24 29.66Z" fill-rule="evenodd"  fill="#000000" >
</path>
</svg>
