<svg xmlns="http://www.w3.org/2000/svg" xmlns:xlink="http://www.w3.org/1999/xlink" width="48" height="48" viewBox="0 0 48 48" fill="none">
<path d="M36 4L12 4C7.58 4 4 7.58 4 12L4 36C4 40.42 7.58 44 12 44L36 44C40.42 44 44 40.42 44 36L44 12C44 7.58 40.42 4 36 4ZM40 12C40 9.79 38.21 8 36 8L12 8C9.79 8 8 9.79 8 12L8 13.95L40 14L40 12ZM12 40L36 40C38.21 40 40 38.21 40 36L40 18L8 17.95L8 36C8 38.21 9.79 40 12 40ZM20.8 27.94C20.8 27.94 20.18 28.26 19.39 28.58C19.39 28.58 18.6 28.89 17.77 29.28C17.77 29.28 16.94 29.66 16.15 30.16C16.15 30.16 15.36 30.65 14.74 31.37C14.74 31.37 14.12 32.08 13.74 33.02C13.74 33.02 13.36 33.97 13.36 35.24L13.36 36.59L25.78 36.59L25.78 33.59L17.39 33.57C17.39 33.57 17.39 33.14 17.75 32.83C17.75 32.83 18.11 32.53 18.71 32.26C18.71 32.26 19.3 32 20.06 31.75C20.06 31.75 20.81 31.5 21.6 31.17C21.6 31.17 22.38 30.83 23.13 30.4C23.13 30.4 23.89 29.97 24.48 29.36C24.48 29.36 25.08 28.75 25.44 27.92C25.44 27.92 25.8 27.09 25.8 25.96C25.8 25.96 25.8 24.86 25.4 23.91C25.4 23.91 25.01 22.97 24.22 22.27C24.22 22.27 23.44 21.58 22.27 21.19C22.27 21.19 21.1 20.79 19.55 20.79C19.55 20.79 18.33 20.79 17.21 21.1C17.21 21.1 16.1 21.42 15.25 22.08C15.25 22.08 14.4 22.73 13.91 23.73C13.91 23.73 13.41 24.73 13.41 26.1L17.16 26.06C17.16 26.06 17.16 25.54 17.36 25.19C17.36 25.19 17.55 24.84 17.89 24.61C17.89 24.61 18.22 24.39 18.66 24.29C18.66 24.29 19.1 24.19 19.57 24.19C19.57 24.19 20.36 24.19 20.87 24.36C20.87 24.36 21.37 24.53 21.66 24.83C21.66 24.83 21.95 25.13 22.06 25.52C22.06 25.52 22.18 25.92 22.18 26.39C22.18 26.39 22.18 26.89 21.8 27.26C21.8 27.26 21.42 27.63 20.8 27.94ZM31.71 21.2C31.71 21.2 31.64 21.4 31.52 21.75C31.52 21.75 31.41 22.1 31.15 22.45C31.15 22.45 30.88 22.79 30.42 23.04C30.42 23.04 29.95 23.29 29.19 23.29L28.09 23.29L28.09 26.03L31.32 26.03L31.32 36.63L34.65 36.63L34.65 21.2L31.71 21.2Z" fill-rule="evenodd"  fill="#000000" >
</path>
</svg>
