<svg xmlns="http://www.w3.org/2000/svg" xmlns:xlink="http://www.w3.org/1999/xlink" width="48" height="48" viewBox="0 0 48 48" fill="none">
<path d="M4 12L4 36C4 40.4183 7.58172 44 12 44L20.3745 44C19.4494 42.7876 18.6884 41.4432 18.1248 40L12 40C9.79086 40 8 38.2091 8 36L8 17.9517L40 17.9972L40 19.3221C41.4333 19.6353 42.7801 20.1682 44 20.8819L44 12C44 7.58172 40.4183 4 36 4L12 4C7.58172 4 4 7.58172 4 12ZM40 12L40 13.9972L8 13.9517L8 12C8 9.79086 9.79086 8 12 8L36 8C38.2091 8 40 9.79086 40 12ZM24.5 24C24.5 24.4918 24.3225 24.9421 24.028 25.2904L21.5462 28.2686C21.1794 28.7152 20.623 29 20 29C18.8954 29 18 28.1046 18 27C18 26.5082 18.1775 26.0578 18.472 25.7095L20.9538 22.7314C21.3206 22.2848 21.877 22 22.5 22C23.6046 22 24.5 22.8954 24.5 24ZM40.5 24C40.5 24.4918 40.6775 24.9421 40.972 25.2904L43.4538 28.2686C43.8206 28.7152 44.377 29 45 29C46.1046 29 47 28.1046 47 27C47 26.5082 46.8225 26.0578 46.528 25.7095L44.0462 22.7314C43.6794 22.2848 43.123 22 42.5 22C41.3954 22 40.5 22.8954 40.5 24ZM32.5 46C38.5751 46 43.5 41.0751 43.5 35C43.5 28.9249 38.5751 24 32.5 24C26.4249 24 21.5 28.9249 21.5 35C21.5 41.0751 26.4249 46 32.5 46ZM32.5 28C36.366 28 39.5 31.134 39.5 35C39.5 38.866 36.366 42 32.5 42C28.634 42 25.5 38.866 25.5 35C25.5 31.134 28.634 28 32.5 28ZM30.0009 32L30.0009 31.9995C30.0012 30.8952 30.8965 30 32.0009 30C33.1055 30 34.0009 30.8954 34.0009 32L34.0009 32.0005L34.0004 34L34.9999 34C36.1045 34 36.9999 34.8954 36.9999 36C36.9999 37.1046 36.1045 38 34.9999 38L32.4618 38C31.102 38 29.9997 36.8974 30 35.5376L30.0009 32Z" fill-rule="evenodd"  fill="#000000" >
</path>
</svg>
