<svg xmlns="http://www.w3.org/2000/svg" xmlns:xlink="http://www.w3.org/1999/xlink" width="48" height="48" viewBox="0 0 48 48" fill="none">
<path d="M36 4L12 4C7.58 4 4 7.58 4 12L4 36C4 40.42 7.58 44 12 44L36 44C40.42 44 44 40.42 44 36L44 12C44 7.58 40.42 4 36 4ZM40 12C40 9.79 38.21 8 36 8L12 8C9.79 8 8 9.79 8 12L8 13.95L40 14L40 12ZM12 40L36 40C38.21 40 40 38.21 40 36L40 18L8 17.95L8 36C8 38.21 9.79 40 12 40ZM17.78 27.95C17.78 27.95 17.16 28.26 16.37 28.57C16.37 28.57 15.58 28.89 14.75 29.28C14.75 29.28 13.92 29.66 13.13 30.16C13.13 30.16 12.34 30.65 11.72 31.37C11.72 31.37 11.1 32.08 10.72 33.02C10.72 33.02 10.34 33.97 10.34 35.24L10.34 36.59L22.76 36.59L22.76 33.59L14.37 33.57C14.37 33.57 14.37 33.14 14.73 32.83C14.73 32.83 15.09 32.53 15.69 32.27C15.69 32.27 16.28 32 17.04 31.75C17.04 31.75 17.79 31.5 18.58 31.17C18.58 31.17 19.36 30.83 20.11 30.4C20.11 30.4 20.87 29.97 21.46 29.36C21.46 29.36 22.06 28.75 22.42 27.92C22.42 27.92 22.78 27.09 22.78 25.96C22.78 25.96 22.78 24.86 22.38 23.91C22.38 23.91 21.99 22.97 21.2 22.27C21.2 22.27 20.42 21.58 19.25 21.19C19.25 21.19 18.08 20.79 16.53 20.79C16.53 20.79 15.31 20.79 14.19 21.1C14.19 21.1 13.08 21.42 12.23 22.08C12.23 22.08 11.38 22.73 10.89 23.73C10.89 23.73 10.39 24.73 10.39 26.1L14.14 26.06C14.14 26.06 14.14 25.54 14.34 25.19C14.34 25.19 14.53 24.84 14.87 24.61C14.87 24.61 15.2 24.39 15.64 24.29C15.64 24.29 16.08 24.19 16.55 24.19C16.55 24.19 17.34 24.19 17.85 24.36C17.85 24.36 18.35 24.53 18.64 24.83C18.64 24.83 18.93 25.13 19.04 25.52C19.04 25.52 19.16 25.92 19.16 26.39C19.16 26.39 19.16 26.89 18.78 27.26C18.78 27.26 18.4 27.63 17.78 27.95ZM32.66 27.95C32.66 27.95 32.04 28.26 31.25 28.57C31.25 28.57 30.46 28.89 29.63 29.28C29.63 29.28 28.8 29.66 28.01 30.16C28.01 30.16 27.22 30.65 26.6 31.37C26.6 31.37 25.97 32.08 25.6 33.02C25.6 33.02 25.22 33.97 25.22 35.24L25.22 36.59L37.64 36.59L37.64 33.59L29.25 33.57C29.25 33.57 29.25 33.14 29.61 32.83C29.61 32.83 29.97 32.53 30.56 32.27C30.56 32.27 31.16 32 31.91 31.75C31.91 31.75 32.67 31.5 33.45 31.17C33.45 31.17 34.24 30.83 34.99 30.4C34.99 30.4 35.75 29.97 36.34 29.36C36.34 29.36 36.94 28.75 37.3 27.92C37.3 27.92 37.66 27.09 37.66 25.96C37.66 25.96 37.66 24.86 37.26 23.91C37.26 23.91 36.86 22.97 36.08 22.27C36.08 22.27 35.3 21.58 34.13 21.19C34.13 21.19 32.96 20.79 31.41 20.79C31.41 20.79 30.19 20.79 29.07 21.1C29.07 21.1 27.95 21.42 27.11 22.08C27.11 22.08 26.26 22.73 25.77 23.73C25.77 23.73 25.27 24.73 25.27 26.1L29.02 26.06C29.02 26.06 29.02 25.54 29.21 25.19C29.21 25.19 29.41 24.84 29.75 24.61C29.75 24.61 30.08 24.39 30.52 24.29C30.52 24.29 30.96 24.19 31.43 24.19C31.43 24.19 32.22 24.19 32.72 24.36C32.72 24.36 33.23 24.53 33.52 24.83C33.52 24.83 33.8 25.13 33.92 25.52C33.92 25.52 34.04 25.92 34.04 26.39C34.04 26.39 34.04 26.89 33.66 27.26C33.66 27.26 33.28 27.63 32.66 27.95Z" fill-rule="evenodd"  fill="#000000" >
</path>
</svg>
