<svg xmlns="http://www.w3.org/2000/svg" xmlns:xlink="http://www.w3.org/1999/xlink" width="48" height="48" viewBox="0 0 48 48" fill="none">
<path d="M36 4L12 4C7.58 4 4 7.58 4 12L4 36C4 40.42 7.58 44 12 44L36 44C40.42 44 44 40.42 44 36L44 12C44 7.58 40.42 4 36 4ZM40 12C40 9.79 38.21 8 36 8L12 8C9.79 8 8 9.79 8 12L8 13.95L40 14L40 12ZM12 40L36 40C38.21 40 40 38.21 40 36L40 18L8 17.95L8 36C8 38.21 9.79 40 12 40ZM19.85 21.2C19.85 21.2 19.78 21.4 19.66 21.75C19.66 21.75 19.54 22.1 19.28 22.44C19.28 22.44 19.02 22.78 18.55 23.04C18.55 23.04 18.08 23.29 17.33 23.29L16.23 23.29L16.23 26.02L19.45 26.02L19.45 36.63L22.78 36.63L22.78 21.2L19.85 21.2ZM28.7 21.2C28.7 21.2 28.62 21.4 28.51 21.75C28.51 21.75 28.39 22.1 28.13 22.44C28.13 22.44 27.87 22.78 27.4 23.04C27.4 23.04 26.93 23.29 26.18 23.29L25.08 23.29L25.08 26.02L28.3 26.02L28.3 36.63L31.63 36.63L31.63 21.2L28.7 21.2Z" fill-rule="evenodd"  fill="#000000" >
</path>
</svg>
