<svg xmlns="http://www.w3.org/2000/svg" xmlns:xlink="http://www.w3.org/1999/xlink" width="48" height="48" viewBox="0 0 48 48" fill="none">
<path d="M36 4L12 4C7.58 4 4 7.58 4 12L4 36C4 40.42 7.58 44 12 44L36 44C40.42 44 44 40.42 44 36L44 12C44 7.58 40.42 4 36 4ZM40 12C40 9.79 38.21 8 36 8L12 8C9.79 8 8 9.79 8 12L8 13.95L40 14L40 12ZM12 40L36 40C38.21 40 40 38.21 40 36L40 18L8 17.95L8 36C8 38.21 9.79 40 12 40ZM25.22 28.05C25.22 28.05 24.6 28.36 23.81 28.67C23.81 28.67 23.02 28.99 22.19 29.38C22.19 29.38 21.36 29.76 20.57 30.26C20.57 30.26 19.78 30.75 19.16 31.47C19.16 31.47 18.54 32.18 18.16 33.12C18.16 33.12 17.78 34.07 17.78 35.34L17.78 36.69L30.2 36.69L30.2 33.69L21.81 33.67C21.81 33.67 21.81 33.24 22.17 32.93C22.17 32.93 22.53 32.63 23.13 32.37C23.13 32.37 23.72 32.1 24.48 31.85C24.48 31.85 25.23 31.6 26.01 31.27C26.01 31.27 26.8 30.93 27.55 30.5C27.55 30.5 28.31 30.07 28.9 29.46C28.9 29.46 29.5 28.85 29.86 28.02C29.86 28.02 30.22 27.19 30.22 26.06C30.22 26.06 30.22 24.96 29.82 24.01C29.82 24.01 29.43 23.07 28.64 22.37C28.64 22.37 27.86 21.68 26.69 21.29C26.69 21.29 25.52 20.89 23.97 20.89C23.97 20.89 22.75 20.89 21.63 21.2C21.63 21.2 20.52 21.52 19.67 22.18C19.67 22.18 18.82 22.83 18.33 23.83C18.33 23.83 17.83 24.83 17.83 26.2L21.58 26.16C21.58 26.16 21.58 25.64 21.78 25.29C21.78 25.29 21.97 24.94 22.31 24.72C22.31 24.72 22.64 24.49 23.08 24.39C23.08 24.39 23.52 24.29 23.99 24.29C23.99 24.29 24.78 24.29 25.29 24.46C25.29 24.46 25.79 24.63 26.08 24.93C26.08 24.93 26.37 25.23 26.48 25.62C26.48 25.62 26.6 26.02 26.6 26.49C26.6 26.49 26.6 26.99 26.22 27.36C26.22 27.36 25.84 27.73 25.22 28.05Z" fill-rule="evenodd"  fill="#000000" >
</path>
</svg>
