<svg xmlns="http://www.w3.org/2000/svg" xmlns:xlink="http://www.w3.org/1999/xlink" width="48" height="48" viewBox="0 0 48 48" fill="none">
<path d="M36 4L12 4C7.58 4 4 7.58 4 12L4 36C4 40.42 7.58 44 12 44L36 44C40.42 44 44 40.42 44 36L44 12C44 7.58 40.42 4 36 4ZM40 12C40 9.79 38.21 8 36 8L12 8C9.79 8 8 9.79 8 12L8 13.95L40 14L40 12ZM12 40L36 40C38.21 40 40 38.21 40 36L40 18L8 17.95L8 36C8 38.21 9.79 40 12 40ZM36.29 23.08C36.29 23.08 35.45 21.99 34.24 21.36C34.24 21.36 33.02 20.73 31.46 20.73C31.46 20.73 29.87 20.73 28.65 21.36C28.65 21.36 27.42 21.99 26.59 23.08C26.59 23.08 25.75 24.17 25.33 25.64C25.33 25.64 24.9 27.1 24.9 28.76C24.9 28.76 24.9 30.41 25.39 31.88C25.39 31.88 25.88 33.35 26.74 34.44C26.74 34.44 27.6 35.53 28.81 36.16C28.81 36.16 30.02 36.8 31.46 36.8C31.46 36.8 33.02 36.8 34.24 36.16C34.24 36.16 35.45 35.53 36.29 34.44C36.29 34.44 37.13 33.35 37.56 31.88C37.56 31.88 37.99 30.41 37.99 28.76C37.99 28.76 37.99 27.1 37.56 25.64C37.56 25.64 37.13 24.17 36.29 23.08ZM17.7 27.94C17.7 27.94 17.08 28.25 16.29 28.57C16.29 28.57 15.5 28.88 14.67 29.27C14.67 29.27 13.84 29.66 13.05 30.15C13.05 30.15 12.26 30.65 11.64 31.36C11.64 31.36 11.02 32.07 10.64 33.02C10.64 33.02 10.26 33.96 10.26 35.24L10.26 36.59L22.68 36.59L22.68 33.58L14.29 33.56C14.29 33.56 14.29 33.13 14.65 32.83C14.65 32.83 15.01 32.52 15.61 32.26C15.61 32.26 16.2 32 16.96 31.75C16.96 31.75 17.71 31.49 18.5 31.16C18.5 31.16 19.28 30.83 20.03 30.4C20.03 30.4 20.79 29.96 21.38 29.35C21.38 29.35 21.98 28.74 22.34 27.91C22.34 27.91 22.7 27.08 22.7 25.95C22.7 25.95 22.7 24.85 22.3 23.91C22.3 23.91 21.91 22.96 21.12 22.27C21.12 22.27 20.34 21.58 19.17 21.18C19.17 21.18 18 20.78 16.45 20.78C16.45 20.78 15.23 20.78 14.11 21.1C14.11 21.1 13 21.41 12.15 22.07C12.15 22.07 11.3 22.73 10.81 23.73C10.81 23.73 10.31 24.73 10.31 26.09L14.06 26.06C14.06 26.06 14.06 25.54 14.26 25.19C14.26 25.19 14.45 24.83 14.79 24.61C14.79 24.61 15.12 24.38 15.56 24.29C15.56 24.29 16 24.19 16.47 24.19C16.47 24.19 17.26 24.19 17.77 24.36C17.77 24.36 18.27 24.53 18.56 24.83C18.56 24.83 18.85 25.12 18.96 25.52C18.96 25.52 19.08 25.91 19.08 26.38C19.08 26.38 19.08 26.89 18.7 27.26C18.7 27.26 18.32 27.62 17.7 27.94ZM33.9 25.15C33.51 24.44 32.91 24.02 32.91 24.02C32.3 23.61 31.46 23.61 31.46 23.61C30.59 23.61 29.98 24.02 29.98 24.02C29.37 24.44 28.98 25.15 28.98 25.15C28.59 25.86 28.41 26.79 28.41 26.79C28.23 27.71 28.23 28.74 28.23 28.74C28.23 29.77 28.41 30.7 28.41 30.7C28.59 31.64 28.98 32.34 28.98 32.34C29.37 33.04 29.98 33.47 29.98 33.47C30.59 33.89 31.46 33.89 31.46 33.89C32.3 33.89 32.91 33.47 32.91 33.47C33.51 33.04 33.9 32.34 33.9 32.34C34.28 31.64 34.46 30.7 34.46 30.7C34.64 29.77 34.64 28.74 34.64 28.74C34.64 27.71 34.46 26.79 34.46 26.79C34.28 25.86 33.9 25.15 33.9 25.15Z" fill-rule="evenodd"  fill="#000000" >
</path>
</svg>
