<svg xmlns="http://www.w3.org/2000/svg" xmlns:xlink="http://www.w3.org/1999/xlink" width="48" height="48" viewBox="0 0 48 48" fill="none">
<path d="M36 4L12 4C7.58 4 4 7.58 4 12L4 36C4 40.42 7.58 44 12 44L36 44C40.42 44 44 40.42 44 36L44 12C44 7.58 40.42 4 36 4ZM40 12C40 9.79 38.21 8 36 8L12 8C9.79 8 8 9.79 8 12L8 13.95L40 14L40 12ZM12 40L36 40C38.21 40 40 38.21 40 36L40 18L8 17.95L8 36C8 38.21 9.79 40 12 40ZM33.27 23.08C33.27 23.08 32.44 21.99 31.22 21.36C31.22 21.36 30.01 20.73 28.44 20.73C28.44 20.73 26.86 20.73 25.63 21.36C25.63 21.36 24.41 21.99 23.57 23.08C23.57 23.08 22.73 24.17 22.31 25.64C22.31 25.64 21.89 27.1 21.89 28.76C21.89 28.76 21.89 30.41 22.37 31.88C22.37 31.88 22.86 33.35 23.72 34.44C23.72 34.44 24.59 35.53 25.79 36.16C25.79 36.16 27 36.8 28.44 36.8C28.44 36.8 30.01 36.8 31.22 36.16C31.22 36.16 32.44 35.53 33.27 34.44C33.27 34.44 34.11 33.35 34.54 31.88C34.54 31.88 34.97 30.41 34.97 28.76C34.97 28.76 34.97 27.1 34.54 25.64C34.54 25.64 34.11 24.17 33.27 23.08ZM16.75 21.2C16.75 21.2 16.68 21.4 16.56 21.75C16.56 21.75 16.44 22.1 16.18 22.44C16.18 22.44 15.92 22.78 15.45 23.03C15.45 23.03 14.98 23.29 14.23 23.29L13.13 23.29L13.13 26.02L16.35 26.02L16.35 36.62L19.68 36.62L19.68 21.2L16.75 21.2ZM30.88 25.15C30.49 24.44 29.89 24.02 29.89 24.02C29.29 23.61 28.44 23.61 28.44 23.61C27.58 23.61 26.96 24.02 26.96 24.02C26.35 24.44 25.97 25.15 25.97 25.15C25.58 25.86 25.4 26.79 25.4 26.79C25.22 27.71 25.22 28.74 25.22 28.74C25.22 29.77 25.4 30.7 25.4 30.7C25.58 31.64 25.97 32.34 25.97 32.34C26.35 33.04 26.96 33.47 26.96 33.47C27.58 33.89 28.44 33.89 28.44 33.89C29.29 33.89 29.89 33.47 29.89 33.47C30.49 33.04 30.88 32.34 30.88 32.34C31.27 31.64 31.45 30.7 31.45 30.7C31.63 29.77 31.63 28.74 31.63 28.74C31.63 27.71 31.45 26.79 31.45 26.79C31.27 25.86 30.88 25.15 30.88 25.15Z" fill-rule="evenodd"  fill="#000000" >
</path>
</svg>
