<svg xmlns="http://www.w3.org/2000/svg" xmlns:xlink="http://www.w3.org/1999/xlink" width="48" height="48" viewBox="0 0 48 48" fill="none">
<path d="M36 4L12 4C7.58 4 4 7.58 4 12L4 36C4 40.42 7.58 44 12 44L36 44C40.42 44 44 40.42 44 36L44 12C44 7.58 40.42 4 36 4ZM40 12C40 9.79 38.21 8 36 8L12 8C9.79 8 8 9.79 8 12L8 13.95L40 14L40 12ZM12 40L36 40C38.21 40 40 38.21 40 36L40 18L8 17.95L8 36C8 38.21 9.79 40 12 40ZM26.98 35.13C26.98 35.13 27.89 36.01 29.13 36.37C29.13 36.37 30.36 36.73 31.76 36.73C31.76 36.73 33.19 36.73 34.37 36.35C34.37 36.35 35.54 35.96 36.38 35.25C36.38 35.25 37.22 34.54 37.68 33.54C37.68 33.54 38.14 32.54 38.14 31.32C38.14 31.32 38.14 30.31 37.84 29.38C37.84 29.38 37.54 28.45 36.85 27.75C36.85 27.75 36.16 27.05 35.04 26.63C35.04 26.63 33.92 26.2 32.29 26.2C32.29 26.2 30.94 26.2 29.95 26.76C29.95 26.76 28.96 27.32 28.61 28.33C28.61 28.33 28.61 26.92 28.83 25.97C28.83 25.97 29.05 25.02 29.45 24.43C29.45 24.43 29.86 23.85 30.46 23.59C30.46 23.59 31.06 23.34 31.84 23.34C31.84 23.34 32.47 23.34 32.93 23.44C32.93 23.44 33.38 23.54 33.71 23.75C33.71 23.75 34.03 23.95 34.25 24.28C34.25 24.28 34.46 24.6 34.63 25.07L37.61 25.07C37.61 25.07 37.49 24.04 37.04 23.22C37.04 23.22 36.59 22.39 35.85 21.8C35.85 21.8 35.11 21.22 34.1 20.89C34.1 20.89 33.08 20.57 31.8 20.57C31.8 20.57 31.06 20.57 30.27 20.75C30.27 20.75 29.48 20.93 28.72 21.34C28.72 21.34 27.97 21.74 27.3 22.4C27.3 22.4 26.63 23.05 26.12 24C26.12 24 25.61 24.94 25.31 26.21C25.31 26.21 25.01 27.48 25.01 29.1C25.01 29.1 25.01 31.32 25.54 32.78C25.54 32.78 26.06 34.25 26.98 35.13ZM17.63 27.94C17.63 27.94 17.01 28.26 16.22 28.57C16.22 28.57 15.43 28.89 14.6 29.27C14.6 29.27 13.77 29.66 12.98 30.16C12.98 30.16 12.19 30.65 11.57 31.36C11.57 31.36 10.95 32.07 10.57 33.02C10.57 33.02 10.19 33.96 10.19 35.24L10.19 36.59L22.61 36.59L22.61 33.58L14.22 33.57C14.22 33.57 14.22 33.13 14.58 32.83C14.58 32.83 14.94 32.52 15.54 32.26C15.54 32.26 16.13 32 16.89 31.75C16.89 31.75 17.64 31.5 18.43 31.16C18.43 31.16 19.21 30.83 19.96 30.4C19.96 30.4 20.72 29.97 21.31 29.35C21.31 29.35 21.91 28.74 22.27 27.91C22.27 27.91 22.63 27.09 22.63 25.95C22.63 25.95 22.63 24.85 22.23 23.91C22.23 23.91 21.84 22.96 21.05 22.27C21.05 22.27 20.27 21.58 19.1 21.18C19.1 21.18 17.93 20.79 16.38 20.79C16.38 20.79 15.16 20.79 14.04 21.1C14.04 21.1 12.93 21.42 12.08 22.07C12.08 22.07 11.23 22.73 10.74 23.73C10.74 23.73 10.24 24.73 10.24 26.1L13.99 26.06C13.99 26.06 13.99 25.54 14.19 25.19C14.19 25.19 14.38 24.84 14.72 24.61C14.72 24.61 15.05 24.39 15.49 24.29C15.49 24.29 15.93 24.19 16.4 24.19C16.4 24.19 17.19 24.19 17.7 24.36C17.7 24.36 18.2 24.53 18.49 24.83C18.49 24.83 18.78 25.12 18.89 25.52C18.89 25.52 19.01 25.92 19.01 26.38C19.01 26.38 19.01 26.89 18.63 27.26C18.63 27.26 18.25 27.63 17.63 27.94ZM29.51 33.15C29.93 33.51 30.5 33.71 30.5 33.71C31.06 33.91 31.71 33.91 31.71 33.91C32.45 33.91 33.05 33.71 33.05 33.71C33.65 33.51 34.09 33.15 34.09 33.15C34.52 32.79 34.76 32.3 34.76 32.3C35 31.8 35 31.21 35 31.21C35 30.47 34.76 29.94 34.76 29.94C34.52 29.41 34.09 29.07 34.09 29.07C33.65 28.74 33.05 28.58 33.05 28.58C32.45 28.42 31.71 28.42 31.71 28.42C31.06 28.42 30.5 28.58 30.5 28.58C29.93 28.74 29.51 29.07 29.51 29.07C29.1 29.41 28.86 29.94 28.86 29.94C28.61 30.47 28.61 31.21 28.61 31.21C28.61 31.8 28.85 32.3 28.85 32.3C29.08 32.79 29.51 33.15 29.51 33.15Z" fill-rule="evenodd"  fill="#000000" >
</path>
</svg>
