<svg xmlns="http://www.w3.org/2000/svg" xmlns:xlink="http://www.w3.org/1999/xlink" width="48" height="48" viewBox="0 0 48 48" fill="none">
<path d="M36 4L12 4C7.58 4 4 7.58 4 12L4 36C4 40.42 7.58 44 12 44L36 44C40.42 44 44 40.42 44 36L44 12C44 7.58 40.42 4 36 4ZM40 12C40 9.79 38.21 8 36 8L12 8C9.79 8 8 9.79 8 12L8 13.95L40 14L40 12ZM12 40L36 40C38.21 40 40 38.21 40 36L40 18L8 17.95L8 36C8 38.21 9.79 40 12 40ZM21.95 29.93L24.09 29.93C24.09 29.93 24.65 29.93 25.13 30.01C25.13 30.01 25.61 30.09 25.95 30.29C25.95 30.29 26.29 30.48 26.49 30.82C26.49 30.82 26.69 31.15 26.69 31.67C26.69 31.67 26.69 31.94 26.6 32.31C26.6 32.31 26.52 32.68 26.26 33.01C26.26 33.01 26 33.35 25.51 33.59C25.51 33.59 25.01 33.83 24.18 33.83C24.18 33.83 23.54 33.83 23.01 33.72C23.01 33.72 22.47 33.62 22.1 33.35C22.1 33.35 21.72 33.08 21.51 32.64C21.51 32.64 21.3 32.19 21.3 31.55L17.56 31.53C17.56 31.53 17.56 32.99 18.09 33.98C18.09 33.98 18.62 34.98 19.49 35.61C19.49 35.61 20.37 36.23 21.53 36.5C21.53 36.5 22.69 36.78 23.95 36.78C23.95 36.78 25.5 36.78 26.68 36.41C26.68 36.41 27.86 36.05 28.67 35.4C28.67 35.4 29.48 34.75 29.89 33.84C29.89 33.84 30.3 32.93 30.3 31.85C30.3 31.85 30.3 31.1 30.04 30.48C30.04 30.48 29.78 29.87 29.38 29.42C29.38 29.42 28.97 28.97 28.5 28.71C28.5 28.71 28.04 28.45 27.6 28.38C27.6 28.38 28.02 28.38 28.47 28.21C28.47 28.21 28.92 28.04 29.29 27.67C29.29 27.67 29.66 27.3 29.89 26.71C29.89 26.71 30.12 26.13 30.12 25.3C30.12 25.3 30.12 24.33 29.73 23.48C29.73 23.48 29.33 22.64 28.55 22.02C28.55 22.02 27.77 21.41 26.6 21.06C26.6 21.06 25.44 20.71 23.9 20.71C23.9 20.71 22.78 20.71 21.68 20.96C21.68 20.96 20.58 21.21 19.7 21.77C19.7 21.77 18.82 22.33 18.28 23.23C18.28 23.23 17.74 24.13 17.74 25.43L21.48 25.41C21.48 25.41 21.48 24.94 21.68 24.63C21.68 24.63 21.88 24.31 22.21 24.11C22.21 24.11 22.55 23.91 22.99 23.82C22.99 23.82 23.43 23.73 23.9 23.73C23.9 23.73 24.69 23.73 25.19 23.92C25.19 23.92 25.7 24.11 25.98 24.41C25.98 24.41 26.27 24.71 26.39 25.04C26.39 25.04 26.51 25.37 26.51 25.68C26.51 25.68 26.51 26.67 25.86 27.02C25.86 27.02 25.21 27.37 24.09 27.35L21.95 27.35L21.95 29.93Z" fill-rule="evenodd"  fill="#000000" >
</path>
</svg>
