<svg xmlns="http://www.w3.org/2000/svg" xmlns:xlink="http://www.w3.org/1999/xlink" width="48" height="48" viewBox="0 0 48 48" fill="none">
<path d="M36 4L12 4C7.58 4 4 7.58 4 12L4 36C4 40.42 7.58 44 12 44L36 44C40.42 44 44 40.42 44 36L44 12C44 7.58 40.42 4 36 4ZM40 12C40 9.79 38.21 8 36 8L12 8C9.79 8 8 9.79 8 12L8 13.95L40 14L40 12ZM12 40L36 40C38.21 40 40 38.21 40 36L40 18L8 17.95L8 36C8 38.21 9.79 40 12 40ZM34.02 24.42L34.02 21.16L22.66 21.16L22.12 29.15L25.29 29.69C25.29 29.69 26.16 29.12 26.93 28.87C26.93 28.87 27.7 28.63 28.59 28.63C28.59 28.63 29.14 28.63 29.61 28.82C29.61 28.82 30.08 29.01 30.43 29.34C30.43 29.34 30.78 29.67 30.98 30.14C30.98 30.14 31.18 30.61 31.18 31.17C31.18 31.17 31.18 31.44 31.12 31.88C31.12 31.88 31.05 32.32 30.81 32.74C30.81 32.74 30.57 33.17 30.09 33.47C30.09 33.47 29.61 33.78 28.78 33.78C28.78 33.78 28.19 33.78 27.69 33.66C27.69 33.66 27.18 33.54 26.81 33.26C26.81 33.26 26.44 32.99 26.25 32.55C26.25 32.55 26.05 32.1 26.05 31.46L22.05 31.46C22.05 31.46 22.05 32.91 22.59 33.91C22.59 33.91 23.13 34.91 24.03 35.54C24.03 35.54 24.93 36.17 26.1 36.45C26.1 36.45 27.27 36.73 28.53 36.73C28.53 36.73 30.08 36.73 31.25 36.31C31.25 36.31 32.42 35.88 33.21 35.16C33.21 35.16 34 34.43 34.4 33.46C34.4 33.46 34.8 32.5 34.8 31.42C34.8 31.42 34.8 30.41 34.51 29.44C34.51 29.44 34.22 28.47 33.56 27.71C33.56 27.71 32.91 26.96 31.84 26.49C31.84 26.49 30.78 26.02 29.23 26.02C29.23 26.02 28.84 26.02 28.33 26.07C28.33 26.07 27.81 26.13 27.28 26.32C27.28 26.32 26.75 26.51 26.25 26.88C26.25 26.88 25.74 27.24 25.35 27.87L25.71 24.42L34.02 24.42ZM16.68 21.2C16.68 21.2 16.61 21.39 16.49 21.74C16.49 21.74 16.37 22.1 16.11 22.44C16.11 22.44 15.85 22.78 15.38 23.03C15.38 23.03 14.91 23.28 14.16 23.28L13.06 23.28L13.06 26.02L16.28 26.02L16.28 36.62L19.61 36.62L19.61 21.2L16.68 21.2Z" fill-rule="evenodd"  fill="#000000" >
</path>
</svg>
