<svg xmlns="http://www.w3.org/2000/svg" xmlns:xlink="http://www.w3.org/1999/xlink" width="48" height="48" viewBox="0 0 48 48" fill="none">
<path d="M36 4L12 4C7.58 4 4 7.58 4 12L4 36C4 40.42 7.58 44 12 44L36 44C40.42 44 44 40.42 44 36L44 12C44 7.58 40.42 4 36 4ZM40 12C40 9.79 38.21 8 36 8L12 8C9.79 8 8 9.79 8 12L8 13.95L40 14L40 12ZM12 40L36 40C38.21 40 40 38.21 40 36L40 18L8 17.95L8 36C8 38.21 9.79 40 12 40ZM18.29 27.95C18.29 27.95 17.67 28.26 16.88 28.57C16.88 28.57 16.09 28.89 15.26 29.28C15.26 29.28 14.43 29.66 13.64 30.16C13.64 30.16 12.85 30.65 12.23 31.37C12.23 31.37 11.61 32.08 11.23 33.02C11.23 33.02 10.85 33.97 10.85 35.24L10.85 36.59L23.27 36.59L23.27 33.59L14.88 33.57C14.88 33.57 14.88 33.14 15.24 32.83C15.24 32.83 15.6 32.53 16.2 32.27C16.2 32.27 16.79 32 17.55 31.75C17.55 31.75 18.3 31.5 19.09 31.17C19.09 31.17 19.87 30.83 20.62 30.4C20.62 30.4 21.38 29.97 21.97 29.36C21.97 29.36 22.57 28.75 22.93 27.92C22.93 27.92 23.29 27.09 23.29 25.96C23.29 25.96 23.29 24.86 22.89 23.91C22.89 23.91 22.5 22.97 21.71 22.27C21.71 22.27 20.93 21.58 19.76 21.19C19.76 21.19 18.59 20.79 17.04 20.79C17.04 20.79 15.82 20.79 14.7 21.1C14.7 21.1 13.59 21.42 12.74 22.08C12.74 22.08 11.89 22.73 11.4 23.73C11.4 23.73 10.9 24.73 10.9 26.1L14.65 26.06C14.65 26.06 14.65 25.54 14.85 25.19C14.85 25.19 15.04 24.84 15.38 24.61C15.38 24.61 15.71 24.39 16.15 24.29C16.15 24.29 16.59 24.19 17.06 24.19C17.06 24.19 17.85 24.19 18.36 24.36C18.36 24.36 18.86 24.53 19.15 24.83C19.15 24.83 19.44 25.13 19.55 25.52C19.55 25.52 19.67 25.92 19.67 26.39C19.67 26.39 19.67 26.89 19.29 27.26C19.29 27.26 18.91 27.63 18.29 27.95ZM33.79 30.24C33.79 30.24 34.28 28.89 34.85 27.82C34.85 27.82 35.43 26.75 35.93 25.99C35.93 25.99 36.44 25.24 36.8 24.83C36.8 24.83 37.16 24.43 37.21 24.43L37.21 21.17L25.73 21.17L25.73 24.43L33.92 24.43C33.92 24.43 33.65 24.43 33.16 24.86C33.16 24.86 32.68 25.29 32.09 26.08C32.09 26.08 31.51 26.87 30.89 27.98C30.89 27.98 30.28 29.09 29.79 30.43C29.79 30.43 29.29 31.77 28.99 33.31C28.99 33.31 28.68 34.85 28.7 36.52L32.66 36.52C32.66 36.52 32.66 34.76 32.98 33.17C32.98 33.17 33.31 31.59 33.79 30.24Z" fill-rule="evenodd"  fill="#000000" >
</path>
</svg>
