<svg xmlns="http://www.w3.org/2000/svg" xmlns:xlink="http://www.w3.org/1999/xlink" width="48" height="48" viewBox="0 0 48 48" fill="none">
<path d="M36 4L12 4C7.58 4 4 7.58 4 12L4 36C4 40.42 7.58 44 12 44L36 44C40.42 44 44 40.42 44 36L44 12C44 7.58 40.42 4 36 4ZM40 12C40 9.79 38.21 8 36 8L12 8C9.79 8 8 9.79 8 12L8 13.95L40 14L40 12ZM12 40L36 40C38.21 40 40 38.21 40 36L40 18L8 17.95L8 36C8 38.21 9.79 40 12 40ZM19.53 35.23C19.53 35.23 20.45 36.11 21.68 36.47C21.68 36.47 22.92 36.83 24.32 36.83C24.32 36.83 25.74 36.83 26.92 36.45C26.92 36.45 28.1 36.06 28.94 35.35C28.94 35.35 29.77 34.64 30.23 33.64C30.23 33.64 30.69 32.64 30.69 31.42C30.69 31.42 30.69 30.41 30.4 29.48C30.4 29.48 30.1 28.55 29.41 27.85C29.41 27.85 28.71 27.15 27.6 26.73C27.6 26.73 26.48 26.3 24.84 26.3C24.84 26.3 23.49 26.3 22.5 26.86C22.5 26.86 21.51 27.42 21.17 28.43C21.17 28.43 21.17 27.02 21.39 26.07C21.39 26.07 21.6 25.12 22.01 24.53C22.01 24.53 22.41 23.95 23.02 23.69C23.02 23.69 23.62 23.44 24.39 23.44C24.39 23.44 25.02 23.44 25.48 23.54C25.48 23.54 25.94 23.64 26.26 23.85C26.26 23.85 26.59 24.05 26.8 24.38C26.8 24.38 27.02 24.7 27.18 25.17L30.17 25.17C30.17 25.17 30.04 24.14 29.59 23.32C29.59 23.32 29.14 22.49 28.41 21.9C28.41 21.9 27.67 21.32 26.65 20.99C26.65 20.99 25.63 20.67 24.36 20.67C24.36 20.67 23.62 20.67 22.83 20.85C22.83 20.85 22.03 21.03 21.28 21.44C21.28 21.44 20.52 21.84 19.86 22.5C19.86 22.5 19.19 23.15 18.68 24.1C18.68 24.1 18.16 25.04 17.87 26.31C17.87 26.31 17.57 27.58 17.57 29.2C17.57 29.2 17.57 31.42 18.09 32.88C18.09 32.88 18.61 34.35 19.53 35.23ZM22.06 33.25C22.48 33.61 23.05 33.81 23.05 33.81C23.62 34.01 24.27 34.01 24.27 34.01C25 34.01 25.61 33.81 25.61 33.81C26.21 33.61 26.64 33.25 26.64 33.25C27.07 32.89 27.32 32.4 27.32 32.4C27.56 31.9 27.56 31.31 27.56 31.31C27.56 30.57 27.32 30.04 27.32 30.04C27.07 29.51 26.64 29.18 26.64 29.18C26.21 28.84 25.61 28.68 25.61 28.68C25 28.52 24.27 28.52 24.27 28.52C23.62 28.52 23.05 28.68 23.05 28.68C22.48 28.84 22.07 29.18 22.07 29.18C21.66 29.51 21.41 30.04 21.41 30.04C21.17 30.57 21.17 31.31 21.17 31.31C21.17 31.9 21.4 32.4 21.4 32.4C21.64 32.89 22.06 33.25 22.06 33.25Z" fill-rule="evenodd"  fill="#000000" >
</path>
</svg>
