<svg xmlns="http://www.w3.org/2000/svg" xmlns:xlink="http://www.w3.org/1999/xlink" width="48" height="48" viewBox="0 0 48 48" fill="none">
<path d="M36 4L12 4C7.58 4 4 7.58 4 12L4 36C4 40.42 7.58 44 12 44L36 44C40.42 44 44 40.42 44 36L44 12C44 7.58 40.42 4 36 4ZM40 12C40 9.79 38.21 8 36 8L12 8C9.79 8 8 9.79 8 12L8 13.95L40 14L40 12ZM12 40L36 40C38.21 40 40 38.21 40 36L40 18L8 17.95L8 36C8 38.21 9.79 40 12 40ZM29.65 27.94C29.65 27.94 29.02 28.26 28.23 28.58C28.23 28.58 27.44 28.89 26.61 29.28C26.61 29.28 25.78 29.66 24.99 30.16C24.99 30.16 24.2 30.65 23.58 31.37C23.58 31.37 22.96 32.08 22.58 33.02C22.58 33.02 22.2 33.97 22.2 35.24L22.2 36.59L34.62 36.59L34.62 33.59L26.23 33.57C26.23 33.57 26.23 33.14 26.59 32.83C26.59 32.83 26.95 32.53 27.55 32.26C27.55 32.26 28.14 32 28.9 31.75C28.9 31.75 29.65 31.5 30.44 31.17C30.44 31.17 31.22 30.83 31.98 30.4C31.98 30.4 32.73 29.97 33.33 29.36C33.33 29.36 33.92 28.75 34.28 27.92C34.28 27.92 34.64 27.09 34.64 25.96C34.64 25.96 34.64 24.86 34.24 23.91C34.24 23.91 33.85 22.97 33.07 22.27C33.07 22.27 32.28 21.58 31.11 21.19C31.11 21.19 29.94 20.79 28.39 20.79C28.39 20.79 27.17 20.79 26.05 21.1C26.05 21.1 24.94 21.42 24.09 22.08C24.09 22.08 23.25 22.73 22.75 23.73C22.75 23.73 22.26 24.73 22.26 26.1L26 26.06C26 26.06 26 25.54 26.2 25.19C26.2 25.19 26.4 24.84 26.73 24.61C26.73 24.61 27.06 24.39 27.5 24.29C27.5 24.29 27.94 24.19 28.41 24.19C28.41 24.19 29.2 24.19 29.71 24.36C29.71 24.36 30.21 24.53 30.5 24.83C30.5 24.83 30.79 25.13 30.91 25.52C30.91 25.52 31.02 25.92 31.02 26.39C31.02 26.39 31.02 26.89 30.64 27.26C30.64 27.26 30.27 27.63 29.65 27.94ZM16.83 21.2C16.83 21.2 16.76 21.4 16.64 21.75C16.64 21.75 16.52 22.1 16.26 22.45C16.26 22.45 16 22.79 15.53 23.04C15.53 23.04 15.06 23.29 14.31 23.29L13.21 23.29L13.21 26.03L16.43 26.03L16.43 36.63L19.76 36.63L19.76 21.2L16.83 21.2Z" fill-rule="evenodd"  fill="#000000" >
</path>
</svg>
