<svg xmlns="http://www.w3.org/2000/svg" xmlns:xlink="http://www.w3.org/1999/xlink" width="48" height="48" viewBox="0 0 48 48" fill="none">
<path d="M13.91 5.42C13.89 5.36 13.87 5.3 13.85 5.23C13.82 5.17 13.79 5.11 13.76 5.06C13.73 5 13.7 4.94 13.66 4.89C13.63 4.83 13.59 4.78 13.55 4.73C13.5 4.68 13.46 4.63 13.41 4.59C13.37 4.54 13.32 4.5 13.27 4.45C13.22 4.41 13.17 4.37 13.11 4.34C13.06 4.3 13 4.27 12.94 4.24C12.88 4.21 12.83 4.18 12.77 4.15C12.7 4.13 12.64 4.11 12.58 4.09C12.52 4.07 12.45 4.05 12.39 4.04C12.33 4.03 12.26 4.02 12.2 4.01C12.13 4 12.07 4 12 4C11.88 4 11.76 4.01 11.65 4.03C11.53 4.05 11.42 4.08 11.31 4.12C11.2 4.17 11.09 4.22 10.99 4.28C10.88 4.34 10.79 4.4 10.7 4.48L3.7 10.48C3.59 10.58 3.49 10.68 3.4 10.8C3.32 10.91 3.24 11.03 3.18 11.16C3.12 11.3 3.08 11.43 3.05 11.57C3.02 11.71 3 11.86 3 12C3 12.07 3 12.13 3.01 12.2C3.02 12.26 3.03 12.33 3.04 12.39C3.05 12.45 3.07 12.52 3.09 12.58C3.11 12.64 3.13 12.7 3.15 12.77C3.18 12.83 3.21 12.88 3.24 12.94C3.27 13 3.3 13.06 3.34 13.11C3.37 13.17 3.41 13.22 3.45 13.27C3.5 13.32 3.54 13.37 3.59 13.41C3.63 13.46 3.68 13.5 3.73 13.55C3.78 13.59 3.83 13.63 3.89 13.66C3.94 13.7 4 13.73 4.06 13.76C4.11 13.79 4.17 13.82 4.23 13.85C4.3 13.87 4.36 13.89 4.42 13.91C4.48 13.93 4.55 13.95 4.61 13.96C4.67 13.97 4.74 13.98 4.8 13.99C4.87 14 4.93 14 5 14C5.12 14 5.24 13.99 5.35 13.97C5.47 13.95 5.58 13.92 5.69 13.88C5.8 13.83 5.91 13.78 6.01 13.72C6.12 13.66 6.21 13.6 6.3 13.52L13.3 7.52C13.41 7.42 13.51 7.32 13.6 7.2C13.68 7.09 13.76 6.97 13.82 6.84C13.88 6.7 13.92 6.57 13.95 6.43C13.98 6.29 14 6.14 14 6C14 5.93 14 5.87 13.99 5.8C13.98 5.74 13.97 5.67 13.96 5.61C13.95 5.55 13.93 5.48 13.91 5.42ZM34.01 5.8C34 5.87 34 5.93 34 6C34 6.14 34.02 6.29 34.05 6.43C34.08 6.57 34.12 6.7 34.18 6.84C34.24 6.97 34.32 7.09 34.4 7.2C34.49 7.32 34.59 7.42 34.7 7.52L41.7 13.52C41.79 13.6 41.88 13.66 41.99 13.72C42.09 13.78 42.2 13.83 42.31 13.88C42.42 13.92 42.53 13.95 42.65 13.97C42.76 13.99 42.88 14 43 14C43.07 14 43.13 14 43.2 13.99C43.26 13.98 43.33 13.97 43.39 13.96C43.45 13.95 43.52 13.93 43.58 13.91C43.64 13.89 43.7 13.87 43.77 13.85C43.83 13.82 43.89 13.79 43.94 13.76C44 13.73 44.06 13.7 44.11 13.66C44.17 13.63 44.22 13.59 44.27 13.55C44.32 13.5 44.37 13.46 44.41 13.41C44.46 13.37 44.5 13.32 44.55 13.27C44.59 13.22 44.63 13.17 44.66 13.11C44.7 13.06 44.73 13 44.76 12.94C44.79 12.88 44.82 12.83 44.85 12.77C44.87 12.7 44.89 12.64 44.91 12.58C44.93 12.52 44.95 12.45 44.96 12.39C44.97 12.33 44.98 12.26 44.99 12.2C45 12.13 45 12.07 45 12C45 11.86 44.98 11.71 44.95 11.57C44.92 11.43 44.88 11.3 44.82 11.16C44.76 11.03 44.68 10.91 44.6 10.8C44.51 10.68 44.41 10.58 44.3 10.48L37.3 4.48C37.21 4.4 37.12 4.34 37.01 4.28C36.91 4.22 36.8 4.17 36.69 4.12C36.58 4.08 36.47 4.05 36.35 4.03C36.24 4.01 36.12 4 36 4C35.93 4 35.87 4 35.8 4.01C35.74 4.02 35.67 4.03 35.61 4.04C35.55 4.05 35.48 4.07 35.42 4.09C35.36 4.11 35.3 4.13 35.23 4.15C35.17 4.18 35.12 4.21 35.06 4.24C35 4.27 34.94 4.3 34.89 4.34C34.83 4.37 34.78 4.41 34.73 4.45C34.68 4.5 34.63 4.54 34.59 4.59C34.54 4.63 34.5 4.68 34.45 4.73C34.41 4.78 34.37 4.83 34.34 4.89C34.3 4.94 34.27 5 34.24 5.06C34.21 5.11 34.18 5.17 34.15 5.23C34.13 5.3 34.11 5.36 34.09 5.42C34.07 5.48 34.05 5.55 34.04 5.61C34.03 5.67 34.02 5.74 34.01 5.8ZM10.56 12.56C8.81 14.32 7.46 16.33 6.49 18.6C5.5 20.96 5 23.42 5 26C5 28.58 5.5 31.04 6.49 33.4C7.46 35.67 8.81 37.68 10.56 39.44C12.32 41.19 14.33 42.54 16.6 43.51C18.96 44.5 21.42 45 24 45C26.58 45 29.04 44.5 31.4 43.51C33.67 42.54 35.68 41.19 37.44 39.44C39.19 37.68 40.54 35.67 41.51 33.4C42.5 31.04 43 28.58 43 26C43 23.42 42.5 20.96 41.51 18.6C40.54 16.33 39.19 14.32 37.44 12.56C35.68 10.81 33.67 9.46 31.4 8.49C29.04 7.5 26.58 7 24 7C21.42 7 18.96 7.5 16.6 8.49C14.33 9.46 12.32 10.81 10.56 12.56ZM9 26C9 28.04 9.39 29.98 10.18 31.84C10.94 33.63 12.01 35.22 13.39 36.61C14.78 37.99 16.37 39.06 18.16 39.82C20.02 40.61 21.96 41 24 41C26.04 41 27.98 40.61 29.84 39.82C31.63 39.06 33.22 37.99 34.61 36.61C35.99 35.22 37.06 33.63 37.82 31.84C38.61 29.98 39 28.04 39 26C39 23.96 38.61 22.02 37.82 20.16C37.06 18.37 35.99 16.78 34.61 15.39C33.22 14.01 31.63 12.94 29.84 12.18C27.98 11.39 26.04 11 24 11C21.96 11 20.02 11.39 18.16 12.18C16.37 12.94 14.78 14.01 13.39 15.39C12.01 16.78 10.94 18.37 10.18 20.16C9.39 22.02 9 23.96 9 26ZM25.96 15.61C25.95 15.55 25.93 15.48 25.91 15.42C25.9 15.36 25.87 15.3 25.85 15.23C25.82 15.17 25.8 15.11 25.76 15.06C25.73 15 25.7 14.94 25.66 14.89C25.63 14.83 25.59 14.78 25.55 14.73C25.51 14.68 25.46 14.63 25.41 14.59C25.37 14.54 25.32 14.5 25.27 14.45C25.22 14.41 25.17 14.37 25.11 14.34C25.06 14.3 25 14.27 24.94 14.24C24.89 14.21 24.83 14.18 24.77 14.15C24.71 14.13 24.64 14.11 24.58 14.09C24.52 14.07 24.46 14.05 24.39 14.04C24.33 14.03 24.26 14.02 24.2 14.01C24.13 14 24.07 14 24 14C23.94 14 23.87 14 23.8 14.01C23.74 14.02 23.67 14.03 23.61 14.04C23.55 14.05 23.48 14.07 23.42 14.09L23.24 14.15C23.17 14.18 23.12 14.21 23.06 14.24C23 14.27 22.94 14.3 22.89 14.34C22.84 14.37 22.78 14.41 22.73 14.45C22.68 14.5 22.63 14.54 22.59 14.59C22.54 14.63 22.5 14.68 22.45 14.73C22.41 14.78 22.37 14.83 22.34 14.89C22.3 14.94 22.27 15 22.24 15.06C22.21 15.11 22.18 15.17 22.15 15.23C22.13 15.3 22.11 15.36 22.09 15.42C22.07 15.48 22.05 15.55 22.04 15.61C22.03 15.67 22.02 15.74 22.01 15.8C22 15.87 22 15.93 22 16L22 27.77C22 28.07 22.06 28.35 22.17 28.62C22.28 28.9 22.44 29.14 22.65 29.35C22.86 29.56 23.1 29.72 23.38 29.83C23.65 29.94 23.93 30 24.23 30C24.7 30 25.15 29.9 25.56 29.69L30.85 27.04C30.93 27 31.02 26.96 31.1 26.9C31.18 26.85 31.25 26.79 31.32 26.73C31.39 26.67 31.46 26.6 31.52 26.53C31.58 26.46 31.64 26.38 31.69 26.3C31.74 26.22 31.78 26.14 31.82 26.05C31.86 25.97 31.89 25.88 31.92 25.79C31.95 25.7 31.97 25.61 31.98 25.51C31.99 25.42 32 25.33 32 25.23C32 25.17 32 25.1 31.99 25.03C31.98 24.97 31.97 24.9 31.96 24.84C31.95 24.78 31.93 24.71 31.91 24.65L31.85 24.47C31.82 24.4 31.79 24.35 31.76 24.29C31.73 24.23 31.7 24.17 31.66 24.12C31.63 24.07 31.59 24.01 31.55 23.96C31.5 23.91 31.46 23.86 31.41 23.82C31.37 23.77 31.32 23.73 31.27 23.68C31.22 23.64 31.17 23.6 31.11 23.57C31.06 23.53 31 23.5 30.94 23.47C30.89 23.44 30.83 23.41 30.77 23.38C30.7 23.36 30.64 23.34 30.58 23.32C30.52 23.3 30.45 23.28 30.39 23.27C30.33 23.26 30.26 23.25 30.2 23.24C30.13 23.23 30.07 23.23 30 23.23C29.68 23.23 29.39 23.3 29.1 23.44L26 25L26 16C26 15.93 26 15.87 25.99 15.8C25.98 15.74 25.98 15.67 25.96 15.61Z" fill-rule="evenodd"  fill="#000000" >
</path>
</svg>
