<svg xmlns="http://www.w3.org/2000/svg" xmlns:xlink="http://www.w3.org/1999/xlink" width="48" height="48" viewBox="0 0 48 48" fill="none">
<path d="M39.66 30.61C40.55 28.51 41 26.31 41 24C41 21.69 40.55 19.49 39.66 17.39C38.8 15.35 37.59 13.55 36.02 11.98C34.45 10.41 32.65 9.2 30.61 8.34C28.51 7.45 26.31 7 24 7C21.69 7 19.49 7.45 17.39 8.34C15.35 9.2 13.55 10.41 11.98 11.98C10.41 13.55 9.2 15.35 8.34 17.39C7.45 19.49 7 21.69 7 24C7 26.31 7.45 28.51 8.34 30.61C9.2 32.65 10.41 34.45 11.98 36.02C13.55 37.59 15.35 38.8 17.39 39.66C19.49 40.55 21.69 41 24 41C26.31 41 28.51 40.55 30.61 39.66C32.65 38.8 34.45 37.59 36.02 36.02C37.59 34.45 38.8 32.65 39.66 30.61ZM25.11 11.34C25 11.26 24.89 11.2 24.77 11.15C24.65 11.1 24.52 11.06 24.39 11.04C24.26 11.01 24.13 11 24 11C23.87 11 23.74 11.01 23.61 11.04C23.48 11.06 23.36 11.1 23.24 11.15C23.11 11.2 23 11.26 22.89 11.34C22.78 11.41 22.68 11.49 22.59 11.59C22.49 11.68 22.41 11.78 22.34 11.89C22.27 12 22.2 12.11 22.15 12.23C22.1 12.36 22.06 12.48 22.04 12.61C22.01 12.74 22 12.87 22 13L22 25.75C22 26.28 22.17 26.76 22.51 27.18L22.65 27.35L22.82 27.49C23.24 27.83 23.72 28 24.25 28L24.26 28C24.73 28 25.18 27.89 25.6 27.68L31.39 24.79C31.45 24.76 31.51 24.73 31.57 24.69C31.62 24.66 31.67 24.62 31.73 24.58C31.78 24.54 31.83 24.5 31.88 24.45C31.92 24.41 31.97 24.36 32.01 24.31L32.13 24.16C32.17 24.1 32.21 24.05 32.24 23.99C32.27 23.93 32.3 23.88 32.33 23.82C32.35 23.76 32.38 23.69 32.4 23.63C32.42 23.57 32.44 23.51 32.45 23.44C32.46 23.38 32.48 23.32 32.48 23.25C32.49 23.19 32.5 23.12 32.5 23.05C32.5 22.99 32.5 22.92 32.49 22.86C32.49 22.79 32.48 22.73 32.47 22.66C32.46 22.6 32.45 22.53 32.43 22.47L32.37 22.29C32.34 22.22 32.32 22.16 32.29 22.11C32.23 21.99 32.16 21.88 32.08 21.77C32 21.67 31.91 21.58 31.81 21.49C31.71 21.4 31.6 21.33 31.49 21.26C31.38 21.2 31.26 21.14 31.13 21.1C31.01 21.06 30.88 21.03 30.75 21.02C30.62 21 30.49 21 30.36 21C30.23 21.01 30.1 21.04 29.97 21.07C29.85 21.11 29.72 21.15 29.61 21.21L26 23.01L26 13C26 12.87 25.99 12.74 25.96 12.61C25.94 12.48 25.9 12.36 25.85 12.23C25.8 12.11 25.74 12 25.66 11.89C25.59 11.78 25.51 11.68 25.42 11.59C25.32 11.49 25.22 11.41 25.11 11.34ZM9.15 38.85C11.09 40.79 13.31 42.29 15.83 43.35C18.43 44.45 21.15 45 24 45C26.85 45 29.57 44.45 32.17 43.35C34.69 42.29 36.91 40.79 38.85 38.85C40.79 36.91 42.29 34.69 43.35 32.17C44.45 29.57 45 26.85 45 24C45 21.15 44.45 18.43 43.35 15.83C42.29 13.31 40.79 11.09 38.85 9.15C36.91 7.21 34.69 5.71 32.17 4.65C29.57 3.55 26.85 3 24 3C21.15 3 18.43 3.55 15.83 4.65C13.31 5.71 11.09 7.21 9.15 9.15C7.21 11.09 5.71 13.31 4.65 15.83C3.55 18.43 3 21.15 3 24C3 26.85 3.55 29.57 4.65 32.17C5.71 34.69 7.21 36.91 9.15 38.85Z" fill-rule="evenodd"  fill="#000000" >
</path>
</svg>
