<svg xmlns="http://www.w3.org/2000/svg" xmlns:xlink="http://www.w3.org/1999/xlink" width="48" height="48" viewBox="0 0 48 48" fill="none">
<path d="M21 27.5C21 20.04 27.04 14 34.5 14C38.74 14 42.53 15.95 45 19.01L45 11C45 6.58 41.42 3 37 3L11 3C6.58 3 3 6.58 3 11L3 27C3 31.42 6.58 35 11 35L23.27 35C21.84 32.86 21 30.28 21 27.5ZM22 17C23.1 17 24 16.1 24 15C24 13.9 23.1 13 22 13L12 13C10.9 13 10 13.9 10 15C10 16.1 10.9 17 12 17L22 17ZM25 28C25 30.8 26.15 33.32 28 35.14L28 43.23C28 45.56 30.54 47 32.54 45.81L35 44.33L37.46 45.81C39.47 47 42 45.56 42 43.23L42 35.14C43.85 33.32 45 30.8 45 28C45 22.48 40.52 18 35 18C29.48 18 25 22.48 25 28ZM17.5 25C18.6 25 19.5 24.1 19.5 23C19.5 21.9 18.6 21 17.5 21L12 21C10.9 21 10 21.9 10 23C10 24.1 10.9 25 12 25L17.5 25ZM34.48 44.03C34.48 44.02 34.47 44.02 34.46 44.02L34.48 44.03ZM35.52 44.03C35.51 44.03 35.5 44.03 35.5 44.04L35.52 44.03Z" fill-rule="evenodd"  fill="#000000" >
</path>
</svg>
