<svg xmlns="http://www.w3.org/2000/svg" xmlns:xlink="http://www.w3.org/1999/xlink" width="48" height="48" viewBox="0 0 48 48" fill="none">
<path d="M43.9012 22L34.9709 22C34.8008 16.2463 33.886 11.2489 32.2264 7.00775C32.0175 6.47397 31.8021 5.96688 31.5802 5.48647C38.2791 8.23215 43.1574 14.5079 43.9012 22ZM43.9012 26L34.9709 26C34.8008 31.7537 33.886 36.7511 32.2264 40.9923C32.0175 41.526 31.8021 42.0331 31.5802 42.5135C38.2791 39.7678 43.1574 33.4921 43.9012 26ZM26.0814 43.893C25.3973 43.9637 24.7029 44 24 44C23.2971 44 22.6027 43.9637 21.9186 43.893C21.0892 42.9912 20.2825 41.5384 19.4985 39.5347C18.0179 35.7511 17.1954 31.2395 17.0309 26L30.9691 26C30.8045 31.2395 29.982 35.7511 28.5015 39.5347C27.7174 41.5384 26.9107 42.9912 26.0814 43.893ZM16.4197 42.5135C9.72085 39.7678 4.84258 33.492 4.09873 26L13.0291 26C13.1991 31.7537 14.114 36.7511 15.7736 40.9923C15.9824 41.526 16.1977 42.0331 16.4197 42.5135ZM4.09873 22L13.0291 22C13.1991 16.2463 14.114 11.2489 15.7736 7.00774C15.9824 6.47397 16.1978 5.96689 16.4197 5.48649C9.72086 8.23218 4.84258 14.508 4.09873 22ZM21.9186 4.107C21.0892 5.0088 20.2825 6.46158 19.4985 8.46534C18.0179 12.2489 17.1954 16.7605 17.0309 22L30.9691 22C30.8045 16.7605 29.982 12.2489 28.5015 8.46534C27.7174 6.46159 26.9107 5.00881 26.0814 4.107C25.3973 4.03626 24.7029 4 24 4C23.2971 4 22.6027 4.03626 21.9186 4.107Z" fill-rule="evenodd"  fill="#000000" >
</path>
</svg>
