<svg xmlns="http://www.w3.org/2000/svg" xmlns:xlink="http://www.w3.org/1999/xlink" width="48" height="48" viewBox="0 0 48 48" fill="none">
<path d="M14 12L14 14.72L11.53 15.83C10.99 16.07 10.51 16.38 10.07 16.76C9.64 17.13 9.27 17.56 8.96 18.04C8.65 18.52 8.41 19.03 8.25 19.58C8.08 20.13 8 20.7 8 21.29L8 28.99C8 31.89 8.73 34.53 10.2 36.92C11.37 38.84 12.99 40.54 15.05 42.02C16.56 43.1 18.24 44.02 20.11 44.79C21.23 45.26 22.28 45.62 23.26 45.87C23.75 46 24.25 46 24.74 45.87C25.72 45.62 26.77 45.26 27.89 44.79C29.76 44.02 31.44 43.1 32.95 42.02C35.01 40.54 36.63 38.84 37.8 36.92C39.27 34.53 40 31.89 40 28.99L40 21.29C40 20.7 39.92 20.13 39.75 19.58C39.59 19.03 39.35 18.52 39.04 18.04C38.73 17.56 38.36 17.13 37.93 16.76C37.49 16.38 37.01 16.07 36.48 15.83L34 14.71L34 12C34 10.64 33.74 9.35 33.21 8.11C32.71 6.91 31.99 5.85 31.07 4.93C30.15 4.01 29.09 3.29 27.89 2.79C26.65 2.26 25.36 2 24 2C22.64 2 21.35 2.26 20.11 2.79C18.91 3.29 17.85 4.01 16.93 4.93C16.01 5.85 15.29 6.91 14.79 8.11C14.26 9.35 14 10.64 14 12ZM24.77 23.15C24.7 23.13 24.64 23.11 24.58 23.09C24.52 23.07 24.45 23.05 24.39 23.04C24.33 23.03 24.26 23.02 24.2 23.01C24.13 23 24.07 23 24 23C23.93 23 23.87 23 23.8 23.01C23.74 23.02 23.67 23.03 23.61 23.04C23.55 23.05 23.48 23.07 23.42 23.09C23.36 23.11 23.3 23.13 23.23 23.15C23.17 23.18 23.11 23.21 23.06 23.24C23 23.27 22.94 23.3 22.89 23.34C22.83 23.37 22.78 23.41 22.73 23.45C22.68 23.5 22.63 23.54 22.59 23.59C22.54 23.63 22.5 23.68 22.45 23.73C22.41 23.78 22.37 23.83 22.34 23.89C22.3 23.94 22.27 24 22.24 24.06C22.21 24.11 22.18 24.17 22.15 24.23C22.13 24.3 22.11 24.36 22.09 24.42C22.07 24.48 22.05 24.55 22.04 24.61C22.03 24.67 22.02 24.74 22.01 24.8C22 24.87 22 24.93 22 25L22 32C22 32.07 22 32.13 22.01 32.2C22.02 32.26 22.03 32.33 22.04 32.39C22.05 32.45 22.07 32.52 22.09 32.58C22.11 32.64 22.13 32.7 22.15 32.77C22.18 32.83 22.21 32.89 22.24 32.94C22.27 33 22.3 33.06 22.34 33.11C22.37 33.17 22.41 33.22 22.45 33.27C22.5 33.32 22.54 33.37 22.59 33.41C22.63 33.46 22.68 33.5 22.73 33.55C22.78 33.59 22.83 33.63 22.89 33.66C22.94 33.7 23 33.73 23.06 33.76C23.11 33.79 23.17 33.82 23.23 33.85C23.3 33.87 23.36 33.89 23.42 33.91C23.48 33.93 23.55 33.95 23.61 33.96C23.67 33.97 23.74 33.98 23.8 33.99C23.87 34 23.93 34 24 34C24.07 34 24.13 34 24.2 33.99C24.26 33.98 24.33 33.97 24.39 33.96C24.45 33.95 24.52 33.93 24.58 33.91C24.64 33.89 24.7 33.87 24.77 33.85C24.83 33.82 24.89 33.79 24.94 33.76C25 33.73 25.06 33.7 25.11 33.66C25.17 33.63 25.22 33.59 25.27 33.55C25.32 33.5 25.37 33.46 25.41 33.41C25.46 33.37 25.5 33.32 25.55 33.27C25.59 33.22 25.63 33.17 25.66 33.11C25.7 33.06 25.73 33 25.76 32.94C25.79 32.89 25.82 32.83 25.85 32.77C25.87 32.7 25.89 32.64 25.91 32.58C25.93 32.52 25.95 32.45 25.96 32.39C25.97 32.33 25.98 32.26 25.99 32.2C26 32.13 26 32.07 26 32L26 25C26 24.93 26 24.87 25.99 24.8C25.98 24.74 25.97 24.67 25.96 24.61C25.95 24.55 25.93 24.48 25.91 24.42C25.89 24.36 25.87 24.3 25.85 24.23C25.82 24.17 25.79 24.11 25.76 24.06C25.73 24 25.7 23.94 25.66 23.89C25.63 23.83 25.59 23.78 25.55 23.73C25.5 23.68 25.46 23.63 25.41 23.59C25.37 23.54 25.32 23.5 25.27 23.45C25.22 23.41 25.17 23.37 25.11 23.34C25.06 23.3 25 23.27 24.94 23.24C24.89 23.21 24.83 23.18 24.77 23.15ZM30 12C30 11.18 29.84 10.41 29.53 9.66C29.23 8.95 28.8 8.31 28.24 7.76C27.69 7.2 27.05 6.77 26.34 6.47C25.59 6.16 24.82 6 24 6C23.18 6 22.41 6.16 21.66 6.47C20.95 6.77 20.31 7.2 19.76 7.76C19.2 8.31 18.77 8.95 18.47 9.66C18.16 10.41 18 11.18 18 12L18 12.95L21.59 11.37C22.36 11.03 23.16 10.86 24 10.86C24.84 10.86 25.64 11.03 26.4 11.37L30 12.95L30 12Z" fill-rule="evenodd"  fill="#000000" >
</path>
</svg>
