<svg xmlns="http://www.w3.org/2000/svg" xmlns:xlink="http://www.w3.org/1999/xlink" width="48" height="48" viewBox="0 0 48 48" fill="none">
<path d="M30 14.95L30 12C30 11.18 29.84 10.41 29.53 9.66C29.23 8.95 28.8 8.31 28.24 7.76C27.69 7.2 27.05 6.77 26.34 6.47C25.59 6.16 24.82 6 24 6C23.18 6 22.41 6.16 21.66 6.47C20.95 6.77 20.31 7.2 19.76 7.76C19.2 8.31 18.77 8.95 18.47 9.66C18.16 10.41 18 11.18 18 12L18 14.95L21.59 13.37C22.36 13.03 23.16 12.86 24 12.86C24.84 12.86 25.64 13.03 26.4 13.37L30 14.95ZM8.96 20.04C8.65 20.52 8.41 21.03 8.25 21.58C8.08 22.13 8 22.7 8 23.29L8 28.99C8 31.89 8.73 34.53 10.2 36.92C11.37 38.84 12.99 40.54 15.05 42.02C16.56 43.1 18.24 44.02 20.11 44.79C21.23 45.26 22.28 45.62 23.26 45.87C23.75 46 24.25 46 24.74 45.87C25.72 45.62 26.77 45.26 27.89 44.79C29.76 44.02 31.44 43.1 32.95 42.02C35.01 40.54 36.63 38.84 37.8 36.92C39.27 34.53 40 31.89 40 28.99L40 23.29C40 22.7 39.92 22.13 39.75 21.58C39.59 21.03 39.35 20.52 39.04 20.04C38.73 19.56 38.36 19.13 37.93 18.76C37.49 18.38 37.01 18.07 36.48 17.83L36.47 17.83L34 16.72L34 12C34 10.64 33.74 9.35 33.21 8.11C32.71 6.91 31.99 5.85 31.07 4.93C30.15 4.01 29.09 3.29 27.89 2.79C26.65 2.26 25.36 2 24 2C22.64 2 21.35 2.26 20.11 2.79C18.91 3.29 17.85 4.01 16.93 4.93C16.01 5.85 15.29 6.91 14.79 8.11C14.26 9.35 14 10.64 14 12L14 16.72L11.53 17.83C10.99 18.07 10.51 18.38 10.07 18.76C9.64 19.13 9.27 19.56 8.96 20.04Z" fill-rule="evenodd"  fill="#000000" >
</path>
</svg>
