<svg xmlns="http://www.w3.org/2000/svg" xmlns:xlink="http://www.w3.org/1999/xlink" width="48" height="48" viewBox="0 0 48 48" fill="none">
<path d="M24 4C18.4771 4 14 8.47715 14 14C14 19.5228 18.4771 24 24 24C29.5228 24 34 19.5228 34 14C34 8.47715 29.5228 4 24 4ZM28.2596 25.6528C26.7532 26.0365 26 27.0055 26 28.56L26 35.3918C26 38.6003 27.2392 41.1117 29.7176 42.9259C31.0843 43.9263 32.635 44.5916 34.3698 44.9217C34.7893 45.0015 35.2076 45.0019 35.6249 44.9228C37.3582 44.5941 38.9085 43.93 40.276 42.9307C42.7587 41.1163 44 38.6033 44 35.3918L44 28.56C44 27.0055 43.2468 26.0365 41.7404 25.6528L35.9353 24.1743C35.3118 24.0155 34.6882 24.0155 34.0647 24.1743L28.2596 25.6528ZM4 34L4 38C4 41.3137 6.68629 44 10 44L23 44C24.5974 44 25.5502 42.2198 24.6641 40.8906C24.3045 40.3511 23.9848 39.4342 23.7049 38.1398C23.0984 35.3345 23.1824 32.0919 23.9571 28.412C23.9575 28.4102 23.9579 28.4084 23.9582 28.4065C24.0869 27.7869 23.9159 27.187 23.7977 27.0413C23.7752 27.0136 23.7546 27.0023 23.7384 27.0105C23.3975 26.4137 22.7557 26 22 26L12 26C7.58172 26 4 29.5817 4 34Z" fill-rule="evenodd"  fill="#000000" >
</path>
</svg>
