<svg xmlns="http://www.w3.org/2000/svg" xmlns:xlink="http://www.w3.org/1999/xlink" width="48" height="48" viewBox="0 0 48 48" fill="none">
<path d="M6.34 10.1277C6.11 10.7677 6 11.4277 6 12.1077L6 25.9877C6 29.6877 6.88 32.9477 8.63 35.7577C10.04 38.0377 11.99 39.9577 14.46 41.5277C16.23 42.6477 18.2 43.5377 20.36 44.1977C21.55 44.5677 22.63 44.8177 23.61 44.9677C23.87 45.0077 24.13 45.0077 24.39 44.9677C25.37 44.8177 26.45 44.5677 27.64 44.1977C29.8 43.5377 31.77 42.6477 33.54 41.5277C36.01 39.9577 37.96 38.0377 39.37 35.7577C41.12 32.9477 42 29.6877 42 25.9877L42 12.1077C42 11.4277 41.89 10.7677 41.66 10.1277C41.45 9.50768 41.13 8.93768 40.73 8.41768C40.32 7.89768 39.84 7.45768 39.29 7.09768C38.73 6.72768 38.12 6.45768 37.46 6.28768L25.45 3.29768C24.48 3.05768 23.51 3.05768 22.54 3.29768L10.55 6.28768C9.89 6.45768 9.27 6.72768 8.71 7.09768C8.16 7.45768 7.68 7.89768 7.27 8.41768C6.87 8.93768 6.55 9.50768 6.34 10.1277Z"   fill="#000000" >
</path>
</svg>
