<svg xmlns="http://www.w3.org/2000/svg" xmlns:xlink="http://www.w3.org/1999/xlink" width="48" height="48" viewBox="0 0 48 48" fill="none">
<path d="M32.72 31.5877C32.82 31.5077 32.92 31.4177 33.01 31.3177C33.09 31.2177 33.17 31.1077 33.23 30.9977C33.3 30.8777 33.35 30.7677 33.39 30.6377C33.44 30.5177 33.47 30.3877 33.48 30.2577C33.5 30.1277 33.5 29.9977 33.5 29.8677C33.49 29.7377 33.47 29.6077 33.43 29.4777C33.4 29.3477 33.35 29.2277 33.29 29.1077C33.23 28.9977 33.17 28.8777 33.09 28.7777C33.01 28.6777 32.92 28.5777 32.82 28.4877L29.94 25.9677C30.1 25.6977 30.24 25.4077 30.37 25.1077C30.79 24.1177 31 23.0777 31 21.9977C31 20.9177 30.79 19.8777 30.37 18.8877C29.96 17.9277 29.39 17.0777 28.66 16.3377C27.92 15.6077 27.07 15.0377 26.11 14.6277C25.12 14.2077 24.08 13.9977 23 13.9977C21.92 13.9977 20.88 14.2077 19.89 14.6277C18.93 15.0377 18.08 15.6077 17.34 16.3377C16.61 17.0777 16.04 17.9277 15.63 18.8877C15.21 19.8777 15 20.9177 15 21.9977C15 23.0777 15.21 24.1177 15.63 25.1077C16.04 26.0677 16.61 26.9177 17.34 27.6577C18.08 28.3877 18.93 28.9577 19.89 29.3677C20.88 29.7877 21.92 29.9977 23 29.9977C24.08 29.9977 25.12 29.7877 26.11 29.3677C26.47 29.2177 26.81 29.0477 27.14 28.8477L30.18 31.5077C30.28 31.5877 30.39 31.6677 30.5 31.7277C30.62 31.7977 30.73 31.8477 30.86 31.8877C30.98 31.9377 31.11 31.9677 31.24 31.9777C31.37 31.9977 31.5 31.9977 31.63 31.9977C31.76 31.9877 31.89 31.9677 32.02 31.9277C32.15 31.8977 32.27 31.8477 32.39 31.7877C32.5 31.7277 32.62 31.6677 32.72 31.5877ZM37.46 6.28768L25.45 3.29768C24.48 3.05768 23.51 3.05768 22.54 3.29768L10.55 6.28768C9.89 6.45768 9.27 6.72768 8.71 7.09768C8.16 7.45768 7.68 7.89768 7.27 8.41768C6.87 8.93768 6.55 9.50768 6.34 10.1277C6.11 10.7677 6 11.4277 6 12.1077L6 25.9877C6 29.6877 6.88 32.9477 8.63 35.7577C10.04 38.0377 11.99 39.9577 14.46 41.5277C16.23 42.6477 18.2 43.5377 20.36 44.1977C21.55 44.5677 22.63 44.8177 23.61 44.9677C23.87 45.0077 24.13 45.0077 24.39 44.9677C25.37 44.8177 26.45 44.5677 27.64 44.1977C29.8 43.5377 31.77 42.6477 33.54 41.5277C36.01 39.9577 37.96 38.0377 39.37 35.7577C41.12 32.9477 42 29.6877 42 25.9877L42 12.1077C42 11.4277 41.89 10.7677 41.66 10.1277C41.45 9.50768 41.13 8.93768 40.73 8.41768C40.32 7.89768 39.84 7.45768 39.29 7.09768C38.73 6.72768 38.12 6.45768 37.46 6.28768ZM24.55 18.3077C24.06 18.0977 23.54 17.9977 23 17.9977C22.46 17.9977 21.94 18.0977 21.45 18.3077C20.97 18.5177 20.54 18.7977 20.17 19.1677C19.8 19.5377 19.52 19.9677 19.31 20.4477C19.1 20.9377 19 21.4577 19 21.9977C19 22.5377 19.1 23.0577 19.31 23.5477C19.52 24.0277 19.8 24.4577 20.17 24.8277C20.54 25.1977 20.97 25.4777 21.45 25.6877C21.94 25.8977 22.46 25.9977 23 25.9977C23.54 25.9977 24.06 25.8977 24.55 25.6877C25.03 25.4777 25.46 25.1977 25.83 24.8277C26.2 24.4577 26.48 24.0277 26.69 23.5477C26.9 23.0577 27 22.5377 27 21.9977C27 21.4577 26.9 20.9377 26.69 20.4477C26.48 19.9677 26.2 19.5377 25.83 19.1677C25.46 18.7977 25.03 18.5177 24.55 18.3077Z" fill-rule="evenodd"  fill="#000000" >
</path>
</svg>
