<svg xmlns="http://www.w3.org/2000/svg" xmlns:xlink="http://www.w3.org/1999/xlink" width="48" height="48" viewBox="0 0 48 48" fill="none">
<path d="M12 44C7.58172 44 4 40.4183 4 36L4 12C4 7.58172 7.58172 4 12 4L36 4C40.4183 4 44 7.58172 44 12L44 36C44 40.4183 40.4183 44 36 44L12 44ZM11.5 14C12.8807 14 14 12.8807 14 11.5C14 10.1193 12.8807 9 11.5 9C10.1193 9 9 10.1193 9 11.5C9 12.8807 10.1193 14 11.5 14ZM39 11.5C39 12.8807 37.8807 14 36.5 14C35.1193 14 34 12.8807 34 11.5C34 10.1193 35.1193 9 36.5 9C37.8807 9 39 10.1193 39 11.5ZM25.9999 22.2898C28.8915 23.1503 31.0001 25.8289 31.0001 29C31.0001 32.866 27.8661 36 24.0001 36C20.1341 36 17.0001 32.866 17.0001 29C17.0001 25.8291 19.1085 23.1506 21.9999 22.2899L21.9999 14C21.9999 12.8954 22.8953 12 23.9999 12C25.1045 12 25.9999 12.8954 25.9999 14L25.9999 22.2898ZM24.0001 26C25.6569 26 27.0001 27.3432 27.0001 29C27.0001 30.6568 25.6569 32 24.0001 32C22.3433 32 21.0001 30.6568 21.0001 29C21.0001 27.3432 22.3433 26 24.0001 26ZM11.5 39C12.8807 39 14 37.8807 14 36.5C14 35.1193 12.8807 34 11.5 34C10.1193 34 9 35.1193 9 36.5C9 37.8807 10.1193 39 11.5 39ZM39 36.5C39 37.8807 37.8807 39 36.5 39C35.1193 39 34 37.8807 34 36.5C34 35.1193 35.1193 34 36.5 34C37.8807 34 39 35.1193 39 36.5Z" fill-rule="evenodd"  fill="#000000" >
</path>
</svg>
