<svg xmlns="http://www.w3.org/2000/svg" xmlns:xlink="http://www.w3.org/1999/xlink" width="48" height="48" viewBox="0 0 48 48" fill="none">
<path d="M22.39 33.7023C22.9 33.9223 23.44 34.0323 24 34.0323C24.56 34.0323 25.09 33.9223 25.6 33.7023C26.12 33.4723 26.57 33.1523 26.95 32.7323C26.96 32.7323 26.96 32.7223 26.96 32.7223L33.37 25.7123C33.69 25.3623 33.94 24.9723 34.12 24.5423C34.29 24.1223 34.39 23.6823 34.41 23.2223C34.43 22.7723 34.38 22.3223 34.25 21.8923C34.12 21.4423 33.92 21.0323 33.65 20.6523L30.71 16.6423C30.33 16.1223 29.86 15.7223 29.29 15.4323C28.72 15.1423 28.12 15.0023 27.48 15.0023L20.52 15.0023C19.88 15.0023 19.28 15.1423 18.71 15.4323C18.14 15.7223 17.66 16.1223 17.28 16.6423L14.35 20.6523C14.08 21.0323 13.87 21.4423 13.74 21.8923C13.61 22.3223 13.56 22.7723 13.59 23.2223C13.61 23.6823 13.71 24.1223 13.88 24.5423C14.06 24.9723 14.3 25.3623 14.62 25.7123L21.04 32.7323C21.42 33.1523 21.87 33.4723 22.39 33.7023ZM24 30.0323L30.42 23.0223L30.41 23.0123L27.48 19.0023L20.51 19.0023L17.58 23.0123L17.58 23.0223L23.99 30.0323L24 30.0323ZM27.66 44.1723C29.83 43.4823 31.8 42.5423 33.58 41.3623C36.05 39.7123 37.99 37.6823 39.4 35.2823C41.13 32.3223 42 28.8923 42 24.9923L42 12.1123C41.99 11.5623 41.87 11.0323 41.66 10.5323C41.45 10.0423 41.17 9.60227 40.8 9.21227C40.43 8.83227 40.01 8.52227 39.53 8.29226C39.05 8.06227 38.54 7.92227 38.01 7.88227C35.98 7.65227 33.66 7.05227 31.05 6.07227C30.06 5.70227 29.06 5.29227 28.06 4.83227C27.29 4.48227 26.58 4.14227 25.94 3.80227C25.32 3.47227 24.66 3.31227 23.96 3.32227C23.25 3.33227 22.59 3.51227 21.98 3.85227C20.46 4.68227 18.86 5.41227 17.17 6.06227C14.6 7.03227 12.21 7.64227 10 7.88227C9.46 7.92227 8.95 8.06227 8.46 8.29226C7.98 8.53227 7.56 8.84227 7.19 9.22227C6.83 9.61227 6.54 10.0523 6.34 10.5423C6.13 11.0423 6.01 11.5723 6 12.1223L6 24.9923C6 28.8923 6.87 32.3223 8.6 35.2823C10.01 37.6823 11.95 39.7123 14.42 41.3623C16.2 42.5423 18.17 43.4823 20.34 44.1723C21.06 44.4023 21.78 44.5923 22.48 44.7523C22.9 44.8423 23.28 44.9123 23.61 44.9623C23.87 45.0123 24.13 45.0123 24.39 44.9623C24.72 44.9123 25.1 44.8423 25.52 44.7523C26.22 44.5923 26.94 44.4023 27.66 44.1723Z" fill-rule="evenodd"  fill="#000000" >
</path>
</svg>
