<svg xmlns="http://www.w3.org/2000/svg" xmlns:xlink="http://www.w3.org/1999/xlink" width="48" height="48" viewBox="0 0 48 48" fill="none">
<path d="M29.71 7.99C29.76 7.99 29.81 7.98 29.87 7.97C29.89 7.96 29.9 7.96 29.92 7.96C29.96 7.95 30 7.94 30.04 7.93C30.04 7.92 30.05 7.92 30.06 7.92L30.07 7.92C30.11 7.91 30.15 7.89 30.19 7.88L30.24 7.86C30.3 7.83 30.36 7.81 30.42 7.78C30.48 7.75 30.53 7.71 30.59 7.68C30.64 7.64 30.7 7.6 30.75 7.56C30.79 7.53 30.83 7.49 30.87 7.46C30.89 7.44 30.9 7.42 30.92 7.4C30.96 7.37 31 7.33 31.03 7.29C31.11 7.19 31.19 7.08 31.25 6.97C31.26 6.94 31.28 6.91 31.29 6.88C31.3 6.87 31.3 6.87 31.31 6.86C31.35 6.77 31.38 6.69 31.41 6.61C31.45 6.48 31.47 6.35 31.49 6.22C31.49 6.2 31.49 6.17 31.49 6.15C31.5 6.1 31.5 6.05 31.5 6C31.5 5.79 31.47 5.59 31.41 5.4C31.38 5.29 31.33 5.18 31.28 5.08C31.22 4.97 31.15 4.86 31.06 4.75C30.98 4.65 30.89 4.56 30.79 4.47L30.79 4.47C30.76 4.45 30.72 4.42 30.69 4.39C29.89 3.74 28.96 3.19 27.9 2.78C26.61 2.26 25.31 2 24 2C22.64 2 21.35 2.26 20.11 2.79C18.91 3.29 17.85 4.01 16.93 4.93C16.01 5.85 15.29 6.91 14.79 8.11C14.26 9.35 14 10.64 14 12L14 16.72L11.53 17.83C10.99 18.07 10.51 18.38 10.07 18.76C9.64 19.13 9.27 19.56 8.96 20.04C8.65 20.52 8.41 21.03 8.25 21.58C8.08 22.13 8 22.7 8 23.29L8 28.99C8 31.89 8.73 34.53 10.2 36.92C11.37 38.84 12.99 40.54 15.05 42.02C16.56 43.1 18.24 44.02 20.11 44.79C21.23 45.26 22.28 45.62 23.26 45.87C23.75 46 24.25 46 24.74 45.87C25.72 45.62 26.77 45.26 27.89 44.79C29.76 44.02 31.44 43.1 32.95 42.02C35.01 40.54 36.63 38.84 37.8 36.92C39.27 34.53 40 31.89 40 28.99L40 23.29C40 22.7 39.92 22.13 39.75 21.58C39.59 21.03 39.35 20.52 39.04 20.04C38.73 19.56 38.36 19.13 37.93 18.76C37.49 18.38 37.01 18.07 36.48 17.83L36.47 17.83L32.82 16.18L26.4 13.37C25.64 13.03 24.84 12.86 24 12.86C23.16 12.86 22.36 13.03 21.59 13.37L18 14.95L18 12C18 11.18 18.16 10.41 18.47 9.66C18.77 8.95 19.2 8.31 19.76 7.76C20.31 7.2 20.95 6.77 21.66 6.47C22.41 6.16 23.18 6 24 6C24.8 6 25.6 6.16 26.42 6.49C27.12 6.77 27.72 7.12 28.21 7.53L28.22 7.53C28.23 7.54 28.25 7.56 28.26 7.57C28.3 7.6 28.33 7.62 28.37 7.65C28.41 7.67 28.44 7.69 28.47 7.71C28.5 7.73 28.54 7.75 28.57 7.77C28.62 7.8 28.66 7.82 28.71 7.84C28.77 7.87 28.84 7.89 28.9 7.91C28.96 7.93 29.02 7.94 29.09 7.96C29.12 7.96 29.15 7.97 29.18 7.97C29.19 7.98 29.2 7.98 29.21 7.98C29.24 7.98 29.26 7.99 29.28 7.99C29.35 8 29.41 8 29.48 8L29.5 8L29.5 8C29.51 8 29.51 8 29.52 8C29.55 8 29.57 8 29.6 8C29.64 8 29.67 7.99 29.71 7.99Z"   fill="#000000" >
</path>
</svg>
