<svg xmlns="http://www.w3.org/2000/svg" xmlns:xlink="http://www.w3.org/1999/xlink" width="48" height="48" viewBox="0 0 48 48" fill="none">
<path d="M10.5499 6.28869C7.51664 7.04417 6 8.98489 6 12.1109L6 25.9933C6 32.3922 8.52671 37.3735 13.5801 40.9372C16.4043 42.9289 19.592 44.2456 23.1431 44.8874C23.7134 44.9905 24.2812 44.9911 24.8467 44.8893C28.3944 44.2502 31.581 42.9359 34.4067 40.9465C39.4689 37.3825 42 32.3981 42 25.9933L42 12.1109C42 8.98489 40.4834 7.04417 37.4501 6.28869L25.4501 3.29996C24.4834 3.05919 23.5166 3.05919 22.5499 3.29996L10.5499 6.28869ZM24 37C31.1797 37 37 31.1797 37 24C37 16.8203 31.1797 11 24 11C16.8203 11 11 16.8203 11 24C11 31.1797 16.8203 37 24 37ZM24 15L24.0404 15.1683C24.3602 15.5402 24.663 16.1192 24.9488 16.9053C25.4761 18.3554 25.8051 20.0534 25.9356 21.9993L22.0644 21.9993C22.1949 20.0534 22.5239 18.3554 23.0512 16.9053C23.337 16.1192 23.6398 15.5402 23.9596 15.1683L24 15ZM29.9431 21.9993L32.7768 21.9993C32.2637 19.7387 30.8996 17.8014 29.0391 16.5419C29.5238 18.1686 29.8252 19.9878 29.9431 21.9993ZM18.9609 16.5419C18.4762 18.1686 18.1748 19.9878 18.0569 21.9993L15.2232 21.9993C15.7363 19.7387 17.1004 17.8014 18.9609 16.5419ZM18.0569 26.0009L15.2232 26.0009C15.7364 28.2614 17.1005 30.1987 18.9609 31.4581C18.4762 29.8314 18.1749 28.0124 18.0569 26.0009ZM23.0512 31.0947C22.5239 29.6446 22.1949 27.9467 22.0644 26.0009L25.9356 26.0009C25.8051 27.9467 25.4761 29.6446 24.9488 31.0947C24.663 31.8808 24.3602 32.4598 24.0404 32.8317L24 33L23.9596 32.8317C23.6398 32.4598 23.337 31.8808 23.0512 31.0947ZM32.7768 26.0009L29.9431 26.0009C29.8251 28.0124 29.5238 29.8314 29.0391 31.4581C30.8995 30.1987 32.2636 28.2614 32.7768 26.0009Z" fill-rule="evenodd"  fill="#000000" >
</path>
</svg>
