<svg xmlns="http://www.w3.org/2000/svg" xmlns:xlink="http://www.w3.org/1999/xlink" width="48" height="48" viewBox="0 0 48 48" fill="none">
<path d="M5 34.76C5 40.97 10.03 46 16.24 46C22.45 46 27.49 40.97 27.49 34.76L27.49 10.7C27.62 10.87 27.75 11.05 27.89 11.23C31.39 15.74 35.76 18 41 18C42.1 18 43 17.1 43 16C43 14.9 42.1 14 41 14C37.07 14 33.75 12.26 31.05 8.77C29.64 6.96 28.66 5.17 28.1 3.39C27.96 2.98 27.71 2.63 27.61 2.56C27.61 2.56 27.6 2.56 27.6 2.55C27.59 2.55 27.58 2.54 27.57 2.55C27.21 2.21 26.72 2 26.19 2C24.7 2 23.49 3.22 23.49 4.71L23.49 26.16C21.53 24.51 19 23.52 16.24 23.52C10.03 23.52 5 28.55 5 34.76Z" fill-rule="evenodd"  fill="#000000" >
</path>
</svg>
