<svg xmlns="http://www.w3.org/2000/svg" xmlns:xlink="http://www.w3.org/1999/xlink" width="48" height="48" viewBox="0 0 48 48" fill="none">
<path d="M44 36L44 12C44 7.58 40.42 4 36 4L12 4C7.58 4 4 7.58 4 12L4 30.94C6.74 28.31 10.08 27 14 27C16.33 27 18.85 28.16 21.55 30.48C23.51 32.16 25.16 33 26.5 33C29.41 33 31.34 32.32 32.29 30.96C32.65 30.38 33.28 30 34 30C35.1 30 36 30.9 36 32C36 32.41 35.88 32.79 35.66 33.11L35.67 33.11C33.94 35.7 30.88 37 26.5 37C24.18 37 21.66 35.84 18.95 33.52C16.99 31.84 15.34 31 14 31C10.77 31 8.08 32.23 5.95 34.69C5.07 35.7 4.46 36.6 4.12 37.39C4.78 41.15 8.05 44 12 44L36 44C40.42 44 44 40.42 44 36ZM19 25C22.31 25 25 22.31 25 19C25 15.69 22.31 13 19 13C15.69 13 13 15.69 13 19C13 22.31 15.69 25 19 25ZM19 17C17.9 17 17 17.9 17 19C17 20.1 17.9 21 19 21C20.1 21 21 20.1 21 19C21 17.9 20.1 17 19 17Z" fill-rule="evenodd"  fill="#000000" >
</path>
</svg>
