<svg xmlns="http://www.w3.org/2000/svg" xmlns:xlink="http://www.w3.org/1999/xlink" width="48" height="48" viewBox="0 0 48 48" fill="none">
<path d="M6.72021 11.6705L9.11244 6.49C10.185 4.16623 12.0032 3 14.5624 3L33.4425 3C36.0018 3 37.82 4.16623 38.8925 6.49L41.2942 11.6911C40.552 10.6407 39.3386 10 38.0278 10L9.97201 10C8.6698 10 7.46366 10.6323 6.72021 11.6705Z" fill-rule="evenodd"  fill="#000000" >
</path>
<path d="M44 18C44.0001 16.87 43.202 15.74 42.5077 14.9707C41.8991 14.2965 41.0052 14 40.0969 14L7.50006 14C6.241 14 5.01525 14.5849 4.52152 15.7432C4.2364 16.412 3.99999 17.206 4 18L4 39C4 42.3137 6.68629 45 10 45L38 45C41.3137 45 44 42.3137 44 39L44 18Z" fill-rule="evenodd"  fill="#000000" >
</path>
<path d="M26 25.0068L26 25C26 23.8954 25.1046 23 24 23C22.8954 23 22 23.8954 22 25L22 25L22 30L20.2414 30C18.3705 30 17.4336 32.262 18.7565 33.5849L22.1144 36.9428C23.3715 38.1999 24.6285 38.1999 25.8856 36.9428L29.2435 33.5849C30.5664 32.262 29.6295 30 27.7586 30L26 30L26 25.0068Z" fill-rule="evenodd"  fill="#FFFFFF" >
</path>
</svg>
