<svg xmlns="http://www.w3.org/2000/svg" xmlns:xlink="http://www.w3.org/1999/xlink" width="48" height="48" viewBox="0 0 48 48" fill="none">
<path d="M23.5 3C21.2909 3 19.5 4.79086 19.5 7L19.5 21L16.4 21C14.2662 21 12.3763 21.7627 10.7303 23.288C9.22175 24.686 8.23467 26.4223 7.76907 28.497C7.29443 30.6119 6.56305 32.7414 5.57491 34.8853C4.57519 37.0542 4.67956 39.2491 5.88802 41.4698C7.16873 43.8233 9.03908 45 11.4991 45L26.0814 45C27.5973 43.7555 28.8997 41.9301 29.9886 39.524C31.2435 36.7511 31.871 34.0769 31.8713 31.5013L31.8713 31.5C31.8714 30.3954 32.7668 29.5 33.8713 29.5C34.9759 29.5 35.8713 30.3954 35.8713 31.5C35.8712 34.6513 35.125 37.8758 33.6327 41.1733C32.9855 42.6034 32.2632 43.8789 31.4659 45L35.1288 45C37.9001 45 40.1339 43.6861 41.8304 41.0584C43.2768 38.8179 44 36.1318 44.0001 33C44.0002 29.359 43.7565 26.8203 43.2691 25.3838C42.2776 22.4613 40.1879 21 37.0001 21L31.5 21L31.5 7C31.5 4.79086 29.7091 3 27.5 3L23.5 3ZM27.5 21L27.5 7L23.5 7L23.5 21L27.5 21Z" fill-rule="evenodd"  fill="#000000" >
</path>
</svg>
