<svg xmlns="http://www.w3.org/2000/svg" xmlns:xlink="http://www.w3.org/1999/xlink" width="48" height="48" viewBox="0 0 48 48" fill="none">
<path d="M40.95 20.47C40.76 18.89 40.35 17.35 39.72 15.86C38.86 13.83 37.64 12.03 36.07 10.46C34.5 8.9 32.69 7.69 30.65 6.83C28.54 5.94 26.32 5.5 24 5.5C21.68 5.5 19.46 5.94 17.34 6.83C15.3 7.69 13.48 8.9 11.91 10.46C10.33 12.03 9.1 13.82 8.24 15.85C7.6 17.34 7.19 18.87 7.01 20.46L5 20.46C4.46 20.46 3.94 20.57 3.44 20.78C2.96 20.98 2.54 21.27 2.17 21.63C1.81 22 1.52 22.42 1.32 22.9C1.11 23.4 1 23.92 1 24.46L1 28.38C1 28.92 1.11 29.44 1.32 29.94C1.52 30.42 1.81 30.84 2.17 31.21C2.54 31.57 2.96 31.86 3.44 32.06C3.94 32.27 4.46 32.38 5 32.38L6.89 32.38C7.43 32.38 7.95 32.27 8.45 32.06C8.93 31.86 9.35 31.57 9.72 31.21C10.08 30.84 10.37 30.42 10.57 29.94C10.78 29.44 10.89 28.92 10.89 28.38L10.89 22.45C10.89 20.7 11.23 19.02 11.92 17.42C12.58 15.87 13.51 14.5 14.72 13.3C15.93 12.11 17.32 11.18 18.89 10.52C20.51 9.84 22.22 9.5 24 9.5C25.78 9.5 27.48 9.84 29.1 10.52C30.66 11.18 32.05 12.1 33.25 13.3C34.45 14.5 35.38 15.87 36.04 17.42C36.72 19.02 37.06 20.7 37.06 22.46L37.06 31.48C37.06 33.91 36.65 35.69 35.82 36.81C35.43 37.34 34.92 37.74 34.29 38.01C33.55 38.34 32.62 38.5 31.5 38.5L24 38.5C22.9 38.5 22 39.4 22 40.5C22 41.6 22.9 42.5 24 42.5L31.5 42.5C33.17 42.5 34.64 42.23 35.9 41.68C37.17 41.12 38.22 40.29 39.03 39.19C39.76 38.2 40.29 37.01 40.63 35.61C40.79 34.95 40.9 34.24 40.97 33.48L42.98 33.49C43.52 33.49 44.02 33.39 44.51 33.19C45 32.99 45.43 32.71 45.81 32.34C46.19 31.95 46.49 31.51 46.7 31.02C46.9 30.53 47 30.02 47 29.49L47 24.49C47 23.95 46.9 23.43 46.69 22.94C46.48 22.46 46.2 22.04 45.83 21.67C45.47 21.3 45.05 21.02 44.57 20.81C44.08 20.6 43.57 20.49 43.03 20.49L40.95 20.47Z"   fill="#000000" >
</path>
</svg>
