<svg xmlns="http://www.w3.org/2000/svg" xmlns:xlink="http://www.w3.org/1999/xlink" width="48" height="48" viewBox="0 0 48 48" fill="none">
<path d="M24 45C35.598 45 45 35.598 45 24C45 12.402 35.598 3 24 3C12.402 3 3 12.402 3 24C3 35.598 12.402 45 24 45ZM15.9521 16L15.9521 22C15.9521 23.1046 16.8689 24 17.9999 24C19.1309 24 20.0477 23.1046 20.0477 22L20.0477 16C20.0477 14.8954 19.1309 14 17.9999 14C16.8689 14 15.9521 14.8954 15.9521 16ZM27.9512 22L27.9512 16C27.9512 14.8954 28.868 14 29.999 14C31.13 14 32.0468 14.8954 32.0468 16L32.0468 22C32.0468 23.1046 31.13 24 29.999 24C28.868 24 27.9512 23.1046 27.9512 22ZM15.0857 30.9142C14.7238 30.5522 14.5 30.0523 14.5 29.5C14.5 28.3954 15.3954 27.5 16.5 27.5C17.0523 27.5 17.5523 27.7239 17.9143 28.0858C19.5236 29.6953 21.5521 30.5 24 30.5C26.4479 30.5 28.4764 29.6953 30.0857 28.0858C30.4477 27.7239 30.9477 27.5 31.5 27.5C32.6046 27.5 33.5 28.3954 33.5 29.5C33.5 30.0523 33.2762 30.5522 32.9143 30.9142C30.5239 33.3047 27.5525 34.5 24 34.5C20.4475 34.5 17.4761 33.3047 15.0857 30.9142Z" fill-rule="evenodd"  fill="#000000" >
</path>
</svg>
