<svg xmlns="http://www.w3.org/2000/svg" xmlns:xlink="http://www.w3.org/1999/xlink" width="48" height="48" viewBox="0 0 48 48" fill="none">
<path d="M22.93 40.84C23.58 40.42 24.42 40.42 25.07 40.83L30.92 44.58C35.71 47.64 42 44.19 42 38.51L42 9C42 5.69 39.31 3 36 3L12 3C8.69 3 6 5.69 6 9L6 38.51C6 44.2 12.28 47.64 17.08 44.58L22.93 40.84ZM16 20C14.9 20 14 20.9 14 22C14 23.1 14.9 24 16 24L22 24L22 30C22 31.1 22.9 32 24 32C25.1 32 26 31.1 26 30L26 24L32 24C33.1 24 34 23.1 34 22C34 20.9 33.1 20 32 20L26 20L26 14C26 12.9 25.1 12 24 12C22.9 12 22 12.9 22 14L22 20L16 20Z" fill-rule="evenodd"  fill="#000000" >
</path>
</svg>
