<svg xmlns="http://www.w3.org/2000/svg" xmlns:xlink="http://www.w3.org/1999/xlink" width="48" height="48" viewBox="0 0 48 48" fill="none">
<path d="M15 9C15 5.68629 12.3137 3 9 3C5.68629 3 3 5.68629 3 9L3 39C3 42.3137 5.68629 45 9 45C12.3137 45 15 42.3137 15 39L15 9ZM29 9C29 5.68629 26.3137 3 23 3C19.6863 3 17 5.68629 17 9L17 39C17 42.3137 19.6863 45 23 45C26.3137 45 29 42.3137 29 39L29 9ZM35.6903 7.91629C32.3948 8.26257 30.004 11.2148 30.3503 14.5102L32.9528 39.277C33.299 42.5725 36.2513 44.9633 39.5467 44.617C42.8421 44.2707 45.2329 41.3185 44.8866 38.023L42.2842 13.2562C41.9379 9.96079 38.9857 7.57001 35.6903 7.91629Z" fill-rule="evenodd"  fill="#000000" >
</path>
</svg>
