<svg xmlns="http://www.w3.org/2000/svg" xmlns:xlink="http://www.w3.org/1999/xlink" width="48" height="48" viewBox="0 0 48 48" fill="none">
<path d="M23 10C23 9.19 22.84 8.41 22.53 7.66C22.22 6.95 21.8 6.31 21.24 5.76C20.69 5.2 20.05 4.78 19.34 4.47C18.59 4.16 17.81 4 17 4L12 4C10.92 4 9.88 4.21 8.89 4.63C7.93 5.04 7.08 5.61 6.34 6.34C5.61 7.08 5.04 7.93 4.63 8.89C4.21 9.88 4 10.92 4 12L4 17C4 17.81 4.16 18.59 4.47 19.34C4.78 20.05 5.2 20.69 5.76 21.24C6.31 21.8 6.95 22.22 7.66 22.53C8.41 22.84 9.19 23 10 23L17 23C17.81 23 18.59 22.84 19.34 22.53C20.05 22.22 20.69 21.8 21.24 21.24C21.8 20.69 22.22 20.05 22.53 19.34C22.84 18.59 23 17.81 23 17L23 10ZM44 12C44 10.92 43.79 9.88 43.37 8.89C42.96 7.93 42.39 7.08 41.66 6.34C40.92 5.61 40.07 5.04 39.11 4.63C38.12 4.21 37.08 4 36 4L31 4C30.19 4 29.41 4.16 28.66 4.47C27.95 4.78 27.31 5.2 26.76 5.76C26.2 6.31 25.78 6.95 25.47 7.66C25.16 8.41 25 9.19 25 10L25 17C25 17.81 25.16 18.59 25.47 19.34C25.78 20.05 26.2 20.69 26.76 21.24C27.31 21.8 27.95 22.22 28.66 22.53C29.41 22.84 30.19 23 31 23L38 23C38.81 23 39.59 22.84 40.34 22.53C41.05 22.22 41.69 21.8 42.24 21.24C42.8 20.69 43.22 20.05 43.53 19.34C43.84 18.59 44 17.81 44 17L44 12ZM23 31C23 30.19 22.84 29.41 22.53 28.66C22.22 27.95 21.8 27.31 21.24 26.76C20.69 26.2 20.05 25.78 19.34 25.47C18.59 25.16 17.81 25 17 25L10 25C9.19 25 8.41 25.16 7.66 25.47C6.95 25.78 6.31 26.2 5.76 26.76C5.2 27.31 4.78 27.95 4.47 28.66C4.16 29.41 4 30.19 4 31L4 36C4 37.08 4.21 38.12 4.63 39.11C5.04 40.07 5.61 40.92 6.34 41.66C7.08 42.39 7.93 42.96 8.89 43.37C9.88 43.79 10.92 44 12 44L17 44C17.81 44 18.59 43.84 19.34 43.53C20.05 43.22 20.69 42.8 21.24 42.24C21.8 41.69 22.22 41.05 22.53 40.34C22.84 39.59 23 38.81 23 38L23 31ZM44 31C44 30.19 43.84 29.41 43.53 28.66C43.22 27.95 42.8 27.31 42.24 26.76C41.69 26.2 41.05 25.78 40.34 25.47C39.59 25.16 38.81 25 38 25L31 25C30.19 25 29.41 25.16 28.66 25.47C27.95 25.78 27.31 26.2 26.76 26.76C26.2 27.31 25.78 27.95 25.47 28.66C25.16 29.41 25 30.19 25 31L25 38C25 38.81 25.16 39.59 25.47 40.34C25.78 41.05 26.2 41.69 26.76 42.24C27.31 42.8 27.95 43.22 28.66 43.53C29.41 43.84 30.19 44 31 44L36 44C37.08 44 38.12 43.79 39.11 43.37C40.07 42.96 40.92 42.39 41.66 41.66C42.39 40.92 42.96 40.07 43.37 39.11C43.79 38.12 44 37.08 44 36L44 31Z" fill-rule="evenodd"  fill="#000000" >
</path>
</svg>
