<svg xmlns="http://www.w3.org/2000/svg" xmlns:xlink="http://www.w3.org/1999/xlink" width="48" height="48" viewBox="0 0 48 48" fill="none">
<path d="M45 24C45 35.598 35.598 45 24 45C12.402 45 3 35.598 3 24C3 12.402 12.402 3 24 3C35.598 3 45 12.402 45 24ZM8.5 23.5C8.5 21.567 10.067 20 12 20C13.933 20 15.5 21.567 15.5 23.5C15.5 25.433 13.933 27 12 27C10.067 27 8.5 25.433 8.5 23.5ZM20.5 23.5C20.5 21.567 22.067 20 24 20C25.933 20 27.5 21.567 27.5 23.5C27.5 25.433 25.933 27 24 27C22.067 27 20.5 25.433 20.5 23.5ZM36 20C34.067 20 32.5 21.567 32.5 23.5C32.5 25.433 34.067 27 36 27C37.933 27 39.5 25.433 39.5 23.5C39.5 21.567 37.933 20 36 20Z" fill-rule="evenodd"  fill="#000000" >
</path>
</svg>
