<svg xmlns="http://www.w3.org/2000/svg" xmlns:xlink="http://www.w3.org/1999/xlink" width="48" height="48" viewBox="0 0 48 48" fill="none">
<path d="M12 16L12 12C12 6.47715 16.4771 2 22 2L26 2C31.5228 2 36 6.47715 36 12L36 16L38 16C41.3137 16 44 18.6863 44 22L44 38.8391C44 42.1528 41.3137 44.8391 38 44.8391L10 44.8391C6.68629 44.8391 4 42.1528 4 38.8391L4 22C4 18.6863 6.68629 16 10 16L12 16ZM32 16L16 16L16 12C16 8.68629 18.6863 6 22 6L26 6C29.3137 6 32 8.68629 32 12L32 16ZM22 26L22 34C22 35.1046 22.8954 36 24 36C25.1046 36 26 35.1046 26 34L26 26C26 24.8954 25.1046 24 24 24C22.8954 24 22 24.8954 22 26Z" fill-rule="evenodd"  fill="#000000" >
</path>
</svg>
