<svg xmlns="http://www.w3.org/2000/svg" xmlns:xlink="http://www.w3.org/1999/xlink" width="48" height="48" viewBox="0 0 48 48" fill="none">
<path d="M12 16L12 12C12 6.47715 16.4771 2 22 2L24 2C29.1551 2.00003 32.7267 3.65704 34.7149 6.97105L34.7136 6.97185C34.8953 7.27276 35 7.62474 35 8C35 9.1 34.1 10 33 10C32.2752 10 31.6372 9.60922 31.2863 9.02793L31.2848 9.02883C30.0734 7.00963 27.6451 6.00002 24 6L22 6C18.6863 6 16 8.68629 16 12L16 16L38 16C41.3137 16 44 18.6863 44 22L44 38.8391C44 42.1528 41.3137 44.8391 38 44.8391L10 44.8391C6.68629 44.8391 4 42.1528 4 38.8391L4 22C4 18.6863 6.68629 16 10 16L12 16ZM22 26L22 34C22 35.1046 22.8954 36 24 36C25.1046 36 26 35.1046 26 34L26 26C26 24.8954 25.1046 24 24 24C22.8954 24 22 24.8954 22 26Z" fill-rule="evenodd"  fill="#000000" >
</path>
</svg>
