<svg xmlns="http://www.w3.org/2000/svg" xmlns:xlink="http://www.w3.org/1999/xlink" width="48" height="48" viewBox="0 0 48 48" fill="none">
<path d="M16.45 41.96C15.79 42.61 15.03 43.11 14.18 43.47C13.32 43.82 12.43 44 11.5 44C10.57 44 9.68 43.82 8.82 43.47C7.97 43.11 7.21 42.61 6.54 41.95C5.89 41.29 5.39 40.53 5.03 39.68C4.68 38.82 4.5 37.93 4.5 37L4.5 11C4.5 10.07 4.68 9.18 5.03 8.32C5.39 7.47 5.89 6.71 6.55 6.04C7.21 5.39 7.97 4.89 8.82 4.53C9.68 4.18 10.57 4 11.5 4C12.43 4 13.32 4.18 14.18 4.53C15.03 4.89 15.79 5.39 16.46 6.05C17.11 6.71 17.61 7.47 17.97 8.32C18.32 9.18 18.5 10.07 18.5 11L18.5 37C18.5 37.93 18.32 38.82 17.97 39.68C17.61 40.53 17.11 41.29 16.45 41.96ZM42.97 39.68C42.61 40.53 42.11 41.29 41.45 41.96C40.79 42.61 40.03 43.11 39.18 43.47C38.32 43.82 37.43 44 36.5 44C35.57 44 34.68 43.82 33.82 43.47C32.97 43.11 32.21 42.61 31.54 41.95C30.89 41.29 30.39 40.53 30.03 39.68C29.68 38.82 29.5 37.93 29.5 37L29.5 11C29.5 10.07 29.68 9.18 30.03 8.32C30.39 7.47 30.89 6.71 31.55 6.04C32.21 5.39 32.97 4.89 33.82 4.53C34.68 4.18 35.57 4 36.5 4C37.43 4 38.32 4.18 39.18 4.53C40.03 4.89 40.79 5.39 41.46 6.05C42.11 6.71 42.61 7.47 42.97 8.32C43.32 9.18 43.5 10.07 43.5 11L43.5 37C43.5 37.93 43.32 38.82 42.97 39.68Z" fill-rule="evenodd"  fill="#000000" >
</path>
</svg>
