<svg xmlns="http://www.w3.org/2000/svg" xmlns:xlink="http://www.w3.org/1999/xlink" width="48" height="48" viewBox="0 0 48 48" fill="none">
<path d="M40.5858 20.4142L38.7601 18.5885L31.7277 26.5057L29.6473 40.3753C29.1602 43.6222 25.1848 44.932 22.8631 42.6103L15.5406 35.2878L7.41498 43.4135L7.41421 43.4142C7.05228 43.7761 6.55228 44 6 44C4.89543 44 4 43.1046 4 42C4 41.4477 4.22386 40.9477 4.58579 40.5858L12.7122 32.4594L5.38977 25.137C3.06813 22.8153 4.37786 18.8399 7.62484 18.3528L21.4944 16.2723L29.4116 9.24005L27.5858 7.41421C27.2239 7.05228 27 6.55228 27 6C27 4.89543 27.8954 4 29 4C29.5523 4 30.0523 4.22386 30.4142 4.58579L43.4132 17.5848L43.4142 17.5858C43.7761 17.9477 44 18.4477 44 19C44 20.1046 43.1046 21 42 21C41.4477 21 40.9477 20.7761 40.5858 20.4142Z" fill-rule="evenodd"  fill="#000000" >
</path>
</svg>
