<svg xmlns="http://www.w3.org/2000/svg" xmlns:xlink="http://www.w3.org/1999/xlink" width="48" height="48" viewBox="0 0 48 48" fill="none">
<path d="M41.93 19.9874C41.22 18.7574 40.24 17.7774 39 17.0674L18 4.94744C16.76 4.23744 15.42 3.87744 14 3.87744C12.57 3.87744 11.23 4.23744 10 4.94744C8.76 5.65744 7.78 6.63744 7.07 7.87744C6.36 9.11744 6 10.4474 6 11.8774L6 36.1174C6 37.5474 6.36 38.8774 7.07 40.1174C7.78 41.3574 8.76 42.3374 10 43.0574C11.23 43.7674 12.57 44.1274 14 44.1274C15.42 44.1274 16.76 43.7674 18 43.0574L39 30.9274C40.24 30.2174 41.22 29.2474 41.93 28.0074C42.65 26.7674 43.01 25.4374 43.01 23.9974C43.01 22.5674 42.65 21.2274 41.93 19.9874Z"   fill="#000000" >
</path>
</svg>
