<svg xmlns="http://www.w3.org/2000/svg" xmlns:xlink="http://www.w3.org/1999/xlink" width="48" height="48" viewBox="0 0 48 48" fill="none">
<path d="M32.0002 2C24.2682 2 18.0002 8.26802 18.0002 16C18.0002 16.9763 18.0986 17.9351 18.2956 18.8762L4.5859 32.5858C1.59571 35.576 1.59571 40.424 4.5859 43.4142C6.08142 44.9097 7.88616 45.6575 10.0001 45.6575C12.1141 45.6575 13.9188 44.9097 15.4144 43.4142L29.124 29.7046C30.0651 29.9015 31.0238 30 32.0002 30C39.7322 30 46.0002 23.732 46.0002 16C46.0002 13.7759 45.5029 11.6772 44.5085 9.70396C44.5072 9.70144 44.506 9.69892 44.5047 9.6964C44.1782 9.0551 43.5781 8.68628 43.3583 8.66205C43.3187 8.65768 43.2914 8.66452 43.2804 8.68297C42.5523 8.47351 41.7168 8.67635 41.176 9.33579L33.336 17.1758L33.3344 17.1758L30.8244 14.6658L30.8244 14.6642L38.665 6.82358L38.6666 6.82226C38.6688 6.82047 38.671 6.81868 38.6731 6.81688C39.2264 6.35803 39.4545 5.69234 39.4301 5.47292C39.4257 5.43334 39.4131 5.40828 39.3927 5.40158C39.4378 4.64571 39.0574 3.87527 38.2962 3.49165C36.3229 2.49722 34.2242 2 32.0002 2Z" fill-rule="evenodd"  fill="#000000" >
</path>
</svg>
