<svg xmlns="http://www.w3.org/2000/svg" xmlns:xlink="http://www.w3.org/1999/xlink" width="48" height="48" viewBox="0 0 48 48" fill="none">
<path d="M9.8873 22.9571C10.2773 23.5971 10.2673 24.3871 9.8973 25.0271L4.1273 34.6171C1.0673 39.7171 6.4773 45.6771 11.8573 43.1271L40.7573 29.4071C45.3273 27.2371 45.3173 20.7271 40.7373 18.5571L11.8473 4.86708C6.4873 2.32708 1.0873 8.27708 4.1373 13.3671L9.8873 22.9571ZM16.1673 25.9771L28.1673 25.9771C29.2673 25.9771 30.1673 25.0771 30.1673 23.9771C30.1673 22.8771 29.2673 21.9771 28.1673 21.9771L16.1673 21.9771C15.0673 21.9771 14.1673 22.8771 14.1673 23.9771C14.1673 25.0771 15.0673 25.9771 16.1673 25.9771Z" fill-rule="evenodd"  fill="#000000" >
</path>
</svg>
