<svg xmlns="http://www.w3.org/2000/svg" xmlns:xlink="http://www.w3.org/1999/xlink" width="48" height="48" viewBox="0 0 48 48" fill="none">
<path d="M28.61 22.0475C28.36 21.4575 28 20.9275 27.54 20.4675C27.08 19.9975 26.55 19.6475 25.95 19.3875C25.33 19.1275 24.68 18.9975 24 18.9975C23.32 18.9975 22.67 19.1275 22.05 19.3875C21.45 19.6475 20.92 19.9975 20.46 20.4675C20 20.9275 19.64 21.4575 19.39 22.0475C19.13 22.6675 19 23.3175 19 23.9975C19 24.6775 19.13 25.3275 19.39 25.9475C19.64 26.5475 20 27.0775 20.46 27.5375C20.92 27.9975 21.45 28.3575 22.05 28.6075C22.67 28.8675 23.32 28.9975 24 28.9975C24.68 28.9975 25.33 28.8675 25.95 28.6075C26.55 28.3575 27.08 27.9975 27.54 27.5375C28 27.0775 28.36 26.5475 28.61 25.9475C28.87 25.3275 29 24.6775 29 23.9975C29 23.3175 28.87 22.6675 28.61 22.0475ZM20 3.99749L8.67999 10.5375C7.43999 11.2575 6.46999 12.2275 5.75999 13.4575C5.03999 14.6975 4.67999 16.0375 4.67999 17.4575L4.67999 30.5375C4.67999 31.9675 5.03999 33.2975 5.75999 34.5375C6.46999 35.7775 7.43999 36.7475 8.67999 37.4575L20 44.0075C21.24 44.7175 22.57 45.0775 24 45.0775C25.43 45.0775 26.76 44.7175 28 43.9975L39.32 37.4575C40.56 36.7475 41.53 35.7775 42.24 34.5375C42.96 33.2975 43.32 31.9675 43.32 30.5375L43.32 17.4575C43.32 16.0375 42.96 14.6975 42.24 13.4575C41.53 12.2275 40.56 11.2475 39.32 10.5375L28 3.99749C26.76 3.28749 25.43 2.92749 24 2.92749C22.57 2.92749 21.24 3.28749 20 3.99749Z" fill-rule="evenodd"  fill="#000000" >
</path>
</svg>
