<svg xmlns="http://www.w3.org/2000/svg" xmlns:xlink="http://www.w3.org/1999/xlink" width="48" height="48" viewBox="0 0 48 48" fill="none">
<path d="M2 6C2 5.07248 2.63988 4.28716 3.5 4.06369L3.5 4L8.36039 4C10.5465 4 11.854 5.07185 12.2827 7.21554L12.6396 9L39.6971 9C43.6833 9 46.5613 12.8154 45.4662 16.6483L42.1664 28.1978C41.0612 32.0659 38.4971 34 34.4742 34L20.3505 34C18.4644 34 16.7879 33.4071 15.3211 32.2213C13.8543 31.0356 12.9233 29.5205 12.5281 27.6762L9.04439 11.4191L9.04152 11.4057L9.03884 11.3922L8.36039 8L3.5 8L3.5 7.93631C2.63988 7.71284 2 6.92752 2 6ZM14 45C16.7614 45 19 42.7614 19 40C19 37.2386 16.7614 35 14 35C11.2386 35 9 37.2386 9 40C9 42.7614 11.2386 45 14 45ZM41 45C43.7614 45 46 42.7614 46 40C46 37.2386 43.7614 35 41 35C38.2386 35 36 37.2386 36 40C36 42.7614 38.2386 45 41 45ZM14 39C14.5523 39 15 39.4477 15 40C15 40.5523 14.5523 41 14 41C13.4477 41 13 40.5523 13 40C13 39.4477 13.4477 39 14 39ZM41 39C41.5523 39 42 39.4477 42 40C42 40.5523 41.5523 41 41 41C40.4477 41 40 40.5523 40 40C40 39.4477 40.4477 39 41 39Z" fill-rule="evenodd"  fill="#000000" >
</path>
</svg>
