<svg xmlns="http://www.w3.org/2000/svg" xmlns:xlink="http://www.w3.org/1999/xlink" width="48" height="48" viewBox="0 0 48 48" fill="none">
<path d="M4 9C4 5.6863 6.68629 3 10 3L31.8711 3L31.8711 5L31.8714 16C31.8714 17.1046 32.7668 18 33.8714 18C34.976 18 35.8714 17.1046 35.8714 16L35.8711 5L35.8711 3L38 3C41.3137 3 44 5.6863 44 9L43.9999 21C43.9999 23.2091 43.2189 25.0948 41.6568 26.6569C40.0947 28.219 38.209 29 35.9999 29L31 29L31 41C31 43.2091 29.2091 45 27 45L21 45C18.7909 45 17 43.2091 17 41L17 29L12 29C7.58172 29 4 25.4183 4 21L4 9ZM21 29L21 41L27 41L27 29L21 29Z" fill-rule="evenodd"  fill="#000000" >
</path>
</svg>
