<svg xmlns="http://www.w3.org/2000/svg" xmlns:xlink="http://www.w3.org/1999/xlink" width="48" height="48" viewBox="0 0 48 48" fill="none">
<path d="M11.3418 12.5486L8.70179 12.5886C5.52179 12.6386 2.96179 15.2286 2.96179 18.4086L2.96179 29.6786C2.96179 32.8686 5.54179 35.4486 8.73179 35.4486L11.3418 35.4486C11.5918 35.4486 11.8218 35.5486 12.0018 35.7086L17.8018 40.9586C21.6418 44.4386 27.8118 41.7086 27.7918 36.5286L27.7918 11.4386C27.7918 6.25862 21.6518 3.53862 17.8118 7.01862L12.0118 12.2886C11.8218 12.4586 11.5918 12.5486 11.3418 12.5486ZM35.9418 14.1986C36.7418 14.6986 37.5718 15.4886 38.4318 16.5786C40.1418 18.7586 41.0018 21.2286 41.0018 23.9986C41.0018 26.7686 40.1418 29.2386 38.4318 31.4186C37.5818 32.4986 36.7618 33.2886 35.9718 33.7886C35.3918 34.1386 35.0018 34.7686 35.0018 35.4986C35.0018 36.5986 35.9018 37.4986 37.0018 37.4986C37.4018 37.4986 37.7818 37.3786 38.0918 37.1786C39.2818 36.4286 40.4418 35.3286 41.5718 33.8886C43.8618 30.9886 45.0018 27.6886 45.0018 23.9986C45.0018 20.3086 43.8618 17.0086 41.5718 14.1086C40.4518 12.6786 39.3018 11.5886 38.1218 10.8386C37.8018 10.6286 37.4218 10.4986 37.0018 10.4986C35.9018 10.4986 35.0018 11.3986 35.0018 12.4986C35.0018 13.2086 35.3818 13.8386 35.9418 14.1986ZM31.4318 27.3086C30.8718 27.6686 30.5018 28.2886 30.5018 28.9986C30.5018 30.0986 31.4018 30.9986 32.5018 30.9986C32.9118 30.9986 33.3018 30.8686 33.6218 30.6586C35.8718 29.1786 37.0018 26.9586 37.0018 23.9986C37.0018 21.0486 35.8818 18.8386 33.6418 17.3486C33.3218 17.1286 32.9218 16.9986 32.5018 16.9986C31.4018 16.9986 30.5018 17.8986 30.5018 18.9986C30.5018 19.6986 30.8618 20.3186 31.4118 20.6786C32.4718 21.3686 33.0018 22.4786 33.0018 23.9986C33.0018 25.5086 32.4818 26.6186 31.4318 27.3086Z" fill-rule="evenodd"  fill="#000000" >
</path>
</svg>
