<svg xmlns="http://www.w3.org/2000/svg" xmlns:xlink="http://www.w3.org/1999/xlink" width="48" height="48" viewBox="0 0 48 48" fill="none">
<path d="M23.6999 2.79004C20.8199 2.79004 18.0599 3.35004 15.4199 4.46004C12.8799 5.53004 10.6199 7.04004 8.65992 9.00004C6.68992 10.96 5.16992 13.2 4.09992 15.74C2.97992 18.37 2.41992 21.12 2.41992 24C2.41992 26.87 2.97992 29.63 4.09992 32.25C5.16992 34.79 6.68992 37.04 8.65992 38.99C10.6199 40.95 12.8799 42.46 15.4199 43.53C18.0599 44.64 20.8199 45.2 23.6999 45.2L36.9799 45.2C38.0299 45.2 38.9799 44.91 39.8299 44.32C40.6099 43.77 41.1999 43.06 41.5799 42.17C41.9599 41.28 42.0699 40.36 41.9299 39.42C41.7699 38.43 41.3499 37.57 40.6599 36.82C41.8399 35.28 42.7899 33.6 43.5099 31.78C44.4999 29.29 44.9899 26.7 44.9899 24C44.9899 21.12 44.4299 18.37 43.3099 15.74C42.2399 13.2 40.7099 10.96 38.7499 9.00004C36.7899 7.04004 34.5299 5.53004 31.9799 4.46004C29.3499 3.35004 26.5799 2.79004 23.6999 2.79004ZM23.6999 6.79004C21.3599 6.79004 19.1099 7.24004 16.9799 8.14004C14.9099 9.01004 13.0799 10.24 11.4799 11.83C9.88992 13.42 8.64992 15.25 7.77992 17.3C6.86992 19.43 6.41992 21.67 6.41992 24C6.41992 26.33 6.86992 28.56 7.77992 30.69C8.64992 32.75 9.88992 34.57 11.4799 36.16C13.0799 37.75 14.9099 38.98 16.9799 39.85C19.1099 40.75 21.3599 41.2 23.6999 41.2L36.9799 41.2C37.1999 41.2 37.3899 41.14 37.5499 41.03C37.6999 40.93 37.8199 40.78 37.8999 40.59C37.9799 40.41 37.9999 40.22 37.9699 40.04C37.9399 39.84 37.8499 39.67 37.7099 39.51L35.2399 36.94L36.4299 35.64C36.4699 35.59 36.5199 35.54 36.5599 35.49L36.5699 35.49C37.9599 33.95 39.0299 32.22 39.7899 30.3C40.5899 28.29 40.9899 26.19 40.9899 24C40.9899 21.67 40.5399 19.43 39.6299 17.3C38.7599 15.25 37.5199 13.42 35.9299 11.83C34.3299 10.24 32.4999 9.01004 30.4299 8.14004C28.2899 7.24004 26.0499 6.79004 23.6999 6.79004ZM18.7999 11.01C18.7399 11.02 18.6699 11.03 18.6099 11.04C18.5499 11.05 18.4799 11.07 18.4199 11.09C18.3599 11.11 18.2999 11.13 18.2299 11.15C18.1699 11.18 18.1099 11.21 18.0599 11.24C17.9999 11.27 17.9399 11.3 17.8899 11.34C17.8299 11.37 17.7799 11.41 17.7299 11.45C17.6799 11.5 17.6299 11.54 17.5899 11.59C17.5399 11.63 17.4999 11.68 17.4499 11.73C17.4099 11.78 17.3699 11.83 17.3399 11.89C17.2999 11.94 17.2699 12 17.2399 12.06C17.2099 12.11 17.1799 12.17 17.1499 12.23C17.1299 12.3 17.1099 12.36 17.0899 12.42C17.0699 12.48 17.0499 12.55 17.0399 12.61C17.0299 12.67 17.0199 12.74 17.0099 12.8C16.9999 12.87 16.9999 12.93 16.9999 13C16.9999 13.07 16.9999 13.13 17.0099 13.2C17.0199 13.26 17.0299 13.33 17.0399 13.39C17.0499 13.45 17.0699 13.52 17.0899 13.58C17.1099 13.64 17.1299 13.7 17.1499 13.77C17.1799 13.83 17.2099 13.89 17.2399 13.94C17.2699 14 17.2999 14.06 17.3399 14.11C17.3699 14.17 17.4099 14.22 17.4499 14.27C17.4999 14.32 17.5399 14.37 17.5899 14.41C17.6299 14.46 17.6799 14.5 17.7299 14.55C17.7799 14.59 17.8299 14.63 17.8899 14.66C17.9399 14.7 17.9999 14.73 18.0599 14.76C18.1099 14.79 18.1699 14.82 18.2299 14.85C18.2999 14.87 18.3599 14.89 18.4199 14.91C18.4799 14.93 18.5499 14.95 18.6099 14.96C18.6699 14.97 18.7399 14.98 18.7999 14.99C18.8699 15 18.9299 15 18.9999 15L26.9999 15C27.0699 15 27.1299 15 27.1999 14.99C27.2599 14.98 27.3299 14.97 27.3899 14.96C27.4499 14.95 27.5199 14.93 27.5799 14.91C27.6399 14.89 27.6999 14.87 27.7699 14.85C27.8299 14.82 27.8799 14.79 27.9399 14.76C27.9999 14.73 28.0599 14.7 28.1099 14.66C28.1699 14.63 28.2199 14.59 28.2699 14.55C28.3199 14.5 28.3699 14.46 28.4099 14.41C28.4599 14.37 28.4999 14.32 28.5499 14.27C28.5899 14.22 28.6299 14.17 28.6599 14.11C28.6999 14.06 28.7299 14 28.7599 13.94C28.7899 13.89 28.8199 13.83 28.8499 13.77C28.8699 13.7 28.8899 13.64 28.9099 13.58C28.9299 13.52 28.9499 13.45 28.9599 13.39C28.9699 13.33 28.9799 13.26 28.9899 13.2C28.9999 13.13 28.9999 13.07 28.9999 13C28.9999 12.93 28.9999 12.87 28.9899 12.8C28.9799 12.74 28.9699 12.67 28.9599 12.61C28.9499 12.55 28.9299 12.48 28.9099 12.42C28.8899 12.36 28.8699 12.3 28.8499 12.23C28.8199 12.17 28.7899 12.11 28.7599 12.06C28.7299 12 28.6999 11.94 28.6599 11.89C28.6299 11.83 28.5899 11.78 28.5499 11.73C28.4999 11.68 28.4599 11.63 28.4099 11.59C28.3699 11.54 28.3199 11.5 28.2699 11.45C28.2199 11.41 28.1699 11.37 28.1099 11.34C28.0599 11.3 27.9999 11.27 27.9399 11.24C27.8799 11.21 27.8299 11.18 27.7699 11.15C27.6999 11.13 27.6399 11.11 27.5799 11.09C27.5199 11.07 27.4499 11.05 27.3899 11.04C27.3299 11.03 27.2599 11.02 27.1999 11.01C27.1299 11 27.0699 11 26.9999 11L18.9999 11C18.9299 11 18.8699 11 18.7999 11.01ZM36.9999 23C36.9999 22.19 36.8399 21.41 36.5299 20.66C36.2199 19.95 35.7999 19.31 35.2399 18.76C34.6899 18.2 34.0499 17.78 33.3399 17.47C32.5899 17.16 31.8099 17 30.9999 17L15.9999 17C15.1899 17 14.4099 17.16 13.6599 17.47C12.9499 17.78 12.3099 18.2 11.7599 18.76C11.1999 19.31 10.7799 19.95 10.4699 20.66C10.1599 21.41 9.99992 22.19 9.99992 23L9.99992 29C9.99992 29.81 10.1599 30.59 10.4699 31.34C10.7799 32.05 11.1999 32.69 11.7599 33.24C12.3099 33.8 12.9499 34.22 13.6599 34.53C14.4099 34.84 15.1899 35 15.9999 35L30.9999 35C31.8099 35 32.5899 34.84 33.3399 34.53C34.0499 34.22 34.6899 33.8 35.2399 33.24C35.7999 32.69 36.2199 32.05 36.5299 31.34C36.8399 30.59 36.9999 29.81 36.9999 29L36.9999 23ZM32.4099 21.59C32.2299 21.4 32.0199 21.26 31.7799 21.16C31.5299 21.05 31.2699 21 30.9999 21L15.9999 21C15.7299 21 15.4699 21.05 15.2199 21.16C14.9799 21.26 14.7699 21.4 14.5899 21.59C14.3999 21.77 14.2599 21.98 14.1599 22.22C14.0499 22.47 13.9999 22.73 13.9999 23L13.9999 29C13.9999 29.27 14.0499 29.53 14.1599 29.78C14.2599 30.02 14.3999 30.23 14.5899 30.41C14.7699 30.6 14.9799 30.74 15.2199 30.84C15.4699 30.95 15.7299 31 15.9999 31L30.9999 31C31.2699 31 31.5299 30.95 31.7799 30.84C32.0199 30.74 32.2299 30.6 32.4099 30.41C32.5999 30.23 32.7399 30.02 32.8399 29.78C32.9499 29.53 32.9999 29.27 32.9999 29L32.9999 23C32.9999 22.73 32.9499 22.47 32.8399 22.22C32.7399 21.98 32.5999 21.77 32.4099 21.59ZM20.9599 24.61C20.9499 24.55 20.9299 24.48 20.9099 24.42C20.8899 24.36 20.8699 24.3 20.8499 24.23C20.8199 24.17 20.7899 24.11 20.7599 24.06C20.7299 24 20.6999 23.94 20.6599 23.89C20.6299 23.83 20.5899 23.78 20.5499 23.73C20.4999 23.68 20.4599 23.63 20.4099 23.59C20.3699 23.54 20.3199 23.5 20.2699 23.45C20.2199 23.41 20.1699 23.37 20.1099 23.34C20.0599 23.3 19.9999 23.27 19.9399 23.24C19.8899 23.21 19.8299 23.18 19.7699 23.15C19.6999 23.13 19.6399 23.11 19.5799 23.09C19.5199 23.07 19.4499 23.05 19.3899 23.04C19.3299 23.03 19.2599 23.02 19.1999 23.01C19.1299 23 19.0699 23 18.9999 23C18.9299 23 18.8699 23 18.7999 23.01C18.7399 23.02 18.6699 23.03 18.6099 23.04C18.5499 23.05 18.4799 23.07 18.4199 23.09C18.3599 23.11 18.2999 23.13 18.2299 23.15C18.1699 23.18 18.1099 23.21 18.0599 23.24C17.9999 23.27 17.9399 23.3 17.8899 23.34C17.8299 23.37 17.7799 23.41 17.7299 23.45C17.6799 23.5 17.6299 23.54 17.5899 23.59C17.5399 23.63 17.4999 23.68 17.4499 23.73C17.4099 23.78 17.3699 23.83 17.3399 23.89C17.2999 23.94 17.2699 24 17.2399 24.06C17.2099 24.11 17.1799 24.17 17.1499 24.23C17.1299 24.3 17.1099 24.36 17.0899 24.42C17.0699 24.48 17.0499 24.55 17.0399 24.61C17.0299 24.67 17.0199 24.74 17.0099 24.8C16.9999 24.87 16.9999 24.93 16.9999 25L16.9999 27C16.9999 27.07 16.9999 27.13 17.0099 27.2C17.0199 27.26 17.0299 27.33 17.0399 27.39C17.0499 27.45 17.0699 27.52 17.0899 27.58C17.1099 27.64 17.1299 27.7 17.1499 27.77C17.1799 27.83 17.2099 27.88 17.2399 27.94C17.2699 28 17.2999 28.06 17.3399 28.11C17.3699 28.17 17.4099 28.22 17.4499 28.27C17.4999 28.32 17.5399 28.37 17.5899 28.41C17.6299 28.46 17.6799 28.5 17.7299 28.55C17.7799 28.59 17.8299 28.63 17.8899 28.66C17.9399 28.7 17.9999 28.73 18.0599 28.76C18.1099 28.79 18.1699 28.82 18.2299 28.85C18.2999 28.87 18.3599 28.89 18.4199 28.91C18.4799 28.93 18.5499 28.95 18.6099 28.96C18.6699 28.97 18.7399 28.98 18.7999 28.99C18.8699 29 18.9299 29 18.9999 29C19.0699 29 19.1299 29 19.1999 28.99C19.2599 28.98 19.3299 28.97 19.3899 28.96C19.4499 28.95 19.5199 28.93 19.5799 28.91C19.6399 28.89 19.6999 28.87 19.7699 28.85C19.8299 28.82 19.8899 28.79 19.9399 28.76C19.9999 28.73 20.0599 28.7 20.1099 28.66C20.1699 28.63 20.2199 28.59 20.2699 28.55C20.3199 28.5 20.3699 28.46 20.4099 28.41C20.4599 28.37 20.4999 28.32 20.5499 28.27C20.5899 28.22 20.6299 28.17 20.6599 28.11C20.6999 28.06 20.7299 28 20.7599 27.94C20.7899 27.88 20.8199 27.83 20.8499 27.77C20.8699 27.7 20.8899 27.64 20.9099 27.58C20.9299 27.52 20.9499 27.45 20.9599 27.39C20.9699 27.33 20.9799 27.26 20.9899 27.2C20.9999 27.13 20.9999 27.07 20.9999 27L20.9999 25C20.9999 24.93 20.9999 24.87 20.9899 24.8C20.9799 24.74 20.9699 24.67 20.9599 24.61ZM29.9599 24.61C29.9499 24.55 29.9299 24.48 29.9099 24.42C29.8899 24.36 29.8699 24.3 29.8499 24.23C29.8199 24.17 29.7899 24.11 29.7599 24.06C29.7299 24 29.6999 23.94 29.6599 23.89C29.6299 23.83 29.5899 23.78 29.5499 23.73C29.4999 23.68 29.4599 23.63 29.4099 23.59C29.3699 23.54 29.3199 23.5 29.2699 23.45C29.2199 23.41 29.1699 23.37 29.1099 23.34C29.0599 23.3 28.9999 23.27 28.9399 23.24C28.8899 23.21 28.8299 23.18 28.7699 23.15C28.6999 23.13 28.6399 23.11 28.5799 23.09C28.5199 23.07 28.4499 23.05 28.3899 23.04C28.3299 23.03 28.2599 23.02 28.1999 23.01C28.1299 23 28.0699 23 27.9999 23C27.9299 23 27.8699 23 27.7999 23.01C27.7399 23.02 27.6699 23.03 27.6099 23.04C27.5499 23.05 27.4799 23.07 27.4199 23.09C27.3599 23.11 27.2999 23.13 27.2299 23.15C27.1699 23.18 27.1099 23.21 27.0599 23.24C26.9999 23.27 26.9399 23.3 26.8899 23.34C26.8299 23.37 26.7799 23.41 26.7299 23.45C26.6799 23.5 26.6299 23.54 26.5899 23.59C26.5399 23.63 26.4999 23.68 26.4499 23.73C26.4099 23.78 26.3699 23.83 26.3399 23.89C26.2999 23.94 26.2699 24 26.2399 24.06C26.2099 24.11 26.1799 24.17 26.1499 24.23C26.1299 24.3 26.1099 24.36 26.0899 24.42C26.0699 24.48 26.0499 24.55 26.0399 24.61C26.0299 24.67 26.0199 24.74 26.0099 24.8C25.9999 24.87 25.9999 24.93 25.9999 25L25.9999 27C25.9999 27.07 25.9999 27.13 26.0099 27.2C26.0199 27.26 26.0299 27.33 26.0399 27.39C26.0499 27.45 26.0699 27.52 26.0899 27.58C26.1099 27.64 26.1299 27.7 26.1499 27.77C26.1799 27.83 26.2099 27.88 26.2399 27.94C26.2699 28 26.2999 28.06 26.3399 28.11C26.3699 28.17 26.4099 28.22 26.4499 28.27C26.4999 28.32 26.5399 28.37 26.5899 28.41C26.6299 28.46 26.6799 28.5 26.7299 28.55C26.7799 28.59 26.8299 28.63 26.8899 28.66C26.9399 28.7 26.9999 28.73 27.0599 28.76C27.1099 28.79 27.1699 28.82 27.2299 28.85C27.2999 28.87 27.3599 28.89 27.4199 28.91C27.4799 28.93 27.5499 28.95 27.6099 28.96C27.6699 28.97 27.7399 28.98 27.7999 28.99C27.8699 29 27.9299 29 27.9999 29C28.0699 29 28.1299 29 28.1999 28.99C28.2599 28.98 28.3299 28.97 28.3899 28.96C28.4499 28.95 28.5199 28.93 28.5799 28.91C28.6399 28.89 28.6999 28.87 28.7699 28.85C28.8299 28.82 28.8899 28.79 28.9399 28.76C28.9999 28.73 29.0599 28.7 29.1099 28.66C29.1699 28.63 29.2199 28.59 29.2699 28.55C29.3199 28.5 29.3699 28.46 29.4099 28.41C29.4599 28.37 29.4999 28.32 29.5499 28.27C29.5899 28.22 29.6299 28.17 29.6599 28.11C29.6999 28.06 29.7299 28 29.7599 27.94C29.7899 27.88 29.8199 27.83 29.8499 27.77C29.8699 27.7 29.8899 27.64 29.9099 27.58C29.9299 27.52 29.9499 27.45 29.9599 27.39C29.9699 27.33 29.9799 27.26 29.9899 27.2C29.9999 27.13 29.9999 27.07 29.9999 27L29.9999 25C29.9999 24.93 29.9999 24.87 29.9899 24.8C29.9799 24.74 29.9699 24.67 29.9599 24.61Z" fill-rule="evenodd"  fill="#000000" >
</path>
</svg>
