<svg xmlns="http://www.w3.org/2000/svg" xmlns:xlink="http://www.w3.org/1999/xlink" width="48" height="48" viewBox="0 0 48 48" fill="none">
<path d="M32.2752 4.46492C34.8252 5.53492 37.0852 7.04492 39.0452 9.00492C41.0052 10.9649 42.5352 13.2049 43.6052 15.7449C44.7252 18.3749 45.2852 21.1249 45.2852 24.0049C45.2852 26.7049 44.7952 29.2949 43.8052 31.7849C43.0852 33.6049 42.1352 35.2849 40.9552 36.8249C41.6452 37.5749 42.0652 38.4349 42.2252 39.4249C42.3652 40.3649 42.2552 41.2849 41.8752 42.1749C41.4952 43.0649 40.9052 43.7749 40.1252 44.3249C39.2752 44.9149 38.3252 45.2049 37.2752 45.2049L23.9952 45.2049C21.1152 45.2049 18.3552 44.6449 15.7152 43.5349C13.1752 42.4649 10.9152 40.9549 8.95515 38.9949C6.98516 37.0449 5.46516 34.7949 4.39516 32.2549C3.27516 29.6349 2.71516 26.8749 2.71516 24.0049C2.71516 21.1249 3.27516 18.3749 4.39516 15.7449C5.46516 13.2049 6.98516 10.9649 8.95515 9.00492C10.9152 7.04492 13.1752 5.53492 15.7152 4.46492C18.3552 3.35492 21.1152 2.79492 23.9952 2.79492C26.8752 2.79492 29.6452 3.35492 32.2752 4.46492ZM30.7252 8.14492C32.7952 9.01492 34.6252 10.2449 36.2252 11.8349C37.8152 13.4249 39.0552 15.2549 39.9252 17.3049C40.8352 19.4349 41.2852 21.6749 41.2852 24.0049C41.2852 26.1949 40.8852 28.2949 40.0852 30.3049C39.3252 32.2249 38.2552 33.9549 36.8652 35.4949C36.8652 35.4949 36.8652 35.4949 36.8552 35.4949C36.8152 35.5449 36.7652 35.5949 36.7252 35.6449L35.5352 36.9449L38.0052 39.5149C38.1452 39.6749 38.2352 39.8449 38.2652 40.0449C38.2952 40.2249 38.2752 40.4149 38.1952 40.5949C38.1152 40.7849 37.9952 40.9349 37.8452 41.0349C37.6852 41.1449 37.4952 41.2049 37.2752 41.2049L23.9952 41.2049C21.6552 41.2049 19.4052 40.7549 17.2752 39.8549C15.2052 38.9849 13.3752 37.7549 11.7752 36.1649C10.1852 34.5749 8.94516 32.7549 8.07516 30.6949C7.16516 28.5649 6.71516 26.3349 6.71516 24.0049C6.71516 21.6749 7.16516 19.4349 8.07516 17.3049C8.94516 15.2549 10.1852 13.4249 11.7752 11.8349C13.3752 10.2449 15.2052 9.01492 17.2752 8.14492C19.4052 7.24492 21.6552 6.79492 23.9952 6.79492C26.3452 6.79492 28.5852 7.24492 30.7252 8.14492Z" fill-rule="evenodd"  fill="#000000" >
</path>
</svg>
