<svg xmlns="http://www.w3.org/2000/svg" xmlns:xlink="http://www.w3.org/1999/xlink" width="48" height="48" viewBox="0 0 48 48" fill="none">
<path d="M20.2 42.64C20.69 43.21 21.27 43.65 21.95 43.95C22.6 44.24 23.28 44.39 24 44.39C24.72 44.39 25.4 44.24 26.05 43.95C26.73 43.65 27.31 43.21 27.8 42.64L30.92 39L38 39C39.08 39 40.12 38.79 41.11 38.37C42.07 37.96 42.92 37.39 43.66 36.66C44.39 35.92 44.96 35.07 45.37 34.11C45.79 33.12 46 32.08 46 31L46 13C46 11.92 45.79 10.88 45.37 9.89C44.96 8.93 44.39 8.08 43.66 7.34C42.92 6.61 42.07 6.04 41.11 5.63C40.12 5.21 39.08 5 38 5L10 5C8.92 5 7.88 5.21 6.89 5.63C5.93 6.04 5.08 6.61 4.34 7.34C3.61 8.08 3.04 8.93 2.63 9.89C2.21 10.88 2 11.92 2 13L2 31C2 32.08 2.21 33.12 2.63 34.11C3.04 35.07 3.61 35.92 4.34 36.66C5.08 37.39 5.93 37.96 6.89 38.37C7.88 38.79 8.92 39 10 39L17.08 39L17.09 39.01L20.2 42.64ZM24.76 40.04L27.88 36.4C28.26 35.96 28.72 35.61 29.25 35.37C29.78 35.12 30.34 35 30.92 35L38 35C38.54 35 39.06 34.9 39.55 34.69C40.03 34.48 40.46 34.2 40.83 33.83C41.2 33.46 41.48 33.03 41.69 32.55C41.9 32.06 42 31.54 42 31L42 13C42 12.46 41.9 11.94 41.69 11.45C41.48 10.97 41.2 10.54 40.83 10.17C40.46 9.8 40.03 9.52 39.55 9.31C39.06 9.1 38.54 9 38 9L10 9C9.46 9 8.94 9.1 8.45 9.31C7.97 9.52 7.54 9.8 7.17 10.17C6.8 10.54 6.52 10.97 6.31 11.45C6.1 11.94 6 12.46 6 13L6 31C6 31.54 6.1 32.06 6.31 32.55C6.52 33.03 6.8 33.46 7.17 33.83C7.54 34.2 7.97 34.48 8.45 34.69C8.94 34.9 9.46 35 10 35L17.08 35C17.66 35 18.22 35.12 18.75 35.37C19.28 35.61 19.73 35.95 20.11 36.39L20.12 36.4L23.24 40.04C23.44 40.27 23.69 40.39 24 40.39C24.31 40.39 24.56 40.27 24.76 40.04ZM13.8 21.01C13.74 21.02 13.67 21.03 13.61 21.04C13.55 21.05 13.48 21.07 13.42 21.09C13.36 21.11 13.3 21.13 13.23 21.15C13.17 21.18 13.11 21.21 13.06 21.24C13 21.27 12.94 21.3 12.89 21.34C12.83 21.37 12.78 21.41 12.73 21.45C12.68 21.5 12.63 21.54 12.59 21.59C12.54 21.63 12.5 21.68 12.45 21.73C12.41 21.78 12.37 21.83 12.34 21.89C12.3 21.94 12.27 22 12.24 22.06C12.21 22.11 12.18 22.17 12.15 22.23C12.13 22.3 12.11 22.36 12.09 22.42C12.07 22.48 12.05 22.55 12.04 22.61C12.03 22.67 12.02 22.74 12.01 22.8C12 22.87 12 22.93 12 23C12 23.07 12 23.13 12.01 23.2C12.02 23.26 12.03 23.33 12.04 23.39C12.05 23.45 12.07 23.52 12.09 23.58C12.11 23.64 12.13 23.7 12.15 23.77C12.18 23.83 12.21 23.89 12.24 23.94C12.27 24 12.3 24.06 12.34 24.11C12.37 24.17 12.41 24.22 12.45 24.27C12.5 24.32 12.54 24.37 12.59 24.41C12.63 24.46 12.68 24.5 12.73 24.55C12.78 24.59 12.83 24.63 12.89 24.66C12.94 24.7 13 24.73 13.06 24.76C13.11 24.79 13.17 24.82 13.23 24.85C13.3 24.87 13.36 24.89 13.42 24.91C13.48 24.93 13.55 24.95 13.61 24.96C13.67 24.97 13.74 24.98 13.8 24.99C13.87 25 13.93 25 14 25L34 25C34.07 25 34.13 25 34.2 24.99C34.26 24.98 34.33 24.97 34.39 24.96C34.45 24.95 34.52 24.93 34.58 24.91C34.64 24.89 34.7 24.87 34.77 24.85C34.83 24.82 34.89 24.79 34.94 24.76C35 24.73 35.06 24.7 35.11 24.66C35.17 24.63 35.22 24.59 35.27 24.55C35.32 24.5 35.37 24.46 35.41 24.41C35.46 24.37 35.5 24.32 35.55 24.27C35.59 24.22 35.63 24.17 35.66 24.11C35.7 24.06 35.73 24 35.76 23.94C35.79 23.89 35.82 23.83 35.85 23.77C35.87 23.7 35.89 23.64 35.91 23.58C35.93 23.52 35.95 23.45 35.96 23.39C35.97 23.33 35.98 23.26 35.99 23.2C36 23.13 36 23.07 36 23C36 22.93 36 22.87 35.99 22.8C35.98 22.74 35.97 22.67 35.96 22.61C35.95 22.55 35.93 22.48 35.91 22.42C35.89 22.36 35.87 22.3 35.85 22.23C35.82 22.17 35.79 22.11 35.76 22.06C35.73 22 35.7 21.94 35.66 21.89C35.63 21.83 35.59 21.78 35.55 21.73C35.5 21.68 35.46 21.63 35.41 21.59C35.37 21.54 35.32 21.5 35.27 21.45C35.22 21.41 35.17 21.37 35.11 21.34C35.06 21.3 35 21.27 34.94 21.24C34.89 21.21 34.83 21.18 34.77 21.15C34.7 21.13 34.64 21.11 34.58 21.09C34.52 21.07 34.45 21.05 34.39 21.04C34.33 21.03 34.26 21.02 34.2 21.01C34.13 21 34.07 21 34 21L14 21C13.93 21 13.87 21 13.8 21.01Z" fill-rule="evenodd"  fill="#000000" >
</path>
</svg>
