<svg xmlns="http://www.w3.org/2000/svg" xmlns:xlink="http://www.w3.org/1999/xlink" width="48" height="48" viewBox="0 0 48 48" fill="none">
<path d="M38 41C42.42 41 46 37.42 46 33L46 14C46 9.58 42.42 6 38 6L10 6C5.58 6 2 9.58 2 14L2 33C2 37.42 5.58 41 10 41L38 41ZM21.94 22.44C23.21 23.2 24.79 23.2 26.06 22.44L41.86 12.95C41.4 11.25 39.85 10 38 10L10 10C8.15 10 6.6 11.25 6.14 12.95L21.94 22.44ZM6 33C6 35.21 7.79 37 10 37L38 37C40.21 37 42 35.21 42 33L42 17.53L28.12 25.87C25.58 27.39 22.42 27.39 19.88 25.86L6 17.53L6 33Z" fill-rule="evenodd"  fill="#000000" >
</path>
</svg>
