<svg xmlns="http://www.w3.org/2000/svg" xmlns:xlink="http://www.w3.org/1999/xlink" width="48" height="48" viewBox="0 0 48 48" fill="none">
<path d="M27.0499 3C24.4699 3 21.9999 3.5 19.6399 4.49C17.3599 5.45 15.3399 6.81 13.5799 8.56C11.8199 10.31 10.4599 12.32 9.49992 14.59C8.85992 16.11 8.41992 17.67 8.18992 19.28C7.58992 19.72 7.00992 20.21 6.46992 20.74C5.11992 22.08 4.06992 23.61 3.32992 25.35C2.55992 27.15 2.16992 29.03 2.16992 31C2.16992 32.85 2.50992 34.62 3.18992 36.32C3.61992 37.4 4.16992 38.41 4.83992 39.34C4.53992 39.8 4.33992 40.3 4.24992 40.86C4.12992 41.61 4.21992 42.35 4.51992 43.06C4.82992 43.78 5.28992 44.35 5.91992 44.79C6.59992 45.26 7.35992 45.5 8.20992 45.5L16.8299 45.5C18.8199 45.5 20.7199 45.12 22.5299 44.36C24.2899 43.63 25.8399 42.6 27.1899 41.26C27.2899 41.16 27.3799 41.07 27.4799 40.97L37.9799 40.97C39.0299 40.97 39.9799 40.68 40.8299 40.09C41.6099 39.54 42.1999 38.83 42.5799 37.94C42.9599 37.05 43.0699 36.13 42.9299 35.19C42.8299 34.54 42.6099 33.95 42.2799 33.4C43.3099 32.04 44.1399 30.55 44.7799 28.95C45.6599 26.72 46.0999 24.4 46.0999 21.99C46.0999 19.41 45.5999 16.95 44.5999 14.59C43.6399 12.32 42.2799 10.31 40.5199 8.56C38.7599 6.81 36.7399 5.45 34.4599 4.49C32.0999 3.5 29.6299 3 27.0499 3ZM16.8299 16.5C18.8199 16.5 20.7199 16.88 22.5299 17.64C24.2899 18.37 25.8399 19.4 27.1899 20.74C28.5499 22.08 29.5999 23.61 30.3399 25.35C31.1099 27.15 31.4999 29.03 31.4999 31C31.4999 32.97 31.1099 34.85 30.3399 36.65C30.2899 36.76 30.2499 36.86 30.1999 36.97L37.9799 36.97C38.1999 36.97 38.3899 36.91 38.5499 36.8C38.6999 36.7 38.8199 36.55 38.8999 36.36C38.9799 36.18 38.9999 35.99 38.9699 35.81C38.9399 35.61 38.8499 35.44 38.7099 35.29L36.9299 33.43L38.1999 32.05C39.4299 30.7 40.3899 29.17 41.0599 27.48C41.7499 25.72 42.0999 23.9 42.0999 21.99C42.0999 19.96 41.7099 18.01 40.9199 16.15C40.1599 14.36 39.0799 12.77 37.6999 11.39C36.3099 10.01 34.7099 8.94 32.9099 8.18C31.0499 7.39 29.0899 7 27.0499 7C25.0099 7 23.0499 7.39 21.1899 8.18C19.3899 8.94 17.7899 10.01 16.3999 11.39C15.0199 12.77 13.9399 14.36 13.1799 16.15C13.0499 16.45 12.9399 16.75 12.8299 17.05C14.1299 16.68 15.4599 16.5 16.8299 16.5ZM9.27992 23.59C8.29992 24.56 7.53992 25.67 6.99992 26.92C6.44992 28.22 6.16992 29.58 6.16992 31C6.16992 32.34 6.40992 33.62 6.89992 34.84C7.37992 36.03 8.04992 37.09 8.92992 38.04L10.2099 39.44L8.19992 41.5L16.8299 41.5C18.2799 41.5 19.6699 41.22 20.9899 40.67C22.2699 40.14 23.3999 39.39 24.3899 38.41C25.3699 37.44 26.1299 36.33 26.6699 35.08C27.2199 33.78 27.4999 32.42 27.4999 31C27.4999 29.58 27.2199 28.22 26.6699 26.92C26.1299 25.67 25.3699 24.56 24.3899 23.59C23.3999 22.61 22.2699 21.86 20.9899 21.33C19.6699 20.78 18.2799 20.5 16.8299 20.5C15.3799 20.5 13.9999 20.78 12.6699 21.33C11.3999 21.86 10.2699 22.61 9.27992 23.59Z" fill-rule="evenodd"  fill="#000000" >
</path>
</svg>
