<svg xmlns="http://www.w3.org/2000/svg" xmlns:xlink="http://www.w3.org/1999/xlink" width="48" height="48" viewBox="0 0 48 48" fill="none">
<path d="M23.6999 2.79004C20.8199 2.79004 18.0599 3.35004 15.4199 4.46004C12.8799 5.53004 10.6199 7.04004 8.65992 9.00004C6.68992 10.96 5.16992 13.2 4.09992 15.74C2.97992 18.37 2.41992 21.12 2.41992 24C2.41992 26.87 2.97992 29.63 4.09992 32.25C5.16992 34.79 6.68992 37.04 8.65992 38.99C10.6199 40.95 12.8799 42.46 15.4199 43.53C18.0599 44.64 20.8199 45.2 23.6999 45.2L36.9799 45.2C38.0299 45.2 38.9799 44.91 39.8299 44.32C40.6099 43.77 41.1999 43.06 41.5799 42.17C41.9599 41.28 42.0699 40.36 41.9299 39.42C41.7699 38.43 41.3499 37.57 40.6599 36.82C41.8399 35.28 42.7899 33.6 43.5099 31.78C44.4999 29.29 44.9899 26.7 44.9899 24C44.9899 21.12 44.4299 18.37 43.3099 15.74C42.2399 13.2 40.7099 10.96 38.7499 9.00004C36.7899 7.04004 34.5299 5.53004 31.9799 4.46004C29.3499 3.35004 26.5799 2.79004 23.6999 2.79004ZM23.6999 6.79004C21.3599 6.79004 19.1099 7.24004 16.9799 8.14004C14.9099 9.01004 13.0799 10.24 11.4799 11.83C9.88992 13.42 8.64992 15.25 7.77992 17.3C6.86992 19.43 6.41992 21.67 6.41992 24C6.41992 26.33 6.86992 28.56 7.77992 30.69C8.64992 32.75 9.88992 34.57 11.4799 36.16C13.0799 37.75 14.9099 38.98 16.9799 39.85C19.1099 40.75 21.3599 41.2 23.6999 41.2L36.9799 41.2C37.1999 41.2 37.3899 41.14 37.5499 41.03C37.6999 40.93 37.8199 40.78 37.8999 40.59C37.9799 40.41 37.9999 40.22 37.9699 40.04C37.9399 39.84 37.8499 39.67 37.7099 39.51L35.2399 36.94L36.4299 35.64C36.4699 35.59 36.5199 35.54 36.5599 35.49L36.5699 35.49C37.9599 33.95 39.0299 32.22 39.7899 30.3C40.5899 28.29 40.9899 26.19 40.9899 24C40.9899 21.67 40.5399 19.43 39.6299 17.3C38.7599 15.25 37.5199 13.42 35.9299 11.83C34.3299 10.24 32.4999 9.01004 30.4299 8.14004C28.2899 7.24004 26.0499 6.79004 23.6999 6.79004ZM13.6699 30.14C14.5899 31.84 15.8499 33.27 17.4699 34.43C18.6399 35.26 19.9399 35.92 21.3699 36.4C22.1699 36.67 22.9199 36.85 23.6099 36.96C23.8699 37 24.1299 37 24.3899 36.96C25.0799 36.85 25.8299 36.67 26.6299 36.4C28.0599 35.92 29.3599 35.26 30.5299 34.43C32.1499 33.27 33.4099 31.84 34.3299 30.14C35.4399 28.08 35.9999 25.69 35.9999 22.99L35.9999 19.37C35.9999 18.77 35.9099 18.18 35.7399 17.62C35.5699 17.06 35.3199 16.53 34.9999 16.04C34.6799 15.56 34.2899 15.12 33.8399 14.75C33.3799 14.37 32.8699 14.06 32.3199 13.83L26.3299 11.3C25.5899 10.99 24.8099 10.83 23.9999 10.83C23.1899 10.83 22.4099 10.99 21.6699 11.3L15.6699 13.83C15.1199 14.06 14.6199 14.37 14.1599 14.75C13.7099 15.12 13.3199 15.56 12.9999 16.04C12.6799 16.53 12.4299 17.06 12.2599 17.62C12.0899 18.18 11.9999 18.77 11.9999 19.37L11.9999 22.99C11.9999 25.69 12.5599 28.08 13.6699 30.14ZM23.9999 32.97C24.4099 32.89 24.8599 32.77 25.3599 32.61C26.4099 32.25 27.3599 31.78 28.1999 31.17C30.7299 29.36 31.9999 26.63 31.9999 22.99L31.9999 19.37C31.9999 18.96 31.8899 18.59 31.6699 18.25C31.4399 17.92 31.1499 17.67 30.7799 17.52L24.7699 14.99C24.5199 14.88 24.2699 14.83 23.9999 14.83C23.7299 14.83 23.4799 14.88 23.2299 14.99L17.2299 17.52C16.8499 17.67 16.5599 17.92 16.3299 18.25C16.1099 18.59 15.9999 18.96 15.9999 19.37L15.9999 22.99C15.9999 26.63 17.2699 29.36 19.7999 31.17C20.6399 31.78 21.5899 32.25 22.6399 32.61C23.1399 32.77 23.5899 32.89 23.9999 32.97Z" fill-rule="evenodd"  fill="#000000" >
</path>
</svg>
