<svg xmlns="http://www.w3.org/2000/svg" xmlns:xlink="http://www.w3.org/1999/xlink" width="48" height="48" viewBox="0 0 48 48" fill="none">
<path d="M31.9799 4.46004C29.3499 3.35004 26.5799 2.79004 23.6999 2.79004C20.8199 2.79004 18.0599 3.35004 15.4199 4.46004C12.8799 5.53004 10.6199 7.04004 8.65992 9.00004C6.68992 10.96 5.16992 13.2 4.09992 15.74C2.97992 18.37 2.41992 21.12 2.41992 24C2.41992 26.87 2.97992 29.63 4.09992 32.25C5.16992 34.79 6.68992 37.04 8.65992 38.99C10.6199 40.95 12.8799 42.46 15.4199 43.53C18.0599 44.64 20.8199 45.2 23.6999 45.2L36.9799 45.2C38.0299 45.2 38.9799 44.91 39.8299 44.32C40.6099 43.77 41.1999 43.06 41.5799 42.17C41.9599 41.28 42.0699 40.36 41.9299 39.42C41.7699 38.43 41.3499 37.57 40.6599 36.82C41.8399 35.28 42.7899 33.6 43.5099 31.78C44.4999 29.29 44.9899 26.7 44.9899 24C44.9899 21.12 44.4299 18.37 43.3099 15.74C42.2399 13.2 40.7099 10.96 38.7499 9.00004C36.7899 7.04004 34.5299 5.53004 31.9799 4.46004ZM30.4299 8.14004C28.2899 7.24004 26.0499 6.79004 23.6999 6.79004C21.3599 6.79004 19.1099 7.24004 16.9799 8.14004C14.9099 9.01004 13.0799 10.24 11.4799 11.83C9.88992 13.42 8.64992 15.25 7.77992 17.3C6.86992 19.43 6.41992 21.67 6.41992 24C6.41992 26.33 6.86992 28.56 7.77992 30.69C8.64992 32.75 9.88992 34.57 11.4799 36.16C13.0799 37.75 14.9099 38.98 16.9799 39.85C19.1099 40.75 21.3599 41.2 23.6999 41.2L36.9799 41.2C37.1999 41.2 37.3899 41.14 37.5499 41.03C37.6999 40.93 37.8199 40.78 37.8999 40.59C37.9799 40.41 37.9999 40.22 37.9699 40.04C37.9399 39.84 37.8499 39.67 37.7099 39.51L35.2399 36.94L36.4299 35.64C36.4699 35.59 36.5199 35.54 36.5599 35.49L36.5699 35.49C37.9599 33.95 39.0299 32.22 39.7899 30.3C40.5899 28.29 40.9899 26.19 40.9899 24C40.9899 21.67 40.5399 19.43 39.6299 17.3C38.7599 15.25 37.5199 13.42 35.9299 11.83C34.3299 10.24 32.4999 9.01004 30.4299 8.14004ZM30.7599 30.47C30.5599 30.93 30.2699 31.34 29.8999 31.7C29.5199 32.07 29.0699 32.37 28.5599 32.59C28.0099 32.83 27.4299 32.96 26.8099 32.99C26.6699 33 26.4299 33 26.1099 33L20.9999 33C19.8999 33 18.9999 33.9 18.9999 35C18.9999 36.1 19.8999 37 20.9999 37L26.1099 37C26.4799 37 26.7699 37 26.9699 36.99C28.0899 36.93 29.1399 36.69 30.1299 36.27C31.0999 35.85 31.9599 35.28 32.6999 34.56C33.4399 33.83 34.0199 33 34.4299 32.05C34.5799 31.7 34.6999 31.35 34.7999 30.99L35.9799 30.99C36.3799 31 36.7599 30.92 37.1399 30.77C37.5099 30.62 37.8299 30.4 38.1099 30.12C38.3899 29.85 38.6099 29.52 38.7599 29.16C38.9199 28.79 38.9999 28.4 38.9999 27.99L38.9999 20.99C38.9999 20.59 38.9199 20.2 38.7699 19.83C38.6199 19.47 38.3999 19.15 38.1299 18.88C37.8599 18.6 37.5399 18.39 37.1899 18.24C36.8299 18.08 36.4399 18 36.0499 17.99L36.0299 17.99L34.8599 17.98C34.6999 17.19 34.4399 16.42 34.0799 15.67C33.4699 14.42 32.6199 13.32 31.5399 12.37C30.4999 11.46 29.3299 10.76 28.0299 10.26C26.7099 9.75004 25.3699 9.50004 23.9999 9.50004C22.6299 9.50004 21.2899 9.75004 19.9699 10.26C18.6599 10.75 17.4799 11.46 16.4399 12.36C15.3499 13.32 14.4999 14.42 13.8799 15.67C13.5199 16.41 13.2599 17.17 13.0899 17.96L11.9999 17.96C11.5899 17.96 11.1999 18.04 10.8299 18.2C10.4699 18.35 10.1599 18.56 9.87992 18.84C9.59992 19.12 9.38992 19.43 9.23992 19.79C9.07992 20.16 8.99992 20.55 8.99992 20.96L8.99992 28C8.99992 28.41 9.07992 28.8 9.23992 29.17C9.38992 29.53 9.59992 29.84 9.87992 30.12C10.1599 30.4 10.4699 30.61 10.8299 30.76C11.1999 30.92 11.5899 31 11.9999 31L13.8899 31C14.2999 31 14.6899 30.92 15.0599 30.76C15.4199 30.61 15.7299 30.4 16.0099 30.12C16.2899 29.84 16.4999 29.53 16.6499 29.17C16.8099 28.8 16.8899 28.41 16.8899 28L16.8899 19.96C16.8899 19.07 17.0899 18.22 17.4799 17.43C17.8499 16.66 18.3799 15.98 19.0699 15.38C19.7499 14.78 20.5299 14.32 21.3899 13.99C22.2499 13.66 23.1199 13.5 23.9999 13.5C24.8699 13.5 25.7399 13.66 26.5999 13.99C27.4599 14.32 28.2199 14.78 28.8999 15.37C29.5799 15.97 30.1099 16.65 30.4799 17.42C30.8699 18.22 31.0599 19.07 31.0599 19.96L31.0599 28.98C31.0599 29.5 30.9599 30 30.7599 30.47Z" fill-rule="evenodd"  fill="#000000" >
</path>
</svg>
