<svg xmlns="http://www.w3.org/2000/svg" xmlns:xlink="http://www.w3.org/1999/xlink" width="48" height="48" viewBox="0 0 48 48" fill="none">
<path d="M19.9484 5.45332C19.9822 5.30767 20 5.15592 20 5C20 3.89543 19.1046 3 18 3C17.0235 3 16.2104 3.69986 16.035 4.62537L13.8287 15.1056L7.9999 15.1057C6.89533 15.1057 5.9999 15.9538 5.9999 17.0001C5.9999 18.0463 6.89533 18.8945 7.99991 18.8945L13.031 18.8944L11.0918 28.1055L5.00001 28.1055C3.89543 28.1055 3 28.9537 3 29.9999C3 31.0461 3.89542 31.8943 5 31.8943L10.2942 31.8943L8.0516 42.5467C8.01784 42.6923 8 42.8441 8 43C8 44.1046 8.89543 45 10 45C10.9765 45 11.7896 44.3001 11.965 43.3746L14.3819 31.8944L30.2942 31.8944L28.0516 42.5467C28.0178 42.6923 28 42.8441 28 43C28 44.1046 28.8954 45 30 45C30.9765 45 31.7896 44.3001 31.965 43.3746L34.3818 31.8945L39.9999 31.8945C41.1045 31.8945 41.9999 31.0464 41.9999 30.0001C41.9999 28.9539 41.1045 28.1057 40 28.1057L35.1795 28.1057L37.1187 18.8943L44 18.8943C45.1046 18.8943 46 18.0461 46 16.9999C46 15.9537 45.1046 15.1055 44 15.1055L37.9164 15.1055L39.9484 5.45332C39.9822 5.30767 40 5.15592 40 5C40 3.89543 39.1046 3 38 3C37.0235 3 36.2104 3.69986 36.035 4.62537L33.8287 15.1055L17.9163 15.1056L19.9484 5.45332ZM17.1187 18.8944L15.1795 28.1056L31.0918 28.1057L33.031 18.8943L17.1187 18.8944Z" fill-rule="evenodd"  fill="#000000" >
</path>
</svg>
