<svg xmlns="http://www.w3.org/2000/svg" xmlns:xlink="http://www.w3.org/1999/xlink" width="48" height="48" viewBox="0 0 48 48" fill="none">
<path d="M23.6999 2.79004C20.8199 2.79004 18.0599 3.35004 15.4199 4.46004C12.8799 5.53004 10.6199 7.04004 8.65992 9.00004C6.68992 10.96 5.16992 13.2 4.09992 15.74C2.97992 18.37 2.41992 21.12 2.41992 24C2.41992 26.87 2.97992 29.63 4.09992 32.25C5.16992 34.79 6.68992 37.04 8.65992 38.99C10.6199 40.95 12.8799 42.46 15.4199 43.53C18.0599 44.64 20.8199 45.2 23.6999 45.2L36.9799 45.2C38.0299 45.2 38.9799 44.91 39.8299 44.32C40.6099 43.77 41.1999 43.06 41.5799 42.17C41.9599 41.28 42.0699 40.36 41.9299 39.42C41.7699 38.43 41.3499 37.57 40.6599 36.82C41.8399 35.28 42.7899 33.6 43.5099 31.78C44.4999 29.29 44.9899 26.7 44.9899 24C44.9899 21.12 44.4299 18.37 43.3099 15.74C42.2399 13.2 40.7099 10.96 38.7499 9.00004C36.7899 7.04004 34.5299 5.53004 31.9799 4.46004C29.3499 3.35004 26.5799 2.79004 23.6999 2.79004ZM23.6999 6.79004C21.3599 6.79004 19.1099 7.24004 16.9799 8.14004C14.9099 9.01004 13.0799 10.24 11.4799 11.83C9.88992 13.42 8.64992 15.25 7.77992 17.3C6.86992 19.43 6.41992 21.67 6.41992 24C6.41992 26.33 6.86992 28.56 7.77992 30.69C8.64992 32.75 9.88992 34.57 11.4799 36.16C13.0799 37.75 14.9099 38.98 16.9799 39.85C19.1099 40.75 21.3599 41.2 23.6999 41.2L36.9799 41.2C37.1999 41.2 37.3899 41.14 37.5499 41.03C37.6999 40.93 37.8199 40.78 37.8999 40.59C37.9799 40.41 37.9999 40.22 37.9699 40.04C37.9399 39.84 37.8499 39.67 37.7099 39.51L35.2399 36.94L36.4299 35.64C36.4699 35.59 36.5199 35.54 36.5599 35.49L36.5699 35.49C37.9599 33.95 39.0299 32.22 39.7899 30.3C40.5899 28.29 40.9899 26.19 40.9899 24C40.9899 21.67 40.5399 19.43 39.6299 17.3C38.7599 15.25 37.5199 13.42 35.9299 11.83C34.3299 10.24 32.4999 9.01004 30.4299 8.14004C28.2899 7.24004 26.0499 6.79004 23.6999 6.79004ZM33.4899 13.3C33.4799 13.24 33.4699 13.17 33.4599 13.11C33.4499 13.05 33.4299 12.98 33.4099 12.92C33.3899 12.86 33.3699 12.8 33.3499 12.73C33.3199 12.67 33.2899 12.61 33.2599 12.56C33.2299 12.5 33.1999 12.44 33.1599 12.39C33.1299 12.33 33.0899 12.28 33.0499 12.23C32.9999 12.18 32.9599 12.13 32.9099 12.09C32.8699 12.04 32.8199 12 32.7699 11.95C32.7199 11.91 32.6699 11.87 32.6099 11.84C32.5599 11.8 32.4999 11.77 32.4399 11.74C32.3799 11.71 32.3299 11.68 32.2699 11.65C32.1999 11.63 32.1399 11.61 32.0799 11.59C32.0199 11.57 31.9499 11.55 31.8899 11.54C31.8299 11.53 31.7599 11.52 31.6999 11.51C31.6299 11.5 31.5699 11.5 31.4999 11.5C31.4399 11.5 31.3899 11.5 31.3299 11.51C31.2699 11.51 31.2099 11.52 31.1599 11.53C31.0999 11.54 31.0499 11.55 30.9899 11.57C30.9399 11.58 30.8799 11.6 30.8299 11.62C30.7699 11.64 30.7199 11.66 30.6699 11.68C30.6199 11.71 30.5599 11.73 30.5099 11.76C30.4699 11.79 30.4199 11.82 30.3699 11.85C30.3199 11.88 30.2799 11.92 30.2299 11.95C30.1899 11.99 30.1499 12.03 30.0999 12.07C30.0599 12.11 30.0199 12.15 29.9899 12.19C29.9499 12.24 29.9099 12.28 29.8799 12.33C29.8499 12.37 29.8099 12.42 29.7899 12.47L29.6999 12.62C29.6799 12.67 29.6599 12.73 29.6299 12.78C29.6099 12.83 29.5999 12.89 29.5799 12.94C29.5599 13 29.5499 13.05 29.5399 13.11L28.6599 17.5L21.7399 17.5L22.4599 13.89C22.4899 13.76 22.4999 13.63 22.4999 13.5C22.4999 13.43 22.4999 13.37 22.4899 13.3C22.4799 13.24 22.4699 13.17 22.4599 13.11C22.4499 13.05 22.4299 12.98 22.4099 12.92C22.3899 12.86 22.3699 12.8 22.3499 12.73C22.3199 12.67 22.2899 12.61 22.2599 12.56C22.2299 12.5 22.1999 12.44 22.1599 12.39C22.1299 12.33 22.0899 12.28 22.0499 12.23C21.9999 12.18 21.9599 12.13 21.9099 12.09C21.8699 12.04 21.8199 12 21.7699 11.95C21.7199 11.91 21.6699 11.87 21.6099 11.84C21.5599 11.8 21.4999 11.77 21.4399 11.74C21.3799 11.71 21.3299 11.68 21.2699 11.65C21.1999 11.63 21.1399 11.61 21.0799 11.59C21.0199 11.57 20.9499 11.55 20.8899 11.54C20.8299 11.53 20.7599 11.52 20.6999 11.51C20.6299 11.5 20.5699 11.5 20.4999 11.5C20.4399 11.5 20.3899 11.5 20.3299 11.51C20.2699 11.51 20.2099 11.52 20.1599 11.53C20.0999 11.54 20.0499 11.55 19.9899 11.57C19.9399 11.58 19.8799 11.6 19.8299 11.62C19.7699 11.64 19.7199 11.66 19.6699 11.68C19.6199 11.71 19.5599 11.73 19.5099 11.76C19.4699 11.79 19.4199 11.82 19.3699 11.85C19.3199 11.88 19.2799 11.92 19.2299 11.95C19.1899 11.99 19.1499 12.03 19.0999 12.07C19.0599 12.11 19.0199 12.15 18.9899 12.19C18.9499 12.24 18.9099 12.28 18.8799 12.33C18.8499 12.37 18.8099 12.42 18.7899 12.47L18.6999 12.62C18.6799 12.67 18.6599 12.73 18.6299 12.78C18.6099 12.83 18.5999 12.89 18.5799 12.94C18.5599 13 18.5499 13.05 18.5399 13.11L17.6599 17.5L14.4999 17.5C14.4299 17.5 14.3699 17.5 14.2999 17.51C14.2399 17.52 14.1699 17.53 14.1099 17.54C14.0499 17.55 13.9799 17.57 13.9199 17.59C13.8599 17.61 13.7999 17.63 13.7299 17.65C13.6699 17.68 13.6099 17.71 13.5599 17.74C13.4999 17.77 13.4399 17.8 13.3899 17.84C13.3299 17.87 13.2799 17.91 13.2299 17.95C13.1799 18 13.1299 18.04 13.0899 18.09C13.0399 18.13 12.9999 18.18 12.9499 18.23C12.9099 18.28 12.8699 18.33 12.8399 18.39C12.7999 18.44 12.7699 18.5 12.7399 18.56C12.7099 18.61 12.6799 18.67 12.6499 18.73C12.6299 18.8 12.6099 18.86 12.5899 18.92C12.5699 18.98 12.5499 19.05 12.5399 19.11C12.5299 19.17 12.5199 19.24 12.5099 19.3C12.4999 19.37 12.4999 19.43 12.4999 19.5C12.4999 19.57 12.4999 19.63 12.5099 19.7C12.5199 19.76 12.5299 19.83 12.5399 19.89C12.5499 19.95 12.5699 20.02 12.5899 20.08C12.6099 20.14 12.6299 20.2 12.6499 20.27C12.6799 20.33 12.7099 20.39 12.7399 20.44C12.7699 20.5 12.7999 20.56 12.8399 20.61C12.8699 20.67 12.9099 20.72 12.9499 20.77C12.9999 20.82 13.0399 20.87 13.0899 20.91C13.1299 20.96 13.1799 21 13.2299 21.05C13.2799 21.09 13.3299 21.13 13.3899 21.16C13.4399 21.2 13.4999 21.23 13.5599 21.26C13.6099 21.29 13.6699 21.32 13.7299 21.35C13.7999 21.37 13.8599 21.39 13.9199 21.41C13.9799 21.43 14.0499 21.45 14.1099 21.46C14.1699 21.47 14.2399 21.48 14.2999 21.49C14.3699 21.5 14.4299 21.5 14.4999 21.5L16.8599 21.5L16.0599 25.5L13.4999 25.5C13.4299 25.5 13.3699 25.5 13.2999 25.51C13.2399 25.52 13.1699 25.53 13.1099 25.54C13.0499 25.55 12.9799 25.57 12.9199 25.59C12.8599 25.61 12.7999 25.63 12.7299 25.65C12.6699 25.68 12.6099 25.71 12.5599 25.74C12.4999 25.77 12.4399 25.8 12.3899 25.84C12.3299 25.87 12.2799 25.91 12.2299 25.95C12.1799 26 12.1299 26.04 12.0899 26.09C12.0399 26.13 11.9999 26.18 11.9499 26.23C11.9099 26.28 11.8699 26.33 11.8399 26.39C11.7999 26.44 11.7699 26.5 11.7399 26.56C11.7099 26.61 11.6799 26.67 11.6499 26.73C11.6299 26.8 11.6099 26.86 11.5899 26.92C11.5699 26.98 11.5499 27.05 11.5399 27.11C11.5299 27.17 11.5199 27.24 11.5099 27.3C11.4999 27.37 11.4999 27.43 11.4999 27.5C11.4999 27.57 11.4999 27.63 11.5099 27.7C11.5199 27.76 11.5299 27.83 11.5399 27.89C11.5499 27.95 11.5699 28.02 11.5899 28.08C11.6099 28.14 11.6299 28.2 11.6499 28.27C11.6799 28.33 11.7099 28.39 11.7399 28.44C11.7699 28.5 11.7999 28.56 11.8399 28.61C11.8699 28.67 11.9099 28.72 11.9499 28.77C11.9999 28.82 12.0399 28.87 12.0899 28.91C12.1299 28.96 12.1799 29 12.2299 29.05C12.2799 29.09 12.3299 29.13 12.3899 29.16C12.4399 29.2 12.4999 29.23 12.5599 29.26C12.6099 29.29 12.6699 29.32 12.7299 29.35C12.7999 29.37 12.8599 29.39 12.9199 29.41C12.9799 29.43 13.0499 29.45 13.1099 29.46C13.1699 29.47 13.2399 29.48 13.2999 29.49C13.3699 29.5 13.4299 29.5 13.4999 29.5L15.2599 29.5L14.5399 33.11C14.5099 33.24 14.4999 33.37 14.4999 33.5C14.4999 33.57 14.4999 33.63 14.5099 33.7C14.5199 33.76 14.5299 33.83 14.5399 33.89C14.5499 33.95 14.5699 34.02 14.5899 34.08C14.6099 34.14 14.6299 34.2 14.6499 34.27C14.6799 34.33 14.7099 34.38 14.7399 34.44C14.7699 34.5 14.7999 34.56 14.8399 34.61C14.8699 34.67 14.9099 34.72 14.9499 34.77C14.9999 34.82 15.0399 34.87 15.0899 34.91C15.1299 34.96 15.1799 35 15.2299 35.05C15.2799 35.09 15.3299 35.13 15.3899 35.16C15.4399 35.2 15.4999 35.23 15.5599 35.26C15.6099 35.29 15.6699 35.32 15.7299 35.35C15.7999 35.37 15.8599 35.39 15.9199 35.41C15.9799 35.43 16.0499 35.45 16.1099 35.46C16.1699 35.47 16.2399 35.48 16.2999 35.49C16.3699 35.5 16.4299 35.5 16.4999 35.5C16.5599 35.5 16.6099 35.5 16.6699 35.49C16.7299 35.49 16.7899 35.48 16.8399 35.47C16.8999 35.46 16.9499 35.45 17.0099 35.43C17.0599 35.42 17.1199 35.4 17.1699 35.38C17.2299 35.36 17.2799 35.34 17.3299 35.32C17.3799 35.29 17.4399 35.27 17.4899 35.24C17.5299 35.21 17.5799 35.18 17.6299 35.15C17.6799 35.12 17.7199 35.08 17.7699 35.05C17.8099 35.01 17.8499 34.97 17.8999 34.93C17.9399 34.89 17.9799 34.85 18.0099 34.81C18.0499 34.76 18.0899 34.72 18.1199 34.67C18.1499 34.63 18.1899 34.58 18.2099 34.53L18.2999 34.38C18.3199 34.33 18.3399 34.27 18.3699 34.22C18.3899 34.17 18.3999 34.11 18.4199 34.06C18.4399 34 18.4499 33.95 18.4599 33.89L19.3399 29.5L26.2599 29.5L25.5399 33.11C25.5099 33.24 25.4999 33.37 25.4999 33.5C25.4999 33.57 25.4999 33.63 25.5099 33.7C25.5199 33.76 25.5299 33.83 25.5399 33.89C25.5499 33.95 25.5699 34.02 25.5899 34.08C25.6099 34.14 25.6299 34.2 25.6499 34.27C25.6799 34.33 25.7099 34.38 25.7399 34.44C25.7699 34.5 25.7999 34.56 25.8399 34.61C25.8699 34.67 25.9099 34.72 25.9499 34.77C25.9999 34.82 26.0399 34.87 26.0899 34.91C26.1299 34.96 26.1799 35 26.2299 35.05C26.2799 35.09 26.3299 35.13 26.3899 35.16C26.4399 35.2 26.4999 35.23 26.5599 35.26C26.6099 35.29 26.6699 35.32 26.7299 35.35C26.7999 35.37 26.8599 35.39 26.9199 35.41C26.9799 35.43 27.0499 35.45 27.1099 35.46C27.1699 35.47 27.2399 35.48 27.2999 35.49C27.3699 35.5 27.4299 35.5 27.4999 35.5C27.5599 35.5 27.6099 35.5 27.6699 35.49C27.7299 35.49 27.7899 35.48 27.8399 35.47C27.8999 35.46 27.9499 35.45 28.0099 35.43C28.0599 35.42 28.1199 35.4 28.1699 35.38C28.2299 35.36 28.2799 35.34 28.3299 35.32C28.3799 35.29 28.4399 35.27 28.4899 35.24C28.5299 35.21 28.5799 35.18 28.6299 35.15C28.6799 35.12 28.7199 35.08 28.7699 35.05C28.8099 35.01 28.8499 34.97 28.8999 34.93C28.9399 34.89 28.9799 34.85 29.0099 34.81C29.0499 34.76 29.0899 34.72 29.1199 34.67C29.1499 34.63 29.1899 34.58 29.2099 34.53L29.2999 34.38C29.3199 34.33 29.3399 34.27 29.3699 34.22C29.3899 34.17 29.3999 34.11 29.4199 34.06C29.4399 34 29.4499 33.95 29.4599 33.89L30.3399 29.5L32.9999 29.5C33.0699 29.5 33.1299 29.5 33.1999 29.49C33.2599 29.48 33.3299 29.47 33.3899 29.46C33.4499 29.45 33.5199 29.43 33.5799 29.41C33.6399 29.39 33.6999 29.37 33.7699 29.35C33.8299 29.32 33.8799 29.29 33.9399 29.26C33.9999 29.23 34.0599 29.2 34.1099 29.16C34.1699 29.13 34.2199 29.09 34.2699 29.05C34.3199 29 34.3699 28.96 34.4099 28.91C34.4599 28.87 34.4999 28.82 34.5499 28.77C34.5899 28.72 34.6299 28.67 34.6599 28.61C34.6999 28.56 34.7299 28.5 34.7599 28.44C34.7899 28.39 34.8199 28.33 34.8499 28.27C34.8699 28.2 34.8899 28.14 34.9099 28.08C34.9299 28.02 34.9499 27.95 34.9599 27.89C34.9699 27.83 34.9799 27.76 34.9899 27.7C34.9999 27.63 34.9999 27.57 34.9999 27.5C34.9999 27.43 34.9999 27.37 34.9899 27.3C34.9799 27.24 34.9699 27.17 34.9599 27.11C34.9499 27.05 34.9299 26.98 34.9099 26.92C34.8899 26.86 34.8699 26.8 34.8499 26.73C34.8199 26.67 34.7899 26.61 34.7599 26.56C34.7299 26.5 34.6999 26.44 34.6599 26.39C34.6299 26.33 34.5899 26.28 34.5499 26.23C34.4999 26.18 34.4599 26.13 34.4099 26.09C34.3699 26.04 34.3199 26 34.2699 25.95C34.2199 25.91 34.1699 25.87 34.1099 25.84C34.0599 25.8 33.9999 25.77 33.9399 25.74C33.8799 25.71 33.8299 25.68 33.7699 25.65C33.6999 25.63 33.6399 25.61 33.5799 25.59C33.5199 25.57 33.4499 25.55 33.3899 25.54C33.3299 25.53 33.2599 25.52 33.1999 25.51C33.1299 25.5 33.0699 25.5 32.9999 25.5L31.1399 25.5L31.9399 21.5L34.4999 21.5C34.5699 21.5 34.6299 21.5 34.6999 21.49C34.7599 21.48 34.8299 21.47 34.8899 21.46C34.9499 21.45 35.0199 21.43 35.0799 21.41C35.1399 21.39 35.1999 21.37 35.2699 21.35C35.3299 21.32 35.3799 21.29 35.4399 21.26C35.4999 21.23 35.5599 21.2 35.6099 21.16C35.6699 21.13 35.7199 21.09 35.7699 21.05C35.8199 21 35.8699 20.96 35.9099 20.91C35.9599 20.87 35.9999 20.82 36.0499 20.77C36.0899 20.72 36.1299 20.67 36.1599 20.61C36.1999 20.56 36.2299 20.5 36.2599 20.44C36.2899 20.39 36.3199 20.33 36.3499 20.27C36.3699 20.2 36.3899 20.14 36.4099 20.08C36.4299 20.02 36.4499 19.95 36.4599 19.89C36.4699 19.83 36.4799 19.76 36.4899 19.7C36.4999 19.63 36.4999 19.57 36.4999 19.5C36.4999 19.43 36.4999 19.37 36.4899 19.3C36.4799 19.24 36.4699 19.17 36.4599 19.11C36.4499 19.05 36.4299 18.98 36.4099 18.92C36.3899 18.86 36.3699 18.8 36.3499 18.73C36.3199 18.67 36.2899 18.61 36.2599 18.56C36.2299 18.5 36.1999 18.44 36.1599 18.39C36.1299 18.33 36.0899 18.28 36.0499 18.23C35.9999 18.18 35.9599 18.13 35.9099 18.09C35.8699 18.04 35.8199 18 35.7699 17.95C35.7199 17.91 35.6699 17.87 35.6099 17.84C35.5599 17.8 35.4999 17.77 35.4399 17.74C35.3799 17.71 35.3299 17.68 35.2699 17.65C35.1999 17.63 35.1399 17.61 35.0799 17.59C35.0199 17.57 34.9499 17.55 34.8899 17.54C34.8299 17.53 34.7599 17.52 34.6999 17.51C34.6299 17.5 34.5699 17.5 34.4999 17.5L32.7399 17.5L33.4599 13.89C33.4899 13.76 33.4999 13.63 33.4999 13.5C33.4999 13.43 33.4999 13.37 33.4899 13.3ZM27.8599 21.5L20.9399 21.5L20.1399 25.5L27.0599 25.5L27.8599 21.5Z" fill-rule="evenodd"  fill="#000000" >
</path>
</svg>
